<svg width="344" height="344" viewBox="0 0 344 344" fill="none" xmlns="http://www.w3.org/2000/svg">
<mask id="mask0" mask-type="alpha" maskUnits="userSpaceOnUse" x="0" y="0" width="344" height="344">
<circle cx="172" cy="172" r="172" fill="#C4C4C4"/>
</mask>
<g mask="url(#mask0)">
<ellipse cx="287.62" cy="81.4822" rx="8.97749" ry="9.44999" fill="#CD4A3D"/>
<circle cx="118.937" cy="195.827" r="9.44999" fill="#CD4A3D"/>
<circle cx="235.172" cy="346.082" r="9.44999" fill="#CD4A3D"/>
<circle cx="6.48221" cy="47.4617" r="9.44999" fill="#CD4A3D"/>
<ellipse cx="59.45" cy="277.922" rx="9.44999" ry="9.92249" fill="#CD4A3D"/>
<ellipse cx="232.337" cy="171.73" rx="9.44999" ry="9.92249" fill="#CD4A3D"/>
<ellipse cx="348.572" cy="321.984" rx="9.44999" ry="9.92249" fill="#CD4A3D"/>
<ellipse cx="119.882" cy="24.3097" rx="9.44999" ry="9.92249" fill="#CD4A3D"/>
<circle cx="197.922" cy="14.9225" r="9.92249" fill="#CD4A3D"/>
<ellipse cx="319.922" cy="209.45" rx="9.92249" ry="9.44999" fill="#CD4A3D"/>
<circle cx="169.494" cy="265.284" r="9.92249" fill="#CD4A3D"/>
<ellipse cx="56.0953" cy="117.393" rx="9.92249" ry="9.44999" fill="#CD4A3D"/>
<ellipse cx="14.9225" cy="182.45" rx="9.92249" ry="9.44999" fill="#CD4A3D"/>
<ellipse cx="281.95" cy="241.659" rx="9.92249" ry="8.97749" fill="#CD4A3D"/>
<ellipse cx="169.494" cy="93.7674" rx="9.92249" ry="9.44999" fill="#CD4A3D"/>
<ellipse cx="54.2052" cy="340.412" rx="9.92249" ry="9.44999" fill="#CD4A3D"/>
<circle cx="216.272" cy="223.231" r="9.44999" fill="#CD4A3D"/>
<ellipse cx="103.344" cy="74.867" rx="9.92249" ry="9.44999" fill="#CD4A3D"/>
<ellipse cx="269.922" cy="136.45" rx="9.92249" ry="9.44999" fill="#CD4A3D"/>
<ellipse cx="314.08" cy="45.5721" rx="9.92249" ry="9.44999" fill="#CD4A3D"/>
<ellipse cx="165.715" cy="227.484" rx="9.92249" ry="8.97749" fill="#CD4A3D"/>
<ellipse cx="53.2594" cy="79.5921" rx="9.92249" ry="9.44999" fill="#CD4A3D"/>
<circle cx="116.102" cy="321.512" r="9.44999" fill="#CD4A3D"/>
<ellipse cx="51.9775" cy="180.45" rx="8.97749" ry="9.44999" fill="#CD4A3D"/>
<circle cx="278.643" cy="204.332" r="9.44999" fill="#CD4A3D"/>
<circle cx="165.714" cy="56.4399" r="8.97749" fill="#CD4A3D"/>
<ellipse cx="268.977" cy="54.45" rx="8.97749" ry="9.44999" fill="#CD4A3D"/>
<ellipse cx="237.977" cy="306.45" rx="8.97749" ry="9.44999" fill="#CD4A3D"/>
<circle cx="102.872" cy="149.522" r="9.44999" fill="#CD4A3D"/>
<circle cx="101.922" cy="243.922" r="9.92249" fill="#CD4A3D"/>
<circle cx="328.254" cy="273.789" r="9.92249" fill="#CD4A3D"/>
<circle cx="215.799" cy="126.37" r="9.92249" fill="#CD4A3D"/>
<ellipse cx="290.45" cy="108.922" rx="9.44999" ry="9.92249" fill="#9EEBD5"/>
<ellipse cx="131.222" cy="223.704" rx="9.44999" ry="9.92249" fill="#9EEBD5"/>
<ellipse cx="18.7679" cy="75.3395" rx="9.44999" ry="9.92249" fill="#9EEBD5"/>
<circle cx="148.45" cy="328.45" r="9.44999" fill="#9EEBD5"/>
<ellipse cx="244.622" cy="200.08" rx="9.44999" ry="8.97749" fill="#9EEBD5"/>
<ellipse cx="131.695" cy="52.1873" rx="8.97749" ry="9.44999" fill="#9EEBD5"/>
<circle cx="219.107" cy="250.637" r="9.44999" fill="#9EEBD5"/>
<circle cx="106.652" cy="102.272" r="9.44999" fill="#9EEBD5"/>
<ellipse cx="232.809" cy="29.0346" rx="9.92249" ry="8.97749" fill="#9EEBD5"/>
<circle cx="334.45" cy="162.45" r="9.44999" fill="#9EEBD5"/>
<ellipse cx="180.834" cy="293.162" rx="9.92249" ry="9.44999" fill="#9EEBD5"/>
<ellipse cx="68.38" cy="145.741" rx="9.92249" ry="9.44999" fill="#9EEBD5"/>
<circle cx="345.737" cy="5.88212" r="9.44999" fill="#9EEBD5"/>
<ellipse cx="55.45" cy="241.977" rx="9.44999" ry="8.97749" fill="#9EEBD5"/>
<circle cx="293.762" cy="270.482" r="9.44999" fill="#9EEBD5"/>
<circle cx="181.307" cy="122.117" r="9.44999" fill="#9EEBD5"/>
<circle cx="29.6354" cy="321.984" r="9.92249" fill="#9EEBD5"/>
<circle cx="192.175" cy="204.804" r="9.92249" fill="#9EEBD5"/>
<circle cx="79.7194" cy="57.3849" r="9.92249" fill="#9EEBD5"/>
<ellipse cx="143.035" cy="298.832" rx="9.92249" ry="9.44999" fill="#9EEBD5"/>
<ellipse cx="29.6354" cy="150.939" rx="9.92249" ry="8.97749" fill="#9EEBD5"/>
<ellipse cx="305.574" cy="181.652" rx="9.92249" ry="9.44999" fill="#9EEBD5"/>
<ellipse cx="199.922" cy="49.45" rx="9.92249" ry="9.44999" fill="#9EEBD5"/>
<circle cx="293.762" cy="10.6072" r="9.44999" fill="#9EEBD5"/>
<ellipse cx="247.45" cy="272.977" rx="9.44999" ry="8.97749" fill="#9EEBD5"/>
<circle cx="129.332" cy="126.842" r="9.44999" fill="#9EEBD5"/>
<circle cx="80.1927" cy="221.342" r="9.44999" fill="#9EEBD5"/>
<ellipse cx="242.732" cy="103.69" rx="9.44999" ry="8.97749" fill="#9EEBD5"/>
<circle cx="322.45" cy="116.45" r="9.44999" fill="#B8CEF8"/>
<ellipse cx="150.122" cy="197.244" rx="9.44999" ry="9.92249" fill="#B8CEF8"/>
<ellipse cx="152.012" cy="155.665" rx="9.44999" ry="9.92249" fill="#B8CEF8"/>
<ellipse cx="266.357" cy="347.5" rx="9.44999" ry="9.92249" fill="#B8CEF8"/>
<ellipse cx="37.1953" cy="49.3523" rx="8.97749" ry="9.44999" fill="#B8CEF8"/>
<ellipse cx="101.977" cy="283.45" rx="8.97749" ry="9.44999" fill="#B8CEF8"/>
<circle cx="263.05" cy="173.619" r="8.97749" fill="#B8CEF8"/>
<circle cx="150.122" cy="25.7273" r="9.44999" fill="#B8CEF8"/>
<ellipse cx="252.182" cy="3.51966" rx="9.44999" ry="9.92249" fill="#B8CEF8"/>
<ellipse cx="200.207" cy="267.174" rx="9.44999" ry="9.92249" fill="#B8CEF8"/>
<ellipse cx="87.7522" cy="119.755" rx="9.44999" ry="9.92249" fill="#B8CEF8"/>
<ellipse cx="38.1403" cy="213.782" rx="9.92249" ry="9.44999" fill="#B8CEF8"/>
<ellipse cx="313.134" cy="244.022" rx="9.92249" ry="9.44999" fill="#B8CEF8"/>
<circle cx="200.207" cy="95.657" r="9.44999" fill="#B8CEF8"/>
<ellipse cx="193.119" cy="-8.29269" rx="8.97749" ry="9.44999" fill="#B8CEF8"/>
<circle cx="309.827" cy="141.962" r="9.44999" fill="#B8CEF8"/>
<ellipse cx="141.144" cy="256.307" rx="8.97749" ry="9.44999" fill="#B8CEF8"/>
<circle cx="28.2171" cy="107.942" r="9.44999" fill="#B8CEF8"/>
<ellipse cx="91.0602" cy="349.862" rx="9.92249" ry="9.44999" fill="#B8CEF8"/>
<circle cx="253.6" cy="232.21" r="9.92249" fill="#B8CEF8"/>
<circle cx="141.145" cy="84.7897" r="9.92249" fill="#B8CEF8"/>
<ellipse cx="242.732" cy="61.1647" rx="9.44999" ry="9.92249" fill="#B8CEF8"/>
<ellipse cx="190.757" cy="325.765" rx="9.44999" ry="9.92249" fill="#B8CEF8"/>
<ellipse cx="77.8295" cy="177.4" rx="8.97749" ry="9.92249" fill="#B8CEF8"/>
<circle cx="30.45" cy="245.45" r="9.44999" fill="#B8CEF8"/>
<ellipse cx="303.212" cy="302.139" rx="9.44999" ry="8.97749" fill="#B8CEF8"/>
<circle cx="74.5223" cy="3.99247" r="9.44999" fill="#B8CEF8"/>
<circle cx="190.757" cy="154.247" r="9.44999" fill="#B8CEF8"/>
</g>
</svg>
