<svg width="114" height="114" viewBox="0 0 114 114" fill="none" xmlns="http://www.w3.org/2000/svg">
<mask id="mask0" mask-type="alpha" maskUnits="userSpaceOnUse" x="0" y="0" width="114" height="114">
<path d="M56.9165 113.833C88.3507 113.833 113.833 88.3507 113.833 56.9165C113.833 25.4824 88.3507 0 56.9165 0C25.4824 0 0 25.4824 0 56.9165C0 88.3507 25.4824 113.833 56.9165 113.833Z" fill="#9EEBD5"/>
</mask>
<g mask="url(#mask0)">
<path d="M56.8028 113.609C88.2369 113.609 113.719 88.1265 113.719 56.6924C113.719 25.2583 88.2369 -0.224121 56.8028 -0.224121C25.3686 -0.224121 -0.11377 25.2583 -0.11377 56.6924C-0.11377 88.1265 25.3686 113.609 56.8028 113.609Z" fill="#9EEBD5"/>
</g>
<path d="M80.5444 77.1541C82.9863 77.1541 84.9658 75.1745 84.9658 72.7327C84.9658 70.2908 82.9863 68.3113 80.5444 68.3113C78.1026 68.3113 76.123 70.2908 76.123 72.7327C76.123 75.1745 78.1026 77.1541 80.5444 77.1541Z" fill="#3E4653"/>
<path d="M33.2881 77.1543C35.73 77.1543 37.7095 75.1748 37.7095 72.7329C37.7095 70.291 35.73 68.3115 33.2881 68.3115C30.8462 68.3115 28.8667 70.291 28.8667 72.7329C28.8667 75.1748 30.8462 77.1543 33.2881 77.1543Z" fill="#3E4653"/>
<path d="M66.959 73.5681C66.959 79.1141 62.4622 83.6109 56.9163 83.6109C51.3703 83.6109 46.8735 79.1141 46.8735 73.5681" stroke="#3E4653" stroke-width="2.05259" stroke-miterlimit="10" stroke-linecap="round" stroke-linejoin="round"/>
</svg>
