<svg width="138" height="144" viewBox="0 0 138 144" fill="none" xmlns="http://www.w3.org/2000/svg">
<mask id="mask0" mask-type="alpha" maskUnits="userSpaceOnUse" x="12" y="18" width="114" height="114">
<path d="M68.9165 131.833C100.351 131.833 125.833 106.351 125.833 74.9165C125.833 43.4824 100.351 18 68.9165 18C37.4824 18 12 43.4824 12 74.9165C12 106.351 37.4824 131.833 68.9165 131.833Z" fill="#9EEBD5"/>
</mask>
<g mask="url(#mask0)">
<path d="M68.8028 131.609C100.237 131.609 125.719 106.127 125.719 74.6924C125.719 43.2583 100.237 17.7759 68.8028 17.7759C37.3686 17.7759 11.8862 43.2583 11.8862 74.6924C11.8862 106.127 37.3686 131.609 68.8028 131.609Z" fill="#9EEBD5"/>
</g>
<path d="M92.5444 95.1541C94.9863 95.1541 96.9658 93.1745 96.9658 90.7327C96.9658 88.2908 94.9863 86.3113 92.5444 86.3113C90.1026 86.3113 88.123 88.2908 88.123 90.7327C88.123 93.1745 90.1026 95.1541 92.5444 95.1541Z" fill="#3E4653"/>
<path d="M45.2881 95.1543C47.73 95.1543 49.7095 93.1748 49.7095 90.7329C49.7095 88.291 47.73 86.3115 45.2881 86.3115C42.8462 86.3115 40.8667 88.291 40.8667 90.7329C40.8667 93.1748 42.8462 95.1543 45.2881 95.1543Z" fill="#3E4653"/>
<path d="M78.959 91.5681C78.959 97.1141 74.4622 101.611 68.9163 101.611C63.3703 101.611 58.8735 97.1141 58.8735 91.5681" stroke="#3E4653" stroke-width="2.05259" stroke-miterlimit="10" stroke-linecap="round" stroke-linejoin="round"/>
<path d="M136 74.5637C136 111.501 106.014 141.442 69.0231 141.442C32.0318 141.442 2.04639 111.501 2.04639 74.5637C2.04639 43.9235 22.6788 18.0967 50.8289 10.1819" stroke="#3E4653" stroke-width="4" stroke-miterlimit="10"/>
<path d="M51.2192 19.5551L66.0001 7.56852L48.2144 0.776367L51.2192 19.5551Z" fill="#3E4653"/>
</svg>
