<svg width="235" height="213" viewBox="0 0 235 213" fill="none" xmlns="http://www.w3.org/2000/svg">
<path d="M106.53 212.06C137.751 212.06 163.06 186.751 163.06 155.53C163.06 124.309 137.751 99 106.53 99C75.3093 99 50 124.309 50 155.53C50 186.751 75.3093 212.06 106.53 212.06Z" fill="#B8CEF8"/>
<path d="M129.998 136.07C132.424 136.07 134.39 134.104 134.39 131.679C134.39 129.253 132.424 127.287 129.998 127.287C127.573 127.287 125.607 129.253 125.607 131.679C125.607 134.104 127.573 136.07 129.998 136.07Z" fill="#3E4653"/>
<path d="M83.0623 136.07C85.4875 136.07 87.4536 134.104 87.4536 131.678C87.4536 129.253 85.4875 127.287 83.0623 127.287C80.637 127.287 78.6709 129.253 78.6709 131.678C78.6709 134.104 80.637 136.07 83.0623 136.07Z" fill="#3E4653"/>
<mask id="mask0" mask-type="alpha" maskUnits="userSpaceOnUse" x="96" y="132" width="21" height="11">
<path d="M96.5552 132.508C96.5552 138.016 101.021 142.483 106.53 142.483C112.038 142.483 116.504 138.016 116.504 132.508H96.5552Z" fill="#3E4D61"/>
</mask>
<g mask="url(#mask0)">
<path d="M96.5552 132.508C96.5552 138.016 101.021 142.483 106.53 142.483C112.038 142.483 116.504 138.016 116.504 132.508H96.5552Z" fill="#3E4653"/>
<path d="M116.504 147.468C116.504 141.96 112.038 137.494 106.53 137.494C101.021 137.494 96.5552 141.96 96.5552 147.468H116.504Z" fill="#CD4A3D"/>
</g>
<path d="M31.9112 27.1283C31.9112 27.1283 19.9579 34.1437 0 27.9347L16.3906 47.4477L39.9119 27.0488L31.9112 27.1283Z" fill="#B8CEF8"/>
<path d="M28.8246 0L58.535 23.0605C58.535 23.0605 37.6754 48.3376 16.3906 47.4517C16.3906 47.4477 46.2679 23.7358 28.8246 0Z" fill="#9EEBD5"/>
<path d="M134.632 19.9912C134.632 19.9912 140.004 40.0346 159.47 47.3136L145.429 62.9912C145.429 62.9912 116.169 46.6435 111.47 37.013L134.632 19.9912Z" fill="#9EEBD5"/>
<path d="M220.975 111.842C220.975 111.842 215.846 120.152 219.171 125.65L208.195 133.143V123.275L217.066 108.31L220.975 111.842Z" fill="#B8CEF8"/>
<path d="M219.505 89.2422L234.47 104.874C234.47 104.874 206.531 114.519 208.195 133.142C208.195 133.142 203.21 119.175 219.505 89.2422Z" fill="#9EEBD5"/>
</svg>
