<svg width="134" height="113" viewBox="0 0 134 113" fill="none" xmlns="http://www.w3.org/2000/svg">
<g clip-path="url(#clip0)">
<path d="M56.406 112.812C87.5581 112.812 112.812 87.5581 112.812 56.406C112.812 25.2538 87.5581 0 56.406 0C25.2538 0 0 25.2538 0 56.406C0 87.5581 25.2538 112.812 56.406 112.812Z" fill="#CD4A3D"/>
<path d="M79.8226 50.0074C82.2426 50.0074 84.2044 48.0456 84.2044 45.6256C84.2044 43.2057 82.2426 41.2439 79.8226 41.2439C77.4027 41.2439 75.4409 43.2057 75.4409 45.6256C75.4409 48.0456 77.4027 50.0074 79.8226 50.0074Z" fill="#3E4653"/>
<path d="M32.9896 50.0076C35.4096 50.0076 37.3714 48.0458 37.3714 45.6259C37.3714 43.2059 35.4096 41.2441 32.9896 41.2441C30.5697 41.2441 28.6079 43.2059 28.6079 45.6259C28.6079 48.0458 30.5697 50.0076 32.9896 50.0076Z" fill="#3E4653"/>
<mask id="mask0" mask-type="alpha" maskUnits="userSpaceOnUse" x="46" y="46" width="21" height="11">
<path d="M46.4536 46.4534C46.4536 51.9496 50.91 56.406 56.4063 56.406C61.9025 56.406 66.3589 51.9496 66.3589 46.4534H46.4536Z" fill="#3E4D61"/>
</mask>
<g mask="url(#mask0)">
<path d="M46.4536 46.4534C46.4536 51.9496 50.91 56.406 56.4063 56.406C61.9025 56.406 66.3589 51.9496 66.3589 46.4534H46.4536Z" fill="#3E4653"/>
<path d="M66.3589 61.3823C66.3589 55.8861 61.9025 51.4297 56.4063 51.4297C50.91 51.4297 46.4536 55.8861 46.4536 61.3823H66.3589Z" fill="#B8CEF8"/>
</g>
<path d="M101.687 50.6325C101.687 50.6325 113.777 44.252 123.96 37.8593C132.698 32.3737 143.111 47.5939 115.355 74.9515C87.5998 102.309 101.687 50.6325 101.687 50.6325Z" fill="#CD4A3D"/>
</g>
<defs>
<clipPath id="clip0">
<rect width="133.35" height="112.812" fill="white"/>
</clipPath>
</defs>
</svg>
