<svg width="45" height="47" viewBox="0 0 45 47" fill="none" xmlns="http://www.w3.org/2000/svg">
<path d="M1.07197 10.4416L9.90289 0.877099C10.5706 0.152945 11.6898 0.0683036 12.4609 0.684305L14.4782 2.30189C15.2259 2.89909 16.3074 2.84266 16.9845 2.16083L18.5363 0.609068C18.889 0.256395 19.3686 0.0588989 19.8671 0.0588989H42.598C43.6372 0.0588989 44.4789 0.90061 44.4789 1.93982V38.1757C44.4789 38.4673 44.413 38.7541 44.2814 39.0174L41.239 45.1022C40.9192 45.7417 40.2703 46.1414 39.5556 46.1414H11.0644C10.486 46.1414 9.9405 45.8781 9.58313 45.422L5.37928 40.0707C5.12065 39.7416 4.97958 39.3278 4.97958 38.9093V17.4621C4.97958 16.9401 4.76327 16.4417 4.38239 16.089L1.17542 13.0937C0.418351 12.3883 0.37603 11.2033 1.07667 10.4416H1.07197Z" fill="white"/>
<path d="M35.8195 19.2533L11.2949 32.1475V39.3469L14.5412 44.6119H39.304L42.241 39.3469V19.2533H35.8195Z" fill="#EFB138"/>
<path d="M14.5799 8.50818L19.5227 3.45795H33.384M14.5799 8.50818L9.63714 13.5584L8.13281 15.9224V37.6276L10.7117 41.9257H36.2852L39.5087 37.6276V3.45795H33.384M14.5799 8.50818H29.1934L33.384 3.45795" stroke="#27372A" stroke-width="2"/>
<path d="M18.4746 30.3189C18.4746 24.1517 24.3421 16.3704 24.3421 16.3704C24.3421 16.3704 29.7049 24.1758 30.0835 30.3189C30.182 31.9177 29.8373 36.5342 24.3421 36.5342C19.3317 36.5342 18.4746 32.9206 18.4746 30.3189Z" stroke="#223829" stroke-width="2" stroke-linecap="round" stroke-linejoin="round"/>
<path d="M21.5908 29.4769C21.3615 30.5061 21.3642 32.6527 23.209 33.0055" stroke="#223829" stroke-width="2" stroke-linecap="round" stroke-linejoin="round"/>
<path d="M9.83008 14.3743L7.28125 12.0663L11.6086 7.28729L14.1574 9.59521" stroke="#27372A" stroke-width="2"/>
<path d="M3.60938 11.6396L5.8396 13.6591L13.0518 5.69399L10.8216 3.67456L3.60938 11.6396Z" stroke="#27372A" stroke-width="2"/>
</svg>
