<svg width="42" height="43" viewBox="0 0 42 43" fill="none" xmlns="http://www.w3.org/2000/svg">
<path d="M17.1813 21.4799C17.1813 21.4799 22.2618 13.0369 28.7384 18.0168C35.215 22.9967 16.443 40.2452 16.443 40.2452C16.443 40.2452 -0.302109 24.2987 5.59056 18.104C11.4832 11.9094 17.188 21.4799 17.188 21.4799H17.1813Z" fill="#F4B536"/>
<path d="M22.1006 20.5402C22.1006 20.5402 25.7316 14.0234 32.2081 19.0033C38.6847 23.9832 19.9127 41.2317 19.9127 41.2317C19.9127 41.2317 3.16762 25.2852 9.06029 19.0906C14.953 12.8959 20.6577 22.4664 20.6577 22.4664L22.1006 20.5402Z" stroke="#22382A" stroke-width="2" stroke-miterlimit="10"/>
<path d="M36.4492 14.3321L40.9996 9.78174" stroke="#22382A" stroke-width="2" stroke-miterlimit="10"/>
<path d="M29.6377 9.64088L31.6444 3.53345" stroke="#22382A" stroke-width="2" stroke-miterlimit="10"/>
<path d="M5.55038 13.0705L1 8.52014" stroke="#22382A" stroke-width="2" stroke-miterlimit="10"/>
<path d="M13.0341 8.37916L11.0273 2.27173" stroke="#22382A" stroke-width="2" stroke-miterlimit="10"/>
<path d="M21.376 7.1979L21.5371 0.768311" stroke="#22382A" stroke-width="2" stroke-miterlimit="10"/>
</svg>
