<svg width="56" height="48" viewBox="0 0 56 48" fill="none" xmlns="http://www.w3.org/2000/svg">
<path d="M5.37205 23.5141L8.63355 28.5703L11.3286 30.7585L17.0526 30.9255L19.9146 32.9169L22.3175 32.5055L25.0961 37.0013L26.4853 36.4587L27.9938 35.302L30.0211 32.3684L32.424 33.4595L34.5705 31.6887L37.0807 31.9331L39.269 32.267H39.6029L42.0415 36.7151L43.3056 36.3037L44.8201 32.0941L42.9061 29.1069L42.3993 27.0618L43.2877 26.0958L45.4342 22.9595L43.7885 20.7773C43.7885 20.7773 44.5458 19.9604 44.671 19.549C44.7962 19.1376 45.0526 17.0984 45.0526 17.0984L47.4555 15.3275L47.3303 12.3284C47.3303 12.3284 49.5305 10.4442 49.5305 10.0388C49.5305 9.63332 47.3422 7.17676 47.3422 7.17676L46.6684 9.0311L43.9734 11.7262L43.1565 13.9681L41.1591 14.2662L40.4436 14.2483L39.263 12.5669L38.2553 12.3999L36.3354 13.4255C36.3354 13.4255 35.4529 13.8369 35.3218 14.2423C35.2323 14.5226 34.815 16.5141 34.5705 17.7185C34.5228 17.951 35.5424 15.6078 35.4768 15.3752L34.2127 13.2466L35.7272 10.3846L33.3005 11.3863L32.1915 11.5652L31.1719 10.9153L31.1838 9.54388L29.6693 8.3633L25.1259 9.20401C25.1259 9.20401 14.8584 8.87011 15.5322 8.87011C15.9436 8.87011 10.9828 8.23809 10.9828 8.23809L7.57222 8.10095L8.07903 9.59754L5.80135 9.05495L5.29454 10.2832L5.92656 11.2372L4.86523 14.1112L5.37205 23.5141Z" fill="#E0988D"/>
<path d="M7.22675 22.1668L10.4882 27.223L13.1833 29.4112L18.9073 29.5782L21.7693 31.5696L24.1722 31.1582L26.9508 35.654L28.34 35.1114L28.8468 32.6608L31.8818 31.0271L34.2847 32.1182L36.4312 30.3473L38.9414 30.5918L41.1296 30.9257H41.4635L43.9022 35.3737L45.1662 34.9623L45.4167 32.3746L43.5027 29.3874L42.9959 27.3422L45.1424 24.7545L47.2889 21.6182L45.6432 19.4359C45.6432 19.4359 46.4005 18.6191 46.5257 18.2076C46.6509 17.7962 46.9073 15.7571 46.9073 15.7571L49.3102 13.9862L49.185 10.987C49.185 10.987 51.3852 9.10288 51.3852 8.69743C51.3852 8.51856 50.9678 7.94616 50.4967 7.36183C49.9363 6.66421 48.9745 5.5339 48.3126 6.21363L45.8281 10.3789L45.0112 12.6208L43.0138 12.9189L41.1177 14.4155L39.3707 13.6165L39.7225 12.3703L38.1841 12.0722C38.1841 12.0722 37.5957 12.5134 37.4646 12.9189C37.3751 13.1991 37.1048 14.2142 36.8603 15.4186C36.8126 15.6512 35.978 16.3772 35.978 16.3772L34.714 14.2485L35.6251 10.987L35.1433 10.033L32.8656 11.5296L31.846 10.8797L33.0266 8.18466L31.5121 7.00408L26.9686 7.84479C26.9686 7.84479 16.7012 7.51089 17.375 7.51089C18.0487 7.51089 12.8256 6.87886 12.8256 6.87886L9.41499 6.74173L9.9218 8.23832L7.64412 7.69573L7.13731 8.92401L7.76934 9.87801L6.70801 12.7519L7.21482 22.1548L7.22675 22.1668Z" stroke="#22382A" stroke-width="2" stroke-miterlimit="10"/>
<path d="M14.1902 39.0763L12.9857 37.7705L11.3759 37.9732L10.076 39.1776L7.26172 38.9749H9.06836L10.5769 37.8719L9.37245 36.9715L9.8733 33.9604L12.3835 34.4613L13.2839 37.7705" fill="#E0988D"/>
<path d="M14.1902 39.0763L12.9857 37.7705L11.3759 37.9732L10.076 39.1776L7.26172 38.9749H9.06836L10.5769 37.8719L9.37245 36.9715L9.8733 33.9604L12.3835 34.4613L13.2839 37.7705" stroke="#1B3928" stroke-width="2" stroke-miterlimit="10"/>
<path d="M18.0605 37.4961L19.6585 39.094" stroke="#22382A" stroke-width="2" stroke-miterlimit="10"/>
<path d="M20.2969 40.0005L22.3003 41.038" stroke="#22382A" stroke-width="2" stroke-miterlimit="10"/>
<path d="M23.6709 41.7593L25.8055 41.5327L26.366 43.8939L24.458 44.7882L23.6709 41.7593Z" fill="#22382A"/>
</svg>
