<svg width="50" height="54" viewBox="0 0 50 54" fill="none" xmlns="http://www.w3.org/2000/svg">
<g clip-path="url(#clip0_4745_575)">
<path d="M36.3245 33.9414L35.7435 35.707C35.7435 35.707 31.5422 51 15.6103 50.1172C15.6103 50.1172 10.75 50.1172 8.22331 49.5273C7.5 53.5 7.5 53.5 7.5 53.5H39.7987C39.7987 53.5 42.9375 48.125 43.375 33.9414H39.7987H36.3245Z" fill="#F4B536"/>
<path d="M13.6885 34.2674C13.6885 34.2674 23.8136 43.6662 31.0317 36.8318C30.1695 36.8318 28.1812 35.334 27.7501 28.1819C27.7501 28.1819 24.3553 30.6403 17.5684 28.1819C17.5684 28.1819 17.5684 34.8045 13.6923 34.2674H13.6885Z" fill="#AF752A"/>
<path d="M22.6276 31.4082C20.3309 31.5519 18.3204 30.6971 15.1577 27.9891C14.3298 27.278 11.5752 25.25 10.9497 23.1592C9.65639 18.8361 10.0951 11.8996 10.0951 11.8996C10.0951 11.8996 11.2778 1.21865 23.3448 1.64604C35.4118 2.07343 34.6182 12.327 34.6182 12.327C34.6182 12.327 34.5476 18.8361 33.2505 23.1592C32.9453 24.1766 30.3835 27.2818 29.5557 27.9929C26.3968 30.6971 24.3863 31.5519 22.0858 31.412" fill="#AF752A"/>
<path d="M36.6968 18.4844C36.6968 18.4844 42.7818 22.1153 39.787 28.0496C36.7922 33.9838 29.288 32.2554 29.4177 29.0518L34.4459 24.5662L36.6968 18.4844Z" fill="#22382A"/>
<path d="M12.7573 9.5281C12.7573 9.5281 16.2023 0.840382 25.8239 1.41149C35.4454 1.98261 36.5937 7.53488 37.0973 12.0924L36.4998 10C36.4998 10 28.7498 9.5281 27.2621 4.69066C27.2621 4.69066 25.9688 12.4985 12.6124 11.5C12.6124 11.5 13.5013 12.2059 12.6124 12.3799C12.6124 11.5 12.2041 12.7619 12.1813 12.3799C12.1278 11.4722 12.33 10.8973 12.7573 9.53188V9.5281Z" fill="#22382A"/>
<path d="M36.9106 16.0788C36.9106 16.0788 40.2144 14.2293 39.6384 17.6447C39.0623 21.06 36.4795 21.7748 36.4795 21.7748" fill="white"/>
<path d="M36.9106 16.0788C36.9106 16.0788 40.2144 14.2293 39.6384 17.6447C39.0623 21.06 36.4795 21.7748 36.4795 21.7748" stroke="#22382A" stroke-width="2" stroke-linecap="round" stroke-linejoin="round"/>
<path d="M24.5179 30.9819C22.2368 31.1242 20.2399 30.2779 17.0988 27.5964C16.2765 26.8924 13.8752 23.6685 12.9994 20.75C11.7149 16.4694 12.0706 11.6651 12.0706 11.6651C12.0706 11.6651 13.2452 1.08918 25.2302 1.51237C37.2152 1.93556 36.4271 12.0883 36.4271 12.0883C36.4271 12.0883 36.8666 18.5372 35.5783 22.8178C34.7711 25.5 32.2212 26.8961 31.3989 27.6002C28.2615 30.2779 26.2647 31.1242 23.9798 30.9857" stroke="#22382A" stroke-width="2" stroke-linejoin="round"/>
<path d="M30 29.75C30 29.75 30.3487 34.1124 32.0959 35.1071C33.0306 35.6366 39.3827 35.3151 41.1338 35.4286C44.182 35.629 46.7953 37.7055 47.6346 40.6178C47.7682 41.083 47.8826 41.5898 47.9742 42.1382L49.2331 52.7435" stroke="#22382A" stroke-width="2" stroke-linecap="square" stroke-linejoin="round"/>
<path d="M19.5 30.2501C19.5 30.2501 19.0752 33.5943 17.3546 34.5852C16.4314 35.1147 10.6897 35.6253 8.96149 35.7388C5.95142 35.9392 3.37245 38.0157 2.54459 40.928C2.41106 41.3932 2.29661 41.9 2.20886 42.4484L1.5 52.7501" stroke="#22382A" stroke-width="2" stroke-linecap="square" stroke-linejoin="round"/>
<path d="M25.358 16.0071L26.6055 19.7136C26.9451 20.7273 26.1859 21.7749 25.1062 21.7749L23.0957 20.4928" stroke="#22382A" stroke-width="2" stroke-linecap="square" stroke-linejoin="round"/>
<path d="M18.6708 18.3256C19.621 18.3256 20.3914 17.5619 20.3914 16.6198C20.3914 15.6778 19.621 14.9141 18.6708 14.9141C17.7205 14.9141 16.9502 15.6778 16.9502 16.6198C16.9502 17.5619 17.7205 18.3256 18.6708 18.3256Z" fill="#22382A"/>
<path d="M30.5165 18.3256C31.4667 18.3256 32.2371 17.5619 32.2371 16.6198C32.2371 15.6778 31.4667 14.9141 30.5165 14.9141C29.5662 14.9141 28.7959 15.6778 28.7959 16.6198C28.7959 17.5619 29.5662 18.3256 30.5165 18.3256Z" fill="#22382A"/>
<path d="M20.082 24.4792C20.082 24.4792 24.2481 27.6109 28.9864 24.4792" stroke="#22382A" stroke-width="2" stroke-linecap="square" stroke-linejoin="round"/>
<path d="M33.408 35.7085C23.6263 44.5815 15.4277 35.2092 15.4277 35.2092" stroke="#22382A" stroke-width="2" stroke-linecap="round" stroke-linejoin="round"/>
<path d="M26.6778 4.3542C26.6778 4.3542 25.7119 8.31345 31.111 10.0873" stroke="#22382A" stroke-width="2" stroke-linecap="square" stroke-linejoin="round"/>
<path d="M24.9662 13.5146C25.5224 13.5146 25.9733 13.0675 25.9733 12.5161C25.9733 11.9646 25.5224 11.5176 24.9662 11.5176C24.4099 11.5176 23.959 11.9646 23.959 12.5161C23.959 13.0675 24.4099 13.5146 24.9662 13.5146Z" fill="#F4B536"/>
<path d="M37.9999 36.0001C37.6756 37.2823 36.7388 46.2269 31.2451 49.1089" stroke="#22382A" stroke-width="2" stroke-linecap="square" stroke-linejoin="round"/>
<path d="M40.75 36C40.75 36 39.974 43.3449 38.3564 45.9054" stroke="#22382A" stroke-width="2" stroke-linecap="square" stroke-linejoin="round"/>
<path d="M11.8948 16.0788C11.8948 16.0788 8.59098 14.2293 9.16705 17.6447C9.89113 21.9375 13.062 21.9375 13.062 21.9375" stroke="#22382A" stroke-width="2" stroke-linecap="round" stroke-linejoin="round"/>
<path d="M10.6747 45.4817L9.8125 52.7435" stroke="#22382A" stroke-width="2" stroke-linecap="square" stroke-linejoin="round"/>
<path d="M28.5 13.75C29.0833 13.25 30.65 12.55 32.25 13.75" stroke="#223829" stroke-width="2" stroke-linecap="square"/>
<path d="M16.5 13.75C17.0833 13.25 18.65 12.55 20.25 13.75" stroke="#223829" stroke-width="2" stroke-linecap="square"/>
</g>
<defs>
<clipPath id="clip0_4745_575">
<rect width="50" height="53" fill="white" transform="translate(0 0.5)"/>
</clipPath>
</defs>
</svg>
