<svg fill="none" xmlns="http://www.w3.org/2000/svg" viewBox="0 0 237 336">
	<defs />
	<path d="M164.531 109.26L41.5906 142.202C34.2625 144.165 26.7316 139.816 24.7685 132.489L7.2308 67.038C5.26765 59.7114 9.6154 52.1809 16.9435 50.2174L139.885 17.2752C147.212 15.3121 154.744 19.6594 156.707 26.9875L174.245 92.439C176.206 99.7644 171.859 107.296 164.531 109.26Z" fill="#FF7B7A" />
	<path d="M120.638 96.9575C120.168 95.2052 118.367 94.1679 116.615 94.6374 114.862 95.107 113.825 96.9081 114.294 98.6573 114.763 100.41 116.565 101.447 118.314 100.978 120.066 100.51 121.108 98.7113 120.638 96.9575zM154.536 87.8747C154.066 86.1224 152.265 85.0851 150.513 85.5546 148.76 86.0241 147.723 87.8253 148.192 89.5745 148.661 91.3268 150.462 92.3641 152.212 91.8954 153.964 91.4274 155.006 89.6285 154.536 87.8747zM127.368 95.7946C128.435 99.7745 132.524 102.136 136.504 101.069 140.481 100.004 142.845 95.9131 141.779 91.9332L127.368 95.7946z" fill="#2E495D" />
	<path d="M127.369 95.7964C128.436 99.7763 132.525 102.138 136.505 101.071C140.482 100.006 142.846 95.9149 141.78 91.9351L127.369 95.7964Z" fill="#CD4A3D" />
	<path d="M78.4136 33.7466C78.4136 33.7466 84.3474 11.6289 93.8711 16.5287 103.395 21.4285 78.4136 33.7466 78.4136 33.7466zM96.2862 49.9406C96.2862 49.9406 82.1773 47.791 78.4141 33.7465" stroke="#2E495D" stroke-width="5" stroke-miterlimit="10" stroke-linecap="round" stroke-linejoin="round" />
	<path d="M78.4141 33.7464C78.4141 33.7464 62.2164 17.5588 56.4186 26.5639 50.6207 35.5691 78.4141 33.7464 78.4141 33.7464zM71.0328 56.7072C71.0328 56.7072 82.1767 47.7911 78.4135 33.7466" stroke="#2E495D" stroke-width="5" stroke-miterlimit="10" stroke-linecap="round" stroke-linejoin="round" />
	<path d="M19.3229 66.174C18.7379 63.9909 18.1533 61.8093 17.5684 59.6262 17.4792 59.2935 17.4677 59.318 17.7927 59.2309 18.5685 59.023 19.3457 58.8148 20.1215 58.6069 20.1797 58.5913 20.2384 58.5772 20.2982 58.5612 20.3691 58.5438 20.4173 58.5704 20.4389 58.6385 20.4575 58.696 20.4747 58.7538 20.4907 58.8136 21.6664 63.2012 22.8416 67.5874 24.0173 71.975 24.0957 72.2678 24.0942 72.2683 23.806 72.3455 23.0226 72.5554 22.2392 72.7653 21.4558 72.9752 21.4052 72.9888 21.3527 73.0012 21.3021 73.0148 21.2147 73.0382 21.1554 73.013 21.1318 72.9191 21.1157 72.8527 21.095 72.7876 21.0773 72.7217 20.4928 70.5401 19.9078 68.357 19.3229 66.174zM23.8681 67.3469C24.8589 67.1077 25.855 67.0232 26.8622 67.2315 28.2449 67.5166 29.3189 68.2624 30.1228 69.4108 30.3228 69.6973 30.4973 69.9989 30.6199 70.3275 30.6759 70.4752 30.6671 70.5038 30.5269 70.5447 29.3844 70.8738 28.2248 71.035 27.0474 70.7803 25.3414 70.4109 24.1294 69.4015 23.3652 67.8432 23.2197 67.5453 23.2358 67.5196 23.5588 67.4314 23.6642 67.4015 23.7654 67.3744 23.8681 67.3469zM23.6953 66.8854C23.5758 66.9174 23.4205 66.9574 23.2676 67 23.1638 67.0295 23.11 66.988 23.0925 66.8859 23.0621 66.7051 23.0594 66.5234 23.0714 66.3411 23.2229 64.1102 24.2807 62.4777 26.2901 61.4776 26.7804 61.2345 27.2963 61.0568 27.8289 60.9289 28.0218 60.8821 28.035 60.8885 28.0522 61.0876 28.1218 61.8807 27.9829 62.6441 27.7047 63.3842 27.1615 64.8278 26.1603 65.8437 24.7737 66.4946 24.4364 66.6523 24.0918 66.789 23.6953 66.8854z" fill="#fff" />
	<path d="M120.632 96.9046C120.161 95.1493 118.358 94.1104 116.603 94.5808 114.847 95.0511 113.808 96.8544 114.278 98.6071 114.748 100.362 116.552 101.401 118.304 100.932 120.06 100.461 121.102 98.66 120.632 96.9046zM154.576 87.8089C154.106 86.0535 152.302 85.0147 150.547 85.485 148.792 85.9554 147.753 87.7587 148.222 89.5113 148.693 91.2666 150.496 92.3055 152.249 91.8359 154.004 91.3655 155.046 89.5642 154.576 87.8089zM127.373 95.741C128.441 99.7259 132.536 102.09 136.521 101.023 140.503 99.9556 142.871 95.8595 141.803 91.8745L127.373 95.741z" fill="#2E495D" />
	<mask id="kivacardpromo-a" maskUnits="userSpaceOnUse" x="127" y="91" width="17" height="12">
		<path d="M127.373 95.741C128.441 99.7259 132.536 102.09 136.521 101.023C140.503 99.9556 142.871 95.8595 141.803 91.8745L127.373 95.741Z" fill="#264052" />
	</mask>
	<g mask="url(#kivacardpromo-a)">
		<path d="M130.273 106.562L144.703 102.696C143.635 98.7107 139.54 96.3462 135.555 97.4139C131.573 98.481 129.205 102.577 130.273 106.562Z" fill="#CD4A3D" />
	</g>
	<path d="M178.432 295.403L46.1546 264.394C38.2713 262.546 33.3792 254.657 35.227 246.773L51.7368 176.351C53.5846 168.467 61.474 163.575 69.3573 165.423L201.634 196.434C209.517 198.282 214.409 206.171 212.562 214.054L196.053 284.476C194.205 292.359 186.317 297.252 178.432 295.403Z" fill="#385369" />
	<path d="M63.5497 181.637C64.0998 179.288 64.6514 176.94 65.2007 174.593 65.2844 174.234 65.2621 174.253 65.6124 174.334 66.4486 174.529 67.2824 174.725 68.1177 174.921 68.1813 174.937 68.2426 174.952 68.3062 174.968 68.3809 174.987 68.4137 175.035 68.3993 175.111 68.3878 175.175 68.375 175.238 68.3598 175.302 67.2529 180.021 66.1467 184.743 65.0399 189.462 64.9664 189.776 64.9656 189.777 64.6549 189.705 63.812 189.508 62.9677 189.31 62.1257 189.112 62.0703 189.099 62.0165 189.084 61.9611 189.072 61.8669 189.048 61.823 188.996 61.8495 188.896 61.8666 188.825 61.8808 188.753 61.8979 188.683 62.448 186.334 62.9981 183.985 63.5497 181.637zM67.2345 185.032C68.2867 185.307 69.267 185.73 70.1106 186.434 71.2671 187.399 71.9029 188.643 72.0802 190.128 72.1248 190.498 72.1366 190.871 72.087 191.241 72.0648 191.409 72.0422 191.431 71.8894 191.397 70.6484 191.131 69.4767 190.697 68.4982 189.864 67.0792 188.655 66.448 187.096 66.5159 185.243 66.5288 184.889 66.557 184.874 66.9059 184.954 67.0136 184.981 67.1236 185.007 67.2345 185.032zM67.3033 184.51C67.1738 184.48 67.0092 184.44 66.8429 184.403 66.7298 184.379 66.6996 184.312 66.7371 184.207 66.8005 184.022 66.8891 183.848 66.9916 183.685 68.2591 181.662 70.078 180.66 72.4722 180.731 73.0549 180.749 73.6298 180.844 74.1964 180.991 74.4004 181.045 74.4102 181.058 74.3263 181.254 73.991 182.035 73.4754 182.684 72.8416 183.24 71.6016 184.323 70.1483 184.774 68.5155 184.688 68.1176 184.665 67.7256 184.619 67.3033 184.51z" fill="#fff" />
	<path d="M132.567 193.294L115.165 267.521M140.787 200.115L129.334 207.218 122.231 195.764" stroke="#fff" stroke-width="3" stroke-miterlimit="10" stroke-linecap="round" stroke-linejoin="round" />
	<path d="M138.612 209.392L127.158 216.497 120.055 205.043M107.003 260.713L118.457 253.611 125.561 265.064M109.179 251.435L120.632 244.332 127.735 255.785M132.567 193.294L115.165 267.521" stroke="#fff" stroke-width="3" stroke-miterlimit="10" stroke-linecap="round" stroke-linejoin="round" />
	<path d="M140.787 200.115L129.334 207.218L122.231 195.764" stroke="#fff" stroke-width="3" stroke-miterlimit="10" stroke-linecap="round" stroke-linejoin="round" />
	<path d="M138.612 209.392L127.158 216.497 120.055 205.043M107.003 260.713L118.457 253.611 125.561 265.064M109.179 251.435L120.632 244.332 127.735 255.785M161.017 239.086L86.7898 221.684M154.196 247.306L147.092 235.853 158.545 228.749M144.915 245.131L137.813 233.676 149.266 226.573M93.5981 213.523L100.701 224.977 89.2462 232.08" stroke="#fff" stroke-width="3" stroke-miterlimit="10" stroke-linecap="round" stroke-linejoin="round" />
	<path d="M102.874 215.697L109.978 227.151 98.5239 234.253M161.017 239.086L86.7898 221.684M154.196 247.306L147.092 235.853 158.545 228.749M144.915 245.131L137.813 233.676 149.266 226.573" stroke="#fff" stroke-width="3" stroke-miterlimit="10" stroke-linecap="round" stroke-linejoin="round" />
	<path d="M93.5981 213.523L100.701 224.977L89.2462 232.08" stroke="#fff" stroke-width="3" stroke-miterlimit="10" stroke-linecap="round" stroke-linejoin="round" />
	<path d="M102.874 215.697L109.978 227.151 98.5239 234.253M156.275 210.297L91.4843 250.48M157.264 220.934L144.143 217.858 147.219 204.736" stroke="#fff" stroke-width="3" stroke-miterlimit="10" stroke-linecap="round" stroke-linejoin="round" />
	<path d="M149.166 225.956L136.045 222.88 139.121 209.759M90.5258 239.895L103.647 242.971 100.571 256.092M98.6254 234.872L111.747 237.948 108.671 251.069M156.275 210.297L91.4843 250.48" stroke="#fff" stroke-width="3" stroke-miterlimit="10" stroke-linecap="round" stroke-linejoin="round" />
	<path d="M157.264 220.934L144.143 217.858L147.219 204.736" stroke="#fff" stroke-width="3" stroke-miterlimit="10" stroke-linecap="round" stroke-linejoin="round" />
	<path d="M149.166 225.956L136.045 222.88 139.121 209.759M90.5258 239.895L103.647 242.971 100.571 256.092M98.6254 234.872L111.747 237.948 108.671 251.069M144.011 262.793L103.83 198.003M133.376 263.783L136.452 250.662 149.573 253.738M128.353 255.684L131.43 242.562 144.551 245.638M114.415 197.046L111.339 210.168 98.2161 207.091" stroke="#fff" stroke-width="3" stroke-miterlimit="10" stroke-linecap="round" stroke-linejoin="round" />
	<path d="M119.438 205.144L116.361 218.265 103.24 215.189M144.011 262.793L103.83 198.003M133.376 263.783L136.452 250.662 149.573 253.738M128.353 255.684L131.43 242.562 144.551 245.638" stroke="#fff" stroke-width="3" stroke-miterlimit="10" stroke-linecap="round" stroke-linejoin="round" />
	<path d="M114.415 197.046L111.339 210.168L98.2161 207.091" stroke="#fff" stroke-width="3" stroke-miterlimit="10" stroke-linecap="round" stroke-linejoin="round" />
	<path d="M119.438 205.144L116.361 218.265L103.24 215.189" stroke="#fff" stroke-width="3" stroke-miterlimit="10" stroke-linecap="round" stroke-linejoin="round" />
</svg>
