<svg xmlns="http://www.w3.org/2000/svg" viewBox="0 0 124 124">
  <path d="M62 2C30.00842 2 4 28.00842 4 60s26.00842 58 58 58 58-26.00842 58-58S93.99158 2 62 2zm24.76943 50.88227L60.673 78.8278C59.21645 80.27594 57.2744 81 55.21094 81c-1.94206 0-3.88412-.72406-5.46204-2.17219L36.27585 65.312c-3.03447-3.01692-3.03447-7.72332 0-10.74025 3.03447-3.01692 7.76825-3.01692 10.80272 0l8.25375 8.20604 20.6344-20.51509c3.03447-3.01692 7.76824-3.01692 10.80271 0 3.03447 3.01693 2.9131 7.72333 0 10.61958z" fill="#49953f"/>
</svg>
