<svg xmlns="http://www.w3.org/2000/svg" viewBox="0 0 62 131">
  <path d="M51.9116 102.04972c6.29447-6.20363 6.7141-16.12944 6.7141-19.98947 0-.82715-.69939-1.51645-1.53865-1.51645-3.77668 0-13.9877.41358-20.28216 6.61721-.69938.6893-1.39877 1.51644-1.95827 2.3436V73.51301c5.31532-.27571 13.9877-1.6543 19.72265-7.3065 6.99384-6.89292 7.55335-18.19731 7.41347-22.33307 0-.965-.83926-1.79216-1.8184-1.79216-4.33618-.13785-15.66621.41358-22.66006 7.3065-.97914.96501-1.95828 2.20574-2.65766 3.3086V40.427c3.77667-3.9979 9.092-11.02867 9.092-19.02446 0-8.82295-6.43434-16.54302-10.21102-20.2652-1.53865-1.51644-3.91655-1.51644-5.31532 0-3.91656 3.72218-10.3509 11.44225-10.3509 20.2652 0 7.99579 5.17545 15.02657 9.092 19.02446v12.2694c-.83926-1.24072-1.67852-2.34359-2.65766-3.3086-6.99385-6.89292-18.46376-7.44435-22.66006-7.3065-.97914 0-1.8184.82716-1.8184 1.79216-.13988 4.27362.41963 15.44015 7.41347 22.33307 5.73496 5.6522 14.40733 7.03079 19.72265 7.3065V89.5046c-.5595-.82715-1.25889-1.6543-1.95827-2.34359-6.29447-6.20363-16.3656-6.6172-20.28216-6.6172-.83926 0-1.53865.68929-1.53865 1.51644 0 3.72218.41963 13.78584 6.7141 19.98947 5.03557 4.9629 12.44904 6.20363 17.20486 6.47935v9.78795c-9.51163.82715-17.06499 4.68719-19.30302 9.78795C7.43074 129.48356 8.54975 131 10.0884 131h42.10296c1.53864 0 2.65766-1.51644 2.09815-2.89503-2.23803-5.10076-9.79138-8.9608-19.30302-9.78795v-9.78795c4.61594-.27572 12.02942-1.51644 16.92511-6.47935z" fill="#49953f" fill-rule="nonzero"/>
</svg>
