<svg xmlns="http://www.w3.org/2000/svg" viewBox="0 0 144 108">
  <g transform="translate(4.70833 2.275)" fill="none">
    <path d="M101.575 38.25L80.75 56.24167 101.71667 74.375c1.55833 1.41667 1.7 3.825.425 5.38333-.70834.85-1.84167 1.275-2.83334 1.275-.85 0-1.7-.28333-2.40833-.99166L75.08333 61.2l-10.625 9.20833c-1.7 1.55834-4.25 1.55834-6.09166 0L47.74167 61.2 25.925 80.04167c-1.84167 1.55833-4.675 1.13333-5.95-1.275-.70833-1.55834-.28333-3.4.99167-4.53334l20.825-17.99166-20.68334-18.13334c-1.41666-1.275-1.84166-3.4-.99166-4.95833 1.275-1.98333 3.96666-2.40833 5.66666-.85L60.35 62.33333c.425.425 1.13333.425 1.7 0l34-29.46666c-2.975-4.10834-4.81667-9.20834-4.81667-14.59167 0-1.84167.14167-3.68333.56667-5.38333H16.00833C7.225 12.89167 0 20.11667 0 28.9v54.54167C0 92.36667 7.225 99.45 16.00833 99.45H106.675c8.925 0 16.00833-7.225 16.00833-16.00833v-41.225c-2.125.56666-4.25.85-6.51666.85-5.38334.14166-10.48334-1.7-14.59167-4.81667z" fill="#49953f"/>
    <circle fill="#d74937" cx="116.30833" cy="18.275" r="18.275"/>
  </g>
</svg>
