<svg xmlns="http://www.w3.org/2000/svg" viewBox="0 0 1164.32 46.72">
  <defs/>
  <g id="Layer_2" data-name="Layer 2">
    <g id="Assets">
      <g id="Line_01" data-name="Line 01">
        <path class="cls-1" d="M865.34 0c-.77.44-2.22.74-5.14.71-.76-.77 2.46-.71 5.14-.71zM831.2 1c2.21-1.08 6.93.82 3.37 1.09C832.11 2 834 1 831.2 1zM947.11.88h5.12c-.62.48-3 .56-3.45 1.08-2-.06-1.42-.65-1.67-1.08zM821 1.71c-4.07 1.15-6.84-1.28 0 0zM1132.84 2.33c-3.79 1.09-10.89-.44 0 0zM727.16 2.61c.68-.69 2.16.23 1.67.72-.68.67-2.15-.23-1.67-.72zM1068.05 2.92h3.4c.76.77-2.46.68-5.14.71.34-.28 1.69-.35 1.74-.71zM710.1 2.93c6.17.81-6.3 1.6-8.56.7 2.24-1.12 8.09.81 8.56-.7zM1136.19 3.78h3.4v.71h-3.41zM592.48 3.06h3.41v.72h-3.4c-.02-.24-.01-.48-.01-.72zM597.6 3.07c2.74-.1 2.92.35 5.09.37.65.7-7.78.56-5.09-.37zM720.31 3.31c1.27.57 5.38.55 5.05 1.45-4.5.1-5.57-.51-5.05-1.45zM1001.46 5.31c-3.6-1.28-7.62 0-18.73-.4 2.03-1.55 24.07-1.29 18.73.4zM1086.75 4c-.77.44-2.21.74-5.15.71.77-.4 2.21-.71 5.15-.71zM665.72 4.28c-1.4 1.26-6 .41-8.52 0 1.4-1.28 5.97-.41 8.52 0zM779.93 4.15c-1.12.37-3.94.37-3.46 1.07-7.35-.93-13.28-.11-20.42-.76 6.56-.46 17.06-.95 23.88-.31zM682.78 4c-.29.79-4.33.76-8.55.7.28-.82 4.32-.8 8.55-.7zM742.44 4.08c5.45-.07 2.71 1.57 8.44 1.45-2.59.53-7.5.57-12 .7.71.44 2.15.74 5.08.73-3.07 1.07-9.07-.23-6.75-1.45 2.55-.31 6.66-.28 5.23-1.43zM865.15 4.32c1.69 1.21-5.33.55-8.56.7.29-.78 4.34-.76 8.56-.7zM977.64 4.54c5-.51 4.89 1.62 0 1.08-.03-.36-.02-.72 0-1.08zM1086.71 4.76h3.42v.72h-3.41zM854.91 4.66A15.09 15.09 0 01848 5.73c-.43-.95 2.45-1.18 6.91-1.07zM1079.82 6.54c-2.52-.19-4.27-.53-6.79-.73 1.12-1.26 7.14-.3 6.79.73zM645.23 5c-2.16 1.23-3.08 2.73-12 2.5-4.29-.97 3.05-3.68 12-2.5zM674.21 5c7.39.17-1.88 2.09 0 0zM1010 5.69c-.28.78-4.32.76-8.56.7-1.72-1.21 5.31-.55 8.56-.7zM578.75 5.19c4.11-.14 3.68.67 8.51.38a15 15 0 01-6.87 1.06c.25-.63-2.05-.76-1.64-1.44zM725.32 5.84c1.71-1.09 5.73.18 6.79.38-1.72 1.1-4.53-.43-6.79-.38zM1142.9 6.31c3 .09 3.85.63 3.34 1.45-5.31.16-6.05-.92-3.34-1.45zM490.1 5.38c-.75.44-2.2.73-5.15.71-.75-.77 2.48-.69 5.15-.71zM607.7 6c.53-.49 4.27-.29 6.83-.35-.53.81-4.6.79-6.83.35zM1069.59 6.53c5.91-.28 7.17.41 10.19.74-2.93.28-12.14.73-10.19-.74zM503.73 5.76c3.64-.16 3.22.52 3.36 1.09-1.38-.07-1.69-.36-3.4-.37.01-.23.03-.48.04-.72zM551.45 5.86h6.82v.72h-6.81zM563.38 5.88c5.61 0 12.06-.12 11.88 1.11-5.44-.06-13.05.32-11.88-1.11zM766.2 6.28c-.44.64-3 .82-6.85.71.43-.63 2.96-.81 6.85-.71zM1149.68 7c3.64-.16 3.22.52 3.36 1.09h-5.11c.91-.26 1.8-.55 1.75-1.09zM439 6h3.39v.72h-3.4zM745.71 7c.55-.48 4.29-.29 6.84-.34-.55.44-4.28.25-6.84.34zM810.49 7.09c1.74-.9 7.52.3 6.76 1.1-3.47-.12-3.25-.99-6.76-1.1zM841.17 6.79c3.89.4.56 2.27-5.19 1.79.57-.85 5.95-.66 5.19-1.79zM725.27 6.92h10.22l-.06 1.44c-2.64.46-12.03.14-10.16-1.44zM953.63 7.74c.47.95-3.59.92-6.87 1.06.17-.97 3.97-1.72 6.87-1.06zM998 7.46h10.23c1.19 1-3.42.72-3.48 1.44q-6.54-.06-6.75-1.44zM646.85 7.13c5-.52 4.89 1.62-.05 1.08.02-.36.03-.72.05-1.08zM723.49 8.36h-6.81c-1.28-1.36 8.21-1.36 6.81 0zM169.61 6.54c-.44.63-3 .82-6.85.71.43-.63 2.97-.82 6.85-.71zM338.34 6.88h5.11v1.08q-5.62.04-5.11-1.08zM387.77 7h3.41v.72h-3.42c-.02-.27-.01-.51.01-.72zM445.7 7.45c2.54-1.3 11.1 1 13.65-.33 4 1-11.75.84-7 3.22-7 .1.32-.5-1.63-1.44-6.4-.39-7.83 1.54-10.23 0-2.41.54-6.37 1.54-10.26.7-1.22-1.11 5.9-.43 3.49-1.79 7.32 0 11.3-.73 15.33.38 4.03-.01-.56-1-3.35-.74zM553.07 7.66c-.43.63-3 .81-6.84.71-.75-1.12 4.33-1.28 6.84-.71zM184.92 7.29c3.93-.1 1.84 1 5.06 1.09-1.98 1.05-5.52-.47-5.06-1.09zM205.37 7.33c2.91-.13 3.2.29 3.38.73 2 .06 3-.07 3.42-.36 2.52.31 2.42 1.17 3.33 1.81-2.29.36-5.17.59-6.87 1.07-5.09-.25 1.67-.77.07-1.44-3.39 0-2.21 1-6.86.71 1.09-1.54 6.79-.69 3.53-2.52zM261.61 7.44c2 .07 1.41.66 1.66 1.09-3.36-.61-2.18 0-6.81 0-2.6-1.3 5.79-.22 5.15-1.09zM743.94 8.4h6.82c1.21 1-3.41.72-3.47 1.44-2.29-.23-3.14-.77-3.35-1.44zM576.9 8.43c-3.79 1.09-10.9-.44 0 0zM404.74 8.45c-3 .61 2.45 1.42-5.17 1.43-.44-.94.69-1.55 5.17-1.43zM496.77 9c1.17-1.08 3.63.35 6.81 0-1.58 1.2-3.83.31-6.81 0zM668.92 9H674c-.25.92-2.54 1.39-6.88 1.43-.12-.67 2.15-.78 1.8-1.43zM125.15 9.69c-3.5.62-3.32-.27-6.83.35-2.16 1.16 5.5.28 3.34 1.45h-6.81c2-1 2-1.86.12-2.88a38.63 38.63 0 006.8.38c1.67 0 1.34-.44 1.74-.72 2.31.1 1.38.88 1.64 1.42zM709.79 10.13c.75-.44 2.21-.73 5.14-.71-.77.45-2.22.74-5.14.71zM851.27 9.69c-.76.44-2.21.74-5.14.71-.76-.77 2.47-.68 5.14-.71zM271.63 12.14c1.6-1 14.23-1.52 8.65-2.86 8.55-1.08 3.92 4.06-8.65 2.86zM839.33 10c6.57-.27 6.49 1.74-.07 1.44-2.8-.69.18-.44.07-1.44zM312.66 9.35a30.63 30.63 0 005.1.36c.73 1.13-3.69 1.15-8.57 1.07.81-.57 5.37-.3 3.47-1.43zM457.53 9.63h3.41c.76.77-2.46.68-5.14.71.33-.28 1.72-.34 1.73-.71zM716.6 10.15c.19 1.13-4.43 1.22-8.59 1.42.63-.96 4.53-1.21 8.59-1.42zM174.59 9.43c-.28.79-4.32.77-8.55.7q2.21-.8 8.55-.7zM251.29 9.58c.36.64-1.8 1.8 3.34 1.45-.52.42-6.92 1.35-1.78 1.8-10.24 1.32 1-2.63-8.41-2.54 1.15-.48 3.67-.66 6.85-.71zM292.17 10c-.64-.7 7.8-.51 5.1.37h-3.4c.32-.29-.66-.32-1.7-.37zM189.79 12.7c-8.49.32-7.2-1.15-13.63-.39 1.16-2.18 7.78-.22 13.66-.33-8-.25-2.94-2.32 5.21-2.15-6.03 1.36 3.07 1.77-5.24 2.87zM198.43 10.2c3 0 3.57.45 6.79.37-1.72.72-3.39 1.45-5.2 2.15 3.75 1.09 7.87 0 11.89.74-.29.42-3.12.3-5.13.35 3.25 2.19-8.61-.42-13.6-.74 2.24-1.58 4.59-1.49 5.25-2.87zM259.78 10.32c2.09.16 3.48.47 3.36 1.09-2-.07-3 .07-3.42.35-5.1-.25 1.66-.76.06-1.44zM264.89 10.33c6.75-.23 5.51 1.53-.06 1.44zM396.13 10.59c2.08.16 3.48.47 3.36 1.09-2.75.09-2.92-.35-5.1-.37.33-.31 1.72-.31 1.74-.72zM420 10.64c2.09.16 3.48.46 3.36 1.08-2.76.1-2.92-.34-5.1-.37.33-.29 1.74-.35 1.74-.71zM326.19 11.89h5.11c.19 1.64 1.34 1.42-.13 2.88-3.93-.37-7.9-.74-8.44-1.82a22.67 22.67 0 01-8.56.71c-1-1.16 6.16-.48 1.78-1.44-2.6 1-5.16.58-8.53 0-2.32.35-2.26 1.21-5.18 1.43-3.39-1.21-6.07-1.88-3.27-2.88 3.82 1.22 11.87.85 18.73.39-1.53.97 8.41 2.33 8.49.73z"/>
        <path class="cls-1" d="M321.09 11.52c.08-1 8.07-.84 10.25-.34-2.34.51-7.63.94-10.25.34zM997.76 12.14c-1.84.33-.6 1.33-5.17 1.07 1.83-.33.59-1.32 5.17-1.07zM239.29 11c5.27 0 5 1.1 5 2.17h-8.52c1.57-.66 4.82-.92 3.52-2.17zM290.39 11.82h5.12c-1.76.47-1.74 1.32-3.5 1.79-3.69.07-.71-1.26-1.62-1.79zM179.52 13.76c-5.87-1.7 8.66-1.43 0 0zM307.34 14c4.5-.1 5.57.52 5.05 1.45-3.05 0-3.58-.44-6.8-.37.91-.28 1.8-.57 1.75-1.08zM116.44 14c4.24.06.44 1.22-.07 1.44-4.23-.07-.45-1.22.07-1.44zM786.24 15.68h3.41v.72h-3.45c.01-.24.02-.48.04-.72zM148.78 14.78c9-.06 8.88 3.62 16.94 2.55 3.71 1.21-3.45.92-10.27 1.06.15-2.48-5.3-1.77-6.67-3.61zM1031.63 16.89h3.42c.75.77-2.48.68-5.16.71.34-.28 1.73-.35 1.74-.71zM617.45 16.43c1.85.09 1.13.72 3.38.73.3.3-.68.34-1.71.35h-3.42c.92-.29 1.8-.58 1.75-1.08zM131.66 16.54c2.24-1.51 5.55.35 11.93 0-.06.35-2.1.28-3.42.35-.29.42.34.64 1.67.73-4.48 1.27-5.03-1.28-10.18-1.08zM636.19 16.83c.93 1.29-5.1 1.08-10.28 1.06 2.87-.48 3.7-1.39 10.28-1.06zM745.23 17.76h-3.4v-.72h3.4zM803.21 17.16h3.42v.71h-3.41zM109.51 16.5c1.41-.61 12.33-.21 11.89.75-3.86-.25-8.69-.34-11.89-.75zM83.92 16.81c3.24-1.1 8.08.43 6.75 1.46-8.41.33-4.35-1.37-6.75-1.46zM317.41 17.63H314v-.72h3.42zM782.73 17.84h3.41c.76.78-2.46.69-5.15.71.34-.29 1.73-.35 1.74-.71zM1016.21 18.66c7.55-1.31 6.44 1 0 0zM632.71 18.26c1.23.58 8.35-.06 6.78 1.09-4.49.09-8.49.11-6.78-1.09zM1121.77 21.39c-6.9-1.07-22.64-.3-28.91-1.5 11.71-.89 25.29-1.13 28.91 1.5zM1138.89 19.62c-5.22 1.32-5.69-1.1 0 0zM80.46 18.25c6.94 0 .22 2.21 8.47 1.09-.59 1.47 3.55.2 6.8.37 1 1.42-11.79-.11-10.29 1.42-4.44-.38-5.51-1.47-4.98-2.88zM1080.89 20.59c10 .3 11.12.47 22.13.76 4.43.75-12.22 0-10.28 1.42-.64-1.41-9.74-1.06-11.85-2.18zM850.78 20.85c2.91-.12 3.2.29 3.38.73 2.67-.15 1.5-1.13 6.84-.71 1.45 1.16-5.63.48-5.18 1.43-2.48-.3-5.37-.55-5.04-1.45zM968.36 21.45c1.11-.88 8.63-.18 6.79.73-5.54.44-1.25-1.18-6.79-.73zM903.57 21.68c5.46.06 13.07-.33 11.89 1.1-2.16.34-10.56-.18-11.89-1.1zM1082.51 22.75c4.45-.09 8.53-.1 6.77 1.1-3.28-.16-7.28-.15-6.77-1.1zM879.64 23.43c.69.75-1.21.95-1.77 1.44-4.94-.08-4.03-1.72 1.77-1.44zM1002.36 23.67a33.24 33.24 0 003.38.37c-.33.29-1.71.36-1.73.72-1.38-.07-1.69-.37-3.4-.37.39-.29 1.73-.39 1.75-.72zM1128.46 24.28c-.45-.57 9.23-.48 5.09.37.67-.13-5.11-.39-5.09-.37zM569.39 23.89c5.43.19 10.38.47 11.88 1.47-5.29-.14-8.19.82-11.94 0l.06-1.47zM594.93 24.66c-.29.79-4.33.77-8.55.71.28-.79 4.32-.76 8.55-.71zM976.47 30.82c.64.87-7.76-.21-5.16 1.07.08-1.44-14.26.11-13.58-1.47-4.58.46-8.12.56-5.19 1.79-4.65.26-3.4-.72-6.79-.73q2.54-.54 5.17-1.07a25.41 25.41 0 00-6.76-1.41c.67-.7 7.12-2.19-1.62-1.81 2.34-1.54 7.62-.08 11.93 0-4.65.78-.52 1.19-3.5 2.15 12.52 1.3 11.38 1.26 25.5 1.48zM777.24 26.47h3.4v.72h-3.4zM424.41 26.13c4.24.06.45 1.22-.06 1.44-5.1-.25 1.65-.77.06-1.44zM34.1 25.71a47.23 47.23 0 018.51.38c.27.59-11.19.7-8.51-.38zM1136.81 28.26c-1.32.59-14.07.57-15.35 0 6.79.29 12.62-.54 15.35 0zM744.8 27.48c.41 2-8-.1-8.6 1.78-4.41-.73 2.33-2.13 8.6-1.78zM806.16 27.6c4.23.07.44 1.22-.07 1.44-5.09-.24 1.67-.76.07-1.44zM383.47 27.13c5.41.84-3.05 1.73-8.59 1.42-.01-1.09 8.58-.33 8.59-1.42zM555.6 27.47c2.76-.1 2.92.34 5.1.37.64.7-7.79.51-5.1-.37zM565.83 27.49h3.4v.71h-3.4zM15.25 27.83c-1.68-.13-1-1 .05-1.07 4.04-.1 4.85 1.48-.05 1.07zM647.61 28.37c-.28-.59 11.18-.7 8.5.38a48 48 0 01-8.5-.38zM778.86 28.27c2.63 1.59 13.88 1.45 18.71.76 3.63 1.36 1.55 1.26 8.46 1.46.31 1.15-6.11.86-8.59 1.42 1 1.52 3.74 1.33 10.18 1.1 2.34-.56 3.53-2.16 8.58-1.07-3.27 1.24-3.25.92-.1 2.16-5.26.26-3.23-1-8.49-.73-4.79.34 2.43 1-1.77 1.43-2.84-1.27-5.2-.58-10.18-1.1-2.45-1.77 4-3.19-5-3.61-3.69-.06-.83 1.28-1.77 1.8-3.52-.79-5.53.3-8.51-.38-.76-.76 2.46-.68 5.14-.71-2.44-.8-7.6-1-10.14-1.82-.3-.3.68-.34 1.72-.35 1.48.07 1.65-.14 1.76-.36z"/>
        <path class="cls-1" d="M756.59 30.75c.52.48 2.39.69 1.64 1.44-5.46-1.08-18.89 1.74-6.91 2.15 1-1.6 9.33-1.63 17.12-1.77 3 .54-3.28 1.85 5 1.81-.77-1.23.84-2.73 5.19-1.79l.09-2.16a31.64 31.64 0 01-5.1-.37c-3.32.54 2.92 1.52-3.49 1.79 1.05-1.9-5.42-1.31-11.83-2.18 1.61-.38 6.29-.1 5.16-1.07-4 0-16.11 1.53-11.93 0-5.27 0-5.13 1.07-5.2 2.15-4.9-.09-8.67.07-10.26.69a109.91 109.91 0 0013.59.75c.71-.62-2.48-.92 0-1.08.54.89 4.67-.42 6.93-.36zm8.48.73zM470.31 29.1c-4.27.37-6 1.5-8.55.34a19.84 19.84 0 018.55-.34zM860.6 29.87c7 .46 15.64.57 18.68 1.84-2.57-.78-13.3-.21-5.14.35-7.35 1.06-4.79-.84-8.46-1.46-3.42.12-5.33-.08-5.08-.73zM264.06 29.05c3.38 0 2.13 1 6.78.73-1.11 1.22-7.13.31-6.78-.73zM654.36 29.82c-.34.79 1.34 1.15 5.06 1.09-.34.29-1.72.36-1.73.72s2.08.28 3.39.37c.25 1-11.13-.46-8.57 1.06-3.58-.68-5.79-1.66-6.69-2.89 4.1.15 3.74-.66 8.54-.35zM424.25 29.73c3.53.21 3.59.56 1.67 1.08h-3.42c.91-.29 1.81-.59 1.75-1.08zM635.59 30.15c2.77-.1 2.92.35 5.1.37.65.7-7.79.48-5.1-.37zM814.55 30.5c.49.83-4.94.39-5.15 1.07-4.6-.33.85-1.46 5.15-1.07zM1094.07 31.06c3.67.81-2.63 2.56-6.94 2.86a24.33 24.33 0 016.94-2.86zM824.76 30.88h5.11c-1.45 1 2.37.94 1.64 1.8h-6.83c.03-.6.05-1.2.08-1.8zM920.19 31.43a14.64 14.64 0 01-6.83.35c.51-.84 4.58-.78 6.83-.35zM354.34 30.31a22.35 22.35 0 008.49.73c2.6 1.29-5.79.21-5.15 1.08-2.68-.17-1.41-1.14-6.79-.74-.89-.8 3.28-.51 3.45-1.07zM548.63 31.05c-.28-.58 11.17-.7 8.5.38a46.08 46.08 0 01-8.5-.38zM284.43 30.89c6.4-1.24 8.6 1 0 0zM471.92 30.9h3.42v.72h-3.41q-.01-.36-.01-.72zM984.93 31.92c-.75.44-2.2.73-5.13.71.76-.44 2.2-.74 5.13-.71z"/>
        <path class="cls-1" d="M662.79 32c2.76-.1 2.91.35 5.09.37-1.47.53-4.32.77-8.56.7 1.13-.36 3.94-.36 3.47-1.07zM698.58 32.07c5.08-.42 7.25 1.53 3.32 1.81-5.74.36-2.6-1.13-3.32-1.81zM782.09 32.24c6 .23 1.46 1.51-3.47 1.43.05-.67 4.67-.45 3.47-1.43zM908.21 32.49c2.76-.1 2.92.34 5.1.37-1.75 1.07-6.61 1.48-8.63 2.5-4.04-.66 2.54-2.1 3.53-2.87zM969.58 32.61H973v.72h-3.41c-.04-.24-.02-.48-.01-.72zM1116.14 32.9c-.76.44-2.21.73-5.14.71.77-.44 2.21-.74 5.14-.71zM637.19 32.67c.73-.9 6.61 0 5.08.73-3.79.19-2.39-.69-5.08-.73zM512.77 32.42c.76 1.66-10.9 1.8-11.94.34 5.89.3 6.57-.52 11.94-.34zM678 34.91c3.83-.45 13.37-.1 8.46 1.1 4.25 0 5.32-.67 8.53 0 1.38-1.27.29-1.31 1.83-2.87-2.45-.56-8.71-.34-13.61-.39 1.31 1.38-5.05 1.11-5.21 2.16zm11.94-.34a31.5 31.5 0 00-5.09-.37c.56-.99 5.95-.75 5.09.37zM836.58 33.42c2.08.17 3.47.47 3.36 1.09-5.94.3-5.82-.51-3.36-1.09zM364.46 32.85h3.41v.73h-3.42c-.02-.25-.01-.49.01-.73zM384.91 32.89c3.38.61 7.88 1 8.43 2.17-7.46-.27 1.34.72-3.44.72-6 .3-1.74-.94 0-1.08-3.36-1.08-10.63-.29-13.6-.75 1.16-.73 8.02-.22 8.61-1.06zM569 33.25c.74 1.13-3.68 1.15-8.55 1.07 1.17-.71 4.55-.95 8.55-1.07zM877.45 34.22c-.44-.57 9.23-.48 5.1.38.66-.14-5.11-.4-5.1-.38zM1032.57 34.17c6.25 1.11-5.23 1.21 0 0zM1087.11 34.28c-1.83.33-.59 1.33-5.16 1.07 1.84-.35.58-1.35 5.16-1.07zM371.26 33.22c2.9-.12 3.2.29 3.38.73-1.45-.07-1.62.14-1.72.36-2-.06-1.41-.66-1.66-1.09zM587.71 33.65c4.59.33-.86 1.46-5.16 1.07-2.55-1.28 5.8-.21 5.16-1.07zM1073.46 34.61h3.41v.72h-3.41c-.03-.24-.02-.47 0-.72zM657.58 34.15c2.75-.1 2.91.35 5.09.37.65.7-7.78.48-5.09-.37zM159.89 33.52c-1.35.32-1.87.81-1.78 1.44h-6.81c1.19-.85 3.14-1.52 8.59-1.44zM251.92 33.7c2.13.63 5.72 1 5 2.18-6.39.37-4.83-.91-10.2-.75.56-.73 4.67-.69 5.2-1.43zM347.37 33.89c7.56-.49 4.4 1.23 10.18 1.11.23 1.63-6-.07-6.82 0-.47 0-3.24.85-1.76 1.08-3.71-.6-2.58-1.01-1.6-2.19zM453 34.46c-1.42.38-12.39 1.49-11.93 0 3.84-.84 6.66.12 11.93 0zM592.79 34.38h6.82c-.17.52-.32 1 1.65 1.09-1.59.62-5.36.78-10.25.7.06-.35 2.09-.28 3.42-.36-1.31-.31-1.79-.81-1.64-1.43zM246.79 34.06c-2.52 1.16-3.85.89-10.26.69a54.77 54.77 0 0110.26-.69zM361 34.28c3.51 1 7.06 1 8.44 1.82h-6.81c.71-.88-3.1-.81-1.63-1.82zM424 34.41c2.76-.1 2.92.34 5.1.37.69.7-7.74.51-5.1-.37zM107 34.14h5.12c-3.24.68-.24.9-.09 1.8-3.33-.25-4.49-.94-5.03-1.8zM584.22 35.44c-7.55 1.31-6.43-1 0 0zM604.67 35.48c-.64-.7 7.8-.51 5.1.37h-3.4c.32-.31-.65-.34-1.7-.37zM168.34 35h5.11v.72h-5.11zM401.84 35.44c2.8.61 10 .31 15.33.39-.06.72-4.68.45-3.48 1.44-4.28-1.71-5.88 1-5.22 2.51-12.15-.48-.26-2.32-6.63-4.34zM205.82 35.41c-.17.51-.32 1 1.66 1.09-6 .76-3.32-.65-10.21-.38.29-.79 4.33-.77 8.55-.71zM241.58 36.2a48.48 48.48 0 00-8.52 0c-2.56-1.12 11.18-1.1 8.52 0zM395 35.79c2.76-.1 2.91.34 5.09.37.66.7-7.77.51-5.09-.37zM429.09 35.86c6.76-.45 4.08 1 8.48 1.09.48.84-4.95.39-5.16 1.07-2.41-.44-3.17-1.24-3.32-2.16zM683.05 36.36c3.64-.16 3.22.52 3.35 1.09-1.37-.07-1.67-.37-3.39-.37-.01-.24-.01-.48.04-.72zM146.16 35.65h3.4v.72h-3.42c-.01-.24 0-.47.02-.72zM246.71 35.85c2.76-.09 2.92.35 5.1.38.64.69-7.81.5-5.1-.38zM454.65 36.27c3.23.16 3 1 8.49.74.67 1.39 1.8 1.28-1.81 2.15-1.05-1.72-8.37-1.82-10.11-2.54 1.98.07 3.03-.07 3.43-.35zM106.94 35.94A19.56 19.56 0 0196.67 37c1.57-.75 5.08-1.09 10.27-1.06zM360.87 36.8c-4.2.55-11.11.51-17.07.69 2.2-.93 12.7-1.37 17.07-.69zM498.94 36.72c2.32.11 1.37.9 1.65 1.44-4.46-.11-7.34.12-6.87 1.06-5.01-.86 3.28-1.93 5.22-2.5zM217.69 36.88c.11 0-.1-.36 0-.36 8.22-.29-8.18 2.29 0 .36zM531.27 37.86c-3.35-.61-2.16 0-6.81 0-2.6-1.1 9.54-1.08 6.81 0zM262 37c2.59 1.29-5.79.21-5.16 1.08-4.59-.38.86-1.5 5.16-1.08zM394.93 37.59c7.55-1.31 6.43 1 0 0zM215.94 38h3.41v.72h-3.45c.01-.28.03-.53.04-.72zM260.24 38h6.83c-.06.34-2.1.27-3.43.35-1.91.35-5.94 2.06-1.82 2.52-3.29.89-7.38-.47-11.93.33 2-.95 1.51-1.11 6.84-.71 3.12-.35 1.42-1.81 3.51-2.49zM205.69 38.29a29.48 29.48 0 005.1.37c-1 .75-2.69.76-5.13.35.01-.24.03-.48.03-.72zM355.67 38.59h5.12c-1.83.33-.59 1.33-5.16 1.07.01-.35.03-.66.04-1.07zM444.29 39.13c-4.07 1.15-6.83-1.28 0 0zM430.64 39.46c3.06 0 3.57.45 6.8.37 1.58.67-9.76.21-3.44.72.3.3-.68.33-1.72.35h-3.41c1.34-.32 1.87-.81 1.77-1.44zM280.61 40.24c-.65-.7 7.79-.51 5.09.37h-3.4c.33-.31-.65-.34-1.69-.37zM146 40.33c-1.29.64-3.1.05-5.12 0 1.23-.64 3.05-.05 5.12 0zM398.21 40.47c1.67 1.09-3.83.64-6.85.71 1.14-.48 3.64-.66 6.85-.71zM362.36 41.84h8.51c-.91.29-1.8.58-1.75 1.08-4.46.08-7.32-.13-6.76-1.08zM116.91 41.72H122c-2.74.26.31 1.76-5.18 1.43 2.9-.7-.11-.45.09-1.43zM220.79 43.72c-.27-.58 11.19-.7 8.51.38-4.11.14-3.68-.66-8.51-.38zM957.22 3.78c-.39-.51-2.78-.61-3.37-1.08 3.84-.15 5.47-.76 8.58-1.07-3.23.08-3.75-.41-6.8-.37.87 1.4-7.4.83-8.61 1.78-4.83-.39-22.57-2.12-18.74 0 8.68-2 7 2.59 13.58 1.1-2.88 1.13 6.28 1.49 1.62 1.81-2.65-.65-14.07-.55-8.43-1.82-4.74.68-16.7-.2-18.81 1-3.13-.64.8-1 1.8-1.79h-5.12c-1 0-2 0-1.73.36 3.93.76-4.77 1.62 1.59 2.89-4.46-.12-7.34.11-6.87 1.06h8.52c4.2-.47-3-1.1 1.77-1.44.49.85 5.89.68 5 1.81-5 .77-9.78-.67-12 .7 8 .22-5.1 1.33-6.9 1.78 2.07-.1 5.83 1.06 1.66 1.09-1.78-1.54-11-1.52-13.5-2.91 4.34.34 9.63.6 11.94-.34-8.15.27-11-.58-18.74-.39 1.46-2.09-11.66-1.15-11.8-2.91 1.61-.38 6.3-.1 5.16-1.07-15.53-.1-3.56 1.68-12 2.5 3.68 1 16.87.07 17 1.83-2.55.06-6.28-.14-6.83.35 2.51 1 7-.61 8.51.38q-2.64.51-5.17 1.07c4.26 1.16 7.61.3 13.64 0-3.23 1.26 1.25 1.19 3.32 2.17 7.12.1 8.07-.57 13.63 0-2.75-1.2.45-1.38 6.88-1.43.09-.49-.76-.79-1.66-1.08 7.37-.28 10.78-.6 10.31-1.78 3.26 1 6.16 2.05 15.26 1.83 1-1 1.27-.62 3.49-1.79-4.21-.48-8.31.78-8.52 0 2.06-.07 1.06-.4 0-.72 7-.29 5.88 0 13.63 0-.82-2.56 16.56-2.87 13.85-4.66-6.02-.5-1.06 1.29-5.14 1.14zm-13.75 2.5h3.41V7h-3.42c-.02-.24-.01-.48.01-.72zM1120.91 2.31c4.79.37-.53 1.53-.09 2.16-2.08-.59-1.47-1.35.09-2.16zM810.71 2.05c.5.44-5 1.23-5.13.35a11.34 11.34 0 00-3.46 1.07c-1.45.07-1.6-.14-1.69-.36s0-.48 0-.72c4.05.02 5.07-.61 10.28-.34z"/>
        <path class="cls-1" d="M889.07 2.93c-1.17-1 8 .27 6.86-.71 6.26.28-.78 1.08 3.32 1.81-1.82.69-4.84-1.35-10.18-1.1zM834.47 4.26c2.52 1.09-2.59 3.46-3.62 4.67-8 .23-6.32-1.54-10.12-2.18.54-.49 4.28-.29 6.83-.34-.89-.29-1.76-.59-1.66-1.09-10.32.36-11.07-1.27-18.68-1.47 4.7-1.65 11 .24 13.64 0 3.93-.33-1.25-2 6.87-1.42-1 .63-.94 1.49-3.49 1.79 1.1.37 3.91.38 3.36 1.09 4.37-.64 1.86-1 6.9-1.79 7.43.54 10.13 1.15-.03.74zM735.69 2.62c1.4 1.15-1.55 1.37-3.5 1.8-1.58.21-1.19-2.16 3.5-1.8z"/>
        <path class="cls-1" d="M629.92 4.57C625.54 5 624 3 621.41 4.2c6.64.35 2 2-5.18 1.43-1.05 1.41 7 .93 8.44 1.81-1.84.34-.59 1.33-5.16 1.07 0-.48 0-1 .07-1.44-7.41.83-20.53.43-25.65 1.75 10.63-.61 3.39 2.11 10.17 1.1-3.61-.12 2.49-1.11 3.49-1.43 6.64-.08 5.39 1.13 1.63 1.44 6.28.24 11.79-1.1 11.9.75-.38.4-1.91.55-3.45.71-3.53-.22-5.46-.77-8.46-1.1.17.9 3.2 1.14-1.77 1.44-6-1.13-4.44-.91-10.23 0 3-2-6.91-1.42-10.13-2.18 6.76.11 7.42-2.73-1.61-2.16 4.68 1.7-4.05 2.12-5.27 3.58 2.75.86 11.7.43 15.29 1.12-2.75 1.22-13 1.53-18.79 1-3 .21 0 1.71-3.5 1.79h-3.41c-.83-1.51 3.07-2 3.56-3.23-6.52.28-6.56-.78-8.45-1.46 10.48-.84 9.24 2.58 11.83 2.19-3.29-4.24-10.1-2.6-22-2.93-1.38 1.6 7.06 1.16 8.42 2.18-.37.4-1.91.56-3.44.71-4.26.25-6.93-1.59-10.2-.38 2.25.37 5.11.61 6.77 1.1-7.8.43-6.65-1-13.61-.75-1.16 1.55 6.93 1.18 5 2.89-3.34-.11-3.4.48-5.14.71-.47-1.35-5.64-1.47-10.18-1.1 4.2-.47-3-1.09 1.77-1.44 2.25 0 1.53.64 3.38.73-2.08-1.11-1.28-2.83-8.4-2.9-4.21.42 3.43 1.37-1.79 1.8-1.3-.92-10.43-.22-10.16-1.46 11.59 1.29 1.57-1.47 8.61-1.78-.12.62 1.27.92 3.36 1.08-.79-1.14 8.46-.11 6.88-1.42-7.23.81-9.68-.93-20.44-.4-.52 1.3 6.7 1 6.72 2.17-5.38.17-6-.66-11.91-.38 3.07 1.09 4.19 1.23 5 2.17.4-.28 1.46-.42 3.44-.36-1.29 1 3.34.74 3.34 1.45-4.13-.76-3.61-.52-10.21-.38-2.39.82 4.33 1.36-.06 1.44-3-.69-5.3.48-6.8-.73 1.71 0 2 .29 3.4.36 0-.72.07-1.44.1-2.16-5.43 0 .2 1.56-10.28 1.06-.2-.67-1.06-1.2-3.35-1.44-.16 2.46-12.24 1.57-17.08.68.33-.53-.54-1.33 1.78-1.44.14.57-.28 1.25 3.36 1.09-.42-1.05.46-1.23 3.45-.71 1.25-.9-7.44-1.49-1.62-2.16 2.47-.19 4.09 1.41 5.1.37-3.16-.06-1-1.23-3.34-1.45 3.69-.3 5.86-.92 12-.7.88-1.25-8.3-.41-8.46-1.46-.86.34 1.06 1.15-.07 1.45-.26.06-13.57 1.42-12 1.41-.41 0-1.76-.84-3.38-.72-1.36.09-1.45 1.05-3.45 1.07.1 0-6.76-1.71-3.4-.37q3.78.46 3.34 1.81c-2.77-1.08-8.35-.26-5.14.35 1.18-.47 5.65.41 6.81.37-.4.28-.08.71-1.74.72a41.78 41.78 0 00-13.64 0c6.8.39-.46 1.43-3.48 1.79.41-.68-1.89-.79-1.65-1.44-5.21.53-6.61-.13-10.24.34-.54.71 2.26.72 3.36 1.09-10.87-.52-11.19 1.22-17.12 1.76-1.19-1.1 3-1.05 1.8-2.15-6.3-.75-10.71.1-17.06.32-1.32-1.27-12-.59-15.28-1.47.06.5-.83.79-1.75 1.08 8.12.27 11.24-.28 13.6.75-9.54.42-18 .7-23.9 1 .12-.62-1.28-.92-3.36-1.09-7.06 2.06-22.67-.4-20.36-2.2-5.43.29-3.1 2.24-8.63 2.51 4.74-1-2-.79-1.62-1.81 5.69-.17 8.12-1.58 6.92-2.5-2.93 1.11-15.24.65-22.15 0 2 1.25 5.34.59 5 1.81-2.43-.14-2.86-.43-5.12 0 .68 1.86 9 2.47 11.89 1.11 1.64 1.24 1.48 2.49-.14 3.24-4.84-3.18-8.85-1.74-18.71-1.12-1.14-.71-4.49-1-8.47-1.1 1.36 3.08 17.25.39 22.08 1.85-1.86 1.68-24.76 2.62-20.46-.05-5.72-.14-2.9 1.56-5.2 2.15 9.56 0 18.36.08 22.13.41-6.88.7-12 1.78-20.55 2.12 5.72-1.86-8.68.15-5-2.53-3.22-.09-3.77.4-6.83.34 0-.6.06-1.19.08-1.8-6.73.39-11.57 2.9-18.79 1.05q.4 1.17-5.16 1.07c-1.3-1.25 2-1.52 3.5-2.16-9.47 1.41-12 0-20.51 1.4.31-.54-.55-1.33 1.77-1.43 7.08-.4 6.6.77 11.89.74-1.36-1 2.44-.93 1.78-1.8-4.2-.47-7.12 1-8.51 0 3.82-.15 5.46-.77 8.56-1.07-12.57.53-13.34 1.42-23.95 2.11-3.69-.75.89-1 .1-2.16-9.58-.6-2.79 2.31-12 1.78 3.52-1.47-7.15-1.73-11.83-2.54-2.29.9 7.9.89 1.65 1.44-.36-1-8.4-.4-10.18-1.1 2.68-.15 1.5-1.13 6.84-.7.25-2.44-16.26.14-12 .69 0-.4 5.56 1.38-.09 1.8 1.16.71 9.51-.07 10.2.74-4.43.61-5.84.44-1.78 1.44-3.21-.09-3.77.4-6.83.35-4-1.28-2-1.68-3.27-3.25-3.61.79-12.06.55-13.7 1.77 5.76 0 7.29-.63 10.2.38-6.85-.68-4.37.13-8.55.7a57 57 0 01-18.73-.39c.44.08 3.15-.1 3.4 0-1.82-.75-6.89-1.82-5-2.54-2.83 1.45-16.06.66-17.15 2.49 6.33.15 4.52-1.45 12-1.06-6.77 1.06-1.52 2.91 5 3.25-1.44.42-2.29 1-1.78 1.8a45.86 45.86 0 01-6.83.35c-1 1.39 4.29 1.49 5 2.53-1.71 0-2 .28-3.43.35-4.05-1.07-10.94-1.54-11.79-3.27 4.29 1.08 8.36-.89 11.93 0 .87-1.13-2.36-1.41-3.32-2.17-4.32-.4-8.82 1.21-8.5-.37-5.7.24-10.69.39-10.27 1.06-6.81.22-4.82-1.38-5-2.53-13.72 1.13-7 4 6.64 4-5.49.72-6 .4-12 .7-2.05-1.69-12.59-1.67-8.39-2.9a96.36 96.36 0 01-13.61-.75c6.05-.13 3.44-1.57 10.26-.7-1.44-.89-7.55-1.9-11.88-1.1-.55.71 2.27.72 3.35 1.08-5.45.53-13.61.47-15.42 1.78 3.89-.1 6.41.1 6.8.73-7.19-.08 0 .55 0 1.08-3.5.34-6.78.72-10.28 1.06.92.64.81 1.5 3.32 1.8-.52-1.81 6.58-2 12.05-2.49 1.6.74 3.42 1.43 5 2.17-7 0-20.27 1.86-23.84-.77.74 1.55-4.61.45-5.16 1.07 2.77-.25 2.69 1.7-.07 1.44-3.74-2.2-6.06 0-10.25.7-1.52-.75-5-1.11-10.18-1.1-.28.42.25 1-1.75 1.08 0-.87-22.8-.31-25.55-.41 1.32.08 3.36 0 3.39.36-4.35.64-9.63-.7-12 .7q6.34-.08 8.48.74c-9.33-.5-14.22-.24-20.48.68 1.58-1.53-4.36-2.56.16-3.6-5.53.5-12.93.61-17.11 1.4 7 .23 10 .61 10.25-.34 5.13-.35 3 .81 3.34 1.45-5.34-.18-4.54 1-8.57 1.06-2-.53-6.41-.57-8.47-1.1 4.38-.58.08-2.36-3.3-2.52A9.62 9.62 0 010 26c2.51 1.85 2.76 2.58 6.65 3.61.42-.61-1.65-1.8 3.48-1.43-4.24.73 5.62 1.49-.11 2.52 2.07.05 4 .12 3.37.73h10.23c-3.46.73.72.71 1.63 1.45 4.59-1 16.83 1.47 12-.7 4.05 1 10.33-.48 13.62.38 4.2-.46-3-1.08 1.77-1.43 3.93-.1 1.84 1 5.06 1.09-1.11-1.2 3.55-.57 5.12-.35 2.38-.22.33-1.39 3.48-1.44 5.9.31 6.57-.52 12-.33-.1.5.77.79 1.66 1.08-4.54.48-8 1.18-12 1.78-.35-.4-1.87-.56-3.38-.73 2.85 1.94 15 1.62 20.38 1.84-2.91-1.2 10.18.22 12-1.05-4-.11 2-1 1.77-1.44-8 .3 2.39-.93-3.35-1.09-.54.32-4.69 1.57-5.16.71.22-1.52 11.84-.6 12-2.13.2.78-1.47 2.49-1.87 3.59a74 74 0 0013.64 0l-.06 1.44c9.65.13 17.36-1.69 22.14.4-6.14 1.09-15.85-.26-22.21 1 1.58.39 6.29.12 5.07 1.09-8.08.68-9.65-1.11-13.67.7 6.36-.74 4.43.52 11.92.38 1.82-.33.58-1.33 5.16-1.07 2.79 1.85 2.84.59-.09 1.8.7.7 4.9-.58 3.37 1.08 6.55-.06 21.77-.29 25.56 0 1.49.14 1.33 1 3.37 1.09-1.16-.06 2.13-1.08 3.44-1.07 2.6 0 3.27 2 5 1.45 1.59-3.24 12.26-3.2 18.85-2.12 0 1-1 2.11 3.3 2.16.79-1.78 5.83.33 8.52.38-1-.63 2.16-2.11-1.6-2.16.49.44-5 1.23-5.13.35 5.72-.88 2.22-2.11-3.31-2.53.29-.42-.25-1 1.76-1.07 3.24.15 3 1 8.49.73-5.26-1.78 7.53-1.08 5.25-3.23 4.34-.16 6.95-.69 8.6-1.42 1.36.94-5.25 2-.12 2.52.79-1 1.51-1.19 6.9-1.79 0 .36 1.36.43 1.67.72-.56.49-2.46.69-1.77 1.44 6 .07 4 1.79 11.87 1.47 1.81-1.45-2.59-1.61-5-2.17 7 .41 6.27.57 5.16-1.08 2.55.07 6.29-.11 6.8.38-2 .13-2 1.74 0 .72-1.51-1.78 12.26-.27 12-1.78-3.19-.73-18.5.82-18.71-1.11 4 0 5 .62 10.21.38.21-2.91-2.22-1.73-15.19-3.28.28-.42-.25-1 1.76-1.07 3.91 1.74 11.72.78 17 1.83.26-.67 1.17-1.2 3.46-1.43 3.33 1.55 13.51-.21 13.69-1.05 2.15.62 6.77.73 8.46 1.45.19-.56-.17-1.25 3.45-1.07.35.68-2 .79-1.76 1.43 6.35-1.12 6.31 1.83 10.23 0-2.09 0-4-.11-3.38-.72 9.9.54 6.18-2.06 13.68-1-1.24-1.48 5.55-1.23 10.29-1.42 1.58-1.68-5.63.23-5.08-.73.39-.28.08-.71 1.73-.72 3.24.16 3 1 8.48.74 2-1.13-2.62-.88-3.33-1.45 6.65.37 9.93-.78 13.63 0 1-.88 1.54-1.85 6.9-1.79-.42 1.23-5.67 1.07-.08 1.8-4.8.54-7.57 1.52-12 2.14 1.14.71 9.5-.07 10.18.74-2.69 1-7.91-.77-10.23.34 1.4.75 6.4 1.53 3.31 2.16 5.34.43 4.17-.55 6.84-.7-1.81 2.33 7.62.47 8.45 1.81-1.71 0-2 .29-3.43.36-3.17-.3-6.21-.62-10.19-.74 1 1.15-3.25 1.11-.08 1.8 5.36.18 3.91-1.1 10.26-.7.2.67 1.07 1.2 3.34 1.44-2.55-1.52 8.83 0 8.58-1.06-2.08.11-5.84-1-1.66-1.08 2.62 1 6.6 1.28 1.61 2.16 6.14-.11 8.23-.53 13.63 0-.53-1.79-12.54-1.21-13.51-2.91 8.26-.09 1.3-1.57 10.31-1.78.79 1.14-3.13 1.27-1.82 2.52 6.73-1 5.23.29 12-.7.2 2.29 14.38-.43 13.55 2.19-2.69 0-5.91-.06-5.15.71 8.84-.82 11.11 1.11 18.75 0-9.43.08.95-2.27-1.58-2.89 1.47.64 5.36 1.06 1.63 1.8 3.72 0 5.4.31 5 1.1 3.87.5 6.45-.92 6.83 0-5.12.74 2.18 1.9-.14 3.24 6.09.22 5.22-1.06 5.21-2.15 2.22.89 6.36-.38 6.79.37 0 .6-4.73.2-5.14.71 5.71 1.19 7.22-.58 12-.69 1.45 1.16-5.63.48-5.18 1.43 6.94.28 5.93-1.15 13.67-.7 3.46-.72-.71-.7-1.64-1.44 4-.11 7.36-.35 8.57-1.06-6.63-.3-8.83-.39-13.65.33-4-1.07-3.75-3-8.35-4 4.55 0 3.66 1.15 8.48 1.1-2.78-2 9.16-2.46 7-4.67h5.11v-1.07c-1.7 0-2-.3-3.39-.37-.38.28-1.45.41-3.42.35-.32.54.54 1.33-1.78 1.44-2.7-.63-.72-2.23-5-2.53-2.22.54-11.13 1.23-11.93 0 7.4.51 6.2-.84 10.27-1.06 4.67.45 7.09.8 11.91.39 3.13 1.45 7.11 2.47 1.54 4 4.24.49 4.21-1.67 6.83-.35-4.08 1.17-2.54 1.27-.11 2.52-5.39-.06-10.29 0-12 .7a111.05 111.05 0 0018.72.4c-6.22.82 5.58 1.25-.07 1.8-.83-.8-9.63-1.18-10.24 0 2.55.06 6.3-.12 6.81.37-6.85.61 1 2.13-6.93 2.51 7.54.33 22.44-1 28.95.77-.21.93-6.68.5-6.89 1.43 9.08.4 12.67-.52 20.44.4-5.11.24-5.78 1.42-5.24 2.87 8.26-.72 3.69-2.13 8.67-3.22 10.18-.4 10.6-.69 17 .75.31-.54-.56-1.33 1.76-1.44.25.43-.33 1 1.66 1.09.75-.8 9.06-.27 10.23 0 2.15-1.16-5.51-.29-3.35-1.45-14.39-.67-21.77.8-30.66-.42-.19.57.17 1.25-3.46 1.07 2-1.88-4.92-1.89-5-2.88a40.11 40.11 0 005.1.36c-.44.09-1.25-1.8-1.62-2.16-2.58 1.41-2.65.06-5.09-.37-.28.42.25 1-1.76 1.08a7.81 7.81 0 01-3.37-.73c2-.42 2-1.27 1.8-2.16 6.32-.83 16 .24 17.09-1-3.38.09-10.73-.8-5-2.17-.81 1.64 11.51.36 11.84 1.64-4.5-.12-4.43.74-5.18 1.43 5.21.27 5-.61 10.25-.34-1 .75 2 2.37-1.82 2.52-1.31-1.44-10.51-1.26-11.92-.38 3.92.25 8.65.3 11.87 1.46-1.71 0-2 .29-3.42.35-3.51.31-3.33-1.84-5.08-.73.51.49 2.39.69 1.64 1.44-3.47-.2-3.3-1.08-6.81-.37 2.83 1.35-.39.71-3.47 1.44 9.38.37 19.76-.14 28.94.77-1.91-1.22-3.36-.57-1.6-2.16 13.87-.29 19.72-2.3 34.19-2.45-3.41.91 1.7 1.66-1.8 2.15-2.92-.63-10.52-.42-12 .34 8.39.15-4.42.61-3.47 1.43 3.37.61 2.17 0 6.82 0-.1.49.77.79 1.66 1.08-3.26.71-8.06.16-11.93 0-.27 1.24 8.85.54 10.16 1.46-.56-2 3-.41 5.11 0-.22-1.26.56-2.31 3.54-2.88 2.54.42 5 1.72 6.8.38-2.08 0-4-.12-3.38-.73-3-.21-10 .42-10.2-.38 5.42-1.39 12.63 1.15 17 0-.84 1.37 5.17 1.31 8.44 1.82 2.26-.89-4.93-1.5.08-1.8-1 .95 9.84 1.25 10.19.74-1.33-.08-2-.3-1.67-.72 8.75-.24 15.94-.2 20.46 0-2.23 1.75-16.17 2.87-25.63 1.39.21 1.33 13 1.33 8.4 2.53 7.35-.47 17.21-.46 10.31-1.78 4.8-.42 6.46-1.51 12-1.77.19-1-2.81-.73.06-1.44-12.11-.63-28.23 1.23-35.75-1.15a61.94 61.94 0 0115.36-.33c-2.06-1.17 5.52-.27 3.47-1.44-4.7-.46-13.25.89-18.81 1.41 0-.36-1.36-.43-1.67-.73 3.16-.75 5.91-1 3.49-2.15 6.87.51 6.08-.64 8.58-1.06 6.84 1 17.86-.87 22.06 2.2-1.32.08-3.37 0-3.43.35 8.51 1 18.4-1.4 22.15.41-5.63.3 2.38 1.67-5.23 2.51-.25-1 1.58-2.47-3.29-2.53 2 2.18-13.85.33-18.77.32-.65 2.3 17.08 1 20.39 1.48-6.84 1.49 2.69.25-1.78 1.8a113.57 113.57 0 0011.89.74c-.34-2-1.76-.53-5-2.17 6-.14 7.26-.74 5.19-1.79 5.83-.13 2.2-1 8.54-.34 1.21-1.68-6.08-1.59-8.41-2.54-.65 1.77-1.73-.55-5.1-.37-3.23 1.68-14-.41-18.79 1.05.47-1.36-15.31-1.85-18.56-4.36-.1.5.77.79 1.65 1.08-4.26 0-5.36.68-6.8-.37 8.52-.14-3.72-.77-1.62-1.8-4 .1-7.38.75-8.51-.38 8.8-.18-1.85-.85-1.64-1.44 5.36-.48 13.16.82 17 .39-2.42 0 10.84-1.73 10.24-.34-1.06.5-6.56 0-6.84.71 4.19.16 4.19 1-1.75.71-.47.74 6.55 1.69 6.78 1.1-3.37-.52 6.93-1.15 3.53-2.87 3.87.5 6.45-.92 6.82 0-4.32 1-8.12 1.8-5.25 3.23 1.37-.8 6-.89 8.57-1.42 3.95 2 23.48 1.5 22.18-.32.75.59-9.31.57-8.52 0 9.23-.11 16.44-1.33 23.86 0-.64 1.3-20 2.36-7 3.22-1.22-1.35 4.51-1.2 6.9-1.78 3.46 1.57 1.54.83-.12 2.52 4.71-.1 14.74-.92 17.07-.33-8.76.78-20.4 1.41-25.7 2.83 4.81.31 4.44-.49 8.54-.34-4.22 1.53 4.52.32 6.76 1.45-.38.41-1.93.56-3.45.72-25.53-.44-4.24 1.19 0 .36 1.32.79 5.93.91 8.47 1.45-4.57-1.62 3.77-2.13 5.43-3.49-5-.1-6.4 1.43-8.53 0a57.53 57.53 0 0110.28-1.07c.25.43-.34 1 1.65 1.09 4.2-.47-1.8-1.34 1.78-1.44 3.73 1 4.24-.26 11.89.75 1.27-.94 5.62-1.22 6.91-2.15.82 1.13-4.07 1.46 1.63 1.8 6.28-.52 13.09.15 18.8-1 3.86-.05 7.41 1.75 10.19.74-3.46-.38-4-1.44-3.33-1.81a22.27 22.27 0 008.49.74c-4-1.51 4.56-1.72 10.33-2.14-.1.5.76.79 1.65 1.09-4.22-.07-8.26-.09-8.56.7 3.15.92 8.25-.79 6.78 1.09 3.34.12 3.39-.48 5.14-.71 2.25.37 6.32.36 6.77 1.09-4.11 1.2-4.64 2.55-18.84 1.77.06.49-.82.79-1.74 1.07 5.24.3 5.42.74 3.32 1.81 7.87-.13 10.41.84 10.17 1.46 3.57-1.19 1.51-.31 3.41 0 .61-1.08 9.38-.41 10.29-1.42.54-.71-2.27-.72-3.35-1.09.49-.74 4.57-.71 6.86-1.06 2.76 1.47 6.74 1.71 1.55 3.24 8.8.44 3.16-2.23 8.64-2.5-7.7-.74-4.12-3-3.2-4.69 3.53 1.11 7 1.18 11.91.38a7 7 0 006.74 1.82c-1.32-.09-2-.31-1.67-.73 12.1-.51 17.42 1 25.57-.31-4.86-.82-8.44-.32-10.12-2.18a34.34 34.34 0 003.42-.35c-1.21 1 3.49.7 5.07 1.09.26-.67 1.17-1.2 3.48-1.43 4.61.23 13.53-.43 15.31.39-2.58.53-7.2.63-8.58 1.42 5.25-.71 8.86.48 13.64-.33a33.09 33.09 0 005.06 1.45c4.34-.89 15.68-.26 17.13-1.77-12.49.14-14.75.11-23.84-.76 1.65-1 8.64-.81 13.69-1.06v1.08c4 0 5-.61 10.24-.34-2.19-1.12 5.15-2 .11-2.52-8.21 1.45-6.54-2.2-15.25-1.83.92.78 7.37 2.24 3.27 2.89.37-1.52-3.81-.26-5.11 0-.1-1 2.87-.72.06-1.44-5.26-.49-9.49 1-11.93 0-.24-1 5.8-.69 3.51-2.15-6.45.53-12.65 1.09-17 0 0 1.33-6.45 1.27-8.62 2.14-8 .12-9.67-.65-13.66.33-2.75-2.22 4.51-2.52-3.26-3.24 10.43-.73 6.11 1.62 18.7 1.11-.73-1.12 3.7-1.14 8.57-1.06-.51-.83.33-1.38 1.78-1.8-3.18.34-5.64-1.09-6.81 0 2.08 0 4 .11 3.38.73-5.91-.3-6.58.52-11.95.33l.06-1.44c11-.83 15.7-1.13 25.63-1.38 1 1.63 9.54 1.55 3.29 2.88 5.08-.11 10.38-.19 12-1.06a37.49 37.49 0 01-5-2.53 88 88 0 0012-1.05c-.58.83.21 1.38 1.62 1.8-4 .22-8 .47-8.58 1.42 3.56.81 11.09.8 15.27 1.48v1.08c-4.23-.07-8.27-.09-8.56.7 13.38.38 11.2-2 25.58-.31 2.25-1.42-4.92-.88-5-1.81 5.17.24 14.7-.43 17 .39a14.51 14.51 0 01-5.16 1.07c-.24-.42.35-1-1.65-1.08.1.63-.43 1.12-1.77 1.44 5.68.49 10.66.47 10.25-.34 6.73.9 6.11 1.54 15.27 1.47 1.85-1.34-5.71-.72-6.75-1.46 5.49-.08 17.75-1.15 18.75 0-3 .2-10-.45-10.25.34 3.76.53 2.26 2.15 5 2.89-5.8-.28-2.87 1.32-6.89 1.42-1.42-.53-4.25-.78-8.48-.73-1 .63 2 2.12-1.81 2.16A75.78 75.78 0 00849 23c-8.25.74-9.29.63-17-.39 1.48 1.42-10.86 1.75-8.62 2.14a31.33 31.33 0 005.13-.35c-.41.68 1.89.79 1.64 1.44-3 .08-8.52-.38-6.85.71 12.57-.19 18.89-1 27.23.77-.3.54.56 1.33-1.76 1.44 0-.48 0-1 .06-1.44-6.35 0-10.76-.39-15.3-.75-.41 1.92 9.95 0 10.13 2.18-2.63-.53-6.61-.77-10.18-1.1.24.9-2.67 1.12-5.18 1.43.58-.84-.2-1.39-1.62-1.81-6.58-.25-6.06 0-10.21-.38-.76.69-3.71.9-3.49 1.8 11.22.19 13.46 0 20.4 1.12-.1 1.09-10.69-.55-5.13.35 6.82.83 13.77 2.5 18.74.4 5.48 1.29-3.53 1.65-3.54 2.87a107.07 107.07 0 0015.37-.69c-5.63-.37 1.94-.71 1.75-1.08-2.51-1-7 .61-8.5-.38 1.44-.41 2.29-1 1.78-1.79-7.45-.4-5.65 1.2-12 1.06-3.5-.11-3.37-1-5.05-1.45 5.9-.28 7.17.41 10.19.73 1.66-1.51 10.1-1 13.65-.33 0-1.09-.89-2.37 5.21-2.15 1 .62 5.12.61 6.76 1.1-.17.56-4.35.27-3.45 1.07 7.61-.06 6.08-2.08 12-2.5 0 .36 1.36.43 1.68.73.49.83-5 .39-5.17 1.07 9.83.62 7.67-.23 17 0 1.14-1.09 2.76-2.07 8.62-2.14 0 .36 1.36.43 1.67.72-3.5.62-3.33-.27-6.83.35 0 .48-.05 1-.07 1.44h8.53c.28-.43-.26-1 1.75-1.08a7.89 7.89 0 013.37.72c-.18.57-4.35.28-3.46 1.08h8.53c.41-.68-1.89-.79-1.65-1.44 8.71-.51 8.52 2.22 13.63.39.65 1.13 6.08 1.48-.1 2.16 8-.12 8.59-.44 11.9.74 1-.21 4.07-1.7.08-1.8-.74.8-9.36.33-8.5-.38 2.24 0 1.58-.62 3.43-.71.52.41 8 1.39 6.81 0-5-.17-4.44-1.59-1.57-2.88-9.07.37-11.16 0-18.77.69-2.18-2.78 20.52-.19 20.56-2.48-2.55-.07-6.3.11-6.81-.38-.43-.94.69-1.55 5.18-1.43.05.5-.84.79-1.75 1.08 5.8.28 2.87-1.32 6.88-1.43 1.79.91 10.07.93 11.93 0-8.53-.3 5.4-1.62-1.59-2.53 0 .2-1.4.41-1.7 0a56.08 56.08 0 0013.76-2.85c2.55.06 6.3-.12 6.8.37-.69.5-9.72 1-5.17 1.43 1.14-.67 4.83 1.1 6.75 1.45 4.61.24 13.55-.43 15.32.39-2.53.79-13.48-.23-13.68 1.06 2.47.2 8.82-.41 8.51.37-1.48 1.26-6.88 1.67-12 2.14-1.88-1-7.47-.72-11.93-.38.12-.47 2.22-.5 1.77-1.08a42.37 42.37 0 00-10.29 1.42c7.51-.75 7.36 2.58-.08 1.8.18 1.91 3.56 1.31 8.43 1.81 0 2-6.62.35-8.59 1.79 6.35-.54 14.17 1.84 22.15 0 2 .55 2.06 1.48 5 1.81-1.18-1.1 1.79-1.31 1.79-2.15-3.77-.29-9.23-.23-10.18-1.1 3.61-.41 6.64.23 10.27-.7.45 1 1.9 2.29 4.95 3.61 4.24.06 5.3-.56 8.56-.71-2.6 2 6.34 3.42 10.09 2.9-4.73-.32-5.59-1.45-6.71-2.53 3.23.09 3.78-.4 6.84-.35 0 .37-1.4.43-1.74.72 9.28.42 7.72-1.49 12-2.13 6.59.2 8.35-.63 15.36-.34.86-1.12-4.55-1-5-1.8 4.23.05 8.27.08 8.55-.71-2.22-.89-5.17.64-6.8-.37a44 44 0 0013.76-2.86c3 .21 7.08.2 8.5.74-6.75-.36-5.34 1-6.9 1.79a31.64 31.64 0 015.1.37c3.22-.64 2.13-2.21 6.92-2.51 0 .59 4.72.21 5.09.73-3.12 1-9.27 2-13.8 3.58 14.24.87 13.56-3.37 24-2.12-1.32.08-3.36 0-3.43.35 1.32.09 3.37 0 3.4.37-5 .33-6.36.53-8.56.71 2.61 1 8-.74 10.21.38-3.06.43-9.91 0-12 .69a53.46 53.46 0 0110.19.74c-13.29.69-15.85-2-30.66-.42.26-.9 3.31-1.12-1.64-1.44-3.93 1.38-1 3.18-10.4 3.94 6.37-.37 2.64 1.35 8.47 1.09-.47-1.35 10.71 1.15 12-1.05-2.47-.21-8.83.4-8.52-.38 2-.85 11.61-.3 11.92.39.77-.81 3.71-1.15 5.19-1.79l-.06 1.43c7.44-1.35 9.87-.54 17.13-1.76-4.77-1.45 6.2-.56 6.85-1.07-3-.56-8.51-.61-6.71-2.17h6.82c-.34 1.14 4.48 1.21 3.29 2.53 3.35.11 3.4-.48 5.14-.71 3.18.05 5.69.25 6.8.73-3.26.15-4.33.77-8.56.71-2.43-.09-2.85-.6-5.08-.74-3.19.65-7.89 1-10.31 1.79 2.7 1.05 8.8-.56 10.2.37-1.58.63-6 .65-8.55 1.07a13.83 13.83 0 00-5.08-1.09c1.39.69 6.3 2.47 6.73 2.17-1.13-1 3.55-.69 5.16-1.07 2.52.43 1.94 1.5 6.75 1.45.24-1.73-2-1.58.14-3.23 1.69.48 1.55 1.34 5 1.45 2.59-.54.61-2.06 6.9-1.79-1 1-2.58 1.87-3.53 2.87a44.85 44.85 0 006.8.37c1-.62-2-2.11 1.8-2.15 5.44.55.67 1.55 3.31 2.17 7.86-1.32 19-.4 27.3-.67-5.39-.31 3-.47 5.13-.35.54-.71-2.28-.72-3.36-1.09-12.43.51-24.17-1.76-28.8-4 1.39-.67 2.91-1.32 3.5-2.16a94.25 94.25 0 01-15.28-1.11c-1.93 1.47 1.74 1.78 5 2.17-3.61.78-4.87-.19-10.23 0q1.11 1.7-6.89 1.43c-.75-1.47-5.2-2.57-11.85-1.82 4.49-.9 2.55-1.14-1.62-1.81 5.36-.16 4.46 1 8.47 1.1-.62-1.3-2.67-2.3-8.4-2.54-.91.79-9.73 1.14-10.23 0 4.07-.53 1.77-1.51 3.49-1.79.4 1.22 7.12 1.14 11.87 1.46 4-.59 7.26-1.34 12-1.77-4.32-.63-6 .4-8.5-.38 4.49.12 4.43-.75 5.17-1.43-4.2-.48-8.3.79-8.51 0 5.45-.81-2.12-1.91-1.58-2.88 10.79.21 13.58.45 23.87-.31.16.4-2.5.55 0 .72 4-.91 7.62-.5 13.65-.34-3-1.83 12-1.65 3.44-.71 5.87.5 8.1-1.6 12-.34-9.75.24-1.14.93-1.8 2.16-7.72.54-19.63-.2-29-.42-1.39 2.07-7.92-.55-12 1.42 4.38-.61 12.6 1.43 17.07-.33 4.76 1.25 11.18 0 20.45 0 7.48 1.78 25.9 1.29 25.35 4.73 5.44 0 7.54-.8 13.68-.69 5.16-1.42-3.76 0-5.1-.37-3.58-.93 2.51-2-3.38-.73a13.76 13.76 0 01-5.07-1.09c6.35-.28.43-1.26-1.62-1.8-.31.54.55 1.33-1.77 1.44-4.52-1.08-14.78-1-18.65-2.2 6.36-.68 16.74-.35 15.42-1.77 6.57.07 7.83 1.23 15.29 1.11-1.66-1.76-1.38-1.81-6.71-2.53 3.07-.55 6.73-1 10.3-1.42-4-.49-12.59-1.89-18.72-.76 2 .07 1.83.57 1.65 1.09-2.55-.07-6.29.11-6.8-.38 3.06 0 4-.35 3.47-1.07-8.28-.79-11.32 1.41-15.37.33 1.27-.82 9.73-.09 8.59-1.43-5.8 0-11.9.09-13.6-.74 1.31-.68 5.1-.24 1.75-1.08 3-.07 8.52.38 6.84-.71-7.33.13-19.06 1.22-18.82 1.77 3.24-.68 8.87 0 10.2.74-7.69 0-15.62.14-15.28-1.47 6.17.36 3.73-2 .08-1.8-5.8.57-10 2.17-17.1 1.4 1.31 1.73-11.42 1-13.74 2.14 4.77.36-2.51.95 1.65 1.44 4.33.4 6-1.54 8.53-.34.09.22.24.42 1.68.36.75-.87-3.07-.79-1.62-1.8 6.34-.25 7.29.63 13.63.38 1.69-1.3-7.65-.31-6.76-1.45 8.86-.06 9.26.57 13.6.75-2 .53-2.18 1.47-5.19 1.79a35.64 35.64 0 00-10.26.7c5.94.07 7.43 1.07 11.87 1.46-7.84-.48-2.92 1.8-12 1.06-.1-.63.42-1.12 1.76-1.44a63.29 63.29 0 01-11.92 0c.25 1.38-1.41.12-5.13.34-2.21.9.82 1.13-1.77 1.44-5-.59 2.8-1.85-1.62-2.16 1.57 1.3-6.73.49-10.24.7v-1.08c-8.41-.71-10.32.52-17.09 1-.7-.68-3.63-.91-3.32-1.8 4.52 0 9.74-.12 11.91.38.15-.62-.33-1.12-1.65-1.44 7.52-.52 14.73 1.1 20.47-.32-3 0-4-.36-3.35-1.09-6-.57-1.09 1.22-5.17 1.07-1.4-1.37-7.22-1.83-11.81-2.54.28-.43-.25-1 1.75-1.08.48.85 5.89.68 5 1.81 5.08.09 5.86-1.32 10.24-.34-4-1.44 3.85-1 5.21-2.15-7.73.62-7.13.23-8.49-.73 4.49 1.37-4.52.4-6.85.7-1.88.25.06 1-3.47 1.08-.51 0-5-1-6.76-1.1-7.92-.29-24.26 1.09-24 2.11-5.54.44-1.25-1.16-6.79-.73.45 1.47-3.56.19-6.83.35 2.63 2.11 20.22.67 22.19-.68 6.92-.48 5.35.79 10.19.74.75-.68.69-1.55 5.18-1.43 1.53 1.74-9 2.16-13.69 1.41-.55.71 2.26.72 3.35 1.09-7.14-.07-4.11.18-1.74.72-3.5-.23-11.86.55-10.19-.74-8.45-.27-10.49 3.14-17.09 1v.72c-1 0-2 .05-1.72.36 2.68 0 5.91 0 5.09.73-3.22-.09-3.78.4-6.84.35-2-.54-1.94-.91.07-1.44-9.38-.45-8.92 1.23-12 2.13 6.28.78 11.76-.36 15.3 1.11-8.11 0-8.07 1.66-12.05 2.5-9.39.64-27.41 2.08-25.5-1.49 9.3-.06 8.35.4 5.05 1.45a60.23 60.23 0 0017.17-2.85c-7.86-.61-1.5-.29-1.62-1.8-5.88.39-13-2-5-2.17-.11.46-2.2.49-1.75 1.08a54.66 54.66 0 0012-1.42c-11.75-.16 4.3-.07.09-1.8-4.14.56-9.59.84-15.38 1.05 5.91-1.33-9-.51-5-2.53-5.47-.09-2.86 1.57-8.59 1.42-.07-.7-1.78-1.71-6.79-.73 7.82.12 3.9 1.54 3.31 2.17 4.72.89 10.4-.49 13.62.38-.37.41-1.92.56-3.44.72-4 0-5-.63-10.21-.38-1.9 1.16-7.79 1.47-10.34 2.5 2.14.41 13.41.75 15.34 0-3-.1 2.62-1.34 3.49-1.8 5 1.41-7.19 2.39-3.57 3.6-8.89-.51-4.85.84-6.86 1.06-2.52-.07-1.53-.87-1.64-1.44-7.33.36-6.59.19-11.92-.38-.45 1.11-4.81 1.38-6.92 2.14.77-.58-6.29-1.22-6.79-.37 6.49-.13 2.31 1.41 3.33 1.81 1.4.55 9 .66 5 1.45 10.16-.06-.41-2.06 6.93-2.51.08 1.34 2.51 1.17-1.78 1.8 3.19.64 11.92.14 10.14 1.82-11.31.15-17.77-1.21-25.49-1.5 5.8-1.18-1.94-1.25 3.51-2.51a47.26 47.26 0 00-8.5-.37c-2.39.45-.81 1.76-5.19 1.78-.42-1.26-6.39.89-6.81-.37 3.52-.33 4.78-1.15 6.9-1.79 3.18-.76 15.4.41 15.4-1-5.87.64-7.92-.43-15.33-.4 2.83 2.19-7.72-.28-10.27 1.07 2 .06 4.83-.06 5.09.36-6.68-.59-.66 1.56-5.17 1.44a80.37 80.37 0 00-17-.76c-.19.57.17 1.25-3.46 1.07-2-1.54-1-1.83-5-2.53 1.45 1.16-5.64.49-5.18 1.43 5.35 0 11.58 1.62 8.44 2.18-1-2-13.65-1.67-18.68-1.84 5.76-.44-1.37-2.25-3.27-3.24h5.12c-2.17-1.12-11.59-1.63-6.52-3.43-9.23.13-13.32-.8-20.4-1.12 0 .72-.07 1.44-.1 2.17 10 .21 3.26-.92 5.16-1.08 4.25 1.08 9.84 0 11.89 1.11-1 .74-2.69.75-5.14.35 0 .6 0 1.2-.08 1.8 3.23.08 3.79-.4 6.84-.35l-.06 1.44c-5.87.15-9.55-.16-13.62-.39-5.6.7.48 1.8-5.21 2.15-3-1.58-11.06-.9-17-.39 1.12-1.94-9.51.46-11.84-1.83 2.51.2 4.26.55 6.77.74 2.88-.71-.12-.46.07-1.44 3 .32 5.22 1.21 6.81 0-1.31-.08-2-.3-1.66-.72-5.81-.37-9.77 1.1-8.49-.74-8.17-.28-7.16 1.15-8.59 1.43-3.81-.51-9.28-.33-3.37-1.09-4.54-.63-11.15.82-15.4 1.41-.24-1.14-6.7-1-11.87-1.11.32 1.08-6.35 1.22-1.8 2.16-3.73.26-12.07 1.39-13.64 0 2.9-.58 7.7-.76 10.29-1.42-5.28-.95-5.43 1-11.93 0 .75 1.48-7.94 2.35-1.83 2.88-2.78.6-8.81.31-10.21-.38 1.55-.76 7.29-.61 6.89-1.79-11.12.11-12 .09-27.28.31 2.56 2.07-2.5 1.39-1.87 3.59h6.82c-.39-1.18 2.11-1.73 6.9-1.79-2.71 1.27 5.78.23 5.06 1.09-4 0-5 .61-10.24.34.49.84 3.27 1.49-.1 2.16 6.73.57 10.49-1.34 13.66-.33-5 .82-9.27 2-3.56 3.23-10.95.11-20.49-1.76-13.49-3.27-8.09 0-13.47-.53-15.25-1.83h6.81c.39-2.08 7.41-3.11 2-5.4-3 .2-10-.46-10.25.34-1.65 1.45 4.5 3.57-5.29 4-.62-1.61-1.1.14-3.4 0-5.32-.33-12.58-3-1.52-4.32-7.18-1.32-10 1.12-10.29 1.42-3-.21-10 .41-10.21-.38 2.23-.73 9.58-.36 10.29-1.42-3.24-.16-4.25-.79-8.49-.74-1.65.67 5.06 1.21-.06 1.44-2.71-.27.47-1.76-5.05-1.45-.83 1.34-2.2 1.46-5.24 2.87 4.06-.2 8-.53 8.49.74-11.72-.18-7.5 1.24-10.33 2.5-1.1-.87.2-2.3-5.05-1.45 1.72 0 2.11.63 0 .72-7.24-1.25-21.15 1.07-25.53-.77 4.12.72 7-.53 11.95-.7 4.41-.15 11.68 1 15.36-.33-10.34.22-13.78-1.83-20.43-.4 2.39-.82 4-1.81 12-1.41-.05-.5.84-.79 1.75-1.08-3.71.06-5.41-.31-5.06-1.09h11.93c2.07-2-10.39-.94-11.83-2.18a14.66 14.66 0 01-3.53 2.51c-4.84 0 2.17-2.35-5-1.81-1.51.57 3.85 2.11 1.53 4-5.18.45-15.16-.12-17.09 1 2.67 0 5.91 0 5.08.73-4.81-.3-4.44.5-8.54.34-.08-1.81-9.2.09-10.14-1.82 3.45.32 10.6-.29 5.15-.71a28.89 28.89 0 01-6.83 0c7.33-2.35 4.22-2.85 6.89-5.07zm425.42 16a25.09 25.09 0 018.53-.34 25.63 25.63 0 01-8.53.31zm-39.56 7.84c-1.62-1 9.57-1 8.56-.7 1.66 1.18-5.34.52-8.56.67zm-86.65-6.29c5.37.19 2.68 2.06 6.7 2.53-3.31.67-8.32-1.35-11.84-1.82-3.24.39-7.86.49-8.6 1.42 1.41 1.06 5.51-.2 8.53 0 .46 1.43-3.36 1.94-10.31 1.78a33 33 0 015.15-.71c-2.42-1-11-.22-10.26.7-3.91.49-6.36-.94-6.81 0-6.26-1.14 5.2-1.53 6.91-2.15-3.72-.54-8.8-.8-8.43-2.18-5.37.4-4.49-.11-8.53.34-1 1.29 5 1.11 10.17 1.1-4.16.71-1.73.57-3.49 1.8h-8.52c-1.71.59 2.07 1 1.61 2.16h-8.53c3.49-.69 4-1.44 1.83-2.52a31.6 31.6 0 01-5.13.35c-.25.65 2 .76 1.64 1.44-3.13-1.13-12.73-.93-17-1.83 4.22-.8 13.74-1.95 20.51-1 3.38-.24 4.58-1 5.19-1.79s-7.78.18-5.07-1.09c5.34.42 4.17-.56 6.85-.71 10.94 1.49 23.88.35 30.56 2.59 2.74-.12 6.54.09 6.87-.44zm1.76-1.44c-2.87 1-4.59.38-10.27 1.06-.7-.57-5.34-.32-3.34-1.45 3.72.93 7.29.57 13.61.36zm-346.09 1.8c-.46-.58 1.64-.61 1.76-1.07 3.3-.14 2.44 1.64-1.76 1.07zm-220.15 6.05c-3.29.14-1.41 1.39-6.86 1.07-.26-1.21-5.6-2 .11-2.52 1.61 3 17.87-1.35 27.31-1-.25 0 2 1.28 5.09.73.53-1.77-13.19-.6-17-1.47 5.48 0 13.88-.35 20.5-1-.23 1.11 5.31 1 3.29 2.52-4.5-1-6.27.5-8.57 1.07 1.51 1.21 3.16.18 8.51.37-.3.42.35.64 1.66.72-3.29 1.68-12.33.95-18.73 0-6.62.1-13.35 1.14-15.31-.49zM3.32 27.81c1.21-1.64 10.31.31 0 0zM564.82 12c4.22.15 0 1.39-3.46 1.07-.91-.79 3.27-.5 3.46-1.07zm491.06-3.7c-1.2 1-8.91-1-6.87 1.07h-13.63c6.88-.46 14.9-2.53 20.5-1.07zM1124 9.87c-4.18 1.18-8.09-1 0 0zm-17 0c6.26 1.1-5.22 1.2 0 0zm-99 1.21c6.85.38 9.72.27 12-1.05 3.22 0 1.13 1.19 5.07 1.09-2.15 1.23-18.15.73-17.07-.04zm124.46-.08c2.64-1.27 3.21.67 1.67.72-1.01.01-2.13-.54-1.67-.72zM479.7 9.68c1.44-.07 1.59.14 1.68.36v.72a46.11 46.11 0 01-6.81-.38c.43-.51 5.07-.11 5.13-.7zm553.87 2.18h-6.83c-1.28-1.41 8.26-1.39 6.83 0zm88.67-.91c3.6.12.29 1.71-3.47 1.43.9-.53 2.55-.9 3.47-1.38zm-15.38.69c1.6-1 6 .38 8.51.38-2.13 1.08-6.5-.27-8.51-.38zm-414.15-.82h5.1c2.22.91-8 .86-1.76 1.44-1.68.73-6.59.76-12 .69-2.22-1.81 11.51-.18 8.66-2.13zm344.29.68c5.18 0 1.58 1.82 6.74 1.81-4.62.35-17-.57-23.86 0 2.18-1.39 14.86-.47 17.12-1.81zm-56.25.25c-.41.52-5.1.12-5.14.71-5.49-.46 1.66-1.02 5.12-.71zM737 11.63c2.87.46 13.27-.36 13.56 1.46-2.91 1-7.76-1.4-11.93 0-2.31-.09-1.38-.92-1.63-1.46zm132.91 1c-2.53.79-4.6 1.68-12 1.42.3-1.26 7.73-2.17 11.99-1.44zm143.18-.08h5.11c-4.37 1.48 2 1.36 3.29 2.53-8.05-.28-11.73.38-18.75.32 1.59-.86 6.88-.94 12-1.05.69-.88-3.12-.8-1.66-1.82zm-669.83-1c1.2.83 11.81-.3 10.18 1.11-4.63-.11-12.66.49-10.19-1.1zM1088.05 13v1.08c-1-.1-6.52-.91-6.82 0-4.12-.3 3.71-1.08 6.82-1.08zm18.73.4c-4.07 1.15-6.83-1.28 0 0zm25.58-.31h5.12c-1.06.32-2.09.64 0 .72-2.77.41-5.47 1.4-8.56.7-2.08-1.12 5.5-.21 3.44-1.38zM633 12.86h5.11v.72H633zm199.42.4c-.25.64 2 .76 1.64 1.44-3.76-.84-6.66.11-11.94 0-1.28-1.5 5.5-1.25 10.25-1.44zm163.37 4.64c-4.8-.31-4.44.5-8.53.35.17-.52.32-1-1.67-1.09.61-1.2 7.39 1 8.55-.34 2 .06 1.41.66 1.65 1.08h6.82c4-1.54 10.21-1 17.11-1.4-.92.28-1.8.58-1.75 1.07 4.48-.24 7.69-.76 6.91-2.14 4.09-.14-1 1.64 5.06 1.09.21-1.49 5.24-1.05 3.53-2.52 6.08-.54 1 1.23 5.06 1.09-.41.52-5.09.12-5.14.71 2.56 1.06 15.46-.87 15.28 1.12 6.82-.58 18.81-1.63 27.31-.67 0 1.33-.88 2.48-6.93 2.51 4.26-1.46-2.49-1.56-10.17-1.47a11.14 11.14 0 00-3.45 1.08c3.29-.12 14.07-1.16 11.9.74-15.93-1.23-14.35 1.79-29.08 2.1.25-.64-2-.76-1.63-1.44 3.38 0 2.12 1 6.78.73 1.58-1.15-5.53-.51-6.77-1.09.53-.75 4.59.54 5.15-.71-10.2-.47-17.89 1-30.71.66a8.22 8.22 0 013.44-.71c-1.1-.49-3.61-.68-6.79-.74-2.4 1.2-2.26 2.73-13.7 1.42 1.34-.33 1.87-.8 1.77-1.43zm-477.15-2.39c.34-.4 1.72-.19 1.7 0 9.3.54 3.72-2.11 10.32-2.14 2.58 1.43-6.54 2.18-1.83 2.87-.44.39-3.41.24-3.44.72-6.39.37-3.29-1.21-6.75-1.45zm87-2c1.22 1.11-4.71.68-3.49 1.79-5.22.25-6.19-.38-10.2-.38 2.35-.92 9.6-.82 13.7-1.39zm23.61 5.8c-1 1.4-8-.6-8.58 1.07a30.21 30.21 0 00-5.09-.37c.51-.94.66-1.81-5.05-1.45a20 20 0 005.21-2.15c-4.63-1.21-11.28.21-12 1.05 1.23 1.12 10.17 1.91 6.68 2.9-6.31-.19-11.69-.55-13.63 0-4.45-.74 3.64-1.25 6.85-.71-1.19-1.06-4.09-1.77-8.43-2.18 2.46-1.89 17-1.19 15.52-3.92 5.49-.72 5.27 1.43 6.79.37 5 .32 1.9.54 1.65 1.44 5.6-.41 8.44-2.16 13.66-.69-.22.68-5.64.24-5.16 1.07 4.85 1 20.47-.2 18.66 2.2 2.36-.46 5.11-1.71.08-1.8 2-1.17 9 1 6.86-1.07 6.67.88 11.05 2.23 13.46 4-4 0-5-.63-10.21-.38 7-.85.26-.93-3.35-1.45-3.54.57-1.43 2.36-10.3 1.78 3.78 1.8 17 .58 25.55.41-7 3.51-27.94-.74-35.84 1-2.05-.17-3.44-.43-3.32-1.1zm71.82-5.25c3-1.36 2.77.78 5.08.72-2.95 1.38-2.75-.78-5.07-.7zm143.2-.06h3.41v.71h-3.41a3.37 3.37 0 010-.71zm121 1c-3.42-.13-5.34.06-5.15.71-5.09-.25 1.66-.77.06-1.44 5.26-.26 3.23 1 8.49.74-1.19.28-2.7 1 0 1.07-3.31.92-6.24-.33-3.42-1.08zm-383.49-1.16c3 .09 3.85.63 3.34 1.45-2.99-.1-3.86-.63-3.34-1.45zm58 .11c2.9-.12 3.19.29 3.37.73a31.42 31.42 0 015.13-.35c-1.58.63-3.23 1.24-8.57 1.06-.02-.48 0-.96.02-1.39zm52.84.11c4.45-.09 7.31.14 6.76 1.09-3.06-.05-3.61.44-6.83.35-.03-.5-.01-.96.02-1.44zM493.13 14c5.39-.16 3.81 1.11 10.2.74.47 1-3.6.92-6.87 1.07.34-.29 1.73-.36 1.74-.72.71-.84-7.77.21-5.07-1.09zm68.17.14h3.42c0 .37 0 .72-.05 1.09a29.52 29.52 0 00-5.11-.37c.35-.28 1.73-.34 1.74-.7zm124.42.24h3.42v.72h-3.41c-.02-.22-.02-.46-.01-.7zM796.5 15c5.22-1.32 5.69 1.11 0 0zm86.92-.18c-.19.92-7.3.36-5.18 1.79-5.4 0-5.66-1-11.9-.75-.56.95 3.52.94 6.77 1.1-3.84 1.45-21.18 0-17-1.84a10.61 10.61 0 013.36 1.09c4.47-1.32 15.69-.56 23.95-1.41zm18.68 1.83c.45.64-4.87 1.79-.09 2.16-.29.81-4.29-.47-8.53 0 4.05-.49 1.78-2.31 8.62-2.18zm-3.39-.36c.57-.85 8.09-.2 6.88-1.43 14.8.57 1.12 3.26 6.62 4.33a39.7 39.7 0 01-6.82.35c.15-.51.32-1-1.66-1.08a32.29 32.29 0 015.14-.71c-4.58-.26-4.72-1.42-10.16-1.48zm-414.14-1.56c-4.49 1.4-16.58 1.61-13.79 3.57-5.92.28-6.53-.55-11.91-.38.5-.74 6.36-.33 6.86-1.07-2.6-.65-10.21-.26-11.87-1.1 8.78-1.98 18.46.04 30.71-1.02zM920.88 16c5.83.94-8.81.85 0 0zm-514.74-.3c-1.7-.81 10.37.38 15.35-.33-.67 1.63-11 .12-15.35.28zm39.2-.28c-1.74.59-7.25.38-10.25.7-3.56-.38 6.13-.88 10.25-.75zm124.42.25c4.82.54 7.65 1.5 11.84 2.18.24 1-10.49-.32-10.26.7-3.89-.36-4.57-2.27-1.58-2.93zM695.84 17c-3.55.75-24.1-1.4-23.89.67-10.5-2.06 10.62-2.08 20.52-1.4 1.44.07 1.6-.14 1.71-.36 5.34-.15-4.38.98 1.66 1.09zm127.86-.47c.3-.42 3.12-.3 5.13-.35 0 .48 0 1-.07 1.44-7.32.1-2.14-1.02-5.06-1.14zM588.5 16c-.76.44-2.22.74-5.15.71-.76-.71 2.47-.71 5.15-.71zm388.59.77c5.49-.3 2.29 1.19 6.77 1.1-1.18.79-8.94 0-6.77-1.09zm-218.17-.07h3.4v.72h-3.41zm-378.4 0c-.37 1-5.6 1-6.9 1.79-4-1.09-2.78-1-8.5-.38-4.69-1.85 8.09-1.82 15.4-1.43zm44.32-.27c2.32-.06 2.12 2.09 5.08.73 3 1.53-14.09.84-15.48 3.21-2.47-.32-6.58-.3-5.05-1.45 14.18.3 2.81-2.61 15.45-2.51zm58 .11c-.75.44-2.21.74-5.15.71.73-.46 2.17-.75 5.1-.73zm71.58.51c-.27-.78 6-.16 8.53-.35.2.76-6.1.13-8.58.3zm170.22 5c-6.11-.1-6.29 1.07-12 1.06-1.5-1.12-7.92-1.21-13.57-1.47 1.72-1 5.74-2.62.14-3.24 2.18-.58 15.16.5 10.3-1.42L718 17c-.3.42-3.12.3-5.14.35.22 1.14 3.8 1.59 3.29 2.88-3-.33-8.5-.14-10.19-.73a11.23 11.23 0 00-3.47 1.07c8 .64 13.45 2 20.43.76 2.51.31 3.63.91 3.33 1.81-2-.08-1.41-.67-1.66-1.14zm-490.7-5.66c9.74-.11 18.09 1.94 25.52 1.13 4.64-.25-1.3 1.69 3.34 1.45-6.17-.14-14.8.72-18.78.68-2.59-1.28 5.8-.21 5.16-1.07-.18-1.47-16.85.42-15.24-2.19zm156.79.67c-2.69.15-1.51 1.13-6.85.71-.35-1.37 10.69-1.35 10.23 0-1.52-.15-3.04-.31-3.38-.71zm103.67 6.69a64.21 64.21 0 01-11.86-1.47 11 11 0 00-3.45 1.08c-5.68-1.75-12.49.87-17-1.12-3.48.1-3.38 1-6.86 1.07.91.52-2.07 1.85 1.62 1.8-5.77 1.25-12.57 0-20.48.68-1.7-1.21 5.33-.55 8.55-.7 2.3-1.55-8.09-.46-6.73-1.81 9.08-.38 14.08-.89 18.81-1.41-4.55-1.06-6.6-.32-11.93 0-.78-1.14 5.27-.81 3.51-2.15 4 1 6.25.36 13.61.38 3.72 1 6.84 1.35 13.61.75-3.87-.63-8.8-1-13.58-1.47 4.6-.9 13.75.85 18.75 0 1.83 1.13.76 1-1.78 1.8a31.37 31.37 0 015.12-.35c-1.84-2.57 4.82-1.53 8.56-.71 2.8-1.34-7.26-1.61-5-3.25 7.71 1.56 11.54-.64 18.74.4-3.4.48-8 .71-8.61 1.78 2.05 1.1 5.88-.38 10.23 0-5.9.92-2.35 2.13 3.3 2.53 1.79.92-7.4 1.25-1.79 1.8-6.27.54-8.4-1-15.26-1.83 1.47-.54 4.32-.77 8.56-.71-4.51-1.74-16.72 0-13.74 2.14 3.82-1.04 3.5-1.98 5.1.77zm24.09-5c-1.2-2.74 12-.12 15.42-1.77 4.59-.23 3.26.75 5.07 1.09a70.87 70.87 0 0113.64-.33c-6.81 1.68-15.42 0-23.87.31-3.68.15-5.22.8-10.26.7zM354.93 17c2.29.24 3.14.77 3.35 1.45-5.22.25-5-.64-10.21-.39-.69-1 6.37-.33 6.86-1.06zm160.19.68c-1.13.48-3.66.66-6.84.7-.74-1.13 4.34-1.29 6.84-.71zm167 .33c-.48-1.13 4.88.92 5.12-.35 4.93.21-2.63.55-1.75 1.07 6.73.48 3.53-1.17 10.26-.69-.3.41.35.64 1.67.72-4.4.92-13-.14-10.35 2.86-4.66.25-3.39-.73-6.79-.73.41-.52 5.09-.12 5.15-.71-4.55-.89-15 .76-15.28-1.48 5.5-.06 7.18.66 13.62.39.23-.52.37-1.03-1.61-1.09zm47.68.81a39.72 39.72 0 00-6.79-.37c.39-1.05 8.17-.86 6.83.36zM883.29 18c4.46-.1 7.32.14 6.77 1.09-4.47.13-7.32-.09-6.77-1.09zm54.54.1c2.34 2.08-11.11.76-12 2.14-6.58-.52 2.52-2.7 12-2.1zm5.1 0c6.63-.29 6 .9 10.19 1.11-3.78 1-10.88 1.29-12.07 2.85-2.22-.89-6.35.39-6.79-.37 4.57-.79 9.22-1.6 8.67-3.54zm-542-.71c-1.56.63-4.16 1-5.19 1.79-3.55-.28.64-1.96 5.2-1.74zm56.22.47A19.45 19.45 0 01446.89 19c1.48-.8 4.25-1.29 10.27-1.09zM343 18c1.72.24 1.72.84 5.08.74-1.45.41-2.29 1-1.79 1.79 2.85 1.05-7-2.15-3.29-2.53zm166.9 2.18c1.43-1.48 9.8-.29 12-.34 3.28-.51 4.95-1.36 10.29-1.42-.72.61-8.1 1.6-3.5 2.15-4 .69-9.17-.32-15.36.33 5.38-.74 2.67-1.32-3.43-.72zm-124.35-1.69c3 .09 8.55-.35 6.78.73-1.37-.07-1.69-.36-3.39-.36-5.37.05-2.27 1.93-8.6 1.78-2.34-1.64 5.81-.93 5.21-2.15zm202.8.76c5.2.71-8.55 1.08-6.8-.37 5.5-.72 5.27 1.43 6.8.37zm438 .51c-4.56 1.3-17.92 1-18.84 2.12-3.06 0-3.58-.44-6.81-.37-1.93.32.07.8-3.47 1.43-3.39 0-2.13-1-6.78-.73 5.04-2.7 24.55-1.49 35.94-2.45zm-792.55-.13c-5.43-.23-5.31.66-8.52 0 .72-.98 9.13-1.69 8.52 0zm47.75-.63c.3.31-.68.34-1.72.36-1.92.68-4.31 1.25-5.21 2.15-3.38 0-2.12-1-6.78-.73.18-2.12 9.63-.3 5.21-2.15 5.82.16 2.12.97 8.5.37zm255.66.15q0 .72-.06 1.44a31.31 31.31 0 00-5.09-.37v-.72a31.37 31.37 0 015.15-.35zm156.8.67c2.52.31 2.41 1.17 3.32 1.81-4-.54-3.13-.77-8.5-.38-.83-1.83 6.04.01 5.17-1.43zm58 .12c-.3.41.34.64 1.66.72.08.57-12 .9-3.45 1.07-.91.29-1.81.58-1.75 1.08-6.61.3-6-.89-10.19-1.1 5.72-.34 7.43-1.54 13.72-1.77zm122.7.6a17.52 17.52 0 015.12-.35c1.17.25-6.83.98-5.17.35zM394 19.59c3.64-.17 3.22.52 3.35 1.08h-5.11c.95-.29 1.83-.59 1.76-1.08zm32.38.06c5-.52 4.89 1.62-.05 1.08.05-.36.07-.73.08-1.08zm-138.07.09c8.32.17 20.66-.48 22.11 1.12-6.26-.2-9.39-1.05-15.33-.39 7.65 1.39-3.6.56-3.51 2.15-4-.12-6.37-.58-11.91-.38 3.54-.9 14.27-.65 8.67-2.5zm83.49.52c-.7 1.34-12.79 1.39-13.63 0a119.18 119.18 0 0113.66 0zm264.2.17h3.41v.72H636zm415.86.82h8.53c-.82 1.26-7.37.72-8.58 1.06-2.48-.14.73-.44.08-1.06zm-922.04-1.47c-1.95.55-4.94.88-6.89 1.43-6-.05 3.68-1.18-1.65-1.08 2.59-.77 4.15.26 8.54-.35zm81.79.52c1.17 1-8-.27-6.85.71-4.86-.83 3.24-1.34 6.85-.71zm51.15-.3c1.93.08.92.37 0 .37-3.34 1.88 11.55 1.06 5 2.53 5.79.1 13.83-.25 17 .39-6.45 1.32-20.73 1.28-29 .3 1.5-1.28 4.2 0 10.25-.34-2.7-1-8.38-1.35-8.4-2.89 2.39.07 4.84.1 5.15-.36zm318.72.64h3.4v.71h-3.41c-.02-.19-.01-.43.01-.67zM169 20.22c3 .27.22.65-.05 1.08-3.02-.3-.21-.66.05-1.08zm110.77.58c-.64-.7 7.79-.51 5.09.37h-3.41c.33-.31-.65-.35-1.68-.37zm75 .15c-.57 1.47 3.56.2 6.8.37-.9.29-1.79.58-1.74 1.08-12 .88-25.09-1-25.66 2.11-6.12-.67-5 0-10.25.34.27-1.42 7.47-1.09 3.52-2.52 4.13.93 3.67-.75 10.25-.33a31.15 31.15 0 00-5.08-.74c4.26-1.57 14.08 1.74 22.14-.26zm81.84-.2c-2.22.93-3.79 1.08-1.81 2.16-6.74.17-3.01-2.51 1.79-2.16zm95.44.19c3.05-.09 3.48.35 1.69.36a31.12 31.12 0 005.08.73c-2.05.97-9.08.02-6.82-1.09zm126.1.61c-.3-.3.68-.34 1.72-.36h3.41c-2.85.47-.66 2-3.52 2.51-3.52-.57-8.51-.85-8.42-2.17 3.2.16 11.21 1.33 6.79.02zM1028 23c-7 .27-8.72-.56-15.32-.39 3.47-.71 14.56-1.23 15.32.39zm-354.54-1.06c1.14-.61 3.93-.22 3.4.37 4.09.15 3.72-.65 8.53-.35-.28 1.12-3.88.36-10.27.7.3-.41-.33-.66-1.66-.72zm-29-.06h5.12c-1.93.52-1.88.88 1.65 1.09-1.29 1.6-14.55.46-6.92 2.14-5.35.16-4.44-1-8.47-1.09.63-.48 3-.56 3.47-1.08 4.11-.14 3.67.67 8.5.38.03-.7-4.61-.46-3.33-1.44zm352.65 4.3c1-.73 5.15-.69 1.77-1.43-7.32-.19-2.24 1-5.17 1.07-6 .3-1.73-.94 0-1.08-1.3-.8-10.55 0-8.46-1.46 9.26-.31 12.92.54 22.2-.68-4.54 2.25 9.34.68 8.42 2.18-6.36-.05-4.84-.41-10.23 0-.89 1.14 8.45.15 6.76 1.45-7.86-.95-7.3-.13-15.27-.05zm-761.76-2.95c-7.52-.9-8-1.13-17-.39 1.27-1.69 18.43-2.05 17 .39zm73.37-1.65c-.78.44-2.22.73-5.16.71-.76-.77 2.44-.68 5.16-.71zm127.82.25h5.1v.72h-5.1zm182.35.72c3-1.16 4.43.95 10.21.38-2.1 1.5-5.82-.29-10.21-.38zm112.51-.13h6.81c.68.75-1.21.95-1.77 1.44-2.44-.31-6.59-.29-5.04-1.44zm-479 .49a47.64 47.64 0 00-8.53 0c-1.4-1.51 8.57-1.1 8.53 0zM363.24 22a33.24 33.24 0 003.38.37c-.94.89-8.07.25-3.38-.37zm37.49.08c1.67 1.08-3.83.63-6.85.71.44-.6 2.97-.79 6.85-.67zm293.15.58c.47.95-2.42 1.18-6.87 1.07a14.92 14.92 0 016.87-1.03zM370 22.42c2 .54 4.89.89 5 1.81-5.21.05-7.54-1.23-5-1.81zm-160.24 1.12H203c-1.34-1.4 8.16-1.38 6.76 0zm325.58-.43c5 .31-2.26.9-.08 1.8-6.8-.48.51-.75.08-1.8zm194.25 1.46c-.74 1.22-6.56-1-5.14.71-5.91-.27-9-1.12-15.32-.39 4.65-1.83 12.87-1.2 20.46-.32zm298.31-.49c1.2 1-3.42.72-3.47 1.44-2.24.17-.67-1.79 3.47-1.44zM136.49 23c2.61-1 7.32.58 10.19.74-1.14.48-3.67.66-6.84.7-.31-.31.68-.34 1.71-.35-1.65-.34-3.33-.7-5.06-1.09zm279.51.59c-1.24 1.13-4.57.46-8.54.34a25.66 25.66 0 018.54-.34zm422.69.48c5.34-.1-4.38 1 1.66 1.08-2.13 1.09-6.49-.27-8.5-.37-1.17-.99 8.03.27 6.85-.71zm-615.28-.86c4.58.33-.86 1.46-5.17 1.07-2.59-1.28 5.76-.21 5.18-1.07zM342.56 27c.83-.76-2.41-.69-5.08-.73a150.07 150.07 0 0117.08-1c-1.5 1.13-6.63 1.48-12 1.73zm27.37-2.46c5.33-.1-4.38 1 1.66 1.08-.4.52-5.09.12-5.14.71-2.57-1.34-10.1-.22-12 .7-3.82-.69 5.34-1.63.13-2.88 2.91 0 4.42-.26 5.14-.71 5.25-.26 3.23 1 8.49.73-.3.42-3.12.3-5.13.35-1.2.63 8.05.65 6.85.06zm296.52 1.67c-5.71-.34-.82-.67-1.63-1.81 3.06.06 3.62-.43 6.84-.34-2.43 1.09.84 1.59-5.21 2.19zm-267.51-2.29h5.11l-.05 1.45c-5.71.35-5.57-.51-5.06-1.45zm-187.49 0h5.11v.72h-5.12c-.01-.26 0-.49.01-.74zm134.64.27h3.41v.72h-3.42c-.02-.26 0-.5.01-.74zm129.52.62c.43-.52 14.06-.81 11.91.38-4.52-.03-9.74.1-11.91-.4zm15.39-.35h6.81v.72h-6.82c.01-.24.01-.48.01-.72zm269.25.54c.46 1.31-9.1.46-12 1.06 1.56-1.69 6.61-.36 12-1.06zm213 .43q5.58-.09 5.06 1.09h-5.11c.06-.39.08-.74.1-1.1zm-726.14.36c.71.56 5.35.32 3.35 1.44-2.08-.4-3.49-.32-3.43.36-1.73-.24-1.73-.83-5.08-.73.62-.48 3-.56 3.46-1.08-3-.11-9.2 1.13-8.51-.37-4.79.34 2.44 1-1.77 1.43-3.21-.16-10.29.47-8.49-.74a38.63 38.63 0 006.8.38c1.28-1.1-1.68-1.32-1.61-2.16 5.1.48 13 .39 20.44.39q0 .74-.06 1.44a30.63 30.63 0 00-5.05-.37zm272.73-.18c-5.83-1 8.8-.85 0 0zm5.13-.35c1.5-1.06 4.27.47 8.52 0-.47.75-7.49.09-8.56.71-6.67-.2 6.81-.52.07-.72zm27.29-.31c5.82.94-8.81.85 0 0zm318.69 1c-1.21 1 3.5.71 5.07 1.09.13.41-10.38.05-10.19-.74-3.64.35-7.67 1.58-12 .7-.19-.37 7.38-.72 1.74-1.08 4.27-.49 7.22.68 15.43.01zm-588-.8c-4.6.77-7.77.47-13.66.33 1.03-1.28 9.95-.58 13.71-.35zm254 .14h3.41c.45.58-1.64.61-1.75 1.07h-3.41c-.45-.6 1.64-.63 1.8-1.09zm98.85.2c4.24.15 0 1.39-3.46 1.07-.9-.82 3.28-.56 3.46-1.09zm347.67 1.05c.76-.8 9.06-.27 10.23 0-.62.47-3 .56-3.45 1.07-2-.07-1.41-.66-1.66-1.08zm-652.76-1.3c5.33-.1-4.38 1 1.65 1.08-4.24.95-6.12-.65-1.65-1.1zm160.21.32c4.75-.16-1.43 2 3.32 1.81-1.74.85-7.47-1.37-3.32-1.83zm-274.43-.18c-.75.43-2.21.73-5.14.7.77-.46 2.21-.75 5.14-.72zm502.8 1c3.21 0 1.12 1.19 5.06 1.09-1.49 1.06-4.27-.48-8.52 0 1.17-.41 3.94-.41 3.46-1.12zm288 .57c3.94.37 5.43 1.25 5 2.53-5.37-.18-6 .64-12 .34 2.16-1.16-5.49-.28-3.33-1.45 6.81-.34 5.08 1.09 11.89.75-.66-1.12-8.26-1.5-1.52-2.2zM160.22 26c5.23-1.32 5.69 1.11 0 0zm240.32.48c6.4-1.24 8.6 1 0 0zm44.31.09c3-1.63 6.81 2.08-.07 1.44-1.59-.72 5.16-1.23.07-1.48zm66.43 1.21c-6.35-.39-2.76 1.34-8.58 1.06 1.31-1.17 8-1.18 8.64-2.5 5.33.08.11 2.35 6.72 2.17 1.27 0 1.33-1.4.06-1.44 4.61-1 8.94 1 15.31.75 3.1.29-1 .39-3.43.36-2.29.23-3.2.76-3.47 1.43-5.25-.68-13.46.59-17.11 1.4-2.48-.31-5.37-.54-5.05-1.44 1.67 0 1.3.44 1.68.72 6.1-.67-1.75-1.83 6.86-1.07 1.45.07 1.62-.14 1.72-.35-1.1-.41-3.9-.42-3.35-1.13zm485.8-.48c2 1.17-5.53.27-3.47 1.44-3.61-.16-.3-1.74 3.47-1.48zm-777.25-.1c-.89-.29-1.76-.59-1.67-1.08 2.25.13 2.66.64 5.09.73-1.6.62-5.36.78-10.25.7.55-.55 4.27-.33 6.83-.39zm264.22-.56h3.41v.72H484c0-.28 0-.51.05-.76zm61.36.13c-1 .88-4.06 1.31-6.9 1.78 3.46.91 4.25 2.77 5 3.25-4.86.5-5.6-1-6.85.71-3.56-.34-4.93-1.67-5-3.61 9.54.34 1.5-2.07 13.75-2.17zm385.18.76c-.76.44-2.21.74-5.14.71.77-.48 2.21-.78 5.14-.75zm37.5.07h3.41c.45.58-1.64.62-1.75 1.08h-3.41c-.46-.62 1.66-.68 1.75-1.12zm-826.63-1.31c-1.51.52-1.42 1.39-6.87 1.06-.47-.95 3.6-.92 6.87-1.06zm185.77.36c-4.26.88 1.19 1.57 6.75 1.46-2.48 1.89-16.06-1.11-6.75-1.46zm124.42.25h5.11c.3.31-.68.34-1.72.36a32.59 32.59 0 005.09.73c-2.3.51-7.63.94-10.25.34.06-.35 2.1-.28 3.43-.36-.89-.28-1.76-.57-1.66-1.07zm-288.09.51c2.18.5 7.39.37 11.91.38-.9.29-1.79.58-1.74 1.08-9.51-.87-10.76.21-17.11 1.41-1.85-.1-1.12-.72-3.38-.73 3.01-.86 8.76-.34 10.32-2.14zm-35.83 1c-.65-.7 7.78-.51 5.09.37h-3.41c.34-.3-.64-.34-1.68-.36zm313.61.26c5.51.67 4.9.39 11.91.74-.42.52-5.1.12-5.15.71-1.97-.53-7.1-.42-6.76-1.44zm-252.26-.14c-.06.35-2.09.28-3.42.35 2.8.85 9.48.89 8.41 2.54a63.39 63.39 0 01-11.93 0c-.44-.63 4.88-1.79.09-2.16 1.15-.49 3.68-.68 6.85-.72zm308.49.61H501v.72h-3.42zm214.73.79c-1.46.53-5.5.51-8.54.7-1.71-1.2 5.32-.54 8.54-.69zm-581.21-.43c5.55.88-4.82 1.7 0 0zm68.06 2.65c6.41 1.29-12.18.27-8.62 2.14-4.52 0-9.73-.15-11.94.34-.33.78 6 .17 8.5.38-9.29.33-3.65 2.07-7 3.23-6-.06.21-.67-5.07-1.1-7 .2-8.13 1.64-15.41 1.77 9-3-16.7-2.45-20.41-1.12 1.67.6 7.87.27 8.47 1.1-5 .67-11.38-1.43-18.68-1.48.76-.56 5.38-.3 3.47-1.43 7.82.6 8.64-.28 13.69-1.05-2.9-.59-9.76-.36-8.44-1.82-7.76-.07-6.68-.31-13.64 0 .1-.61-1.22-.93-3.36-1.08 10 .55 10.16-2.14 20.51-1.41-.5-.84-8.07-.22-6.75-1.45 1.17.29 9.47.82 10.23 0-3.18 1 2.14 2.06 6.67 3.26-3.06-.06-3.61.43-6.83.34 1-1.29-5-1.1-10.18-1.1v.72a132.64 132.64 0 0037.54-1c2.88.52 5.81 2 3.3 2.53-3.93.11-1.84-1-5.06-1.09-5.77.14 4.47 1.41-3.46 1.08 1.05.73 7.95.25 8.47 1.09.71-.43 4.78-1.08 3.54-2.87 6.36.92 16.73.99 20.46.03zm.13-2.88c5.42.07 7.46.83 13.6.75-1.24 1.06-4.49 1.69-10.3 1.78 4.06-.24 5.35-2-1.63-1.81-2.32.11-1.46.9-1.77 1.44-4.73-.54-2.97-1.55.1-2.15zm293.09 2c0 .48-.05 1-.07 1.44-1.48-.72-7.47.15-3.43.36-.47.84-7.49.19-8.52 0 5.88-.18 5.88-1.63 12.02-1.77zm0 0c-2.81-.72.17-.46.06-1.44 2.31 1 6.18 1.36 11.89.75-.13 1.84-5.02.42-11.95.72zm-44.37.66c-4.41.5-8.23.86-10.24.35-.46-1.32 9.1-.47 12-1.06 2.94-.11-2.15-1.26 5.16-1.07-4.21 2.71 3.52 1.89 6.66 3.61-5.88-.33-11.17-.76-13.58-1.83zm264.25-1.27h3.42v.71h-3.41zM86.73 30.5c-.44.39-3.41.24-3.45.71-1.65 0-1.3-.44-1.66-.72 2.25-.43 2.68-.14 5.11.01zm313.62.26h8.51c-.84 1.15-7.67 1-10.3 1.78-4.62-.32 4.57-.64 1.79-1.78zm-179 1.44h-10.27c1.51-.99 9.92-1.53 10.22 0zm-136.36.09c-.82 1.61-3.62.53-8.57 1.07.77-1.61 3.58-.53 8.52-1.07zm39 4h3.41v.72h-3.41q-.05-.32.01-.68zm34 1.51c1.44 1.16-4.46.74-5.18 1.43-2.09-.16-3.48-.47-3.36-1.09a47.66 47.66 0 018.55-.3zM816.37 28a18 18 0 015.13-.35c1.16.23-6.76.96-5.13.35zm288.18-2.67h3.45v.72h-3.41zm-5.14.72c3.78-.19 2.39.69 5.08.73.51.62-6.62-.01-5.08-.78zm16.93 2.55c.77 1.14-5.27.8-3.51 2.15-1.2-1.53-5.64-1.32-10.16-1.46.43-1.14 8.51-.61 13.67-.71z"/>
        <path class="cls-1" d="M544.38 11.6c-.92-1.16.6-1.81 3.5-2.15-5.81-.1-9-.75-10.15-1.82 2.44-.46 8.17-1.47 1.79-1.8-3.4.73-6.24 1.57-10.32 2.14 5.33.43 4.17-.55 6.85-.7-3.63 1.32 3.69 1.3 1.55 3.24-2.67 0-5.91-.06-5.14.71 6.32.37 4.42.78 11.92.38zm-5-1.45h3.4v.72h-3.4zM382.51 10.2c6.55 1.2 5.44 2.09 8.36 3.62-5.25-1.3-15.08 1.82-15.31-.75-2.19.5-8.35.14-8.57 1.06-4.37-.5-.27-2.2.13-2.88 8.61 0 8.71 1.76 15.24 2.19 6.75-1.05-3.04-1.94.15-3.24zM291.46 26.22c-.41.68 1.88.8 1.64 1.45 4.1.15 3.73-.65 8.53-.35 0 .36 1.37.44 1.67.73-4.14.68-5.2 2-10.33 2.49-.22 1.12 5.31 1 3.3 2.53-5.31.19-8.55.83-10.31 1.78-2.83-.79 2.86-2.07 6.93-2.5-2.51-.2-4.27-.55-6.79-.74.39 2.42-10.08 1.75-15.44 2.13-.54.71 2.27.72 3.37 1.09-3.65.42-9.3.42-10.29 1.42 5.54-.44 1.25 1.17 6.78.73 0-2.41 7 .54 15.36-.33 2.37-.21.32-1.38 3.47-1.43 3.45.73 3.35-.15 6.84-.35 4.55 1.08.13 2.41 5 2.89 3.52-.49-3.84-1.72 5.18-1.43-.08 1.25 0 2.48-.16 3.6 5.2-1.89 10.33.15 20.48-.68.26.54-.67 1.33 1.64 1.45.59-2.3 9.74-2.75 12.15-4.66-7.71-.69-2.39 1.43-8.58 1.06-1.91-.71 1.53-1.79-5-2.17-3.58 1.33 2.4 1 1.59 2.53-5.68.28-8.9.31-17.07.68-.44-.82.47-1.35 3.48-1.43.67.46 2.16.74 5.08.73-3.81-1.43-10.79-1.27-10.1-2.9a34 34 0 01-5.22 1.46c-.71-.57-5.35-.32-3.35-1.45 4 0 5.05-.61 10.25-.33.74-1.06 4.52-1.46 6.91-2.15-5.29-.05-4.92 1.12-12 .69-2.18-.9 5.06-1.48.08-1.8-2 .53-1.55 1.61-6.88 1.43-.13-1.21-3.33-1.91 1.81-2.52 4 .54 3.14.77 8.51.38 2.25-1.42-4.92-.88-5-1.81 2.67 0 5.9.06 5.15-.71-3.83-.16-5.41-.78-8.49-1.1 1.61-.38 6.3-.09 5.17-1.07-8.74-.56-7.37 1.05-15.36.66zm-10.61 8.62c.27.79-1.44 1.14-5.17 1.07 1.84-.33.6-1.33 5.17-1.07zM895.82 4.74c5.53 0 9.21-.73 10.19.74-4.45.12-9.27.14-10.31 1.78-5.08 0-10.39 0-10.18-1.1 5.39.58 12.94.68 10.3-1.42zM721.92 5.47c-.06.72-4.67.45-3.48 1.44-6.62 0-15.68-.47-13.69 1.41-3.84-1.73-21.43 0-17-2.19 7.37 1.47 11.35-.62 17 .75 5.53-1.19 9.07-.66 17.17-1.41z"/>
        <path class="cls-1" d="M381 6.6c2.39.55 6.24 1.57 3.32 2.17 3.05.05 3.61-.44 6.83-.35.79.71-7.86 1.14-8.54.34a27 27 0 00-3.48 1.8c-3.14 1.07.42-2.2-6.76-1.46 4.41 0 3.49-1.43 3.48-1.43 2.35-.53 9.07.39 5.15-1.07zM411.61 7.38c-3.21 1.07-12.19-.48-13.65.33-3.85-1.09 13.13-.79 18.8-1 1.48.64 4.71.93 3.3 2.17-3.21-.05-1.13-1.19-5.06-1.09 1.5 1.38-6.26 1.42-1.89 4.31-2.7 0-6.49-.18-6.83.35-5.12-.44.33-1.57 5.16-1.07-.73-.44-2.15-.74-5.08-.73.29-.42 3.12-.3 5.13-.35-7.39-.86 1.97-1.23.12-2.92zM1142.77 9.19c2.74-1.63 7.24.31 13.63 0-2.76 1.03-7.64-.49-13.63 0zM125.15 9.69h10.22c-.65.61 1.31.69 3.39.73.9.8-3.28.51-3.46 1.07 2.52 1 11.7.64 17 1.84-3.58-1.67 2.64-.55 10.28-1.06-.12-.57.88-1.37-1.64-1.45 3.06-.44 9.72.59 13.61.39-.62 1-4.31 1.25-5.21 2.15 5.95 0 8.17 1.37 11.86 1.82a53.68 53.68 0 01-10.26.7c.75-.56 5.37-.29 3.47-1.43-4.56.36-10.58.75-8.47-1.1-2.55.42-7.64.3-6.89 1.43-5.44-.32-5.95-1.41-11.9-.74 2.17-1.16-5.49-.29-3.34-1.45-5.73.46-12.78.64-15.41 1.77-6.7-1.76-13-1.17-23.81-1.49-1.65 0-1.34.44-1.73.72-7 .27-4.85-1.25-5-1.81a13 13 0 00-3.39-.73c3.21-2.07 10.44-.55 17.13-1.76 2.2.48 2.19 1.34-1.77 1.43 4.48 1.33 16.33 1.14 18.63 2.92 1.74-.23 1.79-.82 5.13-.71.25-.65-2-.76-1.63-1.44-2.89-.14-3.23.27-3.44.71-4.95-.04-3.13-1.49-3.37-2.51zM142.26 8.29c4.93.21-2.65.55-1.75 1.07-5.63-.36 1.93-.71 1.75-1.07zM363.78 9.81c2.74-1.7 8.46-.47 0 0zM280.15 12.16h3.41c-.32.3.65.34 1.69.36-4.41 1.92-17.06.62-18.86 2.48-5.33.16-5.42-.78-5-1.81 3-.19 7.09-.17 8.55-.7 2.31.12 1.38.9 1.65 1.44 2.52-.65 8.79-.51 8.56-1.77zM495 10.43c1.13-.5 12.66 1.14 6.73 2.17-4.08-.35-4.35-1.48-6.73-2.17z"/>
        <path class="cls-1" d="M150.67 10.82c2.13-.49 5-.19 8.5.38-.29.79-4.33.76-8.55.7 1.2-.28 2.69-.98.05-1.08zM106.17 14.7c5.21.36-2 1-1.76 1.43-4.02-.13 1.99-.96 1.76-1.43zM827 20.08c-2.22.5-7.42.35-12 .34 2.57-1.17 14.06-1.5 13.62.39-1.62-.02-1.3-.44-1.62-.73zM837.16 20.47c-1.12.36-3.93.36-3.46 1.07-4.24-.16-.04-1.4 3.46-1.07zM102.56 19.37c-2.74 1.69-8.46.46 0 0zM112.73 20.83c-3.11.67-10.15.48-8.63 2.14-3.06 0-3.57-.45-6.79-.37 3.08-.94 10.3-2.42 15.42-1.77zM1114.81 24.62c5.37-.05.63 2 8.45 1.45-4.41-1.17-2.53-1.57 6.89-1.42-2.19 1.09-1.37 1.39 1.61 2.16 3.73 0 3.7-.9 3.49-1.79 3.66-.27 9.55-.86 12-.34-9.24.77-3 3.16-18.89 2.84.17-.51.34-1-1.65-1.08-2.59.53-2.66 1.61-8.58 1.42 7.3-1.51-5.13-1-3.32-3.24zM600.08 24c11-.32-8.92.27 0 0zM600 24.67c3.73.42 5.61 1.22 10.16 1.46-7.61-.02-11.49.74-10.16-1.46zM683.35 29.52c2.16 1.56-8.14.43-6.89 1.79-9.33-.28-8.29-.74-17-.76-2-1.58-1.59-3.38 8.68-3.22-3.91.13-2.34 1.44-5.2 1.79 4.72 1.88 13.77 1.27 20.41.4zM260.63 29.4C259.39 31 277 31.05 279.22 33c-4.91-.58-20-2.09-18.72-.76-1.75.91-7.51-.3-6.77-1.09 2.43 0 4.83.07 5.13-.35-1.64-.49-5.72-.48-6.76-1.09.37 1.71-6 .26-10.29 1.42-3.52-1.88 10.55-.86 13.75-2.5 2.3-.01 2.11 2.13 5.07.77zM901.46 31c.45-.92 2.91.5 6.82 0-1.59 1.25-3.83.35-6.82 0zM601.3 34.76v-1.08h10.23c.88-1.13-5.19-.83-3.31-2.17 3.38 0 2.12 1 6.79.73.1-.61-1.23-.93-3.37-1.08.53-1.26 6.31.92 6.84-.35 3.28.15.08 1.65 6.77 1.1 1.47 1.16-5.58.49-6.86 1.06.31.29 1.69.37 1.67.72 1.74-.22 1.8-.82 5.14-.7.23 1.26-6 1.12-8.6 1.78.22.66 5.76.23 6.78.73-6.05.91-11.31-1.42-22.08-.74zM282.68 32c-.72-.57-5.35-.32-3.35-1.45 5.08-.07 6 1.3 3.34 1.81-1.94-.11-.94-.36.01-.36zM707 33.53c6.13.21 10.94-1.74 11.92.38A42.17 42.17 0 00707 35c-4.42-.13 2.34-.65 0-1.47zM819.53 33.75c4.17-.9-2.95 1.25 3.35 1.09 3.49-.22.56-1.82 6.88-1.43 4.13.86-2.57.67-1.78 1.8-7.55.16-8.46-.51-13.64 0 .54-.76 4.66-.73 5.19-1.46zM434.27 34.43c2.63.52 3.3 1.45 10.18 1.1-.24.64 2.05.76 1.64 1.44-4.85-.66-11.09-1.04-11.82-2.54zM628.56 35.17c1.13-.61 3.93-.22 3.38.37 1.39-.31 4.68-.21 5.15-.71 3.23.05 1.13 1.19 5.07 1.09-4.57 1.15-10.92-.33-13.6-.75zM645.6 35.21c1.72-1.1 4.53.42 6.8.37-.51.85-4.53-.42-6.8-.37zM389.81 37.58c5.19.58-7.57 1.23-5.1-.37-5.48.29-3.54.3-6.79-.37-4.08-.16.87 1.64-5.16 1.07 1.22 1.17 13.24.1 11.85 1.82-6.6.25-13.71-.61-20.49.68-2.88-.24-1-.83 1.73-.72-5.36-1.78 7.21-1.1 1.85-2.88A69 69 0 00378 35c4.06.82 10.36 1.18 10.09 2.9 1.45.1 1.61-.1 1.72-.32zM178.54 35.72c-2.43 1.56-7.88.22-10.31 1.78-5.71-1.14 6.59-1.5 10.31-1.78zM488.68 37.42c-7.32 1.26-3.65-.86-13.63 0 .58-1.5 16-.67 15.33.39-.94.52-1.79-.01-1.7-.39zM287.52 38.1c-7.27.1-10.23 2.15-15.37.69-1.31 1.1 4.65.7 3.32 1.8-6.42.27-8.13-.45-13.61-.39 1.11-1.9 7.85-.43 8.62-2.14h11.93c.58-1-9.57.31-6.78-1.1 5.64.67 14.34-.63 18.73.76-3.61.87-2.47.76-1.8 2.15-5.42-1.42-7.51.33-5.04-1.77zM130.58 41c-6-.22-8.21.06-18.76.32-1.84-1.49 1.77-1.62-5-1.81 0-.48 0-1 .07-1.44h8.51c0 .71-.06 1.43-.1 2.15 2.36 1.39 14.91-1.22 15.28.78zM219.23 40.48c-2.37-.44-.14-.14 1.71 0-7 .68-8 2.64-18.86 2.49-.46-.95 6.63-.27 5.18-1.43-2.68-1.2-6.38 0-10.19-.74 2.86-.34 6-1.32-1.67-1.09-.44-.94.7-1.54 5.18-1.42-2.91 1 6.76 1.75 8.4 2.89 4.59-1.56 4.59.04 10.25-.7zM798.63 5.27c1.68.72 7.51.58 6.74 1.81h-5.11c1.48.64 7.53.61 3.34 1.45-2.61-1-10.41-.94-11.83-2.19-5.9-.3-6.58.53-11.95.34.7.81 8.39.16 11.91.38.39 1.18-2.1 1.73-6.89 1.79-3.92-2.08-4 1.23-8.49-.74-7.83.14-7.06 2.12-15.44 2.13.83-.76-2.4-.69-5.08-.73 3.22-.63-1.34-.91.09-2.16 6.15.78 19.73.51 22.2-.67-1.48-1.41-6.34 1.18-6.82 0 .63-1.33 16.56-1.26 10.35-2.86 1.76-.57 8.93.75 13.61.75.73-.86-3.08-.79-1.64-1.8 4.06.71 5.11 2.27 11.88 1.46-1.34 1.23 6.91.47 5 1.81-4.29.82-5.64-.95-11.87-.77zM46.76 9.18c.55 1.93-2.68 3.05-7 3.94-1.87-.84.41-1-3.33-1.8-3.88-.11-6.41.07-6.84.7 6.21-.21 6.66.76 6.73 1.82 8-.48 26.68 1.55 32.41-.66 5.17.37 2.16.6 0 1.08 3.23.68 3.1-.21 8.53 0 .29-.43-.25-1 1.75-1.08 5.89 0 10.83 2.33 15.32.39-2-.54-6.41-.57-8.46-1.09 3.88.1 6.4-.08 6.85-.71-2.91-.16.37-.47 0-1.08-4.66.25-3.4-.72-6.78-.74 1.32 1.38-3.7 1.39-6.9 1.79C73 9.33 61.56 12.76 56.91 11c8.78 1 .21-1.95 6.93-2.51A44.85 44.85 0 0057 8.12c-2.48 1.25-6.16 3.01-10.24 1.06zm1.64 1.44c3.73-.06 5.42.31 5.08 1.09-3.73.06-5.42-.31-5.08-1.09zM150.9 43.94c2.83 2.61 14.25-.62 20.4 1.13 3.8-.52-2.1-.89 1.75-1.08 2.26 0 1.54.63 3.39.73 4.8-1 7.61-1.09 13.67-1.06v-1.08c-8 .85-2.61-.5-3.37-.72-2.18-.64-9.34-.58-10.17-1.46-1.28 1.1 2.9 1.06 1.61 2.16-2.17 0-2.38.46-5.13.35.65-1.93-.7-2.63 3.56-3.24-2.43-.09-2.85-.59-5.08-.72-.22.43-.55.85-3.45.71 5.43 1.23-2.37 1.28 3.32 2.17-6.27-.43-11.75.33-11.9-.75-6.93-.16-5.32 1.52-10.31 1.78 3.55-.7-1.13-1-5.06-1.09-3.79.51 2.11.88-1.76 1.08-7.7.29-8.47-.86-13.58-1.11-5.8.6 1.06 1.66-3.52 2.52-3.92-1.62-24.18.47-27.24-.78-6.85.66-9.28.86-15.39 1.05 1.32.08 3.36 0 3.4.37-1.46 1 2.35.93 1.62 1.8 5.58-.36 3.65-.91 8.53 0 2.93-1.34-.35-.71-3.35-1.45 11.65-.39 19 2 28.94.78-3.33-.34 9.14-1 8.52 0a10.6 10.6 0 003.49-1.79c5.91.82 14.13.98 17.11-.3zm13.72-1.77c1.84.09 1.12.72 3.37.73-.77.99-5.36.01-3.37-.73zm15.32.39c5.63.37-1.94.71-1.76 1.08-4.93-.21 2.65-.56 1.76-1.08zm-44.35.64c1.23.57 8.35-.07 6.77 1.09-3.25-.16-7.36-.15-6.77-1.09zM115 46c-3.39 0-2.13-1-6.78-.73 1.55-1.27 7.57-.36 6.78.73z"/>
      </g>
    </g>
  </g>
</svg>
