<svg xmlns="http://www.w3.org/2000/svg" viewBox="0 0 643.99 6.78">
  <defs/>
  <g id="Layer_2" data-name="Layer 2">
    <g id="Assets">
      <g id="Line_04" data-name="Line 04">
        <path class="cls-1" d="M132.72.48a15.65 15.65 0 01-5.75.57 25.35 25.35 0 015.75-.57zM222.22 0c.65.62-2.83.66-4.1.38a13.12 13.12 0 014.1-.38zM135.24.83c-.3-.32 4.61-.35 3.34.16a21.83 21.83 0 01-3.34-.16zM134.41.83c.9.54-1.8.33-3.27.38a11 11 0 013.27-.38zM143.57 1.14c2.44-.68 2.86.54 0 0zM257.5 4c2.55.21-.83.63.12 1.08-2.32.16-2.17-.24-4.16-.15 1.54-.32 2.73-.66 4.04-.93zM501.59 6.43c1.22-.09-.35-.23-.06-.54 1.09.05 1.34.3 2.53.34-.27.24-1.43.29-1.6.55a15.85 15.85 0 00-2.46-.17c.22-.2 1.36-.46 1.59-.18zM534.72 6.07a19.81 19.81 0 003.33.16c.3.32-4.61.35-3.33-.16z"/>
        <path class="cls-1" d="M344.33 1.87c2.1-.11 3.19-.33 3.36.34-6.24-.14-8.83.71-13.26.07h5c-.76-1.11-7 0-9.09.23-2.14-.38-3.31-.12-5-.33-.8-.57 2.1-.39 2.4-.73-4.05-.49-11.77.46-15-.46-2.19 0-.57.7-3.25.55s-2.66-.74-4.27-1C299.3.6 293.05.3 286.1.2c-1.81.27 1.09.43-.77.54-3.78.21-8.55-1.09-12.43.07.93-.27.91-.46-.08-.72-16.38.55-27.94-.67-40.57.58l-.06-.54c-2.55-.12-3 .2-4.95.21.2.51 3.47.8-.73.9-2.35 0 .87-1.18-2.59-.89-.75.71-5.85 1.24-9.82 1.14 1.06-.31 2.12-.62 1.51-1.27-7.82-.21-20.71 0-28.2 0-1.41.11.17.85-1.55.91 0-.32-.25-.56-.91-.72-7 .88-16.57-.68-20.62 1 2.26.47 3.94-.08 5.78-.21-2.2.78 8.45 0 9.2.67-5.9 1-18.14-.8-24 .13-3.83-1-13.72-.14-19.91-.07-.12 0 .1-.35 0-.36-9.84-.57-17.99.63-27.4.13-1.31 0-.6.46-2.45.37-3-.72-9-.08-14.13-.29-1.34-.05-2.07-.33-3.36-.34-7.4 0-16.3.71-23.16.49-1.3-.05-2.11-.34-3.36-.34-3.73 0-7.55.14-10.75.23-.05-.31-.38-.3-1.7-.35-6.79-.24-13.82-.15-22.39-.06-.3.31 1.28.46.06.54a43.84 43.84 0 00-8.39-.85c-2.55.53-5.86.34-8.23.58-.15-.21.09-.51-.89-.54-2.25.31-6.11.27-9.09.41-1 1.1 3.49.93 3.51 1.79 14.66.43 30.89.77 44.07 1 1.09 0 .72-.32 1.62-.37 2 0 1.61.62 4.21.52 2.54.12 2.4-.33 5-.21 1.25.56 5.95.18 8.31.14a2.2 2.2 0 000 .36c6.87.1 18.42.27 23.22 0a13.64 13.64 0 003.26-.55c1.25.36 2.82.77 4.16.15 0 .25.43.4.89.54 4.41-.24 6.19 0 11.6-.06-.15-.45-1.64-.56.75-.73 2.11 0 3.24.25 3.4.7 13.09 0 23.6.44 37.31 0 1.5.79 6.13.11 9.14.13 1.47 0 3.23.33 5 .34.92 0 2.27-.36 3.27-.38 2 0 4.72.1 6.66.14 8.73.19 15.43.49 21.6.43 1.3-.46 5.38-.11 8.23-.59 2.89.73 14.3.3 17.4-.09A49 49 0 00234.4 5c-3.17 0-.32-.15-.89-.54 7 .1 12.07-.18 18.31.62 1-.45-3.34-.54-.91-.71 4.76.72 3.44-1.1 9-.77.66.55-.78.66-.71 1.08 3.06.15 4.78.8 8.33.32-.11-.42-3.65-1-1-1.43 2.87.38 2.13 1.6 6 1.76 1.3-.31.28-1.11 2.35-1.27a15.74 15.74 0 013.43 1.06h5c.1-.22-.2-.51.76-.55.4.57 5.42.63 5.83.15 2.48.36 6 .49 9.2.67 1.41-.12-.17-.85 1.55-.91-.17.79 3.27.23 5 .34.18 0-.12.32 0 .35 1.93.39 6.37 0 7.46 0 3.66.72 12.06.11 16.58-.08 1.42-.5-3.69-.33-.89-.54 1.84.13 3.35.34 3.41.88 6.2 0 14.13.69 19.07-.1 1.48.75 8.05.21 9.94 0 6.89 1.25 13.89.47 24.1.41-1.06-1.28 3.66-.8 4.83-1.29-.33.69 3.88.35 2.62 1.25 5.14 1.09 11-.21 16.64.45 1.18-.73 2.81-.28 5.74-.57 7.62.82 14.57.67 24.16 1a6.17 6.17 0 012.43-.55c.15.21-.09.51.88.53.76-.51 2.25.25 3.3-.2 2.73-.39-3.27-.66-.93-.89 3.68.29 9.09 1.43 13.32.47a8.46 8.46 0 003.41.88c5.22-1.26 11-.42 17.29-1.17-.93.27-.91.45.08.72 3.11-.16 4 .19 6.65.14 1.29-.14 1.17-.58 3.25-.56 2.24.12 5.39 1 6.71.69-1 .06-2.91-.51-.89-.54-.51.49 1.76.34 2.55.53 2.08-.45 2.92-1.16 4.79-1.65 4.11 0 3.9 1.94 6.81 1.58-.2-.14 7.42.19 10.8.13-.37-.84 5.92-1.08.66-1.45 4.34 0 9-1.1 10.78 0-3.39 0-.4.37-.75.72-1.3 0-2.87 0-2.44.37 4.81-.52 9.46-.36 17.36-.45.7-.78-2.4-.68-2.63-1.25 3.37 0 4 .57 8.33.32-.18-1 3.12-.21 5.74-.57-.52.56 6.94.7 10.88.84.75-.34-2.55-.59-.09-.72a16.32 16.32 0 012.57.71c3.43-.68 5.28.15 9.1-.23.75-.34-2.55-.59-.09-.72 5.1.68 13.94 1.86 20 1.15-.16.23-1.25.37.87.36 2.29-.06 1.81-.68 3.21-.92 2.35.47-.93.39-.73.9 7.91.27 13.12.05 20 .44 0-.5-1.43-.36-.09-.72 3.47.18 3.19-.4 5.77-.4-.25.55 2.74.36 4.2.52-.29-.47.22-.77 2.4-.73 1 .26 1 .45.08.72 2.59.05 3.92-.44 5.81 0 .66-.58-2.19-.36-2.57-.71 3 .16.6-.81 3.23-.74-1.67.37.63.48 2.55.53-.07-.85-2.84-1.08-5.13-1.41 1.65-.33 1.63.12 3.29-.2-.16-.52.32-1.18-1-1.44h-5c-.1.21.21.51-.76.55a93.94 93.94 0 01-10.74.41c-5.12 0-11.5.23-17.4.1-2.18 0-13.06-.81-16.66-.63-.44 0-.65.39-1.61.36a14.4 14.4 0 00-2.53-.34c-1 0-1.15.18-2.46.19-3.49 0-8-.25-11.65-.3a40.59 40.59 0 00-5.76.4c-3.75 0-7.39-.45-10.84-.49-4.89 0-9.44.44-14 .44-1.28 0-3.07-.31-4.18-.34-6.68-.17-14 .37-21.55.12-.07.22-.2.42-1.61.36-4.65-.28-7.83-.53-9.93.24 1.92-1.09-12.56-1.18-13.3-.29-1.82-.68-6.06 0-9.2-.67-3.84.81-11.25 0-15.7.44.2-.73-1.8-.1-3.34-.16a16.45 16.45 0 00-2.53-.35c-12.71-.18-26.77.64-38.06.75 0-.24-.05-.48-.08-.72-5.15.31-11.84-.59-14 .79-1.24-.57-4-.82-6.75-1-2.17.87-5.21.64-11.52.78-.42-.64-2.74-.85-5.91-.87.18.45-.34.75-1.55.91-2.58-.29-7.35-1.14-10-.3 1.41.06-.16.23.05.54 1.44.06 2.1-.28 2.49 0a21.16 21.16 0 01-3.29.2c.21-.42-.22-.69-.94-.89-3 .36-4.64-.51-4.94.2-1.9-.22-2.52-.85-4.17-.16l-.06-.54c-4.16-.21-3.47.58-6.57.58l-.02-.83a106.49 106.49 0 00-10.67.78zm-88.51 1.91c-1.48 0-1.77-.21-3.33-.16.04-.51 3.51-.36 3.33.16zm-74.1-2.66c1.4-.07 1.57.13 1.69.35 2 .06 1.77-.34 4.13-.2.09.54-2.86.46-4.91.56.06-.32-1.06-.37-.91-.71zm11.6-.06c-.11.21.22.32.87.35a12 12 0 01-4.13.21 6.52 6.52 0 013.26-.56zm11.6-.06c.75.1 1.51.21 1.66 0 1 0 .73.32.89.53-1.42.05-2.18-.29-2.49 0-.81 0-.67-.22-.87-.36.71.04.78-.07.81-.17zm15 .46h1.66c-.43.14-.83.29-.77.54-1.75-.1-1.81-.28-.91-.54zm-15.73.26c1.36.17 2 .47.92.71-1.11-.05-.76-.43-.94-.71zm64.67-.17c.23-.24 2.06-.16 3.29-.2-.25.25-2.08.16-3.31.2zm-39.78.22c-.17.31-1.38.41-3.28.37a10.74 10.74 0 013.26-.37zm-30.6.7c3 .2 3.74.23 5.84.33a12.93 12.93 0 01-4.11.38c-.07-.36-2.3-.18-1.75-.71zm160.8-.68c2.35.3.82.47.95 1.07a11.16 11.16 0 01-3.36-.34c-1.31-.68 3.68-.06 2.39-.73zm-53 .82c3.43-.67 5.5.14 10 .31 0 .46-2.74.37-4.93.38-.35-.83-3.11-.58-5.08-.69zM414 1.67c1.79.43 3.67-.18 5 .16-.8.44-5 .51-5-.16zM158.75 3.4c.23-.24 2.06-.16 3.3-.19-.87.57.29.47-.72.9-2.44-.14-1-.27-.92-.72zm101.94-.54c.61.35 4.93-.14 4.21.51-2.19.01-5.17.2-4.21-.51zm42.29 0a23.82 23.82 0 012.51.17c-.09.33-2.8.12-3.28.37-2.84-.22 2.31-.11.79-.59zm160.8-.68c.4-.53 1.33.27 2.51.16-.74.55-1.66-.24-2.51-.21zM359.42 3.23c.29-.45 3.21 0 2.53.34-1.1-.05-1.34-.31-2.53-.34zm120.17-.65c3-.06 4.36.24 4.24.88-3.49.18-5.5-.54-4.24-.88zM365.37 4.46c-2.66.23-.71-.58-3.36-.35.34-.61 4.29-.37 3.36.35zM505.34 3c2.57.17-.87.5-1.59.55-2.59-.18 2.36-.2 1.59-.55zm-178.1 1.66c-.16.32-1.38.42-3.28.38-.89-.54 1.82-.33 3.28-.38zm98.64-.35c1.38.3 5.21 0 5.06.69-2.32-.08-5.6.05-5.06-.69zm-30.64.34c1.24.09 2.12.26 3.35.35-.28.4-4.82.26-3.35-.35zm217.21-.44a13.19 13.19 0 01-4 .92c-2.81-.47 2.43-.77 4-.92zm-22.33.48c.4-.52 1.33.27 2.51.17-.11.21-1.49.16-2.47.19-.17-.15.31-.17.81-.18.13-.16-.34-.17-.85-.18zm-78.65 1.14c-.19-.39 2.93-.1 4.12-.2.54.73-3.51.63-4.12.2z"/>
        <path class="cls-1" d="M142.66.43c1.24.07-.3.23.06.54h-2.48c-.48-.76 2.2-.23 2.42-.54z"/>
      </g>
    </g>
  </g>
</svg>
