<svg xmlns="http://www.w3.org/2000/svg" width="59" height="23"><g fill="none" fill-rule="evenodd"><rect width="59" height="23" fill="#FEE259" rx="2"/><path fill="#484848" d="M16.42 7h3.836c.952 0 1.678.226 2.177.679.5.453.749 1.057.749 1.813 0 .327-.047.611-.14.854a2.286 2.286 0 01-.357.63 2.08 2.08 0 01-.49.441 2.79 2.79 0 01-.539.273c.233.037.467.105.7.203.233.098.441.238.623.42s.331.408.448.679c.117.27.175.588.175.952 0 .42-.077.805-.231 1.155a2.62 2.62 0 01-.651.903c-.28.252-.614.448-1.001.588-.387.14-.814.21-1.281.21H16.42V7zm1.624 1.33v2.8h1.652c.597 0 1.048-.117 1.351-.35.303-.233.455-.607.455-1.12 0-.467-.133-.805-.399-1.015-.266-.21-.693-.315-1.281-.315h-1.778zm0 7.14h1.82c.401 0 .733-.037.994-.112.261-.075.471-.18.63-.315.159-.135.27-.296.336-.483.065-.187.098-.392.098-.616 0-.57-.187-.964-.56-1.183-.373-.22-.882-.329-1.526-.329h-1.792v3.038zm12.866-.126a3.057 3.057 0 01-1.085 1.197c-.462.294-1.043.441-1.743.441a3.54 3.54 0 01-1.365-.252 2.9 2.9 0 01-1.036-.714 3.198 3.198 0 01-.658-1.106 4.25 4.25 0 01-.231-1.442c0-.523.077-.999.231-1.428a2.974 2.974 0 011.68-1.806 3.36 3.36 0 011.323-.252c.532 0 .994.093 1.386.28.392.187.716.436.973.749s.448.677.574 1.092c.126.415.189.847.189 1.295v.448h-4.732c.01.252.047.495.112.728.065.233.163.441.294.623.13.182.299.327.504.434.205.107.453.161.742.161.41 0 .726-.093.945-.28.22-.187.394-.425.525-.714l1.372.546zm-2.898-4.2c-.476 0-.845.154-1.106.462-.261.308-.415.705-.462 1.19h3.108c-.019-.532-.168-.94-.448-1.225-.28-.285-.644-.427-1.092-.427zm8.288 5.558a2.585 2.585 0 01-.609.203 3.544 3.544 0 01-.749.077c-.616 0-1.101-.161-1.456-.483-.355-.322-.532-.791-.532-1.407V11.34h-1.12v-1.176h1.12v-1.89l1.582-.728v2.618h1.498v1.176h-1.498v3.556c0 .29.058.492.175.609a.616.616 0 00.455.175c.14 0 .266-.023.378-.07.112-.047.22-.098.322-.154l.434 1.246zm.854-3.22c0-.541.077-1.027.231-1.456.154-.43.364-.796.63-1.099.266-.303.579-.537.938-.7.36-.163.749-.245 1.169-.245.504 0 .931.107 1.281.322.35.215.609.485.777.812v-.952h1.526V16.8H42.18v-.98a2.666 2.666 0 01-.77.805c-.336.238-.784.357-1.344.357-.41 0-.793-.082-1.148-.245a2.698 2.698 0 01-.924-.7 3.348 3.348 0 01-.616-1.099 4.416 4.416 0 01-.224-1.456zm3.29-2.24c-.252 0-.48.056-.686.168a1.57 1.57 0 00-.525.469c-.145.2-.254.439-.329.714a3.386 3.386 0 00-.112.889c0 .317.037.614.112.889.075.275.182.513.322.714.14.2.308.357.504.469.196.112.42.168.672.168.187 0 .383-.035.588-.105.205-.07.392-.182.56-.336.168-.154.306-.355.413-.602.107-.247.161-.544.161-.889v-.616c0-.355-.054-.653-.161-.896a1.812 1.812 0 00-.406-.595 1.534 1.534 0 00-.539-.336 1.7 1.7 0 00-.574-.105z"/></g></svg>