<svg width="52" height="52" viewBox="0 0 52 52" fill="none" xmlns="http://www.w3.org/2000/svg">
<path d="M25.9892 49.6654C39.611 49.6654 50.6536 38.8939 50.6536 25.6067C50.6536 12.3194 39.611 1.54794 25.9892 1.54794C12.3674 1.54794 1.32471 12.3194 1.32471 25.6067C1.32471 38.8939 12.3674 49.6654 25.9892 49.6654Z" fill="white"/>
<path d="M28.6882 44.0875C38.807 44.0875 47.0098 35.8146 47.0098 25.6094C47.0098 15.4042 38.807 7.13132 28.6882 7.13132C18.5694 7.13132 10.3666 15.4042 10.3666 25.6094C10.3666 35.8146 18.5694 44.0875 28.6882 44.0875Z" fill="#F4B539"/>
<path d="M40.321 23.5036L42.3134 18.9377C41.8055 17.7076 41.6015 17.2961 41.1935 16.5782L39.1925 16.565L35.5073 11.7233H29.157L25.181 10.0598L18.4445 16.854L18.2969 21.595L22.173 25.7012L29.6866 23.6962V28.6824L32.6903 33.5766V35.8792L35.3554 36.5928C35.6723 36.4089 35.9848 36.2163 36.2886 36.0106L39.8175 31.1776L40.3167 23.5036H40.321Z" fill="#27382B"/>
<path d="M15.9572 34.5572L14.3382 32.6179L10.8657 31.3003L9.16855 29.466L6.98523 27.4873C7.51044 32.7318 10.2103 37.3283 14.1646 40.3445L15.5101 37.4246L15.9572 34.5572Z" fill="#27382B"/>
<path d="M15.597 11.3908H18.8568L20.0244 8.87369V7.88434C18.4748 8.34399 17.012 9.00502 15.6664 9.83677L15.4451 11.0319L15.597 11.3908Z" fill="#27382B"/>
<path d="M28.1673 8.87802L26.7045 8.21262L26.3138 8.26953L27.9459 9.72291L28.2584 9.39896L29.8167 9.18008L29.7863 8.66351L30.4765 9.04875L30.7456 8.96995L29.3696 7.61288C28.7142 7.45966 28.0414 7.34146 27.3599 7.26266L28.4885 8.45776L28.176 8.8824L28.1673 8.87802Z" fill="#27382B"/>
<path d="M16.5867 32.8982L16.6214 36.1814L19.1303 37.3327L20.1112 37.324C19.6381 35.7699 18.9697 34.299 18.1319 32.9507L16.9469 32.7406L16.591 32.8982H16.5867Z" fill="#27382B"/>
<path d="M19.217 37.8406L16.2089 39.1057L16.0874 41.8812L16.465 42.7961C17.7195 41.7717 18.8176 40.5941 19.7422 39.3027L19.4904 38.112L19.2126 37.8406H19.217Z" fill="#27382B"/>
<path d="M38.8105 34.6231L40.4817 32.7932L40.9418 32.7013L40.1735 34.7019L38.8105 34.6231Z" fill="#27382B"/>
<path d="M25.2158 44.0875C35.3345 44.0875 43.5374 35.8146 43.5374 25.6094C43.5374 15.4042 35.3345 7.13132 25.2158 7.13132C15.097 7.13132 6.89417 15.4042 6.89417 25.6094C6.89417 35.8146 15.097 44.0875 25.2158 44.0875Z" stroke="#27372A" stroke-width="2.03791"/>
</svg>
