<svg width="34" height="36" viewBox="0 0 34 36" fill="none" xmlns="http://www.w3.org/2000/svg">
<path d="M16.8445 21.239L28.7624 17.9217V31.7843L16.8445 35.362V21.239Z" fill="#DC9E26"/>
<path d="M28.5146 18.252V31.5964L17.0924 35.0264V21.4317L28.5146 18.252ZM29.0102 17.5935L28.3832 17.7688L16.961 20.9484L16.5967 21.0486V35.6974L17.2336 35.5071L28.6559 32.0771L29.0102 31.9694V17.5935Z" fill="#EDF4F1"/>
<path d="M16.7058 21.2162L28.8615 17.8338L32.906 21.6268L20.9386 26.7217L16.7058 21.2162Z" fill="#F4B539"/>
<path d="M28.7626 18.2525L32.2322 21.5072L21.0578 26.2641L17.3404 21.4321L28.7626 18.2525ZM28.9634 17.4163L28.5643 17.5264L17.1421 20.706L16.0715 21.004L16.753 21.8903L20.4704 26.7223L20.8199 27.1779L21.3452 26.9551L32.5196 22.1982L33.5803 21.7475L32.7377 20.9564L29.2682 17.7017L28.9634 17.4163Z" fill="#EDF4F1"/>
<path d="M8.5 32.8135L4.72363 31.7293V17.9217L16.639 21.239V35.3019L8.5 32.8135Z" fill="#F8CD69"/>
<path d="M4.9715 18.252L16.3937 21.4317V35.0264L9 32.8135L4.9715 31.5964V18.252ZM4.47583 17.5935V31.8643L4.69639 32.012L9 33.3135L16.6307 35.5797H16.8918V21.0486L16.5275 20.9484L5.10529 17.7688L4.47831 17.5935H4.47583Z" fill="#EDF4F1"/>
<path d="M0.614502 22.5111L4.31452 17.8242L16.5099 21.2167L12.2845 26.7071L0.614502 22.5111Z" fill="#F8CD69"/>
<path d="M4.4534 18.252L15.8756 21.4316L12.1583 26.2636L1.23169 22.3329L4.4534 18.252ZM4.17583 17.3958L3.87101 17.7838L0.6493 21.8648L0 22.6884L0.981382 23.0415L11.9079 26.9722L12.4135 27.1549L12.7431 26.7268L16.4605 21.8948L17.142 21.0085L16.0714 20.7106L4.64918 17.531L4.17583 17.3983V17.3958Z" fill="#EDF4F1"/>
<path d="M3.95776 17.6259L16.7901 13.9856L29.6199 17.6259L16.7901 21.2662L3.95776 17.6259Z" fill="#F4B539"/>
<path d="M16.7898 14.2456L28.7027 17.6255L16.7898 21.0055L4.87687 17.6255L16.7898 14.2456ZM16.7898 13.7249L16.6559 13.7624L4.74304 17.1424L3.04297 17.6255L4.74304 18.1087L16.6559 21.4887L16.7898 21.5262L16.9236 21.4887L28.8365 18.1087L30.5366 17.6255L28.8365 17.1424L16.9236 13.7624L16.7898 13.7249Z" fill="#EDF4F1"/>
<path d="M17.2711 9.54645C17.2711 9.54645 20.026 4.92216 23.5352 7.65042C27.0445 10.3756 16.8698 19.8223 16.8698 19.8223C16.8698 19.8223 7.7905 11.0889 10.9859 7.69612C14.1813 4.30336 17.2711 9.54343 17.2711 9.54343V9.54645Z" fill="#276A43"/>
<path d="M25.9065 6.90332L28.3717 4.41284" stroke="#ffffff" stroke-width="1.01165" stroke-linejoin="round"/>
<path d="M22.2136 4.33654L23.3029 0.989502" stroke="#ffffff" stroke-width="1.01165" stroke-linejoin="round"/>
<path d="M8.15253 7.82881L5.17041 5.98462" stroke="#ffffff" stroke-width="1.01165" stroke-linejoin="round"/>
<path d="M11.4947 4.38376L9.65161 1.38428" stroke="#ffffff" stroke-width="1.01165" stroke-linejoin="round"/>
<path d="M16.9463 3.5226L16.9333 0" stroke="#ffffff" stroke-width="1.01165" stroke-linejoin="round"/>
</svg>
