<svg width="56" height="69" viewBox="0 0 56 69" fill="none" xmlns="http://www.w3.org/2000/svg">
<g clip-path="url(#clip0_1510_1067)">
<path d="M24.527 6.3776C24.527 6.3776 22.5406 0.905273 15.917 0.905273C9.29335 0.905273 7.91433 7.85262 7.91433 7.85262C7.91433 7.85262 0.0117188 7.24048 0.0117188 18.163V46.5424C0.0117188 49.4777 1.01919 53.6741 2.85551 55.9161C3.93444 57.2363 5.87079 58.1803 7.85716 58.8662C7.85716 58.8662 7.85716 68.889 15.1953 68.889C15.1953 68.889 27.8352 69.5748 27.8352 62.0522C27.8352 62.0522 27.8352 68.889 39.096 68.889C39.096 68.889 48.5777 69.1913 47.0487 59.2054C47.0487 59.2054 55.0013 57.8411 55.0013 48.9467V27.7433C55.0013 27.7433 55.6658 19.5348 46.3842 19.5348C46.3842 19.5348 46.3842 11.3263 38.4315 11.3263C38.4315 11.3263 31.1434 11.3263 31.1434 16.1127C31.1434 16.1127 31.8079 6.3776 24.5198 6.3776H24.527Z" fill="white"/>
<path d="M17.9067 55.8244C17.9067 55.8244 28.5526 56.224 29.0074 46.0344L31.0117 43.9846C31.0117 43.9846 29.1076 39.4633 28.1363 33.9504C27.1573 28.445 30.449 28.7409 26.3864 23.2651L21.1753 26.2546C21.1753 26.2546 24.0738 22.5251 18.6776 12.9053C18.6776 12.9053 10.7452 19.1359 14.8232 28.445C14.8232 28.445 13.2814 24.745 8.65615 25.485C8.65615 25.485 6.45143 31.7305 10.1979 34.3648C10.1979 34.3648 6.3435 39.5447 9.53495 43.5702C9.53495 43.5702 4.95591 57.0676 17.9067 55.8244Z" fill="#E0988D"/>
<path d="M41.7083 55.8537C41.7083 55.8537 53.8682 57.3514 52.5534 44.202C51.991 38.5783 54.8334 38.9302 50.8282 33.3889L45.6907 36.4141C45.6907 36.4141 48.5482 32.64 43.2283 22.9053C43.2283 22.9053 35.9475 27.2784 39.9679 36.6987C39.9679 36.6987 37.1483 32.64 32.5884 33.3889C32.5884 33.3889 30.5212 41.5436 34.2147 44.202C34.2147 44.202 31.0684 49.8631 34.2147 53.9367" fill="#E0988D"/>
<path d="M40.0117 37.9053V62.9053" stroke="#27372A" stroke-width="3" stroke-linecap="square" stroke-linejoin="round"/>
<path d="M49.3548 43.9053C49.3548 43.9053 53.5556 54.6639 40.7111 55.9053C40.7111 55.9053 36.3619 47.2895 49.3548 43.9053Z" stroke="#27372A" stroke-width="3" stroke-linecap="square"/>
<path d="M30.6029 43.9053C30.6029 43.9053 26.8222 54.6639 38.3823 55.9053C38.3823 55.9053 42.2965 47.2895 30.6029 43.9053Z" stroke="#27372A" stroke-width="3" stroke-linecap="square"/>
<path d="M49.3548 34.9053C49.3548 34.9053 53.5556 45.6639 40.7111 46.9053C40.7111 46.9053 36.3619 38.2895 49.3548 34.9053Z" stroke="#27372A" stroke-width="3" stroke-linecap="square"/>
<path d="M39.2547 22.9053C39.2547 22.9053 47.9234 32.1032 38.9255 38.9053C38.9255 38.9053 29.904 32.9237 39.2547 22.9053Z" stroke="#27372A" stroke-width="3" stroke-linecap="square"/>
<path d="M30.6029 34.9053C30.6029 34.9053 26.8222 45.6639 38.3823 46.9053C38.3823 46.9053 42.2965 38.2895 30.6029 34.9053Z" stroke="#27372A" stroke-width="3" stroke-linecap="square"/>
<path d="M40.0117 22.9053V17.9053" stroke="#27372A" stroke-width="3" stroke-linecap="square"/>
<path d="M31.0117 33.9053V26.9053" stroke="#27372A" stroke-width="3" stroke-linecap="square"/>
<path d="M15.0117 27.9053V62.9053" stroke="#27372A" stroke-width="3" stroke-linecap="square" stroke-linejoin="round"/>
<path d="M23.4205 42.9053C23.4205 42.9053 27.2013 53.6639 15.6412 54.9053C15.6412 54.9053 11.7269 46.2895 23.4205 42.9053Z" stroke="#27372A" stroke-width="3" stroke-linecap="square"/>
<path d="M6.53724 42.9053C6.53724 42.9053 3.17658 53.6639 13.4522 54.9053C13.4522 54.9053 16.9316 46.2895 6.53724 42.9053Z" stroke="#27372A" stroke-width="3" stroke-linecap="square"/>
<path d="M23.4205 33.9053C23.4205 33.9053 27.2013 44.6639 15.6412 45.9053C15.6412 45.9053 11.7269 37.2895 23.4205 33.9053Z" stroke="#27372A" stroke-width="3" stroke-linecap="square"/>
<path d="M6.53724 33.9053C6.53724 33.9053 3.17658 44.6639 13.4522 45.9053C13.4522 45.9053 16.9316 37.2895 6.53724 33.9053Z" stroke="#27372A" stroke-width="3" stroke-linecap="square"/>
<path d="M23.4205 22.9053C23.4205 22.9053 27.2013 33.6639 15.6412 34.9053C15.6412 34.9053 11.7269 26.2895 23.4205 22.9053Z" stroke="#27372A" stroke-width="3" stroke-linecap="square"/>
<path d="M14.7243 12.9053C14.7243 12.9053 22.3094 21.5283 14.4362 27.9053C14.4362 27.9053 6.54248 22.2976 14.7243 12.9053Z" stroke="#27372A" stroke-width="3" stroke-linecap="square"/>
<path d="M6.53724 22.9053C6.53724 22.9053 3.17658 33.6639 13.4522 34.9053C13.4522 34.9053 16.9316 26.2895 6.53724 22.9053Z" stroke="#27372A" stroke-width="3" stroke-linecap="square"/>
<path d="M15.0117 53.9053V50.9053" stroke="#27372A" stroke-width="3" stroke-linecap="square"/>
<path d="M15.0117 12.9053V6.90527" stroke="#27372A" stroke-width="3" stroke-linecap="square"/>
<path d="M6.01172 22.9053V14.9053" stroke="#27372A" stroke-width="3" stroke-linecap="square"/>
<path d="M24.0117 22.9053V14.9053" stroke="#27372A" stroke-width="3" stroke-linecap="square"/>
<path d="M48.0117 32.9053V26.9053" stroke="#27372A" stroke-width="3" stroke-linecap="square"/>
</g>
<defs>
<clipPath id="clip0_1510_1067">
<rect width="56" height="69" fill="white"/>
</clipPath>
</defs>
</svg>
