<svg width="129" height="128" viewBox="0 0 129 128" fill="none" xmlns="http://www.w3.org/2000/svg">
<path d="M66.0273 108.691L65.6646 109.053L64.2233 110.254C62.1545 111.978 59.0983 111.758 57.3216 109.735C51.0941 102.641 40.3117 90.1301 32.6212 80.7305C23.3519 69.4014 26.4703 60.9903 29.6173 57.5573L23.1607 51.1007C19.3442 47.2842 19.1279 41.0178 22.8889 37.1466C26.6796 33.2449 31.2233 29.1558 36.0656 26.8623C47.3729 21.5066 67.135 16.6486 83.2705 25.5748C94.3302 31.6931 101.648 38.2671 105.618 43.2717C108.127 46.4347 106.991 50.6641 103.897 53.2575L93.9875 61.5627C94.4166 62.707 98.7938 66.3974 93.9875 76.01C89.2622 85.4605 73.2273 101.492 66.0273 108.691Z" fill="white"/>
<path d="M57.259 65.2473C57.259 65.2473 65.9801 50.7545 77.0973 59.3027C88.2146 67.8509 55.9918 97.4586 55.9918 97.4586C55.9918 97.4586 27.2481 70.0859 37.3631 59.4525C47.4781 48.8191 57.2706 65.2473 57.2706 65.2473H57.259Z" fill="#F4B536"/>
<path d="M65.7035 63.6344C65.7035 63.6344 71.9361 52.448 83.0534 60.9962C94.1707 69.5444 61.9478 99.1521 61.9478 99.1521C61.9478 99.1521 33.2042 71.7794 43.3192 61.146C53.4342 50.5125 63.2266 66.9408 63.2266 66.9408L65.7035 63.6344Z" stroke="#22382A" stroke-width="4" stroke-miterlimit="10"/>
<path d="M90.3342 52.9777L98.1451 45.1668" stroke="#22382A" stroke-width="4" stroke-miterlimit="10"/>
<path d="M78.641 44.925L82.0856 34.4414" stroke="#22382A" stroke-width="4" stroke-miterlimit="10"/>
<path d="M37.2941 50.8119L29.4832 43.001" stroke="#22382A" stroke-width="4" stroke-miterlimit="10"/>
<path d="M50.1395 42.7592L46.6948 32.2756" stroke="#22382A" stroke-width="4" stroke-miterlimit="10"/>
<path d="M64.4592 40.7316L64.7357 29.6949" stroke="#22382A" stroke-width="4" stroke-miterlimit="10"/>
</svg>
