<svg width="56" height="56" viewBox="0 0 56 56" fill="none" xmlns="http://www.w3.org/2000/svg">
<g clip-path="url(#clip0_1558_1267)">
<path d="M28 56.0005C43.464 56.0005 56 43.4645 56 28.0005C56 12.5365 43.464 0.000488281 28 0.000488281C12.536 0.000488281 0 12.5365 0 28.0005C0 43.4645 12.536 56.0005 28 56.0005Z" fill="white"/>
<path d="M31 49.0005C42.598 49.0005 52 39.5985 52 28.0005C52 16.4025 42.598 7.00049 31 7.00049C19.402 7.00049 10 16.4025 10 28.0005C10 39.5985 19.402 49.0005 31 49.0005Z" fill="#AA9E8D"/>
<path d="M43.7602 25.201L46 20.0384C45.4291 18.6476 45.1997 18.1823 44.741 17.3706L42.4914 17.3557L38.3485 11.8814H31.2093L26.7394 10.0005L19.1659 17.6824L19 23.0429L23.3577 27.6857L31.8046 25.4187V31.0564L35.1815 36.5902V39.1937L38.1777 40.0005C38.5339 39.7926 38.8852 39.5748 39.2268 39.3422L43.1941 33.8777L43.7553 25.201H43.7602Z" fill="#27382B"/>
<path d="M17 38.6988L15.015 36.5871L10.7576 35.1523L8.67683 33.1551L6 31.0005C6.64393 36.7111 9.95404 41.7162 14.8021 45.0005L16.4519 41.8211L17 38.6988Z" fill="#27382B"/>
<path d="M16.1659 12.0005H19.7251L21 9.12908V8.00049C19.3081 8.52483 17.7109 9.27889 16.2417 10.2277L16 11.591L16.1659 12.0005Z" fill="#27382B"/>
<path d="M30.0911 8.97024L28.4407 8.15885L28 8.22825L29.8413 10.0005L30.1939 9.60547L31.952 9.33857L31.9177 8.70867L32.6964 9.17842L33 9.08234L31.4476 7.42753C30.7081 7.2407 29.9491 7.09657 29.1802 7.00049L30.4535 8.45778L30.1009 8.97558L30.0911 8.97024Z" fill="#27382B"/>
<path d="M17 36.1721L17.0394 39.7469L19.8867 41.0005L21 40.991C20.4631 39.2989 19.7044 37.6973 18.7537 36.2293L17.4089 36.0005L17.0049 36.1721H17Z" fill="#27382B"/>
<path d="M20.4252 42.0005L17.133 43.5323L17 46.8927L17.4133 48.0005C18.7862 46.7602 19.9881 45.3344 21 43.7708L20.7245 42.3291L20.4204 42.0005H20.4252Z" fill="#27382B"/>
<path d="M43 38.8823L45.3523 36.1383L46 36.0005L44.9185 39.0005L43 38.8823Z" fill="#27382B"/>
<path d="M27 49.0005C38.598 49.0005 48 39.5985 48 28.0005C48 16.4025 38.598 7.00049 27 7.00049C15.402 7.00049 6 16.4025 6 28.0005C6 39.5985 15.402 49.0005 27 49.0005Z" stroke="#27372A" stroke-width="3"/>
</g>
<defs>
<clipPath id="clip0_1558_1267">
<rect width="56" height="56" fill="white"/>
</clipPath>
</defs>
</svg>
