<svg width="128" height="128" viewBox="0 0 128 128" fill="none" xmlns="http://www.w3.org/2000/svg">
<path d="M54.3 79.3502C55.7 81.0502 56.5 83.1502 56.5 85.4502C56.5 90.7502 52.2 95.0502 46.9 95.0502C45.3 95.0502 43.8 94.6502 42.4 93.9502L43.7 90.1502C43.7 93.6502 40.8 96.5502 37.3 96.5502C33.8 96.5502 30.9 93.6502 30.9 90.1502V91.3502C30.6 91.3502 30.4 91.3502 30.1 91.3502C24.5 91.3502 21 86.7502 20 81.2502C18.8 74.2502 23.6 72.3502 25.8 70.1502C31.4 64.4502 30.9 59.2502 31.4 55.2502C34.1 31.5502 44.3 19.9502 65.2 19.9502C86.1 19.9502 94.1 31.8502 97.2 41.8502C100.5 52.6502 96.1 78.9502 102.1 81.7502C108.1 84.5502 108.2 87.9502 108.2 87.9502C108.2 90.9502 105.8 93.3502 102.8 93.3502C99.8 93.3502 93.6 88.2502 97.2 87.2502C99.9 86.4502 99.8 92.4502 99.8 92.4502C99.9 92.7502 99.9 93.0502 99.9 93.3502C99.9 95.6502 98 97.5502 95.7 97.5502C93.4 97.5502 91.5 95.6502 91.5 93.3502C89.5 95.9502 86.4 97.6502 82.8 97.6502C76.8 97.6502 71.9 92.7502 71.9 86.7502C71.9 84.1502 72.8 81.8502 74.3 79.9502" fill="#BFE5D1"/>
<path d="M54.3 79.3502C55.7 81.0502 56.5 83.1502 56.5 85.4502C56.5 90.7502 52.2 95.0502 46.9 95.0502C45.3 95.0502 43.8 94.6502 42.4 93.9502L43.7 90.1502C43.7 93.6502 40.8 96.5502 37.3 96.5502C33.8 96.5502 30.9 93.6502 30.9 90.1502V91.3502C30.6 91.3502 30.4 91.3502 30.1 91.3502C24.5 91.3502 21 86.7502 20 81.2502C18.8 74.2502 23.6 72.3502 25.8 70.1502C31.4 64.4502 30.9 59.2502 31.4 55.2502C34.1 31.5502 44.3 19.9502 65.2 19.9502C86.1 19.9502 94.1 31.8502 97.2 41.8502C100.5 52.6502 96.1 78.9502 102.1 81.7502C108.1 84.5502 108.2 87.9502 108.2 87.9502C108.2 90.9502 105.8 93.3502 102.8 93.3502C99.8 93.3502 93.6 88.2502 97.2 87.2502C99.9 86.4502 99.8 92.4502 99.8 92.4502C99.9 92.7502 99.9 93.0502 99.9 93.3502C99.9 95.6502 98 97.5502 95.7 97.5502C93.4 97.5502 91.5 95.6502 91.5 93.3502C89.5 95.9502 86.4 97.6502 82.8 97.6502C76.8 97.6502 71.9 92.7502 71.9 86.7502C71.9 84.1502 72.8 81.8502 74.3 79.9502" stroke="#26985D" stroke-width="4" stroke-miterlimit="10" stroke-linecap="round" stroke-linejoin="round"/>
<path d="M88.4 47.2499C88.4 47.2499 93.6999 81.5499 65.1999 81.5499C36.6999 81.5499 42.0999 47.2499 42.0999 47.2499C42.0999 47.2499 50.2999 46.5499 58.3999 39.6499" fill="#F4FBF7"/>
<path d="M88.4 47.2499C88.4 47.2499 93.6999 81.5499 65.1999 81.5499C36.6999 81.5499 42.0999 47.2499 42.0999 47.2499C42.0999 47.2499 50.2999 46.5499 58.3999 39.6499" stroke="#26985D" stroke-width="4" stroke-miterlimit="10" stroke-linecap="round" stroke-linejoin="round"/>
<path d="M61.8 51.8501V63.6501H65.7" stroke="#26985D" stroke-width="4" stroke-miterlimit="10" stroke-linecap="round" stroke-linejoin="round"/>
<path d="M49.6 48.6498C49.6 48.6498 60.9 47.2498 71.9 33.5498" stroke="#26985D" stroke-width="4" stroke-miterlimit="10" stroke-linecap="round" stroke-linejoin="round"/>
<path d="M60.6 46.8502C60.6 46.8502 70.2 45.7502 74.5 38.4502" stroke="#26985D" stroke-width="4" stroke-miterlimit="10" stroke-linecap="round" stroke-linejoin="round"/>
<path d="M79 38.5498C79 38.5498 81.3 44.3498 91.5 45.7498" stroke="#26985D" stroke-width="4" stroke-miterlimit="10" stroke-linecap="round" stroke-linejoin="round"/>
<path d="M77.4 108.05L75.6 95.0499C75.6 95.0499 68.4 89.8499 74 80.4499C74 80.4499 65 83.7499 54.8 80.1499V80.2499C54.8 80.2499 58.8 86.0499 53.8 92.1499L51.4 108.05" fill="#F4FBF7"/>
<path d="M77.4 108.05L75.6 95.0499C75.6 95.0499 68.4 89.8499 74 80.4499C74 80.4499 65 83.7499 54.8 80.1499V80.2499C54.8 80.2499 58.8 86.0499 53.8 92.1499L51.4 108.05" stroke="#26985D" stroke-width="4" stroke-miterlimit="10" stroke-linecap="round" stroke-linejoin="round"/>
<path d="M77.3 58.8502C78.2389 58.8502 79 57.6414 79 56.1502C79 54.659 78.2389 53.4502 77.3 53.4502C76.3611 53.4502 75.6 54.659 75.6 56.1502C75.6 57.6414 76.3611 58.8502 77.3 58.8502Z" fill="#26985D"/>
<path d="M53.3 58.8502C54.2389 58.8502 55 57.6414 55 56.1502C55 54.659 54.2389 53.4502 53.3 53.4502C52.3611 53.4502 51.6 54.659 51.6 56.1502C51.6 57.6414 52.3611 58.8502 53.3 58.8502Z" fill="#26985D"/>
<path d="M71.5 67.6499C71.5 67.6499 68.8 70.4499 62.8 70.3499Z" fill="#BFE5D1"/>
<path d="M71.5 67.6499C71.5 67.6499 68.8 70.4499 62.8 70.3499" stroke="#26985D" stroke-width="4" stroke-miterlimit="10" stroke-linecap="round" stroke-linejoin="round"/>
<path d="M80.5 67.5502C82.3225 67.5502 83.7999 66.0727 83.7999 64.2502C83.7999 62.4277 82.3225 60.9502 80.5 60.9502C78.6774 60.9502 77.2 62.4277 77.2 64.2502C77.2 66.0727 78.6774 67.5502 80.5 67.5502Z" fill="#BFE5D1"/>
<path d="M50 67.5502C51.8225 67.5502 53.3 66.0727 53.3 64.2502C53.3 62.4277 51.8225 60.9502 50 60.9502C48.1774 60.9502 46.7 62.4277 46.7 64.2502C46.7 66.0727 48.1774 67.5502 50 67.5502Z" fill="#BFE5D1"/>
</svg>
