<svg width="128" height="128" viewBox="0 0 128 128" fill="none" xmlns="http://www.w3.org/2000/svg">
<path d="M20.7848 108C20.7848 108 21.8312 71.6908 32.1903 46.7872C42.5494 21.8835 57.0939 20 63.8954 20C71.1153 20 85.5553 21.8835 95.8098 46.6825C106.064 71.4816 107.215 107.895 107.215 107.895" fill="#F4FBF7"/>
<path d="M20.7848 108C20.7848 108 21.8312 71.6908 32.1903 46.7872C42.5494 21.8835 57.0939 20 63.8954 20C71.1153 20 85.5553 21.8835 95.8098 46.6825C106.064 71.4816 107.215 107.895 107.215 107.895" stroke="#26985D" stroke-width="4" stroke-miterlimit="10" stroke-linecap="round" stroke-linejoin="round"/>
<path d="M42.5493 46.5776C40.9797 49.4028 39.6194 52.7512 39.5148 55.9949C39.3055 65.9355 41.5029 87.0722 64.1046 87.0722C86.7062 87.0722 89.0082 66.0401 88.6943 55.9949C88.5897 52.7512 87.648 49.2981 86.183 46.4729C83.4625 41.241 76.661 32.6608 64.1046 32.5562C51.1295 32.5562 44.3281 43.4384 42.5493 46.5776Z" fill="#BFE5D1" stroke="#26985D" stroke-width="4" stroke-miterlimit="10" stroke-linecap="round" stroke-linejoin="round"/>
<path d="M60.5471 55.9951V68.2377H64.5233" stroke="#26985D" stroke-width="4" stroke-miterlimit="10" stroke-linecap="round" stroke-linejoin="round"/>
<path d="M78.4397 63.3198C79.4221 63.3198 80.2185 62.055 80.2185 60.4946C80.2185 58.9343 79.4221 57.6694 78.4397 57.6694C77.4573 57.6694 76.6609 58.9343 76.6609 60.4946C76.6609 62.055 77.4573 63.3198 78.4397 63.3198Z" fill="#26985D"/>
<path d="M51.4435 63.3198C52.4259 63.3198 53.2223 62.055 53.2223 60.4946C53.2223 58.9343 52.4259 57.6694 51.4435 57.6694C50.4611 57.6694 49.6647 58.9343 49.6647 60.4946C49.6647 62.055 50.4611 63.3198 51.4435 63.3198Z" fill="#26985D"/>
<path d="M70.5919 72.4233C70.5919 72.4233 67.7667 75.3532 61.4884 75.2485Z" fill="#BFE5D1"/>
<path d="M70.5919 72.4233C70.5919 72.4233 67.7667 75.3532 61.4884 75.2485" stroke="#26985D" stroke-width="4" stroke-miterlimit="10" stroke-linecap="round" stroke-linejoin="round"/>
<path d="M80.1139 72.3187C82.0209 72.3187 83.5669 70.7727 83.5669 68.8656C83.5669 66.9586 82.0209 65.4126 80.1139 65.4126C78.2068 65.4126 76.6609 66.9586 76.6609 68.8656C76.6609 70.7727 78.2068 72.3187 80.1139 72.3187Z" fill="#BFE5D1"/>
<path d="M48.1992 72.3187C50.1062 72.3187 51.6522 70.7727 51.6522 68.8656C51.6522 66.9586 50.1062 65.4126 48.1992 65.4126C46.2921 65.4126 44.7461 66.9586 44.7461 68.8656C44.7461 70.7727 46.2921 72.3187 48.1992 72.3187Z" fill="#BFE5D1"/>
<path d="M39.6197 54.5301C39.6197 54.5301 48.5138 43.7524 64.1048 43.7524C79.6958 43.7524 88.5899 54.5301 88.5899 54.5301C88.5899 54.5301 85.8694 33.7072 64.5233 32.5562C43.1773 31.4052 39.6197 54.5301 39.6197 54.5301Z" fill="#F4FBF7" stroke="#26985D" stroke-width="4" stroke-miterlimit="10" stroke-linecap="round" stroke-linejoin="round"/>
<path d="M81.9979 88.4331C81.9979 88.4331 69.2321 108.628 53.7458 95.8624Z" fill="#F4FBF7"/>
<path d="M81.9979 88.4331C81.9979 88.4331 69.2321 108.628 53.7458 95.8624" stroke="#26985D" stroke-width="4" stroke-miterlimit="10" stroke-linecap="round" stroke-linejoin="round"/>
</svg>
