<svg width="50" height="48" viewBox="0 0 50 48" fill="none" xmlns="http://www.w3.org/2000/svg">
<g clip-path="url(#clip0_282_629)">
<path d="M7.74264 4.55678H10.0302C11.151 4.55678 12.2413 4.16448 13.0871 3.42064C14.0755 2.54943 15.7669 0.990429 18.1564 0.990429C22.7417 0.990429 23.5721 2.11638 24.8917 3.58877C25.7782 4.57716 27.0875 5.06626 28.4122 5.06626H28.9064C29.9916 5.06626 31.0564 4.71472 31.8817 4.01164C32.8599 3.18119 34.5718 2.21318 37.0071 2.51886C39.4424 2.82455 41.0778 4.15939 42.0662 5.2242C42.8814 6.1005 43.987 6.66093 45.1791 6.75263C47.752 6.95133 49.7441 9.09623 49.7441 11.6793V30.5402L49.4027 42.1665C49.311 45.3304 46.6974 47.8319 43.5386 47.7962L10.2951 47.3988C8.15531 47.3734 6.43837 45.631 6.43837 43.4962V40.7298C6.43837 40.7298 1.85306 39.2013 1.85306 33.5971C1.85306 29.4754 4.05911 27.8349 5.22581 27.2541C5.65887 27.0401 5.92889 26.5917 5.92889 26.1077C5.92889 25.5065 5.51112 24.9818 4.92522 24.8544C3.54453 24.5538 1.19074 23.3056 0.834106 18.3127C0.834106 18.3127 0.834106 14.7464 2.32688 13.2841C2.9943 12.6269 3.3815 11.7404 3.3815 10.8081V8.92301C3.3815 6.51318 5.3328 4.56187 7.74264 4.56187V4.55678Z" fill="white"/>
<path d="M27.6174 9.00963H33.5019C33.5019 9.00963 34.4088 6.29411 37.1243 6.29411C39.8398 6.29411 40.2933 9.9165 40.2933 9.9165L46.1778 10.8234V14.8992C46.1778 14.8992 41.6536 13.9719 41.6536 18.5216C41.6536 20.7837 46.1778 20.7837 46.1778 20.7837V27.1216L39.8398 25.7613L38.4795 23.0458L35.764 22.5923L33.5019 25.7613H28.5243V21.2371C28.5243 21.2371 24.4485 20.3302 24.4485 17.6147C24.4485 14.8992 27.6174 13.5389 27.6174 13.5389L28.0709 9.9165" fill="#EBB751"/>
<path d="M27.169 25.3028L26.7156 28.9251C26.7156 28.9251 24.4535 30.2855 24.4535 33.001C24.4535 35.7165 28.5293 36.6234 28.5293 36.6234V42.0544H33.5069C33.5069 42.0544 36.2224 35.7165 39.8448 42.0544L45.7293 42.5078L46.1828 36.1699C46.1828 36.1699 43.0138 36.1699 43.0138 33.9078C43.0138 29.3582 46.1828 30.2855 46.1828 30.2855V26.2096L40.2983 25.3028C40.2983 25.3028 39.8448 21.6804 37.1293 21.6804C34.4138 21.6804 33.5069 24.3959 33.5069 24.3959L26.7156 25.3028" fill="#EBB751"/>
<path d="M11.7778 9.91141L11.3243 14.889C11.3243 14.889 9.06226 15.3424 9.06226 18.058C9.06226 20.7735 12.2312 21.2269 12.2312 21.2269V25.7511L16.307 25.2977C16.307 25.2977 19.476 19.4132 22.645 25.2977L28.5294 25.7511L28.9829 20.3201C28.9829 20.3201 24.4587 20.3201 24.4587 18.058C24.4587 13.5083 28.9829 14.4356 28.9829 14.4356V9.00453L23.0984 8.09766C23.0984 8.09766 22.645 4.9287 19.9294 4.9287C17.2139 4.9287 14.9518 8.5511 14.9518 8.5511L10.4277 9.45797" fill="#EBB751"/>
<path d="M27.169 42.9562H25.1311" stroke="#EBB751" stroke-width="2.03791" stroke-miterlimit="10"/>
<path d="M23.6079 42.9562H15.4002H13.2196" stroke="#EBB751" stroke-width="2.03791" stroke-miterlimit="10"/>
<path d="M12.4554 42.9562H10.4175V40.9183" stroke="#EBB751" stroke-width="2.03791" stroke-miterlimit="10"/>
<path d="M10.4173 39.5631V37.5251C10.4173 37.5251 9.48498 37.3163 8.51697 36.8068" stroke="#EBB751" stroke-width="2.03791" stroke-miterlimit="10"/>
<path d="M7.25865 35.9152C6.72879 35.3955 6.34668 34.7332 6.34668 33.9028C6.34668 32.9246 6.75426 32.1247 7.27903 31.498" stroke="#EBB751" stroke-width="2.03791" stroke-miterlimit="10"/>
<path d="M7.81909 30.9478C8.64445 30.2039 9.51566 29.832 9.51566 29.832L9.96909 26.2096" stroke="#EBB751" stroke-width="2.03791" stroke-miterlimit="10"/>
<path d="M20.8312 26.2096C20.8312 26.2096 19.4709 23.0407 16.7554 23.0407C14.0399 23.0407 13.5865 26.6631 13.5865 26.6631L9.51063 26.2096V21.6855L7.70198 21.232C2.72437 17.6096 8.15541 15.3475 8.15541 15.3475V9.9165H13.5865C13.5865 9.9165 14.9468 6.74754 18.1106 6.74754C21.2745 6.74754 21.733 10.3699 21.733 10.3699H25.8088V13.9923C25.8088 13.9923 22.6399 15.801 22.6399 18.0682C22.6399 20.3353 26.2623 21.6906 26.2623 21.6906L25.8088 30.744C25.8088 30.744 21.733 32.1043 21.733 34.8198C21.733 37.5353 25.8088 38.4422 25.8088 38.4422V42.9664H30.7865C30.7865 42.9664 33.9554 37.0819 37.1244 42.9664L42.5554 43.4198L43.4623 37.9888C43.4623 37.9888 38.9381 37.9888 38.9381 35.7267C38.9381 31.177 43.4623 32.1043 43.4623 32.1043V27.1267H37.5778C37.5778 27.1267 37.1244 23.5043 34.4089 23.5043C31.6933 23.5043 30.7865 27.5801 30.7865 27.5801H26.7106" stroke="#27372A" stroke-width="2.03791"/>
</g>
<defs>
<clipPath id="clip0_282_629">
<rect width="48.91" height="46.8058" fill="white" transform="translate(0.834106 0.990429)"/>
</clipPath>
</defs>
</svg>
