<svg width="36" height="36" viewBox="0 0 36 36" fill="none" xmlns="http://www.w3.org/2000/svg">
<g id="Group 1170">
<path id="Vector" d="M16.1972 19.354C18.8112 19.354 20.9302 17.235 20.9302 14.621C20.9302 12.007 18.8112 9.88794 16.1972 9.88794C13.5832 9.88794 11.4641 12.007 11.4641 14.621C11.4641 17.235 13.5832 19.354 16.1972 19.354Z" fill="#2AA967" stroke="#212121" stroke-width="3" stroke-miterlimit="10" stroke-linecap="round" stroke-linejoin="round"/>
<path id="Vector_2" d="M16.1752 30.3983C24.0172 30.3983 30.3744 24.0411 30.3744 16.1991C30.3744 8.35717 24.0172 2 16.1752 2C8.33325 2 1.97607 8.35717 1.97607 16.1991C1.97607 24.0411 8.33325 30.3983 16.1752 30.3983Z" stroke="#212121" stroke-width="3" stroke-miterlimit="10" stroke-linecap="round" stroke-linejoin="round"/>
<path id="Vector_3" d="M26.2146 26.2383L34.0241 34.0479" stroke="#212121" stroke-width="3" stroke-miterlimit="10" stroke-linecap="round" stroke-linejoin="round"/>
<g id="Vector_4">
<path d="M7.50854 27.448C9.90662 29.2992 12.9147 30.3983 16.1753 30.3983C19.4358 30.3983 22.4439 29.2992 24.842 27.448L24.8368 27.4375C24.5265 22.9253 20.7663 19.3545 16.1753 19.3545C11.5842 19.3545 7.82408 22.9253 7.51906 27.4427" fill="#2AA967"/>
<path d="M7.50854 27.448C9.90662 29.2992 12.9147 30.3983 16.1753 30.3983C19.4358 30.3983 22.4439 29.2992 24.842 27.448L24.8368 27.4375C24.5265 22.9253 20.7663 19.3545 16.1753 19.3545C11.5842 19.3545 7.82408 22.9253 7.51906 27.4427" stroke="#212121" stroke-width="3" stroke-miterlimit="10" stroke-linecap="round" stroke-linejoin="round"/>
</g>
</g>
</svg>
