<svg xmlns="http://www.w3.org/2000/svg" viewBox="0 0 2030 1020"><defs><linearGradient id="a" x2="1"><stop offset="0%" stop-color="#aee15c"/><stop offset="50%" stop-color="#118aec"/><stop offset="100%" stop-color="#6859c0"/></linearGradient></defs><path fill="url(#a)" d="M815.93 6.92c-1.66 0-3.4 0-5.15.02-4.54.06-9.1.2-13.45.47-7.95.47-19.75 1.05-26.2 1.3-22.46-.36-55.2 5.1-74.45 5.2-10.87-5.85-27.5-4.27-37.56-4.34-26.04-.92-49.74 3.03-73.76 4.4-22.97 2.07-19.33 1.3-28.72 3.93-11.25 4.3-23.34 1.66-14.42 13.97 17.56 4 10.42 5.17 7.46 8.27-10.56 3.35-14.77.58-22.75.46-3.7-3.18-16.8 1.5-13.34 1.67.57 7.36-7.96 7.83-6.7.22-7.8 1.76-10.77 2-27.25-.42-2.04.78-4.97 3.77-3.68 3.77 3.92 3.55 13.8 6.42 16.38 6.33 11.75-5.2 10.1 3.2 11.87 3.28 10.8.13 17.3-9.54 22.64-9.04 1.33 2.22-7.96 6.45-4.87 7.4 6.76 1.33 35.8 1.97 37.18.82 4.6-.2 21.98.98 22.36-5.2-16.03-.17-49.6 4.03-40.52-3.6 16.78-5.36 31.24 1 44.53 1.75.8-2.45 12.38-4.84 12.6-6.75 5.13-6.1 17.4-6.2 21.34-8.03 7.1-4.54 13.92-6.13 19.64-6.68 11.1-3.07 17.95-4.45 29.76-1.3 0 1.73-4.1 2.92-12.23 3.6-5.38 1-35.25 1.16-32.8 9.65 22.03 15.16 19.33 2.77 45.38 8.7 21.47 4.2-2.6 18.1 3.4 26.5-3.98 9.95-6.64 21.8-8.12 28.16 3.8 3.13-1.8 8.36.6 19.85-1.5 5.57 7.1 16.2 8.14 21.5 9.2-.68 19.66 9.66 25.07 6.03 2.45-3.4 4.57-6.57 7.6-9.67 4.04-6 7.8-11.3 14.68-14.33.68-5.77 9.78-9.73 10.66-12.7 6.37-4.54 12.18 2.14 16.25-2.56 8.73.05 18.36-11.07 24.64-12.67 10.2-5.08 25.1-1.96 38.96-8.27 8.88-2.44 16.1-8.68 20.7-13.16-7.44-8.95-4.38-7.16 13.9-18.32 4.75-1.84 9.58-3.64 13.2-5.22-7.6-7.87.58-10.06.25-11.98-2.14-19.23-1.16-14.2 28.22-22 8.73-1.57 6.64-2.82-5.68-3.36-14.23.6-28.87-2.67-39.84-5.88-3.58-1.1-14.15-1.77-25.95-1.8zm354.27 9.66c-3.86-.42-11 5.74-13.72 5.3-2.3 1.1 2.2 1.58 3.23 1.7 6.3-1.8 1.35-2.55 6.48-1 4.16.24 19.82 3.7 29.53-2.15-4.3-2.52-10.65-3.22-15.2-3.36 1.42-2.9-1.6-4.65-10.3-.5zm148.78 8.8c7.6 1.12 38.97 8.68 42.28 4.7-7.16-5.5-22.1-5.1-19.74-9-2.6-6.75-28.44-2.8-22.54 4.3zm-174.12-6.48c-5.6 4.37-7.84.24-16.86 1.58-4.4 2.57 18.77 4.07 23.6 4.26 3.1-2.95-2.72-1.83.86-4.23-2.4-1.46-5.84-2.1-7.6-1.6zM1014.08 23c-25.78.17-30.3 1.52-30.06 3.4 4.54 8.23 2.48 5.92 21.67 15.08 5.14 2.5 7.15 2.28 7.85-.88 4.52-9.6 20.17-6.26 15.55-3.57-2.9 4.16 13.87 2.3 15.9-.8-6.6-2.36-29.08-5.48-14.24-8.35-1.3 2.14 27.3-1.08 21.06-4.58-8.42.1-31.3-5.04-37.74-.3zm351.03 4.36c-.2 2.72-.76 5.6.1 8 1.9 0 20-1.86 21.66-2.24 3.47-2.27-18.62-7-21.76-5.76zm21.32 9c-1.4 0-2.7.08-3.67.3-3.32.7-5.06 3.44-3.5 5.3-.07 1.02-12.34 3.82-13.53 2.88.87-1.5-16-.2-17.56 1.33-7.35 2.35-15.33 3.18-22.72 5.8-.36 3.9-4.87-.42-6.03 2.3-.44 2.4 5.9 1.3 8.84 3.6-5.8 2.62-19.2 1.24-26.12 2.28 4.88 5.9 19.64 10.7 16.94 10.93-9.63-.27-37.48-12.44-41.32-8.06 2.26 5.58 12.3.14.8 10.1 5.23 3.4 8.9 8.46 11.52 14.56 2.07 2.02 15.23-.5 9.35 1.14-4.7 3.2-1.4 6.63-1.48 11.73-1.24 2.44-6.1 5.6-8.04 5.22-6.84-1.73-1.64-1.8-.26-4.86 3.24-4.62 3.62-8.7-1.13-10.83-3.96-2.12-6.8-6.87-7.8-11.3-9.43-7.42-5.7-10.78-6.72-12.23-2-2.04-13.66-2.94-10.13-3.14 7.12-.82-7.16-4.35-6.8-1.6-.88 3.33-3.06 10.7-4.56 11.57-5.97 4.62 1.7 3.85 1.74 8.16-.27 5.18 15.8 6.87 13.54 10.6-12.28-2.4-26.14-8-38.88-8.82-3.8.85-12.56-5.92-15.02-3.52-.5 5.2 9.48 5.25 13.02 8.46 1.8 2-3.4 4.76-4.9 3.18-3.1-4.02-7.75-.55-15.2-.36-1.26 2.72-12.57 2.7-9.6-1.8-2.73-2.1-8.87 1.82-12.06 2.18-4.37 0-7.52 4.02-11.7 4.23-4.7.53-1.84 9.18-14.43 5.65-4.9-2.64.1-4.24 3.77-5.24-5.13-5.77-22.7-7.52-16.86-3.5 4.9 1.45 1 7.24 4.8 9 6.62 5.54-4.58 6-6.54 2.3-2.43-.36-4 2.93-7 4-2.6.82-4.2 2.34-6.37 4.07 8.95 9.6.4 4.26-13.28 2.07-4.67 4.46 5 4.48 6.9 6.52.87 2.24-4.46 1.93-9-.5-4.24-.66-5.74-3.44-7.95-5.6-2.1-8.53-3.93-5.8-8.13-9.52-.35-.83 1.23-.75 6.64.36 18.26 3.73 23.33 3.72 28.75-.1 7.34-4-5.7-12.3-7.87-10.9-4.36-1.45-9.8-3.45-13.28-4.94-6.02-3.38-15.04-.84-20.1-4.62-4.82-2.93-11.28-1.16-16.15-1.74 2-.55 4.35-1.68 5.33-2.92-3.24-.52-13.1-4.48-15.73-4.5-7.87 1.33-9.13-2.25-12.32 0-3.35 1.6-16.5.64-15.7 3.5-2.6 2.14-8.14 3.06-8.4 2.82-2.1-1.97-7.77-1.1-7.77 1.18 0 1.26-.1 1.33-3.24 1.66-5.12 3.62-17.25 3.9-16.26 7.2.1 2.37-7.08.53-7.6 3.67 2.3 1.58 3.95-.64 7-1.3 4.7 1.9-5.22 11.34-7.87 12.07-4.18 4.1-8.36 10.73-8.65 10.84-7.65 6.62-11.22 5-12.58 6.48-4.97 5.1-11.26 6.63-16.08 9.5-2.62 1.6-2.7 1.86-2.8 8.25.77 5.44 1.53 13.58 1.76 13.62 3.73 5.76 11.56 9.44 17.47 5.7 1.65-1.17 4.62-2.97 6.72-4 2-1.03 3.75-2.55 3.75-3.34.36-2.1 3.38 4.3 3.4 4.98.98 4.2 3.92 8.53 6.56 11.36 2.38 2.3 2.44 4.28.6 6.17-6.1-.36-8.2 2.3-8.9-.32 2.98-3.18-5.03-3.9-1.83-6.1 1.05-.6.96-5.7-.1-5.7-1.8 1.7-4.9 4.33-7.76 4.38-4.72 0-7.95 9.3-4.46 12.94 1.85 2.36-.4 3.03-.1 5.02 2.4 2.5 2.45 7.5-2.43 6.83-3.77-.94-6.62 2.12-10.05 1.66-4.1-.6-7.86 1.7-8.56 5.25-.88 4.65-6.64 9.9-13.2 12.04-3.84 1.26-4.45 1.77-5.06 4.6-.88 5.26-6.34 2.95-8.65 6.72-3.97 3.8-11.3-6.05-11.62.14 1.84 5.9 1.67 6.4-1.9 6.4-4.72-.5-9.85-1.66-14.25.48-2.6 3-.3 6.3 2 6.44 11.95.7 18.1 16.43 14.42 28.23-.96 3.2-3.4 4.94-5.85 4.16-10.6-2.8-19.88.93-29.44-2.43-3.68-1.22-13.1 3.8-11.8 7.46.44 1.18.96 4.87 1.05 8.17-.04 7.6-1.95 11.94-5.15 16.93-.72 8.7 3.48 9.87 2.1 15.73 1.56 6.5 12.02-3.37 15.63 5 4.86 8.1 3.72 2.67.45 10.5-2.97 7.24-4.98 9.57-10.4 12.16-9.05 3.87-8.65 8.06-12.5 13.5-6.56 15.2 2.24 20.9-21.22 28.72-2.3 1.13-15.17 18.68-15.3 21.2-6.16 10.35-13.6 20.24-16.33 32 .3 3.3 3.43-.1 4.55 14.3 1.5 12.62-3.88 26-9.18 32.97 9.4 6.6.9 14.26 7 20.44 7.47 7.6 9.46 9.5 15.72 16.16 3.16 3.43 6.97 13.68 7.4 16.9 8.04 5.78 15.22 11.3 20.46 16 10.57 9.56 13.2 10.38 21.14 6.52 4.63-2.24 6.9-2.76 13.54-3.08 7.34-.36 11.27.23 15.38 2.3 6.92.74 12.7-6.76 19.74-7.1 6.03-3.1 12.48-4.37 18.26-4.57 6.72-.72 13 3.9 13.37 11.04 3.1 7.67 12.95 3.6 19.82 2.84 8.46.88 10.5 15.17 7.16 22.3-.9 2.25-.55 18.03-4.45 15.9-2.78 11.14 21.18 27.56 22 37.97 6.46 10.3 5.88 27.66 7.88 32.67 1.93 4.84 2.8 8.52 2.7 11.16-6.13 8.94-6.32 24.72-13 33.2-3.84 16.55 5.72 26.6 10.74 38.88 7.4 13 6.9 25.4 9.6 40.1 1.68 12.57 26.3 40.65 17.75 49.67 1.28 10.86 4.38 8.43 9.34 13.76 1.92 2.2 3.66 2.2 5.85.26 6.8-5.8 21.77-3.6 29.08-3.76 9.44-2.6 20.1-7.04 27.08-14.7 10-3.84 11.83-23.92 21.4-25.5 10.05-15.54 3.95-24.35 14.42-28.7 13.65-9.83 5.84-25.07 5.68-35.4 1.65-4.32 21.23-22.1 24.2-23.3 7.6-2.8 13.86-9.2 16.7-16.74 1.1-7.37-.8-15.03-.7-22.06.88-20.56-3.53-13.37-5.52-22 .05-11.32-2.2-16.12-4.98-23.9 1.64-16.3 14.56-25.35 20.62-35.92 3.76-7.4 15.55-20.1 22.8-24.63 4.72-2.95 18.53-18.14 18.6-20.43 6.68-12.68 17.2-25.14 17.5-39.32 4.23-4.93 2.57-20.7-3.33-15.23-7.9 5.75-26.83 4.84-33.8 8.95-18.17 6.48-13.35-13.7-16.35-16.9-13.44-17.22-23-16.27-25.16-25.55-2.75-15.67-13.83-17.5-14.33-31-4.37-18.33-10.08-22.63-16.94-35.53.55-4.28-15.75-27.54-15.9-30.26 1.06-3.4 6.36 9.98 10.05 10.7 1.7-.8 2.97-2.58 4.9-2.62 3.2 2.24 6.12 7.14 8.2 11.1 2.62 3.1 9.4 17.56 10.76 17.73 3.6 1.5 8.33 10.98 7.7 14.85-2.4 8.53 15.15 19.57 15.2 23.7.3 2.93 12 16.63 3.22 15.4 5.9 11.15 12.22 11.86 13.8 27.3 2.4 15.36 14.32.98 20.2.87 21.8-.7 36-27 53.98-27.08 23.57-15.55 31.07-21.7 31.97-41.46-7.03-9.53-24.4-12.22-24.63-25 0-5.44-1.05-6.47-2.9-2.8-20.6 30.73-30.8 15.36-29.52.04-15.58-.7-12.35-6.8-18.78-14.66-11.3-12.42-.54-13.73 4.9-15.24 6.44 3.16 7.64 14.65 15.02 17.34 12.8 6.64 13.14 10.1 24.2 8.72 4.18-.5 6.42-5.84 8.74-2.74 2.97 8.75 7.03 10.74 14.15 11.58 14.05 1.9 29.73 3.08 42.64 1.17 10.1-3.82 11.86 11.24 16.7 11.5 12.23 7.82 5.73 6.63 8.03 10.53 0 1.66 12.05 13.04 13.8 13 14.67-6.14 9.55-3.84 13.1 8.65 3.12 10.2 4.82 20.73 9.35 29.98 3 5.66 6.2 11.75 7.7 17.68 2.27 9.54 11.42 17.5 11.96 27.38 0 2.27 4.72 9.5 7 10.73 7.8 1 5.6-9.64 13.27-7.4 3.7 0-2.08-1.3-.7-5.94 8.4-2.1 1.66-13.06 4.72-17.47 1.4-1.66 1.48-8.8.26-15.52-1.75-9.35-1.3-11.84 2.18-10.97 1.3-.2 9.94-7.48 9.97-8.38 2.08-6.13 9.84-9.93 13.8-15.6 2.7-4.58 7.67-5.95 11.36-9.3 3.58-3.54.17-6.7 2.8-9.88 5.35-3.5 9.18-.15 14.33-1.8 7.8-2.3 9.18-2.27 10.92-7.37 2.03 1.63 4.4 5.04 4.45 6.63-2.3 4.5 14 16.72 13.72 17.6-.4 10.4 2.46.97 6.3 9.46 2.22 6.65 1.24 10.14.77 17.15 5.66 2.34 17.45-2.05 17.65-7.86.1-2.73 5.86 9.4 6.64 13.8.52 3.62 10.8 27.95 3.86 25.33 1.27 4.44 11.04 6.1.87 6.38 3.2 3.97 3.35 9.3 2.36 13.7-.9 3.7.25 11.32 1.4 10.1 3.75-1.97 6.02 2.87 8.46 6.1 1.88 10.54 4.97 1 5.07 11.25-.6 6.06 6.94 16.1 7.16 18.84 0 1.4 1.65 3.07 6.28 6.2 2.37 6.82 12.87 6.5 12.93 10.88.83 2.65 7.18-3.26 1.06-3.62.2.04-.67-3.4-.8-4.8-6.4-8.24-3-15.46-5.75-23.5-.63-1.4-13.2-15.34-14.58-15-4.38-4.28-8.64-20.2-9.87-21.8-6.86 9.98-4.07-7.22-2.9-11.68 1.95-4.04.3-15.08 4.2-15.56 4.96.84.85 6.7 5.5 6.66 5 1.06 11.4 5.66 12.68 11.3 0 1.35 3.14 4.6 4.45 4.6-1.78 1.62 11.6 2 8.83 4.28-1.57.96-1.22 10.56.44 10.56 5.42-1.5 12.2-13.5 13.28-14.2 5.2-.43 7.68-5.27 12.06-6.76 4.52-5.92 1.55-12.5.87-18.1-.48-4.64-6.1-18.6-10.13-19.88-2-.64-12.32-10.47-12.32-11.74-2.5-3.83-5.92-7.18-5.94-11.05.02-5.83 12.46-18.53 17.9-16.55 1.7.74 5.84-.14 5.16 1.77-.78 2.15 2.2 8.22 4.1 8.25 4.65-2.5-1.97-7.84 5.43-9.12 3-3.52 15.86-1.4 14.85-8.33-1.22-4.12 4.5 6.2 4.8 1.83 2.93-3.94 12.7-3.15 14.24-7.02 1.46-3.66 13.46-9.37 11.45-13.4 2.83-1.7 7.4-16.28 7.5-18.5 2.37-11.05 7.15-14.72 4.2-24.06-5.17 5.13-2.67-2.22-5.94-8.93-2.92-4.5-7.17-5.2-9.6-9.5-3.5-6.14-7.35-10.13-11.37-12.07-3.94-1.84-4.3-2.28-3.77-4.28.36-8.44 14.2-11.15 14.24-14.53 3.44-1.65-18.35-6.8-17.12-4.1-.57 4.34-5.28 4-6.47.35-.96-6.8-11.97-3.36-12.23-9.52 2.58-4.3 9.46-3.98 13.1-11.52 2.13-5.95 9.93-2.18 7.87 2.27-.85 1.8.84 10.67.96 10.67.44 0 2.27-1.62 4.2-3.6 4.32-4.44 11.96-5.65 17.55-2.5 2.03.4 1.66 12.7 2.63 11.35 1.67-2.12 17.9 6.15 13.1 6.98-1.5 0-.96 1.52 1.57 4.2 3.67 4.03 4.46 5.18 3.93 5.76-2.1 3.45 1 5.75 1.05 8.55 0 1.82.36 1.97 3.94 1.76 4.3-.9 13.77-3.67 13.98-8.35 0-3.48-5.15-12.56-9.35-16.5-3.62-6.1-11.73-8.15-15.63-13.53-1.83-5 10.24-7.08 6.9-13.68-5.2-15.8 12.68-10.14 16.5-10.95 2.8-1.05 7.7-6.7 7.7-8.82 5.16-6.8 2.6-25.15 5.06-31.45.56-3.42-3.98-13.83-6.02-15.53-3.24-2.24-6.64-11.55-4.28-11.55 7.2 4.2 13.68 11.86 17.3 19.3 1.85 4.46 6.42 7.25 8.03 11.63 2.67 5.22 5.3 9.85 9.8 14.06-.5-3-1.7-6.43 1.2-5.88 1.9.14 5.47 4.23 5.6 2.73 0-1.64-2.8-5.16-4.2-5.16-8.56-5.5-9.42-7.65-12.84-15.95 1.9-4.14 11.75 3.57 11.8 2.15-2.8-2.75-6.46-4.85-9.27-7.56-1.92-1.96-6.9-6.7-11.2-10.54-6.08-5.65-21.06-23.52-24.45-22.6-1.22.45-.96.86 1.3 2.24 4.18 16.14-2.5 4.96-13.44-.7-14.07-.58-35.77.06-29.27-9.27 3.76-4.8 5.16-7.5 4.02-7.86.7-2.93 5.83-18.36 7.24-18.88 2.9-1.1 15.38-1.23 16.08-.2.26.5 1.3.93 2.27.93.95 0 1.56-.3 1.3-.68-.18-.38 2.8-.56 6.64-.44 8.37 2.2 5.6-3.46 7.5-2.9 8.7-1.07 14.07 5.78 15.2 5.8 4.44-.26 25.5-1.9 12.42-5.35-6.08-1.9-2.35-14.16 1.83-14.58 4.8-4.7 15.47 5.8 16.24 5.46 17.4 4.9 7.52-10.96 7.7-11.04 6.23-1.9 4.58 7.3 9.34 8 .33 4.26-4.7 10.24-3.76 15.73.8 3.76-2.73 8.7-5.68 8.74-1.96 2.98-.36 2.43 2.2 6.37-.7 3.67 3.83 9.64 13.97 18.38 6.7 7.6 1.58 2.37 15.47 13.54 4.26 3 11.56 14.36 14.42 8.84 2.54-5.58-5.06-10.14 2.34-13.38 1.93-2.1-6.12-4.7-4.98-8.33 5.5-8.74-8.9-15.37 2.8-12.63.8-.83-3.23-4.94-4.9-4.98-5.4-1.45-6.52-9.5-11.96-8.32-4.53 1.8-8.77-13.7-7.95-13.57 8.03-6.84 35.1 2.05 33.1-2.18-2.78-13.5 26.9-14.3 26.92-15.92-2.8-5.55-20.17-9.02-21.84-13.52 4.15-9.66-2.04-6.5-4.8-10.25 10.23.8 23.5 8.02 33.36 8.76 5.34 1.1 17.23 2.95 17.73 2.63-10.37-9.92-3.25-7.38 7.86-5.95-13.52-13.15-36.25-8.72-49.37-14.53-4.72-2.3-43.94-12.1-56.8-14.17-4.27-.7-11.17-1.4-15.27-1.6-17.4.38-17.38 2.63-38.44 1.6-7.08-.22-23.16-.3-24.47-.1-16.9-5.1-24.74-9.22-41.14-8.57-23.96.05-45.36-8.18-68.5-10.4-20.98-3.4-18.57 1.6-18.25 2.62 13.44 7.17 4.77 3.97-5.6 3.94.1 2.63-21.98-1.3-21.65 0 5.1 11.32-12.7.36-15.9-2.52-9.22-8-21.7-8.1-33.38-10.67-7.76-.9-6.07.53-2.62 4.45-19.98-.76-18.93-3.68-46.04-3.22-5.97-2.1-10.44-5-12.93-8.93-1.54-7.14-19.65-9.14-24.2-9.17-14.42-1.07-19.85-5.07-34.5-5.63zm-954.76 1.4c-7.16-.16-37.9 6-38.83 8.5 2.8-.7 25.16 6.04 26.65 7.4 3.5 4.97 13 1.26 14.55 1 5.45-.9 13.66-1.88 18.23-2.12 11.3.27 26.8-7.5 7.57-6.6 3.32-4.38-.6-4.57-3.9-3.6-7.64 2.07-3.48 5.9-9.2 6.02-6.5.1-6.4-4.08-12.9-4.83-8.85.26-1.23-3.32.45-3.7 5.22-1.6-.98-2.07-2.62-2.06zm793.92 4.4c-6.2 3.27-24.42.52-28.13 4.45-1.65 2.5-10.72 2.77-10.4 5.1-3.4 9.34-6.4 9.9-11.44 18.9 2.04 5.64 30.3 11.64 32.16 7.65-.6 1.6-19.66-6.02-12.93-12.3 3.7-2.53 6.48-10.3 11.27-11.37 7.4-4.46 13.77-5.82 19.75-7 15.3-3.03 18.34-4.97 11-6.95-3.8-.88-8.17-.37-11.27 1.53zm321.3 5.24c0 2.47 3.05 3.97 13.1 6.28 7.1.58 24.73-.1 25.86-3.74-4.97-4.7-11-2.54-19.05-4.2-4.87.25-19.83-2.25-19.93 1.66zM367.04 59.82c-5.73 3.13-17.63 6.08-21.8 10.57 35 5.7 34.32 9.56-6.45 14.38 5.86-5.98-27.73 4.15-24.85-3.72-8.1-8.14-50.8 13.1-50.8 4.73-9.2-9.44-57.38.43-62.1-10.1-24.16.16-61.97 2.65-82.55 18.63 12.33 12.26-9.73 10.3-10.92 10.57-2.96 1.06-28.02 4.8-22.88 6.96 3.2 12.04 11.3 7.2 21.5 7.37-.78 3.77-19.86 7.73-22.43 7.32-8.34 1.03-17.68 7.78-24.92 9.6-20.7 19.76 15.78 12.85-5.63 21.52-4.14 3.84 13.98-2.18 13.38 1.42 26.73-7.56-15.74 12.78-30.14 17.85-23.07 2.98-29.1 4.46-34.32 11.5 4.23 1.22 27.42-8.54 28.75-4.57 11.5-2.06 23.28-10.4 34.28-12.67 1.88-2.8 46.77-21.96 46.33-16.94 5.4-1.67 27.03-3.02 31.87-5.32 9.8 1.22 11.48.83 21.07.2 12.9-1.03 23.82 12.48 18.38 19.8 3.5 7.5-5.1 16.62 2.7 17.32 2.72-.03 8.25 15.4 5.66 19.85 3.6 10.26-7.45 9.8-7.43 10.33-5.68.72 13.6 16.37 10.35 16.13-2.66-.2-3.02.25-5.2 7.04-1.44 4.53-6.45 13.82-8.64 16.1-10.66 9.08-14.15 23.35-21.52 32.42-2.26 2.43-4.32 14.48-3.6 16.1 1.26 11.3 2.78 18.44 3.06 29.05 16.28 9.22 13.25 15.97 16.2 30.15-.56 6.28 3.32 10.54 6.15 14.87.88.4-1.94 9.95 1.92 16.46 9.92 4.54 5.38 8.35 4.17 14.57 5.67 4.3 9.5 12.76 12.45 14.44 8.4-3.04.6-8.48-1.43-17.1-.38-4.02-3.86-17.27-6.88-19.1.32-14.2-.32-7.54-5.63-15.83-2.28-3.8-.46-15 2.98-13.54 7.58 1.98 5.62 5.18 6.36 10.9 1.47 13.35-3.44 5.83 4.13 13.8 5.02 7.97 9.3 14.74 8.1 18.6 9.2 11.83 19.3 18.95 19.3 34 .2 6.22-4 8.17-.73 13.34 7 7.68 29.15 21.5 36 22.47 14.6 8.55 16.72 4.86 28.46 3.5 3.55 0 7.92 2.83 11.2 7.2 5.43 7.3 8.08 9.37 12.88 10.14 14.75 3.5 29.77 14.48 30.63 25.25 5.3 2.08 13.92 15.9 14.52 15.94 9.3 2.06 16.16 10.94 20.28 8.98 1.97-10.65 7.87-12.68 15.9-.98 5.5 9.17 3.48 32.23-2.8 35.68-5.76 3.3-3.7 9.8-8.68 11.72-7.2.12-7.72 23.74-9.47 24.13 1.36 7.7.98 7.28.9 12.42-6.54 2.4-1.04 18.17 2.32 19.92 7.04 5.07 11.76 14.7 15.35 22.66 1.38 4.45 17.3 31.14 17.16 31.94 3.86 21.15 37.8 23.6 43.75 40.38 1.4 12.83 6.32 63.25 3.8 73.1 3.46 20.95 7.15 32.94 4.8 55.95-3.08 13.2 4.02 30.85 6.9 45.17 3 12.78 5.23 26.1 4.54 35.12 12.57 27.05 29.45 43.93 38.77 52.6 10.48 3.47 14.9 10.6 29.33 10.65 9.37 4.1 12.52-1.97 14.85-3.33 11.97-3.94-6.35-2.92-17.44-13.54-3.3-6.2-13.17-11.77-13.62-18.7 8.36-6.76 1.22-9.58 8.5-16.07 8.5-9.38-10.33-11.15-12.82-15.38 12.57-8.54.17-20.94 12.7-25.42-3.94-13.48-10.73-1.5-11.7-14.68 13.5 6.4 21.12-2.25 14.13-11.7-3.9-4.52 21.47 2.5 25.88-10.14 2.56-8.5-1.33-20.12-8.9-24.46-2.34-.63-4.65-6-1.82-3.45 17.75 3.22 24.58 11.14 29.87-4.6 2.93-9.5 12.98-18.36 14.93-26.6 1.02-4.6 3.7-9.62 5.73-10.76 4.68-4.6-1.03-25.07 1.2-25.3 13-9.2 18.56-17.28 34.4-17.8 3.84.43 11.18-8.12 10.77-9.76 2.4-2.17 7.8-28 7.84-28.06 4.8-5.1-1.2-37.8 4.38-38.08 4.15-10.32 17.05-21.7 21.32-31.8 2.37-10.45.93-17.97-2.97-27.4-10.2-1.95-13.44-3.85-18.44-8.65-18.1-9.03-33.05-11.03-45.87-21.25-6.88 1.65-18.23-6-26-8.16-7.27-4.03-13.95-18.32-14.22-28.32-.4-6.23-20.95-20.82-32.26-17.72-12.95.97-13.86-8.28-18.27-13.68-3.13-4.35-15.23-6.66-13.45-9.25-4.9-4.96 1.77-15.3-1.23-14.23-13.57 3-14.65-.83-24.23 4.8-1.7-3.74-23.1-1.34-23.23-4.7-6.22-7.3-9.76-12.67-11.82-10.4-3.2 10.95-10.63 13.55-7.67-1-3.95-.07-18.5 10.56-22.83 9.56-3.54-.9-8.37 6.22-7.58 11.2-1.65 2.78-9.43 6.08-8.85 9.2-7.45-4.54-12.48-11.36-21.77-6.54-12.35 6.4-15.84-1.4-21.8-13.04.25-5.58 4.2-26.35 6.18-29.58-.06-5.64-15.1-10.46-18.9-8.16-5.15 1.95-13.2-.15-17.07.33-.85-15.08 19.87-30.4 18.18-41.12-2-3.64-21.82-.9-24 3.58-9.32 24.22-23.86 18.66-35.7 15.8-4.1-2.13-11.07-21.03-10.18-27.24 4.92-19.33 10.8-39.8 23.43-47.4 6.76-4.72 22.77-10.56 29.34-4.9 27 3.44 17.6-14.76 36.47-6.14 13.08 12.55 16.05-5.38 16.43 14.23-.7 1.34-1.17 3.37-1.03 4.52 1.33 8.97 4.7 16.1 10.26 20.1 11.23-.96 5.27-28.87 4.6-31.68-3.05-11.46 4.63-21.7 13.18-26.1 4.06-3.06 19.63-14.55 24.35-14.82 13.06-12.08 20.7-22.18 19.5-31.2-.25-1.56-.1-3.05.35-3.33.46-.3.82.08.82.83 0 1.93.55 1.76 4.7-1.64 2.02-1.67 4.2-4.4 4.86-6.04 1.06-2.7 1.68-3.1 6.1-4.02 6.07-1.24 10.98-3.32 8.37-3.54 16.15-.62 10.7-9.56 11.44-10.15 3.48-6.03 8.9-9.37 14.32-11.26 9.58.1 19.1-12.17 28.4-10.05-3.33 4.53-16.1 6.86-10.5 12.77 13.05 1.97 18.1-9.53 32.67-11.44 3.5-3.82 10.1-4.72 10.58-7.2-4.96-1.86.44-4.47-1.53-6.5-14.65 8.5-19.92 4.62-26.13-.25 4-6.44 11-16.58 2.05-16.48-8.4 2.82-4.9.54-7.64-2.3 6.9-6.57 18.86-4.37 25.58-4.34 23.8 3.05 25.9-8.65 36.86-8.8 4.86-.65.68 1.97-1.23 3.82-17.17 18.5-26.2 23.7-10.92 24.62 22.28.9 20.56.7 19.18 2.2-1.02 13.46 10.77-1.55 9.23-5.75-4.02.52-5.97-5.3-1.3-7.77 1.72-2.47-1.07-3.07-.96-5.05-8.27 4.06-7.58-2.32-13.02-3.46 6.55-5.93 5.4-2.64 8.1-7.76-7.54-2.1 1.6-4.14 3.4-10.62.67-10.2-6.5-17.3-17.62-18.78 0-14.26-6.12-19.97-4.42-37.87.3 2.17-8.53 7.3-9.56 8.27-2.95 2.68-12.5 9.97-15.97 7.28-6.84-4.74-4.8-11.87.5-16.8-8.2-3.62-8.5-3.4-15.46-11.2-8.48 1-24.6-3.98-25.78 5.04-16.37 18.17-12.96 14.62-11.88 28.53 0 2.16-3.26 8.95-5.07 10.6-7.3 5.2-15.2 8-23.8 9.52 3.4 10.33-14.52 32.53-15.68 23.4-12.02-3 9.35-20.3 3.6-25.73-14.38 2.5-20.42-9.23-29.96-12.25-5.63-2.87-9.26-2.47-14.85-1.34-.66 0 .33-4.54 1.77-8.16-.7-3.73-8.58-2.05 2.56-15.43.33 0 2.94-1.76 5.8-3.9 10.9-7.47 24.62-11.4 35.2-18.04 7.04-4.38 12.4 1.24 17.2 1.1 8.96 4.2 1.76 2.38 13.14-.13 8.93-6.77 7.76 3.1 17.42-.07.83-12.03 12.63-29.8 19.34-32.25 1.9-7.98 17.43-7.44 10.43 2.43 15.72-2.6 3.42 1.83 5.24 5.46 18.6-2.3 20.82-.35 13.12 4.75 3.43 8.1-35.26 8.24-31.07 13.94 15.2.37 25.68-3.93 26.02 7.48 3.72 5.95 31.86 14.6 31.07 10.46-5.2 1.15-8.32-8.7-1.66-7.5 6.44 4.3 5.32 1.57 10.5-3.45-11.9-13.64-2.48-16.1 7.56-10.84 7.8-2.2 14.82-6.3 21.14-11.12-5.3-4.95-18.94-8.37-23.8-13.24 20.5-15.02-26.05-19.73-20.1-26.65 0-2.5-3.1-3.85-10.05-4.35-10 .48-16.07.6-27.52-.74-5.96-2.3-22.75 2.87-29.9 9.27-11.2 8.4-7.46 16.17-.18 13.52-21.57 30.6-21.4-3.8-22.16-10.47 3.95-4.26 30.74-11.8 29.46-13.13-3.82-1.27-7.7-.76-11.72-1.3-2.45-.33-12.96 2.25-14.7 3.75-5.86 2.77-5.55 8.53-10.85 10.7-5.06 1.4-10.14 7.27-12.92 8.8-12.15 4.93-19.12 8.93-24.2 14.14-1.84 1.9-2.7 2.06-11.83 2.2-13.75-.47-17.07-3.62-2.24-4.92 3.04-3.37 14.63-5.47 15.12-9.1 0-.93-3.68-2.93-8.05-4.4-4.4-3.3 13.8-16.05 15.07-17.2-1.35-1.9-20.9 2.54-22.04 3.7-8.6 11.1-2.5 4.07-5.53.63-7.64-2.13-18.45 2.54-23.1-5.6-8.14-8.35-29.35-5.33-38.88.42zm104.92-.05c-.55 7.7-6.7 1.8-11.96 4.48-2.66 4.88 5.75 4.4 5.7 8.54 5.43 3.7 14.67.4 20.16-4.8 3.57-3.15 6.4-6.9 5.68-10.74-12.03 1.66-13.7.58-19.57 2.5zm359.85 48.76c-4.28 4.48-6.56 0-10.5-2.26-5.14-3.38-9.26 1.7-13.18 4.7-.47 2.1 17 1.68 4.63 3.6-4.1.57-5.15 1.06-4.54 2.04 8.02.77 13.04-1.08 4.8 5.6 0 .87 1.05 1.12 4.2.94 7.84.82 14.42 3.92 21.84 1.44 5.1-1.98 23.25-6.38 23.76-11.38-7.2-3.25-3.36-8.1-6.3-7.6-6.1-2.56-24.04 4.38-24.7 2.93zm224 2.5c5.83 1.68-3.8 6.72-7.72 11.4-5.58 6.74-6.38 11.17-6.7 19.2-.26 6.5 4.38 5.2 8.57 8.26.17.57 2.62.28 6.72-.82 5.87-.25 11.2-2.73 16.24-3.12 9.84 0 8.36 1.3 4.8 5.43 0 1.08-4.36 1.06-13.1-.1-11.62 1.17-7.03 8.52-14.15 3.8-2.6.37-5.12 4.1-4.64 5.85.15 6.14-3.6-.34-3.67 15.97.5 4.45-.97 6.96-4.03 6.96-.37 2-6.9 7.48-8.04 2.65 1.58-2.57-10.83-1.37-13.1 1.26-3.6 2.03-14.26 4.38-14.42 0-4.16-3.64-14.78 5.35-14.84 2.25 6.96-7.07 7.48-1.8 7.25-9.1 3.22-4.74 1.67.73 6.74.75 3.23 0 3.93-.32 4.2-1.72 6.93-4.25 10.2-5.7 11.8-4.86 1.04-1.08 3.13-7.3 2.7-7.76-3.86 5.06-1.84-2.28-1.3-8.04 4.04-2.48 17.82-8.5 6.63-13.7-8.58-4.7-4.6-4.63-4.55-10.74 1.43-4.33 7.96-10.13 12.93-10.4 5.67-3.57 8.07-10.6 10.4-13.06 3.52-1.45 7.77-1.05 11.27-.38zm-146.2 44.46c-2.6 5.02-8.23 1.16-10.76 4.77-2.3 5.23-6.05 3.9-7.77 5.3.17 3.08-2.07 5.03-3 7.93 8.88 1.2 4.86 1.1 1.76 5.06 3.94.58 7.05 7.8 8.56 8.27 7.95-2.92 5.5.12 7.87 2.76 2.74 4.67-.4 6.52-4.38 6.02-5.02.13-.47.36-5.5 5.03 12.3 1.06-10.15 7.4 2.1 8.2 4.18.23 7.33 2.1 3.5 2.1-3.4 1.9-9.57 5.9-11.72 8.8 2.42.4 12.98-1.72 13.8-2.67 3.96-1.26 12.75-2.47 17.4-2.24 3.92.2 11.17-2.26 11.17-3.82-6.66-3.94 4.23-5.4 1.84-10.4-9.7-6.88-6.17 2.82-9.17-9.3-1.52-3.7-6.2-4.46-7.25-8.12-.8-3.34-3.06-6.25-4.8-6.28-2.26-2.1 1.54-7.38 3.32-9.12 2.1-2.17.6-3.14-4.9-3.14-1.6-.2-6.75.08-5.24-1.75 11.56-4.58 7.3-14.46 3.15-7.4zm-31.54 28.82c-.2 7.04-8.42 2.68-10.14 5.68.17 3.08-.88 5.9 1.3 6.47 6.1 2.06-9.38 10.67-3.83 11 1.75 3.7 9.26 1.77 13.73-.54 4.38-2.06 9.38-1.77 10.48-5.47.35-7.57 6.14-14.43 3.68-17.47-4.5-2.78-12.04-3.54-15.2.32zM420.82 244.6c-3.3 1.27-4.84-2.27-10.75.54-5.8-9.87-17.84-1.35-29.54-2.3 13.7-11 15.15-8.38 28.1-12.27 14.78-3.33 13.2 4.16 12.2 14.03zm822.48 45.26c1.52 8 8.7 12.4 9.8 18.95 2.5 10.56.45 8.78-9 10.93-5.82-.18-20.25-7.85-21.15-13.08 1.8-10.14.22-8.82 6.72-14.08-4.15-4.08-9.06-7.72-12.66-11.57-7.16-7.8-8.3-9.45-8.3-12.04 0-2.88-2.53-6.43-5.5-7.66 5.94-12 25.23-17 29-17.55 5.38-1.96 8.34 12.47 5.34 11.33-4.95-1-11.1-2.24-10.92 4-1.47 1.6-5.2.22-3.94 2.56 2.27 2.56 7.83 5.13 7.87 8.78 13.05 8 8.56 5.14 9.35 12.18 4.06 2.5 2.83-1.27 5.7-2.23 3.62-.04 8.07 6.8 8.48 7.9-5.95 3.54-2.9.5-6.1.45-3.9-.47-3.5-.84-4.68 1.14zm-84.57-23.42c2.62 2.17 6.56 4.8 8.83 5.82 2.88 1.34 4.54 2.78 5.6 5.05 1.9 3.8 1.4 5.3-2.1 7.38-1.93 1.12-4.9 1.65-10.93 1.85-5.04.52-22.85-4.06-24.72-6.33-1.3-1.57-2-1.66-8.47-1.07-5.33.5-8.12 1.26-11.18 3.04-5.36 4.65-15.02 4.7-21.4 1.36-2.27-1.2-5.5-8.03-4.46-9.15 2.23-3.77 5.74-14.47 7.15-15.17 3.97-2.23 4.58-13.2 9.88-13.3 1.3 0 2.18.52 2.18 1.3 3.43 3.28 8.97 1.46 11.72 3.16-1.44.83-6.08 4.1-5.07 4.4 8.46 1.4 5.52 6.37 8.56 6.74 4.3-.7 8-4.2 12.42-4.23 5.5-.87-.42-2.62-2.1-3.3-1.8-.3-3.5-2.88-4.45-3.86 2-2.13 4.44-4.93 7.33-5.36 3.9-.75 7.8-2.24 11.45-2.76l4.28-.6c-1.78 1.88-6.74 2.38-7.43 3.93 1.94 2.94 2.16 2.67.53 6.37-.6 2.2 1.27 2-3 2.9 2.74.74 10.88 8.23 15.4 11.87zM415.2 249.57c-10.03 6.2-14.4 21.33-21.02 28.33-4.24 4.25-6.6 4.9-6.77 1.86 2.8-14.75 12.2-29.56 27.8-30.2zm23.45.7c1.23 0 2.32.93 2.96 2.73 2.1 6.04-1.8 9.46-4.86 4.27-5.57-3.14-7.72 10.17-11.27 12.6-3.57-3.57 5.55-14.14-9.53-3 7.22-9.98 8.72-7.02 3.9-15.53 8.1-1.07 14.9-.9 18.8-1.06zm564.1 2.5c2.8 14.02 24.8 19.97 36.42 28.52-1.43 5.4 2.62 17.8 4.02 17.9 3.95.96 3.56 5.06 2.6 7.3 0 7.74 6.1 2.43 7.87 9.88 6.02 2.05 7.74 1.5 9.17 7.28 4.48-8.44-1.72-9.27 2-8.73-.3-2.68 5.77-6.38 9.36-1.58 4.8-4.3-18.77-14.87-14.68-21.3 2.53.58 9 5.48 9.53-.2-4.58-6.46 14.93-3.12 11.7.14-4.9 4.08-3.16 8.22-.26 9.5 10 .27-6.12 9.72 5.93 10.8 5.14 1.68.5 5.85.8 7.8 6.98-1.84 4.58 3.2 5.4 4.44 4.2 1.76 1.26-5.75 4.63-4.9 4.07 2.65 13.56 6.7 12.85-.13-.34-2.55 6.73-.3 10.75 3.43 2.62 2.4 9.87 1.5 12.15-1.53 1.83-2.35 3.32-2.6 5.85-1.04 5.65-.63 2.18-.84 4.28 8.2 1.05 1.15 1.75 7 1.05 7.88-1.14 1.26-4.28 10.93-5.33 16.16-.64 7.94-10.75 10.4-15.12 7.05-3.23-2.84-12.84-1.82-16.68 1.77-8.1 3.9-17.32-5.34-26.12-3.93-6.15-3.72-13.96-4.94-20.27-9.37-1.3-2.1-9.6-.15-13.54 3.16.88 10.18 5.55 19.45-11.9 13.6-3.57-2.57-9.07-4.54-12.74-4.54-11.82-12.8-17.45-8.3-29.35-14-10.3 1.1-16.2-10.98-4.98-11.64 2.02.16-1.16-8.34-1.23-8.38 3.82-9.97-2.74-7.5-3.23-9.42-.7-2.73-4.3-3.25-8.22-1.2-6.9-3.46-20.03 5.7-24.46 2.9-2.36-1.46-4.8-1.35-16.6.62-9.88 1.65-15.73 3.7-15.73 5.46 0 .5-.62.7-1.32.4-5.45-.17-10.3 9.6-16.42 4.76-4.27-.87-9.54 1.5-12.85-.85-7.02-7.15 4.68-9.6 10.06-9.68 8.15 2.85 8.7-4.77 13.63-5.84 1.6-.9 10.15-9.6 8.46-11.03-5.5-4.5 6.8-16.05 8.83-16.35 9.75-4.04 10.66-6.1 10.56-12.77 0-4.3 9.26-5.83 14.6-2.44 6.27 2.86 13.5-5.33 18.95-8.7 13.94-.58 8.87 10.13 9.35 12.13 6.15-2.2 11.45 10.4 19.4 11.3 5.16 2 14.43 9.44 15.9 13.55 3.23 8.55-9.12 9.72-14.77 9.3-5.15-.45-6.63.02-6.63 2.08 2.62 1.62 11.55 8.16 14.67 8.95 6.06.24.5-10.87 5.5-9.35 4.24-.75 11.5-10 7.34-12.72-3.36-3.34 2.88-6.4 7.26-2.02 1.3 1.3 1.48 1.27 2.27-.46-2.07-9.9-13.6-8.26-14.08-15-12.1 1.23-12.93-10.53-19.65-14.67-4.3-2.85-4.62-10.95-1.32-12.2.86-.68 6.04-1.46 4.3-.3zm765.2.13c-7.5 5.4 7.67 4.93 5.5 13.5-.12 9.24-8.5 3.43-4 12.08.52-1.66 4.27 1.18 4.9 3.74 2.73 4.8 7.78-1.53 3.13-3.65-2.53-1.06 5.6-2.3 8.13-1.26 14.57 6.4.4-4.04 10.5-4.33 2.96-.03 5.84-1.7 5.84-3.33-4.03-2.26-3.08-5.62 0-7.8-2.23-2.78-3.76-.04-4.02 1.6-1.14.53-6.75.9-11.1-.66-7.3-.06-12.1-9.18-18.86-9.88zM460.04 264.26c3.1 0 1.88 2.45-2.1 4.2-3.6-.07-23.94 3.22-14.72-1.3 4.9-.87 13.32-2.86 16.83-2.9zm518.42 7.37c-1.52 2-4.68 2.5-5.77 4.7-.82 4.97 4.85 8.06 1.58 10.23-2.1 1.8-6.97-1.36-3.5 4.34 2.07 3.5-1.84 9.2 1.05 11.58 3.16 2.1 3.16-1.23 5.7-1.3 1.74.7 2.26-.88 2.52-8.4.18-4.98 0-6.15-1.4-7.15-2.3-3.2.32-6.7.35-10.8 0-2.3-.17-3.23-.52-3.2zm-537.04 1.44c-4.57 3.23-21.62 12.37-27.02 9.48-1.28-1.43 4.2-2.9 8.52-5.1 9.37-2.8 10-2.6 17.04-4.1.77-.17 1.25-.28 1.47-.28zm1336.87 16.1c-.4 7.85 8.8 14.15 4.8 20.52-7.56 13.62-8.7 2.24-11 3.8-3.02 3.92 6 3.74-.88 8.42-1.96 2.03 1.2 3.66.17 5.2-2.6.78-5.12-.62-7.78 0-2.16 1.1-11.36.08-11.45 2-4.45 4.38-6.16 7.6-8.92 12-3.32 2.62-5.4 4.1-2.8 6.93 4.17 2.77 6.13 5.67 7.78 11.43 1.7 2.2 4.32 3.45 5.95 1.75 2.85-5 1.95-8.5 1.4-14.47-.5-4.47 9.6 7.13 7.6 1.75-.02-9.8 7.64 1.77 6.82-8.65.38-4.7 4.4 3.47 7 4.05 3.7-4.27 4.22-6.17 9.68-8.44 6.5.57 2.4-7.4 5.33-1.94 5.12 5.4.82-6.6 5.94-1.5 4.15 2.77 4.57-5.84 3.15-7.48-3.1-4.32-1.2-9.38-4.37-13.1-3.2-3.76-.44-3.18 1.75-4.32-.77-11-10.24-15.1-13.1-22.5-6.38-5.68-6.25 2.83-7.08 4.56zm-642.73 37.36c-4.04.65-8.23 3.75-12.5 4.12-2.44 0-1.83 2.7.97 4.13 4.4 1.93 4.86-.9 8.66-2.38.42-1.96 3.05-4.95 2.88-5.87zm-69.2 2.32c.22 3.72 19.85 5.43 17.92 1.8-4.45-.96-17.47-5.28-17.9-1.8zm634.23 83.05c-3.68 11.32 1.05 11.23 3.58 18.24 2 2.7 2.63-4.3 3.06-5.47.7-1.98 1.4-6.67 1.58-10.42 1.16-11.6-5.26-10.18-8.2-2.35zm-1318.1 9.23c-1.56 0-2.94.14-4.02.43-1.44.4-4.45 1.2-6.72 1.75-5.1 1.1-13.25 8.03-9.1 8.9 15.25-3.98 13.98-2.34 25-1.95 10.14 2.8 17.9 8.5 18.86 15.4-.57 1.47 17.84 1.08 21.7-.47l2.6-1.03c-3.55-1.85-11.43-7.67-13.3-8.25-3.7-1.1-8.9-5.52-8.9-7.54 0-.56-.25-.8-.55-.5-6.73.86-15.25-6.6-25.6-6.73zm1253.6 24.4c-6.4-.84-8.55 10.02-4.12 12.54 9.35 3.3 9.12-4.18 12.32-9.72 1.48-5.3-5.36-3.05-8.2-2.8zm-1199.92.28c-3.13 1.42-3.32 2.8-.4 2.8 8.88 13.17-7.74 4.37-9.73 7.94 2.13 7.94 14.53 1.58 17.7 5.43l1.8 2.43c5-7.87 10.42-6.72 18.77-4.45 5-6.4-5.55-9.22-6.78-10.8-2.58-2.17-18.6-4.58-21.37-3.34zm1272.18 12.84c-1.26 2.5 2.26 18.18-.1 15.07-2.78-3.45-3.13-.57-.86 6.45 2.44 4.4 1.97 7.8 3.15 11.25-.1 3.04 3.4 5.78 5.24 9.34 1.92 3.68 3.23 4.4 4.63 2.46 1.47-1.95.77-5.63-1.4-7.53 4.72-4.5 13.05 6.76 13.1 8.26 0 2.4.26 3.24.78 2.43 2.56-1.74 7.24 3.72 4.8-1.08-1.57-2.7.2-3.84.7-6.18-1.57-3.43-.84-2.67.53-4.97.97-.58 1.06-1.17.27-2.62-1.22-2.15-2.7-2.44-2.7-.5-2.58 2.22-8.3-3.1-11.7-2.7-5.12.32-3.35-2.85.34-2.8 0-.87-3.05-2.78-4.54-2.8-3-.96-2.4-6.94.18-7.02 5-5.54-.1-10.57-.18-15.83.5-3.47-10.6-6.4-12.23-1.2zm-1306.07 1.9c5.4 4.54 5.62 1.2 9.83 1.16 6.3-4.92-18.48-7.28-9.84-1.15zm71.1-1.32c1.1 3.72 15.1 2.46 11.13-1.04-2.68-1.96-10.7-2.65-11.15 1.04zm1265.72 43.6c7.86 15.3-.55 10.16 9.34 20.3 1.45 5.96-.52 5.35-4.1 3.23-.75 3-2.3 9.22-5.24 5.92-2.4-2.44-4.76-1.04-6.12 1.48-4.53 3.15-6.87 4.46-6.3 9.88 4.47-.25 6.96-1.46 7.6-2.4 3.2.24 2.98-3.62 4.73-2.68 3.25 3.66.52 9.05 4 11.93 3.77 1.54 8.6 7.43 8.83 4.62 1.96-5.16-1.5-10.4.52-10.9 2.27.37 1.7 2.85 2.9 4.48 5.04 1.24.74-20.12-1.5-22.66-.52.3-.6-.85-.17-2.78-4.52-6.47-5.48-5.37-5.77-17.1 1.94-4.74-8.68-6.68-8.72-3.33zm-15.1 3.77c-.27 1.96 1 5 .86 7.44 9.1 5.6 1.2 5.83 3.94 10.56.97 1.57 2.77 1.78 3.66 3.06 1.68-5.02 5.94-2.25 9.6-3.57 1.1-6.58-2.84-12-8.1-10.86-2.7-.8.04-4.33-2.63-4.36-2.75-.13-4.76-1.84-7.33-2.3zm-14.6 3.4c-3.25 1.7-2.4 5.66-4.54 8.7-.37 5.73-6.6 6.74-9.35 11.88-1.3 1.42-.5 5.8.86 3.47 4.14-3.06 9.56-14.5 14.24-15.67 2.36-.45 2.7-2.2.53-2.76-2.7-1.85-1.22-4.02 0-4.9 0-.46.6 1.05-1.75-.73zm-262.2 12.23c-3 4.2-.42 4.42-2.54 5.8 2.5 3.78.74 9.57 1.4 13.6 1.1 6.16 1.96 12.7 8.65 9.4 4.53-2.28 5.67-3.76 5.67-7.48 0-3.56-3.5-11.9-5.77-13.8-3.6-3.36-3.7-7.06-7.43-7.52zm242.78 25.96c-5.9 10.3-11.57 11.9-19.05 20.96-12.9 2.5-17.3 18.77-23.22 12.74-.7-1.94-3.24-.38-4.9 3.06-1.48 2.9-1.4 6.1 0 13.63 5.8 12.53 4.7 3.42 6.73 17.03 19.88 2.4 6.45 11.04 29.28 10.4.06-.06 12.07-.23 12.14-.42 1.8-6.73.83-15.44 5.07-19.53 8.48-4.54.82-15.64 9.25-15.24 6.22-1.28-13.35-23.24-.8-26.53 7.25-9.3-5.13-12.95-4.88-14.94-2.82-13.04-5.1-6.3-9.6-1.17zm-140.04 9.5c6.63 10.87 15.88 17.18 23.85 26.94-.44 1.8 2.97 10.66 4.36 11.14 2.45.84 8.9 12.43 9.44 16.8 3.8 8.1 10.96 15.47 16.86 21.33 7.7 7.6 7.86 7.7 10.57 6.76 10.92-1.5.45 6.2.35 6.7 1.65 2.66 7.83.53 7.95 4.33 6.5 5 18.88 2.78 25 5.72 2.98 2.4 18.86 2.42 20 3.44 5.34.78 14.1 1.68 14.85 1.56 3.6 1.82 7.3 3.3 11.1 3.27 9.02-5.72 26.68-.67 35.2-2.82 4.5-2.86 14.92-.5 18.17-3.22 1.3-1.35-.96-1.62-9-1.12-9.5 2.26-24.44.42-29.18 1.9-.02-2.88-5.63-.68-7.7-2.44-11.25 5.33-23.14-1.38-30.82-3.56-12.5-1.6 4.38-3.77 4.2-5.15-.27-.57-2.8-.84-6.56-.72-20.62-5.44-16.24.1-20.18-.3-8.57 2.66-13.3-8-20.97-6.8-9.93 3.97-6.24-6.67-5.85-12.04.44-8.92 1.05-10.7 3.15-9.56 10.15 1.36-.28-4.97-1.3-9.88-6.38-2.28-6.64.47-3.16 3.7-4.58 1.95-9.96-8.18-13.54-10.83-3.13-2.6 3.17-6.34.1-9.2-.58-4.8-4.83-3.56-7.52-7.56-1.6-.07-6.38-5.4-6.56-5.45-7.9-2.47-14.47-8.92-19.48-13.87-4.6-3.63-5.82-10.02-12.32-10.05-4.57.2-12.83-7.7-11 .96zm199.7 25.6c-8.03 6.1-12.04 9.3-23.67 4.2-3.87-3.6-4.6 1.43-7 2.16-7.34 1.28-6.56 25.98-11.43 26.67-2.76 9.5 3.98 5.2 4.28 10.4.53 4.16-1.55 8.07-1.22 12.07 3.06 2.4 7.12-.1 7.25-3.03.17-13.65.7-17.7 2.27-18.2 2.36-.75 2.88.23 1.66 3.32 8.3 11.4 6.56 14.52 9.52 17.8 4.52 3.08 5.54-5.5 5.6-8.97-2.35-2.57-10.34-17.67-9.1-19.15 2.07-1.77 11.27-6.75 11.28-7.35 0-2.35-2.2-3.14-4.9-1.72-6.3 2.32-14.85 12.1-17.47-3.8.87-4.44 1.65-4.68 12.75-3.92 8.46-.07 24.9 1.04 21.32-9.23-.35-.9-.62-1.35-1.14-1.25zm50.16 15.56c-6.32 5.84-12.66 3.05-14.42 4 2.34 4.8 14.42 11.4 17.74 11.18 7.64 5.55-7.75 3.22-8.13 4.15-.92 2.53 13.3 13.94 10.75 9.63-1.74-3.27 2.83-1.9 3.67-1.5 1.73.84 3.92 2.14 4.8 2.9.86.74 2.8 1.47 4.18 1.62 30.47 6.03 26.05 17.2 12.4 28.97 0 1.28 7.87 1.23 8.83-.05 9.86-4.32 8.88 7.07 17.92 7.02 12.38.1 6.05 0 8.04 4.57 1.98-4 9.2-19.6 13.63-15.9 3.23 1.46 10.08 3.7 10.12 7.94 4.8 14.7 26.98 12.12 27.8 11.6-9.3-5.48-13.1-14.14-19.23-20.3-8.92-9.68 2.5-5.83 2.78-8.52-1.07-4.42-5.06-4.25-7.7-6.5-7.9-2.56-2.64-10.48-4.97-8.47-3.5-6.93-37.36-15.74-46.73-20.7-9.47-6.9-9.47 2.26-14.32 2.34-4.53.18-4.86 8.6-9.8 8.74-1.54.4-9.6-7.4-5.5-9.6 2.03-6.88-6.03-11.83-11.87-13.12zm62.34 78.63c-5.72 2.1-10.32 22.12-10.83 27.15-.6 4.6-5.26 25.02-12.33 25.26-12.12-9.5-20.07-13.5-28.13-21.2 9.07-8.6 6.93-8.4 10.92-15.46-11.78-13.75-26.54-8.2-38.18-4.34-7.18 4-12.1 19.32-15.38 19.52-13.85-8.86-21-8.35-26.2 1.2-19.32 8.03-12.84 8.22-29.45 31.98-11.03 10.02-40.75 8.24-48.75 22.24-3.7-5.8-4.78 6.78-8.2 12.18-4.16 28.77-5.3 1.68-2.63 30.22 1.5 9.1 2.95 43.76-5.77 44.23-11.26 7.5 16.84 15.5 17.56 9.6 11.1-6.44 22.68-6.83 34.77-6.2 12.02-12.78 32.25-16.67 48.05-17.9 9.88-4.55 25 13.4 23.5 20.96-2.86 5.9 18.34 4.74 21.24 11.97.92 5.38-4.54 13.45 7.07 18 10.04 4.2 20.48-2 24.37 5.33 6.06-5.73 30.83-8.37 31.45-15.3 8.28-10.67 18.53-26.7 29.96-33 3.08-2.46 10.95-10.83 11.1-13.75 7.14-19.1 16.03-33.76 16.5-45.78-.08-1.24-.16-1.32-.5-.33-3.63 6.16-12.53-10.44-11.98-14.52-10.5-7.8-3-24.6-17.65-26.84-9.86-1.36-2.44-14.43-6.03-19.76-3.2-15.07-9.94-20.63-9.87-21.86-2.03-15.5-.67-11.92-3.93-23.3-.18-.17-.44-.28-.7-.3zm-620.3 9.55c-4.03 10-11.25 16.2-13.88 21.3-3.58 4-13.32 10.15-18.08 10.2-3.2.94-1.97 4.55-3.67 7.28-3.53 14.44 4.95 17.83-4.73 31.24-3.88 3.7-2.92 30.98 4.8 31.37 4.36 3.18 8.38-.67 12.15-.87 7.1-1.54 9.53-17.63 12.23-23.7 2.84-11.04 9.02-20.64 10.84-31.92.86-17.47 16-19.25.6-44.8-.1-.12-.18-.16-.27-.1zm767.03 169.53c-.88 0-1.66.44-1.66.96 1.27 3.8.4 20.9-1.06 23.77-4.08 7.9-9.1 8.6-14.85 13.1 3.5 2.44 9.2 9.07.86 10.23-5.3 1.53-5.1-8.43-19.04 2.1-8.05 7.62-19.95 14.32-27.52 17.56-10.96 4.3-22.26 10.42-31.2 16.42-3.4 2.1-3.3 4.98.18 4.98 7.14 1.6 3.03 6.62 17.3.08 6.5-2.9 11.8-7.62 15.8-11.35 3.77-3.4 7.8-5.33 13.2-6.12 5.42-5.66 16.22-10.5 22.8-17.46 7.08-3.37 6.37 2.9 15.03-4.02 5-1.7 14.2-16.5 18.97-13.98 5.1-1.38 18.56-17.03 6.12-10.92-5.04 3.92-9.17-2.3-6.65-5.68 3.66-7.62-6.86.44-4.8-3.76 3.2-5.77 1.48-11.34-3.5-15.9zm-202.08 47.88c-2 3.95-7.6 19.25-2.7 21.32 9.88 1.9 19.3-11.46 22.8-16.87 2.62-4.27 1.57-5.23-4.28-3.57-4.05 1.7-13.1 1.4-13.03-3.05.52-2.72-2.66 2-2.8 2.18z"/></svg>