<svg width="128" height="128" viewBox="0 0 128 128" fill="none" xmlns="http://www.w3.org/2000/svg">
<g clip-path="url(#clip0_5093_1652)">
<path d="M52.7969 106.843L57.4021 84.2427L71.4836 84.5986L74.6718 106.843" fill="#BFE5D1"/>
<path d="M52.7969 106.843L57.4021 84.2427L71.4836 84.5986L74.6718 106.843" stroke="#26985D" stroke-width="4" stroke-miterlimit="10" stroke-linecap="round" stroke-linejoin="round"/>
<path d="M35.8814 46.1597C35.8814 46.1597 29.5049 89.3144 63.8672 89.3144C98.318 88.7805 91.8529 51.8543 91.8529 51.8543C91.8529 51.8543 84.2569 40.1393 81.6 34.1777" fill="#BFE5D1"/>
<path d="M35.8814 46.1597C35.8814 46.1597 29.5049 89.3144 63.8672 89.3144C98.318 88.7805 91.8529 51.8543 91.8529 51.8543C91.8529 51.8543 84.2569 40.1393 81.6 34.1777" stroke="#26985D" stroke-width="2.5" stroke-miterlimit="10" stroke-linecap="round" stroke-linejoin="round"/>
<path d="M58.9077 57.1934V66.6251H66.7012" stroke="#26985D" stroke-width="4" stroke-miterlimit="10" stroke-linecap="round" stroke-linejoin="round"/>
<path d="M78.8342 60.6635C80.0081 60.6635 80.9597 59.1098 80.9597 57.1933C80.9597 55.2768 80.0081 53.7231 78.8342 53.7231C77.6604 53.7231 76.7087 55.2768 76.7087 57.1933C76.7087 59.1098 77.6604 60.6635 78.8342 60.6635Z" fill="#26985D"/>
<path d="M48.9001 60.6635C50.074 60.6635 51.0256 59.1098 51.0256 57.1933C51.0256 55.2768 50.074 53.7231 48.9001 53.7231C47.7262 53.7231 46.7746 55.2768 46.7746 57.1933C46.7746 59.1098 47.7262 60.6635 48.9001 60.6635Z" fill="#26985D"/>
<path d="M81.9339 75.9675C84.2327 75.9675 86.0963 74.0952 86.0963 71.7855C86.0963 69.4759 84.2327 67.6035 81.9339 67.6035C79.635 67.6035 77.7715 69.4759 77.7715 71.7855C77.7715 74.0952 79.635 75.9675 81.9339 75.9675Z" fill="#BFE5D1"/>
<path d="M45.8004 75.9675C48.0993 75.9675 49.9628 74.0952 49.9628 71.7855C49.9628 69.4759 48.0993 67.6035 45.8004 67.6035C43.5016 67.6035 41.638 69.4759 41.638 71.7855C41.638 74.0952 43.5016 75.9675 45.8004 75.9675Z" fill="#BFE5D1"/>
<path d="M34.1987 53.8121C47.4831 54.4349 53.8596 43.5795 53.8596 43.5795C68.0296 45.804 76.1773 40.0204 76.1773 40.0204C76.1773 40.0204 74.7603 15.9071 52.354 22.2246C44.8262 24.3601 31.8075 30.2327 29.4163 42.9567C29.4163 42.9567 27.8223 57.7271 34.9073 63.5997" fill="#26985D"/>
<path d="M34.1987 53.8121C47.4831 54.4349 53.8596 43.5795 53.8596 43.5795C68.0296 45.804 76.1773 40.0204 76.1773 40.0204C76.1773 40.0204 74.7603 15.9071 52.354 22.2246C44.8262 24.3601 31.8075 30.2327 29.4163 42.9567C29.4163 42.9567 27.8223 57.7271 34.9073 63.5997" stroke="#26985D" stroke-width="2.5" stroke-miterlimit="10" stroke-linecap="round" stroke-linejoin="round"/>
<path d="M69.2695 77.3022C69.2695 77.3022 66.8783 79.7936 61.5645 79.7047Z" fill="#BFE5D1"/>
<path d="M69.2695 77.3022C69.2695 77.3022 66.8783 79.7936 61.5645 79.7047" stroke="#26985D" stroke-width="4" stroke-miterlimit="10" stroke-linecap="round" stroke-linejoin="round"/>
<path d="M93.0042 52.1213C89.7274 52.2103 83.4395 44.7361 81.5797 41.2659C80.4283 39.0415 72.3692 23.6481 82.9081 25.6946C88.1333 26.7624 94.5983 33.0799 97.0781 40.4651C100.266 49.8969 99.8235 60.4854 92.9157 65.3793" fill="#26985D"/>
<path d="M93.0042 52.1213C89.7274 52.2103 83.4395 44.7361 81.5797 41.2659C80.4283 39.0415 72.3692 23.6481 82.9081 25.6946C88.1333 26.7624 94.5983 33.0799 97.0781 40.4651C100.266 49.8969 99.8235 60.4854 92.9157 65.3793" stroke="#26985D" stroke-width="2.5" stroke-miterlimit="10" stroke-linecap="round" stroke-linejoin="round"/>
<path d="M35.6157 47.9395C35.6157 47.9395 29.5049 89.1366 63.7786 89.1366C98.0523 89.1366 91.9415 52.1215 91.9415 52.1215" stroke="#26985D" stroke-width="4" stroke-miterlimit="10" stroke-linecap="round" stroke-linejoin="round"/>
</g>
<defs>
<clipPath id="clip0_5093_1652">
<rect width="72.3556" height="88" fill="white" transform="translate(27.8222 20)"/>
</clipPath>
</defs>
</svg>
