<svg width="24" height="24" viewBox="0 0 24 24" fill="none" xmlns="http://www.w3.org/2000/svg">
<path d="M16.2347 9.40206C13.0769 8.40145 12.0018 11.4825 12.0018 11.4825C12.0018 11.4825 10.9232 8.40145 7.76544 9.40206C4.60764 10.4027 3.98506 13.4093 4.9148 16.7265C5.72876 19.6457 9.05785 21.1389 11.2079 20.9901C11.737 20.9535 12.2679 20.9535 12.7969 20.9901C14.947 21.1389 18.2761 19.6457 19.09 16.7265C20.0103 13.4081 19.3936 10.4039 16.2347 9.40206Z" stroke="#F5F5F5" stroke-width="1.5" stroke-linecap="round" stroke-linejoin="round"/>
<path d="M12.002 11.4823C12.002 11.4823 12.3564 9.07585 10.1909 6.73438" stroke="#F5F5F5" stroke-width="1.5" stroke-linecap="round" stroke-linejoin="round"/>
<path d="M16.53 3C16.53 3 11.8565 3.27171 12.967 6.563C16.2548 7.67467 16.53 3 16.53 3Z" fill="#F5F5F5" stroke="#F5F5F5" stroke-width="1.5" stroke-linecap="round" stroke-linejoin="round"/>
</svg>
