<svg xmlns="http://www.w3.org/2000/svg" viewBox="0 0 73.9 102">
  <defs/>
  <defs>
    <style>
			.cls-3 { fill: #ff6156; }
    </style>
  </defs>
  <g id="Layer_2" data-name="Layer 2">
    <g id="Artwork">
      <path d="M28.1 102c-9.6 0-17-2.7-21.9-8C-.3 86.9 0 77.7 0 76.4V25a7.4 7.4 0 0113.8-3.5v-8.8A7.4 7.4 0 0127.7 9V7.4a7.4 7.4 0 1114.7 0v5.3a7.4 7.4 0 0113.8 3.6v41.9l3.6-8.5a7.3 7.3 0 016.8-4.5 7.2 7.2 0 012.8.6 7.4 7.4 0 014 9.7L63.4 79c-.6 1.6-9.9 23-35.3 23z" fill="#80f088"/>
      <path d="M3 76.5V25a4.4 4.4 0 014.4-4.3 4.4 4.4 0 014.4 4.4V48a2.5 2.5 0 002.5 2.5A2.5 2.5 0 0017 48V12.6a4.4 4.4 0 014.3-4.3 4.4 4.4 0 014.4 4.3V48a2.5 2.5 0 002.5 2.5 2.5 2.5 0 002.6-2.5V7.4A4.4 4.4 0 0135 3a4.4 4.4 0 014.4 4.4V48a2.5 2.5 0 002.5 2.5 2.5 2.5 0 002.6-2.5V16.3a4.4 4.4 0 014.3-4.4 4.4 4.4 0 014.4 4.4V60a2.6 2.6 0 005 1l4.3-10.1a4.4 4.4 0 015.8-2.3 4.4 4.4 0 012.3 5.7l-9.9 23.5S52.7 99 28.1 99C1.2 99 3 76.5 3 76.5z" fill="#13245a"/>
      <path class="cls-3" d="M30.1 57.3a15.3 15.3 0 1015.4 15.3A15.3 15.3 0 0030 57.3zm0 27.6a12.3 12.3 0 1112.3-12.3 12.3 12.3 0 01-12.3 12.3z"/>
      <path class="cls-3" d="M33.8 69.3a2 2 0 00-.4-.4 6.4 6.4 0 00-.8-.4 8.4 8.4 0 00-1-.3 5.3 5.3 0 00-1-.2v3.3l.5.1a18.2 18.2 0 011.8.6 5 5 0 011.4.7 3.2 3.2 0 01.8 1.1 3.5 3.5 0 01.3 1.6 4 4 0 01-.3 1.8 3.5 3.5 0 01-1 1.2 4.6 4.6 0 01-1.5.7 8 8 0 01-1.8.3v2.1h-1.2v-2.1a9.8 9.8 0 01-2.6-.6 9.4 9.4 0 01-2.3-1.1l1.2-2.3a3.2 3.2 0 00.5.4 6.2 6.2 0 00.9.5 11.7 11.7 0 001.1.4 6.5 6.5 0 001.4.3v-3.3h-.4l-.3-.2a12.7 12.7 0 01-1.7-.5 4.5 4.5 0 01-1.1-.8 2.7 2.7 0 01-.8-1 3.6 3.6 0 01-.2-1.3 4.2 4.2 0 01.3-1.7 3.9 3.9 0 011-1.3 4 4 0 011.3-.9 6.3 6.3 0 011.8-.4v-2h1v2a7.7 7.7 0 012.4.5 9 9 0 011.9 1zm-5.8.2a1.2 1.2 0 00.5 1 4.6 4.6 0 001.3.6v-3.2c-1.2.1-1.8.6-1.8 1.5zm4.6 6.2a1.1 1.1 0 00-.5-1 5.8 5.8 0 00-1.5-.7v3c1.4 0 2-.5 2-1.3z"/>
    </g>
  </g>
</svg>
