<svg width="41" height="41" viewBox="0 0 41 41" fill="none" xmlns="http://www.w3.org/2000/svg">
<circle cx="20.8491" cy="20.94" r="19.98" fill="#EAF6F0"/>
<path d="M28.6423 20.5938L18.5294 17.9476C18.0722 17.828 17.6535 18.2467 17.7709 18.7061L20.417 28.8191C20.5519 29.3353 21.2345 29.4479 21.5307 29.0032L23.3979 26.2053L26.1529 28.9603C26.3932 29.2006 26.7871 29.1999 27.0283 28.9588L28.782 27.205C29.0232 26.9638 29.0239 26.5699 28.7835 26.3296L26.0285 23.5746L28.8264 21.7074C29.2712 21.4112 29.1586 20.7286 28.6423 20.5938Z" fill="#2AA967" stroke="#505050" stroke-width="1.5" stroke-miterlimit="10" stroke-linecap="round" stroke-linejoin="round"/>
<path d="M15.6867 15.9011L13.7227 13.937" stroke="#505050" stroke-width="1.5" stroke-miterlimit="10" stroke-linecap="round" stroke-linejoin="round"/>
<path d="M19.6525 14.5793V11.9354" stroke="#505050" stroke-width="1.5" stroke-miterlimit="10" stroke-linecap="round" stroke-linejoin="round"/>
<path d="M14.4027 19.8291H11.7588" stroke="#505050" stroke-width="1.5" stroke-miterlimit="10" stroke-linecap="round" stroke-linejoin="round"/>
</svg>
