<svg viewBox="0 0 1440 595" fill="none" xmlns="http://www.w3.org/2000/svg">
	<path d="M710.345 469.827C740.667 467.384 767.614 446.176 781.459 419.099C795.3 392.021 797.184 359.971 791.528 330.093C789.327 318.465 785.899 306.766 778.847 297.26C761.114 273.359 724.27 270.478 697.854 284.194C671.437 297.91 653.838 324.098 640.774 350.834C628.94 375.058 614.857 413.469 629.921 439.495C642.905 461.923 685.437 471.833 710.345 469.827Z" stroke="white" stroke-width="21" stroke-miterlimit="10"/>
	<path d="M0 0H1440V645H0V0Z" fill="#9EEBD5"/>
	<path d="M854.378 696C854.378 696 815.835 512.859 1146.42 360.301C1477 207.743 1549.64 91 1549.64 91H1628V696H854.378Z" fill="#3E4653"/>
	<path d="M1163 683C1163 683 1235.64 559.719 1374.65 526.009C1513.66 492.296 1446.91 342.465 1526 310V683H1163Z" fill="#B8CEF8"/>
	<path d="M393 595C393 595 247.583 546.885 204.812 419.109C162.04 291.333 0 260 0 260V595H393Z" fill="#CD4A3D"/>
	<path d="M908 696C908 696 952.445 547.74 1109.42 472.026C1266.4 396.311 1093.35 591.556 1084.84 696H908Z" fill="#9EEBD5"/>
	<path d="M1695.99 278.606C1688.39 287.148 1678.01 292.636 1667.9 298.004C1628.92 318.707 1589.87 340.716 1558.71 371.942C1527.63 403.093 1505.73 442.094 1477.37 475.732C1449.01 509.37 1410.6 538.918 1366.56 539.972C1316.13 541.179 1271.25 503.658 1248.54 458.701C1225.83 413.747 1220.87 362.243 1216.28 312.107C1214.28 290.165 1212.27 268.223 1210.26 246.281C1208.94 231.75 1207.65 216.772 1212 202.843C1216.74 187.673 1227.77 175.211 1240 165.039C1274.78 136.127 1319.96 122.839 1364.59 115.32C1454.58 100.16 1548.03 105.786 1635.54 131.636C1652.41 136.617 1669.41 142.526 1683.26 153.348C1714.15 177.483 1722.81 248.495 1695.99 278.606Z" stroke="white" stroke-width="8" stroke-miterlimit="10"/>
	<path d="M1399.89 460.411C1410.63 449.287 1416.48 434.317 1420.48 419.355C1425.57 400.283 1436.34 373.233 1431.98 358.339C1429.05 348.317 1409.42 332.726 1400.25 331.312C1385.62 329.054 1370.74 328.447 1355.98 329.504C1331.44 331.261 1304.5 339.712 1293.02 361.564C1286.53 373.908 1286.15 388.605 1287.89 402.454C1289.97 418.987 1295.01 435.391 1304.45 449.093C1326.05 480.455 1371.95 489.37 1399.89 460.411Z" fill="#CD4A3D"/>
	<path d="M294.83 498.885C279.905 481.569 267.824 460.19 268.002 437.251C268.018 435.365 268.128 433.424 268.926 431.717C269.935 429.567 271.926 428.046 274.004 426.922C288.366 419.166 306.588 427.935 317.082 440.499C327.576 453.063 333.403 468.966 343.341 481.982C349.821 490.471 388.899 531.7 358.658 535.87C349.201 537.173 337.236 528.345 329.137 524.521C315.641 518.153 304.678 510.309 294.83 498.885Z" fill="#CD4A3D"/>
	<path d="M170.966 388.845C201.288 386.403 228.235 365.194 242.08 338.117C255.924 311.04 257.805 278.99 252.149 249.112C249.948 237.483 246.52 225.784 239.468 216.278C221.735 192.378 184.891 189.496 158.475 203.212C132.058 216.929 114.459 243.117 101.395 269.853C89.5613 294.077 75.4776 332.487 90.5421 358.514C103.525 380.938 146.057 390.852 170.966 388.845Z" stroke="white" stroke-width="8" stroke-miterlimit="10"/>
</svg>
