<svg width="41" height="41" viewBox="0 0 41 41" fill="none" xmlns="http://www.w3.org/2000/svg">
<circle cx="20.1602" cy="20.94" r="19.98" fill="#EAF6F0"/>
<path d="M20.0903 11C14.5584 11 10.0703 15.4881 10.0703 21.02C10.0703 26.5519 14.5584 31.04 20.0903 31.04C25.6222 31.04 30.1103 26.5519 30.1103 21.02" stroke="#505050" stroke-width="1.5" stroke-miterlimit="10" stroke-linecap="round" stroke-linejoin="round"/>
<path d="M27.6143 23.5426L30.1134 21.0435L32.6125 23.5426" stroke="#505050" stroke-width="1.5" stroke-miterlimit="10" stroke-linecap="round" stroke-linejoin="round"/>
<path d="M15.913 19.9672C16.002 20.4209 16.1773 20.838 16.4027 21.2353C16.7366 21.8271 17.1623 22.3455 17.6214 22.8302C18.381 23.6361 19.238 24.3265 20.1116 24.9887C20.1228 24.9972 20.1339 25 20.1422 25C20.1534 25 20.1645 24.9944 20.1784 24.9831C20.8295 24.49 21.4695 23.9771 22.0677 23.4163C22.6019 22.9148 23.1083 22.3765 23.5368 21.7707C23.8484 21.3283 24.1155 20.8577 24.2769 20.3279C24.391 19.9616 24.4439 19.5868 24.4105 19.2008C24.3687 18.7415 24.2129 18.3244 23.9542 17.9524C23.5117 17.3212 22.9414 17 22.2402 17C22.1289 17 22.012 17.0085 21.8924 17.0254C21.3387 17.1014 20.874 17.3776 20.4789 17.789C20.3648 17.9074 20.2424 18.0173 20.1256 18.13C20.1256 18.1412 19.903 17.8989 19.8028 17.7975C19.3882 17.3579 18.8902 17.0817 18.2947 17.0141C18.2112 17.0056 18.125 17 18.0443 17C17.6325 17 17.2458 17.1184 16.8924 17.3663C16.2942 17.7862 15.6737 18.7612 15.913 19.9672Z" fill="#2AA967" stroke="#505050" stroke-width="1.5" stroke-miterlimit="10"/>
</svg>
