<svg xmlns="http://www.w3.org/2000/svg"
	xmlns:xlink="http://www.w3.org/1999/xlink" viewBox="0 0 970.79 1200">
	<style>
		.st1 { fill: #2e495d; }
		.st3 { fill: none; stroke: #2e495d; stroke-width: 22.6432; stroke-linecap: round; stroke-linejoin: round; stroke-miterlimit: 10; }
		.st4 { fill: #fff; }
		.st7 { fill: none; stroke: #fff; stroke-width: 14.4674; stroke-linecap: round; stroke-linejoin: round; stroke-miterlimit: 10; }
	</style>
	<path d="M708.26 453.67L207.13 587.95c-29.87 8-60.57-9.73-68.57-39.59L67.08 281.57c-8-29.86 9.72-60.56 39.59-68.56L607.8 78.73c29.86-8 60.57 9.72 68.57 39.59l71.49 266.79c7.99 29.85-9.73 60.56-39.6 68.56z" fill="#ff7b7a"/>
	<path class="st1" d="M529.34 403.52c-1.92-7.14-9.26-11.37-16.4-9.46-7.14 1.91-11.37 9.25-9.46 16.39 1.91 7.14 9.25 11.37 16.39 9.46 7.14-1.91 11.39-9.24 9.47-16.39zM667.51 366.5c-1.91-7.14-9.26-11.37-16.4-9.46-7.14 1.92-11.37 9.26-9.46 16.39 1.92 7.14 9.26 11.37 16.39 9.46 7.14-1.91 11.39-9.24 9.47-16.39zM556.78 398.78c4.35 16.22 21.02 25.85 37.24 21.5 16.21-4.34 25.85-21.02 21.5-37.24l-58.74 15.74z"/>
	<path d="M556.78 398.79c4.35 16.22 21.02 25.85 37.24 21.5 16.21-4.34 25.85-21.02 21.5-37.24l-58.74 15.74z" fill="#cd4a3d"/>
	<path class="st3" d="M357.23 145.87s24.19-90.16 63.01-70.18c38.82 19.97-63.01 70.18-63.01 70.18zM430.08 211.88s-57.51-8.76-72.85-66.01M357.23 145.87s-66.02-65.98-89.66-29.28c-23.63 36.71 89.66 29.28 89.66 29.28zM327.14 239.46s45.42-36.34 30.08-93.59"/>
	<path class="st4" d="M116.37 278.04c-2.38-8.9-4.77-17.79-7.15-26.69-.36-1.36-.41-1.26.91-1.61 3.16-.85 6.33-1.7 9.49-2.54.24-.06.48-.12.72-.19.29-.07.49.04.57.32.08.23.15.47.21.71 4.79 17.88 9.58 35.76 14.37 53.65.32 1.2.31 1.2-.86 1.51-3.19.86-6.39 1.71-9.58 2.57-.21.06-.42.11-.63.16-.36.1-.6-.01-.69-.39-.07-.27-.15-.54-.22-.8l-7.14-26.7zM134.89 282.83c4.04-.97 8.1-1.32 12.2-.47 5.64 1.16 10.01 4.2 13.29 8.88.82 1.17 1.53 2.4 2.03 3.74.23.6.19.72-.38.89-4.66 1.34-9.38 2-14.18.96-6.95-1.51-11.89-5.62-15.01-11.97-.59-1.21-.53-1.32.79-1.68.43-.13.84-.24 1.26-.35zM134.19 280.94c-.49.13-1.12.29-1.74.47-.42.12-.64-.05-.71-.46-.12-.74-.13-1.48-.09-2.22.62-9.09 4.93-15.75 13.12-19.82 2-.99 4.1-1.72 6.27-2.24.79-.19.84-.16.91.65.28 3.23-.28 6.34-1.42 9.36-2.21 5.88-6.3 10.03-11.95 12.68-1.37.63-2.78 1.19-4.39 1.58z"/>
	<path class="st1" d="M529.32 403.31c-1.92-7.16-9.27-11.39-16.42-9.47-7.16 1.92-11.39 9.27-9.48 16.41 1.92 7.16 9.27 11.39 16.41 9.48 7.16-1.92 11.4-9.27 9.49-16.42zM667.68 366.23c-1.92-7.16-9.27-11.39-16.42-9.47-7.16 1.92-11.39 9.27-9.47 16.41 1.92 7.16 9.27 11.39 16.41 9.48 7.15-1.92 11.4-9.26 9.48-16.42zM556.8 398.56c4.35 16.24 21.04 25.88 37.29 21.53 16.23-4.35 25.88-21.05 21.53-37.29l-58.82 15.76z"/>
	<defs>
		<path id="SVGID_1_" d="M556.8 398.56c4.35 16.24 21.04 25.88 37.29 21.53 16.23-4.35 25.88-21.05 21.53-37.29l-58.82 15.76z"/>
	</defs>
	<clipPath id="SVGID_2_">
		<use xlink:href="#SVGID_1_" overflow="visible"/>
	</clipPath>
	<path d="M568.62 442.67l58.82-15.76c-4.35-16.24-21.04-25.88-37.29-21.53-16.24 4.35-25.88 21.05-21.53 37.29z" clip-path="url(#SVGID_2_)" fill="#cd4a3d"/>
	<path d="M764.93 1125.61l-539.18-126.4c-32.13-7.53-52.07-39.69-44.54-71.82l67.3-287.05c7.53-32.14 39.69-52.07 71.82-44.54L859.5 722.2c32.13 7.53 52.07 39.69 44.54 71.82l-67.29 287.05c-7.53 32.13-39.69 52.08-71.82 44.54z" fill="#385369"/>
	<path class="st4" d="M296.65 661.89c2.24-9.57 4.49-19.15 6.73-28.71.34-1.46.25-1.39 1.68-1.06 3.41.79 6.81 1.59 10.21 2.39.26.06.51.13.77.19.3.08.44.28.38.59-.05.26-.1.52-.16.78l-13.53 57.72c-.3 1.28-.3 1.28-1.57.99-3.44-.8-6.88-1.61-10.31-2.42-.23-.05-.45-.11-.67-.16-.38-.09-.56-.31-.46-.72.07-.29.13-.58.2-.87 2.24-9.58 4.48-19.15 6.73-28.72zM311.66 675.72c4.29 1.12 8.29 2.85 11.72 5.72 4.71 3.93 7.31 9 8.03 15.06.18 1.51.23 3.03.03 4.54-.09.68-.18.77-.8.64-5.06-1.09-9.83-2.86-13.82-6.25-5.78-4.92-8.36-11.28-8.08-18.83.05-1.44.17-1.51 1.59-1.18.43.09.88.2 1.33.3zM311.94 673.6c-.53-.12-1.2-.28-1.88-.44-.46-.1-.58-.37-.43-.8.26-.75.62-1.46 1.04-2.13 5.17-8.24 12.58-12.33 22.34-12.04 2.37.07 4.72.46 7.03 1.06.83.22.87.27.53 1.07-1.37 3.18-3.47 5.83-6.05 8.09-5.05 4.42-10.98 6.25-17.63 5.9-1.63-.08-3.22-.27-4.95-.71z"/>
	<path class="st7" d="M577.97 709.4l-70.93 302.56M611.48 737.21l-46.69 28.95-28.95-46.69"/>
	<path class="st7" d="M602.61 775.02l-46.69 28.96-28.95-46.69M473.77 984.21l46.69-28.95 28.96 46.68M482.64 946.39l46.68-28.96 28.96 46.69M577.97 709.4l-70.93 302.56"/>
	<path class="st7" d="M611.48 737.21l-46.69 28.95-28.95-46.69"/>
	<path class="st7" d="M602.61 775.02l-46.69 28.96-28.95-46.69M473.77 984.21l46.69-28.95 28.96 46.68M482.64 946.39l46.68-28.96 28.96 46.69M693.94 896.06l-302.56-70.93M666.13 929.56l-28.96-46.68 46.69-28.96"/>
	<path class="st7" d="M628.31 920.7l-28.95-46.69 46.68-28.96M419.13 791.86l28.95 46.69-46.69 28.95"/>
	<path class="st7" d="M456.94 800.72l28.96 46.69-46.69 28.95M693.94 896.06l-302.56-70.93M666.13 929.56l-28.96-46.68 46.69-28.96"/>
	<path class="st7" d="M628.31 920.7l-28.95-46.69 46.68-28.96M419.13 791.86l28.95 46.69-46.69 28.95"/>
	<path class="st7" d="M456.94 800.72l28.96 46.69-46.69 28.95M674.61 778.71L410.51 942.5M678.64 822.07l-53.49-12.54 12.54-53.48"/>
	<path class="st7" d="M645.63 842.54L592.15 830l12.54-53.48M406.61 899.35l53.48 12.54-12.54 53.49"/>
	<path class="st7" d="M439.62 878.88l53.48 12.54-12.54 53.48M674.61 778.71L410.51 942.5M678.64 822.07l-53.49-12.54 12.54-53.48"/>
	<path class="st7" d="M645.63 842.54L592.15 830l12.54-53.48M406.61 899.35l53.48 12.54-12.54 53.49"/>
	<path class="st7" d="M439.62 878.88l53.48 12.54-12.54 53.48M624.62 992.69l-163.78-264.1M581.27 996.73l12.54-53.48 53.49 12.54M560.8 963.71l12.54-53.49 53.48 12.54M503.99 724.69l-12.54 53.49-53.49-12.54"/>
	<path class="st7" d="M524.45 757.7l-12.54 53.48-53.49-12.54M624.62 992.69l-163.78-264.1M581.27 996.73l12.54-53.48 53.49 12.54M560.8 963.71l12.54-53.49 53.48 12.54"/>
	<path class="st7" d="M503.99 724.69l-12.54 53.49-53.49-12.54"/>
	<path class="st7" d="M524.45 757.7l-12.54 53.48-53.49-12.54"/>
</svg>
