<svg xmlns="http://www.w3.org/2000/svg" viewBox="0 0 215.9 207.83">
    <path d="M132.56 137a20.83 20.83 0 01-2.84.12c-3.33-.28-6.65-.59-10-1a66.14 66.14 0 01-7.29-1.13 31.67 31.67 0 01-11.75-5.09c-2.06-1.5-4.22-2.88-6.31-4.36a17.84 17.84 0 01-4.21-4.54 127.94 127.94 0 01-7.47-13.08 79.25 79.25 0 00-11.53-16.7A61.8 61.8 0 0162.29 79a32.32 32.32 0 01-3.63-10.72c-.55-3.68-1.19-7.36-2.07-11a46.4 46.4 0 00-5.32-12.19c-1.11-1.91-2.14-3.87-3.22-5.8-.21-.37-.39-.84-.72-1a2.24 2.24 0 00-1.33-.24c-.55.09-.47.64-.41 1.06.16 1.12.37 2.23.52 3.35a84.6 84.6 0 01.3 13.41c-.08 3.31-.36 6.63-.41 9.94a23.65 23.65 0 00.43 5.32c.89 4.2 1.58 8.47 3.21 12.47C51 87 52.46 90.36 53.9 93.74a5.15 5.15 0 00.51.92c3 4 5.86 8.15 8.94 12.12a47.56 47.56 0 005.89 6.54 129.63 129.63 0 0013.3 10.75 99.08 99.08 0 0013.6 8.06 60.85 60.85 0 0012.32 4.39c2 .44 4 1.11 5.93 1.68v.21a6.84 6.84 0 01-.65.37 12.89 12.89 0 01-5.76.88c-6.71-.33-13.41-.65-20.11-1-3.72-.2-7.45-.26-11.13-.76a45.87 45.87 0 01-15.86-5.3 78.6 78.6 0 01-7.82-5 46.09 46.09 0 01-4.28-3.89c-.24-.22-.46-.47-.71-.67-2.43-1.91-4.85-3.84-7.3-5.73a67.34 67.34 0 00-17.64-9.66 59.35 59.35 0 00-9.43-2.88 18.12 18.12 0 01-7.14-3.46c-1.46-1.06-2.9-2.16-4.37-3.22a2.33 2.33 0 00-1.08-.48 1.27 1.27 0 00-1 .34 1.16 1.16 0 00.05 1.07c1 1.45 2.11 2.88 3.24 4.26 1.78 2.18 3.67 4.27 5.4 6.49s3.15 4.35 4.75 6.51q2 2.76 4.17 5.45a13.35 13.35 0 001.57 1.62c1.63 1.5 3.31 3 4.93 4.45a55.47 55.47 0 007.64 5.36c7 4.64 14.79 7.61 22.82 10.05a94.67 94.67 0 0024 3.94c3.79.15 7.57.36 11.37.52a14.6 14.6 0 002.56-.05 104 104 0 0015.89-3.09 102.12 102.12 0 0119.37-3.53 5.44 5.44 0 01.9 0l9.9 1a6 6 0 011.11.2.43.43 0 01.07.84 12.59 12.59 0 01-1.58.5c-6.3 1.53-12.64 2.93-18.9 4.61a77.92 77.92 0 00-9.29 3.33A228.24 228.24 0 0186.45 160 63.42 63.42 0 0169 162.17c-3.26 0-6.54.29-9.79.12-3-.16-5.93-.73-8.89-1.18a10.09 10.09 0 01-1.68-.63 2.92 2.92 0 00-1.37-.29 1.88 1.88 0 00-1.11.83c-.28.48.08.88.53 1.17 2 1.27 4 2.5 5.84 3.87a33.49 33.49 0 014 3.38 27.54 27.54 0 0017.91 8.2c2.65.19 5.33.17 8 .16a27.46 27.46 0 0015-4.86 111.64 111.64 0 0013.11-10.12 26.63 26.63 0 013.15-2.17c1.1-.71 2.2-1.4 3.31-2.08 5.07-3.13 10-6.47 15.23-9.31a46.26 46.26 0 0113.42-4.44 25.29 25.29 0 0111.71.91 159.39 159.39 0 0117.67 5.81c.27.11.53.25 1 .49a20.43 20.43 0 01-1.87 1.06c-4 1.71-8 3.34-12 5.09a91.21 91.21 0 00-20.31 12.44c-2.17 1.74-4.33 3.51-6.38 5.39-1.61 1.47-3.05 3.13-4.56 4.7a85.46 85.46 0 01-34.31 21.09 14.82 14.82 0 01-7.44.49 3.8 3.8 0 00-1.2-.12 1.2 1.2 0 00-.82.49 1 1 0 00.11 1 2.23 2.23 0 001.11.68 41.41 41.41 0 004.54.67 46.72 46.72 0 018.85 1.85 35.47 35.47 0 0011.15.95 12.77 12.77 0 005.57-1.75 38.24 38.24 0 0010.17-8c1.28-1.45 2.72-2.77 3.9-4.29a51.35 51.35 0 003.94-5.68 71.28 71.28 0 0112.2-16c2.18-2.07 4.38-4.13 6.61-6.15a25.7 25.7 0 016.19-4c3.86-1.88 7.73-3.75 11.66-5.49a27 27 0 0113.49-2.06 58.4 58.4 0 0018.45-1c3-.72 6.1-1.27 9.15-1.9a2.79 2.79 0 00.73-.18c.35-.2.91-.44.93-.7a1.87 1.87 0 00-.53-1.21 2.68 2.68 0 00-2.48-.76c-4.9.56-9.8 1.11-14.7 1.6-1.47.15-3 .12-4.44.18-.85 0-1.71.07-2.56.17a8.93 8.93 0 01-4.95-1c-2-1-4-1.93-6-3a12.34 12.34 0 01-2.31-1.92c-1.86-1.76-3.73-3.52-5.51-5.36a22.55 22.55 0 01-4.77-8.3 55.61 55.61 0 01-2.1-7.71 45.05 45.05 0 01.65-21.64c.91-3.08 1.09-6.38 1.74-9.55 1.28-6.22-.07-12-2.66-17.64a23.87 23.87 0 00-3.47-6.06 26.49 26.49 0 00-7.36-6.13c-2-1.06-4-2.17-5.86-3.4a33 33 0 01-3.15-2.67c-.25-.21-.46-.56-.73-.62-.46-.11-1.09-.22-1.39 0a1.5 1.5 0 00-.28 1.32 3.15 3.15 0 001 1.55c3.09 2.17 4.62 5.38 6.1 8.7a69.43 69.43 0 014.52 14.9c.3 1.48.41 3 .63 4.48.3 2 .64 4 .92 6a12.85 12.85 0 01.12 2.32c-.15 4.47-.61 9-.44 13.41.23 6.12.38 12.27 2.15 18.23a22.57 22.57 0 002.54 5.11 46.37 46.37 0 005.86 8.2 24.26 24.26 0 005.1 3.7c2.32 1.44 4.49 3.12 6.71 4.72.15.12.18.41.27.62-.23 0-.5.11-.7 0-2.28-.85-4.56-1.7-6.82-2.6-3.83-1.52-7.56-3.29-11.58-4.29a31.8 31.8 0 01-3.37-.81 22.35 22.35 0 01-3.2-1.62c-.7-.39-1.33-.89-2-1.34a22.13 22.13 0 01-6-6.5c-1.34-2.06-2.66-4.14-4-6.17a21.14 21.14 0 01-2.93-8.1 43.42 43.42 0 01-.24-13.22c.62-6 1.42-12 2.16-18a55.28 55.28 0 00.23-13.54 11.74 11.74 0 00-1.29-4.15 46 46 0 01-2.51-5.14 37.66 37.66 0 01-1.71-6.15c-.44-2.4-.58-4.84-.91-7.26a2.36 2.36 0 00-.6-1.37 1.17 1.17 0 00-2 .85 15.17 15.17 0 00.19 3.3 19.33 19.33 0 01-.52 8.72c-1.37 5.38-2.88 10.74-4 16.17a56.09 56.09 0 00-.27 21.37 71.43 71.43 0 004.75 16.56 31.93 31.93 0 001.52 3.11c2.23 3.76 4.42 7.55 6.82 11.19a39.84 39.84 0 007.87 8.48 4.61 4.61 0 01.71 1 4.41 4.41 0 01-1.27-.09c-3.17-1.32-6.38-2.57-9.47-4.06-2.45-1.19-4.74-2.73-7.13-4.05s-4.77-2.38-7-3.75a65 65 0 01-11.69-8.74 31.73 31.73 0 01-4.41-5.9c-1.93-3-3.69-6.17-5.49-9.27a17.44 17.44 0 01-1.74-6.44A112.17 112.17 0 0198.75 78a92.86 92.86 0 011.17-9.64c.64-4.74 1.4-9.45 1.93-14.2.34-3 .39-6 .5-9 .09-2.4-.67-4.67-1.2-7s-1-4.36-1.66-6.5A16.58 16.58 0 0097.94 28c-1.88-3.18-3.72-6.39-6.44-9-1.19-1.12-2.43-2.18-3.62-3.3a31.37 31.37 0 01-4.19-4.2 30.88 30.88 0 01-2.87-5.61c-.74-1.67-1.29-3.43-1.9-5.16-.18-.53-.5-.92-1-.71A1.48 1.48 0 0077 1a10.25 10.25 0 00.29 2.45c1 5 2.15 10 3.19 15.05a48.42 48.42 0 01.2 16.29A87.08 87.08 0 0079.79 48a113.28 113.28 0 004.61 30.74 93.75 93.75 0 009.34 21.68 29.66 29.66 0 012.33 5.13c1.14 3.1 2.29 6.2 4.41 8.78a26.7 26.7 0 003.68 3.76c2.53 2.06 5.14 4 7.81 5.91 1.83 1.28 3.81 2.34 5.72 3.49 3 1.8 6 3.5 8.87 5.42a44.71 44.71 0 005.79 3.65c.11 0 .18.16.27.24z" fill="#51ae73" data-name="Layer 1"/>
</svg>
