<svg width="91" height="104" viewBox="0 0 91 104" fill="none" xmlns="http://www.w3.org/2000/svg">
<rect x="9.5672" y="22.5405" width="81.4328" height="55.5224" rx="9.20773" fill="#BFE5D1"/>
<path d="M33.209 22.5405H12.2077C7.12244 22.5405 3 26.663 3 31.7483V68.8552C3 73.9405 7.12244 78.0629 12.2077 78.0629H75.2251C80.3104 78.0629 84.4328 73.9405 84.4328 68.8552V31.7483C84.4328 26.663 80.3104 22.5405 75.2251 22.5405H54.2239" stroke="#26985D" stroke-width="5.22761" stroke-linecap="round"/>
<circle cx="18.8853" cy="50.1226" r="3.92071" fill="#26985D"/>
<circle cx="43.7165" cy="50.1227" r="10.4552" stroke="#26985D" stroke-width="5.22761"/>
<circle cx="68.5476" cy="50.1226" r="3.92071" fill="#26985D"/>
<path d="M25.3284 14.6599L33.209 22.5405L25.3284 30.4211" stroke="#26985D" stroke-width="5.22761" stroke-linecap="round" stroke-linejoin="round"/>
<path d="M55.1221 96.9514C56.8464 96.9514 58.2442 95.5536 58.2442 93.8294C58.2442 92.1051 56.8464 90.7073 55.1221 90.7073C53.3978 90.7073 52 92.1051 52 93.8294C52 95.5536 53.3978 96.9514 55.1221 96.9514Z" fill="#26985D"/>
<path d="M72.295 92.7327V101.089" stroke="#26985D" stroke-width="4" stroke-miterlimit="10" stroke-linecap="round" stroke-linejoin="round"/>
<path d="M76.468 96.9058H68.1221" stroke="#26985D" stroke-width="4" stroke-miterlimit="10" stroke-linecap="round" stroke-linejoin="round"/>
<path d="M84.173 2.91089V11.2671" stroke="#26985D" stroke-width="4" stroke-miterlimit="10" stroke-linecap="round" stroke-linejoin="round"/>
<path d="M88.346 7.08398H80" stroke="#26985D" stroke-width="4" stroke-miterlimit="10" stroke-linecap="round" stroke-linejoin="round"/>
</svg>
