<svg xmlns="http://www.w3.org/2000/svg" viewBox="0 0 22 22">
  <path d="M8 16.31a8.853 8.853 0 004.953 1.5c2.382 0 4.62-.928 6.305-2.612a8.858 8.858 0 002.61-6.305c0-2.381-.927-4.62-2.61-6.304a8.858 8.858 0 00-6.305-2.611c-2.381 0-4.62.927-6.304 2.611a8.857 8.857 0 00-2.612 6.305c0 1.81.537 3.537 1.533 5L.18 19.288c-.253.253-.198.719.123 1.04l1.26 1.26c.321.321.787.376 1.04.123L8 16.311zM6.454 8.893c0-3.584 2.916-6.5 6.5-6.5s6.5 2.916 6.5 6.5c0 3.585-2.916 6.5-6.5 6.5a6.508 6.508 0 01-6.5-6.5z" />
</svg>
