<svg xmlns="http://www.w3.org/2000/svg" xmlns:xlink="http://www.w3.org/1999/xlink" viewBox="0 0 68 63">
  <defs/>
  <g data-name="Layer 2">
    <path d="M21.2 58.83a2 2 0 01-1-.28 2.2 2.2 0 01-1.08-2 4.19 4.19 0 01.27-1.07c.2-.55.41-1.1.62-1.65s.51-1.38.77-2.07a10.84 10.84 0 00.56-3.56 22.7 22.7 0 01.29-3.7 30.76 30.76 0 012.49-8.16 29.87 29.87 0 011.71-3.15A18.62 18.62 0 0124 34.8a14.07 14.07 0 00-2.42 2.47 6.26 6.26 0 00-1 2c-.36 1.16-.67 2-1 2.88a13.65 13.65 0 01-2.09 3.37c-.21.27-.42.54-.62.82s-.27.35-.4.52a2.28 2.28 0 01-1 .82 2.42 2.42 0 01-.88.17 2.35 2.35 0 01-.71-.11 2 2 0 01-1.29-2.56c0-.15.09-.29.13-.43s.09-.27.13-.41a17.5 17.5 0 00.47-2.66l.06-.47.12-1.16q.06-.71.15-1.41a8 8 0 01.35-1.71l.2-.54a16.06 16.06 0 011.24-2.82c.37-.62.75-1.24 1.13-1.85l.37-.61a2.88 2.88 0 01.42-.54l.75-.77c.66-.67 1.34-1.36 2-2a13.77 13.77 0 012-1.66l.07-.05a36 36 0 013.95-2.32l.49-.23h-.8a10 10 0 00-3.48.64 20.08 20.08 0 00-2 .88 7.23 7.23 0 00-.62.41c-.14.1-.28.21-.42.3l-.33.22-.46.27c-.54.31-1.09.63-1.64.93a19.09 19.09 0 01-5.4 2 17.54 17.54 0 01-2.82.42 2.89 2.89 0 00-1.19.4l-.51.27-.74.4a2.46 2.46 0 01-1.12.29h-.03a2.15 2.15 0 01-1.79-1.14 2.12 2.12 0 01.38-2.37c.38-.39.73-.73 1.07-1.05l.71-.62c.3-.27.6-.53.9-.81s.55-.55.82-.83l.6-.62c.44-.43.87-.86 1.32-1.28a7 7 0 01.69-.54c.22-.14.44-.28.65-.43l.77-.51a10.9 10.9 0 011.93-1l.5-.23a24.58 24.58 0 016.73-1.85 25.73 25.73 0 013.74-.28 28.18 28.18 0 013 .17h.19a17.61 17.61 0 00-2.55-.58l-1-.18c-.49-.09-.95-.17-1.39-.21a9.41 9.41 0 00-1 0h-1L20 16.6a3.42 3.42 0 01-.57.06 2 2 0 01-.73-.13 2.31 2.31 0 01-1.33-1.29 2.06 2.06 0 011.12-2.64l.44-.19c.4-.18.77-.35 1.13-.54a6.83 6.83 0 00.91-.56 9 9 0 015.4-1.8h.73c.72.06 1.41.16 2.08.26h.11a8.94 8.94 0 014.59 2.25 30.37 30.37 0 013.16 3.29 3.91 3.91 0 00.33.29l.21.19c.24.22.49.42.73.63l1.06.9c.82.71 1.6 1.38 2.41 2a10.09 10.09 0 002.78 1.38 3.47 3.47 0 001.22.19 9.39 9.39 0 001-.07h.32A25.38 25.38 0 0142.63 17c-.46-.49-1-1.08-1.51-1.72-.3-.36-.55-.73-.79-1.08l-.27-.39a19.62 19.62 0 00-3.17-3.39 19.86 19.86 0 00-4.16-2.74 2 2 0 00-.93-.21h-.28a2.54 2.54 0 01-.68-.1A2.15 2.15 0 0129.43 6a2.1 2.1 0 01.62-2.22 2.36 2.36 0 011.43-.57h1.74a12.62 12.62 0 001.55-.13h.08a9 9 0 011-.06 12.42 12.42 0 012.42.26 5.1 5.1 0 012.12 1 11.27 11.27 0 012.72 2.9l.29.42a10.27 10.27 0 01.6.91 14.55 14.55 0 01.9 1.83 16.61 16.61 0 002.26 4.11c.47.61.95 1.21 1.43 1.8a4.78 4.78 0 001 .9c.82.56 1.77 1.21 2.72 1.81a5.15 5.15 0 002.51.76 16.84 16.84 0 015.25 1.1l1.49.55.73.26a2.12 2.12 0 01.68.35A2 2 0 0164 23.82a2.34 2.34 0 01-.84 1.58 2.44 2.44 0 01-1.57.56 2.69 2.69 0 01-.74-.1l-3.69-1c-.19 0-.39-.08-.58-.11l-.45-.08-.72-.16a1 1 0 00-.29.06c-.48.14-1 .3-1.5.49l-.19.13-.3.21c-.47.33-.92.65-1.35 1a4 4 0 00-1 1.34A12.68 12.68 0 0050 29.4a9.92 9.92 0 00-.57 4.69 12.68 12.68 0 01.09 1.8v.87a9 9 0 01-1.65 5.52l-.08.13a7.29 7.29 0 01-1.39 1.69 8.86 8.86 0 01-2.68 1.62c-.42.15-1 .35-1.48.58a2.76 2.76 0 00-.37.24l-.26.17a2.08 2.08 0 01-1.1.45h-.31a2.26 2.26 0 01-1.2-.3 2.41 2.41 0 01-1 1.32 2.14 2.14 0 01-3.31-2A5.34 5.34 0 0135 44.9a3.38 3.38 0 00.1-1.45c0-.34-.08-.69-.11-1-.12-1.09-.24-2.22-.3-3.35a16.5 16.5 0 01.83-6.19 20.6 20.6 0 012-4.46l.08-.13.25-.38a13.55 13.55 0 00-2.63 1.45 6.37 6.37 0 00-1 1c-.45.53-.89 1.07-1.34 1.65l-.37.46a3 3 0 00-.34.86v.1a26.37 26.37 0 00-.93 4.54 13.39 13.39 0 00-.06 1.59v4.48c0 .83-.11 1.39-.18 2l-.05.39a6.53 6.53 0 01-.55 1.89c-.05.11-.09.22-.14.32-.24.61-.45 1.16-.71 1.71a6 6 0 01-.78 1.28l-.09.11a11.4 11.4 0 01-2.27 2.29l-.55.37-.5.33-.39.26a4.36 4.36 0 00-.58.43 5.64 5.64 0 00-.61.87l-.1.16c-.16.25-.3.53-.46.84l-.15.29a2.06 2.06 0 01-1.87 1.22zM44.64 27l-.18.21c-.37.42-.75.85-1.13 1.26a4 4 0 00-.67 1.34 9.46 9.46 0 00-.46 2.83c-.05 1.12-.07 2.28-.1 3.39v1.25c0 .49 0 1-.07 1.4l.15-.41c.06-.19.11-.38.16-.57s.09-.31.14-.47.13-.44.2-.66.18-.56.26-.83a1.57 1.57 0 00.06-.24c0-.37.07-.73.1-1.1.08-.8.15-1.64.31-2.48v-.23a19.71 19.71 0 011.34-4.78z" fill="#fff"/>
    <path d="M40.31 24a5.86 5.86 0 00-.73-.13c-.86-.06-1.72-.11-2.59-.13a17.4 17.4 0 00-1.91 0 8.2 8.2 0 00-3.2.86c-.58.3-1.19.58-1.78.87a4.67 4.67 0 00-1.25 1 31 31 0 00-2.42 3.06 20.38 20.38 0 01-3.58 3.84 16 16 0 00-2.73 2.79 8.18 8.18 0 00-1.34 2.61c-.28.92-.59 1.84-1 2.73A12.31 12.31 0 0116 44.42c-.36.44-.7.9-1.05 1.36-.06.08-.13.2-.22.24a.63.63 0 01-.36 0c-.14-.05-.1-.18-.07-.29.09-.28.18-.56.26-.84a22 22 0 00.59-3.42c.11-.85.16-1.71.27-2.56a6.16 6.16 0 01.31-1.35A19.23 19.23 0 0117 34.5c.48-.81 1-1.62 1.49-2.43a1.06 1.06 0 01.16-.21c.92-.93 1.81-1.87 2.75-2.77a12.22 12.22 0 011.76-1.45A33.73 33.73 0 0127 25.39a25.49 25.49 0 013.79-1.54 15.5 15.5 0 013.32-.66c.53 0 1.05-.13 1.58-.2v-.06s-.1-.08-.16-.11a3.2 3.2 0 00-1.44-.45l-5.19-.5c-.95-.09-1.91-.22-2.87-.23a11.92 11.92 0 00-4.26.75 21.42 21.42 0 00-2.19 1 11.38 11.38 0 00-1.25.84l-.2.14-2.09 1.19a17.37 17.37 0 01-4.88 1.8 15.45 15.45 0 01-2.53.38 4.79 4.79 0 00-2 .62c-.41.21-.82.44-1.24.65a.62.62 0 01-.29.09c-.09 0-.22-.06-.25-.13a.27.27 0 010-.27c.32-.33.65-.66 1-1 .54-.49 1.1-.95 1.63-1.45s1-1 1.46-1.49.85-.83 1.28-1.24a3.1 3.1 0 01.46-.35c.48-.32 1-.63 1.43-1a14.51 14.51 0 012.16-1.08 22.41 22.41 0 016.23-1.7 24 24 0 016.28-.1l2.93.3a3.53 3.53 0 01.65.11 26.45 26.45 0 014 1.39 25.58 25.58 0 004.84 1.65.85.85 0 00.23 0l2.57.12h.29a.17.17 0 00.11-.09.13.13 0 00-.06-.12 2.69 2.69 0 00-.38-.19c-1.56-.63-3.13-1.23-4.67-1.9a22.08 22.08 0 01-2.25-1.2 56.18 56.18 0 00-5.73-3.06A15.88 15.88 0 0025 15.13c-.84-.13-1.66-.32-2.5-.4a22.45 22.45 0 00-2.32 0 2.36 2.36 0 00-.46.1.75.75 0 01-.36 0 .49.49 0 01-.25-.26c-.06-.13 0-.22.18-.28.55-.25 1.1-.49 1.64-.76a8.63 8.63 0 001.16-.72A7.13 7.13 0 0127 11.38c.68 0 1.37.15 2.05.26a7.09 7.09 0 013.66 1.81 28.91 28.91 0 013 3.09 5.71 5.71 0 00.72.67c.25.23.51.45.77.66 1.18 1 2.32 2 3.54 3A12.23 12.23 0 0044 22.48a6.48 6.48 0 003 .21 42.45 42.45 0 004.75-.81l.28-.09a4.83 4.83 0 00-.44-.34c-1-.59-1.93-1.16-2.88-1.76a23.58 23.58 0 01-4.73-4c-.49-.52-1-1.06-1.43-1.62s-.66-.92-1-1.38A22.4 22.4 0 0038.11 9a21.85 21.85 0 00-4.55-3 3.94 3.94 0 00-1.88-.41.8.8 0 01-.31 0 .32.32 0 01-.2-.16.27.27 0 01.07-.24.58.58 0 01.31-.13 11.81 11.81 0 011.19 0 11.36 11.36 0 002.33-.14 9 9 0 012.93.21 3.18 3.18 0 011.36.65 9.75 9.75 0 012.3 2.45c.27.42.59.81.84 1.24a13.34 13.34 0 01.79 1.61 18.61 18.61 0 002.51 4.56c.48.61 1 1.22 1.46 1.82a6.84 6.84 0 001.43 1.26c.92.63 1.84 1.25 2.78 1.85a7.05 7.05 0 003.38 1 15.09 15.09 0 014.68 1c.75.29 1.51.55 2.27.83a1 1 0 01.18.07c.08.07.22.15.21.22A.51.51 0 0162 24a.7.7 0 01-.66.1c-1.24-.33-2.47-.66-3.7-1-.38-.1-.76-.14-1.14-.22-.21 0-.43-.08-.64-.14a2.34 2.34 0 00-1.31.08c-.55.17-1.11.34-1.65.54a3.28 3.28 0 00-.66.41c-.54.38-1.09.75-1.61 1.16a5.78 5.78 0 00-1.54 1.94 14.57 14.57 0 00-.83 1.9 11.68 11.68 0 00-.66 5.56c.12.82 0 1.68.09 2.51a7.21 7.21 0 01-1.36 4.42 6.33 6.33 0 01-1.11 1.42A7 7 0 0143.07 44c-.55.19-1.1.4-1.63.64a8.64 8.64 0 00-.91.57c-.07 0-.13.12-.21.13s-.29 0-.35-.06a.36.36 0 010-.35.71.71 0 01.31-.35 5.05 5.05 0 001.89-2 18.12 18.12 0 001.73-3.64c.13-.37.21-.75.33-1.13s.31-1 .46-1.51a2.94 2.94 0 00.12-.59c.13-1.15.19-2.31.4-3.45a18.84 18.84 0 011.24-4.58 6.07 6.07 0 01.84-1.21 12 12 0 011.82-1.88 6 6 0 011.44-.75c.65-.28 1.27-.63 1.9-1 0 0 .06-.09.09-.14a.39.39 0 00-.18 0c-.61.13-1.23.26-1.84.41a25.59 25.59 0 01-3.13.66 8.65 8.65 0 00-.89.08 5.66 5.66 0 00-.88.29 4.83 4.83 0 00-.56.27 5.62 5.62 0 00-1.78 1.43c-.42.48-.84 1-1.27 1.43a5.35 5.35 0 00-1.06 2 11.1 11.1 0 00-.57 3.38c-.06 1.56-.09 3.12-.12 4.68a14.49 14.49 0 01-.46 3.47 3 3 0 01-.49 1 12.58 12.58 0 00-.86 1.2 10.2 10.2 0 00-.67 1.51c-.2.59-.33 1.21-.51 1.82a.59.59 0 01-.2.33.31.31 0 01-.48-.29 3.8 3.8 0 01.18-.84 5.21 5.21 0 00.2-2.25c-.15-1.43-.33-2.86-.41-4.3a14.71 14.71 0 01.74-5.5 18.26 18.26 0 011.84-4c.17-.26.32-.51.51-.75.72-.87 1.42-1.76 2.17-2.6a10.08 10.08 0 012.34-1.87 1.26 1.26 0 00.22-.24 1.27 1.27 0 00-.33 0c-.86.22-1.73.42-2.58.68-.67.21-1.31.52-2 .77s-1.31.42-1.94.69a17.21 17.21 0 00-3.33 1.79 8.62 8.62 0 00-1.35 1.35c-.61.7-1.18 1.43-1.76 2.16a4.56 4.56 0 00-.67 1.54 29.85 29.85 0 00-1 4.85 23.38 23.38 0 00-.07 2.51v3.71c0 .77-.13 1.54-.21 2.31a6.72 6.72 0 01-.58 1.74c-.21.54-.42 1.08-.67 1.6a3.91 3.91 0 01-.54.9 9.92 9.92 0 01-2 2c-.34.24-.7.47-1 .71a8 8 0 00-1.23.91 8.44 8.44 0 00-1 1.33c-.25.4-.46.83-.68 1.25-.07.13-.16.22-.29.14a.35.35 0 01-.18-.27 2.69 2.69 0 01.16-.62c.46-1.24.94-2.48 1.39-3.73a12.5 12.5 0 00.67-4.16 21.71 21.71 0 01.27-3.42 29.49 29.49 0 012.34-7.69 24.5 24.5 0 013.2-5.2 7.48 7.48 0 00.79-1.22 7.58 7.58 0 011.46-2.08 6.62 6.62 0 011.09-.82c.72-.43 1.47-.84 2.22-1.22.52-.26 1.07-.45 1.6-.68.83-.34 1.67-.66 2.48-1.05a11.69 11.69 0 011.62-.71l.07-.05z" fill="#4fa04d"/>
  </g>
</svg>
