<?xml version="1.0" encoding="UTF-8" standalone="no"?>
<!-- Created with Inkscape (http://www.inkscape.org/) -->

<svg
   xmlns:dc="http://purl.org/dc/elements/1.1/"
   xmlns:cc="http://creativecommons.org/ns#"
   xmlns:rdf="http://www.w3.org/1999/02/22-rdf-syntax-ns#"
   xmlns:svg="http://www.w3.org/2000/svg"
   xmlns="http://www.w3.org/2000/svg"
   version="1.1"
   width="115"
   height="125"
   id="svg2"
   xml:space="preserve"><metadata
     id="metadata8"><rdf:RDF><cc:Work
         rdf:about=""><dc:format>image/svg+xml</dc:format><dc:type
           rdf:resource="http://purl.org/dc/dcmitype/StillImage" /><dc:title></dc:title></cc:Work></rdf:RDF></metadata><defs
     id="defs6" /><g
     transform="matrix(1.25,0,0,-1.25,0,125)"
     id="g10"><g
       id="g3517" /><g
       transform="translate(-269.1995,-478.28075)"
       id="g4158"><path
         d="m 359.936,548.185 -28.542,0 0,27.815 28.542,0 0,-27.815 z"
         id="path54"
         style="fill:#2c3792;fill-opacity:1;fill-rule:nonzero;stroke:none" /><path
         d="m 359.937,518.388 -28.542,0 0,27.816 28.542,0 0,-27.816 z"
         id="path56"
         style="fill:#2c3792;fill-opacity:1;fill-rule:nonzero;stroke:none" /><path
         d="m 329.34,518.388 -28.542,0 0,27.815 28.542,0 0,-27.815 z"
         id="path58"
         style="fill:#2c3792;fill-opacity:1;fill-rule:nonzero;stroke:none" /><path
         d="m 359.937,488.78 -28.542,0 0,27.657 28.542,0 0,-27.657 z"
         id="path60"
         style="fill:#2c3792;fill-opacity:1;fill-rule:nonzero;stroke:none" /><path
         d="m 329.34,488.818 -28.542,0 0,27.618 28.542,0 0,-27.618 z"
         id="path62"
         style="fill:#2c3792;fill-opacity:1;fill-rule:nonzero;stroke:none" /><path
         d="m 298.941,488.78 -28.542,0 0,27.618 28.542,0 0,-27.618 z"
         id="path64"
         style="fill:#2c3792;fill-opacity:1;fill-rule:nonzero;stroke:none" /><path
         d="m 290.7441,492.96 c -0.881,-0.454 -2.728,-0.908 -5.058,-0.908 -5.398,0 -9.433,3.404 -9.433,9.704 0,6.015 4.063,10.044 10.002,10.044 2.358,0 3.892,-0.511 4.546,-0.851 l -0.625,-2.015 c -0.91,0.454 -2.246,0.794 -3.836,0.794 -4.49,0 -7.472,-2.865 -7.472,-7.888 0,-4.709 2.699,-7.688 7.33,-7.688 1.534,0 3.068,0.312 4.063,0.794 l 0.483,-1.986 z"
         id="path76"
         style="fill:#ffffff;fill-opacity:1;fill-rule:nonzero;stroke:none" /><path
         d="m 307.583,511.1597 c 1.506,0.255 3.296,0.426 5.256,0.426 3.552,0 6.08,-0.852 7.757,-2.384 1.733,-1.561 2.727,-3.774 2.727,-6.866 0,-3.121 -0.994,-5.675 -2.756,-7.434 -1.818,-1.788 -4.773,-2.753 -8.495,-2.753 -1.79,0 -3.239,0.086 -4.489,0.227 l 0,18.784 z m 2.472,-16.911 c 0.625,-0.085 1.534,-0.113 2.5,-0.113 5.313,0 8.154,2.951 8.154,8.115 0.028,4.511 -2.528,7.377 -7.756,7.377 -1.279,0 -2.245,-0.114 -2.898,-0.256 l 0,-15.123 z"
         id="path80"
         style="fill:#ffffff;fill-opacity:1;fill-rule:nonzero;stroke:none" /><path
         d="m 340.6816,511.4434 10.313,0 0,-2.071 -7.813,0 0,-6.356 7.217,0 0,-2.043 -7.217,0 0,-8.654 -2.5,0 0,19.124 z"
         id="path84"
         style="fill:#ffffff;fill-opacity:1;fill-rule:nonzero;stroke:none" /><path
         d="m 310.4424,541.3223 0,-11.349 c 0,-4.257 1.904,-6.072 4.461,-6.072 2.812,0 4.659,1.872 4.659,6.072 l 0,11.349 2.501,0 0,-11.179 c 0,-5.873 -3.098,-8.257 -7.245,-8.257 -3.921,0 -6.876,2.213 -6.876,8.172 l 0,11.264 2.5,0 z"
         id="path96"
         style="fill:#ffffff;fill-opacity:1;fill-rule:nonzero;stroke:none" /><path
         d="m 337.7169,522.1987 0,19.124 2.727,0 6.109,-9.676 c 1.392,-2.241 2.529,-4.256 3.41,-6.214 l 0.085,0.029 c -0.228,2.553 -0.284,4.88 -0.284,7.859 l 0,8.002 2.33,0 0,-19.124 -2.501,0 -6.08,9.704 c -1.335,2.128 -2.613,4.313 -3.552,6.384 l -0.085,-0.028 c 0.143,-2.413 0.171,-4.71 0.171,-7.889 l 0,-8.171 -2.33,0 z"
         id="path100"
         style="fill:#ffffff;fill-opacity:1;fill-rule:nonzero;stroke:none" /><path
         d="m 356.7871,568.0732 c 0.397,-0.563 0.69,-1.389 0.69,-2.313 0,-1.313 -0.677,-2.046 -0.779,-3.224 -0.056,0.047 -0.047,0.114 -0.059,0.169 -0.216,0.873 -0.712,1.433 -1.183,2.068 -0.491,0.661 -0.919,1.343 -1.105,2.334 0.003,0.022 0.012,0.009 0.012,0 0.496,-0.855 1.529,-1.228 1.966,-2.152 0.145,-0.305 0.19,-0.644 0.292,-1.055 0.068,0.038 0.021,0.11 0.018,0.174 -0.056,0.699 -0.094,1.508 -0.031,2.241 0.018,0.263 0.072,0.521 0.09,0.771 0.033,0.594 -0.106,1.106 -0.34,1.5 0.013,0.047 0.085,-0.042 0.119,-0.08 0.111,-0.111 0.2,-0.285 0.31,-0.433"
         id="path104"
         style="fill:#ffffff;fill-opacity:1;fill-rule:nonzero;stroke:none" /><path
         d="m 353.3506,555.3213 c 1.216,1.059 3.232,1.347 3.924,2.965 -0.085,-0.669 -0.373,-1.207 -0.708,-1.651 -0.339,-0.458 -0.754,-0.844 -1.212,-1.179 -0.47,-0.334 -1.008,-0.584 -1.64,-0.728 -0.614,-0.149 -1.296,-0.241 -1.944,-0.432 -0.072,-0.038 0.051,0.068 0.072,0.093 0.283,0.267 0.533,0.622 0.72,0.991 0.449,0.89 0.61,2 1.127,2.822 0.259,0.415 0.547,0.779 0.826,1.144 0.018,-0.013 0.009,-0.013 0,-0.013 -0.343,-0.745 -0.339,-1.724 -0.551,-2.542 -0.203,-0.835 -0.681,-1.381 -1.203,-1.856 0.233,0.06 0.411,0.233 0.589,0.386"
         id="path108"
         style="fill:#ffffff;fill-opacity:1;fill-rule:nonzero;stroke:none" /><path
         d="m 356.2656,558.9985 c 0.661,0.78 1.644,1.385 1.817,2.661 0.183,-1.576 -0.474,-2.585 -1.207,-3.373 -0.754,-0.822 -1.842,-1.296 -2.699,-1.966 0.178,0.356 0.357,0.746 0.458,1.221 0.093,0.461 0.136,0.97 0.174,1.487 0.08,1.038 0.16,2.076 0.533,2.817 -0.046,-0.86 0.221,-1.551 0.293,-2.326 0.08,-0.855 -0.195,-1.508 -0.53,-2.055 0.119,0.026 0.157,0.162 0.221,0.238 0.304,0.415 0.601,0.894 0.94,1.296"
         id="path112"
         style="fill:#ffffff;fill-opacity:1;fill-rule:nonzero;stroke:none" /><path
         d="m 356.7695,561.6719 c 0.102,0.411 0.25,0.793 0.415,1.152 0.335,0.72 0.683,1.488 0.556,2.517 0.016,0 0.016,-0.004 0.016,-0.021 0.428,-0.911 0.399,-2.267 0.107,-3.237 -0.174,-0.585 -0.42,-0.97 -0.738,-1.373 -0.364,-0.461 -0.767,-0.932 -1.076,-1.44 0.004,0.521 0.068,0.957 -0.034,1.394 -0.08,0.385 -0.254,0.758 -0.364,1.144 -0.114,0.381 -0.225,0.788 -0.31,1.207 -0.11,0.529 -0.207,1.085 -0.178,1.712 0.183,-0.627 0.522,-1.11 0.839,-1.623 0.327,-0.534 0.568,-1.072 0.564,-1.864 -0.009,-0.301 -0.123,-0.538 -0.136,-0.809 0.102,0.059 0.098,0.186 0.119,0.279 0.076,0.305 0.144,0.64 0.22,0.962"
         id="path116"
         style="fill:#ffffff;fill-opacity:1;fill-rule:nonzero;stroke:none" /><path
         d="m 354.9561,570.0137 c 0.771,-0.449 1.344,-1.305 1.31,-2.533 -0.013,-0.623 -0.106,-1.352 0.016,-1.932 -0.39,0.758 -1.101,1.195 -1.741,1.712 -0.635,0.516 -1.152,1.114 -1.296,2.143 0.44,-0.915 1.5,-1.212 2.122,-1.94 0.107,-0.127 0.217,-0.242 0.297,-0.377 0.08,-0.144 0.136,-0.297 0.237,-0.424 -0.009,0.153 -0.106,0.28 -0.161,0.436 -0.165,0.45 -0.271,0.979 -0.398,1.487 -0.089,0.335 -0.165,0.679 -0.309,0.967 -0.148,0.275 -0.352,0.474 -0.576,0.673 0.135,0.021 0.39,-0.144 0.499,-0.212"
         id="path120"
         style="fill:#ffffff;fill-opacity:1;fill-rule:nonzero;stroke:none" /><path
         d="m 355.3419,561.8457 c -0.017,0.063 0.043,0.008 0,0"
         id="path124"
         style="fill:#ffffff;fill-opacity:1;fill-rule:nonzero;stroke:none" /><path
         d="m 355.3847,555.1011 c -0.009,-0.077 -0.144,-0.284 -0.208,-0.373 -0.267,-0.394 -0.652,-0.712 -1.017,-0.962 -0.534,-0.368 -1.169,-0.661 -1.931,-0.711 -1.453,-0.085 -2.484,0.5 -3.733,0.614 0.525,0.123 0.949,0.258 1.343,0.47 0.394,0.204 0.682,0.513 0.991,0.818 0.606,0.614 1.216,1.199 1.912,1.716 0,-0.072 -0.052,-0.132 -0.085,-0.182 -0.497,-0.767 -0.716,-1.801 -1.517,-2.301 -0.306,-0.182 -0.648,-0.288 -1.047,-0.424 0.453,-0.013 0.933,0.144 1.424,0.204 0.516,0.071 1.033,0.084 1.538,0.131 0.995,0.119 1.825,0.411 2.33,1"
         id="path128"
         style="fill:#ffffff;fill-opacity:1;fill-rule:nonzero;stroke:none" /><path
         d="m 354.838,568.959 c 0.093,-0.267 0.148,-0.584 0.275,-0.826 -0.694,0.5 -1.342,1.089 -1.881,1.788 -0.177,0.241 -0.326,0.496 -0.5,0.728 -0.208,0.28 -0.512,0.475 -0.724,0.742 0.004,0.021 0.013,0.008 0.013,0 0.784,-0.297 1.487,-0.521 1.978,-1.017 0.39,-0.394 0.64,-0.847 0.839,-1.415"
         id="path132"
         style="fill:#ffffff;fill-opacity:1;fill-rule:nonzero;stroke:none" /><path
         d="m 346.8095,556.6387 c -0.076,0 -0.114,0.076 -0.186,0.115 -0.047,0.025 -0.111,0.016 -0.162,0.051 -0.11,0.076 -0.228,0.313 -0.203,0.448 0.004,0.098 0.093,0.136 0.08,0.229 -0.054,0.161 -0.326,0.047 -0.478,0.089 -0.098,0.03 -0.089,0.111 -0.169,0.114 0.093,-0.106 0.055,-0.258 0.063,-0.47 0.008,-0.263 0.03,-0.538 0,-0.733 0.292,0.111 0.729,0.081 1.055,0.157 m 6.923,10.105 c 0.47,-1.051 0.732,-2.297 0.732,-3.716 0,-1.402 -0.355,-2.606 -0.834,-3.597 -0.962,-1.987 -2.47,-3.512 -4.487,-4.415 -1.042,-0.465 -2.245,-0.75 -3.702,-0.75 -1.415,0 -2.631,0.327 -3.653,0.789 -1.034,0.457 -1.885,1.084 -2.626,1.826 -0.738,0.728 -1.343,1.61 -1.796,2.639 -0.458,1.025 -0.788,2.254 -0.784,3.669 0.008,2.839 1.139,4.821 2.58,6.308 1.465,1.525 3.427,2.517 6.241,2.669 l 0.381,0 c 0.004,-0.008 0.012,-0.017 0.029,-0.017 1.407,-0.016 2.555,-0.406 3.555,-0.877 2.004,-0.948 3.444,-2.478 4.364,-4.528 m 0.25,-4.352 c 0.017,0.204 0.008,0.488 0.089,0.611 -0.395,-0.072 -0.911,-0.017 -1.356,-0.034 -0.008,0.034 -0.039,0.034 -0.059,0.046 0.076,-0.229 0.012,-0.517 -0.031,-0.809 -0.033,-0.237 -0.071,-0.47 -0.118,-0.652 -0.313,-1.327 -0.953,-2.39 -1.737,-3.207 0.377,-0.271 0.661,-0.645 1,-0.954 0.267,0.377 0.572,0.708 0.826,1.098 0.699,1.054 1.241,2.334 1.386,3.901 m 0.076,1.11 c -0.081,0.157 -0.068,0.416 -0.094,0.615 -0.224,2.211 -1.19,3.673 -2.325,4.999 -0.267,-0.348 -0.589,-0.657 -0.898,-0.953 -0.056,0.013 -0.064,-0.025 -0.123,-0.017 0.021,-0.038 0.127,-0.127 0.152,-0.212 0.263,-0.11 0.364,-0.398 0.543,-0.581 0.059,-0.067 0.131,-0.105 0.178,-0.169 0.042,-0.046 0.063,-0.119 0.101,-0.173 0.115,-0.162 0.276,-0.318 0.356,-0.483 0.047,-0.106 0.038,-0.208 0.072,-0.323 0.013,-0.033 0.055,-0.088 0.072,-0.127 0.339,-0.771 0.597,-1.669 0.593,-2.668 0.038,0.029 0.089,0.038 0.149,0.046 0.368,0.03 0.873,-0.025 1.224,0.046 m -1.801,-0.025 c -0.063,0.229 -0.076,0.525 -0.119,0.767 -0.096,0.627 -0.266,1.152 -0.499,1.635 -0.09,-0.021 -0.14,-0.08 -0.267,-0.059 -0.165,0.22 -0.339,0.432 -0.53,0.631 -0.297,0.004 -0.347,0.254 -0.605,0.293 -0.051,0.072 -0.06,0.199 -0.123,0.267 -0.06,0.021 -0.089,-0.013 -0.17,0 -0.098,0.076 -0.216,0.127 -0.25,0.3 -0.013,0.055 0.005,0.119 0,0.17 -0.013,0.122 -0.071,0.271 -0.136,0.356 -0.16,0.203 -0.305,0.021 -0.499,-0.038 -0.081,0.135 -0.094,0.317 -0.179,0.432 0.192,0.211 -0.122,0.313 -0.161,0.47 -0.008,0.038 0.022,0.085 0.013,0.144 -0.013,0.085 -0.275,0.347 -0.343,0.385 -0.051,0.035 -0.152,0.068 -0.25,0.106 -0.516,0.217 -1.339,0.479 -1.957,0.517 -0.081,0 -0.174,-0.008 -0.25,0 -0.076,0.009 -0.148,0.047 -0.221,0.047 0.035,-0.034 0.038,-0.059 0.043,-0.106 0.055,-0.352 -0.03,-0.864 -0.03,-1.208 0.098,0.026 0.183,0.026 0.28,0.009 1.042,-0.089 1.936,-0.479 2.61,-0.97 -0.055,0.097 -0.157,0.165 -0.174,0.296 0.004,0.038 0.068,0.013 0.056,0.068 -0.013,0.127 -0.212,0.203 -0.132,0.335 0.119,-0.017 0.19,-0.115 0.25,-0.191 0.072,-0.085 0.131,-0.174 0.195,-0.271 0.148,0.034 0.288,-0.063 0.334,-0.191 0.018,-0.033 0,-0.084 0.018,-0.135 0.016,-0.064 0.063,-0.161 0.088,-0.225 0.073,-0.207 0.318,-0.284 0.28,-0.534 0.025,-0.033 0.063,-0.033 0.119,-0.033 0.071,-0.115 0.169,-0.216 0.25,-0.322 -0.043,-0.115 0.025,-0.208 0.105,-0.217 0.098,0 0.267,0.212 0.323,0.018 0.033,-0.106 -0.089,-0.089 -0.073,-0.25 0.077,0.008 0.165,0.059 0.208,-0.009 0.008,-0.123 -0.144,-0.165 -0.119,-0.25 0.022,-0.085 0.165,-0.047 0.221,-0.093 0.046,-0.038 0.008,-0.089 0.029,-0.14 0.004,-0.026 0.051,-0.055 0.06,-0.068 0.093,-0.169 -0.068,-0.36 -0.047,-0.576 0.009,-0.055 0.038,-0.093 0.047,-0.144 0.02,-0.178 -0.072,-0.267 -0.14,-0.352 -0.009,-0.241 -0.17,-0.339 -0.259,-0.499 -0.085,-0.013 -0.186,-0.009 -0.22,-0.068 -0.072,-0.055 0.009,-0.161 0.03,-0.229 0.029,-0.059 -0.072,-0.089 0,-0.089 l 0.44,0 c -0.119,0.157 -0.054,0.508 0.03,0.674 0.097,0.207 0.139,0.508 0.351,0.521 0.009,-0.187 0,-0.369 -0.071,-0.47 0.114,-0.179 0.144,-0.437 0.127,-0.746 0.432,0.029 0.864,0.042 1.317,0.042 m -0.119,-1.305 c 0.043,0.255 0.056,0.614 0.132,0.814 -0.42,-0.026 -0.911,-0.047 -1.33,0.017 0,-0.102 0.013,-0.187 0,-0.297 -0.009,-0.174 -0.085,-0.373 -0.056,-0.5 0.031,-0.123 0.187,-0.135 0.166,-0.279 -0.017,-0.132 -0.153,-0.141 -0.267,-0.094 -0.14,-0.441 -0.28,-0.881 -0.491,-1.258 -0.102,-0.182 -0.229,-0.348 -0.348,-0.508 -0.127,-0.182 -0.225,-0.373 -0.415,-0.479 0.11,-0.076 0.216,-0.195 0.309,-0.28 0.034,-0.021 0.08,-0.067 0.119,-0.051 -0.004,0.102 0.004,0.149 0.059,0.174 0.183,0.076 0.272,-0.25 0.339,-0.322 -0.021,-0.186 0.127,-0.271 0.076,-0.424 0.513,0.5 0.899,1.081 1.208,1.759 0.237,0.533 0.403,1.092 0.499,1.728 m -1.343,6.8 c 0.149,0.152 0.314,0.326 0.505,0.411 -0.648,0.661 -1.385,1.153 -2.262,1.547 -0.446,0.203 -0.908,0.364 -1.412,0.499 -0.567,0.153 -1.275,0.229 -1.902,0.297 -0.008,0 -0.017,0 -0.013,-0.009 0.06,-0.334 0.051,-0.787 0.013,-1.143 0.025,-0.077 0.034,0.093 0.119,0.05 0.085,-0.021 0.089,-0.186 0.059,-0.279 0.302,0.059 0.636,-0.038 0.941,-0.089 0.776,-0.153 1.449,-0.428 1.995,-0.741 0.08,0.08 0.242,0.156 0.377,0.144 0.06,0 0.127,-0.056 0.196,-0.073 0.054,-0.004 0.092,0.017 0.131,0 0.106,-0.033 0.161,-0.152 0.224,-0.203 0.145,-0.047 0.276,-0.153 0.368,-0.25 0.077,-0.097 0.149,-0.221 0.158,-0.365 0.076,-0.076 0.139,-0.144 0.211,-0.211 0.064,0.152 0.178,0.288 0.292,0.415 m 0.636,-11.867 c -0.326,0.284 -0.643,0.577 -0.944,0.894 -0.013,0.03 -0.005,0.077 -0.026,0.089 -0.115,-0.237 -0.373,-0.373 -0.597,-0.559 -0.107,-0.085 -0.191,-0.17 -0.306,-0.238 -0.114,-0.067 -0.245,-0.122 -0.351,-0.198 -0.102,-0.09 -0.191,-0.225 -0.25,-0.314 -0.127,-0.208 -0.238,-0.398 -0.445,-0.496 -0.042,-0.173 -0.212,-0.173 -0.351,-0.279 -0.06,-0.038 -0.085,-0.085 -0.136,-0.115 -0.373,-0.228 -0.58,0.288 -0.886,0.318 -0.063,0.009 -0.174,-0.021 -0.263,-0.038 -0.364,-0.072 -0.757,-0.165 -1.122,-0.089 0.021,-0.44 0.026,-0.949 0,-1.385 0.292,0.059 0.754,0.08 1.089,0.135 1.974,0.31 3.394,1.165 4.588,2.275 m -0.928,5.864 c -0.258,-0.038 -0.61,0 -0.796,0.034 0.157,-0.081 0.182,-0.25 0.22,-0.407 0.022,-0.089 0.178,-0.131 0.238,-0.204 0.088,-0.109 0.08,-0.232 0.177,-0.321 0.085,0.275 0.076,0.627 0.161,0.898 m -0.148,1.465 c -0.072,0.217 -0.136,0.454 -0.241,0.636 -0.115,0.021 -0.196,0.161 -0.288,0.212 -0.085,0.055 -0.212,0.059 -0.221,0.144 -0.021,0.123 0.144,0.229 0.132,0.347 -0.009,0.106 -0.183,0.267 -0.28,0.399 -0.135,0.169 -0.22,0.317 -0.339,0.394 -0.08,-0.144 -0.207,-0.246 -0.326,-0.361 -0.322,-0.338 -0.657,-0.656 -0.945,-1 0.046,-0.038 0.068,-0.097 0.136,-0.114 0.029,0.114 0.067,0.229 0.101,0.335 0.115,0.106 0.246,0 0.386,-0.013 0.055,-0.004 0.114,0.013 0.169,0.013 0.165,0 0.322,-0.068 0.479,-0.051 0.085,-0.08 0.152,-0.178 0.204,-0.305 0.22,-0.076 -0.022,-0.229 0.089,-0.364 0.122,0 0.165,0.135 0.283,0.152 0.076,0.005 0.132,-0.055 0.233,-0.059 0.03,-0.148 0.191,-0.148 0.238,-0.284 -0.018,-0.068 -0.073,-0.097 -0.132,-0.114 0.047,-0.136 -0.135,-0.22 -0.076,-0.377 0.262,-0.047 0.284,0.258 0.398,0.41 m -0.339,-6.172 c 0.022,0.025 0.098,0.085 0.047,0.085 -0.056,0.012 -0.064,-0.021 -0.119,-0.009 -0.098,0.051 -0.156,0.153 -0.152,0.314 -0.187,0.224 -0.432,0.394 -0.585,0.648 -0.039,-0.174 -0.267,-0.216 -0.178,-0.462 0.152,-0.08 0.5,-0.182 0.487,-0.415 -0.013,-0.136 -0.301,-0.267 -0.279,-0.458 0.004,-0.059 0.076,-0.097 0.085,-0.186 -0.005,-0.064 -0.128,-0.097 -0.073,-0.178 0,0.046 0.039,0.068 0.059,0.101 0.23,0.174 0.518,0.365 0.708,0.56 m -0.178,2.495 c 0.169,0.293 0.314,0.635 0.381,1 -0.25,-0.017 -0.558,-0.161 -0.779,-0.03 -0.034,-0.093 -0.089,-0.212 -0.203,-0.191 -0.081,0.018 -0.064,0.098 -0.119,0.166 0.005,-0.14 -0.084,-0.166 -0.136,-0.25 -0.059,-0.102 -0.067,-0.165 -0.131,-0.212 -0.085,-0.059 -0.19,-0.03 -0.284,-0.106 -0.017,-0.182 -0.229,-0.182 -0.399,-0.228 0.056,-0.157 0.263,-0.026 0.361,0 0.059,0.156 0.132,0.313 0.382,0.292 0.109,-0.085 0.139,-0.254 0.127,-0.458 -0.12,-0.186 -0.081,-0.542 -0.259,-0.673 -0.004,-0.047 0.005,-0.098 -0.017,-0.119 -0.195,-0.093 -0.351,-0.013 -0.529,0.042 -0.195,0.055 -0.386,0.102 -0.607,0.131 -0.08,0.013 -0.228,0.077 -0.262,-0.038 0.114,-0.114 0.28,-0.093 0.458,-0.152 0.148,-0.046 0.27,-0.19 0.398,-0.208 0.064,-0.004 0.165,0.034 0.276,0.043 0.19,0.013 0.313,-0.047 0.384,0.072 -0.025,0.144 0.06,0.229 0.119,0.318 0.035,0.042 0.051,0.131 0.119,0.131 0.081,-0.068 0.085,-0.204 0.119,-0.326 0.22,0.228 0.431,0.491 0.601,0.796 m -1.177,5.995 c 0.058,0.055 0.156,0.055 0.19,0.136 -0.132,0.038 -0.225,0.131 -0.322,0.211 -0.75,0.556 -1.631,0.937 -2.805,1.047 0.072,-0.377 -0.004,-0.915 0.047,-1.318 0.025,0.03 0.08,0.03 0.131,0.03 0.661,-0.097 1.263,-0.318 1.712,-0.635 0.123,-0.077 0.246,-0.124 0.279,-0.259 0.081,0.055 0.115,0.135 0.174,0.208 0.063,0.068 0.14,0.118 0.208,0.186 0.127,0.131 0.241,0.297 0.386,0.394 m -0.928,-5.44 c 0.025,0.233 -0.141,0.284 -0.255,0.377 -0.008,0.038 0.021,0.038 0.013,0.068 -0.064,0.038 -0.11,-0.03 -0.148,-0.068 0.03,-0.068 0.026,-0.165 0.076,-0.203 0.051,0.004 0.068,-0.017 0.106,-0.026 0.029,-0.076 0.094,-0.241 0.208,-0.148 m -0.268,4.084 c -0.071,-0.025 -0.156,0.013 -0.194,0.059 0.051,0.128 0.178,0.162 0.254,0.259 -0.504,0.305 -1.085,0.606 -1.801,0.644 0.094,-0.224 0.013,-0.623 0.06,-0.903 0.105,-0.029 0.208,-0.076 0.326,-0.097 0.051,0.094 0.216,0.144 0.309,0.225 0.051,0.034 0.059,0.114 0.131,0.114 0.191,0.005 0.111,-0.348 0.06,-0.445 -0.093,-0.169 -0.368,-0.241 -0.5,-0.356 -0.004,0 -0.08,-0.059 -0.029,-0.076 0.092,-0.047 0.148,0.076 0.232,0.076 0.195,-0.033 0.275,-0.321 0.518,-0.161 0.045,0.39 0.538,0.335 0.634,0.661 m -0.384,-5.359 c 0.165,0.106 0.368,0.28 0.283,0.538 -0.191,0.017 -0.245,-0.199 -0.386,-0.199 -0.102,0 -0.08,0.114 -0.22,0.101 0.009,-0.063 0.08,-0.055 0.06,-0.152 -0.094,-0.161 -0.25,0.017 -0.373,0.03 -0.038,-0.013 0.016,-0.115 -0.043,-0.115 -0.051,0.03 -0.071,0.077 -0.135,0.102 -0.051,0.034 -0.128,0.034 -0.186,0.064 -0.043,0.016 -0.047,0.071 -0.107,0.071 -0.093,-0.025 -0.127,-0.101 -0.25,-0.101 l 0,-0.081 c -0.114,-0.025 -0.118,-0.161 -0.203,-0.212 -0.051,0.009 -0.072,-0.016 -0.105,-0.016 -0.056,-0.077 -0.17,-0.077 -0.221,-0.153 0.038,-0.081 0.161,-0.081 0.279,-0.085 0.089,0.187 0.39,0.081 0.607,0.119 0.038,-0.042 0.02,-0.144 0.058,-0.182 0.199,0.038 0.314,-0.14 0.484,-0.043 -0.004,0.056 0.029,0.081 0.034,0.132 0.11,0.106 0.292,0.093 0.424,0.182 m -0.25,0.75 c 0.118,0.097 0.346,0.093 0.368,0.275 -0.2,0 -0.381,-0.102 -0.368,-0.275 m -0.458,1.44 c 0.072,0.119 0.135,0.25 0.165,0.415 -0.081,0.073 -0.169,0.2 -0.119,0.361 -0.068,0.051 -0.05,0.165 -0.106,0.233 -0.046,0.055 -0.109,0.038 -0.144,0.106 0.035,0.089 0.073,0.19 0.144,0.25 -0.051,0.084 -0.084,0.182 -0.055,0.317 -0.054,0 -0.101,0.009 -0.139,0.022 -0.056,0.118 -0.162,0.186 -0.23,0.292 -0.063,0.012 -0.127,0.042 -0.198,0.059 -0.025,-0.017 -0.051,-0.038 -0.098,-0.038 -0.059,0.055 -0.36,0.258 -0.326,0.377 0.029,0.106 0.19,0.038 0.296,0.055 -0.076,0.085 -0.258,0.097 -0.385,0.051 0.068,-0.106 0.055,-0.28 0.106,-0.386 -0.123,-0.182 -0.339,-0.263 -0.577,-0.33 -0.034,-0.047 -0.041,-0.144 -0.088,-0.186 -0.127,-0.013 -0.162,-0.136 -0.234,-0.204 0.005,-0.182 -0.054,-0.356 -0.063,-0.551 0.063,0.034 0.106,0.072 0.195,0.072 0.021,-0.021 0.013,-0.088 0.013,-0.127 0.042,-0.012 0.08,-0.012 0.076,-0.084 -0.004,-0.089 -0.106,-0.127 -0.149,-0.216 -0.041,-0.085 -0.003,-0.284 -0.161,-0.259 -0.071,-0.029 -0.016,0.08 -0.08,0.076 -0.005,-0.114 0.064,-0.161 0.106,-0.211 0.152,0.05 0.135,0.292 0.344,0.292 0.067,0.093 -0.009,0.161 0.012,0.241 0.055,0.161 0.665,0.149 0.725,0.009 -0.009,-0.081 -0.026,-0.144 0.029,-0.191 -0.051,-0.089 -0.076,-0.216 -0.165,-0.28 0.004,-0.038 0.025,-0.046 0.017,-0.097 -0.073,-0.076 -0.051,-0.135 -0.118,-0.195 -0.128,-0.106 -0.348,-0.025 -0.488,-0.14 0.241,-0.174 0.614,-0.3 1.046,-0.241 0.145,0.127 0.06,0.453 0.268,0.508 0.114,0.03 0.237,-0.046 0.381,0 m -1.166,-1.699 c 0.081,0.009 0.196,-0.08 0.209,0.064 -0.026,0.064 -0.078,0.051 -0.103,0.118 -0.021,0.055 0.009,0.128 -0.029,0.183 0.029,0.013 0.047,0.029 0.072,0.059 -0.064,0.063 -0.025,0.212 0,0.288 -0.433,-0.089 -0.746,0.174 -1.034,0.335 -0.021,0.029 -0.026,0.097 -0.072,0.114 -0.204,-0.377 -0.563,-0.576 -0.809,-0.902 0.449,-0.335 0.932,-0.623 1.601,-0.72 0.035,0.211 -0.021,0.41 0.165,0.461 m -0.072,-3.986 c 0.051,-0.013 0.136,-0.106 0.149,-0.06 -0.098,0.348 -0.026,0.873 -0.047,1.297 -0.16,-0.064 -0.36,-0.03 -0.571,0 -0.959,0.135 -1.843,0.61 -2.407,1.029 0.008,-0.097 0.157,-0.144 0.135,-0.271 -0.029,-0.169 -0.27,-0.131 -0.457,-0.14 -0.237,-0.012 -0.471,-0.233 -0.708,-0.195 -0.144,0.03 -0.203,0.204 -0.359,0.183 0.986,-0.886 2.228,-1.631 3.914,-1.822 0.106,-0.008 0.246,0 0.351,-0.021 m -1.076,10.024 c 0.322,0.144 0.755,0.301 1.195,0.262 -0.055,0.403 -0.021,0.949 -0.017,1.335 -0.11,-0.076 -0.372,-0.076 -0.53,-0.106 -1.067,-0.191 -1.804,-0.644 -2.507,-1.208 0.368,-0.25 0.614,-0.609 0.962,-0.885 0.029,0.064 0.08,0.097 0.13,0.144 0.212,0.17 0.484,0.326 0.767,0.458 m 1.233,-1.187 c -0.076,0.267 -0.05,0.623 -0.055,0.966 -0.834,-0.101 -1.457,-0.411 -1.903,-0.902 l 0.107,0 c 0.089,-0.106 0.317,-0.085 0.351,-0.246 0.004,-0.059 -0.08,-0.034 -0.072,-0.106 0.043,-0.021 0.064,-0.072 0.132,-0.072 0.029,0.051 0.038,0.127 0.105,0.14 0.056,-0.051 0.081,-0.114 0.145,-0.148 0.055,0.008 0.093,0.034 0.148,0.038 0.046,-0.017 0.097,-0.03 0.119,-0.076 0.042,0.046 0.144,0.038 0.203,0.059 0.157,0.127 0.11,0.5 0.326,0.517 0.018,-0.068 -0.038,-0.123 0,-0.17 0.165,-0.021 0.288,0.106 0.394,0 m -0.055,-10.007 c 0,0.289 -0.03,0.547 0.047,0.691 -0.288,-0.059 -0.602,0.009 -0.899,0.068 -1.618,0.25 -2.847,0.974 -3.774,1.851 -0.288,-0.356 -0.649,-0.623 -0.933,-0.979 1.225,-1.046 2.619,-1.872 4.513,-2.173 0.347,-0.055 0.796,-0.068 1.101,-0.152 -0.085,0.161 -0.055,0.411 -0.055,0.694 m -2.017,12.736 c 0.556,0.254 1.267,0.487 2.017,0.478 -0.004,0.42 -0.064,0.89 0,1.28 -1.453,-0.072 -2.559,-0.53 -3.47,-1.136 -0.288,-0.186 -0.525,-0.448 -0.834,-0.614 0.067,-0.08 0.169,-0.135 0.25,-0.212 0.169,-0.135 0.317,-0.301 0.457,-0.453 0.072,-0.076 0.191,-0.14 0.203,-0.267 0.391,0.352 0.852,0.674 1.377,0.924 m 1.975,3.49 c 0,0.022 0.059,0.106 0,0.098 -2.479,-0.152 -4.148,-1.11 -5.55,-2.343 0.22,-0.097 0.373,-0.288 0.538,-0.441 0.161,-0.165 0.326,-0.334 0.483,-0.508 0.093,0.174 0.267,0.284 0.415,0.403 1.059,0.852 2.369,1.479 4.156,1.576 -0.093,0.326 -0.021,0.818 -0.042,1.215 m -0.529,-11.993 c -0.42,-0.008 -0.615,0.152 -0.92,0.309 -0.301,0.169 -0.53,0.326 -0.691,0.53 -0.263,-0.326 -0.572,-0.611 -0.868,-0.915 0.207,-0.085 0.36,-0.267 0.546,-0.394 0.369,-0.259 0.809,-0.458 1.284,-0.623 0.233,-0.077 0.475,-0.165 0.737,-0.186 -0.072,0.012 -0.123,0.059 -0.195,0.071 -0.136,0.2 -0.348,0.326 -0.381,0.623 0.089,0.089 0.161,0.191 0.178,0.352 0.072,0.106 0.182,0.173 0.31,0.233 m -0.416,3.22 c 0.072,0.008 0.11,0.131 0.072,0.203 -0.187,-0.242 -0.22,0.186 -0.322,0.263 -0.034,-0.026 -0.021,-0.085 -0.089,-0.072 -0.186,0.173 -0.369,-0.051 -0.352,-0.288 -0.055,-0.034 -0.143,-0.034 -0.147,-0.127 0.262,0.029 0.525,0.055 0.749,0.127 0.05,-0.009 0.043,-0.089 0.089,-0.106 m -0.262,-0.831 c -0.051,0.021 -0.103,0.051 -0.149,0.077 -0.025,-0.14 -0.127,-0.208 -0.177,-0.314 0.118,0.068 0.177,0.203 0.326,0.237 m -0.505,-0.411 c 0.009,0.059 -0.042,0.115 -0.059,0.174 -0.021,0.097 0.013,0.25 -0.09,0.288 -0.08,-0.068 0.056,-0.153 0,-0.229 -0.067,-0.03 -0.096,0.098 -0.19,0.094 -0.033,0.05 -0.085,0.084 -0.102,0.148 0.004,0.055 0.039,0.038 0.013,0.084 -0.067,0.068 -0.114,0.047 -0.22,0.03 0.013,0.093 -0.043,0.114 -0.072,0.161 -0.11,0 -0.25,0.051 -0.313,0.038 0.165,-0.326 0.266,-0.669 0.457,-0.949 0.068,-0.097 0.152,-0.182 0.178,-0.296 0.051,0.025 0.068,0.072 0.084,0.114 0.06,0.098 0.293,0.229 0.314,0.343 m -1.017,3.669 c 0.161,0.085 0.196,0.344 0.399,0.369 -0.369,0.263 -0.645,0.619 -0.988,0.907 -0.482,-0.573 -0.877,-1.246 -1.092,-2.043 -0.085,-0.326 -0.14,-0.758 -0.203,-1.093 0.134,0.064 0.351,0.043 0.529,0.034 -0.004,0.098 -0.081,0.263 -0.064,0.416 0.017,0.089 0.068,0.089 0.093,0.144 0.018,0.063 0.013,0.131 0.03,0.165 0.026,0.055 0.11,0.114 0.148,0.19 0.051,0.102 0.043,0.161 0.102,0.191 0.106,0.055 0.229,-0.021 0.309,0.068 0.03,0.059 -0.017,0.084 -0.013,0.152 0.072,0.106 0.216,0.085 0.306,0.144 0.063,0.043 0.089,0.123 0.135,0.174 0.043,0.055 0.106,0.127 0.178,0.161 0.039,0.013 0.089,0 0.131,0.021 m -0.444,-2.321 c 0.016,0.046 -0.063,0.025 -0.043,0.084 0.059,0.17 0.009,0.441 -0.063,0.577 -0.128,0.067 -0.374,0.046 -0.437,-0.077 -0.025,-0.224 0.23,-0.385 0.072,-0.559 -0.059,-0.034 -0.131,0.013 -0.22,0 -0.064,-0.076 -0.008,-0.275 -0.102,-0.314 -0.131,-0.029 -0.254,-0.008 -0.279,-0.106 -0.042,-0.109 0.127,-0.241 0.054,-0.394 0.069,-0.135 0.217,-0.215 0.284,-0.368 0.013,-0.038 0.013,-0.072 0.03,-0.114 0.013,-0.039 0.034,-0.077 0.043,-0.124 0.013,-0.105 -0.013,-0.194 0.013,-0.279 0.016,-0.051 0.072,-0.076 0.088,-0.131 0.009,-0.022 0.013,-0.064 0.017,-0.076 0.034,-0.293 -0.017,-0.484 0.089,-0.674 0.021,-0.051 0.089,-0.089 0.119,-0.165 0.034,-0.106 0.013,-0.229 0.042,-0.326 -0.051,-0.094 -0.203,-0.081 -0.212,-0.221 0.068,0.021 0.064,-0.042 0.094,-0.059 0.355,0.411 0.72,0.809 1.131,1.152 -0.386,0.453 -0.687,1.017 -0.835,1.708 -0.051,0.033 -0.102,0.05 -0.148,0.071 0.008,-0.076 -0.03,-0.152 -0.043,-0.224 -0.02,-0.085 0.005,-0.191 -0.076,-0.229 -0.105,0.059 -0.284,0.123 -0.22,0.288 0.064,0.021 0.084,-0.021 0.131,-0.025 0.098,0.161 -0.038,0.343 0.03,0.487 0.115,0 0.115,-0.152 0.22,-0.161 0.115,-0.004 0.208,0.093 0.221,0.259 m -1.06,0 c -0.139,-0.034 -0.309,0.008 -0.398,0.025 0.025,-0.025 0.043,-0.055 0.056,-0.093 0.029,-0.28 0.084,-0.53 0.092,-0.839 0.013,0.118 0.085,0.182 0.149,0.259 -0.107,0.101 -0.081,0.135 -0.047,0.313 0.034,0.178 0.043,0.288 0.148,0.335 m 0.589,3.957 c -0.36,0.267 -0.635,0.601 -0.94,0.911 -0.042,-0.153 -0.208,-0.327 -0.326,-0.484 -0.123,-0.148 -0.238,-0.304 -0.326,-0.44 -0.632,-0.941 -1.009,-2.042 -1.106,-3.465 0.415,0.016 0.957,0.029 1.309,0.016 -0.03,0.051 -0.026,0.119 -0.026,0.178 0.004,0.335 0.102,0.678 0.178,0.983 0.229,0.945 0.712,1.703 1.237,2.301 m -1.33,-8.601 c 0.055,-0.008 0.076,0.013 0.106,0.039 -0.174,0.097 -0.289,0.271 -0.411,0.432 -0.224,0.05 -0.394,0.169 -0.416,0.432 -0.071,-0.034 -0.096,-0.081 -0.173,-0.072 -0.059,0.008 -0.22,0.144 -0.28,0.241 -0.054,0.072 -0.051,0.178 -0.105,0.22 -0.204,-0.05 -0.161,0.153 -0.339,0.144 -0.09,0.056 -0.132,0.183 -0.208,0.254 -0.067,-0.33 -0.326,0.052 -0.402,0.144 -0.047,0 -0.047,-0.054 -0.111,-0.038 -0.054,0.073 -0.114,0.115 -0.148,0.212 -0.021,0.047 -0.013,0.119 -0.029,0.166 -0.018,0.046 -0.06,0.076 -0.077,0.131 -0.038,0.148 0.008,0.301 0.017,0.47 0.06,0.051 0.098,0.136 0.132,0.225 0.071,0.025 0.109,0.051 0.178,0.051 0.059,-0.013 0.072,-0.073 0.13,-0.081 0.047,-0.009 0.06,0.03 0.12,0.03 0.033,0.038 -0.022,0.076 0.016,0.105 0.069,0.039 0.161,0.077 0.263,0.094 0.076,-0.064 0.11,-0.246 0.19,-0.246 -0.096,0.174 -0.136,0.449 -0.174,0.699 -0.041,0.267 -0.067,0.576 -0.118,0.776 0.022,0.067 0.026,0.148 0.03,0.241 0,0.013 -0.004,0.013 -0.017,0.013 -0.017,-0.021 -0.067,-0.038 -0.089,-0.038 -0.331,-0.047 -0.881,0.025 -1.25,0 0.098,-1.797 0.64,-3.343 1.457,-4.508 0.196,-0.276 0.399,-0.534 0.602,-0.814 0.068,-0.08 0.204,-0.258 0.224,-0.258 0.009,0 0.081,0.093 0.103,0.114 0.122,0.136 0.25,0.25 0.343,0.348 0.156,0.152 0.284,0.313 0.436,0.474 m -0.097,4.169 c 0.012,-0.017 0.059,-0.085 0.067,-0.029 -0.089,0.109 -0.038,0.389 -0.055,0.542 -0.012,-0.03 -0.051,-0.03 -0.072,-0.038 -0.411,0 -0.872,-0.034 -1.245,0.025 0,-0.059 0.059,-0.055 0.047,-0.123 0.051,-0.614 0.185,-1.144 0.279,-1.707 0.034,0.084 0.038,0.199 0.136,0.224 0.016,0.271 0.038,0.683 0.266,0.839 0.212,0 0.28,0.335 0.471,0.318 0.046,0 0.067,-0.03 0.106,-0.051 m 0.203,5.631 c -0.318,0.275 -0.606,0.584 -0.898,0.885 -0.017,0.034 -0.005,0.093 -0.043,0.093 -0.174,-0.191 -0.339,-0.373 -0.491,-0.568 -1.009,-1.321 -1.732,-2.859 -1.855,-5.087 0.449,0.021 0.935,0.021 1.384,0 -0.054,0.521 0.06,1.046 0.179,1.537 0.198,0.814 0.504,1.475 0.885,2.085 0.233,0.385 0.53,0.775 0.839,1.055"
         id="path136"
         style="fill:#ffffff;fill-opacity:1;fill-rule:nonzero;stroke:none" /><path
         d="m 353.3174,552.9697 c 0.017,-0.059 -0.056,-0.076 -0.085,-0.11 -0.242,-0.288 -0.556,-0.525 -0.898,-0.716 -0.513,-0.292 -1.073,-0.479 -1.894,-0.441 -0.767,0.047 -1.44,0.344 -1.944,0.67 -0.255,0.144 -0.513,0.343 -0.763,0.521 -0.255,0.182 -0.556,0.394 -0.873,0.428 -0.263,0.034 -0.56,-0.004 -0.75,-0.039 1.055,-0.533 2.004,-1.177 2.801,-1.965 -0.127,-0.186 -0.323,-0.301 -0.488,-0.462 -0.724,0.733 -1.44,1.492 -2.389,2.038 -0.127,0.072 -0.305,0.199 -0.415,0.212 -0.119,0.004 -0.327,-0.098 -0.471,-0.182 -0.398,-0.217 -0.796,-0.53 -1.118,-0.801 -0.496,-0.394 -0.894,-0.809 -1.254,-1.305 -0.178,0.144 -0.344,0.297 -0.529,0.423 0.779,0.835 1.716,1.509 2.816,2.017 -0.203,0.106 -0.524,0.123 -0.796,0.06 -0.576,-0.149 -0.971,-0.573 -1.475,-0.89 -0.465,-0.305 -0.969,-0.602 -1.621,-0.725 -1.518,-0.3 -2.653,0.395 -3.377,1.17 0.253,-0.157 0.534,-0.272 0.851,-0.364 0.352,-0.085 0.72,-0.136 1.11,-0.115 0.754,0.03 1.322,0.335 1.869,0.576 0.601,0.259 1.16,0.5 1.83,0.623 0.538,0.093 1.152,0.089 1.681,-0.013 0.157,-0.038 0.319,-0.14 0.471,-0.14 0.123,0.009 0.212,0.093 0.296,0.128 0.288,0.08 0.708,0.114 1.047,0.114 0.728,0 1.385,-0.165 1.931,-0.386 0.281,-0.114 0.531,-0.25 0.797,-0.355 0.509,-0.212 1.111,-0.462 1.839,-0.471 0.687,-0.008 1.292,0.153 1.801,0.5"
         id="path140"
         style="fill:#ffffff;fill-opacity:1;fill-rule:nonzero;stroke:none" /><path
         d="m 349.9697,569.4883 c -0.194,-0.067 -0.237,0.098 -0.355,0.204 -0.047,0.046 -0.094,0.046 -0.127,0.101 0.007,0.034 -0.022,0.098 0.012,0.106 0.089,0.038 0.174,-0.046 0.28,0 0.165,-0.059 0.186,-0.245 0.19,-0.411"
         id="path144"
         style="fill:#ffffff;fill-opacity:1;fill-rule:nonzero;stroke:none" /><path
         d="m 347.4365,570.7383 c -0.098,-0.136 -0.36,-0.271 -0.56,-0.165 -0.292,-0.089 -0.877,-0.212 -0.974,0.135 0.034,0.064 0.148,0.047 0.217,0.03 0.207,0.085 0.453,0.216 0.639,0.267 0.297,-0.009 0.559,-0.068 0.678,-0.267"
         id="path148"
         style="fill:#ffffff;fill-opacity:1;fill-rule:nonzero;stroke:none" /><path
         d="m 342.6445,553.6309 c -0.428,-0.064 -0.864,-0.153 -1.271,-0.267 -0.72,-0.182 -1.576,-0.423 -2.52,-0.385 -0.759,0.046 -1.407,0.326 -1.907,0.669 -0.508,0.36 -0.91,0.779 -1.233,1.33 0.271,-0.263 0.58,-0.5 0.983,-0.665 0.394,-0.161 0.86,-0.259 1.36,-0.305 0.509,-0.059 1.046,-0.059 1.559,-0.106 0.508,-0.059 0.983,-0.212 1.432,-0.212 -0.161,0.131 -0.364,0.115 -0.525,0.166 -0.869,0.283 -1.284,0.995 -1.669,1.783 -0.153,0.314 -0.322,0.653 -0.534,0.915 0.199,-0.089 0.355,-0.233 0.521,-0.377 0.495,-0.394 0.97,-0.835 1.428,-1.288 0.614,-0.614 1.305,-1.084 2.376,-1.258"
         id="path152"
         style="fill:#ffffff;fill-opacity:1;fill-rule:nonzero;stroke:none" /><path
         d="m 338.8408,571.272 c 0.055,-0.017 -0.039,-0.067 -0.06,-0.093 -0.22,-0.22 -0.445,-0.47 -0.648,-0.729 -0.237,-0.301 -0.445,-0.618 -0.669,-0.923 -0.445,-0.623 -1.056,-1.047 -1.602,-1.538 0.149,0.377 0.229,0.805 0.365,1.165 0.419,1.161 1.435,1.699 2.614,2.118"
         id="path156"
         style="fill:#ffffff;fill-opacity:1;fill-rule:nonzero;stroke:none" /><path
         d="m 338.539,555.2998 c 0.212,-0.428 0.513,-0.805 0.826,-1.076 -0.656,0.195 -1.355,0.254 -1.986,0.39 -0.645,0.123 -1.165,0.381 -1.636,0.707 -0.919,0.653 -1.652,1.509 -1.948,2.78 0.605,-1.369 2.177,-1.72 3.393,-2.474 0.407,-0.255 0.724,-0.611 1.148,-0.797 -0.008,0.076 -0.106,0.127 -0.174,0.186 -0.461,0.424 -0.843,0.928 -1.033,1.657 -0.212,0.809 -0.221,1.788 -0.576,2.508 0.169,-0.152 0.288,-0.343 0.427,-0.529 0.14,-0.187 0.285,-0.373 0.416,-0.577 0.5,-0.805 0.711,-1.889 1.143,-2.775"
         id="path160"
         style="fill:#ffffff;fill-opacity:1;fill-rule:nonzero;stroke:none" /><path
         d="m 337.6748,569.3062 c 0.013,-0.512 -0.194,-0.923 -0.415,-1.267 -0.22,-0.347 -0.495,-0.644 -0.796,-0.91 -0.306,-0.272 -0.648,-0.492 -0.94,-0.772 -0.297,-0.279 -0.573,-0.567 -0.759,-0.961 -0.029,0.271 0.025,0.521 0.021,0.775 -0.005,0.25 -0.047,0.5 -0.059,0.741 -0.03,0.53 -0.013,1.038 0.118,1.483 0.115,0.411 0.322,0.721 0.589,1.017 0.255,0.288 0.577,0.509 1.005,0.653 -0.204,-0.204 -0.395,-0.411 -0.534,-0.695 -0.267,-0.551 -0.323,-1.301 -0.517,-1.966 -0.098,-0.327 -0.276,-0.606 -0.293,-0.915 0.056,0.067 0.081,0.148 0.119,0.22 0.259,0.521 0.652,0.898 1.118,1.25 0.509,0.368 1.107,0.695 1.343,1.347"
         id="path164"
         style="fill:#ffffff;fill-opacity:1;fill-rule:nonzero;stroke:none" /><path
         d="m 336.4638,557.4268 c 0.089,-0.483 0.288,-0.856 0.453,-1.229 -1.674,1.178 -3.75,1.949 -3.944,4.605 l 0,0.407 c 0.034,0.064 0.004,0.182 0.013,0.275 0.148,-1.003 0.8,-1.601 1.385,-2.186 0.305,-0.309 0.589,-0.614 0.843,-0.953 0.25,-0.335 0.437,-0.72 0.763,-1.008 -0.119,0.271 -0.288,0.491 -0.386,0.775 -0.093,0.292 -0.152,0.636 -0.157,1.004 -0.026,0.903 0.407,1.67 0.293,2.602 0.559,-1.123 0.47,-2.911 0.737,-4.292"
         id="path168"
         style="fill:#ffffff;fill-opacity:1;fill-rule:nonzero;stroke:none" /><path
         d="m 336.582,566.9507 c 0,-0.246 -0.067,-0.478 -0.136,-0.699 -0.444,-1.5 -1.72,-2.25 -2.046,-3.889 -0.114,1.123 -0.8,1.881 -0.855,3.092 -0.06,1.335 0.435,2.254 1.063,3.013 -0.186,-0.318 -0.322,-0.784 -0.327,-1.267 0,-0.563 0.128,-1.131 0.179,-1.707 0.042,-0.475 -0.009,-0.894 -0.043,-1.343 -0.017,-0.14 -0.046,-0.284 0,-0.415 0.059,0.046 0.051,0.156 0.072,0.266 0.107,0.674 0.411,1.136 0.797,1.555 0.419,0.483 0.986,0.81 1.296,1.394"
         id="path172"
         style="fill:#ffffff;fill-opacity:1;fill-rule:nonzero;stroke:none" /><path
         d="m 335.8623,564.6289 c 0.071,-0.5 -0.03,-1.008 -0.106,-1.47 -0.119,-0.767 -0.301,-1.386 -0.5,-2.063 -0.097,-0.331 -0.229,-0.674 -0.25,-1.03 -0.021,-0.309 0.008,-0.631 0.059,-0.957 -0.089,0.046 -0.118,0.148 -0.165,0.225 -0.356,0.571 -0.855,1.008 -1.221,1.559 -0.431,0.63 -0.634,1.499 -0.707,2.499 l 0,0.25 c 0.038,0.572 0.153,1.055 0.305,1.517 0.03,-0.06 -0.008,-0.157 -0.013,-0.233 -0.046,-0.627 0.12,-1.064 0.297,-1.517 0.263,-0.691 0.602,-1.25 0.78,-2.046 0.085,-0.378 0.119,-0.712 0.233,-1.008 0.004,0 0.063,-0.106 0.076,-0.106 0.064,0.008 -0.029,0.173 -0.029,0.182 -0.268,0.97 0.08,1.902 0.444,2.571 0.284,0.513 0.695,0.962 0.797,1.627"
         id="path176"
         style="fill:#ffffff;fill-opacity:1;fill-rule:nonzero;stroke:none" /><path
         d="m 273.5205,483.5298 c -0.028,0.444 -0.057,1.047 -0.049,1.547 l -0.014,0 c -0.084,-0.5 -0.209,-1.075 -0.298,-1.436 l -0.411,-1.672 -0.638,0 -0.39,1.644 c -0.091,0.375 -0.216,0.958 -0.292,1.464 l -0.013,0 c -0.014,-0.506 -0.049,-1.096 -0.07,-1.561 l -0.083,-1.623 -0.778,0 0.333,4.675 0.966,0 0.376,-1.692 c 0.125,-0.59 0.242,-1.11 0.326,-1.638 l 0.02,0 c 0.07,0.521 0.174,1.048 0.292,1.638 l 0.375,1.692 0.959,0 0.285,-4.675 -0.813,0 -0.083,1.637 z"
         id="path180"
         style="fill:#2c3792;fill-opacity:1;fill-rule:nonzero;stroke:none" /><path
         d="m 275.9775,486.1797 c 0.008,-0.292 -0.201,-0.493 -0.479,-0.493 -0.25,0 -0.459,0.201 -0.451,0.493 -0.008,0.305 0.215,0.499 0.465,0.499 0.264,0 0.465,-0.194 0.465,-0.499 m -0.909,-0.895 0.909,0 0,-3.392 -0.909,0 0,3.392 z"
         id="path184"
         style="fill:#2c3792;fill-opacity:1;fill-rule:nonzero;stroke:none" /><path
         d="m 278.5693,481.9482 c -0.09,-0.042 -0.32,-0.097 -0.576,-0.097 -0.863,0 -1.425,0.597 -1.425,1.699 0,1.048 0.618,1.776 1.556,1.776 0.216,0 0.41,-0.048 0.5,-0.09 l -0.118,-0.715 c -0.076,0.028 -0.187,0.063 -0.34,0.063 -0.438,0 -0.695,-0.416 -0.695,-1.006 0,-0.61 0.257,-0.985 0.681,-0.985 0.132,0 0.243,0.021 0.341,0.069 l 0.076,-0.714 z"
         id="path188"
         style="fill:#2c3792;fill-opacity:1;fill-rule:nonzero;stroke:none" /><path
         d="m 278.999,484.2651 c 0,0.333 -0.014,0.7 -0.027,1.02 l 0.785,0 0.049,-0.493 0.027,0 c 0.145,0.361 0.424,0.555 0.667,0.555 0.097,0 0.146,-0.007 0.194,-0.021 l 0,-0.894 c -0.055,0.006 -0.118,0.006 -0.194,0.006 -0.194,0 -0.452,-0.131 -0.549,-0.478 -0.028,-0.077 -0.042,-0.202 -0.042,-0.34 l 0,-1.727 -0.91,0 0,2.372 z"
         id="path192"
         style="fill:#2c3792;fill-opacity:1;fill-rule:nonzero;stroke:none" /><path
         d="m 283.5625,483.5991 c 0,-1.415 -0.784,-1.762 -1.299,-1.762 -0.812,0 -1.299,0.638 -1.299,1.741 0,1.221 0.64,1.769 1.313,1.769 0.806,0 1.285,-0.673 1.285,-1.748 m -1.694,0 c 0,-0.583 0.09,-1.068 0.417,-1.068 0.298,0 0.375,0.568 0.375,1.068 0,0.465 -0.077,1.055 -0.39,1.055 -0.333,0 -0.402,-0.59 -0.402,-1.055"
         id="path196"
         style="fill:#2c3792;fill-opacity:1;fill-rule:nonzero;stroke:none" /><path
         d="m 284.3056,481.8926 0,2.747 -0.459,0 0,0.645 0.459,0 0,0.18 c 0,0.437 0.277,1.284 1.508,1.284 0.326,0 0.618,-0.056 0.799,-0.139 l -0.125,-0.715 c -0.161,0.056 -0.362,0.112 -0.64,0.112 -0.493,0 -0.632,-0.285 -0.632,-0.604 l 0,-0.118 1.688,0 0,-3.392 -0.909,0 0,2.747 -0.779,0 0,-2.747 -0.91,0 z"
         id="path200"
         style="fill:#2c3792;fill-opacity:1;fill-rule:nonzero;stroke:none" /><path
         d="m 287.6113,484.2651 c 0,0.368 -0.014,0.693 -0.027,1.02 l 0.785,0 0.049,-0.389 0.013,0 c 0.174,0.264 0.465,0.444 0.82,0.444 0.646,0 0.903,-0.513 0.903,-1.269 l 0,-2.178 -0.91,0 0,2.122 c 0,0.285 -0.069,0.562 -0.333,0.562 -0.153,0 -0.278,-0.104 -0.341,-0.305 -0.027,-0.07 -0.049,-0.18 -0.049,-0.312 l 0,-2.067 -0.91,0 0,2.372 z"
         id="path204"
         style="fill:#2c3792;fill-opacity:1;fill-rule:nonzero;stroke:none" /><path
         d="m 293.1543,482.6694 c 0,-0.27 0.014,-0.548 0.049,-0.777 l -0.813,0 -0.049,0.333 -0.02,0 c -0.181,-0.257 -0.452,-0.388 -0.751,-0.388 -0.514,0 -0.895,0.43 -0.895,1.026 0,0.895 0.784,1.256 1.555,1.263 l 0,0.076 c 0,0.271 -0.152,0.465 -0.479,0.465 -0.271,0 -0.487,-0.076 -0.695,-0.201 l -0.167,0.617 c 0.195,0.104 0.584,0.257 1.064,0.257 1.035,0 1.201,-0.722 1.201,-1.415 l 0,-1.256 z m -0.896,0.874 c -0.298,-0.007 -0.722,-0.111 -0.722,-0.582 0,-0.333 0.187,-0.458 0.326,-0.458 0.153,0 0.313,0.09 0.375,0.291 0.015,0.049 0.021,0.097 0.021,0.16 l 0,0.589 z"
         id="path208"
         style="fill:#2c3792;fill-opacity:1;fill-rule:nonzero;stroke:none" /><path
         d="m 293.8623,484.2651 c 0,0.368 -0.014,0.693 -0.027,1.02 l 0.784,0 0.049,-0.389 0.013,0 c 0.174,0.264 0.466,0.444 0.821,0.444 0.646,0 0.903,-0.513 0.903,-1.269 l 0,-2.178 -0.91,0 0,2.122 c 0,0.285 -0.069,0.562 -0.334,0.562 -0.153,0 -0.278,-0.104 -0.34,-0.305 -0.028,-0.07 -0.049,-0.18 -0.049,-0.312 l 0,-2.067 -0.91,0 0,2.372 z"
         id="path212"
         style="fill:#2c3792;fill-opacity:1;fill-rule:nonzero;stroke:none" /><path
         d="m 298.9951,481.9482 c -0.09,-0.042 -0.319,-0.097 -0.576,-0.097 -0.862,0 -1.424,0.597 -1.424,1.699 0,1.048 0.618,1.776 1.556,1.776 0.215,0 0.41,-0.048 0.5,-0.09 l -0.119,-0.715 c -0.076,0.028 -0.187,0.063 -0.339,0.063 -0.438,0 -0.696,-0.416 -0.696,-1.006 0,-0.61 0.258,-0.985 0.681,-0.985 0.133,0 0.244,0.021 0.341,0.069 l 0.076,-0.714 z"
         id="path216"
         style="fill:#2c3792;fill-opacity:1;fill-rule:nonzero;stroke:none" /><path
         d="m 300.1895,483.2661 c 0.007,-0.527 0.32,-0.722 0.716,-0.722 0.257,0 0.479,0.056 0.646,0.112 l 0.118,-0.652 c -0.229,-0.091 -0.584,-0.153 -0.923,-0.153 -0.932,0 -1.439,0.61 -1.439,1.672 0,1.144 0.598,1.824 1.361,1.824 0.73,0 1.154,-0.576 1.154,-1.609 0,-0.243 -0.014,-0.375 -0.028,-0.472 l -1.605,0 z m 0.807,0.638 c 0,0.437 -0.112,0.777 -0.383,0.777 -0.291,0 -0.417,-0.437 -0.424,-0.777 l 0.807,0 z"
         id="path220"
         style="fill:#2c3792;fill-opacity:1;fill-rule:nonzero;stroke:none" /><path
         d="m 304.1445,483.9263 c 0,0.275 0.098,0.512 0.294,0.708 0.195,0.196 0.431,0.295 0.707,0.295 0.277,0 0.516,-0.098 0.712,-0.293 0.196,-0.196 0.295,-0.432 0.295,-0.71 0,-0.278 -0.099,-0.514 -0.295,-0.71 -0.196,-0.195 -0.434,-0.293 -0.709,-0.293 -0.278,0 -0.515,0.098 -0.71,0.293 -0.196,0.196 -0.294,0.432 -0.294,0.71"
         id="path224"
         style="fill:#2c3792;fill-opacity:1;fill-rule:nonzero;stroke:none" /><path
         d="m 310.9248,481.9619 c -0.133,-0.063 -0.39,-0.111 -0.702,-0.111 -1.202,0 -1.772,0.978 -1.772,2.31 0,1.762 0.98,2.448 1.89,2.448 0.319,0 0.542,-0.061 0.632,-0.124 l -0.152,-0.763 c -0.105,0.048 -0.223,0.09 -0.424,0.09 -0.514,0 -0.98,-0.444 -0.98,-1.602 0,-1.117 0.424,-1.554 0.98,-1.554 0.152,0 0.326,0.035 0.437,0.069 l 0.091,-0.763 z"
         id="path228"
         style="fill:#2c3792;fill-opacity:1;fill-rule:nonzero;stroke:none" /><path
         d="m 313.7304,482.6694 c 0,-0.27 0.014,-0.548 0.049,-0.777 l -0.814,0 -0.048,0.333 -0.021,0 c -0.181,-0.257 -0.451,-0.388 -0.75,-0.388 -0.515,0 -0.896,0.43 -0.896,1.026 0,0.895 0.785,1.256 1.556,1.263 l 0,0.076 c 0,0.271 -0.153,0.465 -0.479,0.465 -0.272,0 -0.487,-0.076 -0.696,-0.201 l -0.166,0.617 c 0.195,0.104 0.583,0.257 1.063,0.257 1.035,0 1.202,-0.722 1.202,-1.415 l 0,-1.256 z m -0.896,0.874 c -0.299,-0.007 -0.723,-0.111 -0.723,-0.582 0,-0.333 0.187,-0.458 0.327,-0.458 0.152,0 0.313,0.09 0.375,0.291 0.014,0.049 0.021,0.097 0.021,0.16 l 0,0.589 z"
         id="path232"
         style="fill:#2c3792;fill-opacity:1;fill-rule:nonzero;stroke:none" /><path
         d="m 314.4316,484.2095 c 0,0.409 -0.015,0.749 -0.028,1.075 l 0.792,0 0.049,-0.388 0.013,0 c 0.139,0.277 0.397,0.451 0.716,0.451 0.743,0 1.049,-0.812 1.049,-1.755 0,-1.207 -0.528,-1.755 -1.105,-1.755 -0.278,0 -0.465,0.173 -0.562,0.332 l -0.015,0 0,-1.608 -0.909,0 0,3.648 z m 0.909,-1.082 c 0,-0.111 0.015,-0.215 0.049,-0.284 0.069,-0.208 0.188,-0.264 0.292,-0.264 0.319,0 0.438,0.472 0.438,1.006 0,0.645 -0.16,0.992 -0.431,0.992 -0.139,0 -0.271,-0.132 -0.306,-0.292 -0.034,-0.069 -0.042,-0.159 -0.042,-0.242 l 0,-0.916 z"
         id="path236"
         style="fill:#2c3792;fill-opacity:1;fill-rule:nonzero;stroke:none" /><path
         d="m 318.5224,486.1797 c 0.007,-0.292 -0.201,-0.493 -0.479,-0.493 -0.25,0 -0.459,0.201 -0.452,0.493 -0.007,0.305 0.215,0.499 0.465,0.499 0.265,0 0.466,-0.194 0.466,-0.499 m -0.91,-0.895 0.91,0 0,-3.392 -0.91,0 0,3.392 z"
         id="path240"
         style="fill:#2c3792;fill-opacity:1;fill-rule:nonzero;stroke:none" /><path
         d="m 320.2998,486.1655 0,-0.881 0.667,0 0,-0.645 -0.667,0 0,-1.547 c 0,-0.395 0.167,-0.492 0.341,-0.492 0.091,0 0.16,0.006 0.243,0.021 l 0.007,-0.708 c -0.125,-0.035 -0.319,-0.062 -0.556,-0.062 -0.263,0 -0.493,0.062 -0.66,0.214 -0.181,0.181 -0.284,0.438 -0.284,0.972 l 0,1.602 -0.404,0 0,0.645 0.404,0 0,0.597 0.909,0.284 z"
         id="path244"
         style="fill:#2c3792;fill-opacity:1;fill-rule:nonzero;stroke:none" /><path
         d="m 323.752,482.6694 c 0,-0.27 0.015,-0.548 0.049,-0.777 l -0.813,0 -0.049,0.333 -0.02,0 c -0.181,-0.257 -0.452,-0.388 -0.751,-0.388 -0.514,0 -0.896,0.43 -0.896,1.026 0,0.895 0.786,1.256 1.556,1.263 l 0,0.076 c 0,0.271 -0.152,0.465 -0.479,0.465 -0.271,0 -0.487,-0.076 -0.695,-0.201 l -0.167,0.617 c 0.195,0.104 0.584,0.257 1.064,0.257 1.035,0 1.201,-0.722 1.201,-1.415 l 0,-1.256 z m -0.896,0.874 c -0.298,-0.007 -0.722,-0.111 -0.722,-0.582 0,-0.333 0.187,-0.458 0.326,-0.458 0.153,0 0.312,0.09 0.375,0.291 0.014,0.049 0.021,0.097 0.021,0.16 l 0,0.589 z"
         id="path248"
         style="fill:#2c3792;fill-opacity:1;fill-rule:nonzero;stroke:none" /><path
         d="m 324.46,481.892 0.91,0 0,4.801 -0.91,0 0,-4.801 z"
         id="path250"
         style="fill:#2c3792;fill-opacity:1;fill-rule:nonzero;stroke:none" /><path
         d="m 327.3496,486.4985 c 0.229,0.056 0.563,0.09 0.924,0.09 0.591,0 1,-0.138 1.299,-0.416 0.403,-0.36 0.611,-0.978 0.611,-1.887 0,-0.943 -0.243,-1.616 -0.652,-1.976 -0.321,-0.299 -0.779,-0.452 -1.425,-0.452 -0.291,0 -0.576,0.028 -0.757,0.056 l 0,4.585 z m 0.91,-3.885 c 0.049,-0.013 0.112,-0.013 0.159,-0.013 0.439,0 0.821,0.43 0.821,1.72 0,0.957 -0.25,1.54 -0.799,1.54 -0.063,0 -0.125,0 -0.181,-0.021 l 0,-3.226 z"
         id="path262"
         style="fill:#2c3792;fill-opacity:1;fill-rule:nonzero;stroke:none" /><path
         d="m 331.5097,483.2661 c 0.007,-0.527 0.32,-0.722 0.716,-0.722 0.257,0 0.479,0.056 0.646,0.112 l 0.119,-0.652 c -0.23,-0.091 -0.584,-0.153 -0.925,-0.153 -0.931,0 -1.438,0.61 -1.438,1.672 0,1.144 0.598,1.824 1.362,1.824 0.729,0 1.153,-0.576 1.153,-1.609 0,-0.243 -0.014,-0.375 -0.028,-0.472 l -1.605,0 z m 0.806,0.638 c 0,0.437 -0.111,0.777 -0.382,0.777 -0.292,0 -0.417,-0.437 -0.424,-0.777 l 0.806,0 z"
         id="path266"
         style="fill:#2c3792;fill-opacity:1;fill-rule:nonzero;stroke:none" /><path
         d="m 334.3574,485.2847 0.257,-1.519 c 0.049,-0.298 0.097,-0.604 0.146,-0.943 l 0.014,0 c 0.042,0.346 0.083,0.631 0.132,0.943 l 0.265,1.519 0.895,0 -0.91,-3.392 -0.833,0 -0.932,3.392 0.966,0 z"
         id="path270"
         style="fill:#2c3792;fill-opacity:1;fill-rule:nonzero;stroke:none" /><path
         d="m 337.1563,483.2661 c 0.008,-0.527 0.32,-0.722 0.716,-0.722 0.257,0 0.479,0.056 0.646,0.112 l 0.118,-0.652 c -0.229,-0.091 -0.584,-0.153 -0.923,-0.153 -0.932,0 -1.439,0.61 -1.439,1.672 0,1.144 0.598,1.824 1.361,1.824 0.73,0 1.154,-0.576 1.154,-1.609 0,-0.243 -0.014,-0.375 -0.028,-0.472 l -1.605,0 z m 0.807,0.638 c 0,0.437 -0.112,0.777 -0.383,0.777 -0.291,0 -0.416,-0.437 -0.424,-0.777 l 0.807,0 z"
         id="path274"
         style="fill:#2c3792;fill-opacity:1;fill-rule:nonzero;stroke:none" /><path
         d="m 339.372,481.892 0.91,0 0,4.801 -0.91,0 0,-4.801 z"
         id="path276"
         style="fill:#2c3792;fill-opacity:1;fill-rule:nonzero;stroke:none" /><path
         d="m 343.4843,483.5991 c 0,-1.415 -0.785,-1.762 -1.299,-1.762 -0.813,0 -1.3,0.638 -1.3,1.741 0,1.221 0.64,1.769 1.314,1.769 0.806,0 1.285,-0.673 1.285,-1.748 m -1.695,0 c 0,-0.583 0.091,-1.068 0.417,-1.068 0.299,0 0.375,0.568 0.375,1.068 0,0.465 -0.076,1.055 -0.389,1.055 -0.334,0 -0.403,-0.59 -0.403,-1.055"
         id="path288"
         style="fill:#2c3792;fill-opacity:1;fill-rule:nonzero;stroke:none" /><path
         d="m 344.0605,484.2095 c 0,0.409 -0.015,0.749 -0.028,1.075 l 0.792,0 0.049,-0.388 0.013,0 c 0.139,0.277 0.397,0.451 0.716,0.451 0.743,0 1.049,-0.812 1.049,-1.755 0,-1.207 -0.528,-1.755 -1.105,-1.755 -0.278,0 -0.465,0.173 -0.562,0.332 l -0.015,0 0,-1.608 -0.909,0 0,3.648 z m 0.909,-1.082 c 0,-0.111 0.015,-0.215 0.049,-0.284 0.069,-0.208 0.188,-0.264 0.292,-0.264 0.319,0 0.438,0.472 0.438,1.006 0,0.645 -0.16,0.992 -0.431,0.992 -0.139,0 -0.271,-0.132 -0.306,-0.292 -0.034,-0.069 -0.042,-0.159 -0.042,-0.242 l 0,-0.916 z"
         id="path292"
         style="fill:#2c3792;fill-opacity:1;fill-rule:nonzero;stroke:none" /><path
         d="m 347.2343,484.2651 c 0,0.368 -0.015,0.693 -0.028,1.02 l 0.792,0 0.049,-0.389 0.013,0 c 0.174,0.25 0.459,0.451 0.806,0.451 0.383,0 0.626,-0.173 0.743,-0.465 l 0.015,0 c 0.083,0.132 0.214,0.257 0.347,0.34 0.139,0.084 0.298,0.125 0.472,0.125 0.611,0 0.883,-0.485 0.883,-1.297 l 0,-2.157 -0.91,0 0,2.004 c 0,0.382 -0.042,0.694 -0.313,0.694 -0.16,0 -0.285,-0.111 -0.341,-0.305 -0.02,-0.056 -0.028,-0.146 -0.028,-0.243 l 0,-2.15 -0.909,0 0,2.129 c 0,0.25 -0.022,0.569 -0.306,0.569 -0.139,0 -0.278,-0.097 -0.341,-0.305 -0.02,-0.062 -0.035,-0.16 -0.035,-0.257 l 0,-2.136 -0.909,0 0,2.372 z"
         id="path296"
         style="fill:#2c3792;fill-opacity:1;fill-rule:nonzero;stroke:none" /><path
         d="m 352.7979,483.2661 c 0.007,-0.527 0.319,-0.722 0.715,-0.722 0.258,0 0.479,0.056 0.646,0.112 l 0.118,-0.652 c -0.229,-0.091 -0.583,-0.153 -0.923,-0.153 -0.931,0 -1.439,0.61 -1.439,1.672 0,1.144 0.598,1.824 1.362,1.824 0.73,0 1.153,-0.576 1.153,-1.609 0,-0.243 -0.014,-0.375 -0.028,-0.472 l -1.604,0 z m 0.806,0.638 c 0,0.437 -0.112,0.777 -0.382,0.777 -0.292,0 -0.417,-0.437 -0.424,-0.777 l 0.806,0 z"
         id="path300"
         style="fill:#2c3792;fill-opacity:1;fill-rule:nonzero;stroke:none" /><path
         d="m 355.0128,484.2651 c 0,0.368 -0.014,0.693 -0.027,1.02 l 0.785,0 0.048,-0.389 0.014,0 c 0.174,0.264 0.465,0.444 0.82,0.444 0.646,0 0.903,-0.513 0.903,-1.269 l 0,-2.178 -0.91,0 0,2.122 c 0,0.285 -0.07,0.562 -0.334,0.562 -0.153,0 -0.278,-0.104 -0.34,-0.305 -0.028,-0.07 -0.049,-0.18 -0.049,-0.312 l 0,-2.067 -0.91,0 0,2.372 z"
         id="path304"
         style="fill:#2c3792;fill-opacity:1;fill-rule:nonzero;stroke:none" /><path
         d="m 359.333,486.1655 0,-0.881 0.667,0 0,-0.645 -0.667,0 0,-1.547 c 0,-0.395 0.167,-0.492 0.341,-0.492 0.09,0 0.159,0.006 0.243,0.021 l 0.007,-0.708 c -0.125,-0.035 -0.32,-0.062 -0.556,-0.062 -0.264,0 -0.493,0.062 -0.66,0.214 -0.181,0.181 -0.285,0.438 -0.285,0.972 l 0,1.602 -0.403,0 0,0.645 0.403,0 0,0.597 0.91,0.284 z"
         id="path308"
         style="fill:#2c3792;fill-opacity:1;fill-rule:nonzero;stroke:none" /></g></g></svg>