<svg version="1.1" id="Layer_1" xmlns="http://www.w3.org/2000/svg" x="0" y="0" viewBox="0 0 144 120" xml:space="preserve">
  <style>
    .st0{fill:#801521}.st1{fill:#231f20}
  </style>
  <path class="st0" d="M84.9 45.6c.4 0 .8-.4.8-.8s-.4-.8-.8-.8-.8.4-.8.8c0 .5.4.8.8.8M97.1 50s-3.7 6.2-3.8 6.4h1.9s2.7-4.5 3.2-5.3c1.5-2.3 4.6-3.9 4.9-3.1-1.2-.2-1.5 1.5-.5 1.8 1.4.6 2.3-2.2.3-2.3-1.2 0-3.7 1.9-3.9 2.2l1.3-2.2h-1.9c-2.4 4.2-7.6 8.2-9.8 8.3-4.9.4 1-8.4 3.1-8.2.5 0 .7.3.7 1-.2 1.5-2.4 4-5.3 3.9l-.1.2c2.9.3 8-2.7 6.4-4.9-1.4-1.4-5.1.1-7.4 3.2l-.5.7c-.3.6-2 3.4.6 4.5 1.1.3 2 .1 3.1-.2 3.4-1 7.7-6 7.7-6"/>
  <path class="st0" d="M85.6 52.2c-1 1.5-3.6 3.6-3.6 3.6-1.3.9-2.4.8-2.8.6-1.4-.8-.2-2.6.8-4.4-.2.3 0 0 0 0-1.9 2.1-3.6 3.3-3.6 3.3-2 1.7-5.4 1.5-4-1.3l3.2-5.6.4-.7c-2.8 3.5-4 2.7-4 2.7-.3-.1-.4-.3-.4-.5-.1-.5.1-1.3.7-1.4.2 0 .5 0 .7.1 0-1.3-2.5-.9-3.8.9-.6.6-4.1 6.8-4.1 6.8H63l2.3-3.7c-5 6.1-7.6 3.5-7.2 1.8-1.4 1.1-2.5 1.5-3 1.7-.6.2-1.3.4-1.8.3-1.4-.2-2.1-1.4-1.6-3 0 0-2.8 2.6-6.1 3-9.3.7-6-8.5-1.3-13.3 5.5-5.1 9.7-5.3 12-3.9.7.4 2.3.1 3-.2-1.2 1.2-2.2 3.2-2.2 3.2-.1-2.2-1.5-4.1-4.9-3.2-4.6 1.2-7.8 6.5-8.6 7.7-2.4 4.7-1.9 7.4-.6 8.8 1.2 1.3 5 1.1 8.7-2.3.9-1.6 1.9-2.8 3-3.8l.8.5c-.9 1.1-2 2.8-2.2 4.1-.3 1.4.3 2.9 3.1 1.5 0 0 .7-.4 1.2-.8 1.7-1.5 2.7-3.2 3.3-4.5.9-2-.4-3.4-2.7-2.3-1.1.5-2 1.3-2.8 2.2l-.6-.7c1.5-1.3 3.1-2.2 4.6-2.1.3 0 .5 0 .8.1 1.8.4 1.1 2.5 1.2 2.1 0-.1.7-1.4 1-1.8h1.8l-3.6 6.1c-.6 1.1-.6 1.8 0 2.1 2.3.6 6.5-5.4 8.1-8.2h1.8l-.8 1.3c1.5-1.3 2.8-1.1 2.8-1.1s.9.1 1.1.9c0 0 .1.7-.3 1.2 2.2-1 4.5-4.7 5.4-6.3h1.8l-2.1 3.8h2l-.3.3h-2l-3.5 6.1c-1.4 2 .2 2.7 2.2 1.1 3.6-2.5 5.8-6.6 6.2-7.2h1.6L81 54.1c-.9 1.6.1 2.8 2.3.7 0 0 2.5-2.3 2.9-3.3"/>
  <path class="st1" d="M133 79.7l.4-.9c.6.3 1.1.4 1.9.4 1.1 0 1.9-.7 2.7-2.6l-5.3-11h1.2l4.6 9.9 4-9.9h1.2L138.9 77c-1 2.3-2.1 3.1-3.7 3.1-.9.1-1.5 0-2.2-.4m-14-14h1.1v2.5c1-1.4 2.4-2.7 4.5-2.7 2.7 0 5.4 2.1 5.4 5.7s-2.7 5.8-5.4 5.8c-2.2 0-3.6-1.3-4.5-2.6v5.8H119V65.7zm9.8 5.5c0-2.9-2-4.8-4.3-4.8s-4.5 1.9-4.5 4.7c0 2.8 2.2 4.7 4.5 4.7 2.4.1 4.3-1.6 4.3-4.6m-25.5 0c0-3.1 2.4-5.8 5.7-5.8 3.3 0 5.6 2.6 5.6 5.7s-2.4 5.8-5.7 5.8c-3.2.1-5.6-2.6-5.6-5.7m10.2 0c0-2.7-2-4.8-4.5-4.8-2.6 0-4.5 2.1-4.5 4.7 0 2.7 2 4.8 4.5 4.8 2.6.1 4.5-2.1 4.5-4.7m-18.6-5.5H96v3.1c.9-2 2.7-3.4 4.9-3.3v1.2h-.1c-2.6 0-4.8 1.9-4.8 5.5v4.5h-1.1v-11zm-14.3-4.8h1.1v6.8c.7-1.3 2-2.3 4-2.3 2.8 0 4.4 1.9 4.4 4.5v6.7H89V70c0-2.3-1.3-3.8-3.5-3.8s-3.8 1.6-3.8 3.9v6.4h-1.1V60.9zm-9.2 13v-7.2h-1.6v-1h1.6v-3.5h1.1v3.5h3.9v1h-3.9v7.1c0 1.6.9 2.1 2.2 2.1.5 0 1-.1 1.6-.4v1c-.6.3-1.1.4-1.8.4-1.7 0-3.1-.9-3.1-3m-14.9-8.2h1.1v2.1c.7-1.3 2-2.3 4-2.3 2.8 0 4.4 1.9 4.4 4.5v6.7h-1.1v-6.5c0-2.3-1.3-3.8-3.5-3.8s-3.8 1.6-3.8 3.9v6.4h-1.1v-11zm-14.4 7.8c0-2.3 2-3.6 4.8-3.6 1.5 0 2.6.2 3.7.5v-.5c0-2.2-1.4-3.4-3.6-3.4-1.3 0-2.4.4-3.5.9l-.4-.9c1.2-.6 2.4-1 3.9-1s2.7.4 3.5 1.2c.7.7 1.1 1.8 1.1 3.1v6.9h-1v-1.8c-.8 1.1-2.1 2.1-4.2 2.1s-4.3-1.2-4.3-3.5m8.5-.9v-1.3c-.9-.2-2.2-.5-3.7-.5-2.3 0-3.6 1-3.6 2.6s1.5 2.5 3.2 2.5c2.2.1 4.1-1.3 4.1-3.3M15.8 60.9h1.1v6.8c.7-1.3 2-2.3 4-2.3 2.8 0 4.4 1.9 4.4 4.5v6.7h-1.1V70c0-2.3-1.3-3.8-3.5-3.8s-3.8 1.6-3.8 3.9v6.4h-1.1V60.9zM.4 65.7h1.1v2.5c1-1.4 2.4-2.7 4.5-2.7 2.7 0 5.4 2.1 5.4 5.7S8.7 77 6 77c-2.2 0-3.6-1.3-4.5-2.6v5.8H.4V65.7zm9.8 5.5c0-2.9-2-4.8-4.3-4.8s-4.5 1.9-4.5 4.7c0 2.8 2.2 4.7 4.5 4.7 2.4.1 4.3-1.6 4.3-4.6m26.5 5.5h1.1V60.9h-1.1v15.8zm-6.6-15.4h1.3v1.4h-1.3v-1.4zm.1 4.4h1.1v11h-1.1v-11zM16.8 38.5C23.8 20 39.7 5.4 60.3 1c.3-.1.7-.1 1-.2V0c-.3 0-.7.1-1.1.2C39.1 4.7 23 19.7 16 38.5h.8zM116.9 99.8c-8.1 8.9-19 15.4-31.6 18.1-4.2.9-8.4 1.3-12.5 1.3h-.1v.8h.1c4.2 0 8.4-.4 12.6-1.3 13.1-2.8 24.3-9.6 32.5-18.9h-1z"/>
</svg>
