<svg width="115" height="32" fill="none" xmlns="http://www.w3.org/2000/svg"><path d="M114.759 2.346c-.389.684-.359 1.467-.475 2.209-1.05 6.718-2.078 13.44-3.116 20.16-.139.896-.571 1.305-1.466 1.328a75.587 75.587 0 01-3.137.006c-.874-.012-1.144-.354-1.008-1.246.592-3.879 1.19-7.756 1.787-11.633.586-3.813 1.175-7.625 1.763-11.438.125-.805.336-1.03 1.12-1.044 1.131-.023 2.262-.004 3.394-.008.449-.001.839.128 1.139.485l-.001 1.181zM51.958 18.568c.227-.327.378-.533.52-.748 1.716-2.581 3.446-5.154 5.137-7.753.439-.675.965-.97 1.755-.936 1.109.046 2.221.009 3.331.013.42.001.887-.086 1.134.4.243.474-.052.83-.297 1.19L50.914 29.358c-.413.61-.839 1.211-1.236 1.832-.348.543-.813.79-1.452.78-1.196-.021-2.391-.006-3.587-.005-.41 0-.832.034-1.07-.412-.242-.454.03-.788.265-1.13 1.272-1.834 2.532-3.677 3.824-5.496.296-.417.344-.772.18-1.259-1.463-4.331-2.903-8.67-4.348-13.008-.391-1.174-.151-1.515 1.059-1.516 1.132-.002 2.263-.005 3.395.001.95.005 1.301.275 1.574 1.202.727 2.465 1.448 4.933 2.171 7.399.068.225.147.447.269.822zM20.947 4.167c-.95-2.034-2.721-2.864-4.754-3.248-2.031-.385-4.09-.187-5.837-.235-1.837 0-3.374-.002-4.911 0-1.44.001-1.737.272-1.962 1.735-.669 4.353-1.345 8.707-2.017 13.06C.993 18.54.517 21.6.05 24.661c-.168 1.105.058 1.383 1.092 1.389 1.09.005 2.179.002 3.267.001 1.345-.001 1.675-.294 1.885-1.67.273-1.789.539-3.58.821-5.368.168-1.068.578-1.416 1.637-1.43 1.132-.014 2.266.024 3.396-.034 2.405-.123 4.64-.752 6.43-2.521 1.777-1.757 2.504-4.013 2.846-6.437.216-1.514.184-3.014-.477-4.424zm-6.125 4.515c-.018.194-.034.39-.06.585-.252 1.823-1.231 2.856-3.012 3.125-.61.092-1.23.107-1.847.157l-.002-.024c-.256 0-.512.004-.768-.001-1.144-.023-1.029.163-.855-1.066.222-1.573.485-3.14.728-4.71.122-.785.328-.98 1.078-.989.852-.01 1.704.002 2.552.117 1.544.212 2.33 1.214 2.186 2.806zM85.09 5.733c-.08-.85-.408-1.648-.911-2.351C83.082 1.845 81.497 1.2 79.747.905c-1.97-.33-3.96-.208-5.394-.224-2.197 0-3.84-.017-5.485.007-1.099.016-1.503.418-1.666 1.49-.794 5.195-1.595 10.39-2.394 15.585-.35 2.263-.714 4.523-1.052 6.788-.182 1.219.068 1.5 1.261 1.503 1.196.003 2.392.01 3.588-.004.877-.01 1.15-.263 1.281-1.123.294-1.92.587-3.837.886-5.756.196-1.261.577-1.585 1.826-1.606 1.471-.026 2.944.082 4.413-.135 2.365-.347 4.467-1.22 5.954-3.219 1.868-2.509 2.42-5.397 2.125-8.478zm-6.935 4.64c-.471 1.233-1.43 1.817-2.637 2.014-1.056.172-2.126.178-3.195.16-.402-.007-.52-.18-.455-.575.27-1.68.515-3.364.789-5.042.174-1.068.315-1.172 1.39-1.173h.575c.814-.005 1.625.033 2.406.296.915.308 1.387.977 1.462 1.944.06.815-.043 1.61-.335 2.377zM40.203 9.148c-1.26-.014-2.52.01-3.78-.01-.66-.011-.995.282-1.049.95-.019.242-.088.48-.168.893-.674-1.102-1.55-1.612-2.562-1.904a9.426 9.426 0 00-4.002-.254c-5.03.743-8.697 5.469-8.4 10.784.24 4.306 2.958 6.903 7.177 6.84 2.16-.031 4.031-.838 5.764-2.404l-.079.717c-.119 1.041.093 1.285 1.142 1.289 1.004.004 2.008.006 3.012-.002 1.075-.008 1.47-.339 1.638-1.418a7736.4 7736.4 0 002.224-14.356c.118-.77-.157-1.117-.917-1.125zm-5.762 8.58c-.474 2.435-2.19 3.94-4.655 4.08-2.417.138-3.94-1.475-3.717-3.939.246-2.719 2.573-4.723 5.202-4.481 2.316.213 3.626 2.007 3.17 4.34zM103.631 9.15c-.855-.004-1.709-.017-2.563.003-1.782.04-1.701-.303-2.227 1.737-.65-.997-1.5-1.52-2.492-1.795a9.616 9.616 0 00-4.818-.116c-5.496 1.287-8.302 6.975-7.48 11.714.437 2.53 1.711 4.496 4.207 5.314 2.803.918 5.44.461 7.833-1.324.225-.168.443-.345.76-.594-.034.37-.049.585-.073.8-.09.802.178 1.143.981 1.157 1.11.02 2.221.023 3.331-.001.901-.02 1.327-.421 1.477-1.318.08-.474.141-.948.214-1.423.66-4.267 1.323-8.534 1.976-12.803.166-1.082-.065-1.345-1.126-1.35zm-5.446 8.326c-.398 2.954-3.075 4.86-5.928 4.218-1.64-.37-2.548-1.582-2.52-3.37.046-2.928 2.253-5.073 5.096-4.953 2.232.092 3.658 1.837 3.352 4.105z" fill="#9B9FA6"/></svg>