<svg xmlns="http://www.w3.org/2000/svg" viewBox="0 0 242 57">
  <mask id="a" fill="#fff">
    <path d="M0 56.905h241.9124V.0004H0z" fill-rule="evenodd"/>
  </mask>
  <g fill="none" fill-rule="evenodd">
    <g fill="#007b91">
      <path d="M85.358 22.8442h4.2973v8.4366c-2.3215 1.694-5.865 2.8547-8.9072 2.8547-6.6483 0-11.6982-4.8305-11.6982-11.1969 0-6.3357 5.1419-11.1343 11.9801-11.1343 3.2616 0 6.5858 1.255 8.8129 3.2002l-2.791 3.5436c-1.6314-1.5052-3.888-2.4465-6.0219-2.4465-3.8892 0-6.9007 2.9797-6.9007 6.837 0 3.888 3.0434 6.8689 6.9314 6.8689 1.3176 0 2.8865-.4707 4.2973-1.1926zM100.913 23.5027h4.5793c2.7273 0 4.295-1.254 4.295-3.763 0-2.4477-1.5677-3.6697-4.295-3.6697h-4.5792zm8.5298 10.4124l-3.4822-6.272h-5.0475v6.272h-4.9544V11.9614h9.5336c5.7376 0 9.0005 2.7603 9.0005 7.6215 0 3.3866-1.4439 5.8331-4.1098 7.087l4.6724 7.2452zM133.4663 25.6666l-3.4503-8.531-3.481 8.531zm1.5984 3.9835h-10.16l-1.7258 4.2655h-5.1112l9.5336-21.955h5.11l9.3792 21.955h-5.3012zM151.4658 11.9617l6.3982 13.424 6.3652-13.424h5.5206v21.9538h-4.453v-14.803l-5.8344 12.5759h-3.2298l-5.8332-12.5759v14.803h-4.4837V11.9617zM192.8317 11.9617v4.1086h-11.763v4.7668h10.5716v4.1086h-10.5717v4.8624h12.1076v4.1074h-17.0608V11.9617zM216.1325 11.9617v4.1086h-11.762v4.7668h10.5705v4.1086h-10.5705v4.8624h12.1064v4.1074h-17.0607V11.9617zM226.5451 11.9617l10.6637 14.113v-14.113h4.7031v21.9538h-4.5167l-10.6307-14.081v14.081h-4.735V11.9617zM81.037 40.273l-.0176 1.891h-6.2602v3.6013h5.6716v1.872h-5.6716v5.1184h-2.102V40.273zM89.1953 46.5137c0 2.4784 2.0501 4.4413 4.4943 4.4413 2.443 0 4.44-1.9629 4.44-4.4413 0-2.4783-1.997-4.4046-4.44-4.4046-2.4607 0-4.4943 1.9263-4.4943 4.4046m11.0919 0c0 3.566-2.889 6.3298-6.6165 6.3298-3.7264 0-6.6152-2.7638-6.6152-6.3298 0-3.5848 2.8888-6.2955 6.6152-6.2955 3.7276 0 6.6165 2.7308 6.6165 6.2955M112.791 50.9545c2.0348 0 3.2981-1.2492 3.2981-3.3713v-7.31h2.1056v7.31c0 3.264-2.0501 5.261-5.4215 5.261-3.3701 0-5.4392-1.997-5.4392-5.261v-7.31h2.1045v7.31c0 2.1056 1.3023 3.3713 3.3524 3.3713M129.2006 40.273l6.6872 8.971v-8.971h2.069v12.4827h-2.069l-6.653-8.9521v8.952h-2.1032V40.273zM156.9688 46.5321c0-2.5503-1.9074-4.3692-4.3681-4.3692h-2.9785v8.702h3.067c2.4264 0 4.2796-1.8013 4.2796-4.3328m2.1233-.0177c0 3.6014-2.7296 6.2402-6.5103 6.2402h-5.064V40.273h5.1171c3.7465 0 6.4572 2.6211 6.4572 6.2413M173.253 48.0648l-2.3533-5.5453-2.3545 5.5453zm.8021 1.8732h-6.2944l-1.195 2.817h-2.1928l5.5111-12.4827h2.1563l5.4593 12.4826H175.25zM191.5933 40.273v1.891h-3.9575v10.5917H185.53V42.1639h-3.9399V40.273z"/>
      <path d="M199.5325 52.7562h2.1044V40.2736h-2.1044zM212.3137 46.5137c0 2.4784 2.0513 4.4413 4.4943 4.4413 2.4418 0 4.44-1.9629 4.44-4.4413 0-2.4783-1.9982-4.4046-4.44-4.4046-2.4606 0-4.4943 1.9263-4.4943 4.4046m11.0919 0c0 3.566-2.8889 6.3298-6.6153 6.3298-3.7275 0-6.6164-2.7638-6.6164-6.3298 0-3.5848 2.8889-6.2955 6.6164-6.2955 3.7264 0 6.6153 2.7308 6.6153 6.2955M232.5918 40.273l6.6872 8.971v-8.971h2.0679v12.4827h-2.0679l-6.6518-8.9521v8.952h-2.1044V40.273z" mask="url(#a)"/>
    </g>
    <path d="M56.9046 29.7808c-14.6744.6736-26.4493 12.4497-27.124 27.124 14.6744-.6747 26.4492-12.4496 27.124-27.124" fill="#689431" mask="url(#a)"/>
    <path d="M-.0002 29.7808c.6735 14.6744 12.4508 26.4493 27.124 27.124-.6748-14.6743-12.4497-26.4504-27.124-27.124" fill="#ed680f" mask="url(#a)"/>
    <path d="M27.124-.0004C12.4496.6744.6736 12.4493 0 27.1236c14.6744-.6735 26.4493-12.4496 27.124-27.124" fill="#007b91" mask="url(#a)"/>
    <path d="M54.1329 11.6201c0 4.886-3.9612 8.8471-8.8471 8.8471-4.8883 0-8.8483-3.9611-8.8483-8.847 0-4.8872 3.96-8.8483 8.8483-8.8483 4.886 0 8.847 3.961 8.847 8.8482" fill="#8c2984" mask="url(#a)"/>
  </g>
</svg>
