<svg id="Logo" xmlns="http://www.w3.org/2000/svg" viewBox="0 0 1311.65 138.56">
  <defs>
    <style>
      .cls-1{fill:#d6002a}
    </style>
  </defs>
  <path class="cls-1" d="M370.8 314.45a26.17 26.17 0 01-2.1 11 27.08 27.08 0 01-5.42 7.91 29.54 29.54 0 01-12.68 7.45 55 55 0 01-15.87 2.19 50.08 50.08 0 01-14.34-2.1 32.58 32.58 0 01-12.69-7.2 30.18 30.18 0 01-6.75-9.12 26.4 26.4 0 01-2.68-11.91h16.83a14.31 14.31 0 001.34 6.18 16.87 16.87 0 003.38 4.91 14.28 14.28 0 007.07 3.89 35.75 35.75 0 008.09 1 35.36 35.36 0 008.93-1.08 13.79 13.79 0 006.75-3.76 17.62 17.62 0 002.55-3.51 10.77 10.77 0 001-5.16c0-3.31-1.08-5.8-3.25-7.45a17.09 17.09 0 00-7.46-3.25 81.5 81.5 0 00-10.07-1.27c-3.65-.26-7-.65-9.94-1.16a34.12 34.12 0 01-8.86-2.67 25.29 25.29 0 01-7.27-5 23.18 23.18 0 01-5-7.52 25.49 25.49 0 01-1.86-10 22.19 22.19 0 012.17-9.81 29.37 29.37 0 015.74-8 30.76 30.76 0 0111.47-7 45.23 45.23 0 0129-.32 30 30 0 0111.28 6.56 31.42 31.42 0 016.56 8.67 24 24 0 012.62 10.58h-16.77a13.17 13.17 0 00-1.21-4.78 15.7 15.7 0 00-2.74-4.14 14.25 14.25 0 00-6.12-3.57 24.83 24.83 0 00-7.65-1.28 31.66 31.66 0 00-7.83 1 13.94 13.94 0 00-6.82 4 12.89 12.89 0 00-2.24 3.31 10.26 10.26 0 00-.82 4.33q0 4.47 2.55 6.82a12.21 12.21 0 006.62 3q4.33.64 9.75 1.14t9.88 1.15a38.42 38.42 0 019.63 2.74 26.73 26.73 0 017.9 5.23 23.9 23.9 0 015.36 7.84 26 26 0 012 10.32M442 341.48l-6.37-7.14a36.25 36.25 0 01-12 7.14 41.11 41.11 0 01-13.63 2.29 34.73 34.73 0 01-11.47-1.91 29.22 29.22 0 01-9.56-5.42 26.06 26.06 0 01-6.5-8.6 26.51 26.51 0 01-2.47-11.48 23.73 23.73 0 014.4-14.41 40.65 40.65 0 0111.66-10.45c-1.45-1.53-2.76-3-3.95-4.53a32.12 32.12 0 01-3.06-4.52 21 21 0 01-2.68-10.58 21.93 21.93 0 0115.11-21.29 29.79 29.79 0 019.62-1.53 30.55 30.55 0 019.5 1.47 23.83 23.83 0 018 4.33 20.77 20.77 0 017.52 16.51 23.22 23.22 0 01-1.28 8 22.41 22.41 0 01-3.57 6.37 32 32 0 01-5.41 5.29 64.84 64.84 0 01-6.82 4.59l15.67 17.08a15.79 15.79 0 001.6-5c.29-1.91.53-3.92.7-6.05s.26-4 .26-6v-5.09h23.32v12.62h-10.47a65 65 0 01-1.4 10.58 28.91 28.91 0 01-4.08 9.69l16.69 18.1zm-36.58-40q-2.29 1.41-4.21 2.68a17.67 17.67 0 00-3.38 2.93 12.77 12.77 0 00-2.29 3.76 13.22 13.22 0 00-.83 4.91 13.51 13.51 0 001.34 6.12 13.06 13.06 0 003.57 4.46 15.26 15.26 0 005.16 2.68 21 21 0 006.12.88 30.2 30.2 0 008.16-1.14 14.48 14.48 0 007-4.46zM421.18 272q0-4.72-2.86-7.27a10.45 10.45 0 00-7.21-2.55 11.19 11.19 0 00-7 2.36c-2 1.57-3.06 3.93-3.06 7.08a10.15 10.15 0 00.83 4.07 20 20 0 002 3.64 26.06 26.06 0 002.74 3.25l2.94 2.93 4.14-2.36a20.38 20.38 0 003.75-2.75 12.22 12.22 0 002.68-3.57 10.5 10.5 0 001-4.83M540.66 279.91a33 33 0 01-2 11.85 24.55 24.55 0 01-6.06 9.18 27.38 27.38 0 01-10 5.93 41.59 41.59 0 01-13.77 2.1h-19.16v32.38h-16.31V251h35.43a41.59 41.59 0 0113.77 2.1 28 28 0 0110 5.86 24 24 0 016.06 9.12 33 33 0 012 11.85m-16.57.13a14.83 14.83 0 00-3.82-10.58q-3.82-4.08-12.11-4.08h-18.44v29.19h18.48q8.28 0 12.11-4a14.64 14.64 0 003.82-10.59M637.53 341.35l-1.91-10a18.39 18.39 0 01-3 4 21.44 21.44 0 01-5 3.76 33.2 33.2 0 01-6.69 2.75 28.4 28.4 0 01-7.9 1.07 48.46 48.46 0 01-14.72-2.16 28.25 28.25 0 01-12.31-7.84 35.83 35.83 0 01-5.79-7.77 43 43 0 01-3.58-8.67 54.78 54.78 0 01-1.85-9.62 105.86 105.86 0 01-.5-10.65c0-3.64.14-7.15.44-10.51a52 52 0 011.72-9.5 39.59 39.59 0 013.57-8.54 36 36 0 016-7.78 34.36 34.36 0 0112.43-7.9 41.17 41.17 0 0114.47-2.68 40.15 40.15 0 0115.29 2.81 33.35 33.35 0 0111.48 7.52 33.82 33.82 0 015.6 7.84 25.74 25.74 0 012.72 10.39h-16.84a10.69 10.69 0 00-1.4-4.59 35.85 35.85 0 00-2.55-3.7q-4.71-5.47-14.41-5.48a21.75 21.75 0 00-8 1.6 17.57 17.57 0 00-6.76 4.52 19.61 19.61 0 00-3.7 5.61 34.86 34.86 0 00-2.16 6.69 44.5 44.5 0 00-1 7.07q-.19 3.57-.19 6.63t.25 6.69a51.57 51.57 0 001 7.2 36.25 36.25 0 002.17 6.83 19.11 19.11 0 003.7 5.67 16.08 16.08 0 006.69 4.33 23.88 23.88 0 008 1.41 20.21 20.21 0 007.84-1.41 16.2 16.2 0 005.68-3.82 18.24 18.24 0 004.78-8.12 38.76 38.76 0 001.08-9.5h-21.55v-13.61h37.48v49.46zM688 341.22c-1.62.34-2.79.58-3.51.7a22.22 22.22 0 01-3.5.19q-8.16 0-13.13-4.21t-5-13.64v-75.07H679v72.4a8.21 8.21 0 001.15 4.65q1.14 1.72 5.22 1.73a13.71 13.71 0 001.53-.07 9.72 9.72 0 011.15-.07zM755.63 308.21a42.23 42.23 0 01-2 14.08 37.15 37.15 0 01-5.74 10.39 28.81 28.81 0 01-9.5 7.26 32.2 32.2 0 01-27.4 0 28.66 28.66 0 01-9.49-7.26 36.9 36.9 0 01-5.74-10.39 49.64 49.64 0 010-28.17 37 37 0 015.74-10.39 28.66 28.66 0 019.49-7.26 32.2 32.2 0 0127.4 0 28.81 28.81 0 019.5 7.26 37.29 37.29 0 015.74 10.39 42.29 42.29 0 012 14.09m-16.19 0a46.17 46.17 0 00-.89-9.12 15.67 15.67 0 00-3.82-7.59 13.92 13.92 0 00-4.21-3 14.82 14.82 0 00-11.73 0 13.79 13.79 0 00-4.21 3 15.67 15.67 0 00-3.82 7.59 47.12 47.12 0 000 18.23 15.58 15.58 0 003.82 7.59 13.82 13.82 0 004.21 3 14.82 14.82 0 0011.73 0 13.94 13.94 0 004.21-3 15.58 15.58 0 003.82-7.59 46.07 46.07 0 00.89-9.11M829.16 308.33a44.71 44.71 0 01-2.94 16.76 29.5 29.5 0 01-8.92 12.18 24.41 24.41 0 01-16.06 5.6 27.46 27.46 0 01-10.58-2.09 17 17 0 01-8-6.7l-1 7.27h-13.81v-92h15.93v30.6a16.76 16.76 0 016.82-4.65 30.6 30.6 0 0119.63-.45 22.28 22.28 0 017.07 3.95q11.85 9.83 11.86 29.57m-16.2-.25a44.31 44.31 0 00-.83-8.54 17.62 17.62 0 00-3.38-7.52 16.54 16.54 0 00-4.39-3.7 12.31 12.31 0 00-6.31-1.52 13.48 13.48 0 00-7.65 2 13.78 13.78 0 00-4.58 5.1 21.31 21.31 0 00-2.23 6.88 49 49 0 00-.58 7.33 44.7 44.7 0 001.15 9.88 15.58 15.58 0 004.59 8.22 12.05 12.05 0 004 2.43 14.81 14.81 0 005.35.88 12.17 12.17 0 006.31-1.53 16.19 16.19 0 004.4-3.69 17.92 17.92 0 003.38-7.59 45.15 45.15 0 00.82-8.6M899.89 340.58a31 31 0 01-3.5 1.34 16 16 0 01-4.39.45c-3.49 0-6.16-.94-8-2.8a10.49 10.49 0 01-3.19-6.5 18.72 18.72 0 01-7.65 7 25.52 25.52 0 01-12.51 2.93 29.14 29.14 0 01-10.46-1.71 22.08 22.08 0 01-7.46-4.6 19 19 0 01-4.52-6.62 20.62 20.62 0 01-1.53-7.84 19.66 19.66 0 011.72-8.41 18.89 18.89 0 014.78-6.38 22.06 22.06 0 017.14-4.14 33.54 33.54 0 018.79-1.85l19.5-1.4V296a12 12 0 00-2.23-7.59q-2.22-2.86-9-2.86c-3.74 0-6.64.81-8.73 2.41a9.08 9.08 0 00-3.38 7h-15.41a23.32 23.32 0 012.62-9.69 19.49 19.49 0 015.92-6.69 26.19 26.19 0 018.54-3.89 41.39 41.39 0 0110.45-1.27 37 37 0 0115.23 3 18.16 18.16 0 019.62 10.52 23.46 23.46 0 011.6 6.63c.21 2.29.32 4.55.32 6.75v24.61a5 5 0 00.83 3.25 3.67 3.67 0 002.87.95 5 5 0 001.4-.13 1.41 1.41 0 00.63-.12v11.72zm-21.28-28.68l-16.83 1.28a12.5 12.5 0 00-6.63 2.41 7.35 7.35 0 00-2.93 6.26 7.26 7.26 0 002.87 6 10.38 10.38 0 006.56 2.23q7.53 0 12.24-3.89t4.72-11.19zM934.91 341.22c-1.61.34-2.78.58-3.5.7a22.45 22.45 0 01-3.51.19q-8.16 0-13.13-4.21t-5-13.64v-75.07h16.06v72.4a8.21 8.21 0 001.15 4.65c.77 1.15 2.5 1.73 5.22 1.73a13.92 13.92 0 001.54-.07 9.55 9.55 0 011.14-.07v13.39z" transform="translate(-298.27 -205.58)"/>
  <path d="M0 0h636.64v14.67H0zM694.33 137.06h6.25v-44h45.5v-5.5h-45.5v-35h50.5v-5.5h-56.75v90z"/>
  <path d="M1105.08 286.28a27.52 27.52 0 00-9.38-7.41 31.3 31.3 0 00-25.57 0 27.52 27.52 0 00-9.38 7.41 32.9 32.9 0 00-5.75 10.81 42.74 42.74 0 00-2 13.05 43.34 43.34 0 002 13.12 31.93 31.93 0 005.75 10.81 27.85 27.85 0 009.38 7.35 31.43 31.43 0 0025.58 0 27.91 27.91 0 009.37-7.35 32.3 32.3 0 005.76-10.81 43.7 43.7 0 002-13.12 43.14 43.14 0 00-2-13.05 33.19 33.19 0 00-5.76-10.81zm2.21 23.86a37.41 37.41 0 01-1.61 11 29.71 29.71 0 01-4.69 9.32 23 23 0 01-7.62 6.46 24 24 0 01-20.9 0 22.92 22.92 0 01-7.63-6.46 29.71 29.71 0 01-4.69-9.32 38.08 38.08 0 010-21.91 29.6 29.6 0 014.69-9.32 22.92 22.92 0 017.63-6.46 24 24 0 0120.9 0 23 23 0 017.62 6.46 29.6 29.6 0 014.69 9.32 37.39 37.39 0 011.61 10.91zM1171.39 312.77a35.33 35.33 0 01-1.55 10.7 24.11 24.11 0 01-4.49 8.37 20.7 20.7 0 01-7.18 5.46 22.4 22.4 0 01-9.53 2c-4.32 0-7.7-.78-10.05-2.31a15.68 15.68 0 01-5.31-5.56 17.72 17.72 0 01-2.14-6.73 58.79 58.79 0 01-.38-6v-41h-5.5v40.13c0 1.35 0 2.93.13 4.7a33.57 33.57 0 00.76 5.63 23.81 23.81 0 002.09 5.78 18.16 18.16 0 004 5.17 19.2 19.2 0 006.57 3.7 29.83 29.83 0 009.68 1.39 28.27 28.27 0 007.48-1 23.94 23.94 0 006.79-3.05 24.19 24.19 0 005.46-4.88 20.82 20.82 0 003.15-5.29v12.73h5.5v-65h-5.5zM1251.45 292.19a23.81 23.81 0 00-2.09-5.78 18 18 0 00-4-5.17 19.37 19.37 0 00-6.57-3.7 29.55 29.55 0 00-9.68-1.4 28.28 28.28 0 00-7.48 1 24.13 24.13 0 00-12.25 7.93 20.93 20.93 0 00-3.15 5.29v-12.72h-5.5v65h5.5v-35.12a35.33 35.33 0 011.55-10.7 24.2 24.2 0 014.49-8.37 21 21 0 017.12-5.47 22.44 22.44 0 019.59-2c4.24 0 7.6.78 10 2.32a15.58 15.58 0 015.37 5.55 18.09 18.09 0 012.15 6.79c.24 2.4.37 4.4.37 6v41h5.5v-40.12c0-1.32 0-2.86-.13-4.71a33.6 33.6 0 00-.79-5.62zM1318.68 291a22.34 22.34 0 00-8.87-10.63 27.12 27.12 0 00-7-3.11 28.62 28.62 0 00-7.73-1.08 28.93 28.93 0 00-12.79 2.67 25.9 25.9 0 00-9.07 7.23 30.72 30.72 0 00-5.37 10.81 51.2 51.2 0 00-.13 26.2 32.49 32.49 0 005.06 10.82 25.2 25.2 0 008.75 7.48 30.26 30.26 0 0027.5-1.08 29.19 29.19 0 009.68-10.73v13.1h5.5v-90h-5.5zm-1.55 8.47a41.82 41.82 0 011.42 10.84 41.24 41.24 0 01-1.42 10.71 29.33 29.33 0 01-4.32 9.32 22.26 22.26 0 01-7.26 6.52 20.93 20.93 0 01-10.37 2.45 22.13 22.13 0 01-10.58-2.39 21.5 21.5 0 01-7.31-6.45 29.2 29.2 0 01-4.31-9.32 41.29 41.29 0 01-1.43-10.84 46.79 46.79 0 011.3-11 27.19 27.19 0 014.19-9.37 21.5 21.5 0 017.31-6.45 22.28 22.28 0 0110.7-2.39 21.64 21.64 0 0110.51 2.45 21.21 21.21 0 017.31 6.57 31.06 31.06 0 014.26 9.31zM1395.39 337.77a3.57 3.57 0 01-2.27-.61 3.46 3.46 0 01-1.13-1.63 8.92 8.92 0 01-.41-2.4c0-.88-.07-1.8-.07-2.74V293a15.4 15.4 0 00-5.44-12.22c-3.6-3.09-9.38-4.66-17.18-4.66s-13.92 1.82-18.18 5.41-6.61 9-7 16.2v.39h5.49v-.35c.33-5.61 2.23-9.85 5.67-12.6s8.13-4.17 13.77-4.17a29.33 29.33 0 018.14 1 15.35 15.35 0 015.37 2.68 10.72 10.72 0 013 3.87 11.55 11.55 0 011 4.72 35.49 35.49 0 01-.37 5.56 6 6 0 01-1.77 3.48 10 10 0 01-4.27 2.16 43.68 43.68 0 01-8 1.18l-7.38.62a74.52 74.52 0 00-8.1 1.26 24.83 24.83 0 00-7.74 3 16.45 16.45 0 00-8.12 15.13c0 6.26 1.94 11 5.77 14s9.22 4.51 16.1 4.51a31.2 31.2 0 008.61-1.13 26.3 26.3 0 007-3.18 23.48 23.48 0 005.27-4.63 20.54 20.54 0 002.83-4.44v2.13a20.84 20.84 0 00.32 3.76 7.85 7.85 0 001.25 3.08 6.3 6.3 0 002.72 2.13 11.82 11.82 0 004.71.78 15.32 15.32 0 004-.51l.28-.07v-4.73l-.43.07a22.08 22.08 0 01-3.44.34zm-9.39-31.06v11.06a31.84 31.84 0 01-.68 4.74 20.36 20.36 0 01-3.13 7.24 22.5 22.5 0 01-7.13 6.64c-3.1 1.91-7.36 2.88-12.68 2.88-5.14 0-9.23-1.13-12.15-3.36s-4.35-5.66-4.35-10.27a13.39 13.39 0 011.69-7.11 12.69 12.69 0 014.43-4.31 20.19 20.19 0 016.2-2.27c2.32-.46 4.67-.81 7-1.06l8-.75a66.9 66.9 0 008-1.13 10.08 10.08 0 004.8-2.3zM1426 257.64h-5.5v20h-11.87v4.88h11.87V327c-.17 3.72.29 6.68 1.35 8.81a11.36 11.36 0 004.34 4.84 14.53 14.53 0 006.22 1.93c1.28.12 2.59.17 3.92.17 1.05 0 2.12 0 3.2-.11h.35v-4.86h-.39a44.14 44.14 0 01-5.89-.12 9.24 9.24 0 01-4.2-1.38 6.67 6.67 0 01-2.55-3.26 17.15 17.15 0 01-.85-6v-44.5h14v-4.88h-14z" transform="translate(-298.27 -205.58)"/>
  <path d="M1166.3 47.06h5.5v13.63h-5.5zM1166.3 72.06h5.5v65h-5.5z"/>
  <path d="M1538.68 286.28a27.62 27.62 0 00-9.38-7.41 31.33 31.33 0 00-25.58 0 27.48 27.48 0 00-9.37 7.41 33.11 33.11 0 00-5.76 10.81 42.74 42.74 0 00-1.95 13.05 43.34 43.34 0 001.95 13.12 32.12 32.12 0 005.76 10.81 27.81 27.81 0 009.37 7.35 31.43 31.43 0 0025.58 0 28 28 0 009.38-7.35 32.28 32.28 0 005.75-10.81 43.39 43.39 0 002-13.12 42.84 42.84 0 00-2-13.05 33.17 33.17 0 00-5.75-10.81zm2.21 23.86a37.41 37.41 0 01-1.61 11 30.14 30.14 0 01-4.69 9.32 23 23 0 01-7.63 6.46 24 24 0 01-20.9 0 23 23 0 01-7.63-6.46 30.14 30.14 0 01-4.69-9.32 38.3 38.3 0 010-21.91 30 30 0 014.69-9.32 23 23 0 017.63-6.46 24 24 0 0120.9 0 23 23 0 017.63 6.46 30 30 0 014.69 9.32 37.39 37.39 0 011.61 10.91zM1609.8 297.81a34.67 34.67 0 00-.76-5.62 23.85 23.85 0 00-2.1-5.78 17.68 17.68 0 00-4-5.17 19.22 19.22 0 00-6.56-3.7 29.65 29.65 0 00-9.69-1.4 28.21 28.21 0 00-7.47 1 24.1 24.1 0 00-12.26 7.93 20.9 20.9 0 00-3.14 5.29v-12.72h-5.5v65h5.5v-35.12a35.65 35.65 0 011.54-10.7 24.2 24.2 0 014.49-8.37A21 21 0 011577 283a22.41 22.41 0 019.59-2c4.23 0 7.59.78 10 2.32a15.7 15.7 0 015.38 5.55 18.07 18.07 0 012.14 6.79 59.54 59.54 0 01.37 6v41h5.5v-40.14c-.06-1.32-.1-2.86-.18-4.71z" transform="translate(-298.27 -205.58)"/>
</svg>
