<svg version="1.1" id="Layer_1" xmlns="http://www.w3.org/2000/svg" xmlns:xlink="http://www.w3.org/1999/xlink" x="0" y="0" viewBox="0 0 185 31" xml:space="preserve">
  <style>
    .st1{clip-path:url(#SVGID_5_);fill:#52555b}
  </style>
  <defs>
    <path id="SVGID_1_" d="M0 14.3C0 22.9 6.5 30 15 30.8V19.9c-4-.4-6.7-3.3-6.7-7.2 0-3.8 2.5-6.5 6-6.5 3.2 0 5.3 2 5.3 4.9 0 2.6-1.7 4.3-4.6 4.8v4c6.1-.2 10.1-3.9 10.1-9.5 0-6-4.7-10.5-11.2-10.5C6 0 0 6.2 0 14.3"/>
  </defs>
  <clipPath id="SVGID_2_">
    <use xlink:href="#SVGID_1_" overflow="visible"/>
  </clipPath>
  <linearGradient id="SVGID_3_" gradientUnits="userSpaceOnUse" x1="-225.47" y1="412.38" x2="-224.47" y2="412.38" gradientTransform="scale(29.318 -29.318) rotate(60 245.296 401.16)">
    <stop offset="0" stop-color="#0071bc"/>
    <stop offset=".229" stop-color="#0273bd"/>
    <stop offset=".349" stop-color="#0a79c1"/>
    <stop offset=".443" stop-color="#1785c8"/>
    <stop offset=".5" stop-color="#248fce"/>
    <stop offset=".666" stop-color="#1b9bcf"/>
    <stop offset=".962" stop-color="#03b9d3"/>
    <stop offset="1" stop-color="#00bed4"/>
  </linearGradient>
  <path clip-path="url(#SVGID_2_)" fill="url(#SVGID_3_)" d="M-13.3 23.1l19.6-34L38.4 7.7 18.8 41.6z"/>
  <g>
    <defs>
      <path id="SVGID_4_" d="M0 0h184.7v30.8H0z"/>
    </defs>
    <clipPath id="SVGID_5_">
      <use xlink:href="#SVGID_4_" overflow="visible"/>
    </clipPath>
    <path class="st1" d="M83.8 9.7c-1.3 0-2.5.5-3.2 1.5l-.2-1.3h-1.7V24h2v-4.8c.6.6 1.8 1 2.8 1 2.8 0 4.6-2.2 4.6-5.4 0-3.1-1.7-5.1-4.3-5.1m-.6 8.6c-.9 0-1.9-.5-2.4-1.1v-3c0-1.7 1-2.8 2.6-2.8s2.7 1.2 2.7 3.2c-.1 2.4-1.1 3.7-2.9 3.7m-53.3-12V20H32v-4.8h2.8c2.9 0 4.8-1.8 4.8-4.4 0-2.6-1.9-4.4-4.8-4.4h-4.9zM32 8.1h2.5c1.9 0 3 .9 3 2.6 0 1.7-1.1 2.6-3 2.6H32V8.1zm13.7 1.6c-1.2 0-2.2.5-2.8 1.4l-.2-1.3H41v10h2v-5.4c0-1.9.9-3 2.6-3 .3 0 .7.1 1.1.2l.2-1.7c-.3-.1-.7-.2-1.2-.2m4-1.2c.7 0 1.3-.5 1.3-1.3 0-.7-.5-1.3-1.3-1.3-.7 0-1.3.5-1.3 1.3-.1.7.5 1.3 1.3 1.3m.9 11.4v-10h-2v10h2zm7.8-10.2c-1.3 0-2.5.6-3.2 1.5L55 9.9h-1.7v10h2v-5.6c0-1.7 1.1-2.8 2.6-2.8 1.4 0 2.2.9 2.2 2.2v6.2h2v-6.5c.1-2.2-1.5-3.7-3.7-3.7m10.5 1.8c.8 0 1.8.4 2.6 1l.9-1.5c-.9-.8-2.3-1.3-3.5-1.3-2.9 0-5.1 2.2-5.1 5.2 0 3.2 2 5.2 5 5.2 1.4 0 2.8-.5 3.7-1.3l-.9-1.4c-.7.6-1.6.9-2.5.9-1.9 0-3.2-1.3-3.2-3.4-.1-2.1 1.1-3.4 3-3.4m34.4 6.9c-.7 0-1-.3-1-1.1V5.7h-2v12c0 1.6.9 2.5 2.6 2.5.4 0 .9-.1 1.2-.2l-.2-1.6h-.6M75.1 8.5c.7 0 1.3-.5 1.3-1.3 0-.7-.5-1.3-1.3-1.3-.7 0-1.3.5-1.3 1.3 0 .7.6 1.3 1.3 1.3m1 11.4v-10h-2v10h2zm19.6-6c-.6-.2-1.4-.2-2.2-.2-2.6 0-4.2 1.3-4.2 3.4 0 1.9 1.5 3.1 3.6 3.1 1.3 0 2.3-.5 3-1.4.3.9 1 1.4 2 1.4.4 0 .9-.1 1.2-.2l-.2-1.6c-.2 0-.4.1-.5.1-.5 0-.7-.2-.7-.7v-4.3c0-2.3-1.5-3.7-4-3.7-1.2 0-2.6.3-3.8.9l.6 1.6c.9-.5 1.9-.8 2.9-.8 1.6 0 2.4.7 2.4 2.1v.3zm0 2c0 1.6-1 2.6-2.5 2.6-1.2 0-1.9-.6-1.9-1.6 0-1.1.9-1.8 2.4-1.8.7 0 1.3.1 1.9.2v.6zM106 5.6c1.1 0 1.9.8 1.9 2s-.8 2-1.9 2c-1.1 0-1.9-.8-1.9-2 0-1.1.8-2 1.9-2m0 3.7c.9 0 1.6-.7 1.6-1.6 0-1-.7-1.6-1.6-1.6-.9 0-1.6.7-1.6 1.6 0 .9.7 1.6 1.6 1.6m-.8-2.8h1c.4 0 .8.3.8.7 0 .3-.2.6-.5.7l.5.9h-.5L106 8h-.3v.8h-.5V6.5zm.5 1.1h.4c.2 0 .4-.1.4-.3 0-.2-.1-.3-.4-.3h-.4v.6zM111.2 9.9h6.3v1h-5.1v3.8h4.6v1h-4.6v4.2h-1.2zM122 12.5c2.1 0 3.7 1.6 3.7 3.8s-1.5 3.8-3.7 3.8c-2.1 0-3.7-1.6-3.7-3.8s1.6-3.8 3.7-3.8m0 6.6c1.4 0 2.5-1.2 2.5-2.8 0-1.7-1-2.8-2.5-2.8s-2.5 1.2-2.5 2.8c.1 1.7 1.1 2.8 2.5 2.8M133.7 19.9h-.9l-.1-1.3c-.5.9-1.5 1.5-2.6 1.5-1.6 0-2.7-1.1-2.7-2.7v-4.7h1.2v4.5c0 1.1.8 1.9 1.9 1.9 1.2 0 2.2-.9 2.2-2.3v-4.1h1.2v7.2zM136 12.7h.9l.1 1.3c.5-.9 1.5-1.5 2.6-1.5 1.6 0 2.7 1.1 2.7 2.7v4.7h-1.2v-4.5c0-1.1-.8-1.9-1.9-1.9-1.2 0-2.2.9-2.2 2.3v4.1h-1v-7.2zM150.8 19.9h-.9l-.1-1.2c-.5.9-1.4 1.4-2.5 1.4-1.9 0-3.3-1.6-3.3-3.8 0-2.2 1.4-3.8 3.3-3.8 1 0 1.9.5 2.4 1.3V9.5h1.2v10.4zm-3.3-.8c1.2 0 2.1-.9 2.1-2.2v-1.2c0-1.3-.9-2.2-2.1-2.2-1.4 0-2.3 1.2-2.3 2.8 0 1.7.9 2.8 2.3 2.8M155.8 15.5c.5 0 1.1.1 1.6.2V15c0-.9-.7-1.6-1.8-1.6-.8 0-1.6.2-2.4.5l-.3-.9c1-.4 1.9-.6 2.8-.6 1.6 0 2.8 1 2.8 2.5v3.5c0 .4.2.7.7.7h.4l.1.9c-.2 0-.5.1-.8.1-.8 0-1.3-.5-1.4-1.2-.6.8-1.5 1.2-2.5 1.2-1.4 0-2.5-.9-2.5-2.2 0-1.5 1.2-2.4 3.3-2.4m-.5 3.7c1.2 0 2.1-.9 2.1-2.2v-.6c-.5-.1-1-.2-1.5-.2-1.4 0-2.3.6-2.3 1.6.1.8.8 1.4 1.7 1.4M162.4 12.7h2.3v.9h-2.3v4.2c0 .7.5 1.2 1.2 1.2.3 0 .7-.1 1-.1l.2.9c-.5.1-1 .2-1.4.2-1.3 0-2.2-.9-2.2-2.1v-4.3h-1.5v-.9h1.5v-2.1h1.2v2.1zM166.9 9.7c.5 0 .8.3.8.8s-.3.8-.8.8-.8-.3-.8-.8.4-.8.8-.8m-.6 3h1.2v7.2h-1.2v-7.2zM172.9 12.5c2.1 0 3.7 1.6 3.7 3.8s-1.5 3.8-3.7 3.8c-2.1 0-3.7-1.6-3.7-3.8s1.6-3.8 3.7-3.8m0 6.6c1.4 0 2.5-1.2 2.5-2.8 0-1.7-1-2.8-2.5-2.8s-2.5 1.2-2.5 2.8c.1 1.7 1.1 2.8 2.5 2.8M178.3 12.7h.9l.1 1.3c.5-.9 1.5-1.5 2.6-1.5 1.6 0 2.7 1.1 2.7 2.7v4.7h-1.2v-4.5c0-1.1-.8-1.9-1.9-1.9-1.2 0-2.2.9-2.2 2.3v4.1h-1.2v-7.2z"/>
  </g>
</svg>
