<svg xmlns="http://www.w3.org/2000/svg" viewBox="0 0 154 14">
  <g fill="none" fill-rule="evenodd">
    <path d="M60.6252 12.0266c-.2865.8262.0408 1.061.7276.5175l6.2078-4.8249c.686-.5436.6783-1.4206-.017-1.9527l-6.1861-4.7154c-.6954-.529-1.0234-.2888-.727.5336l.9202 2.8667 2.0852-.7315-.7754 2.0035 2.8405 1.0334-2.8736 1.0087.7977 2.0143-1.952-.71-1.048 2.9568z" fill="#F7A800"/>
    <path d="M59.6088 12.0266c.2856.8262-.0431 1.061-.7284.5175l-6.2062-4.828c-.6853-.5435-.6792-1.4214.0177-1.9527l6.1877-4.7131c.696-.529 1.024-.2888.7269.5336l-.9217 2.8675-2.0844-.7323.7754 2.0035-2.842 1.0318 2.8743 1.0103-.8 2.0143 1.9527-.71 1.048 2.9576zM1.9273 13.2248H.3057A.3048.3048 0 010 12.9198V1.2513A.306.306 0 01.3057.9456h4.958a.306.306 0 01.3057.3056v1.473a.306.306 0 01-.3057.3057H2.233v2.5572h2.4717a.306.306 0 01.3057.3057v1.4168a.3061.3061 0 01-.3057.3065H2.233v5.3045a.3041.3041 0 01-.3057.3041M11.4969 13.3002c-2.2507 0-3.3441-1.1796-3.3441-3.6059V4.3451c0-2.2854 1.1557-3.4927 3.344-3.4927 2.2308 0 3.3627 1.1565 3.3627 3.4365v5.387c0 2.4732-1.0688 3.6243-3.3626 3.6243m0-10.3642c-.6923 0-1.0919.2272-1.0919 1.3906v5.387c0 1.4352.4127 1.5392 1.0919 1.5392.5713 0 1.1288-.117 1.1288-1.52V4.3074c-.0008-1.142-.4328-1.3714-1.1288-1.3714M20.9163 13.3002c-2.8059 0-3.2564-1.701-3.3249-3.5381a.3058.3058 0 01.268-.315l1.64-.2056a.3121.3121 0 01.2334.0693.3048.3048 0 01.1093.218c.0917 1.7055.288 1.7055 1.112 1.7055.8438 0 .9986-.3373.9986-.9987 0-.8077-.4805-1.2682-1.7633-2.5002l-.1378-.1324c-1.3306-1.2559-2.293-2.1653-2.293-3.7615 0-1.928 1.1218-2.9899 3.1577-2.9899 2.0536 0 2.9922.9155 3.1385 3.0623a.3065.3065 0 01-.2734.325l-1.64.1678a.303.303 0 01-.2272-.07.3033.3033 0 01-.1086-.2103c-.0916-1.1427-.2556-1.1904-.87-1.1904-.7978 0-.9426.2926-.9426.8686 0 .643.3758 1.0318 1.5647 2.1644l.2102.2025c1.5084 1.4538 2.4186 2.33 2.4186 4.0826-.0008 1.9928-1.1312 3.0461-3.2702 3.0461M30.254 13.3002c-2.8058 0-3.2555-1.701-3.324-3.5381a.3058.3058 0 01.268-.315l1.6393-.2056a.313.313 0 01.234.0693.304.304 0 01.1086.218c.0924 1.7055.288 1.7055 1.1119 1.7055.844 0 .9987-.3373.9987-.9987 0-.8077-.4797-1.2682-1.7633-2.5002l-.1378-.1324c-1.3306-1.2551-2.2931-2.1645-2.2931-3.7615 0-1.928 1.1219-2.9899 3.1578-2.9899 2.0536 0 2.993.9155 3.1385 3.0623a.306.306 0 01-.2734.325l-1.64.1678c-.084.0077-.164-.0162-.2272-.07a.3072.3072 0 01-.1093-.2103c-.091-1.1427-.2542-1.1904-.8694-1.1904-.797 0-.9425.2926-.9425.8686 0 .643.3758 1.0318 1.5647 2.1644l.2102.2025c1.5084 1.4538 2.4186 2.33 2.4186 4.0826-.0008 1.9928-1.132 3.0461-3.2702 3.0461M38.5 13.2248h-1.6031a.3046.3046 0 01-.305-.305V1.2513a.3053.3053 0 01.305-.3057H38.5c.1686 0 .305.137.305.3056v11.6686c0 .1694-.1371.305-.305.305M47.5575 13.2248h-4.8648a.3055.3055 0 01-.3065-.305V1.2513c0-.1687.137-.3057.3064-.3057h1.6209c.1694 0 .3057.137.3057.3056v9.9084h2.9375a.306.306 0 01.3057.3057v1.4545c.0016.1694-.1355.305-.3049.305" fill="#604F46"/>
    <path d="M75.5147 13.1023h-1.5962a.3004.3004 0 01-.3003-.301V1.3174c0-.1663.1332-.3011.3003-.3011h4.8795a.3017.3017 0 01.3018.301v1.4492a.3017.3017 0 01-.3019.301h-2.983V5.584h2.4333a.301.301 0 01.3003.3019v1.3944c0 .1664-.134.3011-.3003.3011H75.815v5.2206a.2992.2992 0 01-.3003.3003M84.8093 13.1762c-2.2152 0-3.2917-1.1603-3.2917-3.5473v-5.266c0-2.2485 1.1388-3.4374 3.2917-3.4374 2.196 0 3.3095 1.1381 3.3095 3.3834v5.3022c-.0008 2.431-1.0534 3.5651-3.3095 3.5651m0-10.2001c-.6814 0-1.0756.224-1.0756 1.369v5.3015c0 1.413.4065 1.5153 1.0756 1.5153.563 0 1.1104-.1155 1.1104-1.496v-5.34c0-1.1235-.425-1.3498-1.1104-1.3498M94.171 13.1762c-2.2561 0-3.2178-1.0333-3.2178-3.4557v-8.403c0-.1663.1355-.3011.301-.3011h1.5962a.301.301 0 01.3011.301v8.3292c0 1.3721.3111 1.5153 1.0195 1.5153.5775 0 1.0195-.1109 1.0195-1.496V1.3174c0-.1663.1347-.3011.3018-.3011h1.5593a.301.301 0 01.301.301v8.3838c0 2.4355-.9524 3.475-3.1816 3.475M106.3355 13.1023h-1.5416a.299.299 0 01-.2872-.2125l-1.962-6.4333v6.3455a.3009.3009 0 01-.3003.301h-1.5238a.3015.3015 0 01-.301-.301V1.3175c0-.1663.1355-.3011.301-.3011h2.0544c.1332 0 .2502.087.2887.214l1.4646 4.9073V1.3175c0-.1663.1355-.3011.3018-.3011h1.5046a.3013.3013 0 01.3003.301V12.802a.3005.3005 0 01-.2995.3003M112.6518 13.1023h-2.8798a.3017.3017 0 01-.3019-.301V1.3174c0-.1663.1355-.3011.3019-.3011h2.862c2.2385 0 3.3272 1.065 3.3272 3.2548v5.3754c0 2.3254-1.0826 3.4557-3.3094 3.4557zm-.9833-1.9958h.9825c.7708 0 1.0926-.2002 1.0926-1.4415V4.2897c0-.964-.2595-1.2582-1.1103-1.2582h-.9648v8.075zM124.0832 13.1023h-1.597a.3005.3005 0 01-.2957-.2456l-.4489-2.414h-1.446l-.4482 2.414c-.0254.1432-.1501.2456-.2964.2456h-1.523a.3006.3006 0 01-.231-.1085.3008.3008 0 01-.0648-.248l2.1653-11.5577a.2996.2996 0 01.2949-.2448h1.707a.2998.2998 0 01.2957.2448l2.183 11.557a.3048.3048 0 01-.064.2486.2995.2995 0 01-.231.1086zm-3.495-4.5645h.8824l-.4328-2.5857-.4496 2.5857zM129.5363 13.1023h-1.597a.301.301 0 01-.301-.301V3.0677h-1.7895a.3017.3017 0 01-.3018-.301V1.3174c0-.1663.1355-.3011.3018-.3011h5.7411a.3017.3017 0 01.3019.301v1.4492a.3017.3017 0 01-.3019.301h-1.7533v9.7337c-.0007.1663-.1355.301-.3003.301M136.1868 13.1023h-1.5785a.3013.3013 0 01-.3003-.301V1.3174c0-.1663.1355-.3011.3003-.3011h1.5785a.3017.3017 0 01.3019.301V12.802a.3015.3015 0 01-.3019.3003M142.1967 13.1762c-2.2146 0-3.2918-1.1603-3.2918-3.5473v-5.266c0-2.2485 1.1388-3.4374 3.2918-3.4374 2.1952 0 3.3094 1.1381 3.3094 3.3834v5.3022c0 2.431-1.0526 3.5651-3.3094 3.5651m0-10.2001c-.6822 0-1.075.224-1.075 1.369v5.3015c0 1.413.405 1.5153 1.075 1.5153.5613 0 1.111-.1155 1.111-1.496v-5.34c0-1.1235-.425-1.3498-1.111-1.3498M153.699 13.1023h-1.54a.302.302 0 01-.2904-.2125l-1.9611-6.4333v6.3455c0 .1663-.134.301-.2996.301h-1.5238a.302.302 0 01-.301-.301V1.3175a.302.302 0 01.301-.3011h2.0567c.1324 0 .2494.087.2887.214l1.4646 4.9073V1.3175c0-.1663.1355-.3011.301-.3011h1.5038c.1656 0 .3011.1347.3011.301V12.802a.3013.3013 0 01-.301.3003" fill="#F7A800"/>
  </g>
</svg>
