<svg width="24" height="24" viewBox="0 0 24 24" fill="none" xmlns="http://www.w3.org/2000/svg">
<path d="M7.06594 7.06613C6.67541 6.67561 6.03646 6.67228 5.69767 7.10845C4.77603 8.29499 4.20279 9.72316 4.05421 11.2317C3.87279 13.0737 4.33566 14.9215 5.36393 16.4604C6.3922 17.9994 7.92226 19.1341 9.69341 19.6714C11.4646 20.2087 13.3672 20.1152 15.0772 19.4069C16.7871 18.6986 18.1986 17.4194 19.0711 15.7871C19.9435 14.1548 20.223 12.2704 19.862 10.4552C19.5009 8.63988 18.5216 7.00596 17.0908 5.8318C15.919 4.87013 14.5038 4.2656 13.0131 4.07829C12.4651 4.00944 12.0157 4.4636 12.0157 5.01588V5.01588C12.0157 5.56817 12.4665 6.00739 13.0111 6.09902C14.038 6.27177 15.0083 6.70997 15.822 7.37782C16.8951 8.25844 17.6296 9.48388 17.9004 10.8453C18.1712 12.2068 17.9616 13.62 17.3072 14.8443C16.6529 16.0685 15.5943 17.0279 14.3118 17.5592C13.0293 18.0904 11.6023 18.1605 10.274 17.7575C8.94562 17.3546 7.79807 16.5035 7.02687 15.3493C6.25566 14.1951 5.90852 12.8092 6.04458 11.4278C6.14776 10.3801 6.52403 9.38414 7.12797 8.53589C7.44829 8.08598 7.45646 7.45666 7.06594 7.06613V7.06613Z" fill="#F5F5F5"/>
</svg>
