<svg width="128" height="128" viewBox="0 0 128 128" fill="none" xmlns="http://www.w3.org/2000/svg">
<path d="M56.1481 29.7556C45.5125 29.7556 42.5912 38.3611 42.4525 42.6688C38.4122 41.8865 30.3315 42.8966 30.3315 53.2252C30.3315 66.1384 56.1481 66.9207 67.1005 66.9207C78.053 66.9207 106.613 63.7914 104.266 51.6605C102.384 41.9558 92.7883 37.965 88.2231 37.1827C89.659 34.0534 89.5501 26.5372 77.6569 21.5363C65.7736 16.5354 58.3663 24.9329 56.1481 29.7556Z" fill="#BFE5D1"/>
<path d="M49.4144 29.7556C38.7788 29.7556 35.8575 38.3611 35.7189 42.6688C31.6786 41.8865 23.5979 42.8966 23.5979 53.2252C23.5979 66.1384 49.4144 66.9207 60.3669 66.9207C71.3194 66.9207 99.8789 63.7914 97.532 51.6605C95.6505 41.9558 86.0547 37.965 81.4895 37.1827C82.9254 34.0534 82.8165 26.5372 70.9232 21.5363C59.0399 16.5354 51.6326 24.9329 49.4144 29.7556Z" stroke="#26985D" stroke-width="4" stroke-linecap="round" stroke-linejoin="round"/>
<path d="M41.001 57.3969C42.8081 57.3969 44.2731 55.9319 44.2731 54.1248C44.2731 52.3177 42.8081 50.8528 41.001 50.8528C39.1939 50.8528 37.729 52.3177 37.729 54.1248C37.729 55.9319 39.1939 57.3969 41.001 57.3969Z" fill="#26985D"/>
<path d="M63.9052 57.3969C63.9052 55.848 62.4402 54.5923 60.6331 54.5923C58.826 54.5923 57.3611 55.848 57.3611 57.3969" stroke="#26985D" stroke-width="3.27204" stroke-linecap="round"/>
<path d="M80.2655 57.3969C82.0726 57.3969 83.5375 55.9319 83.5375 54.1248C83.5375 52.3177 82.0726 50.8528 80.2655 50.8528C78.4584 50.8528 76.9934 52.3177 76.9934 54.1248C76.9934 55.9319 78.4584 57.3969 80.2655 57.3969Z" fill="#26985D"/>
<path d="M52.5515 74.553V82.1853" stroke="#26985D" stroke-width="3.81618" stroke-linecap="round"/>
<path d="M52.5515 89.8176V93.6338" stroke="#26985D" stroke-width="3.81618" stroke-linecap="round"/>
<path d="M64 74.553V82.1853" stroke="#26985D" stroke-width="4" stroke-linecap="round"/>
<path d="M75.4485 74.553V78.3692" stroke="#26985D" stroke-width="4" stroke-linecap="round"/>
<ellipse cx="63.9999" cy="104.633" rx="19.7802" ry="3.36684" fill="#BFE5D1"/>
</svg>
