<svg width="39" height="34" viewBox="0 0 39 34" fill="none" xmlns="http://www.w3.org/2000/svg">
<path d="M37.322 16.5721H36.0442C35.7406 14.2021 34.6399 12.0304 32.9826 10.2634C32.4681 9.71097 33.3579 6.7506 32.738 6.28251C32.1181 5.81442 29.9885 7.84282 29.2801 7.4675C27.4836 6.51866 25.4214 5.90298 23.2117 5.70056C23.2117 5.75538 23.2202 5.80598 23.2202 5.86081C23.2202 7.09218 22.7478 8.21392 21.9803 9.05733C20.3146 8.7031 17.8181 8.44586 14.9927 9.06155L14.9885 9.06577C14.5668 8.60611 14.242 8.0621 14.027 7.4675C9.90692 9.63506 7.16162 13.5063 7.16162 17.9258C7.16162 21.5187 8.97495 24.749 11.8636 27.0009C11.3112 27.663 10.9738 28.5317 10.9738 29.4932C10.9738 31.5679 12.5468 33.2463 14.4824 33.2463C16.3126 33.2463 17.8181 31.7451 17.9784 29.8305C19.1507 30.0878 20.3779 30.2269 21.643 30.2269C22.6846 30.2269 23.7051 30.1299 24.6919 29.9528C24.907 31.8083 26.3829 33.2463 28.171 33.2463C30.1066 33.2463 31.6796 31.5679 31.6796 29.4932C31.6796 28.675 31.4307 27.9202 31.0175 27.3045C32.4007 26.3051 33.5646 25.0906 34.4291 23.7158H37.3178C38.0009 23.7158 38.5533 23.1254 38.5533 22.3959V17.9047C38.5576 17.1625 38.0009 16.5721 37.322 16.5721Z" fill="#BFE5D1"/>
<path d="M5.56311 14.1304C5.56311 14.1304 2.36236 11.8575 2.36236 9.10794C2.36236 6.35421 3.64013 5.99575 4.45402 5.9325C4.96007 5.89454 5.82877 6.14757 5.82877 7.40425C5.82877 8.66093 3.88893 8.75371 3.07504 8.36574C2.26115 7.97777 1.44727 6.5018 1.44727 5.5614" stroke="#26985D" stroke-width="1.66667" stroke-miterlimit="10" stroke-linecap="round" stroke-linejoin="round"/>
<path d="M29.5073 25.4152C29.5073 25.4152 27.2006 27.5068 25.3071 28.2237" stroke="#26985D" stroke-width="1.66667" stroke-miterlimit="10" stroke-linecap="round" stroke-linejoin="round"/>
<path d="M17.8092 29.7924C17.8092 29.7924 14.7983 29.8177 11.7915 28.152" stroke="#26985D" stroke-width="1.66667" stroke-miterlimit="10" stroke-linecap="round" stroke-linejoin="round"/>
<path d="M27.3229 15.6736C27.7024 15.6736 28.0144 15.3658 28.0144 14.982C28.0144 14.5983 27.7066 14.2905 27.3229 14.2905C26.9392 14.2905 26.6313 14.5983 26.6313 14.982C26.6313 15.3658 26.9392 15.6736 27.3229 15.6736Z" fill="#26985D" stroke="#26985D" stroke-width="1.66667" stroke-miterlimit="10" stroke-linecap="round" stroke-linejoin="round"/>
<path d="M34.0956 16.1545H32.8178C32.5142 13.7846 31.4135 11.6128 29.7562 9.84583C29.2418 9.2934 30.1315 6.32881 29.5116 5.86071C28.8917 5.39262 26.7621 7.42102 26.0537 7.0457C25.1681 6.57761 24.2192 6.19386 23.2198 5.89867C23.2114 7.11318 22.7433 8.22226 21.98 9.05302C20.3143 8.69879 17.8178 8.44155 14.9923 9.05724L14.9881 9.06146C14.2164 8.21805 13.7483 7.09631 13.7441 5.86493C8.04264 7.51802 3.93945 12.1019 3.93945 17.504C3.93945 21.0927 5.75278 24.3272 8.64146 26.5791C8.08903 27.2412 7.75166 28.1099 7.75166 29.0714C7.75166 31.1461 9.32462 32.8245 11.2602 32.8245C13.0904 32.8245 14.5959 31.3233 14.7562 29.4087C15.9285 29.666 17.1557 29.8051 18.4208 29.8051C19.4666 29.8051 20.4829 29.7081 21.4697 29.531C21.6848 31.3865 23.1608 32.8245 24.9488 32.8245C26.8844 32.8245 28.4574 31.1461 28.4574 29.0714C28.4574 28.2533 28.2086 27.4984 27.7911 26.8827C29.1743 25.8833 30.3382 24.6688 31.2027 23.294H34.0914C34.7745 23.294 35.327 22.7036 35.327 21.9741V17.4829C35.3312 16.7449 34.7787 16.1545 34.0956 16.1545Z" stroke="#26985D" stroke-width="1.66667" stroke-miterlimit="10" stroke-linecap="round" stroke-linejoin="round"/>
<path d="M14.9926 9.05721C17.8222 8.44152 20.3145 8.69876 21.9803 9.053C22.752 8.20959 23.2201 7.08785 23.2201 5.85647C23.2201 3.2419 21.0989 1.12073 18.4843 1.12073C15.8697 1.12073 13.7486 3.2419 13.7486 5.85647C13.7443 7.09628 14.2167 8.21802 14.9926 9.05721Z" stroke="#26985D" stroke-width="1.66667" stroke-miterlimit="10" stroke-linecap="round" stroke-linejoin="round"/>
<path d="M24.1269 9.68978C24.1269 9.68978 21.2256 8.4331 17.2278 8.73251C15.8657 8.83372 14.3813 9.11627 12.8379 9.68978" stroke="#26985D" stroke-width="1.66667" stroke-miterlimit="10" stroke-linecap="round" stroke-linejoin="round"/>
</svg>
