<svg width="128" height="128" viewBox="0 0 128 128" fill="none" xmlns="http://www.w3.org/2000/svg">
<g clip-path="url(#clip0_1_20)">
<path d="M102.496 82.5642C103.842 81.6663 104.883 80.595 105.414 79.289C107.73 73.5958 99.8122 73.1877 99.8122 73.1877C100.179 72.8612 100.506 72.5143 100.761 72.1266C108.709 60.3729 80.4777 58.3935 80.4777 58.3935C80.1206 58.3629 79.7431 58.3425 79.3554 58.3323C81.3755 49.2415 77.4168 42.8035 73.254 42.7014C66.3263 42.5382 71.7134 57.1181 59.9188 63.9745C56.2662 66.0967 51.6647 66.566 41.2067 63.1072C40.5844 62.9032 39.9314 63.3215 39.8701 63.9745L36.2889 99.552C36.2379 100.083 36.6052 100.562 37.1256 100.664C96.5064 111.51 100.241 95.5219 100.577 94.3485C100.588 94.3077 100.598 94.2669 100.608 94.2261L100.751 93.3486C102.312 92.665 103.567 91.8284 104.281 90.7979C107.74 85.8291 102.496 82.5642 102.496 82.5642Z" fill="#BFE5D1"/>
<path d="M81.3449 66.7701C76.9169 67.4639 67.7241 69.0861 71.091 61.7605C75.2844 52.6391 70.8257 42.8137 66.1222 42.7015C59.1842 42.5382 64.5714 57.1283 52.7768 63.9745C48.9813 66.1783 44.39 66.5966 32.8608 62.6991" stroke="#26985D" stroke-width="4" stroke-miterlimit="10" stroke-linecap="round" stroke-linejoin="round"/>
<path d="M73.3255 58.3935C73.3255 58.3935 101.547 60.3729 93.6088 72.1266C89.7419 77.8504 77.2638 76.9628 77.2638 76.9628" stroke="#26985D" stroke-width="4" stroke-miterlimit="10" stroke-linecap="round" stroke-linejoin="round"/>
<path d="M92.6293 73.3306C92.6293 73.3306 100.69 73.2795 98.2511 79.2788C94.9352 87.4514 77.2638 86.7576 77.2638 86.7576" stroke="#26985D" stroke-width="4" stroke-miterlimit="10" stroke-linecap="round" stroke-linejoin="round"/>
<path d="M95.5168 83.3294C95.5168 83.3294 100.588 85.8291 97.1492 90.7775C93.5272 96.0014 81.753 96.2156 77.2638 96.2156" stroke="#26985D" stroke-width="4" stroke-miterlimit="10" stroke-linecap="round" stroke-linejoin="round"/>
<path d="M93.466 94.2771C93.466 94.2771 91.5478 112.081 29.0551 100.48" stroke="#26985D" stroke-width="4" stroke-miterlimit="10" stroke-linecap="round" stroke-linejoin="round"/>
<path d="M76.0292 34.5391C77.7535 34.5391 79.1513 33.1413 79.1513 31.417C79.1513 29.6928 77.7535 28.295 76.0292 28.295C74.3049 28.295 72.9071 29.6928 72.9071 31.417C72.9071 33.1413 74.3049 34.5391 76.0292 34.5391Z" fill="#26985D"/>
<path d="M62.4492 22.0406V30.3968" stroke="#26985D" stroke-width="4" stroke-miterlimit="10" stroke-linecap="round" stroke-linejoin="round"/>
<path d="M66.6221 26.2136H58.2762" stroke="#26985D" stroke-width="4" stroke-miterlimit="10" stroke-linecap="round" stroke-linejoin="round"/>
<path fill-rule="evenodd" clip-rule="evenodd" d="M41.8087 59.577C41.6557 59.3934 41.4618 59.2812 41.2373 59.2403C37.9724 58.3935 34.7075 57.4344 31.4732 56.4958C29.0041 55.7816 26.5656 55.0674 24.1475 54.4042C23.2496 54.1083 22.1681 55.0061 22.1681 56.8223V99.8683V105.286C22.1681 106.786 22.8925 108 23.7802 108C27.5552 108 31.3405 108 35.1156 107.704C37.4521 107.704 39.7885 107.408 42.3086 106.806C44.6451 106.204 46.2572 104.102 46.2572 99.8581C46.2572 97.0421 45.6144 94.0016 44.8594 91.2979C44.9002 91.1754 44.941 91.0632 44.9716 90.9408C45.5532 89.1552 46.1041 87.4412 46.247 85.3598C46.3592 83.4314 45.9613 77.7994 45.2879 76.2792C46.7163 72.9632 47.0632 67.8924 46.0735 64.3316C45.2981 61.6788 43.6554 59.9443 41.8087 59.577Z" fill="#26985D"/>
</g>
<defs>
<clipPath id="clip0_1_20">
<rect width="83.6638" height="88" fill="white" transform="translate(22.1681 20)"/>
</clipPath>
</defs>
</svg>
