<svg xmlns="http://www.w3.org/2000/svg" viewBox="0 0 300.56 289.33">
  <defs>
    <style>
      .cls-2{fill:#bcbcbc}.cls-3{fill:#f5aa56}.cls-4{fill:#f1ada0}.cls-5{fill:#e5e5e5}.cls-7{fill:#6b62ca}
    </style>
  </defs>
  <g id="Layer_2" data-name="Layer 2">
    <g id="Assets">
      <g id="Logo">
        <g style="isolation:isolate">
          <path class="cls-2" d="M298.16 120.33c.3.06.32-.26-.35-.65l-.73.08zM294.29 116.67c-.89-.33-2-.59-1.75.1 1 .14 1.09.42 2.2.52.68.39 1.05.89.84 1 .3 0 .95.76 1.47.75a6.68 6.68 0 00-3-2.1c-.17-.29.13-.24.24-.27zM231.33 73.34l.38.32a2.19 2.19 0 00-.38-.32zM193.78 52.75a2.12 2.12 0 00-.1-.8c.03.51.06.9.1.8zM193.29 60.64v.48a1.05 1.05 0 010-.48zM231.33 73.34l-1-.83c-.12.08.51.49 1 .83zM284.91 111.72a4.17 4.17 0 00.64.28l-.56-.32zM248.85 84.69l.32.22h.37zM262.17 93.59c-.29-.22-.61 0-.83.11a1.41 1.41 0 01.81.21c.05-.06.06-.16.02-.32zM282.84 108.37l.41.2zM239.39 78.21a.25.25 0 000-.2s-.04.11 0 .2zM296.77 138.11h.07c.02 0-.07-.11-.07 0zM298.79 119.55v.25a.65.65 0 00.23.06zM193.84 212.65c-1-.66.07-.29.87-.06s1.36.34 0-.47c.08.12-.65 0-1.25-.13-.13-.31-.27-.5-.38.24a7.86 7.86 0 00.76.42zM284.6 111.44l-.55-.36a3.77 3.77 0 00.55.36zM194.76 212.12l-.26-.16zM193.16 109.66a.89.89 0 01-.17.34c.08-.25.14-.33.17-.34zM193.56 124a.74.74 0 010 .14 3 3 0 010-.51 1.27 1.27 0 000 .37zM193.63 136.66a1 1 0 01-.08.25l.06-.68c.01.14.02.3.02.43zM296.87 179.82a2 2 0 01.36-.63c-.23.21-.38-1.81-.36.63zM285 111.53a.53.53 0 01-.43-.09l.39.24c.1-.03.13-.07.04-.15zM196.7 123.75l-.06 2.18c.04-.61.06-1.4.06-2.18zM280.18 247.69l.48.16a1.29 1.29 0 00-.48-.16zM196.7 132.4a5.5 5.5 0 00-.27 1.23.82.82 0 00.1.25zM297.24 179.18zM299.68 207.64a1.7 1.7 0 010-.26l-.09.38.13.23zM231.78 73.72l-.07-.06a.53.53 0 01.12.15s-.03-.06-.05-.09zM284.41 249.36l-.04.1.36.06-.32-.16zM249.63 87.41a.82.82 0 00.19.25.89.89 0 00-.19-.25zM257.63 92.91l1.05.88c-.44-.4-.78-.67-1.05-.88zM263.7 97.24a.36.36 0 00.22-.06zM192.75 75.85v-.2c0-.02-.02.08 0 .2zM193.55 84.61a3.74 3.74 0 01-.05.62z"/>
          <path class="cls-3" d="M299.91 241.93c.4-.41 0-3.68-.25-5.47l.39.29a10.87 10.87 0 01-.78-3.88c.05-.45.25-.47.25 0 .12-1.45-.39-1.22-.18-3.23l.24.79a5.17 5.17 0 00-.38-2.66c-.16-1.14.1-3.44.46-3.71a3.81 3.81 0 01-.4-2.31c.13-.14.22.24.26.45.28-3-.45-4.52-.06-6.6.13 0 .2-.18.24-.35 0 2.2 0 4-.06 4.16.35 0 .42-1.94.92-.39a26.9 26.9 0 01-.69-6.14 1.46 1.46 0 01.13-.25v.2a5.19 5.19 0 00-.05-1.2c.05-.6.11-1 .11-1.58.3-.21.17-2.22.18-3.2-.4.09-.33-1.17-.65 0a3.84 3.84 0 01.05.87 3.58 3.58 0 000 .4.33.33 0 010-.06v2.41a5.37 5.37 0 01-.15-2.64c-.26-.5-.51-1-.64-1.36.56-1.32.87-3.88 1.21-4.24-.22-3-.13-7-.88-8.84a1.66 1.66 0 01.33-1.29 11.72 11.72 0 00.17 1.33c-.18-1.68-.06-5-.58-5.4.24-2.12.48 1.2.4-1.72l.16.4c.84-5.66-1.25-9.22-.28-15.4a1.16 1.16 0 01-.13.46c.49-7.26-.42-15 .35-22.12a8 8 0 00-.43-3.5l.43-.44-.49-2.12c-.36-3 1.07-5.21.39-9l-.29.5c.06-1.37-.17-4.34.16-4.12a1.23 1.23 0 01-.14-1h.23l-.39-3.37c.18-2.61.9.41.95-3.39-.08-1.42-.65-4-.8-3.5s-.14 1.45-.36 1.5l-.12-1.3h-.13v-.21L286 111h.19l-.44-.17-1.64-1.11c.1 0 .29 0 .63.2-1-1-1.17-.54-2-1.49-.08-.12 0-.11.1-.07l-1.26-.63c.3.06 0-.48.71.08-1.9-1.69-3.62-1.91-4.16-2.81l.21.09c-2.25-1.33-1.44-.58-1.9-.55l-1.36-.91-.59-1.28-.52.17c-.3-.22-.87-.65-.67-.72-1.27-.5.09.29-.71.09-1.21-1.3-4.07-2.52-4-3.31-.7-.08 1.23 1.13-.43.28 0-.91-1.84-1.09-3-2.25.61 0 1.74 1 .62-.21-1.16 0-2.48-1.84-3.66-2.49-.34.39-2.53-1.45-4.48-2.55.21-.07-3.34-2.6-5-3.92h.1c-.63.2-2.36-1.09-3.72-1.88.23-.22.53-.16 1.32.2l-1.22-.83a4.62 4.62 0 01-1.64-.72l.52-.11a50.7 50.7 0 01-5.48-3.45c-.22.15.36 1 0 1.12l-1.04-.77a.42.42 0 01.36 0 3.83 3.83 0 01-.86-.54l1.07.31c-.86-.76-.65-.09-1.39-.64.17-.22-.45-.54-.22-.65.21.11.6.54.95.64a9.45 9.45 0 01-2-1.86c0 .18-.22.31-.87-.08-1.64-1.08-.36-.65-1.23-1.41-.5-.11-1.42-1-1.69-.64a1.37 1.37 0 01-.57-.76c-.95-.42-4-2.62-3.27-1.6l.2.15-.15-.07c-3-1.51-5.59-4.06-8.43-5.75l.07-.12c-1.72-1-3.68-2.37-5-2.9-.48-.34-1-1-.69-1a14.42 14.42 0 01-3.22-2.12c.77.35.6.17.58.14l.82.58a13.62 13.62 0 00-3.75-2.49c.79.1-1-1.2-1.8-1.64l1 1c-.89-.55-1.64-1.08-2.38-1.63l.68-.11c-3-2.72-6.54-3.22-8.52-5.72-1.06-.33 1.67 1.41.66 1.2a16.54 16.54 0 01-2-1.8c-.27-.3-.51-.57-.72-.79a8.24 8.24 0 00-.83-.69 13 13 0 00-2.85-1.78 15 15 0 01-1.81-.75.49.49 0 000 .12v1.77c.08-.14.25-.14.4.24a7.3 7.3 0 01.37 2.13v.12a3.59 3.59 0 01-.4 1.87.14.14 0 01-.26 0 2.54 2.54 0 01-.19-.86v-.16c0-.55.05-.78.1-.73 0-.88-.13-2.16-.31-1.2l.17.5c0 .31-.07.81-.11 1.34V53c0 .45 0 .93-.05 1.11 0 .68-.12 1.16-.26.87.12 1.06.22.84.3.23-.13 2 .05 3.26-.1 5.45.09-.38.3-.73.28-.35-.2 3.57.33 1.57.4 4-.26 1.37-.61-.5-.4 1.93-.17 1.49-.44.32-.58-.26a22.53 22.53 0 01-.27 5.4l-.1-.76v1.45l.35-.66c-.07.67-.07 1.25-.21 1.25.23.7.57-.55.87.85-.17.93.18 2.79-.27 3.11.14-2.62-.34-.22-.49-1.61v1.23c-.06.09-.1-.1-.12-.29-.41 2.75.5 1.26.49 4.11-.25-.36-.48.66-.43 1.13 0-1.15.43-.55.63.51a12.39 12.39 0 00.11 2.94l.1-1.09a7.82 7.82 0 01.3 2.56c-.06 0-.11-.09-.13-.24.16 1.33-.52 3-.26 4.7-.17.91-.47.09-.58.89.32 2.22-.35 2.4-.08 4.73.33-.67.26-.79.59.85l-.25-3.82.5 2.45c0-1.15-.22-2.44-.15-3.13.27 1.17.19 1 .47.5-.51 1.58.3 3.12-.05 5l-.84-.06c-.38 2.74.44 4.87.22 8.43l.14-1.15c.34.49.06 2.21.18 3.36-.27-.11-.37.62-.55 1.11.21-.06 0 2.6.54 2.92l-.37 1.6c-.15 2.87.8 3.28.71 6-.3-.84-.51.42-.72-1.44 0 .93-.06 1.76.14 1.77-.18.55.37 2.56.1 3.42a2.6 2.6 0 01.4 1.55c0 .06-.07 0-.11 0 .12.22.19 1.52.47.69-.87 2.85.07 7.94-.69 10.42.09 2 .19 4.44.21 6.27-.07-.09-.13 0-.13-.2-.2 2.33.81 1.46.53 4.27-.45 1.47-.25-1.52-.42-.61-.92.4.13 3.47-.41 5.4v-.47c-.32 1.48.34 3.61.28 6 0 0-.08-.12-.14 0a41 41 0 01.76 7.08c-.36-.71-.19-1-.56-.61.06 1 .59-.31.69 1.77-.19.68-.37 2.18-.76 2.38v-2c-.51 1 0 2.54-.07 3.56l-.22-.12c.07 3 .63 3 .59 6.26l.17-.33c.54 1.77-.31 1.48.09 3.23l-.55.54c.13 1.17.53 4.08.64 6.17a40.88 40.88 0 01-.88-5.14 21.41 21.41 0 00.32 4.52 5.49 5.49 0 01-.1-1.51 19 19 0 01.65 5.58c-1.09-.41-.28 6-1.12 7.65.4 4.06-.18 8.07-.11 12.8.43-.84.43-.49.44 0v.41a1.94 1.94 0 010 .24 1.93 1.93 0 000 .27v.2c0 .06.18.26.35.13v1.23l.5.22h.05a.12.12 0 01.07 0l.1.06 1 .57.7.46 1.43.92c.62.56-1-.26-1 0 2.17 1 .77.75 2.14 1.61-.17-.42.94-.07 2.15.61l-1.6-1.16c3.27 1 2.36 1.85 5.66 2.83l-1.1-.2c1.66.57 5.88 2.65 7.73 2.7.24.23.52.6-.21.35 3.77 1.81 8.78 3.11 11.56 4.84l-.37.06a6.08 6.08 0 012.2.78c-.08.06-.37.07 0 .23a11.88 11.88 0 012.93 1l-.89-.15c3.59 1.91 5.93 2 9.11 3.28-.27.57 2.57 2.06 4 2.81l-.08.05c4.29 2 7.56 2.82 11.66 4.39 2.21 1.73 8.31 4 12.15 6.16-.56-.37.29-.4 1-.14.89.54 2.78.76 2.39 1.22l-.33-.16c.48.84 2.47 1.55 4 2.25l.56-.58c3.49 2.77 10.48 4.25 12.23 6.11 1 .25 2.2.78 3.22 1l-.21.36c2.59 1.26 3.87 1.89 7.17 3.26h-.78a4.32 4.32 0 001.23.37c.07 0 .28.06.42.08l.44.1.77.11a9.25 9.25 0 012.12.33c.2.06.44.15.68.25.36.36 1.79-8.07 1.25-11.79.09.06.26.16.29.73.05-1.37.41-5.81-.3-5.62zm.29-33.13c.06.65 0 .87-.1 1 0-.31 0-.67-.05-1.14a.45.45 0 01.15.14zm-18.06-100.49l.13.16-.69-.46zm-88.42-22.94a1.92 1.92 0 01.09.4c-.03-.3-.03-.68-.09-.4z"/>
          <path class="cls-2" d="M193.82 125.52s.01 0 0 0zM192.89 74.88v-.41a1.82 1.82 0 010 .41zM195.68 50.82h-.27l.07.47v-.3c.22.09.32.1.2-.17zM196.71 123.51z"/>
          <path class="cls-2" d="M195.48 52.32a2.75 2.75 0 000-1.07 4.75 4.75 0 000 1.07zM290.41 115.47l.29.21a.08.08 0 01.07 0zM290.77 115.65l.36.19a1 1 0 00-.36-.19zM291.88 116.22l-.75-.38a1.9 1.9 0 00.75.38zM282.32 109.79l-.17.06a.18.18 0 00.17-.06zM279.81 108.15a17.79 17.79 0 002.2 1.74h.14c-.51-.12-1.64-1.56-2.34-1.74zM270.43 99.66l2 1.5c-.28-.37-.64-.86.32-.26-2.35-2.15.37.66-2.32-1.24zM264.09 95.12c1.16.69.11-.2.22-.23-.79-.36-.98-.45-.22.23zM217.37 63.62l.31-.23c-.89-.54-.08.11-.31.23zM207.38 59.15l.72.76.59-.01-1.31-.75zM203.56 53.45l.4.21-1.51-.86 1.11.65zM193.65 134.16l-.45.31c-.14-1.17.36-1.01.45-.31zM193.51 177.63a4 4 0 01.14-2.3c.06.47-.11 1.38-.14 2.3zM273.05 248.22l-.81-.2 1.46.52-.65-.32zM298 258.48c.28 0 .26-.32-.41-.56l-.65.22zM294 255.73c-.86-.13-1.9-.16-1.58.45.94-.07 1 .18 2.08.06.67.24 1.07.64.89.75.28 0 1 .54 1.43.43a5.6 5.6 0 00-3-1.43c-.2-.2.08-.21.18-.26zM230.87 226.68l.38.24a2.51 2.51 0 00-.38-.24zM191.35 210.68s-.14.1-.46.16c-.08-.03.16-.1.46-.16zM184 211.34h-.43a.82.82 0 01.43 0zM230.87 226.68l-1-.6c-.13.11.5.34 1 .6zM284.78 252.85a2.71 2.71 0 00.62.14l-.56-.19s-.03.04-.06.05zM248.34 234.09l.32.14a2.14 2.14 0 00.35-.06zM261.67 240c-.3-.15-.56.16-.75.27a1.29 1.29 0 01.77 0 .45.45 0 00-.02-.27zM282.46 250l.4.12zM238.86 229.75a.27.27 0 00-.06-.19c-.02.05.01.11.06.19zM281.4 258.1v.08c0 .08.12-.09 0-.08zM298.4 257.72h-.23a.6.6 0 000 .23zM170.35 212.72l-.14.05h-.07a.63.63 0 01.21-.05zM88.59 268.75c.36-1.4.45 2.28.86.17-.16.2-.62-1.92-.86-.17zM284.46 252.65c-.19-.08-.37-.15-.55-.24a3.52 3.52 0 00.55.24zM89.45 268.92v-.22zM139.84 217.53a.67.67 0 01-.33-.13c.23.06.32.09.33.13zM162.44 214.69h-.57a4.67 4.67 0 00.57 0zM127.6 219.66a1.31 1.31 0 00-.59.12h-.13a2 2 0 01.72-.12zM116 221.4l-.39.08h-.23zM243.88 263.57a2.13 2.13 0 01.62.28c-.23-.26 1.57-.61-.62-.28zM284.86 252.64a.42.42 0 01-.4 0l.38.15c.06-.03.09-.08.02-.15zM127.66 222.85l-2 .23c.58-.08 1.34-.08 2-.23zM155.24 276.09l.44-.11a1.09 1.09 0 00-.44.11zM119.87 224a4.8 4.8 0 00-1.14-.12c-.08.05-.17.08-.21.14zM219.23 269.94a1.15 1.15 0 01.24-.07h-.36l-.19.16zM231.32 227h-.07a.77.77 0 01.13.12.33.33 0 01-.06-.12zM208.67 271.4s-.01 0 0 0zM125.65 220.23s.01.01 0 0z"/>
          <path class="cls-4" d="M298.43 258.22h-.3c-.45 0-1 0-1.07-.15a.06.06 0 010-.05l.57-.14.58-.15v-.12h.18l-.16-.07c.2-.62.55-1.26-2.05-1.31l-.5.17-10-4.46h.17l-.41-.08-1.65-.73c.08-.05.27-.05.61.06-1.07-.8-1.15-.28-2-1-.05-.07 0-.1 0-.1l-1.14-.34c.25 0 0-.41.51-.15-1.88-1.16-3.41-1-4-1.78h.19c-2.23-.83-1.38-.26-1.81-.15l-1.35-.6-.71-1.12-.46.27c-.3-.15-.88-.44-.69-.55-1.24-.22.11.26-.65.23-1.28-1-4-1.61-4.09-2.39-.65.07 1.28.84-.35.37-.14-.87-1.83-.68-3-1.58.57-.16 1.72.58.55-.32-1.05.23-2.5-1.28-3.67-1.66-.08.14-.35.1-.76 0-.87-.28-2.33-1.06-3.66-1.52.18-.1-3.39-1.82-5-2.76l.08-.06c-.54.33-2.29-.56-3.64-1 .18-.27.46-.28 1.22-.09l-1.22-.54a4 4 0 01-1.58-.37l.46-.22c-1.64-.71-3.46-1-5.45-2.22-.19.19.46.89.17 1.08l-1.14-.5a.44.44 0 01.41-.1 2.67 2.67 0 01-.93-.35l1 .1c-.89-.57-.62 0-1.36-.35.12-.25-.49-.44-.28-.59a4 4 0 001 .43 8.17 8.17 0 01-2.07-1.39c0 .18-.15.34-.79.1-1.64-.71-.43-.56-1.32-1.12-.47 0-1.42-.64-1.62-.28-.48-.21-.49-.42-.63-.62-.91-.2-3.95-1.7-3.18-.88l.21.13h-.15c-2.94-.86-5.64-2.78-8.45-3.84l.06-.13a50.25 50.25 0 00-5-1.79c-.48-.22-1-.75-.76-.8a11.78 11.78 0 01-3.21-1.41c.75.2.57.06.55 0l.81.39a11 11 0 00-3.75-1.63c.74-.06-1-1-1.85-1.21l1 .74a25.7 25.7 0 01-2.4-1.08l.61-.25c-3.08-2-6.39-1.77-8.52-3.79-1-.09 1.7 1 .76 1A35.17 35.17 0 01198 211a4.42 4.42 0 00-1.59-.63 5.48 5.48 0 00-.64-.09l-.91-.21c-.29.08-.62.16-1 .23l-.3.06a5.2 5.2 0 01-.63.06c.34.13.69.53-1.07.94-1.67.17-2.14-.41-1.11-.69.39-.07.6 0 .59 0 .52-.14 1.22-.31.53-.41l-.19.2c-.85-.05-3.13.29-2.62-.06-1 .29-.69.34 0 .32-1.9.11-3 .47-5.1.61.36 0 .71.19.36.24-3.24.25-1.37.52-3.53.91-1.28-.09.35-.68-1.81-.15-1.36 0-.34-.4.17-.61a18.18 18.18 0 01-4.91.42l1-.28a13.34 13.34 0 01-1.66.32l.66.24c-.63 0-1.16.1-1.16 0-.61.31.57.49-.65 1-.85 0-2.49.55-2.83.14 2.37-.19.15-.36 1.37-.68-.32.05-.68.09-1.1.12-.1-.05.07-.11.23-.16-2.52-.05-1.06.66-3.63 1 .29-.3-.66-.39-1.07-.28 1-.13.55.35-.37.68a11.08 11.08 0 00-2.64.5l1-.05a6.48 6.48 0 01-2.27.63c0-.06.07-.12.21-.16-1.18.34-2.73-.14-4.28.35-.85-.05-.15-.46-.89-.47-2 .61-2.2 0-4.26.54.65.24.75.15-.68.69l3.41-.72-2.14.8c1-.15 2.16-.53 2.79-.56-1 .42-.92.32-.38.53-1.49-.3-2.78.69-4.47.6l-.06-.85c-2.53 0-4.33 1.06-7.56 1.31h1c-.39.39-2 .33-3 .61.05-.29-.61-.3-1.08-.41.08.19-2.35.32-2.56.91l-1.49-.16c-2.6.23-2.84 1.22-5.33 1.48.7-.41-.46-.44 1.17-.9-.82.12-1.57.17-1.57.36-.5-.09-2.25.71-3 .56a2.26 2.26 0 01-1.34.59.07.07 0 010-.11c-.18.15-1.35.38-.56.56-2.69-.5-7.14 1.08-9.48.66-1.8.36-4 .75-5.61 1 .08-.09 0-.13.21-.14-2.19.08-1.23 1-3.82 1.06-1.38-.26 1.34-.44.5-.49-.5-.86-3.11.58-4.92.29l.41-.11c-1.37-.13-3.19.8-5.38 1.05 0 0 .1-.1 0-.14a16.71 16.71 0 01-2.89.93c-.57.14-1.16.27-1.74.39h-.22l-.6.13h-.19l-.93.18c.51-.43 1.11-.34.34-.61-.57.11-.48.21-.42.33s.1.26-.36.42q0 .28.06.75a14.18 14.18 0 00-.31 1.39c-.12.51-.27.84-.46.95v-2.25a3.54 3.54 0 00-.23 1.09v1a9.44 9.44 0 01.11 1.62l-.22-.11c.07 2.73.63 2.76.58 5.69l.17-.3c.54 1.61-.31 1.34.09 2.95l-.56.48c.14 1.06.53 3.7.64 5.6A33.86 33.86 0 0189 240a17.22 17.22 0 00.31 4.11 4.53 4.53 0 01-.1-1.37 16.13 16.13 0 01.64 5.07c-1.09-.38-.29 5.45-1.14 7 .39 3.69-.19 7.33-.14 11.64.86-1.53 0 1.25.89 1a9.31 9.31 0 010 1.26v.19l-.52 3c-.26.72-.2-.95-.39-.85-.07 2.19-.37.92-.61 2.36.31-.29.45.77.32 2l.41-1.77c.46 3.07-.74 2.66-.29 5.75l-.27-1c.08.79.08 2.26.14 3.71 0 .37 0 .73.07 1.09s.06.74.09 1.1a12.63 12.63 0 00.38 2.56c0 .21-.11.49-.17.65a2.29 2.29 0 00.56.48l.67.33a1.9 1.9 0 00.94.18c.28-.06.56-.1.85-.15.5-.09 1-.19 1.52-.27l2.71-.58a24 24 0 014.82-.68l-.26.25a5 5 0 012.07-.47c0 .09-.25.25.07.21a11.07 11.07 0 012.75-.64l-.76.35c3.71-.24 5.55-1.37 8.6-1.94.09.62 3 .41 4.45.32v.09c4.28-.52 7.18-1.53 11.1-2.33 2.54.33 8.34-.89 12.34-1.06-.63 0 0-.5.72-.66.95 0 2.5-.79 2.43-.2h-.33c.77.46 2.66.05 4.14-.15l.15-.78c4 .54 10.11-1.82 12.36-1.15.92-.31 2.07-.48 3-.8v.41c2.62-.27 3.92-.4 7.11-.94l-.61.37c1.81-.22 2.12-1.46 3.79-1.72l.59.52c3.15-.45 6.43-.38 9.47-1.36 0 .1-.11.28-.62.38 1.43-.18 5.51-.4 5.2-1.07.39.35 3.3-.51 4.9-1l-.22.43a9 9 0 013.39-1.26c.4 0 .46.17.06.22 1.33-.05 1.05-.53 2.89-.58l-.68.34a4.47 4.47 0 002.35-.73c1-.3 3.11-.34 3.4 0a3.21 3.21 0 012-.69c.15.11-.19.25-.36.31 2.77-.11 4-1 5.93-.91 0 .13.19.17.35.2-2 .26-3.63.48-3.76.47.07.35 1.8.18.49.86a21.52 21.52 0 015.42-1.46.57.57 0 01.24.09l-.17.07a3.83 3.83 0 001.07-.22 13.45 13.45 0 001.44-.08c.24.27 2-.13 2.9-.24-.13-.38 1-.48-.06-.64a5.16 5.16 0 01-.77.16 1.45 1.45 0 00-.36.09l-2.17.34a4.45 4.45 0 012.36-.49 13.13 13.13 0 011.13-.81c1.27.38 3.62.36 4 .65 2.65-.59 6.27-1 7.84-2 .75-.2.9.09 1.2.16a8.55 8.55 0 00-1.16.34c1.48-.4 4.48-.7 4.77-1.27 1.94 0-1 .63 1.61.17l-.33.21c5.19.1 8.11-2.43 13.82-2.26a.87.87 0 01-.44-.07c6.61-.45 13.41-2.33 20-2.5a6.85 6.85 0 003.1-.87l.45.37 1.84-.76c2.67-.75 4.85.38 8.18-.78l-.48-.23c1.24-.11 3.88-.71 3.71-.36a1.11 1.11 0 01.87-.27l.08.22 3-.81c2.38-.17-.23.94 3.19.5a13.41 13.41 0 002.64-.89c.31-.06.5-.2.32-.24zm-80 12.21l.06-.06a.53.53 0 01-.2.23c-.57.14-.78.09-.87 0 .24-.03.58-.08.98-.17zm63.42-20.3l.13.13-.69-.31zM161.78 215a2.67 2.67 0 01-.36.14c.26-.14.63-.14.36-.14zm-73.32 72.72h.05c.05 0 .06-.05.1-.14a.71.71 0 01-.23-.43 1.66 1.66 0 00.08.57z"/>
          <path class="cls-2" d="M249.4 236.55a.59.59 0 00.2.2s-.09-.11-.2-.2zM257.42 240.23l1.08.64c-.5-.29-.81-.49-1.08-.64zM263.53 243.18a.34.34 0 00.19-.1zM163.28 217.27l-.26.06c-.59.16-.18.07.26-.06zM194.7 211.88h-.1l-.31.14-.15.06-.22.06h.43a.43.43 0 00.24-.09s.09-.05.11-.17zM127.88 222.83h-.22zM192.44 212.34a5.73 5.73 0 001.48-.21 8.25 8.25 0 00-1.48.21zM290.28 255.36l.3.14h.06zM290.64 255.46l.35.11a.73.73 0 00-.35-.11zM291.73 255.79l-.74-.22a1.6 1.6 0 00.74.22zM282.16 251.52l-.15.09a.16.16 0 00.15-.09zM279.66 250.44a14.45 14.45 0 002.23 1.24l.12-.07c-.48.02-1.69-1.14-2.35-1.17zM270 244.16l2 1c-.3-.31-.69-.71.27-.32-2.41-1.56.43.6-2.27-.68zM263.61 241.06c1.15.43.08-.21.18-.27-.79-.19-.96-.23-.18.27zM216.85 220.13l.26-.28c-.88-.34-.06.15-.26.28zM207.14 217.85l.75.58.54-.12-1.29-.46zM202.92 213.12l.4.12-1.5-.52 1.1.4zM117.85 221.17l-.34-.41c1.03-.27.97.24.34.41zM89.28 235.65a3.28 3.28 0 00-.15 2.09c.03-.83.21-1.66.15-2.09zM150.04 280.25l-.71.25 1.37-.32-.66.07zM90.07 148c.28 0 .28-.3-.36-.57l-.65.19zM86.34 145.11c-.83-.17-1.85-.24-1.58.38.92 0 1 .23 2 .14.64.27 1 .69.82.79.27 0 .91.58 1.38.49a5.33 5.33 0 00-2.84-1.54c-.12-.21.12-.21.22-.26zM26.56 113.56l.36.25a3.14 3.14 0 00-.36-.25zM1.23 116.58c0-.32-.06-.45-.1-.47.03.3.06.54.1.47zM.69 123.73v-.42a.81.81 0 000 .42zM26.56 113.56l-.93-.64c-.14.08.46.36.93.64zM77.53 141.86a2.69 2.69 0 00.59.17l-.53-.22zM43.15 121.66l.3.16h.34zM55.78 128.07c-.27-.16-.55.15-.74.24a1.21 1.21 0 01.74.08.38.38 0 000-.32zM75.44 139l.38.13zM34.17 117a.27.27 0 00-.05-.19s0 .06.05.19zM88.6 163.59h.07c-.04-.08-.07-.11-.07 0zM90.85 147.45a.87.87 0 01-.22 0v-.23zM.15 136.81v-.05c-.03-.35-.03-.15 0 .05zM17 248.93c-1-1 2.16.66.55-.67.1.23-1.92-.34-.55.67zM77.22 141.65l-.51-.27a3.3 3.3 0 00.51.27zM17.56 248.26l-.17-.14zM.33 167a.85.85 0 00.17-.3s-.09.04-.17.3zM1 144.5l-.06.56a4.48 4.48 0 00.06-.56zM.87 178.63a2.3 2.3 0 000 .81.33.33 0 00.05-.12 1.26 1.26 0 01-.05-.69zM.84 190.77c0-.07.05-.15.08-.23v-.38zM88.71 200.48a1.74 1.74 0 01.36-.56c-.28.19-.38-1.6-.36.56z"/>
          <path class="cls-2" d="M77.62 141.66a.5.5 0 01-.4 0l.37.16c.06-.05.09-.09.03-.16zM4 179.13v0zM88.4 284h.07-.07zM4 186.78a4.9 4.9 0 00-.28 1.08 1 1 0 00.1.23zM89.07 199.91z"/>
          <path class="cls-5" d="M1.13 180.69s.01 0 0 0zM91.49 235.46s-.01.01 0 0z"/>
          <path class="cls-3" d="M91.21 269.73l.61-.5c0-3.1.52-6.24 0-9.3.08.05.25.14.29.64 0-1.4.38-5.37-.34-5.15.42-.31 0-3.26-.25-4.84l.39.26a8.75 8.75 0 01-.77-3.44c.05-.39.24-.41.24 0 .13-1.27-.39-1.08-.18-2.85l.25.7a4.23 4.23 0 00-.39-2.36c-.16-1 .1-3 .46-3.28a3 3 0 01-.4-2c.13-.13.22.21.26.38.28-2.68-.45-4-.05-5.84.12 0 .19-.16.23-.31 0 2 0 3.56-.06 3.69.35 0 .42-1.71.93-.34a20.74 20.74 0 01-.7-5.43 1.26 1.26 0 01.13-.23v.18a4.06 4.06 0 000-1.06 13.43 13.43 0 00.11-1.39c.2-.14.21-1 .19-1.82v-1c-.4.08-.33-1-.65 0a3.06 3.06 0 010 .77 3.22 3.22 0 000 .37v-.07 2.11a4.3 4.3 0 01-.21-2 2.1 2.1 0 01.06-.33c-.26-.45-.52-.93-.64-1.2.56-1.18.87-3.44 1.21-3.76-.23-2.62-.14-6.17-.88-7.82-.1-.75.22-.85.33-1.13a9 9 0 00.17 1.16c-.19-1.48-.06-4.41-.58-4.76.23-1.89.48 1.05.39-1.53l.16.35c.84-5-1.25-8.16-.28-13.62a.83.83 0 01-.14.41c.49-6.42-.41-13.23.35-19.56a6.26 6.26 0 00-.43-3.09l.43-.4-.5-1.87c-.35-2.67 1.08-4.62.39-8l-.29.44c.05-1.21-.16-3.84.17-3.63a1 1 0 01-.15-.88h.23l-.38-3c.16-2.3.89.36.94-3-.08-1.25-.65-3.57-.8-3.09s-.14 1.28-.36 1.32l-.12-1.14h-.13v-.19l-.16-.08L78.48 141h.18l-.42-.08-1.55-.81c.08 0 .26 0 .59.09-1-.84-1.11-.32-1.92-1.12-.09-.09 0-.09.08-.06l-1.18-.42c.27 0 0-.46.65 0-1.83-1.33-3.4-1.25-3.94-2h.18c-2.12-.92-1.33-.32-1.76-.21l-1.28-.67-.61-1.15-.47.25c-.28-.16-.83-.47-.65-.58-1.18-.28.1.27-.64.21-1.19-1.06-3.84-1.78-3.84-2.55-.63 0 1.19.9-.37.35-.07-.88-1.74-.75-2.83-1.69.55-.15 1.64.64.55-.3-1 .18-2.36-1.38-3.47-1.81-.29.44-2.39-1-4.23-1.74.2-.09-3.19-2-4.74-3l.08-.06c-.55.3-2.19-.65-3.48-1.19.2-.25.48-.25 1.2 0l-1.15-.6a3.52 3.52 0 01-1.53-.42l.47-.21a36 36 0 01-5.19-2.43c-.19.17.39.9.09 1.07l-1.07-.54c.09-.1.26-.13.57 0a3.25 3.25 0 01-1-.45l1 .14c-.83-.58-.6 0-1.3-.39.14-.24-.45-.45-.24-.6.19.07.57.43.9.47a7.42 7.42 0 01-1.99-1.5c0 .17-.17.33-.79.06-1.54-.78-.36-.57-1.2-1.16-.46 0-1.36-.71-1.57-.34a1.12 1.12 0 01-.57-.65c-.88-.24-3.75-1.87-3.05-1l.18.13-.14-.06c-2.81-1-5.32-3-8-4.17l.06-.13a46.13 46.13 0 00-4.73-2c-.46-.24-1-.79-.68-.84a10.8 10.8 0 01-3.06-1.53c.62.19.58.11.55.06l.76.41A10.74 10.74 0 008.37 104c.73 0-.95-1-1.73-1.27l1 .78c-.42-.19-.81-.39-1.19-.58s-.89-.49-1.34-.74a5.56 5.56 0 01.72-.16 3 3 0 00-2.93.13l-.68-.34v.76l-.18.14A2.2 2.2 0 001 104.25V106a6.23 6.23 0 01-.3 1.33c.33.94.23-1.93.62-1.08a31.44 31.44 0 01-.75 3.83c-.27 2.23.69 2.08.5 4.41.17-.29.62-.58.77 1.17-.06 1.64-.7 2-.84 1 0-.38 0-.57.09-.55-.05-.54-.12-1.22-.31-.58l.18.21c-.18.81-.17 3-.44 2.53.11.92.21.76.3.24-.14 1.72 0 2.87-.12 4.79.09-.34.29-.66.29-.32-.22 3.16.32 1.39.38 3.54-.25 1.21-.61-.44-.39 1.71-.19 1.32-.45.28-.59-.25a17.64 17.64 0 01-.29 4.79l-.13-1a13.74 13.74 0 01.07 1.64l.34-.59c-.06.6-.06 1.11-.21 1.11.23.63.57-.48.87.76-.17.82.18 2.47-.27 2.75.23-2.34-.31-.23-.46-1.44a8 8 0 010 1.06c-.05.1-.09-.08-.12-.24-.41 2.43.5 1.11.49 3.64-.25-.32-.48.58-.43 1 0-1 .42-.49.61.45a11.14 11.14 0 00.12 2.61l.1-1a6 6 0 01.3 2.26c-.07 0-.11-.07-.13-.2.16 1.18-.54 2.6-.27 4.15-.17.82-.47.08-.59.8.32 1.95-.35 2.11-.08 4.16.34-.59.25-.69.59.76l-.24-3.38.49 2.17c0-1-.21-2.15-.15-2.76.27 1 .19.92.48.44-.52 1.39.28 2.76-.07 4.38l-.83-.06c-.38 2.43.41 4.32.2 7.47l.15-1c.33.43 0 1.95.17 3-.28-.1-.39.54-.56 1 .21 0 0 2.32.54 2.61l-.38 1.4c-.16 2.54.8 2.9.7 5.34-.31-.73-.5.38-.72-1.26 0 .82-.06 1.55.13 1.56-.17.48.38 2.27.11 3a2.09 2.09 0 01.39 1.37c0 .07-.08 0-.1 0 .12.2.17 1.35.46.61-.88 2.52.05 7-.71 9.22.09 1.78.17 3.93.19 5.55-.06-.08-.11 0-.11-.17-.22 2.06.8 1.29.51 3.77-.46 1.3-.25-1.35-.42-.55-.92.36.12 3.08-.42 4.78l-.05-.42c-.32 1.31.34 3.19.27 5.32 0 0-.09-.09-.14 0a31.84 31.84 0 01.74 6.28c-.35-.64-.18-.93-.56-.55.06.92.6-.26.7 1.58-.21.6-.38 1.91-.77 2.1v-1.74c-.51.89 0 2.24-.08 3.15l-.21-.11c.06 2.66.62 2.69.57 5.55l.17-.3c.55 1.56-.32 1.31.09 2.86l-.57.47c.14 1 .54 3.61.65 5.45A31.86 31.86 0 01.59 229a16.35 16.35 0 00.31 4 4.64 4.64 0 01-.11-1.33 14.94 14.94 0 01.65 4.92c-.25-.07-.4.14-.49.55a2.28 2.28 0 00-.06.35v.58c0 .42 0 .89-.06 1.38l1.65.93c.45.26.78.47 1.16.7a5.08 5.08 0 011.53 1.29c3.35 1.36 6.19 3.55 9.89 5.5-.89-1.46 1.1.57 1.29-.32a8 8 0 011.08.57.45.45 0 01.17.12l2.35 1.88c.49.56-.91-.28-.92-.07 1.84 1.09.61.75 1.74 1.63-.1-.4.86 0 1.88.66l-1.32-1.18c2.85 1 1.92 1.87 4.79 2.91l-1-.21c1.44.6 5 2.73 6.67 2.83.2.22.4.6-.23.34 3.19 1.85 7.57 3.27 9.88 5l-.34.05c.63.27 1.24.22 1.9.82-.08.06-.35.06-.08.22a10.19 10.19 0 012.53 1.09l-.8-.16c3 2 5.13 2.12 7.85 3.44-.3.55 2.09 2.08 3.28 2.85l-.08.05c3.65 2.07 6.5 2.95 10 4.59 1.79 1.74 7 4.14 10.25 6.32-.46-.37.32-.37 1-.1.74.54 2.42.82 2 1.26l-.27-.17c.33.82 2 1.58 3.32 2.29l.56-.54a14.55 14.55 0 003.25 2.24l1.41.75c.43.22.85.43 1.27.66h.05l.25.13.41.21.67.33 1.81.91v-.88-2.95c0-.55 0-1 .1-1.5 0-.22.07-.45.1-.65a2.21 2.21 0 01.07-.3 1.25 1.25 0 01.06-.18c-.18-.93-.18-2.06-.36-3h.4c.11-2.55.16-3.82.07-7l.29.64c.01-1.61-1.18-2.09-1.2-3.72zM92 227v-1l-.05-.07a.57.57 0 01.2.23c-.04.53-.15.72-.15.84zm-17.2-88a.44.44 0 01.12.13l-.64-.33c.16.08.34.2.52.2zm-73.69 6.18a1.64 1.64 0 01.09.35c-.03-.26-.03-.59-.09-.35z"/>
          <path class="cls-2" d="M91.54 225.39l-.13-.19a3.37 3.37 0 01.09-.34v.23c0 .08.03.2.04.3zM27 113.85h-.06a.4.4 0 01.11.12zM88.39 283.12h.1l-.09-.09zM44 124.15a.54.54 0 00.19.21.85.85 0 00-.19-.21zM51.61 128.16l1 .68a10.6 10.6 0 00-1-.68zM57.39 131.35a.63.63 0 00.2-.09zM3.62 144.06a2.11 2.11 0 000 .25c.09.6.06.19 0-.25zM2.76 112.84c.07.33.14.65.18 1 .06-.56.06-.99-.18-1zM4 178.92zM2.93 115.29a5 5 0 000-1.45 8.78 8.78 0 000 1.45zM82.74 144.58l.28.16a.09.09 0 01.06 0zM83.08 144.7l.34.12a.86.86 0 00-.34-.12zM84.12 145.07l-.7-.25a1.39 1.39 0 00.7.25zM75.06 140.42l-.16.09a.18.18 0 00.16-.09zM72.68 139.25a13.72 13.72 0 002.1 1.32l.12-.06c-.46 0-1.57-1.2-2.22-1.26zM63.64 132.59l1.93 1.12c-.28-.31-.64-.73.28-.3-2.28-1.69.36.59-2.21-.82zM57.61 129.24c1.1.48.09-.21.19-.25-.74-.23-.92-.28-.19.25zM13.29 106.46l.27-.27c-.84-.38-.07.12-.27.27zM4.43 104a3.65 3.65 0 01.39.45.94.94 0 01.36-.19zM.55 104.46l-.05-.71c0 .87.08 1.94.13 2.29v-.61zM.49 188.61l.45-.28c-.08-.62-.58-.76-.45.28zM.87 224.74a3.06 3.06 0 00-.15 2c.03-.74.2-1.59.15-2zM83.86 285.43l-.71-.21 1.26.54-.55-.33zM89.85 146.48c-.1.26.2.37.67-.16v-.68zM93.92 143.86c.45-.73.87-1.68.19-1.63-.3.89-.57.89-.85 1.89-.48.53-1 .74-1 .53-.1.26-.88.68-1 1.15a5.49 5.49 0 002.46-2.2c.28-.11.18.16.2.26zM144.84 97.11l-.37.26a2.31 2.31 0 00.37-.26zM176 68.4s.05-.17.28-.4c.05 0-.11.17-.28.4zM181.93 63.38a.71.71 0 01-.33.26zM145.77 96.43l-.93.68c.43-.35.89-.85.93-.68zM100.09 136.51a3.06 3.06 0 00-.36.52l.39-.44zM131.32 110.3l-.33.58a1.43 1.43 0 01.09-.34zM120.81 120.27a.45.45 0 01-.3-.1 1.26 1.26 0 00.33-.7c.03.21.22.59-.03.8zM103.57 135.47l-.26.32zM139.14 103.29a.31.31 0 01-.19 0c.05-.04.16-.04.19 0zM76.42 137.83v.06c0 .06.1-.01 0-.06zM90.45 147.26l-.21-.09a.8.8 0 00-.15.18zM192 54.62l-.08.1.06-.09zM93.1 11.88c1.25-.71-1.31 1.9.47.73-.25.02.94-1.77-.47-.73zM100.4 136.29l.43-.4c-.2.17-.33.3-.43.4zM93.57 12.61l.18-.12zM173.23 35.81a.89.89 0 00.19.31s-.03-.12-.19-.31zM193.47 47.47l-.71-.45c.24.19.51.33.71.45zM162.48 30.61a2.4 2.4 0 00-.72-.43.43.43 0 00.09.1 1.35 1.35 0 01.63.33zM151.57 24.68l.17.18.35.17zM42.78 120.75a1.85 1.85 0 01.34.59c-.04-.34 1.63.4-.34-.59zM100.25 136.67a.52.52 0 01.15-.38l-.28.3c.01.07.04.12.13.08zM160.53 33.14l-1.7-1c.46.3 1.08.66 1.7 1zM153.66 29.4a4.5 4.5 0 00-.85-.78 1.1 1.1 0 00-.25 0zM19.08 111.81l.23.08-.27-.24h-.24zM144.47 97.38h-.16zM3.72 98.79l.18-.14z"/>
          <path class="cls-4" d="M196.54 49.44c.15-.11.28-.23.35-.29a14.91 14.91 0 00-2-1 10.34 10.34 0 01-1.24-.54l-.17-.09.17.11 1 .64a3.86 3.86 0 01-1-.32 1.51 1.51 0 01-.26-.12c-.48-.22-1.16-.57-1.62-.78 0-.06.09-.06.2 0-1.15-.47-2.06-1.71-3.57-2.24-.64-.54.15-.46-.43-.91-1.91-.66-1.73-1.34-3.71-2.1.37.59.5.57-1 .15l3.14 1.44-2.18-.62c.92.5 2 .85 2.56 1.21-1.06-.26-.92-.28-.62.2-1-1.14-2.63-1.09-3.91-2.19l.44-.71c-2-1.51-4.08-1.73-6.81-3.45l.84.62c-.53.09-1.76-.91-2.75-1.29.23-.2-.3-.59-.61-1 0 .21-2.07-1.13-2.59-.78l-1.08-1c-2.22-1.37-3-.72-5.14-2 .8.09-.1-.63 1.48 0-.74-.4-1.38-.8-1.48-.64-.35-.39-2.21-.78-2.75-1.38a2.32 2.32 0 01-1.43-.32v-.1c-.23 0-1.27-.5-.76.1-1.84-2-6.35-3.37-7.95-5.1-1.64-.79-3.62-1.76-5.08-2.53.12 0 .07-.1.26 0-1.8-1.23-1.58.06-3.69-1.41-.95-1 1.33.43.69-.11.12-1-2.82-1.38-4.09-2.7l.39.16c-1-.91-3-1.25-4.91-2.36 0 0 .13 0 .07-.11a33 33 0 01-6-2.4c.75 0 .93.29.75-.23-.85-.39 0 .66-1.74-.15-.44-.47-1.55-1.27-1.52-1.7l1.56.84c-.54-.89-2-1.09-2.79-1.61l.2-.14c-2.41-1.23-2.71-.76-5.26-2.2l.19.3c-1.66-.27-1-.92-2.63-1.31l-.06-.79c-1-.39-3.5-1.29-5.2-2.1a35.76 35.76 0 014.5 1.45 17.4 17.4 0 00-3.75-1.67 4.85 4.85 0 011.25.55 15.4 15.4 0 01-4.73-1.83c.25-.24-.1-.61-.73-1a6.14 6.14 0 00-.53-.33l-.29-.18-.38-.23-2-1.1c-.65.6-1.33 1.22-1.92 1.69a3.43 3.43 0 01-1.11.62c-2.37 2.85-5.38 4.94-8.42 8 1.68-.44-.88.89-.08 1.33a11.55 11.55 0 01-.89.89.49.49 0 01-.19.12L91 14.34c-.69.31.54-.8.35-.88-1.63 1.47-.92.38-2.12 1.21.43 0-.24.85-1.22 1.63l1.54-.93c-1.87 2.45-2.41 1.3-4.3 3.77l.51-.87c-1 1.21-4.2 4-4.83 5.61-.27.12-.71.2-.25-.32-2.78 2.55-5.53 6.36-7.94 8.1l.06-.36c-.47.53-.61 1.14-1.39 1.6 0-.1 0-.36-.18-.14a11.05 11.05 0 01-1.85 2.13l.4-.73C67 36.52 66.16 38.5 64 40.75c-.43-.46-2.66 1.4-3.77 2.33v-.09c-3.14 2.92-4.88 5.43-7.57 8.35-2.25 1.22-6.21 5.59-9.33 8.06.51-.33.27.42-.19 1-.76.55-1.56 2.09-1.84 1.58l.24-.22c-.9.07-2.16 1.51-3.25 2.53l.34.71c-3.57 1.93-7.08 7.39-9.3 8.16-.54.78-1.38 1.6-1.92 2.38l-.24-.33c-2 1.74-2.92 2.61-5.18 4.91l.28-.66c-1.27 1.2-.84 2.39-2.03 3.54l-.78-.09c-2.27 2.22-5 4.06-6.83 6.63 0-.1-.08-.29.27-.66-1.05 1-4.15 3.49-3.57 3.89C8.78 92.8 7 95.16 6 96.43L5.88 96a9.11 9.11 0 01-2 3c-.26.21-.43.26-.44.18s0-.09.12-.19a.55.55 0 01.15-.16c-.11.1-.24.19-.34.29a4.7 4.7 0 00-.39.4 4.2 4.2 0 00-.47.61 7.09 7.09 0 01-1.63 1.68c.11-.22.22-.45.36-.7-.46.43-.78.75-1 1a8.69 8.69 0 001.74.61l.63.17c.35.14.73.32 1.13.52l.59.35c.2.11.4.24.53.33a2.49 2.49 0 01.31.23c.41.3.7.6.72.77a3.26 3.26 0 012.05.59c0 .19-.3.1-.48.06 2.32 1.49 3.84 1.45 5.34 2.65a.41.41 0 00.18.37c-1.75-.91-3.18-1.67-3.33-1.78-.17.32 1.37 1.18-.11 1a21.34 21.34 0 015.26 1.9 1 1 0 01.14.22h-.17a3.37 3.37 0 001 .44 10.55 10.55 0 001.22.75c.05.37 1.72 1.07 2.5 1.49.12-.39 1.07.17.32-.57a3.69 3.69 0 01-.72-.31H19l-.26-.1h.07c-.52-.25-1.18-.6-1.95-1a4.39 4.39 0 012.19 1h1.39c.81 1 2.73 2.37 2.86 2.83 2.49 1 5.69 2.75 7.53 2.85.72.26.69.6.88.83a7.07 7.07 0 00-1.15-.39c1.45.52 4.05 2 4.62 1.69 1.59 1.09-1.18-.07 1.2 1.07h-.39c4.17 3.06 8 2.67 12.53 6.09-.18-.14-.28-.23-.3-.32 1.15.7 2.35 1.36 3.56 2 4.7 2.44 9.74 4.52 14 7.39a6.59 6.59 0 003 1.06l.16.57 1.94.44c2.46.88 3.6 2.89 6.64 3.92l.42.13-.27-.46c1.08.61 3.57 1.64 3.23 1.84a1 1 0 01.86.27l-.06.21 2.88 1.05a4.2 4.2 0 01.44.29c.35.27.39.42.37.54s-.29.3 1.61 1.3a13.27 13.27 0 002.1.66 2.69 2.69 0 001.1.15v-.08a1 1 0 00-.17-.1h-.05c-.41-.26-.87-.63-.82-.82l1.09.43.11-.08.16.08 10.09-9.46v.18l.23-.37 1.3-1.22c0 .1-.06.26-.29.53 1.16-.68.7-.94 1.73-1.47h.08l.77-.94c-.1.27.44.16-.19.63 1.89-1.3 2.37-2.83 3.31-3.09l-.12.16c1.63-1.72.78-1.17.82-1.61l1.08-1 1.3-.22-.06-.53c.24-.21.74-.62.77-.42.67-1-.28 0 0-.69 1.41-.78 3-3.09 3.76-2.82.18-.62-1.28.83-.2-.47.85.21 1.31-1.43 2.6-2.16-.07.58-1.19 1.36.08.64.2-1.06 2.15-1.81 2.94-2.72-.31-.42 1.76-2 3.12-3.47 0 .21 3-2.41 4.49-3.56v.1c-.09-.64 1.4-1.9 2.36-2.94.17.26.06.53-.4 1.16l1-.92a3.7 3.7 0 01.94-1.32v.51c1.29-1.23 2.29-2.77 4.13-4.14-.1-.25-1 .06-1.06-.27l.9-.84c.05.1 0 .25-.11.47a2.68 2.68 0 01.74-.78l-.49.9c.86-.6.21-.57.84-1.12.18.22.59-.28.65 0-.14.17-.61.42-.77.71a7.94 7.94 0 012.08-1.36c-.17-.06-.26-.27.21-.77 1.29-1.23.68-.17 1.53-.78.19-.42 1.15-1.06.88-1.38a1.14 1.14 0 01.81-.33c.54-.76 3.09-3 2-2.59l-.19.14a1.25 1.25 0 00.09-.12c1.91-2.36 4.73-4.1 6.78-6.27l.09.1a51.46 51.46 0 003.55-3.86c.39-.37 1.09-.67 1-.4a11.77 11.77 0 012.52-2.4c-.45.61-.26.5-.23.49s-.19.16-.67.6a10.85 10.85 0 002.94-2.81c-.22.7 1.29-.58 1.82-1.23l-1.08.65c.66-.69 1.29-1.22 1.92-1.78v.65c3-2.05 4.09-5.18 6.77-6.36.47-.9-1.6 1.18-1.23.31a34.08 34.08 0 013.42-2.18c1.84-1.37 1.08-2 2.94-3.47-.33.09-.85 0 .35-1.38 1.25-1.09 2-.89 1.29-.06-.28.28-.46.37-.48.32-.35.42-.81.95-.21.63v-.27c.73-.44 2.39-2 2.18-1.45.63-.78.4-.68-.09-.33 1.42-1.13 2.15-2.07 3.71-3.34-.32.17-.68.25-.44 0 2.51-2 .83-1.2 2.37-2.75 1.08-.66.1.75 1.55-.91 1.11-.79.52.13.22.6a17.88 17.88 0 013.76-3.15l-.68.82a11.21 11.21 0 011.17-1.2l-.67.17c.5-.39.87-.75 1-.63.31-.6-.75-.08 0-1.17.72-.44 1.71-1.85 2.22-1.72-1.82 1.52.1.38-.71 1.34a7.77 7.77 0 01.82-.72c.11 0 0 .13-.11.26 1.05-.7 1.17-1 1.27-1.32l.08-.26a1.44 1.44 0 01.17-.29l.05-.07.09-.12v-.07c.17-.19.37-.43.65-.71l.69-.66c0 .16.1.14.35 0h.09a.48.48 0 01.14-.09 7.66 7.66 0 00.94-.74c-1.02.88-.73.08-.04-.82zm-178.42 62.3h.09a.58.58 0 01-.3.06c-.54-.21-.68-.37-.71-.48.24.11.53.25.92.42zm85.62 23.11l-.16.05.53-.5c-.11.14-.23.29-.37.45zm88.74-87.73A3.47 3.47 0 01192 47a.85.85 0 01.22.09c.22.07.51.22.26.03z"/>
          <path class="cls-2" d="M160.5 29.84zM128.65 110.32a.48.48 0 00-.26.11.94.94 0 00.26-.11zM122.19 116.26l-1 .74c.45-.31.81-.55 1-.74zM117.14 120.73a.32.32 0 000 .21zM191.53 49.46h-.09c-.23-.06-.1-.03.09 0zM172.41 69.51c.2-.28.4-.56.62-.84-.43.33-.76.67-.62.84zM160.72 33.25l-.19-.1zM174.12 67.66a5.68 5.68 0 00-1.09 1 8 8 0 001.09-1zM95.68 140.6l-.25.21a.08.08 0 010 .08zM95.45 140.89l-.23.28a.89.89 0 00.23-.28zM94.73 141.76l.49-.59c-.22.18-.44.39-.49.59zM102.32 134.63v-.18a.19.19 0 000 .18zM104.27 132.74a14.83 14.83 0 00-2 1.57v.14c.19-.45 1.73-1.11 2-1.71zM112.22 128.13c.73-.73.2-.52-.19-.36l1.73-1.48c-2.22 1.99.86.21-1.54 1.84zM119.23 121.89c0-.11-1 .63-.17-.26.76-.52.64-.37.17.26zM156.39 87.12l-.16-.36c.08.24.82-.33.16.36zM162.06 78.73l-.83.46-.09.54.92-1z"/>
          <path d="M194.08 175.36l-.17.33c0-3.22-.52-3.26-.59-6.26l.22.12c.09-1-.44-2.55.07-3.56v2c.39-.2.57-1.7.76-2.38-.1-2.08-.63-.73-.69-1.77.37-.43.2-.1.56.61a41 41 0 00-.76-7.08c.06-.11.14 0 .14 0 .06-2.41-.6-4.54-.28-6v.47c.54-1.93-.51-5 .41-5.4.17-.91 0 2.08.42.61.28-2.81-.73-1.94-.53-4.27 0 .16.06.11.13.2 0-1.83-.12-4.25-.21-6.27a1 1 0 01-.08.25l.06-.68v.43c.76-2.48-.18-7.57.69-10.42-.28.83-.35-.47-.47-.69h.11a2.6 2.6 0 00-.4-1.55.74.74 0 010 .14 3 3 0 010-.51 1.27 1.27 0 00.05.37c.27-.86-.28-2.87-.1-3.42-.2 0-.15-.84-.14-1.77.21 1.86.42.6.72 1.44.09-2.77-.86-3.18-.71-6l.37-1.6c-.55-.32-.33-3-.54-2.92a.89.89 0 01-.17.34c.08-.25.14-.33.17-.34.18-.49.28-1.22.55-1.11-.12-1.15.16-2.87-.18-3.36l-.14 1.15c.22-3.56-.6-5.69-.22-8.43L194 98c.35-1.84-.46-3.38.05-5-.28.55-.2.67-.47-.5-.07.69.16 2 .15 3.13l-.5-2.45.25 3.82c-.33-1.64-.26-1.52-.59-.85-.27-2.33.4-2.51.08-4.73.11-.8.41 0 .58-.89-.26-1.75.42-3.37.26-4.7 0 .15.07.27.13.24a7.82 7.82 0 00-.3-2.56l-.1 1.09a3.74 3.74 0 01-.05.62l.05-.62a12.39 12.39 0 01-.11-2.94c-.2-1.06-.61-1.66-.63-.51-.05-.47.18-1.49.43-1.13 0-2.85-.9-1.36-.49-4.11v-.27.27c0 .19.06.38.12.29v-1.23c.15 1.39.63-1 .49 1.61.45-.32.1-2.18.27-3.11-.3-1.4-.64-.15-.87-.85.14 0 .14-.58.21-1.25l-.35.66v-1.45l.1.76A22.53 22.53 0 00193 66c.14.58.41 1.75.58.26-.21-2.43.14-.56.4-1.93-.07-2.42-.6-.42-.4-4 0-.38-.19 0-.28.35v.48a1.05 1.05 0 010-.48c.15-2.19 0-3.48.1-5.45-.08.61-.18.83-.3-.23.14.29.21-.19.26-.87 0-.18 0-.66.05-1.11l-.08.26c-.1.33-.22.62-1.27 1.32.11-.13.22-.28.11-.26a7.77 7.77 0 00-.82.72c.81-1-1.11.18.71-1.34-.51-.13-1.5 1.28-2.22 1.72-.72 1.09.34.57 0 1.17-.1-.12-.47.24-1 .63l.67-.17a11.21 11.21 0 00-1.17 1.2l.68-.82a17.88 17.88 0 00-3.76 3.15c.3-.47.89-1.39-.22-.6-1.45 1.66-.47.25-1.55.91-1.54 1.55.14.7-2.37 2.75-.24.24.12.16.44 0l.33-.26a.71.71 0 01-.33.26c-1.56 1.27-2.29 2.21-3.71 3.34.49-.35.72-.45.09.33.21-.57-1.45 1-2.18 1.45v.27c-.6.32-.14-.21.21-.63 0 0 .05-.17.28-.4.08 0-.08.17-.28.4 0 0 .2 0 .48-.32.68-.83 0-1-1.29.06-1.2 1.34-.68 1.47-.35 1.38-1.86 1.51-1.1 2.1-2.94 3.47a34.08 34.08 0 00-3.36 2.14c-.37.87 1.7-1.21 1.23-.31-2.68 1.16-3.74 4.29-6.74 6.34v-.65c-.63.56-1.26 1.09-1.92 1.78l1.08-.65c-.53.65-2 1.93-1.82 1.23a10.85 10.85 0 01-2.94 2.81c.48-.44.64-.56.67-.6s-.22.12.23-.49a11.77 11.77 0 00-2.52 2.4c.06-.27-.64 0-1 .4a51.46 51.46 0 01-3.55 3.86l-.09-.1c-2.05 2.17-4.87 3.91-6.78 6.27l.16-.06h-.06c1.06-.39-1.49 1.83-2 2.59a1.14 1.14 0 00-.81.33c.27.32-.69 1-.88 1.38-.85.61-.24-.45-1.53.78-.47.5-.38.71-.21.77s.16 0 .19 0a.31.31 0 01-.19 0 7.94 7.94 0 00-2.08 1.36c.16-.29.63-.54.77-.71-.06-.25-.47.25-.65 0-.63.55 0 .52-.84 1.12l.49-.9a2.68 2.68 0 00-.74.78c.15-.22.16-.37.11-.47l-.9.84c.08.33 1 0 1.06.27-1.84 1.37-2.84 2.91-4.13 4.14v-.51a3.7 3.7 0 00-.94 1.32l.24-.24-.33.58a1.43 1.43 0 01.09-.34l-1 .92c.46-.63.57-.9.4-1.16-1 1-2.45 2.3-2.36 2.94v-.1c-1.5 1.15-4.45 3.77-4.49 3.56-1.36 1.51-3.43 3-3.12 3.47a1.26 1.26 0 00.33-.7c0 .21.22.59 0 .8a.45.45 0 01-.3-.1c-.79.91-2.74 1.66-2.94 2.72-1.27.72-.15-.06-.08-.64-1.29.73-1.75 2.37-2.6 2.16-1.08 1.3.38-.15.2.47-.74-.27-2.35 2-3.76 2.82-.32.69.63-.36 0 .69 0-.2-.53.21-.77.42l.06.53-1.3.22-1.08 1c0 .44.81-.11-.82 1.61l.12-.16c-.94.26-1.42 1.79-3.31 3.09.63-.47.09-.36.19-.63l-.77.94s0-.08-.08 0c-1 .53-.57.79-1.73 1.47.23-.27.31-.43.29-.53l-1.3 1.22-.23.37v-.18l-10.23 9.48v.19h.13v-.23l.24.28a.87.87 0 01-.22 0l.12 1.14c.22 0 .35-.82.36-1.32s.72 1.84.8 3.09c0 3.36-.78.7-.94 3l.38 3h-.23a1 1 0 00.15.88c-.33-.21-.12 2.42-.17 3.63l.29-.44c.69 3.37-.74 5.32-.39 8l.5 1.87-.43.4a6.26 6.26 0 01.43 3.09c-.76 6.33.14 13.14-.35 19.56a.83.83 0 00.14-.41c-1 5.46 1.12 8.62.28 13.62l-.16-.35c.09 2.58-.16-.36-.39 1.53.52.35.39 3.28.58 4.76a9 9 0 01-.17-1.16c-.11.28-.43.38-.33 1.13.74 1.65.65 5.2.88 7.82-.34.32-.65 2.58-1.21 3.76.12.27.38.75.64 1.2a3.37 3.37 0 01.09-.34v.23a3.06 3.06 0 000-.77c.32-1 .25.11.65 0v1h.22c.58-.12 1.17-.25 1.74-.39A16.71 16.71 0 0097 224c.1 0 0 .14 0 .14 2.19-.25 4-1.18 5.38-1.05l-.41.11c1.81.29 4.42-1.15 4.92-.29.84.05-1.88.23-.5.49 2.59-.07 1.63-1 3.82-1.06-.21 0-.13.05-.21.14 1.64-.26 3.81-.65 5.61-1h-.23.62l-.39.08c2.34.42 6.79-1.16 9.48-.66-.79-.18.38-.41.56-.56a.07.07 0 000 .11 2.26 2.26 0 001.34-.59h-.13a2 2 0 01.72-.09 1.31 1.31 0 00-.59.12c.8.15 2.55-.65 3-.56 0-.19.75-.24 1.57-.36-1.63.46-.47.49-1.17.9 2.49-.26 2.73-1.25 5.33-1.48l1.49.16c.21-.59 2.64-.72 2.56-.91a.67.67 0 01-.33-.13c.23.06.32.09.33.13.47.11 1.13.12 1.08.41 1-.28 2.6-.22 3-.61h-1c3.23-.25 5-1.32 7.56-1.31l.06.85c1.69.09 3-.9 4.47-.6-.54-.21-.63-.11.38-.53-.63 0-1.75.41-2.79.56l2.14-.8-3.41.72c1.43-.54 1.33-.45.68-.69 2.06-.57 2.31.07 4.26-.54.74 0 0 .42.89.47 1.55-.49 3.1 0 4.28-.35-.14 0-.25.1-.21.16a6.48 6.48 0 002.27-.63l-1 .05a11.08 11.08 0 012.64-.5c.92-.33 1.4-.81.37-.68.41-.11 1.36 0 1.07.28 2.57-.36 1.11-1.07 3.63-1a.63.63 0 01.21-.05l-.14.05h-.07c-.16 0-.33.11-.23.16.42 0 .78-.07 1.1-.12-1.22.32 1 .49-1.37.68.34.41 2-.18 2.83-.14 1.22-.47 0-.65.65-1 0 .14.53.06 1.16 0l-.66-.24a13.34 13.34 0 001.66-.32l-1 .28a18.18 18.18 0 004.91-.42c-.51.21-1.53.63-.17.61 2.16-.53.53.06 1.81.15 2.16-.39.29-.66 3.53-.91.35-.05 0-.2-.36-.24h-.43a.82.82 0 01.43 0c2.07-.14 3.2-.5 5.1-.61-.69 0-1 0 0-.32-.51.35 1.77 0 2.62.06l.19-.2c.69.1 0 .27-.53.41 0 0-.14.1-.46.16-.08 0 .16-.1.46-.16 0-.07-.2-.09-.59 0-1 .28-.56.86 1.11.69 1.76-.41 1.41-.81 1.07-.94a5.2 5.2 0 00.63-.06v-.2a1.93 1.93 0 010-.27 1.94 1.94 0 000-.24v-.41c0-.52 0-.87-.44 0-.07-4.73.51-8.74.11-12.8.84-1.67 0-8.06 1.12-7.65a19 19 0 00-.65-5.58 5.49 5.49 0 00.1 1.51 21.41 21.41 0 01-.32-4.52 40.88 40.88 0 00.88 5.14c-.11-2.09-.51-5-.64-6.17l.55-.54c-.54-1.85.31-1.56-.23-3.33zm-.27-89.59a1.92 1.92 0 00-.09-.4c.06-.28.06.1.09.4zm-.92-10.89v-.41a1.82 1.82 0 010 .41zm-80.67 53.25c.73-.73.2-.52-.19-.36l1.73-1.48c-2.22 1.99.86.21-1.54 1.84zm5.63 93l-.34-.41c1.03-.23.97.28.34.45zm1.38-99.28c0-.11-1 .63-.17-.26.76-.48.64-.33.17.3zm25.61-24.78c.43-.35.89-.85.93-.68zm11.55-10l-.16-.36c.08.29.82-.28.16.41zm5 128a2.67 2.67 0 00.36-.14c.3.07-.07.07-.33.17zM167.76 77l.26-.31.8-.86zm24.18-22.28l.06-.09zm1.71 79.44l-.45.31c-.14-1.17.36-1.01.45-.31zm-.14 43.47a4 4 0 01.14-2.3c.06.47-.11 1.38-.14 2.3z" fill="#f3eacb"/>
          <path class="cls-2" d="M168.82 75.83L167.76 77l.26-.31.8-.86zM153.68 25.42v.53c.64.24.99-.14 0-.53zM121 8.16A3.24 3.24 0 00119.25 7c.75.46 1.35 1 1.75 1.16zM36.92 65.84l.44-.62-.92 1.06.48-.44z"/>
        </g>
        <path d="M35 97.14h15.72l5.37 16.26 5.38-16.26h10.19L77 113.4l5.4-16.26h15.78l-15.36 46.55H71.24l-4.68-14.1-4.67 14.1H50.3zM95 120.45a23.78 23.78 0 011.92-9.45 24.49 24.49 0 0113-13 24.41 24.41 0 0119 0 24.49 24.49 0 0113 13 24.41 24.41 0 010 19 24.43 24.43 0 01-13 13 24.41 24.41 0 01-19 0 24.43 24.43 0 01-13-13 23.78 23.78 0 01-1.92-9.55zm14.66 0a9.32 9.32 0 00.77 3.8 10 10 0 002.09 3.11 9.84 9.84 0 003.11 2.09 9.76 9.76 0 007.6 0 9.73 9.73 0 005.2-5.2 9.76 9.76 0 000-7.6 9.84 9.84 0 00-2.09-3.11 10 10 0 00-3.11-2.09 9.76 9.76 0 00-7.6 0 9.73 9.73 0 00-5.2 5.2 9.32 9.32 0 00-.77 3.8zM146.42 97.14h16.05a27.73 27.73 0 018.27 1.19 19.16 19.16 0 016.59 3.49 15.9 15.9 0 014.36 5.68 18.26 18.26 0 011.57 7.78 16.07 16.07 0 01-1 5.94 17.64 17.64 0 01-2.17 4 14.7 14.7 0 01-3.14 3.07l8.73 15.36h-17.42l-7-11.8v11.8h-14.84zM161.28 120h.77a8.07 8.07 0 004.5-1.19 5.2 5.2 0 000-8 8.16 8.16 0 00-4.5-1.19h-.77zM187.47 97.14H203v34.33h12.8v12.22h-28.33zM218.24 143.69V97.14h12.91a42.46 42.46 0 0111.69 1.47 23.36 23.36 0 018.66 4.39 19.1 19.1 0 015.37 7.29 28.41 28.41 0 010 20.17 19.06 19.06 0 01-5.37 7.3 23.87 23.87 0 01-8.66 4.43 41.66 41.66 0 01-11.69 1.5zm15-13.26q5.24 0 8.1-2.48c1.9-1.65 2.86-4.17 2.86-7.57s-1-5.91-2.86-7.54-4.61-2.44-8.1-2.44zM35 149.26h14.08a24.22 24.22 0 017.28 1 17 17 0 015.81 3.07 14 14 0 013.84 5 16.14 16.14 0 011.38 6.85 13.91 13.91 0 01-.86 5.22 16 16 0 01-1.9 3.57 13.34 13.34 0 01-2.77 2.7l7.68 13.52H54.18L48 179.86v10.38H35zm13 20.15h.67a7.19 7.19 0 004-1 4.57 4.57 0 000-7 7.18 7.18 0 00-4-1H48zM70.77 149.26h24.15V160H83.86v4.55h10.88v10.19H83.86v4.74h11.49v10.75H70.77zM99 149.26h24.15V160h-11.02v4.55H123v10.19h-10.87v15.49H99zM143.59 191.29a23.19 23.19 0 01-7-1 14.41 14.41 0 01-5.35-3 13 13 0 01-3.41-5 19.19 19.19 0 01-1.19-7.06v-25.97h13.08v25.49a5.24 5.24 0 00.89 3.29 4.48 4.48 0 006 0 5.24 5.24 0 00.89-3.29v-25.49h13.15v26.05a19 19 0 01-1.2 7.06 12.82 12.82 0 01-3.44 5 14.7 14.7 0 01-5.38 3 23.17 23.17 0 01-7.04.92zM190.19 163.2a7.54 7.54 0 00-2.76-1.5 10.76 10.76 0 00-3.26-.52 8 8 0 00-3.25.64 7.56 7.56 0 00-2.55 1.78 8 8 0 00-1.69 2.74 9.47 9.47 0 00-.62 3.44 8.76 8.76 0 00.68 3.44 8.17 8.17 0 001.84 2.73 8.67 8.67 0 002.74 1.79 8.87 8.87 0 003.34.64 8.17 8.17 0 003.81-.89 9 9 0 002.95-2.43h-3.68v-8.6h15.79v13.64a22.51 22.51 0 01-3.38 4.58 21.58 21.58 0 01-30.69.4 21.36 21.36 0 01-6.3-15.3 21.9 21.9 0 011.6-8.36 21.51 21.51 0 014.39-6.85 20.53 20.53 0 0114.9-6.3 22.63 22.63 0 0110.2 2.21 16 16 0 013.38 2.15zM206.36 149.26h24.14V160h-11.06v4.55h10.88v10.19h-10.88v4.74h11.49v10.75h-24.57zM234.14 149.26h24.15V160h-11.06v4.55h10.87v10.19h-10.87v4.74h11.49v10.75h-24.58zM35 238v-42h11.6a38.06 38.06 0 0110.54 1.33 21.09 21.09 0 017.81 4 17.08 17.08 0 014.85 6.58 25.63 25.63 0 010 18.2 17.15 17.15 0 01-4.8 6.49 21.43 21.43 0 01-7.81 4A37.27 37.27 0 0146.6 238zm13.41-12c3.15 0 5.58-.75 7.31-2.24s2.58-3.77 2.58-6.83-.87-5.33-2.58-6.8-4.16-2.2-7.31-2.2zM84.25 196h10.07l15.93 42H97l-1.38-3.78H82.93L81.54 238H68.32zm7.87 29l-2.83-7.37-2.84 7.37zM112.9 219.88L99.86 196h14.93l4.84 8.88 4.79-8.88h14.92l-13 23.93V238H112.9z"/>
        <path class="cls-7" d="M147.08 217.8a24.37 24.37 0 001.71-3.78 8.34 8.34 0 00.37-2.39 3.85 3.85 0 00-1.32-3.12 5.88 5.88 0 00-3.84-1.1h-.94c-.29 0-.57.06-.82.1a6.21 6.21 0 01-.82.06V196c.59-.12 1.11-.23 1.57-.31a13.45 13.45 0 011.36-.19l1.38-.1h1.67a27 27 0 015.95.66 16.11 16.11 0 015.26 2.18 11.62 11.62 0 013.78 4 12.22 12.22 0 011.44 6.17 15.24 15.24 0 01-.37 3.36 24.37 24.37 0 01-1.17 3.63c-.52 1.3-1.2 2.76-2 4.37l-2.87 5.64-.82 1.57h7.94l-3.59 11h-24.44zM199.34 217q0 10.71-4.47 16.37T182.41 239q-8 0-12.47-5.67T165.47 217q0-10.69 4.47-16.37t12.47-5.63q8 0 12.46 5.66t4.47 16.34zm-12.9 0q0-9.89-4-9.88t-4 9.88q0 9.89 4 9.89t4-9.89z"/>
        <path class="cls-7" d="M206.46 217.8a24.08 24.08 0 001.7-3.78 8.36 8.36 0 00.38-2.39 3.85 3.85 0 00-1.32-3.12 5.93 5.93 0 00-3.85-1.1h-.94c-.29 0-.57.06-.82.1a6.09 6.09 0 01-.82.06V196c.59-.12 1.12-.23 1.58-.31a13.27 13.27 0 011.35-.19l1.39-.1h1.67a26.9 26.9 0 015.94.66 15.93 15.93 0 015.26 2.18 11.62 11.62 0 013.78 4 12.22 12.22 0 011.45 6.17 15.25 15.25 0 01-.38 3.36 23.26 23.26 0 01-1.17 3.63q-.78 2-2 4.37l-2.86 5.64-.82 1.57h7.93l-3.59 11h-24.44zM258.72 217q0 10.71-4.47 16.37T241.78 239q-8 0-12.47-5.67T224.84 217q0-10.69 4.47-16.37t12.47-5.63q8 0 12.47 5.66t4.47 16.34zm-12.91 0q0-9.89-4-9.88t-4 9.88q0 9.89 4 9.89t4-9.89z"/>
      </g>
    </g>
  </g>
</svg>
