<?xml version="1.0" encoding="UTF-8"?>
<svg width="32px" height="20px" viewBox="0 0 32 20" version="1.1" xmlns="http://www.w3.org/2000/svg" xmlns:xlink="http://www.w3.org/1999/xlink">
    <!-- Generator: Sketch 53 (72520) - https://sketchapp.com -->
    <title>mastercard</title>
    <desc>Created with Sketch.</desc>
    <g id="Page-1" stroke="none" stroke-width="1" fill="none" fill-rule="evenodd">
        <g id="mastercard" fill-rule="nonzero">
            <path d="M29.6,2.02293374e-07 C28,3.53289176e-07 11.0601562,-3.20636746e-07 1.6,2.02293374e-07 C0.8,2.46515064e-07 0,0.800000202 0,1.6000002 L0,17.6000002 C-9.26e-08,19.2000002 0.8,20.0000002 2.4,20.0000002 C11.3246419,20.0000002 28,20.0000004 29.6,20.0000002 C31.2,20.0000002 32,19.2000002 32,17.6000002 L32,2.4000002 C32,0.800000202 31.2,2.02293374e-07 29.6,2.02293374e-07 Z" id="Rectangle-1" fill="#265697"></path>
            <path d="M29.909047,10.1 C29.9103624,14.7475531 26.1839194,18.5158547 21.585906,18.5170894 C16.9877987,18.5182291 13.2597584,14.7518268 13.2585369,10.1042737 L13.2585369,10.1 C13.2573154,5.4525419 16.9837584,1.68405028 21.5815838,1.68281564 C26.1796912,1.68158101 29.9078256,5.44817318 29.909047,10.0957263 L29.909047,10.1 C29.909047,10.1 29.909047,10.0984804 29.909047,10.1 L29.909047,10.1 L29.909047,10.1 Z" id="path2268" fill="#DFAC16"></path>
            <path d="M10.3625101,1.685 C5.79174496,1.71434637 2.09085906,5.47305586 2.09085906,10.1 C2.09085906,14.7449888 5.8205906,18.514905 10.4161611,18.514905 C12.5730067,18.514905 14.5390201,17.6840894 16.0184161,16.3223799 C16.0183221,16.3223799 16.0181342,16.3221899 16.0177584,16.322 L16.0195436,16.322 C16.3224698,16.0429721 16.6050067,15.7419106 16.8647114,15.420905 L15.1590604,15.420905 C14.931302,15.1428268 14.7243087,14.853067 14.5383624,14.554095 L17.4800537,14.554095 C17.658953,14.2647151 17.8209396,13.9642235 17.964698,13.653 L14.0526846,13.653 C13.9193557,13.364095 13.8035973,13.0686369 13.7047517,12.768905 L18.3130067,12.768905 C18.5907517,11.9301117 18.7414631,11.0327207 18.7414631,10.099905 C18.7414631,9.48144692 18.6751275,8.87846928 18.5495973,8.29790502 L13.4603624,8.29790502 C13.5234094,7.9991229 13.6029933,7.70394972 13.6978926,7.41390502 L18.3078389,7.41390502 C18.2047651,7.10524582 18.0850604,6.80446928 17.9489128,6.51290502 L14.0522148,6.51290502 C14.1927785,6.2093743 14.3520403,5.91410614 14.529906,5.629 L17.4694362,5.629 C17.2738121,5.31397766 17.0573289,5.01301118 16.8232752,4.72790502 L15.1843356,4.72790502 C15.437745,4.42646368 15.7167114,4.14259218 16.0195436,3.87790502 C14.5400537,2.51600558 12.5734765,1.685 10.4161611,1.685 C10.3982148,1.685 10.3804564,1.68490503 10.3625101,1.685 C10.3625101,1.685 10.3804564,1.68490503 10.3625101,1.685 L10.3625101,1.685 L10.3625101,1.685 Z" id="path1350" fill="#BF3126"></path>
            <g id="Group" transform="translate(2.880403, 7.926849)" fill="#FFFFFF">
                <path d="M10.5295034,4.3156257 L10.6404698,3.5540447 C10.5798658,3.5540447 10.490698,3.58025698 10.4120537,3.58025698 C10.1034899,3.58025698 10.0694765,3.41443576 10.0891141,3.29182682 L10.3383893,1.73789386 L10.8073423,1.73789386 L10.9205638,0.89549162 L10.4783893,0.89549162 L10.5684027,0.3716257 L9.68198658,0.3716257 C9.66244296,0.3913799 9.15872484,3.31794414 9.15872484,3.67427934 C9.15872484,4.20184916 9.45178524,4.43681006 9.86502014,4.43301118 C10.1886175,4.43025698 10.4406175,4.3397486 10.5295034,4.3156257 C10.5295034,4.3156257 10.4406175,4.3397486 10.5295034,4.3156257 L10.5295034,4.3156257 L10.5295034,4.3156257 Z" id="path4157"></path>
                <path d="M10.810349,2.86359776 C10.810349,4.12976536 11.6371946,4.43063688 12.3416107,4.43063688 C12.9918121,4.43063688 13.2779195,4.28371508 13.2779195,4.28371508 L13.4340805,3.41956424 C13.4340805,3.41956424 12.9394765,3.63980448 12.492792,3.63980448 C11.5409799,3.63980448 11.7076644,2.92248044 11.7076644,2.92248044 L13.5090604,2.92248044 C13.5090604,2.92248044 13.6253826,2.3419162 13.6253826,2.10534078 C13.6253826,1.51499442 13.3346711,0.79567598 12.3614362,0.79567598 C11.4701342,0.79586592 10.810349,1.76657542 10.810349,2.86359776 C10.810349,2.86359776 10.810349,1.76657542 10.810349,2.86359776 L10.810349,2.86359776 L10.810349,2.86359776 Z M12.3648188,1.59809498 C12.8650604,1.59809498 12.772792,2.16631286 12.772792,2.21227934 L11.7886577,2.21227934 C11.7886577,2.1535866 11.8816779,1.59809498 12.3648188,1.59809498 C12.3648188,1.59809498 11.8816779,1.59809498 12.3648188,1.59809498 L12.3648188,1.59809498 L12.3648188,1.59809498 Z" id="path4155"></path>
                <path d="M17.9779731,4.31524582 L18.1365771,3.3384581 C18.1365771,3.3384581 17.7016375,3.55888828 17.4031275,3.55888828 C16.774349,3.55888828 16.5221611,3.073581 16.5221611,2.55218436 C16.5221611,1.49448044 17.0631811,0.9125866 17.6654631,0.9125866 C18.1171275,0.9125866 18.4796241,1.1689162 18.4796241,1.1689162 L18.6243221,0.21986034 C18.6243221,0.21986034 18.0867785,0 17.6259999,0 C16.6026846,0 15.6071812,0.8972961 15.6071812,2.58248044 C15.6071812,3.69992178 16.1447248,4.43794972 17.2025235,4.43794972 C17.5015973,4.4380447 17.9779731,4.31524582 17.9779731,4.31524582 L17.9779731,4.31524582 L17.9779731,4.31524582 L17.9779731,4.31524582 Z" id="path4151"></path>
                <path d="M5.65421476,0.80963688 C5.04638926,0.80963688 4.58044296,1.0070838 4.58044296,1.0070838 L4.45181208,1.77892178 C4.45181208,1.77892178 4.83638926,1.62098324 5.41771812,1.62098324 C5.74779866,1.62098324 5.98927518,1.6584972 5.98927518,1.92964246 C5.98927518,2.09432402 5.95967786,2.15510614 5.95967786,2.15510614 C5.95967786,2.15510614 5.69931544,2.13307262 5.5787651,2.13307262 C4.81214766,2.13307262 4.0068188,2.46376536 4.0068188,3.46078212 C4.0068188,4.24639106 4.53515436,4.42664804 4.86260404,4.42664804 C5.488,4.42664804 5.75757048,4.01646368 5.77194632,4.01522906 L5.74272484,4.35760336 L6.52324832,4.35760336 L6.8714631,1.89013408 C6.8714631,0.84335196 5.96804028,0.80963688 5.65421476,0.80963688 L5.65421476,0.80963688 L5.65421476,0.80963688 L5.65421476,0.80963688 Z M5.84410738,2.81867598 C5.86102014,2.96939666 5.75061746,3.67589386 5.21692618,3.67589386 C4.94162416,3.67589386 4.87002686,3.46334638 4.87002686,3.33760336 C4.87002686,3.09238548 5.00185236,2.79797206 5.65139598,2.79797206 C5.80248322,2.79816202 5.8186443,2.8144972 5.84410738,2.81867598 C5.84410738,2.81867598 5.8186443,2.8144972 5.84410738,2.81867598 L5.84410738,2.81867598 L5.84410738,2.81867598 Z" id="path4149"></path>
                <path d="M7.70103356,4.40860336 C7.900698,4.40860336 9.0421208,4.45988828 9.0421208,3.2694134 C9.0421208,2.15643576 7.98554362,2.3762961 7.98554362,1.9291676 C7.98554362,1.70655308 8.15777182,1.63646368 8.47253692,1.63646368 C8.59750336,1.63646368 9.0782953,1.67663688 9.0782953,1.67663688 L9.19010738,0.88551956 C9.19010738,0.88561452 8.87891276,0.81514526 8.37228188,0.81514526 C7.71653692,0.81514526 7.05092618,1.07973744 7.05092618,1.98501118 C7.05092618,3.01080448 8.16077852,2.90785476 8.16077852,3.33997766 C8.16077852,3.62840782 7.85071142,3.65186592 7.61177182,3.65186592 C7.19825504,3.65186592 6.82589262,3.5084581 6.82457718,3.5152961 L6.70637584,4.29843576 C6.72779866,4.3050838 6.95743624,4.40860336 7.70103356,4.40860336 C7.70103356,4.40860336 6.95743624,4.40860336 7.70103356,4.40860336 L7.70103356,4.40860336 L7.70103356,4.40860336 Z" id="path4145"></path>
                <path d="M25.3204563,0.09972068 L25.1292483,1.29893296 C25.1292483,1.29893296 24.7955973,0.83309498 24.2732751,0.83309498 C23.4610873,0.83309498 22.7841073,1.82289386 22.7841073,2.96018436 C22.7841073,3.69431844 23.1451947,4.41363688 23.8833423,4.41363688 C24.4143087,4.41363688 24.7086845,4.03944692 24.7086845,4.03944692 L24.6696913,4.35902794 L25.5318657,4.35902794 L26.2090335,0.0982961 L25.3204563,0.09972068 L25.3204563,0.09972068 L25.3204563,0.09972068 L25.3204563,0.09972068 Z M24.9088187,2.43793296 C24.9088187,2.91117878 24.6770201,3.54331286 24.1964161,3.54331286 C23.8774229,3.54331286 23.7279329,3.27264246 23.7279329,2.8478324 C23.7279329,2.1532067 24.0365905,1.69487152 24.4260537,1.69487152 C24.7451409,1.69477654 24.9088187,1.91634638 24.9088187,2.43793296 C24.9088187,2.43793296 24.9088187,1.91634638 24.9088187,2.43793296 L24.9088187,2.43793296 L24.9088187,2.43793296 Z" id="path4139"></path>
                <polygon id="path4133" points="0.85465772 4.36273184 1.39426846 1.14602794 1.47347652 4.36273184 2.08421476 4.36273184 3.22347652 1.14602794 2.7188188 4.36273184 3.62628188 4.36273184 4.32515436 0.09630168 2.92186578 0.09630168 2.04794632 2.71401676 2.0024698 0.09630168 0.70892618 0.09630168 0 4.36273184 0.85465772 4.36273184 0.85465772 4.36273184"></polygon>
                <path d="M14.5118926,4.36862012 C14.769906,2.88553632 14.8177315,1.6812905 15.4334497,1.90172068 C15.5412215,1.3277095 15.6452349,1.1056648 15.7628725,0.86272626 C15.7628725,0.86272626 15.7077181,0.8510447 15.5919597,0.8510447 C15.1949799,0.8510447 14.9008859,1.39922346 14.9008859,1.39922346 L14.979906,0.89577654 L14.1545638,0.89577654 L13.6016107,4.36862012 L14.5118926,4.36862012 L14.5118926,4.36862012 L14.5118926,4.36862012 L14.5118926,4.36862012 Z" id="path4131"></path>
                <path d="M20.0233073,0.80963688 C19.4154819,0.80963688 18.9495355,1.0070838 18.9495355,1.0070838 L18.8209987,1.77892178 C18.8209987,1.77892178 19.2055759,1.62098324 19.7869047,1.62098324 C20.1169853,1.62098324 20.3582739,1.6584972 20.3582739,1.92964246 C20.3582739,2.09432402 20.3288645,2.15510614 20.3288645,2.15510614 C20.3288645,2.15510614 20.0685019,2.13307262 19.9478577,2.13307262 C19.1813343,2.13307262 18.3760053,2.46376536 18.3760053,3.46078212 C18.3760053,4.24639106 18.9042469,4.42664804 19.2316967,4.42664804 C19.8570927,4.42664804 20.1266631,4.01646368 20.1409449,4.01522906 L20.1119113,4.35760336 L20.8924349,4.35760336 L21.2405557,1.89013408 C21.2406497,0.84335196 20.3371329,0.80963688 20.0233073,0.80963688 L20.0233073,0.80963688 L20.0233073,0.80963688 L20.0233073,0.80963688 Z M20.2134819,2.81867598 C20.2303947,2.96939666 20.1198979,3.67589386 19.5860187,3.67589386 C19.3107167,3.67589386 19.2393073,3.46334638 19.2393073,3.33760336 C19.2393073,3.09238548 19.3711329,2.79797206 20.0205825,2.79797206 C20.1716697,2.79816202 20.1877369,2.8144972 20.2134819,2.81867598 C20.2134819,2.81867598 20.1877369,2.8144972 20.2134819,2.81867598 L20.2134819,2.81867598 L20.2134819,2.81867598 Z" id="path4149_1_"></path>
                <path d="M21.9539449,4.36862012 C22.2120523,2.88553632 22.2598779,1.6812905 22.8754081,1.90172068 C22.9833677,1.3277095 23.0874751,1.1056648 23.2050187,0.86272626 C23.2050187,0.86272626 23.1498645,0.8510447 23.0341061,0.8510447 C22.6371261,0.8510447 22.3430321,1.39922346 22.3430321,1.39922346 L22.4220523,0.89577654 L21.5967101,0.89577654 L21.0437571,4.36862012 L21.9539449,4.36862012 L21.9539449,4.36862012 L21.9539449,4.36862012 L21.9539449,4.36862012 Z" id="path4131_1_"></path>
            </g>
        </g>
    </g>
</svg>