<svg version="1.1" id="Layer_1" xmlns="http://www.w3.org/2000/svg" x="0" y="0" viewBox="0 0 62 62" xml:space="preserve"><style>.st0{fill:#fff}</style><path d="M31 61c16.5 0 30-13.5 30-30S47.5 1 31 1 1 14.5 1 31s13.5 30 30 30"/><path class="st0" d="M52.9 48.3V27.5L41.3 15.8h-26c-2.1 0-3.7 1.7-3.7 3.7V51c-5.2-5-8.5-12.1-8.5-20C3.1 15.6 15.6 3.1 31 3.1S58.9 15.6 58.9 31c0 6.5-2.3 12.6-6 17.3zM40.7 18.7l9.3 9.4h-7.8c-.8 0-1.5-.7-1.5-1.5v-7.9zM14.1 53.2V19.5c0-.7.6-1.2 1.2-1.2h22.8v8.3c0 2.2 1.8 4 4 4h8.2V51c-5 4.9-11.9 7.9-19.4 7.9-6.2 0-12.1-2.1-16.8-5.7zM31 0C13.9 0 0 13.9 0 31s13.9 31 31 31 31-13.9 31-31S48.1 0 31 0z"/><path class="st0" d="M17.4 23.7h10.1c.3 0 .6-.3.6-.6s-.3-.6-.6-.6H17.4c-.3 0-.6.3-.6.6-.1.3.2.6.6.6m0 16h10.1c.3 0 .6-.3.6-.6s-.3-.6-.6-.6H17.4c-.3 0-.6.3-.6.6-.1.3.2.6.6.6m29.2 2.7H17.4c-.3 0-.6.3-.6.6s.3.6.6.6h29.2c.3 0 .6-.3.6-.6 0-.4-.3-.6-.6-.6m-2.8 3.9H17.4c-.3 0-.6.3-.6.6s.3.6.6.6h26.5c.3 0 .6-.3.6-.6s-.3-.6-.7-.6M17.4 27.7h12.5c.3 0 .6-.3.6-.6s-.3-.6-.6-.6H17.4c-.3 0-.6.3-.6.6s.2.6.6.6m0 4.1h6.8c.3 0 .6-.3.6-.6s-.3-.6-.6-.6h-6.8c-.3 0-.6.3-.6.6-.1.3.2.6.6.6"/></svg>