<svg xmlns="http://www.w3.org/2000/svg" viewBox="0 0 100 100"><circle cx="50" cy="50" r="49"/><g fill="currentColor"><path d="M50 0C22.4 0 0 22.4 0 50s22.4 50 50 50 50-22.4 50-50S77.6 0 50 0zM22.8 85.8V31.5c0-1.1.9-2 2-2h36.8v13.4c0 3.5 2.9 6.4 6.4 6.4h13.2v33C73.1 90.2 62.1 95 50 95c-10.2 0-19.7-3.4-27.2-9.2zm42.8-55.6l14.9 15.2H68c-1.3 0-2.4-1.1-2.4-2.4V30.2zm19.6 47.7V44.4L66.6 25.5H24.8c-3.3 0-6 2.7-6 6v50.8C10.3 74.1 5 62.7 5 50 5 25.2 25.2 5 50 5s45 20.2 45 45c0 10.5-3.7 20.2-9.8 27.9z"/><path d="M28 38.3h16.3c.6 0 1-.4 1-1s-.4-1-1-1H28c-.6 0-1 .4-1 1 0 .5.4 1 1 1zM28 64h16.3c.6 0 1-.4 1-1s-.4-1-1-1H28c-.6 0-1 .4-1 1s.4 1 1 1zM75.2 68.3H28c-.6 0-1 .4-1 1s.4 1 1 1h47.2c.6 0 1-.4 1-1 0-.5-.5-1-1-1zM70.7 74.7H28c-.6 0-1 .4-1 1s.4 1 1 1h42.7c.6 0 1-.4 1-1s-.5-1-1-1zM28 44.8h20.2c.6 0 1-.4 1-1s-.4-1-1-1H28c-.6 0-1 .4-1 1 0 .5.4 1 1 1zM28 51.3h11c.6 0 1-.4 1-1s-.4-1-1-1H28c-.6 0-1 .4-1 1 0 .5.4 1 1 1z"/></g></svg>