<?xml version="1.0" encoding="utf-8"?>
<!-- Generator: Adobe Illustrator 21.0.0, SVG Export Plug-In . SVG Version: 6.00 Build 0)  -->
<svg version="1.1" id="Layer_1" xmlns="http://www.w3.org/2000/svg" xmlns:xlink="http://www.w3.org/1999/xlink" x="0px" y="0px"
	 viewBox="0 0 62 62" style="enable-background:new 0 0 62 62;" xml:space="preserve">
<style type="text/css">
	.st0{fill:#FFFFFF;}
</style>
<g>
	<path d="M31,61c16.5,0,30-13.5,30-30S47.5,1,31,1S1,14.5,1,31S14.5,61,31,61"/>
	<path class="st0" d="M52.9,48.3V27.5L41.3,15.8H15.3c-2.1,0-3.7,1.7-3.7,3.7V51C6.4,46,3.1,38.9,3.1,31C3.1,15.6,15.6,3.1,31,3.1
		S58.9,15.6,58.9,31C58.9,37.5,56.6,43.6,52.9,48.3L52.9,48.3z M40.7,18.7l9.3,9.4h-7.8c-0.8,0-1.5-0.7-1.5-1.5V18.7L40.7,18.7z
		 M14.1,53.2V19.5c0-0.7,0.6-1.2,1.2-1.2h22.8v8.3c0,2.2,1.8,4,4,4h8.2V51c-5,4.9-11.9,7.9-19.4,7.9C24.7,58.9,18.8,56.8,14.1,53.2
		L14.1,53.2z M31,0C13.9,0,0,13.9,0,31s13.9,31,31,31s31-13.9,31-31S48.1,0,31,0L31,0z"/>
	<path class="st0" d="M17.4,23.7h10.1c0.3,0,0.6-0.3,0.6-0.6c0-0.3-0.3-0.6-0.6-0.6H17.4c-0.3,0-0.6,0.3-0.6,0.6
		C16.7,23.4,17,23.7,17.4,23.7 M17.4,39.7h10.1c0.3,0,0.6-0.3,0.6-0.6c0-0.3-0.3-0.6-0.6-0.6H17.4c-0.3,0-0.6,0.3-0.6,0.6
		C16.7,39.4,17,39.7,17.4,39.7 M46.6,42.4H17.4c-0.3,0-0.6,0.3-0.6,0.6c0,0.3,0.3,0.6,0.6,0.6h29.2c0.3,0,0.6-0.3,0.6-0.6
		C47.2,42.6,46.9,42.4,46.6,42.4 M43.8,46.3H17.4c-0.3,0-0.6,0.3-0.6,0.6s0.3,0.6,0.6,0.6h26.5c0.3,0,0.6-0.3,0.6-0.6
		S44.2,46.3,43.8,46.3 M17.4,27.7h12.5c0.3,0,0.6-0.3,0.6-0.6s-0.3-0.6-0.6-0.6H17.4c-0.3,0-0.6,0.3-0.6,0.6S17,27.7,17.4,27.7
		 M17.4,31.8h6.8c0.3,0,0.6-0.3,0.6-0.6c0-0.3-0.3-0.6-0.6-0.6h-6.8c-0.3,0-0.6,0.3-0.6,0.6C16.7,31.5,17,31.8,17.4,31.8"/>
</g>
</svg>
