<?xml version="1.0" encoding="utf-8"?>
<!-- Generator: Adobe Illustrator 21.0.2, SVG Export Plug-In . SVG Version: 6.00 Build 0)  -->
<svg version="1.1" id="flat" xmlns="http://www.w3.org/2000/svg" xmlns:xlink="http://www.w3.org/1999/xlink" x="0px" y="0px"
	 viewBox="0 0 100 100" style="enable-background:new 0 0 100 100;" xml:space="preserve">
	<title>Apply</title>
	<circle cx="50" cy="50" r="49"/>
	<g fill="currentColor">
		<path d="M50,0C22.4,0,0,22.4,0,50s22.4,50,50,50s50-22.4,50-50S77.6,0,50,0z M22.8,85.8V31.5c0-1.1,0.9-2,2-2h36.8
			v13.4c0,3.5,2.9,6.4,6.4,6.4h13.2v33C73.1,90.2,62.1,95,50,95C39.8,95,30.3,91.6,22.8,85.8z M65.6,30.2l14.9,15.2H68
			c-1.3,0-2.4-1.1-2.4-2.4V30.2z M85.2,77.9V44.4L66.6,25.5H24.8c-3.3,0-6,2.7-6,6v50.8C10.3,74.1,5,62.7,5,50C5,25.2,25.2,5,50,5
			c24.8,0,45,20.2,45,45C95,60.5,91.3,70.2,85.2,77.9z"/>
		<path d="M28,38.3h16.3c0.6,0,1-0.4,1-1c0-0.6-0.4-1-1-1H28c-0.6,0-1,0.4-1,1C27,37.8,27.4,38.3,28,38.3z"/>
		<path d="M28,64h16.3c0.6,0,1-0.4,1-1c0-0.6-0.4-1-1-1H28c-0.6,0-1,0.4-1,1C27,63.6,27.4,64,28,64z"/>
		<path d="M75.2,68.3H28c-0.6,0-1,0.4-1,1c0,0.6,0.4,1,1,1h47.2c0.6,0,1-0.4,1-1C76.2,68.8,75.7,68.3,75.2,68.3z"/>
		<path d="M70.7,74.7H28c-0.6,0-1,0.4-1,1c0,0.6,0.4,1,1,1h42.7c0.6,0,1-0.4,1-1C71.7,75.1,71.2,74.7,70.7,74.7z"/>
		<path d="M28,44.8h20.2c0.6,0,1-0.4,1-1c0-0.6-0.4-1-1-1H28c-0.6,0-1,0.4-1,1C27,44.3,27.4,44.8,28,44.8z"/>
		<path d="M28,51.3h11c0.6,0,1-0.4,1-1c0-0.6-0.4-1-1-1H28c-0.6,0-1,0.4-1,1C27,50.8,27.4,51.3,28,51.3z"/>
	</g>
</svg>
