<svg xmlns="http://www.w3.org/2000/svg" width="75" height="75"><g fill-rule="evenodd"><path fill="#5E9C43" d="M20.671 54.756h33.266V25.723H20.671v29.033zm0-30.847h5.8v-2.42h-5.8v2.42zm8.824 0h15.77v-2.42h-15.77v2.42zm18.794 0h5.648v-2.42H48.29v2.42zm7.16-5.444h-7.16v-1.512a1.512 1.512 0 10-3.024 0v1.512h-15.77v-1.512a1.512 1.512 0 10-3.024 0v1.512H19.16c-.835 0-1.512.677-1.512 1.512v36.29c0 .836.677 1.513 1.512 1.513h36.29c.836 0 1.513-.677 1.513-1.512v-36.29c0-.836-.677-1.513-1.513-1.513z"/><path fill="#5E9C43" d="M29.054 40.241l-2.583 2.584 6.258 6.256 15.8-15.616-2.584-2.583-13.216 13.033-3.675-3.674"/><path fill="#D9E1DE" d="M37.573 75h-.15C17.223 74.96.722 58.867.023 38.826v-2.648C.723 16.112 17.265.004 37.498.004c20.677 0 37.498 16.821 37.498 37.498 0 20.651-16.78 37.457-37.423 37.498m-.075-71.15c-18.556 0-33.652 15.096-33.652 33.652s15.096 33.652 33.652 33.652S71.15 56.058 71.15 37.502 56.054 3.85 37.498 3.85"/></g></svg>