<?xml version="1.0" encoding="UTF-8" standalone="no"?>
<svg width="124px" height="124px" viewBox="0 0 124 124" version="1.1" xmlns="http://www.w3.org/2000/svg" xmlns:xlink="http://www.w3.org/1999/xlink" xmlns:sketch="http://www.bohemiancoding.com/sketch/ns">
    <!-- Generator: Sketch 3.3.3 (12081) - http://www.bohemiancoding.com/sketch -->
    <title>boundaries</title>
    <desc>Created with Sketch.</desc>
    <defs></defs>
    <g id="Page-1" stroke-width="1" sketch:type="MSPage">
        <g id="boundaries" sketch:type="MSLayerGroup" fill-rule="evenodd">
            <path fill="#5E9C43" d="M61.997,6.314 C31.318,6.314 6.359,31.075 6.359,61.511 C6.359,91.946 31.318,116.707 61.997,116.707 C92.676,116.707 117.635,91.946 117.635,61.511 C117.635,31.075 92.676,6.314 61.997,6.314 L61.997,6.314 L61.997,6.314 Z M61.997,123.016 C27.812,123.016 0,95.425 0,61.511 C0,27.597 27.812,0.006 61.997,0.006 C96.182,0.006 123.994,27.597 123.994,61.511 C123.994,95.425 96.182,123.016 61.997,123.016 L61.997,123.016 L61.997,123.016 Z" sketch:type="MSShapeGroup"></path>
            <path fill="#5E9C43" d="M89.6430974,43.0750564 L95.0940103,48.5259692 L95.0921026,29.3835487 L75.9490462,29.3810051 L81.4012308,34.8325538 L61.9968205,54.2356923 L42.5936821,34.8325538 L48.0445949,29.3810051 L28.9021744,29.3835487 L28.8996308,48.5266051 L34.3505436,43.0750564 L53.7543179,62.4781949 L34.3505436,81.8819692 L28.8996308,76.4310564 L28.9021744,95.5734769 L48.0445949,95.5760205 L42.5936821,90.1244718 L61.9968205,70.7213333 L81.4012308,90.1244718 L75.9490462,95.5760205 L95.0921026,95.5734769 L95.0946462,76.4304205 L89.6430974,81.8819692 L70.2393231,62.4788308 L89.6430974,43.0750564" sketch:type="MSShapeGroup"></path>
        </g>
    </g>
</svg>
