<svg width="124" height="124" xmlns="http://www.w3.org/2000/svg"><g fill-rule="evenodd"><path d="M61.997 6.314c-30.679 0-55.638 24.761-55.638 55.197 0 30.435 24.959 55.196 55.638 55.196s55.638-24.761 55.638-55.196c0-30.436-24.959-55.197-55.638-55.197zm0 116.702C27.812 123.016 0 95.425 0 61.511S27.812.006 61.997.006s61.997 27.591 61.997 61.505-27.812 61.505-61.997 61.505z"/><path d="M89.643 43.075l5.451 5.451-.002-19.142-19.143-.003 5.452 5.452-19.404 19.403-19.403-19.403 5.45-5.452-19.142.003-.002 19.143 5.45-5.452 19.404 19.403-19.403 19.404-5.451-5.45.002 19.141 19.143.003-5.451-5.452 19.403-19.403L81.4 90.124l-5.452 5.452 19.143-.003.003-19.143-5.452 5.452L70.24 62.479l19.404-19.404" fill="currentColor"/></g></svg>