<svg width="18" height="18" xmlns="http://www.w3.org/2000/svg"><g fill-rule="evenodd"><path d="M16.804 8.59A7.922 7.922 0 009.41 1.197v1.489a.5.5 0 01-1 0v-1.49A7.921 7.921 0 001.016 8.59h1.47a.5.5 0 110 1h-1.47a7.921 7.921 0 007.394 7.394v-1.496a.5.5 0 111 0v1.496a7.922 7.922 0 007.394-7.394h-1.473a.499.499 0 110-1h1.473zM8.91 18C3.997 18 0 14.003 0 9.09 0 4.178 3.997.181 8.91.181s8.91 3.997 8.91 8.909c0 4.913-3.997 8.91-8.91 8.91z"/><path d="M7.724 7.926l-1.919 4.291 4.291-1.919 1.919-4.291-4.291 1.919zm-2.91 5.782a.504.504 0 01-.354-.146.503.503 0 01-.103-.558l2.532-5.66a.501.501 0 01.252-.253l5.661-2.531a.501.501 0 01.66.661l-2.531 5.66a.501.501 0 01-.253.252l-5.66 2.531a.503.503 0 01-.204.044z"/><path d="M8.16 9.112a.75.75 0 101.5 0 .75.75 0 00-1.5 0"/></g></svg>