<svg width="62" height="62" xmlns="http://www.w3.org/2000/svg"><g fill-rule="evenodd"><path d="M31.056 59.706c15.904 0 28.842-12.939 28.842-28.843S46.96 2.021 31.056 2.021c-15.904 0-28.843 12.938-28.843 28.842 0 15.904 12.939 28.843 28.843 28.843"/><path d="M31.056 59.706c15.904 0 28.842-12.939 28.842-28.843S46.96 2.021 31.056 2.021c-15.904 0-28.843 12.938-28.843 28.842 0 15.904 12.939 28.843 28.843 28.843h0z" stroke="currentColor" stroke-width="3"/><path d="M31.018 21.01c-2.292-.015-4.115-1.851-4.098-4.128.017-2.244 1.926-4.112 4.172-4.084 2.265.028 4.12 1.91 4.099 4.157-.021 2.275-1.868 4.07-4.173 4.055M31.056 21.993c-.16 0-3.95.047-5.539 4.11-1.81 4.627-.663 16.799 5.539 23.45 6.201-6.651 7.349-18.823 5.539-23.45-1.59-4.063-5.379-4.11-5.54-4.11M44.453 24.106a3.022 3.022 0 01-3.024-3.045c.013-1.656 1.42-3.034 3.078-3.013 1.671.02 3.04 1.408 3.024 3.067-.015 1.678-1.378 3.002-3.078 2.991M44.48 25.063c-.118 0-2.913.035-4.086 3.032-1.336 3.414-.489 12.395 4.087 17.301 4.575-4.906 5.422-13.887 4.086-17.3-1.173-2.998-3.968-3.033-4.087-3.033M17.604 24.106a3.022 3.022 0 01-3.024-3.045c.012-1.656 1.42-3.034 3.078-3.013 1.67.02 3.039 1.408 3.024 3.067-.016 1.678-1.378 3.002-3.078 2.991M17.63 25.063c-.117 0-2.912.035-4.086 3.032-1.335 3.414-.488 12.395 4.087 17.301 4.575-4.906 5.422-13.887 4.086-17.3-1.173-2.998-3.968-3.033-4.086-3.033" fill="currentColor"/></g></svg>