<?xml version="1.0" encoding="UTF-8" standalone="no"?>
<svg width="62px" height="62px" viewBox="0 0 62 62" version="1.1" xmlns="http://www.w3.org/2000/svg" xmlns:xlink="http://www.w3.org/1999/xlink" xmlns:sketch="http://www.bohemiancoding.com/sketch/ns">
    <!-- Generator: Sketch 3.3.3 (12081) - http://www.bohemiancoding.com/sketch -->
    <title>icon-choose</title>
    <desc>Created with Sketch.</desc>
    <defs></defs>
    <g id="Page-1" stroke-width="1" fill-rule="evenodd" sketch:type="MSPage">
        <g id="icon-choose" sketch:type="MSLayerGroup" transform="translate(2.000000, 2.000000)">
            <path d="M29.0558172,57.7056344 C44.9596667,57.7056344 57.8983441,44.766957 57.8983441,28.8631075 C57.8983441,12.9592581 44.9596667,0.0205806452 29.0558172,0.0205806452 C13.1516559,0.0205806452 0.212978495,12.9592581 0.212978495,28.8631075 C0.212978495,44.766957 13.1516559,57.7056344 29.0558172,57.7056344" id="Fill-1" sketch:type="MSShapeGroup"></path>
            <path d="M29.0558172,57.7056344 C44.9596667,57.7056344 57.8983441,44.766957 57.8983441,28.8631075 C57.8983441,12.9592581 44.9596667,0.0205806452 29.0558172,0.0205806452 C13.1516559,0.0205806452 0.212978495,12.9592581 0.212978495,28.8631075 C0.212978495,44.766957 13.1516559,57.7056344 29.0558172,57.7056344 L29.0558172,57.7056344 Z" id="Stroke-2" stroke="currentColor" stroke-width="3" sketch:type="MSShapeGroup"></path>
            <path d="M29.0183978,19.0099677 C26.7264624,18.9953118 24.9028925,17.1586452 24.920043,14.8819892 C24.9371935,12.6377634 26.8455806,10.7696022 29.0923011,10.7979785 C31.3567957,10.8263548 33.2115484,12.7076129 33.1906559,14.9552688 C33.1697634,17.2297419 31.3228065,19.0249355 29.0183978,19.0099677" id="Fill-3" fill="currentColor" sketch:type="MSShapeGroup"></path>
            <path d="M29.0555054,19.9934731 C28.8952258,19.9934731 25.106828,20.0402473 23.517129,24.1027419 C21.7063441,28.7296452 22.8541828,40.9018495 29.0558172,47.5522043 C35.2571398,40.9018495 36.4049785,28.7296452 34.5945054,24.1027419 C33.0044946,20.0402473 29.2160968,19.9934731 29.0555054,19.9934731" id="Fill-4" fill="currentColor" sketch:type="MSShapeGroup"></path>
            <path d="M42.4531935,22.1064194 C40.7621505,22.0955054 39.4166129,20.7403011 39.4293978,19.0607957 C39.441871,17.4049892 40.8497742,16.0267097 42.5074516,16.0476022 C44.1782258,16.0684946 45.5465269,17.4564409 45.5312473,19.1150538 C45.5159677,20.793 44.1532796,22.1173333 42.4531935,22.1064194" id="Fill-5" fill="currentColor" sketch:type="MSShapeGroup"></path>
            <path d="M42.4803226,23.0634194 C42.3621398,23.0634194 39.5672258,23.0977204 38.394129,26.0953226 C37.0582581,29.5089032 37.9051828,38.4895484 42.4806344,43.3961613 C47.056086,38.4895484 47.9026989,29.5089032 46.566828,26.0953226 C45.394043,23.0977204 42.5988172,23.0634194 42.4803226,23.0634194" id="Fill-6" fill="currentColor" sketch:type="MSShapeGroup"></path>
            <path d="M15.6035591,22.1064194 C13.9125161,22.0955054 12.5669785,20.7403011 12.5797634,19.0607957 C12.5922366,17.4049892 14.0001398,16.0267097 15.6578172,16.0476022 C17.3285914,16.0684946 18.6968925,17.4564409 18.6816129,19.1150538 C18.6663333,20.793 17.3036452,22.1173333 15.6035591,22.1064194" id="Fill-7" fill="currentColor" sketch:type="MSShapeGroup"></path>
            <path d="M15.6306882,23.0634194 C15.5125054,23.0634194 12.7175914,23.0977204 11.5444946,26.0953226 C10.2086237,29.5089032 11.0555484,38.4895484 15.631,43.3961613 C20.2064516,38.4895484 21.0530645,29.5089032 19.7171935,26.0953226 C18.5444086,23.0977204 15.7491828,23.0634194 15.6306882,23.0634194" id="Fill-8" fill="currentColor" sketch:type="MSShapeGroup"></path>
        </g>
    </g>
</svg>