<svg xmlns="http://www.w3.org/2000/svg" width="61" height="56" viewBox="0 0 61 56" xmlns:xlink="http://www.w3.org/1999/xlink">
  <defs>
    <polygon id="a" points="29.48 22.76 29.48 .498 .267 .498 .267 22.76 29.48 22.76"/>
  </defs>
  <g fill="none" fill-rule="evenodd">
    <polygon fill="#FFFFFF" points="19.874 13.662 12.979 15.379 12.979 14.21 19.874 12.492"/>
    <polygon fill="#FFFFFF" points="19.874 16.512 12.979 18.231 12.979 17.062 19.874 15.344"/>
    <polygon fill="#FFFFFF" points="19.874 19.364 12.979 21.082 12.979 19.913 19.874 18.195"/>
    <polygon fill="#FFFFFF" points="19.874 22.216 12.979 23.934 12.979 22.764 19.874 21.047"/>
    <polygon fill="#FFFFFF" points="19.874 25.067 12.979 26.785 12.979 25.616 19.874 23.898"/>
    <polygon fill="#FFFFFF" points="19.874 27.919 12.979 29.636 12.979 28.468 19.874 26.749"/>
    <polygon fill="#FFFFFF" points="19.874 30.77 12.979 32.487 12.979 31.319 19.874 29.6"/>
    <polygon fill="#FFFFFF" points="19.874 33.622 12.979 35.339 12.979 34.171 19.874 32.451"/>
    <polygon fill="#FFFFFF" points="19.874 36.473 12.979 38.19 12.979 37.022 19.874 35.303"/>
    <polygon fill="#236133" points="11.532 13.873 18.854 17.153 18.854 51.317 4.635 51.317 4.635 17.047"/>
    <polygon fill="#63A541" points="11.461 51.316 4.553 51.316 4.553 17.047 11.45 13.873"/>
    <polygon fill="#FFFFFF" points="10.553 19.497 5.46 21.402 5.46 20.538 10.553 18.633"/>
    <polygon fill="#FFFFFF" points="10.553 22.441 5.46 24.345 5.46 23.481 10.553 21.577"/>
    <polygon fill="#FFFFFF" points="10.45 25.712 5.356 27.392 5.356 26.528 10.45 24.848"/>
    <polygon fill="#FFFFFF" points="10.553 28.742 5.46 30.233 5.46 29.369 10.553 27.878"/>
    <polygon fill="#FFFFFF" points="10.553 31.907 5.46 33.177 5.46 32.313 10.553 31.044"/>
    <polygon fill="#FFFFFF" points="10.553 35.544 5.46 36.813 5.46 35.949 10.553 34.68"/>
    <polygon fill="#FFFFFF" points="10.553 39.205 5.46 40.31 5.46 39.446 10.553 38.341"/>
    <polygon fill="#236133" points="0 55.377 42.306 55.377 42.306 52.977 0 52.977"/>
    <polygon fill="#236133" points="27.408 .8 37.286 5.224 37.286 51.317 18.102 51.317 18.102 5.082"/>
    <polygon fill="#63A541" points="27.313 51.316 17.991 51.316 17.991 5.081 27.296 .8"/>
    <polygon fill="#FFFFFF" points="25.948 8.246 19.053 10.824 19.053 9.654 25.948 7.076"/>
    <polygon fill="#FFFFFF" points="25.948 12.231 19.053 14.808 19.053 13.638 25.948 11.061"/>
    <polygon fill="#FFFFFF" points="25.808 16.659 18.913 18.931 18.913 17.763 25.808 15.489"/>
    <polygon fill="#FFFFFF" points="25.948 20.759 19.053 22.777 19.053 21.608 25.948 19.59"/>
    <polygon fill="#FFFFFF" points="25.948 25.044 19.053 26.762 19.053 25.593 25.948 23.875"/>
    <polygon fill="#FFFFFF" points="25.948 29.967 19.053 31.684 19.053 30.516 25.948 28.797"/>
    <polygon fill="#FFFFFF" points="25.948 34.922 19.053 36.418 19.053 35.248 25.948 33.752"/>
    <polygon fill="#FFFFFF" points="24.331 51.89 20.346 52.319 20.346 47.879 24.331 47.451"/>
    <g transform="translate(31.303 15.377)">
      <path fill="#63A541" d="M6.41398947,22.36016 C4.19952895,22.36016 2.31735789,20.70976 2.03563421,18.52016 L0.704871053,8.19536 C0.395055263,5.78896 2.10706842,3.58016 4.52138421,3.27136 L22.7716211,0.93456 C22.9594368,0.90976 23.1472526,0.89856 23.3318579,0.89856 C25.5479237,0.89856 27.4308974,2.54896 27.7118184,4.73856 L29.0425816,15.06336 C29.1926737,16.22416 28.8764368,17.37696 28.1548711,18.30976 C27.4325026,19.24336 26.3930947,19.83856 25.2268711,19.98736 L6.97583158,22.32416 C6.78721316,22.34816 6.6002,22.36016 6.41479211,22.36016 L6.41398947,22.36016 Z"/>
      <mask id="b" fill="white">
        <use xlink:href="#a"/>
      </mask>
      <path fill="#FFFFFF" d="M23.3319382,0.4984 C23.1288724,0.4984 22.9225961,0.512 22.7203329,0.5376 L4.47009605,2.8744 C1.83666184,3.212 -0.0302592105,5.6216 0.306043421,8.2464 L1.63760921,18.5712 C1.94501711,20.9592 3.99814868,22.76 6.41406974,22.76 C6.61793816,22.76 6.82501711,22.7472 7.02728026,22.7208 L25.2791224,20.384 C26.5496882,20.2216 27.6838066,19.572 28.4719908,18.5544 C29.260175,17.5376 29.6037013,16.28 29.4407671,15.012 L28.1100039,4.6872 C27.8025961,2.2992 25.7494645,0.4984 23.3319382,0.4984 M23.3319382,1.2984 C25.3176487,1.2984 27.0553461,2.7784 27.3137934,4.7888 L28.6445566,15.1144 C28.9262803,17.296 27.3651618,19.3112 25.1763855,19.5904 L6.92534605,21.9272 C6.75358289,21.9488 6.583425,21.96 6.41406974,21.96 C4.42996447,21.96 2.69226711,20.4808 2.43381974,18.4696 L1.10305658,8.1448 C0.822135526,5.9624 2.38245132,3.9488 4.57203026,3.668 L22.8222671,1.3312 C22.9932276,1.3096 23.1641882,1.2984 23.3319382,1.2984" mask="url(#b)"/>
      <path fill="#FFFFFF" d="M15.0101737,13.52816 C15.0888316,14.14256 16.2382,17.50496 20.6165553,16.94416 L20.9681079,16.89856 C20.88945,16.28496 19.7416868,12.92256 15.3617263,13.48256 L15.0101737,13.52816 Z M15.2188579,12.37376 C19.2809763,11.85296 19.7954632,8.34816 19.7208184,7.77056 L19.3684632,7.81456 C15.3071474,8.33536 14.7926605,11.84096 14.8665026,12.41776 L15.2188579,12.37376 Z M12.9056737,5.83216 L10.3725684,6.15696 L11.9063974,18.05856 L14.4395026,17.73536 L12.9056737,5.83216 Z"/>
    </g>
  </g>
</svg>
