<?xml version="1.0" encoding="utf-8"?>
<!-- Generator: Adobe Illustrator 15.1.0, SVG Export Plug-In  -->
<!DOCTYPE svg PUBLIC "-//W3C//DTD SVG 1.1//EN" "http://www.w3.org/Graphics/SVG/1.1/DTD/svg11.dtd" [
	<!ENTITY ns_flows "http://ns.adobe.com/Flows/1.0/">
]>
<svg version="1.1"
	 xmlns="http://www.w3.org/2000/svg" xmlns:xlink="http://www.w3.org/1999/xlink" xmlns:a="http://ns.adobe.com/AdobeSVGViewerExtensions/3.0/"
	 x="0px" y="0px" width="76px" height="70px" viewBox="0 0 76 70" overflow="visible" enable-background="new 0 0 76 70"
	 xml:space="preserve">
<defs>
</defs>
<path fill="#63A544" d="M54.074,0C47.724,0,42.004,2.831,38,7.353c-0.014-0.016,0.014,0.015,0,0
	c-0.727,0.979-1.417,2.034-1.959,3.28c-0.454,1.102-0.815,2.206-1.097,3.302c-0.087,0.36-0.182,0.712-0.255,1.093
	c-0.008,0.032-0.015,0.065-0.022,0.098c-0.129,0.682-0.274,1.389-0.354,2.132c-1.066,8.494,1.987,15.656,1.987,15.656
	c-0.823-15.983,3.184-21.5,3.184-21.5l5.289,5.062c13.228,12.658,0.377,26.087,0.377,26.087l-7.711,8.06l-7.936-7.596
	c-13.228-12.658-0.376-26.088-0.376-26.088l3.93-4.106c0.711-2.866,1.757-5.306,3.077-7.345C32.306,2.068,27.348,0,21.926,0
	C9.816,0,0,10.288,0,22.981c0,3.411,0.575,6.693,1.582,9.826c0,0,0.913,2.827,1.721,4.385C12.545,57.093,38,70,38,70
	s25.455-12.907,34.697-32.808c0,0,1.191-2.651,1.721-4.385C75.381,29.659,76,26.393,76,22.981C76,10.288,66.184,0,54.074,0z"/>
</svg>
