<svg xmlns="http://www.w3.org/2000/svg" width="46" height="31"><path fill="#5E9C43" d="M16.886 16.475l4.82 4.07a1.507 1.507 0 001.951 0l4.732-3.995 11.67 11.063H5.132l11.753-11.138zM14.56 14.51L3.024 25.446V4.768l11.537 9.743zM42.34 4.77v20.84L30.713 14.585 42.34 4.77zM22.68 17.41L5.646 3.024h34.07L22.681 17.41zm22.595 12.2l.029-.09a1.51 1.51 0 00.058-.395V1.512l-.008-.076-.016-.16-.029-.139-.044-.142-.059-.139-.066-.123L45.048.6l-.042-.063-.043-.04-.117-.115-.105-.086-.131-.083-.121-.067-.143-.055-.134-.042-.146-.026-.152-.015L43.851 0H1.512l-.059.006a1.493 1.493 0 00-.163.016l-.135.025-.144.045-.134.052-.128.07-.125.08-.108.089L.4.495.357.536.314.6.223.733.155.856.097.995l-.044.142-.029.14-.016.159L0 1.512v27.45l.01.067-.01.096c0 .836.677 1.512 1.512 1.512h42.34a1.494 1.494 0 00.593-.122h.003l.008-.006a1.47 1.47 0 00.326-.2l.073-.06a1.53 1.53 0 00.254-.287l.014-.026c.065-.1.114-.21.153-.326z"/></svg>