<svg xmlns="http://www.w3.org/2000/svg" width="46" height="31" viewBox="0 0 46 31">
  <path fill="#5E9C43" d="M16.8858871,205.474597 L21.7058468,209.545161 C21.9877016,209.783468 22.3342742,209.902016 22.6814516,209.902016 C23.028629,209.902016 23.3752016,209.783468 23.6570565,209.545161 L28.3893145,205.549597 L40.0584677,216.613306 L5.13326613,216.613306 L16.8858871,205.474597 Z M14.5614919,203.51129 L3.02419355,214.445565 L3.02419355,193.767944 L14.5614919,203.51129 Z M42.3387097,193.768548 L42.3387097,214.608266 L30.7131048,203.58629 L42.3387097,193.768548 Z M22.6814516,206.410282 L5.64616935,192.024194 L39.716129,192.024194 L22.6814516,206.410282 Z M45.2764113,218.610484 L45.3048387,218.519153 C45.3387097,218.392742 45.3629032,218.262702 45.3629032,218.125403 L45.3629032,190.512097 L45.3550403,190.436492 L45.3393145,190.275605 L45.3102823,190.137097 L45.266129,189.99496 L45.2074597,189.856452 L45.1409274,189.733065 L45.0483871,189.599395 L45.0060484,189.536492 L44.9631048,189.495363 L44.8457661,189.381048 L44.7405242,189.294556 L44.609879,189.211694 L44.4889113,189.145161 L44.3455645,189.090121 L44.2118952,189.048387 L44.0655242,189.021774 L43.9143145,189.006653 L43.8508065,189 L1.51209677,189 L1.45342742,189.006048 C1.39899194,189.007863 1.34455645,189.014516 1.29012097,189.022379 L1.15524194,189.047177 L1.01129032,189.091935 L0.877016129,189.143952 L0.748790323,189.213508 L0.624193548,189.293952 L0.515927419,189.382863 L0.400403226,189.494758 L0.356854839,189.536492 L0.31391129,189.599395 L0.222580645,189.733065 L0.155443548,189.856452 L0.0967741935,189.99496 L0.0526209677,190.137097 L0.0241935484,190.27621 L0.00786290323,190.435887 L0,190.512097 L0,217.962702 L0.00967741935,218.028629 L0,218.125403 C0,218.960685 0.676814516,219.6375 1.51209677,219.6375 L43.8514113,219.6375 C43.9524194,219.6375 44.0534274,219.627823 44.1532258,219.607258 C44.2548387,219.586694 44.3522177,219.555847 44.4453629,219.515323 L44.4477823,219.514718 L44.45625,219.509274 C44.5741935,219.458468 44.6818548,219.387702 44.7822581,219.308468 L44.8548387,219.248589 C44.9504032,219.162702 45.0381048,219.068952 45.1094758,218.961895 L45.1233871,218.936492 C45.1881048,218.835484 45.2370968,218.726008 45.2764113,218.610484 L45.2764113,218.610484 Z" transform="translate(0 -189)"/>
</svg>
