<svg width="46" height="46" xmlns="http://www.w3.org/2000/svg"><g fill-rule="evenodd"><circle stroke="currentColor" cx="22.799" cy="22.552" r="22"/><path d="M30.742 9.768H14.856c-2.24 0-4.056 1.934-4.056 4.32v16.928c0 2.387 1.816 4.321 4.056 4.321h7.78V24.922H20.07v-3.515h2.565v-2.812c0-.514-.097-3.956 4.036-3.956h3.062v3.58h-2.29c-.425 0-.854.473-.854.824v2.35h2.995c-.12 1.803-.367 3.53-.367 3.53h-2.643v10.414h4.168c2.24 0 4.056-1.934 4.056-4.32V14.088c0-2.387-1.816-4.321-4.056-4.321" fill="currentColor"/></g></svg>