<svg width="20" height="18" xmlns="http://www.w3.org/2000/svg"><g fill="#90918D" fill-rule="evenodd"><path d="M5.753 4.796a1.81 1.81 0 01-1.807-1.807 1.81 1.81 0 011.807-1.808 1.81 1.81 0 011.809 1.808 1.81 1.81 0 01-1.809 1.807zM19.5 2.489H8.511A2.808 2.808 0 005.753.181c-1.377 0-2.52.998-2.757 2.308H.5a.5.5 0 100 1h2.496a2.807 2.807 0 002.757 2.307 2.809 2.809 0 002.758-2.307H19.5a.5.5 0 000-1zM14.831 10.92a1.81 1.81 0 01-1.808-1.808 1.81 1.81 0 011.808-1.807 1.81 1.81 0 011.808 1.807 1.81 1.81 0 01-1.808 1.808zM19.5 8.612h-1.912a2.807 2.807 0 00-2.757-2.307c-1.377 0-2.52.998-2.757 2.307H.5a.5.5 0 000 1h11.574a2.807 2.807 0 002.757 2.308c1.377 0 2.52-.998 2.757-2.308H19.5a.5.5 0 100-1zM9.215 17a1.81 1.81 0 01-1.807-1.808c0-.997.811-1.807 1.807-1.807.997 0 1.808.81 1.808 1.807A1.81 1.81 0 019.215 17zM19.5 14.692h-7.527a2.81 2.81 0 00-2.758-2.307c-1.377 0-2.52.998-2.757 2.307H.5a.5.5 0 000 1h5.958A2.807 2.807 0 009.215 18a2.81 2.81 0 002.758-2.308H19.5a.5.5 0 100-1z"/></g></svg>