<?xml version="1.0" encoding="utf-8"?>
<!-- Generator: Adobe Illustrator 21.0.2, SVG Export Plug-In . SVG Version: 6.00 Build 0)  -->
<svg version="1.1" id="_x31_" xmlns="http://www.w3.org/2000/svg" xmlns:xlink="http://www.w3.org/1999/xlink" x="0px" y="0px"
	 viewBox="0 0 100 100" style="enable-background:new 0 0 100 100;" xml:space="preserve">
	<title>Fundraise</title>
	<circle cx="50" cy="50" r="49"/>
	<g fill="currentColor">
		<path d="M50,5c24.8,0,45,20.2,45,45S74.8,95,50,95C25.2,95,5,74.8,5,50S25.2,5,50,5 M50,0C22.4,0,0,22.4,0,50
			s22.4,50,50,50c27.6,0,50-22.4,50-50S77.6,0,50,0L50,0z"/>
		<circle cx="58.3" cy="39.9" r="2.5"/>
		<circle cx="65.2" cy="39.9" r="2.5"/>
		<path d="M24,23v9.8h52V23H24z M42.3,28.3c-0.8,0-1.5-0.7-1.5-1.5s0.7-1.5,1.5-1.5c0.8,0,1.5,0.7,1.5,1.5
			S43.1,28.3,42.3,28.3z M59.2,28.3h-12c-0.8,0-1.5-0.7-1.5-1.5s0.7-1.5,1.5-1.5h12c0.8,0,1.5,0.7,1.5,1.5S60,28.3,59.2,28.3z"/>
		<rect x="29.5" y="37.4" width="2.1" height="9.7"/>
		<path d="M32.3,43.1c3.3,0,4.1-2.8,4.1-3.2h-0.3c-3.3,0-4.1,2.8-4.1,3.2H32.3z"/>
		<path d="M32,43.7c0,0.5,0.6,3.3,4.1,3.3h0.3c0-0.5-0.6-3.3-4.1-3.3H32z"/>
	</g>
	<g fill="none" stroke="currentColor">
		<g stroke-width="2">
			<circle cx="49.8" cy="70.2" r="19.8"/>
			<circle cx="49.8" cy="64.8" r="6"/>
			<path d="M64.9,83.1c-1.4-7.1-7.6-12.4-15.1-12.4c-7.5,0-13.7,5.3-15.1,12.4"/>
		</g>
		<path stroke-width="4" d="M24,89.9V27c0-2.2,1.5-4,3.3-4h45.3c1.8,0,3.3,1.8,3.3,4v62.9"/>
	</g>
</svg>
