<svg xmlns="http://www.w3.org/2000/svg" viewBox="0 0 100 100"><circle cx="50" cy="50" r="49"/><g fill="currentColor"><path d="M50 5c24.8 0 45 20.2 45 45S74.8 95 50 95 5 74.8 5 50 25.2 5 50 5m0-5C22.4 0 0 22.4 0 50s22.4 50 50 50 50-22.4 50-50S77.6 0 50 0z"/><circle cx="58.3" cy="39.9" r="2.5"/><circle cx="65.2" cy="39.9" r="2.5"/><path d="M24 23v9.8h52V23H24zm18.3 5.3c-.8 0-1.5-.7-1.5-1.5s.7-1.5 1.5-1.5 1.5.7 1.5 1.5-.7 1.5-1.5 1.5zm16.9 0h-12c-.8 0-1.5-.7-1.5-1.5s.7-1.5 1.5-1.5h12c.8 0 1.5.7 1.5 1.5s-.7 1.5-1.5 1.5zM29.5 37.4h2.1v9.7h-2.1zM32.3 43.1c3.3 0 4.1-2.8 4.1-3.2h-.3c-3.3 0-4.1 2.8-4.1 3.2h.3zM32 43.7c0 .5.6 3.3 4.1 3.3h.3c0-.5-.6-3.3-4.1-3.3H32z"/></g><g fill="none" stroke="currentColor"><g stroke-width="2"><circle cx="49.8" cy="70.2" r="19.8"/><circle cx="49.8" cy="64.8" r="6"/><path d="M64.9 83.1c-1.4-7.1-7.6-12.4-15.1-12.4S36.1 76 34.7 83.1"/></g><path stroke-width="4" d="M24 89.9V27c0-2.2 1.5-4 3.3-4h45.3c1.8 0 3.3 1.8 3.3 4v62.9"/></g></svg>