<svg xmlns="http://www.w3.org/2000/svg" width="75" height="75" viewBox="0 0 75 75">
  <g fill="none" fill-rule="evenodd">
    <g fill-rule="nonzero">
      <path fill="#D9E1DE" d="M37.5731855,75 L37.4225806,75 C17.2233871,74.9600806 0.721572581,58.8665323 0.022983871,38.8258065 L0.022983871,36.1784274 C0.722782258,16.1122984 17.2645161,0.00362903226 37.4981855,0.00362903226 C58.1745968,0.00362903226 74.9957661,16.8254032 74.9957661,37.5024194 C74.9957661,58.1534274 58.215121,74.958871 37.5731855,75 M37.4981855,3.84979839 C18.9423387,3.84979839 3.84616935,18.9459677 3.84616935,37.5024194 C3.84616935,56.0576613 18.9423387,71.1538306 37.4981855,71.1538306 C56.0540323,71.1538306 71.1502016,56.0576613 71.1502016,37.5024194 C71.1502016,18.9459677 56.0540323,3.84979839 37.4981855,3.84979839"/>
      <polygon fill="#5E9C43" points="28.262 55.343 35.52 55.343 35.52 37.91 28.262 37.91"/>
      <polygon fill="#5E9C43" points="17.93 55.343 25.188 55.343 25.188 43.72 17.93 43.72"/>
      <polygon fill="#5E9C43" points="38.594 55.343 45.852 55.343 45.852 32.742 38.594 32.742"/>
      <polygon fill="#5E9C43" points="48.925 55.343 56.183 55.343 56.183 26.285 48.925 26.285"/>
      <polyline fill="#5E9C43" points="48.458 16.834 39.908 14.249 41.975 18.106 15.322 30.489 16.955 34.003 43.807 21.527 45.873 25.384 48.458 16.834"/>
    </g>
  </g>
</svg>
