<svg xmlns="http://www.w3.org/2000/svg" width="75" height="75"><g fill-rule="nonzero" fill="none"><path fill="#D9E1DE" d="M37.573 75h-.15C17.223 74.96.722 58.867.023 38.826v-2.648C.723 16.112 17.265.004 37.498.004c20.677 0 37.498 16.821 37.498 37.498 0 20.651-16.78 37.457-37.423 37.498m-.075-71.15c-18.556 0-33.652 15.096-33.652 33.652s15.096 33.652 33.652 33.652S71.15 56.058 71.15 37.502 56.054 3.85 37.498 3.85"/><path fill="#5E9C43" d="M28.262 55.343h7.258V37.91h-7.258zM17.93 55.343h7.258V43.72H17.93zM38.594 55.343h7.258V32.742h-7.258zM48.925 55.343h7.258V26.285h-7.258zM48.458 16.834l-8.55-2.585 2.067 3.857-26.653 12.383 1.633 3.514 26.852-12.476 2.066 3.857 2.585-8.55"/></g></svg>