<svg xmlns="http://www.w3.org/2000/svg" width="59" height="56" xmlns:xlink="http://www.w3.org/1999/xlink"><defs><path id="a" d="M0 55.885h58.789V0H0z"/></defs><g fill="none" fill-rule="evenodd"><path fill="#236133" d="M11.134 44.233s4.677-6.607 6.953-6.761c2.283-.15 9.409-.034 9.409-.034s2.489-.516 4.592-1.84c3.038-1.922 5.675-5.482 7.7-3.05 2.535 2.837-3.798 7.9-5.317 9.42-1.522 1.52 7.683.77 10.035.118 2.35-.652 13.424-9.407 14.283-2.965-1.367 2.68-17.938 13.764-26.904 13.764H11.212l-.078-8.652z"/><mask id="b" fill="#fff"><use xlink:href="#a"/></mask><path fill="#236133" mask="url(#b)" d="M0 55.885h10v-15H0z"/><path fill="#63A541" d="M40.241 1.752L30.411 0l-1.778 9.981S25.67 26.614 42.054 29.533l6.553 1.168s.252-6.193-8.417-17.874c0 0 10.315 6.76 11.694 18.458l1.778-9.98s2.963-16.634-13.42-19.553" mask="url(#b)"/></g></svg>