<svg width="124" height="124" xmlns="http://www.w3.org/2000/svg"><g fill-rule="evenodd"><path d="M61.997 6.314c-30.679 0-55.638 24.761-55.638 55.197 0 30.435 24.959 55.196 55.638 55.196s55.638-24.761 55.638-55.196c0-30.436-24.959-55.197-55.638-55.197zm0 116.702C27.812 123.016 0 95.425 0 61.511S27.812.006 61.997.006s61.997 27.591 61.997 61.505-27.812 61.505-61.997 61.505z"/><path d="M94.76 65.728c-2.051-2.084-5.051-2.066-7.055.07-2.524 2.688-5.028 6.587-7.546 9.283-.222.239-.48.443-.87.796V74.37c0-13.446.004-28.08-.015-41.527 0-.696-.074-1.45-.347-2.077-.853-1.959-2.958-2.898-5.151-2.416-2.1.462-3.375 2.051-3.376 4.266-.007 8.607-.003 17.214-.002 25.821v1.395h-2.775v-1.38c0-11.504.01-23.006-.021-34.508-.002-.763-.156-1.601-.499-2.272-.957-1.87-3.047-2.656-5.188-2.1-2.015.523-3.188 2.086-3.189 4.298-.004 11.502-.002 23.004-.002 34.507v1.472h-2.208v-1.456c0-9.717-.051-19.435.038-29.152.022-2.34-1.711-4.602-4.537-4.577-2.617.022-4.398 1.878-4.398 4.564-.002 9.758-.001 19.515-.001 29.272v1.37h-1.855v-1.438c0-6.942.013-13.883-.018-20.823-.003-.73-.11-1.53-.425-2.173-.96-1.956-3.098-2.78-5.364-2.203-1.826.465-3.071 2.194-3.072 4.288-.002 15.31-.045 30.62.032 45.93.018 3.396.238 4.116.754 7.47 1.181 7.68 5.54 12.484 13.064 13.947.71.139 1.418.247 2.128.342V83.43h-8.034l14.108-13.482L73.044 83.43H65.01v21.508c6.337-1.247 10.834-4.754 14.975-10.557 3.825-5.221 7.095-9.393 10.643-15.443 1.562-2.667 3.14-5.325 4.683-8.002 1.145-1.99.945-3.69-.55-5.208" fill="currentColor"/></g></svg>