<?xml version="1.0" encoding="UTF-8" standalone="no"?>
<svg width="26px" height="17px" viewBox="0 0 26 17" version="1.1" xmlns="http://www.w3.org/2000/svg" xmlns:xlink="http://www.w3.org/1999/xlink" xmlns:sketch="http://www.bohemiancoding.com/sketch/ns">
    <!-- Generator: Sketch 3.3.3 (12072) - http://www.bohemiancoding.com/sketch -->
    <title>Slice 1 Copy 3</title>
    <desc>Created with Sketch.</desc>
    <defs></defs>
    <g id="Page-1" stroke-width="1" fill-rule="evenodd" sketch:type="MSPage">
        <g id="handshake" sketch:type="MSLayerGroup">
            <g id="Group" transform="translate(1.000000, 1.000000)" sketch:type="MSShapeGroup">
                <path d="M6.05754007,7.54037089 L6.04191907,7.52474989 C5.85332407,7.34034589 5.60338807,7.23899989 5.33783108,7.23899989 C5.06351108,7.23899989 4.80747909,7.34606089 4.61736009,7.54075189 L2.95315211,9.22972486 C2.56529412,9.62672686 2.57253312,10.2656638 2.96991611,10.6535218 L2.98591811,10.6691428 C3.17451311,10.8535468 3.42406811,10.9548928 3.6900061,10.9548928 C3.9643261,10.9548928 4.2199771,10.8478318 4.41009609,10.6531408 L6.07430407,8.96378687 C6.46178106,8.56754687 6.45492306,7.92860988 6.05754007,7.54037089 L6.05754007,7.54037089 Z" id="Shape"></path>
                <path d="M7.96220453,9.06437086 L7.94620253,9.04874986 C7.75760753,8.86472687 7.50805254,8.76299987 7.24249554,8.76299987 C6.96779454,8.76299987 6.71214355,8.87006087 6.52164355,9.06475186 L4.85819758,10.7544868 C4.47033958,11.1511078 4.47757858,11.7900448 4.87458058,12.1782838 L4.89058258,12.1935238 C5.07917757,12.3779278 5.32911357,12.4796548 5.59467057,12.4796548 C5.86899056,12.4796548 6.12502256,12.3725938 6.31514155,12.1779028 L7.97896853,10.4881678 C8.36682652,10.0915468 8.35920652,9.45260986 7.96220453,9.06437086 L7.96220453,9.06437086 Z" id="Shape"></path>
                <path d="M10.248921,10.2073708 L10.232538,10.1913688 C10.044324,10.0073458 9.79438801,9.90599985 9.52845002,9.90599985 C9.25413002,9.90599985 8.99847902,10.0130608 8.80836003,10.2077518 L7.14415205,11.8971058 C6.75629406,12.2941078 6.76353306,12.9330448 7.16091605,13.3209028 L7.17691805,13.3365238 C7.36513205,13.5205468 7.61506804,13.6222738 7.88100604,13.6222738 C8.15532604,13.6222738 8.41097703,13.5152128 8.60147703,13.3205218 L10.265304,11.6307868 C10.653162,11.2341658 10.645542,10.5952288 10.248921,10.2073708 L10.248921,10.2073708 Z" id="Shape"></path>
                <path d="M12.1537305,11.7313708 L12.1373475,11.7149878 C11.9491335,11.5313458 11.6995785,11.4299998 11.4336405,11.4299998 C11.1593205,11.4299998 10.9036695,11.5370608 10.7131695,11.7317518 L9.04934252,13.4211058 C8.66110353,13.8177268 8.66872353,14.4566638 9.06572552,14.8449028 L9.08210852,14.8605238 C9.27032252,15.0445468 9.52025852,15.1462738 9.78581551,15.1462738 C10.0601355,15.1462738 10.3161675,15.0392128 10.5062865,14.8445218 L12.1701135,13.1547868 C12.5583525,12.7581658 12.5507325,12.1192288 12.1537305,11.7313708 L12.1537305,11.7313708 Z" id="Shape"></path>
                <path d="M14.0085622,4.34873393 C12.2460563,6.01637091 10.8816953,6.6396869 10.8237833,6.6659759 L10.8123533,6.6701669 C10.5498443,6.7536059 10.2366623,6.7974209 9.9070973,6.7974209 C9.48875931,6.7974209 9.14319231,6.7284599 8.97402831,6.6694049 C8.63265232,6.5501519 8.05048433,5.98817691 7.79902433,5.53554892 C7.53994433,5.06920492 7.76511533,4.36321193 7.77540233,4.33349393 L7.78340333,4.30720494 L11.6516963,0.65912999 C11.4665303,0.474344993 11.0988653,0.380999994 10.5570833,0.380999994 C9.07956531,0.380999994 6.84309535,1.09537498 6.71774635,1.13576098 C6.54934435,1.21043698 6.30512335,1.24853698 5.99194136,1.24853698 C5.43225237,1.24853698 4.82493838,1.13080798 4.72778338,1.11137698 L4.72473538,1.11137698 C4.39669438,1.11137698 3.53715839,0.595502991 3.3988554,0.510920992 C3.2582664,0.461390993 3.1249164,0.435863993 3.0033774,0.435863993 C2.67266941,0.435863993 2.51684041,0.620267991 2.48788441,0.65798699 L0.623270439,4.91223293 C0.0380544475,6.01332291 -0.00461755186,6.3337439 0.000335448064,6.4156589 C1.02408243,6.6644519 2.38120441,8.13473088 2.71838941,8.51458787 L4.65920338,6.6183509 L4.69006438,6.6118739 C4.85503738,6.5772029 5.01429537,6.5592959 5.16326637,6.5592959 C6.35655835,6.5592959 6.69069535,7.66076688 6.76651435,8.01090588 C6.86443134,8.00138088 6.96006234,7.99642788 7.05150234,7.99642788 C8.46386932,7.99642788 8.75800132,9.12723586 8.81705632,9.51318886 C9.01403331,9.47356486 9.20072331,9.45375286 9.37445931,9.45375286 C10.6694783,9.45375286 10.9678013,10.5411268 11.0314283,10.9065058 C11.7126563,10.8036358 12.2369123,10.9499398 12.5881943,11.3366548 C13.1471213,11.9504458 13.0598723,12.9448558 13.0560623,12.9867658 L13.0526333,13.0252468 L11.1312503,14.9771098 C11.3994743,15.1199848 11.6547443,15.1919938 11.8917263,15.1919938 C12.8427023,15.1919938 13.2564682,14.0215618 13.2606592,14.0093698 L13.2907582,13.9221208 L13.3818172,13.9385038 C13.5406942,13.9666978 13.6919512,13.9811758 13.8317782,13.9811758 C15.1157482,13.9811758 15.1816612,12.7684528 15.1839472,12.7173988 L15.1896622,12.5832868 L15.3195832,12.6168148 C15.5775202,12.6834898 15.8186932,12.7173988 16.0358632,12.7173988 C17.3735542,12.7173988 17.5072852,11.4574318 17.5122382,11.4040918 L17.5232872,11.2859818 L17.6398732,11.3076988 C17.8383742,11.3450368 18.0235402,11.3633248 18.1907992,11.3633248 C18.6380932,11.3633248 18.9737542,11.2303558 19.1878762,10.9686088 C19.6012612,10.4637838 19.4522902,9.63548986 19.4435272,9.58786486 C19.0930072,8.19302388 14.6356882,4.81812593 14.0085622,4.34873393 L14.0085622,4.34873393 Z" id="Shape"></path>
                <path d="M21.5124346,0.847724987 L21.5097676,0.834770987 C21.4004206,0.303656995 21.0761896,0.224408997 20.8929286,0.224408997 C20.8738786,0.224408997 20.8578766,0.225170997 20.8460656,0.226313997 C19.8638477,0.992123985 18.7917137,1.10718598 18.2377397,1.10718598 C18.0259037,1.10718598 17.8929347,1.09042198 17.8723607,1.08775498 C16.8905237,0.991742985 15.6766577,0.574166991 15.6256037,0.556259992 L15.6134117,0.551306992 C14.8647467,0.185546997 14.2239047,-1.77635684e-15 13.7072687,-1.77635684e-15 C13.1887278,-1.77635684e-15 12.9909888,0.195071997 12.9890838,0.197357997 C10.7701398,2.57632196 8.70359582,4.14947094 8.46699483,4.32701694 C8.09209083,5.15721592 9.07126082,5.84072991 9.19965781,5.92569291 C9.46711981,5.99084391 9.71781781,6.02360991 9.9452748,6.02360991 C10.3217028,6.02360991 10.5049638,5.93140791 10.5068688,5.93064591 L10.5316338,5.91769191 L10.5678288,5.91845391 C11.1473298,5.91845391 13.2321618,4.17728394 13.9869227,3.50634295 L14.0414057,3.45795595 L14.1069377,3.48995995 C16.6192517,4.72287593 19.7983157,8.41819487 19.9781477,8.62926887 C20.1541696,8.76261887 20.3179996,8.82967487 20.4643036,8.82967487 C20.6349916,8.82967487 20.7241456,8.73632987 20.7275746,8.73251987 L20.7382426,8.72223287 L23.3065636,6.5772029 L23.3244706,6.5707259 C23.6102206,6.4655699 23.7927196,6.31964691 23.8662526,6.13790991 C23.9500726,5.93140791 23.8632046,5.74090791 23.8620616,5.73900291 L21.5124346,0.847724987 L21.5124346,0.847724987 Z" id="Shape"></path>
            </g>
        </g>
    </g>
</svg>