<svg xmlns="http://www.w3.org/2000/svg" viewBox="0 0 124 124"><g fill="currentColor"><path d="M62 1C27.8 1 1 27.8 1 62s26.8 61 61 61 61-26.8 61-61S96.2 1 62 1zM28.2 95.2c-.5-1-.8-2.2-1-3.5-.3-2.1-.5-2.5-.5-4.6V58.5c0-1.3.8-2.4 1.9-2.7.3-.1.6-.1.9-.1.8 0 1.5.3 2 .8v16.2c-1.5.9-2.9 3-3 5.1 0 .7.5 1.3 1.2 1.3h.1c.7 0 1.2-.5 1.2-1.2.1-1.5 1.3-3 1.9-3.1.7 0 1.2-.6 1.2-1.2 0-.1 0-.2-.1-.2 0-.1.1-.2.1-.2V51.6c.5-.6 1.2-1 2.2-1.1 1 0 1.8.5 2.3 1.2v21c-1.5.9-2.9 3-3 5.1 0 .7.5 1.3 1.2 1.3h.1c.7 0 1.2-.5 1.2-1.2.1-1.5 1.3-3 1.9-3.1.7 0 1.2-.6 1.2-1.2 0-.1 0-.2-.1-.2 0-.1.1-.2.1-.2v-25c.3-.4.8-.7 1.4-.9.3-.1.6-.1.8-.1 1 0 1.9.5 2.4 1.4 0 .1 0 .1.1.2v23.9c-1.5.9-2.9 3-3 5.1 0 .7.5 1.3 1.2 1.3h.1c.7 0 1.2-.5 1.2-1.2.1-1.5 1.3-3 1.9-3.1.7 0 1.2-.6 1.2-1.2 0-.1 0-.2-.1-.2 0-.1.1-.2.1-.2V53.9c.4-.5.9-.9 1.6-1 .2-.1.5-.1.7-.1 1.1 0 2.1.6 2.5 1.6.2.4.2.9.2 1.3v26.7c.2-.2.4-.3.5-.5 1.6-1.7 3.1-4.1 4.7-5.8.6-.7 1.4-1 2.2-1 .8 0 1.5.3 2.2 1 .9.9 1.1 2 .3 3.2-1 1.7-1.9 3.3-2.9 5-2.2 3.8-4.2 6.4-6.6 9.6L50.4 98c-1.6 3.5-7.1 10.4-11.7 15.7-6.1-2.7-11.7-6.6-16.4-11.2 2.4-2.3 5.1-5.1 6.2-6.7l-.3-.6zM62 118.6c-6.2 0-13-1-18.6-2.9 3.9-4.6 9.3-11.2 11.3-15.2l2.8-3.6c.4-.5.8-1.1 1.2-1.6 1.9-2.6 3.8-5.1 5.7-8.5l.8-1.4 2.1-3.6c1.8-3.1 1.4-6.7-1.1-9.2-1.6-1.6-3.6-2.4-5.7-2.4-.9 0-1.7.1-2.5.4v-15c0-1.2-.2-2.3-.6-3.3-1.2-2.7-3.9-4.5-7-4.6-.1-.4-.3-.9-.5-1.4-1.3-2.6-3.9-4.1-6.8-4.1-.7 0-1.4.1-2.1.3-1.9.5-3.4 1.6-4.4 3H36c-3.5 0-6.3 2.2-7.3 5.2-.5 0-1 .1-1.4.2-3.3.8-5.6 3.9-5.6 7.5V87c0 2 .1 2.9.4 4.5l.1.9c.1.8.3 1.6.5 2.3-.7.8-2.3 2.4-3.8 3.8C10.7 88.9 5.2 75.8 5.2 62c0-30.8 26-56.8 56.8-56.8s56.8 26 56.8 56.8c0 4.4-.4 9-1.4 13.1-6.2-2.7-12-5.5-14.5-7.2 1.5-2.1 3-4.1 4.5-6.8l.9-1.5c.7-1.2 1.4-2.3 2-3.5 1-1.7.8-3.4-.5-4.7-.8-.9-1.9-1.3-3.1-1.3-1.1 0-2.2.5-3.1 1.4-.8.9-1.7 2-2.4 3-.2.3-.4.6-.7.8V31.8c0-.7-.1-1.3-.3-1.8-.8-1.7-2.6-2.7-4.6-2.2-1 .2-1.8.7-2.3 1.5v-3c0-.7-.2-1.4-.4-2-.9-1.7-2.7-2.4-4.6-1.9-1.8.5-2.9 2-2.9 3.9v.5l-.1-.1c-.8-.8-1.8-1.2-2.9-1.2-2.3 0-4 1.7-4 4.1v2.1c-1-.9-2.4-1.2-3.8-.8-1.7.4-2.8 2-2.8 3.9v28.6c0 1.9.1 2.5.3 3.9l.1.9c.5 2.9 1.6 5.2 3.4 6.9 3.9 4.3 22.5 16 31.7 21.5-10.3 13.2-27.3 22-45.3 22zm28.4-43.2l-7.4.2c-.4-.1-.8-.1-1.2-.2-4.1-.8-6.5-3.3-7.1-7.6l-.1-.9c-.2-1.3-.3-1.9-.3-3.5V34.9c0-.7.4-1.3 1-1.5.7-.2 1.5-.1 1.9.7.1.2.1.5.1.8v13.9h3.6V29.7c0-1 .6-1.6 1.5-1.6.4 0 .8.1 1.1.4.3.3.5.7.5 1.2v19.1h3.9V26.4c0-.8.3-1.3 1.1-1.5.6-.2 1.4-.1 1.8.7.1.2.2.5.2.9v22.4h4V46 31.9c0-.8.4-1.3 1.1-1.4.9-.5 1.6-.2 1.9.5.1.1.1.4.1.8v27.7c-.1-.1-.3-.2-.4-.3-1.9-.8-8.4-3-15.3 0-.6.3-.9 1-.6 1.6.3.6 1 .9 1.6.6 6-2.6 11.8-.6 13.4 0 .2.1.3.1.5.1.3 0 .6-.1.9-.4v.1l2.3-2.1c.2-.1.3-.3.4-.4.8-.9 1.6-1.9 2.4-3 .8-1 1.5-2 2.3-2.8.4-.4.8-.6 1.3-.6s.9.2 1.3.6c.5.5.6.9.2 1.7-.7 1.2-1.4 2.3-2 3.5l-.9 1.5c-1.8 3.1-3.5 5.3-5.4 7.9l-1.2 1.6c-.4.6-.3 1.3.3 1.7.2.2.5.2.7.2.4 0 .8-.2 1-.5l.7-1c3.4 2.3 10.9 5.6 15.5 7.6-1.7 6.1-4.6 12.1-8.1 17.1-6.7-4-18.8-11.6-25.7-16.6l7.3-.2c.7 0 1.2-.6 1.2-1.3-.1-.2-.7-.7-1.4-.7z"/><path d="M42.1 17c-.4-.6-1.2-.7-1.7-.3-.6.4-.7 1.2-.3 1.7l8.8 12c.2.3.6.5 1 .5.3 0 .5-.1.7-.2.6-.4.7-1.2.3-1.7l-8.8-12zM55.2 14.1c-.2-.7-.8-1.1-1.5-.9-.7.2-1.1.8-.9 1.5L56.4 29c.1.6.6.9 1.2.9h.3c.7-.2 1.1-.8.9-1.5l-3.6-14.3zM66 16.4c-.7-.2-1.3.2-1.5.9l-2.9 11.3c-.2.7.2 1.3.9 1.5h.3c.6 0 1.1-.4 1.2-.9l2.9-11.3c.2-.6-.2-1.3-.9-1.5zM46.1 33.5l-10.5-5.1c-.6-.3-1.4 0-1.7.6-.3.6 0 1.4.6 1.7L45 35.8c.2.1.4.1.5.1.5 0 .9-.3 1.1-.7.3-.6.1-1.4-.5-1.7z"/></g><path d="M62 6.4C31.3 6.4 6.4 31.3 6.4 62s25 55.6 55.6 55.6c30.7 0 55.6-25 55.6-55.6S92.7 6.4 62 6.4zM62 124C27.8 124 0 96.2 0 62S27.8 0 62 0s62 27.8 62 62-27.8 62-62 62z"/></svg>