<?xml version="1.0" encoding="utf-8"?>
<!-- Generator: Adobe Illustrator 21.0.2, SVG Export Plug-In . SVG Version: 6.00 Build 0)  -->
<svg version="1.1" id="Layer_3" xmlns="http://www.w3.org/2000/svg" xmlns:xlink="http://www.w3.org/1999/xlink" x="0px" y="0px"
	 viewBox="0 0 124 124" style="enable-background:new 0 0 124 124;" xml:space="preserve">
	<g fill="currentColor">
		<path d="M62,1C27.8,1,1,27.8,1,62s26.8,61,61,61c34.2,0,61-26.8,61-61S96.2,1,62,1z M28.2,95.2c-0.5-1-0.8-2.2-1-3.5
			c-0.3-2.1-0.5-2.5-0.5-4.6c0-9.5,0-19.1,0-28.6c0-1.3,0.8-2.4,1.9-2.7c0.3-0.1,0.6-0.1,0.9-0.1c0.8,0,1.5,0.3,2,0.8v16.2
			c-1.5,0.9-2.9,3-3,5.1c0,0.7,0.5,1.3,1.2,1.3c0,0,0,0,0.1,0c0.7,0,1.2-0.5,1.2-1.2c0.1-1.5,1.3-3,1.9-3.1c0.7,0,1.2-0.6,1.2-1.2
			c0-0.1,0-0.2-0.1-0.2c0-0.1,0.1-0.2,0.1-0.2V51.6c0.5-0.6,1.2-1,2.2-1.1c0,0,0,0,0,0c1,0,1.8,0.5,2.3,1.2v21c-1.5,0.9-2.9,3-3,5.1
			c0,0.7,0.5,1.3,1.2,1.3c0,0,0,0,0.1,0c0.7,0,1.2-0.5,1.2-1.2c0.1-1.5,1.3-3,1.9-3.1c0.7,0,1.2-0.6,1.2-1.2c0-0.1,0-0.2-0.1-0.2
			c0-0.1,0.1-0.2,0.1-0.2V48.2c0.3-0.4,0.8-0.7,1.4-0.9c0.3-0.1,0.6-0.1,0.8-0.1c1,0,1.9,0.5,2.4,1.4c0,0.1,0,0.1,0.1,0.2v23.9
			c-1.5,0.9-2.9,3-3,5.1c0,0.7,0.5,1.3,1.2,1.3c0,0,0,0,0.1,0c0.7,0,1.2-0.5,1.2-1.2c0.1-1.5,1.3-3,1.9-3.1c0.7,0,1.2-0.6,1.2-1.2
			c0-0.1,0-0.2-0.1-0.2c0-0.1,0.1-0.2,0.1-0.2V53.9c0.4-0.5,0.9-0.9,1.6-1c0.2-0.1,0.5-0.1,0.7-0.1c1.1,0,2.1,0.6,2.5,1.6
			c0.2,0.4,0.2,0.9,0.2,1.3c0,8.4,0,17.5,0,25.8v0.9c0.2-0.2,0.4-0.3,0.5-0.5c1.6-1.7,3.1-4.1,4.7-5.8c0.6-0.7,1.4-1,2.2-1
			c0.8,0,1.5,0.3,2.2,1c0.9,0.9,1.1,2,0.3,3.2c-1,1.7-1.9,3.3-2.9,5c-2.2,3.8-4.2,6.4-6.6,9.6L50.4,98c-1.6,3.5-7.1,10.4-11.7,15.7
			c-6.1-2.7-11.7-6.6-16.4-11.2c2.4-2.3,5.1-5.1,6.2-6.7L28.2,95.2z M62,118.6c-6.2,0-13-1-18.6-2.9c3.9-4.6,9.3-11.2,11.3-15.2
			l2.8-3.6l0,0l0,0c0.4-0.5,0.8-1.1,1.2-1.6c1.9-2.6,3.8-5.1,5.7-8.5l0.8-1.4c0.7-1.2,1.4-2.4,2.1-3.6c1.8-3.1,1.4-6.7-1.1-9.2
			c-1.6-1.6-3.6-2.4-5.7-2.4c-0.9,0-1.7,0.1-2.5,0.4c0-5,0-10.1,0-15c0-1.2-0.2-2.3-0.6-3.3c-1.2-2.7-3.9-4.5-7-4.6
			c-0.1-0.4-0.3-0.9-0.5-1.4c-1.3-2.6-3.9-4.1-6.8-4.1c-0.7,0-1.4,0.1-2.1,0.3c-1.9,0.5-3.4,1.6-4.4,3c-0.2,0-0.3,0-0.5,0h0h-0.1
			c-3.5,0-6.3,2.2-7.3,5.2c-0.5,0-1,0.1-1.4,0.2c-3.3,0.8-5.6,3.9-5.6,7.5l0,7.1c0,7,0,14.3,0,21.5c0,2,0.1,2.9,0.4,4.5l0.1,0.9
			c0.1,0.8,0.3,1.6,0.5,2.3c-0.7,0.8-2.3,2.4-3.8,3.8C10.7,88.9,5.2,75.8,5.2,62c0-30.8,26-56.8,56.8-56.8s56.8,26,56.8,56.8
			c0,4.4-0.4,9-1.4,13.1c-6.2-2.7-12-5.5-14.5-7.2c1.5-2.1,3-4.1,4.5-6.8l0.9-1.5c0.7-1.2,1.4-2.3,2-3.5c1-1.7,0.8-3.4-0.5-4.7
			c0,0,0,0,0,0c-0.8-0.9-1.9-1.3-3.1-1.3c0,0,0,0,0,0c-1.1,0-2.2,0.5-3.1,1.4c-0.8,0.9-1.7,2-2.4,3c-0.2,0.3-0.4,0.6-0.7,0.8
			c0-7.7,0-15.9,0-23.5c0-0.7-0.1-1.3-0.3-1.8c-0.8-1.7-2.6-2.7-4.6-2.2c-1,0.2-1.8,0.7-2.3,1.5c0-1,0-2,0-3c0-0.7-0.2-1.4-0.4-2
			c-0.9-1.7-2.7-2.4-4.6-1.9c-1.8,0.5-2.9,2-2.9,3.9v0.5c0,0,0,0-0.1-0.1c-0.8-0.8-1.8-1.2-2.9-1.2c-2.3,0-4,1.7-4,4.1v2.1
			c-1-0.9-2.4-1.2-3.8-0.8c-1.7,0.4-2.8,2-2.8,3.9l0,6.8c0,7.3,0,14.5,0,21.8c0,1.9,0.1,2.5,0.3,3.9l0.1,0.9c0.5,2.9,1.6,5.2,3.4,6.9
			l0,0c3.9,4.3,22.5,16,31.7,21.5C97,109.8,80,118.6,62,118.6z M90.4,75.4C90.4,75.4,90.4,75.4,90.4,75.4L83,75.6
			c-0.4-0.1-0.8-0.1-1.2-0.2c-4.1-0.8-6.5-3.3-7.1-7.6l-0.1-0.9c-0.2-1.3-0.3-1.9-0.3-3.5c0-7.2,0-14.5,0-21.7l0-6.8
			c0-0.7,0.4-1.3,1-1.5c0.7-0.2,1.5-0.1,1.9,0.7c0.1,0.2,0.1,0.5,0.1,0.8c0,3.3,0,6,0,9l0,4.9h3.6l0-19.1c0-1,0.6-1.6,1.5-1.6
			c0,0,0,0,0,0c0.4,0,0.8,0.1,1.1,0.4c0.3,0.3,0.5,0.7,0.5,1.2c0,4.3,0,8.1,0,12.1l0,7h3.9l0-22.4c0-0.8,0.3-1.3,1.1-1.5
			c0.6-0.2,1.4-0.1,1.8,0.7c0.1,0.2,0.2,0.5,0.2,0.9c0,5.8,0,10.7,0,16.2v6.2H95v-2.9c0-5,0-9,0-14.1c0-0.8,0.4-1.3,1.1-1.4
			C97,30,97.7,30.3,98,31c0.1,0.1,0.1,0.4,0.1,0.8c0,7.7,0,16,0,23.7v4c-0.1-0.1-0.3-0.2-0.4-0.3c-1.9-0.8-8.4-3-15.3,0
			c-0.6,0.3-0.9,1-0.6,1.6c0.3,0.6,1,0.9,1.6,0.6c6-2.6,11.8-0.6,13.4,0c0.2,0.1,0.3,0.1,0.5,0.1c0.3,0,0.6-0.1,0.9-0.4v0.1l2.3-2.1
			c0.2-0.1,0.3-0.3,0.4-0.4c0.8-0.9,1.6-1.9,2.4-3c0.8-1,1.5-2,2.3-2.8c0.4-0.4,0.8-0.6,1.3-0.6c0.5,0,0.9,0.2,1.3,0.6c0,0,0,0,0,0
			c0.5,0.5,0.6,0.9,0.2,1.7c-0.7,1.2-1.4,2.3-2,3.5l-0.9,1.5c-1.8,3.1-3.5,5.3-5.4,7.9l-1.2,1.6c-0.4,0.6-0.3,1.3,0.3,1.7
			c0.2,0.2,0.5,0.2,0.7,0.2c0.4,0,0.8-0.2,1-0.5l0.7-1c3.4,2.3,10.9,5.6,15.5,7.6c-1.7,6.1-4.6,12.1-8.1,17.1
			c-6.7-4-18.8-11.6-25.7-16.6l7.3-0.2c0.7,0,1.2-0.6,1.2-1.3C91.7,75.9,91.1,75.4,90.4,75.4z"/>
		<path d="M42.1,17c-0.4-0.6-1.2-0.7-1.7-0.3c-0.6,0.4-0.7,1.2-0.3,1.7l8.8,12c0.2,0.3,0.6,0.5,1,0.5
			c0.3,0,0.5-0.1,0.7-0.2c0.6-0.4,0.7-1.2,0.3-1.7L42.1,17z"/>
		<path d="M55.2,14.1c-0.2-0.7-0.8-1.1-1.5-0.9c-0.7,0.2-1.1,0.8-0.9,1.5L56.4,29c0.1,0.6,0.6,0.9,1.2,0.9
			c0.1,0,0.2,0,0.3,0c0.7-0.2,1.1-0.8,0.9-1.5L55.2,14.1z"/>
		<path d="M66,16.4c-0.7-0.2-1.3,0.2-1.5,0.9l-2.9,11.3c-0.2,0.7,0.2,1.3,0.9,1.5c0.1,0,0.2,0,0.3,0
			c0.6,0,1.1-0.4,1.2-0.9l2.9-11.3C67.1,17.3,66.7,16.6,66,16.4z"/>
		<path d="M46.1,33.5l-10.5-5.1c-0.6-0.3-1.4,0-1.7,0.6c-0.3,0.6,0,1.4,0.6,1.7L45,35.8c0.2,0.1,0.4,0.1,0.5,0.1
			c0.5,0,0.9-0.3,1.1-0.7C46.9,34.6,46.7,33.8,46.1,33.5z"/>
	</g>
	<path d="M62,6.4C31.3,6.4,6.4,31.3,6.4,62s25,55.6,55.6,55.6
		c30.7,0,55.6-25,55.6-55.6S92.7,6.4,62,6.4L62,6.4z M62,124C27.8,124,0,96.2,0,62S27.8,0,62,0c34.2,0,62,27.8,62,62
		C124,96.2,96.2,124,62,124L62,124z"/>
</svg>
