<?xml version="1.0" encoding="UTF-8"?>
<svg width="20px" height="28px" viewBox="0 0 20 28" version="1.1" xmlns="http://www.w3.org/2000/svg" xmlns:xlink="http://www.w3.org/1999/xlink">
    <!-- Generator: Sketch 55 (78076) - https://sketchapp.com -->
    <title>hourglass3</title>
    <desc>Created with Sketch.</desc>
	<!-- <g id="Finals" stroke="none" stroke-width="1" fill="none" fill-rule="evenodd"> -->
    <g id="Finals" stroke="none" stroke-width="1" fill-rule="evenodd">
	<!-- <g id="2-copy" transform="translate(-1098.000000, -235.000000)" fill="#000000" fill-rule="nonzero"> -->
        <g id="2-copy" transform="translate(-1098.000000, -235.000000)" fill-rule="nonzero">
            <g id="hourglass3" transform="translate(1098.000000, 235.000000)">
                <path d="M7.27125,8.806875 L9.8875,10.6575 L12.50375,8.806875 C13.339375,8.21625 13.83375,7.6475 13.825,6.615 L13.79875,5.845 L5.97625,5.845 L5.95,6.615 C5.94125,7.643125 6.435625,8.211875 7.27125,8.806875 Z" id="Path"></path>
                <path d="M19.5125,0.14 L0.2625,0.14 L0.2625,2.45 L2.56375,2.45 L2.52875,7.048125 C2.51125,9.19625 3.521875,10.395 5.0575,11.536875 L8.526875,14.021875 L5.08375,16.471875 C3.56125,17.609375 2.550625,18.80375 2.568125,20.951875 L2.603125,25.55 L0.2625,25.55 L0.2625,27.86 L19.5125,27.86 L19.5125,25.55 L17.21125,25.55 L17.24625,20.951875 C17.26375,18.80375 16.253125,17.605 14.713125,16.45875 L11.195625,13.978125 L14.69125,11.528125 C16.21375,10.390625 17.224375,9.19625 17.206875,7.048125 L17.1675,2.45 L19.5125,2.45 L19.5125,0.14 Z M15.701875,20.93875 L15.67125,25.55 L4.1475,25.55 L4.1125,20.93875 C4.099375,19.420625 4.76875,18.62875 5.99375,17.714375 L9.8875,14.940625 L13.8075,17.705625 C15.045625,18.633125 15.715,19.420625 15.701875,20.93875 Z M15.6625,7.06125 C15.675625,8.579375 15.00625,9.37125 13.785625,10.28125 L9.82625,13.059375 L5.9675,10.294375 C4.729375,9.37125 4.06,8.579375 4.073125,7.06125 L4.108125,2.45 L15.631875,2.45 L15.6625,7.06125 Z" id="Shape"></path>
                <path d="M6.584375,21.93625 C6.20375,22.07625 5.95,22.435 5.95,22.8375 L5.95,23.953125 L13.825,23.953125 L13.825,22.8375 C13.825,22.435 13.57125,22.071875 13.190625,21.93625 L9.8875,20.7375 L6.584375,21.93625 Z" id="Path"></path>
            </g>
        </g>
    </g>
</svg>
