<svg xmlns="http://www.w3.org/2000/svg" width="69" height="69" viewBox="0 0 69 69">
  <g fill="none" fill-rule="evenodd" transform="translate(2 2)">
    <polygon stroke="#FFFFFF" stroke-linecap="round" stroke-linejoin="round" stroke-width="3" points="3.766 3.761 61.103 3.761 61.103 61.098 3.766 61.098" transform="rotate(-7.55 32.435 32.43)"/>
    <path fill="#FFFFFF" fill-rule="nonzero" d="M56.5413115,0 L0,7.67925026 L1.4586885,19 L58,11.3006864 L56.5413115,0 Z M22.4677188,12.9809926 C21.8660672,13.1080668 21.2421509,12.9200291 20.8034433,12.4794087 L21.3957296,11.7069694 C21.6190997,11.9963122 21.9663823,12.1555132 22.3257659,12.1333157 C22.8886826,12.0580781 23.0306355,11.6066526 22.9229471,10.7288807 L22.4334543,6.56071806 L23.4662841,6.43030623 L23.9557769,10.5984688 C24.1026247,11.8373812 23.8970377,12.8004224 22.4677188,12.9809926 Z M29.5702591,11.9778247 L28.8409148,10.4730729 L26.5549835,10.7690074 L26.2074437,12.3991552 L25.1990885,12.5295671 L26.6675669,6.00897571 L27.7052916,5.87354805 L30.6422483,11.812302 L29.5702591,11.9778247 Z M35.6644443,11.2003696 C35.6644443,11.2003696 33.0897122,7.96515312 32.2820491,6.96198522 L32.2526796,6.96198522 L32.8107013,11.5364308 L31.8317158,11.656811 L31.0925817,5.45723337 L32.1645708,5.31678986 C32.1645708,5.31678986 34.798042,8.59213305 35.546966,9.53009504 L35.5763356,9.53009504 L35.0183138,4.95564942 L35.9972994,4.83025343 L36.7511182,11.0498944 L35.6644443,11.2003696 Z"/>
    <path fill="#FFFFFF" fill-rule="nonzero" d="M26.6158192,7.01654412 C26.5254237,7.53492647 26,10 26,10 L28,9.75735294 C28,9.75735294 26.8700565,7.49632353 26.6327684,7 L26.6158192,7.01654412 Z"/>
    <path stroke="#FFFFFF" stroke-width="2" d="M26,31.4538624 C26.1939279,29.0800274 27.6956259,25.7364555 32.2355277,25.1000657 C36.6411716,24.4636759 39.5749526,26.9435759 40.0224785,30.2416913 C40.3725007,32.4287379 39.2911172,34.5948944 37.3472681,35.6004976 C39.7141829,35.7621204 41.5987642,37.8430141 41.9418674,40.3734212 C42.3794483,43.5705223 40.3655817,47.1918834 35.2588138,47.8939325 C29.9034204,48.641438 27.4867805,45.2625111 27.1536223,43.2573781 L30.425534,41.8229757 C30.8084173,43.2321246 31.8775069,45.4291846 34.9007931,45.0099755 C37.7052888,44.6160199 38.5307255,42.6411912 38.2870725,40.8532389 C37.9837494,38.6410267 36.1439206,37.3682471 33.2151122,37.7773548 C32.9316791,37.8177605 32.1460225,37.9591804 32.1460225,37.9591804 L31.7333042,34.9287528 C31.7333042,34.9287528 32.3051428,34.8832964 32.7775313,34.8176371 C35.4875493,34.4388336 36.7058143,32.7670477 36.4323262,30.7770669 C36.1588381,28.7870861 34.4433222,27.7466392 32.5587408,28.0244284 C30.7030011,28.265138 29.3448948,29.9200556 29.4459495,31.8175137 L26,31.4538624 Z"/>
  </g>
</svg>
