<svg width="124" height="123" xmlns="http://www.w3.org/2000/svg"><g fill-rule="evenodd"><path d="M61.997 6.314c-30.679 0-55.638 24.761-55.638 55.197 0 30.435 24.959 55.196 55.638 55.196s55.638-24.761 55.638-55.196c0-30.436-24.959-55.197-55.638-55.197zm0 116.702C27.812 123.016 0 95.425 0 61.511S27.812.006 61.997.006s61.997 27.591 61.997 61.505-27.812 61.505-61.997 61.505z"/><path d="M61.998 20.818c-14.852 0-27.885 7.871-35.085 19.629 2.716-.732 4.84-.751 5.036-.751.415 0 9.438.089 14.47 6.812.271-.588.552-1.167.845-1.733 1.071.223 2.195.433 3.376.62 2.721.43 5.894.762 9.43.841v13.312H49.414a32.812 32.812 0 01-.661 3.823h11.316v13.316c-3.534.078-6.71.406-9.43.836a68.917 68.917 0 00-3.122.569 41.758 41.758 0 01-2.202-4.899c-1.583 3.5-3.607 7.246-6.071 11.23a58.967 58.967 0 016.334-1.948c2.563 4.224 5.897 8.4 9.991 12.519a34.383 34.383 0 01-17.362-8.917c-.976 1.529-2.01 3.09-3.11 4.687l-.618.896a41.037 41.037 0 0027.518 10.543c22.617 0 41.018-18.254 41.018-40.692S84.614 20.818 61.998 20.818zm-1.929 73.211c-4.314-4.101-7.814-8.244-10.493-12.418a67.74 67.74 0 0110.493-1.086v13.504zM45.253 40.381c-3.715-.953-6.431-2.007-7.871-2.625a34.413 34.413 0 0117.796-9.661c-2.918 2.765-6.745 6.943-9.925 12.286zm14.816 2.029a66.247 66.247 0 01-8.666-.767 64.174 64.174 0 01-2.124-.371c3.759-5.931 8.294-10.249 10.79-12.388V42.41zM96.3 59.548H84.754c-.006-.115-.007-.228-.012-.341-.312-5.754-1.947-10.949-4.164-15.471a74.642 74.642 0 008.689-2.936c4.068 5.26 6.629 11.721 7.033 18.748zm-9.707-21.813a70.652 70.652 0 01-7.899 2.531c-3.148-5.28-6.92-9.413-9.805-12.158a34.423 34.423 0 0117.704 9.627zm-22.669-8.908c2.461 2.109 6.991 6.416 10.76 12.355a68.58 68.58 0 01-10.76 1.209V28.827zm0 17.389a72.297 72.297 0 0012.77-1.54c2.234 4.311 3.91 9.283 4.201 14.763l.004.11H63.924V46.216zm0 17.155H80.86c-.338 4.963-1.812 9.909-4.416 14.82a72.234 72.234 0 00-12.52-1.489V63.371zm0 30.726V80.531c3.297.104 6.806.453 10.477 1.148-2.677 4.175-6.171 8.317-10.477 12.418zm4.574.885c4.047-4.088 7.346-8.233 9.89-12.424a70.782 70.782 0 018.276 2.652 34.395 34.395 0 01-18.166 9.772zM89.33 82.143a74.362 74.362 0 00-9.021-3.033c2.623-5.189 4.097-10.442 4.416-15.738h11.584c-.383 7.032-2.926 13.501-6.979 18.771z" fill="currentColor"/><path d="M44.279 50.213c-3.539-6.655-11.973-6.731-12.331-6.731-.358 0-8.792.076-12.332 6.731-4.03 7.58.233 20.863 12.332 38.414 12.099-17.551 16.363-30.834 12.331-38.414zm-12.33 13.141c-3.88 0-7.026-3.122-7.026-6.972 0-3.848 3.146-6.969 7.026-6.969s7.026 3.121 7.026 6.969c0 3.85-3.146 6.972-7.026 6.972z" fill="currentColor"/></g></svg>