<svg width="47" height="47" xmlns="http://www.w3.org/2000/svg"><g transform="translate(1 1)" fill-rule="evenodd"><g fill="currentColor"><path d="M22.378 11.607c-2.954 0-3.324.012-4.485.065-1.158.053-1.948.237-2.64.506a5.332 5.332 0 00-1.927 1.255 5.332 5.332 0 00-1.255 1.926c-.269.692-.453 1.483-.506 2.641-.052 1.16-.065 1.53-.065 4.485s.013 3.325.065 4.485c.053 1.158.237 1.949.506 2.64.278.716.65 1.323 1.255 1.928a5.333 5.333 0 001.927 1.254c.692.27 1.482.453 2.64.506 1.16.053 1.531.066 4.485.066 2.955 0 3.325-.013 4.485-.066 1.158-.053 1.95-.237 2.641-.506a5.333 5.333 0 001.927-1.254 5.333 5.333 0 001.255-1.927c.269-.692.452-1.483.505-2.64.053-1.161.066-1.531.066-4.486 0-2.954-.013-3.325-.066-4.485-.053-1.158-.236-1.949-.505-2.64a5.333 5.333 0 00-1.255-1.927 5.332 5.332 0 00-1.927-1.255c-.692-.269-1.483-.453-2.64-.506-1.16-.053-1.531-.065-4.486-.065zm0 1.96c2.905 0 3.25.011 4.396.063 1.06.049 1.637.226 2.02.375.508.197.87.433 1.25.814.382.38.617.743.815 1.25.149.384.326.96.374 2.02.053 1.148.064 1.492.064 4.396 0 2.905-.011 3.249-.064 4.396-.048 1.06-.225 1.637-.374 2.02a3.37 3.37 0 01-.814 1.25 3.37 3.37 0 01-1.25.815c-.384.148-.96.326-2.02.374-1.148.052-1.492.063-4.397.063-2.905 0-3.248-.01-4.395-.063-1.061-.048-1.637-.226-2.02-.374a3.37 3.37 0 01-1.251-.814 3.37 3.37 0 01-.814-1.251c-.149-.383-.326-.96-.375-2.02-.052-1.147-.063-1.491-.063-4.396 0-2.904.011-3.248.063-4.396.049-1.06.226-1.636.375-2.02a3.37 3.37 0 01.814-1.25 3.37 3.37 0 011.25-.814c.384-.15.96-.326 2.02-.375 1.148-.052 1.492-.063 4.396-.063z"/><path d="M22.378 26.111a3.626 3.626 0 110-7.252 3.626 3.626 0 010 7.252zm0-9.212a5.586 5.586 0 100 11.172 5.586 5.586 0 000-11.172zM29.49 16.678a1.305 1.305 0 11-2.61 0 1.305 1.305 0 012.61 0"/></g><circle stroke="currentColor" cx="22.5" cy="22.5" r="22.5"/></g></svg>