<svg version="1.1" id="Layer_1" xmlns="http://www.w3.org/2000/svg" x="0" y="0" viewBox="0 0 62 62" xml:space="preserve"><style>.st0{fill:#fff}</style><path d="M31 61c16.5 0 30-13.5 30-30S47.5 1 31 1 1 14.5 1 31s13.5 30 30 30"/><path class="st0" d="M11.9 51.3h5.9c1.8 0 3.2-1.5 3.2-3.2V37.6h5.6c1.8 0 3.2-1.5 3.2-3.2v-.3L21 13.6c-.1-1.7-1.5-3-3.2-3h-5.9C16.9 6 23.6 3.1 31 3.1S45.1 6 50.1 10.7h-6.3c-1.8 0-3.2 1.5-3.2 3.2v13.4H36c-.7 0-1.2.6-1.2 1.2v7.7c0 .7.6 1.2 1.2 1.2h4.6V48c0 1.8 1.5 3.2 3.2 3.2h6.3c-5 4.7-11.7 7.6-19.1 7.6S16.9 56 11.9 51.3zM9.6 13.2h8.2c.4 0 .8.3.8.8v.3l8.8 20.4c-.1.3-.4.6-.7.6h-8.1v6.2c-.7.3-1.5.4-2.5.4-2-.1-4.2-.9-6.4-2.1-.3-.2-.7-.1-.8.2-.2.3-.1.7.2.8 2.3 1.3 4.8 2.2 6.9 2.3h.5c.8 0 1.5-.1 2.1-.3v5.5c0 .4-.3.8-.8.8H9.6C5.5 44 3.1 37.8 3.1 31s2.4-13 6.5-17.8zm34.2 35.6c-.4 0-.8-.3-.8-.8v-5.5c.6.2 1.3.3 2.1.3h.5c2.1-.1 4.6-.9 6.9-2.3.3-.2.4-.6.2-.8-.2-.3-.6-.4-.8-.2-2.1 1.3-4.4 2-6.4 2.1-1 .1-1.9-.1-2.5-.4v-5c0-.7-.6-1.2-1.2-1.2h-4.6v-5.2h4.6c.7 0 1.2-.6 1.2-1.2V13.9c0-.4.3-.8.8-.8h8.6c4 4.8 6.5 11.1 6.5 17.8s-2.4 13-6.5 17.8h-8.6v.1zM31 0C13.9 0 0 13.9 0 31s13.9 31 31 31 31-13.9 31-31S48.1 0 31 0z"/><path class="st0" d="M11.5 31.5c1.4 0 2.5-1.1 2.5-2.5s-1.1-2.5-2.5-2.5S9 27.6 9 29s1.1 2.5 2.5 2.5m38.6-5c-1.4 0-2.5 1.1-2.5 2.5s1.1 2.5 2.5 2.5 2.5-1.1 2.5-2.5-1.1-2.5-2.5-2.5"/></svg>