<?xml version="1.0" encoding="utf-8"?>
<!-- Generator: Adobe Illustrator 21.0.0, SVG Export Plug-In . SVG Version: 6.00 Build 0)  -->
<svg version="1.1" id="Layer_1" xmlns="http://www.w3.org/2000/svg" xmlns:xlink="http://www.w3.org/1999/xlink" x="0px" y="0px"
	 viewBox="0 0 62 62" style="enable-background:new 0 0 62 62;" xml:space="preserve">
<style type="text/css">
	.st0{fill:#FFFFFF;}
</style>
<g>
	<path d="M31,61c16.5,0,30-13.5,30-30S47.5,1,31,1S1,14.5,1,31S14.5,61,31,61"/>
	<path class="st0" d="M11.9,51.3h5.9c1.8,0,3.2-1.5,3.2-3.2V37.6h5.6c1.8,0,3.2-1.5,3.2-3.2v-0.3L21,13.6c-0.1-1.7-1.5-3-3.2-3h-5.9
		C16.9,6,23.6,3.1,31,3.1S45.1,6,50.1,10.7h-6.3c-1.8,0-3.2,1.5-3.2,3.2v13.4H36c-0.7,0-1.2,0.6-1.2,1.2v7.7c0,0.7,0.6,1.2,1.2,1.2
		h4.6v10.6c0,1.8,1.5,3.2,3.2,3.2h6.3c-5,4.7-11.7,7.6-19.1,7.6S16.9,56,11.9,51.3L11.9,51.3z M9.6,13.2h8.2c0.4,0,0.8,0.3,0.8,0.8
		v0.3l8.8,20.4c-0.1,0.3-0.4,0.6-0.7,0.6h-8.1v6.2c-0.7,0.3-1.5,0.4-2.5,0.4c-2-0.1-4.2-0.9-6.4-2.1c-0.3-0.2-0.7-0.1-0.8,0.2
		c-0.2,0.3-0.1,0.7,0.2,0.8c2.3,1.3,4.8,2.2,6.9,2.3c0.2,0,0.4,0,0.5,0c0.8,0,1.5-0.1,2.1-0.3v5.5c0,0.4-0.3,0.8-0.8,0.8H9.6
		C5.5,44,3.1,37.8,3.1,31S5.5,18,9.6,13.2L9.6,13.2z M43.8,48.8c-0.4,0-0.8-0.3-0.8-0.8v-5.5c0.6,0.2,1.3,0.3,2.1,0.3
		c0.2,0,0.3,0,0.5,0c2.1-0.1,4.6-0.9,6.9-2.3c0.3-0.2,0.4-0.6,0.2-0.8c-0.2-0.3-0.6-0.4-0.8-0.2c-2.1,1.3-4.4,2-6.4,2.1
		c-1,0.1-1.9-0.1-2.5-0.4v-5c0-0.7-0.6-1.2-1.2-1.2h-4.6v-5.2h4.6c0.7,0,1.2-0.6,1.2-1.2V13.9c0-0.4,0.3-0.8,0.8-0.8h8.6
		c4,4.8,6.5,11.1,6.5,17.8s-2.4,13-6.5,17.8H43.8L43.8,48.8z M31,0C13.9,0,0,13.9,0,31s13.9,31,31,31c17.1,0,31-13.9,31-31
		S48.1,0,31,0L31,0z"/>
	<path class="st0" d="M11.5,31.5c1.4,0,2.5-1.1,2.5-2.5c0-1.4-1.1-2.5-2.5-2.5C10.1,26.5,9,27.6,9,29C9,30.4,10.1,31.5,11.5,31.5
		 M50.1,26.5c-1.4,0-2.5,1.1-2.5,2.5c0,1.4,1.1,2.5,2.5,2.5c1.4,0,2.5-1.1,2.5-2.5C52.6,27.6,51.5,26.5,50.1,26.5"/>
</g>
</svg>
