<svg xmlns="http://www.w3.org/2000/svg" viewBox="0 0 100 100"><circle cx="50" cy="50" r="49"/><g fill="currentColor"><path d="M50 5c24.8 0 45 20.2 45 45S74.8 95 50 95 5 74.8 5 50 25.2 5 50 5m0-5C22.4 0 0 22.4 0 50s22.4 50 50 50 50-22.4 50-50S77.6 0 50 0z"/><circle cx="18.5" cy="47.8" r="4"/><circle cx="81.9" cy="47.8" r="4"/></g><g fill="none" stroke="currentColor" stroke-miterlimit="10"><g stroke-width="2" stroke-linecap="round"><path class="st3" d="M32.6 65.6c-2.2 3.8-10 3.4-17.5-1M66.8 65.6c2.2 3.8 10 3.4 17.5-1"/><g stroke-linejoin="round"><path class="st5" d="M59.7 76.4l-9.9 7.3M58.7 69l-13.9 3.5M58.9 63.9l-11-2.9"/></g></g><g stroke-width="4"><path d="M14.3 19.2h14.4c1.8 0 3.2 1.4 3.2 3.2l14.2 27c0 1.8-1.4 3.2-3.2 3.2h-11v24.9c0 1.8-1.4 3.2-3.2 3.2H14.8"/><path stroke-linejoin="round" d="M86 19.2H70.7c-1.8 0-3.2 1.4-3.2 3.2V40H58v12.4h9.4v25c0 1.8 1.4 3.2 3.2 3.2h15.5"/></g></g></svg>