<svg xmlns="http://www.w3.org/2000/svg" viewBox="0 0 118.63 100.67"><defs><style>.cls-1{fill:#fab532;}.cls-2{fill:#dd812a;}.cls-3{fill:#75284c;}.cls-4{fill:#8ed2c8;}.cls-5{fill:#11afb9;}</style></defs><title>Asset 1</title><g id="Layer_2" data-name="Layer 2"><g id="Layer_1-2" data-name="Layer 1"><path class="cls-1" d="M28.29,85C19.6,83,11.82,79.33,6.11,72.28,1.94,67.14.24,61,0,54.41-.46,40.69,13.25,36.9,14.61,35.53c-2.07-12.84,2.25-20.42,13.78-25.12,9.9-4,20.28-1.07,27.29,6.66,1-1.93,1.89-3.72,2.88-5.44,3.22-5.53,7.74-9.5,14-11.12C78.59-1,86,1,89.76,5.89c6.5,8.51,3.29,32.79,3,34.13a11.6,11.6,0,0,1-.95-.75c-4.8-4.61-9.36-4.47-14.2,0-4.1,3.73-6,8.46-7.21,13.76-6.72-2.87-13.07-2-19,1.32s-10,8.3-11.18,15.07a27.85,27.85,0,0,0-6.93,1.27C28.74,74.6,25.71,78.85,28.29,85Z"/><path class="cls-2" d="M90.48,55c1.08-3.88,2.81-10.34,2.26-15a11.6,11.6,0,0,1-.95-.75c-4.8-4.61-9.36-4.47-14.2,0-4.1,3.73-6,8.46-7.21,13.76-6.72-2.87-13.07-2-19,1.32s-10,8.3-11.18,15.07c-2.75,0-17.27,0-12,15.63C35.8,89.14,56.34,89,62,86.17c0-2.46,5.06-2.17,3.68-4.76a8.93,8.93,0,0,1,2.54-2.22c2-1.63-1.46-3.68.74-4.7,1.36-.28,2.07,1.14,3,1.59,1.12-.3,1-2.31,2-2.31,2,.06,1,2.81,2.29,2.87s1.66-1.54,2.34-2.09c1-.1,1.38.58,1.86,1C83.76,71.25,89.42,58.8,90.48,55Z"/><path class="cls-3" d="M60.88,86.57c-.71-2.73,3.53-4.75,3.53-4.75a10.39,10.39,0,0,1-.63-2.32c-.57-4.29,4-2.47,4-2.47s-1.58-4.34.36-5.77,4,1.59,4,1.59.79-2.74,2.69-2.75S77,73.73,77,73.73a6.21,6.21,0,0,1,2.63-2.44,1.8,1.8,0,0,1,2.59,1.51c-1,2.18-3.63,5-3.75,5.24s0,.49.09.78c1.8,9.71,5.5,11.24,11.21,17.62a19.39,19.39,0,0,1,2.4,4.23c-5.58-.41-10.94-5.48-13.61-9s-4.87-8-6.37-9.13C69.77,81.56,65.87,86.16,60.88,86.57Z"/><path class="cls-4" d="M94.43,97.57s13.5-1.63,19-10.94,5.15-33.91,5.15-33.91a38.39,38.39,0,0,1-8.64,8c-6,4-12.61,8.21-16.37,13.84C87,84.41,92.85,94.38,94.43,97.57Z"/><path class="cls-5" d="M94.43,97.57s13.5-1.63,19-10.94,5-29.61,5-29.61-4.28,18.21-9,25A78.26,78.26,0,0,1,94.43,97.57Z"/></g></g></svg>