<svg xmlns="http://www.w3.org/2000/svg" width="360" height="360" viewBox="0 0 360 360" xmlns:xlink="http://www.w3.org/1999/xlink">
	<title>Kiva 100% promise logo</title>
	<defs>
		<polygon id="a" points=".155 .765 .155 46.395 185.551 46.395 185.551 .765 .155 .765"/>
		<polygon id="c" points=".404 26.235 69.086 26.235 69.086 .529 .404 .529 .404 26.235"/>
	</defs>
	<g fill-rule="evenodd" transform="rotate(-13 201.054 155.558)">
		<path fill="currentColor" d="M38.5579335,209.143835 L88.7179335,209.143835 L88.7179335,196.603835 L72.4379335,196.603835 L72.4379335,133.243835 L58.0279335,133.243835 C54.3979335,137.643835 47.3579335,140.283835 39.5479335,141.163835 L42.4079335,154.033835 C48.1279335,153.813835 53.4079335,152.163835 56.3779335,149.963835 L56.3779335,196.603835 L38.5579335,196.603835 L38.5579335,209.143835 Z M157.577933,171.413835 C157.577933,149.303835 149.437933,132.143835 128.427933,132.143835 C107.417933,132.143835 99.2779335,149.303835 99.2779335,171.413835 C99.2779335,193.523835 107.417933,210.683835 128.427933,210.683835 C149.437933,210.683835 157.577933,193.523835 157.577933,171.413835 L157.577933,171.413835 Z M141.407933,171.413835 C141.407933,186.483835 137.777933,198.143835 128.427933,198.143835 C119.077933,198.143835 115.447933,186.483835 115.447933,171.413835 C115.447933,156.343835 119.077933,144.683835 128.427933,144.683835 C137.777933,144.683835 141.407933,156.343835 141.407933,171.413835 L141.407933,171.413835 Z M223.577933,171.413835 C223.577933,149.303835 215.437933,132.143835 194.427933,132.143835 C173.417933,132.143835 165.277933,149.303835 165.277933,171.413835 C165.277933,193.523835 173.417933,210.683835 194.427933,210.683835 C215.437933,210.683835 223.577933,193.523835 223.577933,171.413835 L223.577933,171.413835 Z M207.407933,171.413835 C207.407933,186.483835 203.777933,198.143835 194.427933,198.143835 C185.077933,198.143835 181.447933,186.483835 181.447933,171.413835 C181.447933,156.343835 185.077933,144.683835 194.427933,144.683835 C203.777933,144.683835 207.407933,156.343835 207.407933,171.413835 L207.407933,171.413835 Z M260.867933,210.683835 L309.047933,130.603835 L296.177933,130.603835 L247.997933,210.683835 L260.867933,210.683835 Z M269.117933,152.823835 C269.117933,142.813835 264.387933,132.143835 250.307933,132.143835 C236.227933,132.143835 231.497933,142.813835 231.497933,152.823835 C231.497933,162.833835 236.227933,173.503835 250.307933,173.503835 C264.387933,173.503835 269.117933,162.833835 269.117933,152.823835 L269.117933,152.823835 Z M243.047933,152.823835 C243.047933,146.443835 245.247933,141.713835 250.307933,141.713835 C255.367933,141.713835 257.567933,146.443835 257.567933,152.823835 C257.567933,159.203835 255.367933,163.933835 250.307933,163.933835 C245.247933,163.933835 243.047933,159.203835 243.047933,152.823835 L243.047933,152.823835 Z M324.447933,190.003835 C324.447933,179.993835 319.717933,169.323835 305.637933,169.323835 C291.557933,169.323835 286.827933,179.993835 286.827933,190.003835 C286.827933,200.013835 291.557933,210.683835 305.637933,210.683835 C319.717933,210.683835 324.447933,200.013835 324.447933,190.003835 L324.447933,190.003835 Z M298.377933,190.003835 C298.377933,183.623835 300.577933,178.893835 305.637933,178.893835 C310.697933,178.893835 312.897933,183.623835 312.897933,190.003835 C312.897933,196.383835 310.697933,201.113835 305.637933,201.113835 C300.577933,201.113835 298.377933,196.383835 298.377933,190.003835 L298.377933,190.003835 Z"/>
		<rect width="266.329" height="5.162" x="43.957" y="237.441" fill="currentColor"/>
		<rect width="266.329" height="5.162" x="43.957" y="105.816" fill="currentColor"/>
		<rect width="116.357" height="5.162" x="118.943" y="258.088" fill="currentColor"/>
		<rect width="116.357" height="5.162" x="118.943" y="85.169" fill="currentColor"/>
		<ellipse cx="175.829" cy="175.5" stroke="currentColor" stroke-width="3" rx="175.829" ry="175.5"/>
		<g transform="translate(65.933 11.352)">
			<path fill="currentColor" d="M196.832329,55.7031838 C193.964771,59.3602941 190.380971,59.3060956 188.133986,57.5510956 C185.677557,55.6360809 186.0499,51.904125 188.6925,48.5386544 C191.296314,45.2170588 194.949929,43.9782353 197.530471,45.9964853 C199.653343,47.6559926 200.447157,51.0911471 197.6158,54.7043824 L196.832329,55.7031838 L196.832329,55.7031838 Z M210.932229,49.9658824 L205.1454,45.4493382 L203.030286,48.1489412 C203.656029,45.2893235 202.236471,42.3058235 199.531814,40.1895 C194.624129,36.3568897 187.622014,37.3195588 182.572114,43.7588603 C177.4886,50.2394559 178.137614,57.1149265 182.884986,60.8210735 C186.215386,63.4226029 189.483729,63.3632426 191.885857,62.3592794 L189.636286,65.2266397 L195.423114,69.7431838 L210.932229,49.9658824 L210.932229,49.9658824 Z"/>
			<g fill="currentColor" transform="translate(108.6)">
				<polyline points="10.77 1.43 3.17 .968 .996 36.729 8.595 37.191 10.77 1.43"/>
				<path d="M11.3435286 24.1415735C23.5351714 24.8797059 27.0000286 14.8891103 27.1086286 13.1521765L26.0562429 13.0876544C13.8646 12.3495221 10.3971571 22.3401176 10.2885571 24.0770515L11.3435286 24.1415735M10.2316714 25.0242353C10.1230714 26.8669853 11.5995143 37.3711765 24.7375286 38.1686691L25.7950857 38.2306103C25.9036857 36.3878603 24.4272429 25.88625 11.2892286 25.0913382L10.2316714 25.0242353"/>
			</g>
			<polyline fill="currentColor" points="140.761 40.303 148.208 41.877 153.431 17.31 145.984 15.733 140.761 40.303"/>
			<path fill="currentColor" d="M155.592771,10.7003382 C156.086643,8.37496324 154.8093,6.00313235 152.068443,5.42243382 C149.327586,4.84173529 147.191786,6.4935 146.697914,8.81629412 C146.201457,11.1390882 147.483971,13.5135 150.224829,14.0941985 C152.9631,14.6748971 155.0989,13.0231324 155.592771,10.7003382"/>
			<g transform="translate(0 19.066)">
				<mask id="b" fill="white">
					<use xlink:href="#a"/>
				</mask>
				<path fill="currentColor" d="M159.083486,27.2838897 L167.055243,30.9487426 L185.550857,11.8011765 L178.6832,8.64475735 C178.6832,8.64475735 169.211729,19.3347721 166.295043,22.7596029 L166.196786,22.7131471 C166.907857,18.2766103 168.839386,4.12047059 168.839386,4.12047059 L161.545086,0.765323529 L159.083486,27.2838897" mask="url(#b)"/>
				<polyline fill="currentColor" points="0 23 22.933 7.976 26.317 13.13 17.976 18.597 33.57 42.312 27.331 46.395 11.737 22.687 3.39 28.154 0 23" mask="url(#b)"/>
			</g>
			<path fill="currentColor" d="M30.5347 21.9710515L37.0041571 19.0107794 42.9590571 31.9668088C43.0754143 29.8504853 44.2932857 27.0657132 47.7969286 25.4604044 51.9754429 23.5505515 56.4564857 24.4254706 58.6827857 29.2723676L65.4418429 43.9782353 58.9749714 46.9385074 53.1002286 34.1605588C51.7608286 31.2467426 49.7801714 30.9628456 47.9417286 31.8016324 45.8292 32.7694632 44.5647857 35.4639044 46.3799571 39.4074926L51.4272714 50.3917279 44.9604 53.3545809 30.5347 21.9710515M73.3334429 26.3353235L82.355 24.3248162C81.5482571 21.1735588 79.3504 19.9398971 76.8396714 20.4999485 73.9953857 21.1322647 72.8809429 23.4008603 73.3334429 26.3353235L73.3334429 26.3353235zM90.4638 32.0752059C89.3829714 35.8510368 86.3266571 38.7080735 81.4034571 39.7997868 74.2643 41.3921912 68.4697143 37.8770294 66.7709 30.2711691 65.0901857 22.7582206 68.9894429 17.0880221 75.7433286 15.5885294 83.4616857 13.8696618 88.3771286 18.6417132 89.8587429 25.2849044L90.2362571 26.9676397 74.2229286 30.5318382C74.9081429 33.1591765 76.6483286 35.5026176 80.1674857 34.7154485 82.5799571 34.1837868 83.5806286 32.5449265 83.9452143 30.9989779L90.4638 32.0752059 90.4638 32.0752059z"/>
			<path fill="currentColor" d="M27.8219362,297.31202 C33.4859362,297.31202 37.9499362,292.70402 37.9499362,285.21602 C37.9499362,277.77602 33.4859362,273.12002 27.8219362,273.12002 C24.5099362,273.12002 21.7259362,274.70402 20.4299362,277.05602 L20.4299362,273.79202 L13.7579362,273.79202 L13.7579362,306.24002 L20.6699362,306.24002 L20.6699362,293.85602 C21.8219362,295.63202 23.9819362,297.31202 27.8219362,297.31202 L27.8219362,297.31202 Z M20.6219362,284.59202 C20.6219362,280.22402 23.5019362,278.44802 25.9019362,278.44802 C28.9739362,278.44802 30.8939362,281.37602 30.8939362,285.21602 C30.8939362,289.10402 28.9739362,291.98402 25.9019362,291.98402 C23.5499362,291.98402 20.6219362,290.25602 20.6219362,285.88802 L20.6219362,284.59202 Z" transform="rotate(33 26.67 289.68)"/>
			<path fill="currentColor" d="M62.1497722,297.462417 C61.6481436,296.649439 60.6914293,296.073902 59.8924436,295.761615 C57.8445579,294.958961 54.3460865,295.229954 52.4430007,300.071689 L48.5696007,309.935821 L42.1570293,307.427204 L50.467515,286.276873 L56.4793007,288.628057 L55.083015,292.181932 C57.4748007,289.890108 59.9751865,289.28102 63.0883865,290.499196 C63.8899579,290.814064 64.8363293,291.283784 65.6120436,292.052887 L62.1497722,297.462417"/>
			<g transform="translate(67.067 294.497)">
				<mask id="d" fill="white">
					<use xlink:href="#c"/>
				</mask>
				<path fill="currentColor" d="M17.1775714 13.444C17.8395143 9.63719853 16.8931429 6.41883824 13.5006857 5.83297794 10.1573571 5.25486029 8.18187143 7.96478676 7.51734286 11.7741691 6.85798571 15.5835515 7.80177143 18.79675 11.1476857 19.3774485 14.5401429 19.9607279 16.5156286 17.2533824 17.1775714 13.444L17.1775714 13.444zM24.0555714 14.6337868C22.7834 21.9712353 17.2861714 25.6722206 10.2659571 24.4540441 3.29487143 23.2487721-.632828571 17.91925.641928571 10.5818015 1.9141 3.24693382 7.40874286-.451470588 14.385.753801471 21.4052143 1.96939706 25.3303286 7.29891912 24.0555714 14.6337868L24.0555714 14.6337868zM33.0667857 3.68826471L39.7069 3.4405 39.8361857 6.87307353C40.8549571 4.63802941 42.9804143 2.65075 46.4194143 2.519125 49.5765714 2.40556618 52.1622857 3.74246324 53.4991 6.22011029 54.7635143 4.21734559 57.1734 2.12166912 60.6124 1.992625 64.7702286 1.83777206 68.3074857 4.28702941 68.4988286 9.39201471L69.0857857 25.0837794 62.2026143 25.3367059 61.6958143 11.6967426C61.5820429 8.69259559 60.1081857 7.64733824 58.3861 7.71186029 56.2373714 7.79186765 54.3446286 9.67849265 54.5023571 13.9214632L54.9393429 25.6076985 48.0587571 25.8632059 47.5519571 12.2696985C47.4356 9.17005882 45.9152 8.17641912 44.1931143 8.24094118 42.1400571 8.31836765 40.2033571 10.2540294 40.3585 14.4505441L40.7954857 26.1367794 33.9123143 26.3897059 33.0667857 3.68826471" mask="url(#d)"/>
			</g>
			<path fill="currentColor" d="M143.379986 295.83388L150.141629 294.527954 154.459772 316.83452 147.698129 318.143027 143.379986 295.83388 143.379986 295.83388zM144.600444 284.028924C146.994815 283.566946 148.947029 284.841902 149.409872 287.231799 149.826172 289.386836 148.660015 291.412829 146.123429 291.903196 143.589429 292.388402 141.753572 290.943108 141.334686 288.788071 140.871844 286.400755 142.206072 284.488321 144.600444 284.028924L144.600444 284.028924zM170.964386 296.365542C175.587644 295.353836 180.407415 295.134461 182.168286 299.829086 183.859344 304.34563 180.800444 308.44149 175.111872 310.562976 169.826672 312.539932 164.947429 311.915358 162.858172 308.108557L168.730329 304.846321C169.614644 306.65552 171.582372 306.732946 173.508729 306.015461 175.210129 305.380564 176.443515 304.306917 175.856558 302.742902 175.354929 301.403424 174.245658 301.310512 171.078158 301.981542 166.545401 302.959696 161.777344 303.313277 159.964758 298.484446 158.123729 293.570446 161.963515 289.789454 166.757429 288.000902 171.548758 286.20977 176.215972 286.811115 178.248344 290.184329L172.533915 293.740784C171.724586 292.259358 170.196429 291.861902 168.451072 292.514865 166.837586 293.116211 165.805886 294.316321 166.258386 295.524174 166.878958 297.175939 168.983729 296.79913 170.964386 296.365542M191.298444 284.475417L198.745301 279.535608C196.917201 276.96763 194.504729 276.61663 192.436158 277.989659 190.083158 279.548512 189.868544 281.984865 191.298444 284.475417L191.298444 284.475417zM208.764944 283.721799C209.103672 287.505373 207.335044 291.146998 203.272886 293.841439 197.377458 297.748895 190.920929 296.584917 186.739829 290.30563 182.610444 284.106351 184.159286 277.633498 189.736672 273.937674 196.107872 269.710189 202.202401 272.311718 205.856015 277.801255L206.781701 279.18977 193.560944 287.962189C195.094272 290.093998 197.480886 291.606395 200.387229 289.681057 202.378229 288.357064 202.714372 286.53238 202.502344 285.007079L208.764944 283.721799 208.764944 283.721799z"/>
		</g>
	</g>
</svg>