<svg xmlns="http://www.w3.org/2000/svg" width="360" height="360" xmlns:xlink="http://www.w3.org/1999/xlink"><defs><path id="a" d="M.155.765v45.63h185.396V.765H.155z"/><path id="c" d="M.404 26.235h68.682V.529H.404v25.706z"/></defs><g fill-rule="evenodd" transform="rotate(-13 201.054 155.558)"><path fill="currentColor" d="M38.558 209.144h50.16v-12.54h-16.28v-63.36h-14.41c-3.63 4.4-10.67 7.04-18.48 7.92l2.86 12.87c5.72-.22 11-1.87 13.97-4.07v46.64h-17.82v12.54zm119.02-37.73c0-22.11-8.14-39.27-29.15-39.27-21.01 0-29.15 17.16-29.15 39.27 0 22.11 8.14 39.27 29.15 39.27 21.01 0 29.15-17.16 29.15-39.27zm-16.17 0c0 15.07-3.63 26.73-12.98 26.73-9.35 0-12.98-11.66-12.98-26.73s3.63-26.73 12.98-26.73c9.35 0 12.98 11.66 12.98 26.73zm82.17 0c0-22.11-8.14-39.27-29.15-39.27-21.01 0-29.15 17.16-29.15 39.27 0 22.11 8.14 39.27 29.15 39.27 21.01 0 29.15-17.16 29.15-39.27zm-16.17 0c0 15.07-3.63 26.73-12.98 26.73-9.35 0-12.98-11.66-12.98-26.73s3.63-26.73 12.98-26.73c9.35 0 12.98 11.66 12.98 26.73zm53.46 39.27l48.18-80.08h-12.87l-48.18 80.08h12.87zm8.25-57.86c0-10.01-4.73-20.68-18.81-20.68-14.08 0-18.81 10.67-18.81 20.68s4.73 20.68 18.81 20.68c14.08 0 18.81-10.67 18.81-20.68zm-26.07 0c0-6.38 2.2-11.11 7.26-11.11s7.26 4.73 7.26 11.11c0 6.38-2.2 11.11-7.26 11.11s-7.26-4.73-7.26-11.11zm81.4 37.18c0-10.01-4.73-20.68-18.81-20.68-14.08 0-18.81 10.67-18.81 20.68s4.73 20.68 18.81 20.68c14.08 0 18.81-10.67 18.81-20.68zm-26.07 0c0-6.38 2.2-11.11 7.26-11.11s7.26 4.73 7.26 11.11c0 6.38-2.2 11.11-7.26 11.11s-7.26-4.73-7.26-11.11zM43.957 237.441h266.329v5.162H43.957zM43.957 105.816h266.329v5.162H43.957zM118.943 258.088H235.3v5.162H118.943zM118.943 85.169H235.3v5.162H118.943z"/><ellipse cx="175.829" cy="175.5" stroke="currentColor" stroke-width="3" rx="175.829" ry="175.5"/><path fill="currentColor" d="M262.765 67.055c-2.867 3.657-6.451 3.603-8.698 1.848-2.456-1.915-2.084-5.647.559-9.012 2.603-3.322 6.257-4.56 8.837-2.543 2.123 1.66 2.917 5.095.086 8.708l-.784 1zm14.1-5.737l-5.787-4.517-2.115 2.7c.626-2.86-.794-5.843-3.498-7.96-4.908-3.832-11.91-2.87-16.96 3.57-5.083 6.48-4.434 13.356.313 17.062 3.33 2.602 6.599 2.542 9 1.538l-2.249 2.868 5.787 4.516 15.51-19.777z"/><g fill="currentColor"><path d="M185.303 12.782l-7.6-.462-2.174 35.761 7.599.462 2.175-35.761M185.877 35.494c12.191.738 15.656-9.253 15.765-10.99l-1.053-.064c-12.191-.738-15.659 9.252-15.767 10.99l1.055.064m-1.112.882c-.109 1.843 1.368 12.347 14.506 13.145l1.057.062c.109-1.843-1.368-12.345-14.506-13.14l-1.057-.067"/></g><path fill="currentColor" d="M206.694 51.655l7.447 1.574 5.223-24.567-7.447-1.577-5.223 24.57M221.526 22.052c.494-2.325-.784-4.697-3.525-5.278-2.74-.58-4.876 1.072-5.37 3.394-.497 2.323.786 4.698 3.527 5.278 2.738.58 4.874-1.07 5.368-3.394"/><g transform="translate(65.933 30.418)"><mask id="b" fill="#fff"><use xlink:href="#a"/></mask><path fill="currentColor" d="M159.083 27.284l7.972 3.665L185.551 11.8l-6.868-3.156s-9.471 10.69-12.388 14.115l-.098-.047c.71-4.436 2.642-18.593 2.642-18.593L161.545.765l-2.462 26.519M0 23L22.933 7.976l3.384 5.154-8.341 5.467L33.57 42.312l-6.239 4.083-15.594-23.708-8.347 5.467L0 23" mask="url(#b)"/></g><path fill="currentColor" d="M96.468 33.323l6.47-2.96 5.954 12.956c.116-2.117 1.334-4.901 4.838-6.507 4.178-1.91 8.66-1.035 10.886 3.812l6.759 14.706-6.467 2.96-5.875-12.777c-1.34-2.914-3.32-3.198-5.158-2.36-2.113.968-3.377 3.663-1.562 7.606l5.047 10.985-6.467 2.963-14.425-31.384m42.798 4.364l9.022-2.01c-.807-3.151-3.005-4.385-5.515-3.825-2.845.632-3.96 2.9-3.507 5.835zm17.13 5.74c-1.08 3.776-4.136 6.633-9.06 7.725-7.139 1.592-12.933-1.923-14.632-9.529-1.68-7.513 2.218-13.183 8.972-14.682 7.719-1.72 12.634 3.053 14.116 9.696l.377 1.683-16.013 3.564c.685 2.627 2.425 4.97 5.944 4.183 2.413-.531 3.414-2.17 3.778-3.716l6.519 1.076zM89.412 308.06c4.75 3.085 11.004 1.652 15.082-4.628 4.053-6.24 2.845-12.576-1.906-15.661-2.777-1.804-5.975-1.992-8.343-.725l1.778-2.737-5.596-3.634-17.672 27.213 5.797 3.765 6.744-10.387c0 2.117.896 4.703 4.116 6.794zm.89-14.59c2.379-3.662 5.761-3.583 7.774-2.276 2.577 1.673 2.592 5.174.5 8.395-2.117 3.26-5.296 4.63-7.872 2.957-1.973-1.281-3.487-4.325-1.108-7.988l.706-1.087zM128.083 308.814c-.502-.813-1.459-1.388-2.258-1.7-2.047-.803-5.546-.532-7.449 4.31l-3.873 9.864-6.413-2.509 8.31-21.15 6.012 2.351-1.396 3.554c2.392-2.292 4.892-2.901 8.005-1.683.802.315 1.748.785 2.524 1.554l-3.462 5.41"/><g transform="translate(133 305.849)"><mask id="d" fill="#fff"><use xlink:href="#c"/></mask><path fill="currentColor" d="M17.178 13.444c.662-3.807-.285-7.025-3.677-7.611-3.344-.578-5.32 2.132-5.984 5.941-.659 3.81.285 7.023 3.63 7.603 3.393.584 5.369-2.124 6.03-5.933zm6.878 1.19c-1.273 7.337-6.77 11.038-13.79 9.82C3.295 23.249-.633 17.919.642 10.582 1.914 3.247 7.409-.451 14.385.754c7.02 1.215 10.945 6.545 9.67 13.88zm9.01-10.946l6.64-.248.13 3.433c1.019-2.235 3.144-4.222 6.583-4.354 3.158-.113 5.743 1.223 7.08 3.701 1.265-2.003 3.674-4.098 7.113-4.227 4.158-.155 7.695 2.294 7.887 7.399l.587 15.692-6.883.253-.507-13.64c-.114-3.004-1.588-4.05-3.31-3.985-2.149.08-4.041 1.966-3.884 6.21l.437 11.686-6.88.255-.507-13.593c-.116-3.1-1.637-4.094-3.359-4.03-2.053.078-3.99 2.014-3.834 6.21l.436 11.687-6.883.253-.845-22.702" mask="url(#d)"/></g><path fill="currentColor" d="M209.313 307.186l6.762-1.306 4.318 22.307-6.762 1.308-4.318-22.31zm1.22-11.805c2.395-.462 4.347.813 4.81 3.203.416 2.155-.75 4.18-3.287 4.671-2.534.485-4.37-.96-4.788-3.115-.463-2.387.871-4.3 3.265-4.76zm26.364 12.337c4.624-1.012 9.443-1.232 11.204 3.463 1.691 4.517-1.368 8.612-7.056 10.734-5.285 1.977-10.165 1.352-12.254-2.454l5.872-3.263c.885 1.81 2.852 1.887 4.779 1.17 1.701-.635 2.935-1.71 2.348-3.273-.502-1.34-1.611-1.432-4.779-.761-4.533.978-9.3 1.331-11.113-3.498-1.841-4.914 1.999-8.695 6.792-10.483 4.792-1.791 9.459-1.19 11.491 2.183l-5.714 3.557c-.81-1.482-2.338-1.88-4.083-1.226-1.613.601-2.645 1.801-2.193 3.01.621 1.65 2.726 1.274 4.706.84m20.334-11.89l7.447-4.94c-1.828-2.567-4.24-2.918-6.309-1.545-2.353 1.559-2.567 3.995-1.138 6.485zm17.467-.753c.339 3.783-1.43 7.425-5.492 10.12-5.896 3.907-12.352 2.743-16.533-3.536-4.13-6.2-2.58-12.673 2.997-16.368 6.37-4.228 12.465-1.626 16.119 3.863l.926 1.389-13.221 8.772c1.533 2.132 3.92 3.644 6.826 1.72 1.991-1.325 2.327-3.15 2.115-4.675l6.263-1.285z"/></g></svg>