<svg width="62" height="62" xmlns="http://www.w3.org/2000/svg"><g fill-rule="evenodd"><circle cx="31" cy="31" r="29"/><path d="M31.941 12.694c-6.011 0-10.884 4.873-10.884 10.884 0 2.555.882 4.901 2.355 6.758h7.547v-.604c-1.188-.224-2.29-.809-3.237-1.687l1.515-1.584c.688.757 1.739 1.326 2.841 1.326 1.033 0 1.757-.637 1.757-1.515 0-1.55-2.238-1.739-3.857-2.686-.947-.551-1.704-1.377-1.704-2.738 0-1.67 1.205-2.807 2.686-3.22v-1.98h2.066v1.859c.93.104 1.825.43 2.72 1.084l-1.205 1.722c-.481-.448-1.291-.792-2.083-.792-.878 0-1.859.379-1.859 1.309 0 1.946 5.562 1.343 5.562 5.407 0 1.825-1.395 3.167-3.134 3.512v.587h1.832s2.626.022 3.841 1.771a10.862 10.862 0 004.127-8.529c-.001-6.011-4.874-10.884-10.886-10.884z" fill="currentColor"/><path d="M31.03.625C14.299.625.687 14.236.687 30.967c0 16.731 13.612 30.344 30.343 30.344s30.343-13.612 30.343-30.343S47.761.625 31.03.625zm0 57.686c-7.296 0-13.929-2.879-18.837-7.553a687.031 687.031 0 004.501-4.533c.552-.562 1.105-.78 1.896-.77 3.357.046 6.715.02 10.073.02 3.488 0 6.979-.006 10.467.004 1.005.003 1.846-.286 2.555-1.045 1.012-1.082 2.086-2.104 3.133-3.151l6.913-6.912c.778-.778 1.197-1.662.742-2.759-.687-1.653-2.636-1.999-3.976-.676-2.555 2.52-5.066 5.083-7.635 7.588-.33.322-.893.559-1.354.567-2.6.054-5.201.026-7.801.026-1.316-.001-2.636.041-3.948-.037-.285-.017-.544-.463-.815-.712.264-.216.5-.501.801-.626.253-.105.584-.024.88-.025 2.139-.008 4.28.041 6.417-.042 1.45-.056 2.377-1.108 2.332-2.413-.046-1.312-1.039-2.246-2.504-2.25-6.089-.016-12.179-.028-18.269.027-.621.006-1.389.324-1.834.759a524.77 524.77 0 00-8.585 8.558 27.166 27.166 0 01-2.494-11.388c0-15.077 12.266-27.342 27.343-27.342s27.343 12.266 27.343 27.342c0 15.076-12.268 27.343-27.344 27.343z" fill="currentColor"/></g></svg>