<svg width="124" height="124" xmlns="http://www.w3.org/2000/svg"><g fill-rule="evenodd"><path d="M61.997 6.314c-30.679 0-55.638 24.761-55.638 55.197 0 30.435 24.959 55.196 55.638 55.196s55.638-24.761 55.638-55.196c0-30.436-24.959-55.197-55.638-55.197zm0 116.702C27.812 123.016 0 95.425 0 61.511S27.812.006 61.997.006s61.997 27.591 61.997 61.505-27.812 61.505-61.997 61.505z"/><path d="M33.53 90.471a2.092 2.092 0 00-2.96.004 2.092 2.092 0 00-.004 2.96c.816.815 2.14.813 2.96-.005.818-.818.82-2.143.004-2.959M66.814 66.82c2.667-2.668 2.674-6.988.014-9.648-2.66-2.66-6.98-2.653-9.647.015-2.668 2.667-2.674 6.986-.014 9.647 2.66 2.66 6.98 2.654 9.647-.015M53.895 53.902c2.384-2.383 2.39-6.242.013-8.618-2.376-2.376-6.234-2.37-8.617.013-2.384 2.383-2.39 6.241-.013 8.617 2.376 2.377 6.234 2.371 8.617-.012M50.91 64.989a6.076 6.076 0 00-7.457-4.298c-3.252.876-5.186 4.22-4.32 7.47a6.076 6.076 0 007.457 4.298 6.114 6.114 0 004.32-7.47M59.011 73.09c-3.25-.865-6.593 1.068-7.469 4.321a6.075 6.075 0 004.298 7.457c3.25.866 6.594-1.069 7.47-4.32a6.075 6.075 0 00-4.299-7.457M70.099 70.105c-2.384 2.383-2.39 6.241-.013 8.617 2.376 2.377 6.234 2.371 8.618-.012 2.383-2.383 2.389-6.242.012-8.618-2.376-2.377-6.234-2.37-8.617.013M73.085 59.018a6.074 6.074 0 007.456 4.298c3.252-.876 5.186-4.22 4.32-7.47a6.075 6.075 0 00-7.456-4.298 6.11 6.11 0 00-4.32 7.47M64.983 50.916a6.114 6.114 0 007.47-4.32 6.077 6.077 0 00-4.299-7.457c-3.25-.866-6.593 1.068-7.469 4.32a6.076 6.076 0 004.298 7.457M38.853 55.833a4.668 4.668 0 00-3.303-5.73 4.697 4.697 0 00-5.74 3.32 4.668 4.668 0 003.303 5.73 4.696 4.696 0 005.74-3.32M68.168 85.148a4.695 4.695 0 00-3.32 5.739 4.667 4.667 0 005.73 3.303 4.696 4.696 0 003.319-5.74 4.667 4.667 0 00-5.73-3.302M85.142 68.173a4.668 4.668 0 003.302 5.73 4.696 4.696 0 005.74-3.319 4.668 4.668 0 00-3.303-5.73 4.696 4.696 0 00-5.74 3.32M78.97 45.03a4.684 4.684 0 006.624-.01 4.684 4.684 0 00.009-6.623 4.683 4.683 0 00-6.623.01 4.684 4.684 0 00-.01 6.622M55.827 38.86a4.696 4.696 0 003.32-5.74 4.668 4.668 0 00-5.73-3.303 4.697 4.697 0 00-3.32 5.74 4.669 4.669 0 005.73 3.302M45.023 78.977a4.683 4.683 0 00-6.622.01 4.683 4.683 0 00-.01 6.622 4.684 4.684 0 006.622-.009 4.684 4.684 0 00.01-6.623M30.283 43.724c.832-1.44.327-3.287-1.128-4.127-1.456-.84-3.31-.352-4.143 1.088-.833 1.44-.328 3.288 1.127 4.127 1.456.838 3.31.351 4.144-1.088M25.341 62.054c.003-1.66-1.36-3.005-3.041-3.003-1.682.002-3.048 1.352-3.05 3.012-.003 1.66 1.359 3.006 3.04 3.003 1.683-.002 3.049-1.351 3.051-3.012M30.22 80.373c-.828-1.437-2.682-1.92-4.14-1.076-1.458.844-1.968 2.692-1.14 4.13.828 1.437 2.682 1.919 4.14 1.076 1.458-.844 1.969-2.692 1.14-4.13M43.612 93.771c-1.437-.828-3.286-.318-4.13 1.14-.842 1.459-.361 3.312 1.077 4.14 1.437.829 3.286.319 4.13-1.14.843-1.457.36-3.311-1.077-4.14M61.929 98.66c-1.661.002-3.01 1.367-3.012 3.05-.003 1.681 1.342 3.044 3.003 3.041 1.66-.002 3.01-1.369 3.012-3.05.003-1.683-1.342-3.044-3.003-3.042M80.262 93.727c-1.44.832-1.927 2.687-1.088 4.143.838 1.455 2.686 1.96 4.126 1.128 1.44-.833 1.927-2.688 1.088-4.144-.84-1.455-2.687-1.96-4.126-1.127M93.7 80.295c-.834 1.44-.328 3.287 1.128 4.127 1.455.838 3.31.351 4.142-1.088.833-1.44.328-3.288-1.128-4.127-1.455-.838-3.31-.351-4.143 1.088M98.64 61.964c-.002 1.661 1.36 3.006 3.042 3.004 1.682-.003 3.048-1.352 3.05-3.013.003-1.66-1.359-3.005-3.04-3.003-1.684.003-3.048 1.351-3.052 3.012M93.761 43.646c.829 1.437 2.683 1.92 4.141 1.075 1.458-.843 1.968-2.692 1.139-4.128-.827-1.438-2.682-1.92-4.14-1.077-1.458.844-1.968 2.693-1.14 4.13M80.37 30.248c1.436.828 3.286.318 4.13-1.14.842-1.459.361-3.312-1.077-4.14-1.437-.829-3.287-.32-4.13 1.139-.843 1.458-.36 3.312 1.077 4.14M62.053 25.36c1.66-.003 3.01-1.368 3.012-3.05.003-1.683-1.342-3.045-3.003-3.042-1.661.002-3.01 1.368-3.013 3.05-.002 1.682 1.343 3.044 3.004 3.042M43.72 30.292c1.44-.832 1.927-2.688 1.088-4.143-.839-1.456-2.687-1.96-4.126-1.128-1.44.833-1.927 2.688-1.088 4.143.839 1.456 2.686 1.961 4.126 1.128M33.612 33.619c.82-.819.82-2.143.005-2.96a2.094 2.094 0 00-2.96.005 2.093 2.093 0 00-.004 2.96 2.092 2.092 0 002.96-.005M23.182 51.656a2.087 2.087 0 00-1.476-2.562 2.099 2.099 0 00-2.565 1.484 2.087 2.087 0 001.475 2.561 2.1 2.1 0 002.566-1.483M23.151 72.464a2.086 2.086 0 00-2.56-1.476 2.1 2.1 0 00-1.484 2.566 2.087 2.087 0 002.56 1.476 2.098 2.098 0 001.484-2.566M51.536 100.849a2.1 2.1 0 00-2.566 1.483 2.086 2.086 0 001.476 2.56 2.099 2.099 0 002.566-1.482 2.086 2.086 0 00-1.476-2.561M72.345 100.818a2.098 2.098 0 00-1.483 2.566 2.087 2.087 0 002.56 1.475 2.098 2.098 0 001.484-2.565 2.086 2.086 0 00-2.56-1.476M90.382 90.388a2.093 2.093 0 00-.005 2.96 2.093 2.093 0 002.96-.005c.818-.819.82-2.144.004-2.96a2.092 2.092 0 00-2.959.005M100.812 72.352a2.087 2.087 0 001.477 2.56 2.099 2.099 0 002.564-1.484 2.085 2.085 0 00-1.475-2.56 2.099 2.099 0 00-2.566 1.484M100.843 51.542a2.085 2.085 0 002.56 1.476 2.098 2.098 0 001.483-2.565 2.085 2.085 0 00-2.56-1.476 2.098 2.098 0 00-1.483 2.565M90.465 33.536a2.093 2.093 0 002.96-.004c.817-.819.82-2.143.003-2.96a2.092 2.092 0 00-2.959.004 2.092 2.092 0 00-.004 2.96M72.459 23.157a2.099 2.099 0 002.564-1.483 2.085 2.085 0 00-1.475-2.56 2.1 2.1 0 00-2.566 1.483 2.086 2.086 0 001.477 2.56M51.65 23.188a2.1 2.1 0 001.483-2.565 2.087 2.087 0 00-2.561-1.475 2.1 2.1 0 00-1.484 2.564 2.087 2.087 0 002.561 1.476M42.182 42.189a3.73 3.73 0 00.009-5.275 3.73 3.73 0 00-5.275.008 3.73 3.73 0 00-.007 5.274 3.728 3.728 0 005.273-.007M34.93 69.256a3.73 3.73 0 00-4.564-2.644 3.73 3.73 0 00-2.63 4.572 3.73 3.73 0 004.564 2.644 3.73 3.73 0 002.63-4.572M54.744 89.07a3.729 3.729 0 00-4.571 2.63 3.73 3.73 0 002.644 4.564 3.728 3.728 0 004.57-2.63 3.728 3.728 0 00-2.643-4.563M81.811 81.818a3.73 3.73 0 00-.007 5.274 3.731 3.731 0 005.275-.008 3.73 3.73 0 00.007-5.274 3.729 3.729 0 00-5.275.008M89.064 54.75a3.728 3.728 0 004.564 2.644 3.729 3.729 0 002.63-4.57 3.73 3.73 0 00-4.563-2.645 3.73 3.73 0 00-2.63 4.572M69.25 34.936a3.73 3.73 0 004.571-2.63 3.729 3.729 0 00-2.644-4.564 3.728 3.728 0 00-4.57 2.63 3.73 3.73 0 002.642 4.564" fill="currentColor"/></g></svg>