<svg width="46" height="46" xmlns="http://www.w3.org/2000/svg"><g transform="translate(0 1)" fill-rule="evenodd"><circle stroke="currentColor" cx="22.971" cy="22.329" r="22"/><path d="M34.234 30.273V14.385c0-2.24-1.705-4.056-3.807-4.056H15.516c-2.103 0-3.807 1.816-3.807 4.056v15.888c0 2.24 1.704 4.056 3.807 4.056h14.911c2.102 0 3.807-1.816 3.807-4.056zM14.952 19.537h3.437v11.06h-3.437v-11.06zm3.711-3.506a1.994 1.994 0 01-3.986 0 1.993 1.993 0 013.986 0zm12.602 14.567H27.83v-5.38c0-1.282-.024-2.932-1.787-2.932-1.788 0-2.063 1.397-2.063 2.84v5.472h-3.435V19.537h3.298v1.511h.046c.459-.87 1.58-1.786 3.252-1.786 3.481 0 4.124 2.29 4.124 5.269v6.067z"/></g></svg>