<?xml version="1.0" encoding="UTF-8" standalone="no"?>
<svg width="46px" height="46px" viewBox="0 0 46 46" version="1.1" xmlns="http://www.w3.org/2000/svg" xmlns:xlink="http://www.w3.org/1999/xlink" xmlns:sketch="http://www.bohemiancoding.com/sketch/ns">
    <!-- Generator: Sketch 3.3.3 (12081) - http://www.bohemiancoding.com/sketch -->
    <title>LinkedIn</title>
    <desc>Created with Sketch.</desc>
    <defs></defs>
    <g id="Page-1" stroke-width="1" fill-rule="evenodd" sketch:type="MSPage">
        <g id="LinkedIn" sketch:type="MSLayerGroup" transform="translate(0.000000, 1.000000)">
            <circle id="Oval-1" stroke="currentColor" sketch:type="MSShapeGroup" cx="22.9712822" cy="22.32925" r="22"></circle>
            <path d="M34.2338782,30.2731375 L34.2338782,14.3849719 C34.2338782,12.1450292 32.5294126,10.32925 30.426952,10.32925 L15.5156124,10.32925 C13.4131517,10.32925 11.7086862,12.1450292 11.7086862,14.3849719 L11.7086862,30.2731375 C11.7086862,32.5130802 13.4131517,34.32925 15.5156124,34.32925 L30.426952,34.32925 C32.5294126,34.32925 34.2338782,32.5130802 34.2338782,30.2731375 L34.2338782,30.2731375 Z M14.9516233,19.5366449 L18.3894569,19.5366449 L18.3894569,30.5977046 L14.9516233,30.5977046 L14.9516233,19.5366449 Z M18.6632494,16.0312419 C18.6632494,17.1314893 17.7700063,18.0247324 16.6713212,18.0247324 C15.5695116,18.0247324 14.6774402,17.1314893 14.6774402,16.0312419 C14.6774402,14.9317757 15.5695116,14.0389232 16.6713212,14.0389232 C17.7700063,14.0389232 18.6632494,14.9317757 18.6632494,16.0312419 L18.6632494,16.0312419 Z M31.2651241,30.5977046 L27.829634,30.5977046 L27.829634,25.2187175 C27.829634,23.936072 27.8061995,22.2858963 26.0431478,22.2858963 C24.2547088,22.2858963 23.9801352,23.6833706 23.9801352,25.1257609 L23.9801352,30.5977046 L20.5454262,30.5977046 L20.5454262,19.5366449 L23.8426531,19.5366449 L23.8426531,21.0481668 L23.8887409,21.0481668 C24.3476655,20.1783582 25.4690038,19.2616807 27.1410518,19.2616807 C30.6222391,19.2616807 31.2651241,21.5527886 31.2651241,24.5305259 L31.2651241,30.5977046 L31.2651241,30.5977046 Z" id="Fill-4" fill="currentColor" sketch:type="MSShapeGroup"></path>
        </g>
    </g>
</svg>