<?xml version="1.0" encoding="UTF-8"?>
<svg width="16px" height="20px" viewBox="0 0 16 20" version="1.1" xmlns="http://www.w3.org/2000/svg" xmlns:xlink="http://www.w3.org/1999/xlink">
    <!-- Generator: Sketch 52.6 (67491) - http://www.bohemiancoding.com/sketch -->
    <title>Combined Shape</title>
    <desc>Created with Sketch.</desc>
    <g id="Rd5---Braintree" stroke-width="1" fill-rule="evenodd">
        <g id="desktop-viewports" transform="translate(-173.000000, -371.000000)">
            <g id="desk-card" transform="translate(70.000000, 120.000000)">
                <g id="form" transform="translate(13.000000, 65.000000)">
                    <g id="Desktop---Smaller-action-button" transform="translate(43.000000, 175.000000)">
                        <path d="M49.4567111,19 C49.4193376,18.7387176 49.4,18.4716171 49.4,18.2 L49.4,16.6 C49.4,13.5072054 51.9072054,11 55,11 C58.0927946,11 60.6,13.5072054 60.6,16.6 L60.6,18.2 C60.6,18.4716171 60.5806624,18.7387176 60.5432889,19 L61,19 C62.1045695,19 63,19.8954305 63,21 L63,28.2 C63,29.3045695 62.1045695,30.2 61,30.2 L49,30.2 C47.8954305,30.2 47,29.3045695 47,28.2 L47,21 C47,19.8954305 47.8954305,19 49,19 L49.4567111,19 Z M51.900814,19 L58.099186,19 C58.1649976,18.7443041 58.2,18.4762397 58.2,18.2 L58.2,16.6 C58.2,14.8326888 56.7673112,13.4 55,13.4 C53.2326888,13.4 51.8,14.8326888 51.8,16.6 L51.8,18.2 C51.8,18.4762397 51.8350024,18.7443041 51.900814,19 Z M55,27 C56.3254834,27 57.4,25.9254834 57.4,24.6 C57.4,23.2745166 56.3254834,22.2 55,22.2 C53.6745166,22.2 52.6,23.2745166 52.6,24.6 C52.6,25.9254834 53.6745166,27 55,27 Z" id="Combined-Shape"></path>
                    </g>
                </g>
            </g>
        </g>
    </g>
</svg>
