<?xml version="1.0" encoding="UTF-8" standalone="no"?>
<svg width="22px" height="22px" viewBox="0 0 22 22" version="1.1" xmlns="http://www.w3.org/2000/svg" xmlns:xlink="http://www.w3.org/1999/xlink" xmlns:sketch="http://www.bohemiancoding.com/sketch/ns">
    <!-- Generator: Sketch 3.3.3 (12081) - http://www.bohemiancoding.com/sketch -->
    <title>Magnify Glass</title>
    <desc>Magnifying glass icon.</desc>
    <defs></defs>
    <g id="Page-1" stroke-width="1" fill-rule="evenodd" sketch:type="MSPage">
        <path d="M16.3323674,13.8683044 C17.3074807,12.4146344 17.8313971,10.7053662 17.8313971,8.91569853 C17.8313971,6.53419495 16.9040434,4.29525038 15.2199751,2.611182 C13.5359067,0.927353606 11.2972021,3.55271368e-14 8.91569853,3.55271368e-14 C6.53419495,3.55271368e-14 4.29525038,0.927353606 2.611182,2.611182 C0.927353606,4.29525038 -1.77635684e-15,6.53419495 -1.77635684e-15,8.91569853 C-1.77635684e-15,11.2972021 0.927353606,13.5359067 2.61142199,15.2199751 C4.29549038,16.9040434 6.53419495,17.8313971 8.91593853,17.8313971 C10.725766,17.8313971 12.4527941,17.2952408 13.917024,16.2990076 L19.3092309,21.6873726 C19.5624291,21.9408109 20.0280259,21.8856113 20.3489037,21.5647335 L21.609375,20.3042622 C21.9302528,19.9833844 21.9852124,19.5177876 21.7317742,19.2645893 L16.3323674,13.8683044 Z M8.91569853,15.4160537 C5.33108324,15.4160537 2.41510335,12.5000738 2.41510335,8.91569853 C2.41510335,5.33132324 5.33132324,2.41510335 8.91569853,2.41510335 C12.5000738,2.41510335 15.4160537,5.33132324 15.4160537,8.91569853 C15.4160537,12.5000738 12.5000738,15.4160537 8.91569853,15.4160537 Z" id="Shape" sketch:type="MSShapeGroup" transform="translate(10.945529, 10.923282) rotate(-270.000000) translate(-10.945529, -10.923282) "></path>
    </g>
</svg>