<?xml version="1.0" encoding="utf-8"?>
<!-- Generator: Adobe Illustrator 15.1.0, SVG Export Plug-In  -->
<!DOCTYPE svg PUBLIC "-//W3C//DTD SVG 1.1//EN" "http://www.w3.org/Graphics/SVG/1.1/DTD/svg11.dtd" [
	<!ENTITY ns_flows "http://ns.adobe.com/Flows/1.0/">
]>
<svg version="1.1"
	 xmlns="http://www.w3.org/2000/svg" xmlns:xlink="http://www.w3.org/1999/xlink" xmlns:a="http://ns.adobe.com/AdobeSVGViewerExtensions/3.0/"
	 x="0px" y="0px" width="27px" height="25px" viewBox="0 0 27 25" overflow="visible" enable-background="new 0 0 27 25"
	 xml:space="preserve">
<defs>
</defs>
<path d="M24.857,9.41c1.021-2.766,1.103-4.993,0.227-6.652C23.644,0.031,20.301,0,20.159,0s-3.483,0.031-4.924,2.757
	c-0.718,1.358-0.788,3.102-0.231,5.206L8.646,9.639L0,7.057v15.026l8.613,2.571l8.657-2.28l9.445,2.547V9.912L24.857,9.41z
	 M7.63,22.274L2,20.593V9.742l5.63,1.681V22.274z M16.997,3.703C17.865,2.041,20.141,2,20.159,2c0.022,0,2.287,0.046,3.156,1.692
	c0.613,1.161,0.958,4.027-3.156,10.446C16.054,7.733,16.391,4.866,16.997,3.703z M9.63,22.318v-10.87l6.009-1.584
	c0.187,0.469,0.396,0.951,0.635,1.449v9.254L9.63,22.318z M24.716,22.31l-6.442-1.737v-5.682c0.333,0.529,0.681,1.067,1.06,1.622
	l0.826,1.211l0.826-1.211c1.296-1.898,2.321-3.646,3.082-5.244l0.648,0.175V22.31z"/>
<circle cx="20.159" cy="5.683" r="2"/>
</svg>
