<?xml version="1.0" encoding="UTF-8" standalone="no"?>
<svg width="26px" height="26px" viewBox="0 0 26 26" version="1.1" xmlns="http://www.w3.org/2000/svg" xmlns:xlink="http://www.w3.org/1999/xlink" xmlns:sketch="http://www.bohemiancoding.com/sketch/ns">
    <!-- Generator: Sketch 3.3.3 (12072) - http://www.bohemiancoding.com/sketch -->
    <title>Slice 1 Copy 2</title>
    <desc>Created with Sketch.</desc>
    <defs></defs>
    <g id="Page-1" stroke-width="1" fill-rule="evenodd" sketch:type="MSPage">
        <g id="match" sketch:type="MSLayerGroup">
            <path d="M13.0350769,1.68987854 L15.9809231,4.38973279 L20.0387692,3.84521457 L20.7470769,7.66966802 L24.3673846,9.49036437 L22.5667692,12.9784291 L24.3673846,16.4664939 L20.7470769,18.2871903 L20.0387692,22.1116437 L15.9809231,21.5677085 L13.0350769,24.2675628 L10.0886154,21.5677085 L6.03076923,22.1116437 L5.32184615,18.2871903 L1.70153846,16.4664939 L3.50215385,12.9784291 L1.70153846,9.49036437 L5.32184615,7.66966802 L6.03076923,3.84521457 L10.0886154,4.38973279 L13.0350769,1.68987854" id="Fill-1" sketch:type="MSShapeGroup"></path>
            <path d="M13.0350769,1.68987854 L15.9809231,4.38973279 L20.0387692,3.84521457 L20.7470769,7.66966802 L24.3673846,9.49036437 L22.5667692,12.9784291 L24.3673846,16.4664939 L20.7470769,18.2871903 L20.0387692,22.1116437 L15.9809231,21.5677085 L13.0350769,24.2675628 L10.0886154,21.5677085 L6.03076923,22.1116437 L5.32184615,18.2871903 L1.70153846,16.4664939 L3.50215385,12.9784291 L1.70153846,9.49036437 L5.32184615,7.66966802 L6.03076923,3.84521457 L10.0886154,4.38973279 L13.0350769,1.68987854 L13.0350769,1.68987854 Z" id="Stroke-2" stroke="currentColor" stroke-width="0.967" sketch:type="MSShapeGroup"></path>
            <path d="M13.0350769,3.3805668 L15.5390769,5.67640486 L18.9895385,5.21408907 L19.592,8.46545749 L22.6695385,10.0127287 L21.1396923,12.9784291 L22.6695385,15.9447126 L19.592,17.4919838 L18.9895385,20.7433522 L15.5390769,20.2810364 L13.0350769,22.5768745 L10.5292308,20.2810364 L7.08,20.7433522 L6.47692308,17.4919838 L3.39938462,15.9447126 L4.93046154,12.9784291 L3.39938462,10.0127287 L6.47692308,8.46545749 L7.08,5.21408907 L10.5292308,5.67640486 L13.0350769,3.3805668" id="Fill-4" fill="currentColor" sketch:type="MSShapeGroup"></path>
            <text id="2" sketch:type="MSTextLayer" font-family="PostGrotesk" font-size="14.8965517" font-weight="420">
                <tspan x="10.5745231" y="17.9657441">2</tspan>
            </text>
            <text id="x" sketch:type="MSTextLayer" font-family="PostGrotesk" font-size="8.64705882" font-weight="420">
                <tspan x="6.00898462" y="15">x</tspan>
            </text>
        </g>
    </g>
</svg>