<?xml version="1.0" encoding="utf-8"?>
<!-- Generator: Adobe Illustrator 21.0.0, SVG Export Plug-In . SVG Version: 6.00 Build 0)  -->
<svg version="1.1" id="Layer_1" xmlns="http://www.w3.org/2000/svg" xmlns:xlink="http://www.w3.org/1999/xlink" x="0px" y="0px"
	 viewBox="0 0 62 62" style="enable-background:new 0 0 62 62;" xml:space="preserve">
<style type="text/css">
	.st0{fill:#FFFFFF;}
</style>
<g>
	<path d="M31,61c16.5,0,30-13.5,30-30S47.5,1,31,1S1,14.5,1,31S14.5,61,31,61"/>
	<path class="st0" d="M41.9,56.7L27.6,42.4c-0.2-0.2-0.2-0.6,0-0.9l8.5-8.5c0.3-0.3,0.7-0.3,0.9,0l15.6,15.6
		C49.8,52.1,46.1,54.9,41.9,56.7L41.9,56.7z M10.6,50l14.1-14.1c1.2-1.2,1.2-3.2,0-4.4l-8.5-8.5c-1.2-1.2-3.2-1.2-4.4,0l-8.6,8.6
		c0-0.2,0-0.3,0-0.5C3.1,15.6,15.6,3.1,31,3.1c0.2,0,0.3,0,0.5,0L18.8,15.8c-0.6,0.6-0.9,1.4-0.9,2.2c0,0.8,0.3,1.6,0.9,2.2l8.5,8.5
		c0.6,0.6,1.4,0.9,2.2,0.9c0.8,0,1.6-0.3,2.2-0.9L50,10.6c5.5,5.1,8.9,12.4,8.9,20.4c0,5.7-1.7,11.1-4.7,15.5L38.8,31.2
		c-1.2-1.2-3.2-1.2-4.4,0l-8.5,8.5c-1.2,1.2-1.2,3.2,0,4.4l13.5,13.5c-2.6,0.8-5.4,1.3-8.3,1.3C22.9,58.9,15.7,55.5,10.6,50L10.6,50
		z M3.4,34.8l10.1-10.1c0.2-0.2,0.6-0.2,0.9,0l8.5,8.5c0.3,0.3,0.3,0.7,0,0.9l-14,14C6,44.3,4,39.8,3.4,34.8L3.4,34.8z M42.7,8.8
		c0.7,0.7,1.9,0.7,2.6,0c0.4-0.4,0.6-0.9,0.5-1.4c0.8,0.5,1.5,1,2.3,1.6l-18,18c-0.2,0.2-0.6,0.2-0.9,0l-8.5-8.5
		c-0.1-0.1-0.2-0.3-0.2-0.5c0-0.1,0-0.3,0.2-0.4L34.8,3.4c3,0.4,5.8,1.3,8.4,2.5C43,6,42.9,6.1,42.7,6.2C42,6.9,42,8.1,42.7,8.8
		L42.7,8.8z M31,0C13.9,0,0,13.9,0,31s13.9,31,31,31s31-13.9,31-31S48.1,0,31,0L31,0z"/>
	<path class="st0" d="M31.4,10.2c-0.2-0.2-0.6-0.2-0.9,0c-0.2,0.2-0.2,0.6,0,0.9l6.2,6.2c0.1,0.1,0.3,0.2,0.4,0.2
		c0.2,0,0.3-0.1,0.4-0.2c0.2-0.2,0.2-0.6,0-0.9L31.4,10.2 M27.9,16.8c-0.7,0.7-0.7,1.9,0,2.6c0.7,0.7,1.9,0.7,2.6,0
		c0.7-0.7,0.7-1.9,0-2.6C29.8,16.1,28.7,16.1,27.9,16.8 M35.3,6.2c-0.7,0.7-0.7,1.9,0,2.6c0.7,0.7,1.9,0.7,2.6,0
		c0.7-0.7,0.7-1.9,0-2.6C37.1,5.5,36,5.5,35.3,6.2 M44.5,42.7c-0.2-0.2-0.6-0.2-0.9,0l-6.2,6.2c-0.2,0.2-0.2,0.6,0,0.9
		c0.1,0.1,0.3,0.2,0.4,0.2c0.2,0,0.3-0.1,0.4-0.2l6.2-6.2C44.7,43.3,44.7,43,44.5,42.7 M37.3,40.4c-0.7-0.7-1.9-0.7-2.6,0
		c-0.7,0.7-0.7,1.9,0,2.6c0.7,0.7,1.9,0.7,2.6,0C38,42.2,38,41.1,37.3,40.4 M46.5,47.4c-0.7,0.7-0.7,1.9,0,2.6
		c0.7,0.7,1.9,0.7,2.6,0c0.7-0.7,0.7-1.9,0-2.6C48.4,46.7,47.2,46.7,46.5,47.4 M42.1,51.7c-0.7,0.7-0.7,1.9,0,2.6
		c0.7,0.7,1.9,0.7,2.6,0c0.7-0.7,0.7-1.9,0-2.6C43.9,51,42.8,51,42.1,51.7 M12.6,41.5c0.1,0.1,0.3,0.2,0.4,0.2s0.3-0.1,0.4-0.2
		c0.2-0.2,0.2-0.6,0-0.9l-6.2-6.2c-0.2-0.2-0.6-0.2-0.9,0c-0.2,0.2-0.2,0.6,0,0.9L12.6,41.5 M15.6,34.9c0.7-0.7,0.7-1.9,0-2.6
		c-0.7-0.7-1.9-0.7-2.6,0c-0.7,0.7-0.7,1.9,0,2.6C13.8,35.6,14.9,35.6,15.6,34.9"/>
</g>
</svg>
