<svg width="26" height="26" xmlns="http://www.w3.org/2000/svg"><g fill-rule="evenodd"><path d="M13.035 1.69l2.946 2.7 4.058-.545.708 3.825 3.62 1.82-1.8 3.488 1.8 3.488-3.62 1.821-.708 3.825-4.058-.544-2.946 2.7-2.946-2.7-4.058.544-.71-3.825-3.62-1.82 1.801-3.489-1.8-3.488 3.62-1.82.709-3.825 4.058.545 2.946-2.7"/><path d="M13.035 1.69l2.946 2.7 4.058-.545.708 3.825 3.62 1.82-1.8 3.488 1.8 3.488-3.62 1.821-.708 3.825-4.058-.544-2.946 2.7-2.946-2.7-4.058.544-.71-3.825-3.62-1.82 1.801-3.489-1.8-3.488 3.62-1.82.709-3.825 4.058.545 2.946-2.7h0z" stroke="currentColor" stroke-width=".967"/><path d="M13.035 3.38l2.504 2.296 3.45-.462.603 3.251 3.078 1.548-1.53 2.965 1.53 2.967-3.078 1.547-.602 3.251-3.45-.462-2.505 2.296-2.506-2.296-3.449.462-.603-3.251-3.078-1.547 1.531-2.967-1.53-2.965 3.077-1.548.603-3.25 3.45.461 2.505-2.295" fill="currentColor"/><text font-family="PostGrotesk" font-size="14.897" font-weight="420"><tspan x="10.575" y="17.966">2</tspan></text><text font-family="PostGrotesk" font-size="8.647" font-weight="420"><tspan x="6.009" y="15">x</tspan></text></g></svg>