<svg version="1.1" id="Layer_1" xmlns="http://www.w3.org/2000/svg" x="0" y="0" viewBox="0 0 62 62" xml:space="preserve"><style>.st0{fill:#fff}</style><path d="M31 61c16.5 0 30-13.5 30-30S47.5 1 31 1 1 14.5 1 31s13.5 30 30 30"/><path class="st0" d="M41.9 56.7L27.6 42.4c-.2-.2-.2-.6 0-.9l8.5-8.5c.3-.3.7-.3.9 0l15.6 15.6c-2.8 3.5-6.5 6.3-10.7 8.1zM10.6 50l14.1-14.1c1.2-1.2 1.2-3.2 0-4.4L16.2 23c-1.2-1.2-3.2-1.2-4.4 0l-8.6 8.6v-.5c-.1-15.5 12.4-28 27.8-28h.5L18.8 15.8c-.6.6-.9 1.4-.9 2.2 0 .8.3 1.6.9 2.2l8.5 8.5c.6.6 1.4.9 2.2.9.8 0 1.6-.3 2.2-.9L50 10.6c5.5 5.1 8.9 12.4 8.9 20.4 0 5.7-1.7 11.1-4.7 15.5L38.8 31.2c-1.2-1.2-3.2-1.2-4.4 0l-8.5 8.5c-1.2 1.2-1.2 3.2 0 4.4l13.5 13.5c-2.6.8-5.4 1.3-8.3 1.3-8.2 0-15.4-3.4-20.5-8.9zM3.4 34.8l10.1-10.1c.2-.2.6-.2.9 0l8.5 8.5c.3.3.3.7 0 .9l-14 14C6 44.3 4 39.8 3.4 34.8zm39.3-26c.7.7 1.9.7 2.6 0 .4-.4.6-.9.5-1.4.8.5 1.5 1 2.3 1.6l-18 18c-.2.2-.6.2-.9 0l-8.5-8.5c-.1-.1-.2-.3-.2-.5 0-.1 0-.3.2-.4L34.8 3.4c3 .4 5.8 1.3 8.4 2.5-.2.1-.3.2-.5.3-.7.7-.7 1.9 0 2.6zM31 0C13.9 0 0 13.9 0 31s13.9 31 31 31 31-13.9 31-31S48.1 0 31 0z"/><path class="st0" d="M31.4 10.2c-.2-.2-.6-.2-.9 0-.2.2-.2.6 0 .9l6.2 6.2c.1.1.3.2.4.2.2 0 .3-.1.4-.2.2-.2.2-.6 0-.9l-6.1-6.2m-3.5 6.6c-.7.7-.7 1.9 0 2.6.7.7 1.9.7 2.6 0 .7-.7.7-1.9 0-2.6-.7-.7-1.8-.7-2.6 0m7.4-10.6c-.7.7-.7 1.9 0 2.6.7.7 1.9.7 2.6 0 .7-.7.7-1.9 0-2.6-.8-.7-1.9-.7-2.6 0m9.2 36.5c-.2-.2-.6-.2-.9 0l-6.2 6.2c-.2.2-.2.6 0 .9.1.1.3.2.4.2.2 0 .3-.1.4-.2l6.2-6.2c.3-.3.3-.6.1-.9m-7.2-2.3c-.7-.7-1.9-.7-2.6 0-.7.7-.7 1.9 0 2.6.7.7 1.9.7 2.6 0 .7-.8.7-1.9 0-2.6m9.2 7c-.7.7-.7 1.9 0 2.6.7.7 1.9.7 2.6 0 .7-.7.7-1.9 0-2.6-.7-.7-1.9-.7-2.6 0m-4.4 4.3c-.7.7-.7 1.9 0 2.6.7.7 1.9.7 2.6 0 .7-.7.7-1.9 0-2.6-.8-.7-1.9-.7-2.6 0M12.6 41.5c.1.1.3.2.4.2s.3-.1.4-.2c.2-.2.2-.6 0-.9l-6.2-6.2c-.2-.2-.6-.2-.9 0-.2.2-.2.6 0 .9l6.3 6.2m3-6.6c.7-.7.7-1.9 0-2.6-.7-.7-1.9-.7-2.6 0-.7.7-.7 1.9 0 2.6.8.7 1.9.7 2.6 0"/></svg>