<svg xmlns="http://www.w3.org/2000/svg" width="124" height="124"><g fill-rule="evenodd"><path d="M62 6.4C31.3 6.4 6.4 31.3 6.4 62c0 30.7 25 55.6 55.6 55.6 30.7 0 55.6-25 55.6-55.6S92.7 6.4 62 6.4zM62 124C27.8 124 0 96.2 0 62S27.8 0 62 0s62 27.8 62 62-27.8 62-62 62z"/><path fill="currentColor" d="M83.1 40.2c-.3 0-.5-.1-.8-.3-.5-.4-.6-1.2-.2-1.8l8.2-10.3c.4-.5 1.2-.6 1.8-.2.5.4.6 1.2.2 1.8l-8.2 10.3c-.2.3-.6.5-1 .5zm22.8 30.4h-.2L93.1 68c-.7-.1-1.1-.8-1-1.5.1-.7.8-1.1 1.5-1l12.6 2.6c.7.1 1.1.8 1 1.5-.2.6-.7 1-1.3 1zM88.2 54c-.5 0-1-.3-1.2-.8-.2-.6.1-1.4.7-1.6l14.9-5.4c.6-.2 1.4.1 1.6.7.2.6-.1 1.4-.7 1.6L88.6 54h-.4zm3.1 28.3l-1.4-3.9-17-46.7-1.3-3.6c-.4-1-1.5-1.6-2.6-1.2-1 .4-1.6 1.5-1.2 2.6l.8 2.3-40.9 33.5-7.8-.9c-.7-.1-1.4.2-1.8.7-.4.5-.5 1.3-.3 1.9l7.4 20.2c.2.7.8 1.1 1.5 1.3h.4c.5 0 1.1-.2 1.5-.6l5.4-5.7 12.2-.3v.3l.1 4c.1 3.3 2.8 5.9 6 5.9h.1l12-.3c3.3-.1 5.9-2.8 5.9-6.1l-.1-4v-.3l16.6-.3.9 2.6c.3.8 1.1 1.3 1.9 1.3.2 0 .5 0 .7-.1.9-.4 1.4-1.6 1-2.6zm-63.5.5l-5.1-14.1 5 .6 3.6 9.8-3.5 3.7zm38.3 3c0 1.1-.9 2-2 2l-12 .3c-1.1 0-2-.9-2-2l-.1-4v-.3l16.1-.3v4.3zm-32.5-7.6l-3.5-9.7 32.6-26.7 6.5 17.9c.2.5.7.8 1.2.8.1 0 .3 0 .4-.1.6-.2 1-1 .7-1.6l-6.8-18.7 5.4-4.4 15.1 41.4-51.6 1.1z"/></g></svg>