<svg xmlns="http://www.w3.org/2000/svg" width="124" height="124" viewBox="0 0 124 124">
  <g fill-rule="evenodd">
    <path d="M62,6.4 C31.3,6.4 6.4,31.3 6.4,62 C6.4,92.7 31.4,117.6 62,117.6 C92.7,117.6 117.6,92.6 117.6,62 C117.6,31.4 92.7,6.4 62,6.4 L62,6.4 Z M62,124 C27.8,124 0,96.2 0,62 C0,27.8 27.8,0 62,0 C96.2,0 124,27.8 124,62 C124,96.2 96.2,124 62,124 L62,124 Z"/>
    <path fill="currentColor" d="M83.1 40.2C82.8 40.2 82.6 40.1 82.3 39.9 81.8 39.5 81.7 38.7 82.1 38.1L90.3 27.8C90.7 27.3 91.5 27.2 92.1 27.6 92.6 28 92.7 28.8 92.3 29.4L84.1 39.7C83.9 40 83.5 40.2 83.1 40.2zM105.9 70.6L105.7 70.6 93.1 68C92.4 67.9 92 67.2 92.1 66.5 92.2 65.8 92.9 65.4 93.6 65.5L106.2 68.1C106.9 68.2 107.3 68.9 107.2 69.6 107 70.2 106.5 70.6 105.9 70.6zM88.2 54C87.7 54 87.2 53.7 87 53.2 86.8 52.6 87.1 51.8 87.7 51.6L102.6 46.2C103.2 46 104 46.3 104.2 46.9 104.4 47.5 104.1 48.3 103.5 48.5L88.6 54 88.2 54zM91.3 82.3L89.9 78.4 89.9 78.4 72.9 31.7 72.9 31.7 71.6 28.1C71.2 27.1 70.1 26.5 69 26.9 68 27.3 67.4 28.4 67.8 29.5L68.6 31.8 27.7 65.3 19.9 64.4C19.2 64.3 18.5 64.6 18.1 65.1 17.7 65.6 17.6 66.4 17.8 67L25.2 87.2C25.4 87.9 26 88.3 26.7 88.5L27.1 88.5C27.6 88.5 28.2 88.3 28.6 87.9L34 82.2 46.2 81.9 46.2 82.2 46.3 86.2C46.4 89.5 49.1 92.1 52.3 92.1L52.4 92.1 64.4 91.8C67.7 91.7 70.3 89 70.3 85.7L70.2 81.7 70.2 81.4 86.8 81.1 87.7 83.7C88 84.5 88.8 85 89.6 85 89.8 85 90.1 85 90.3 84.9 91.2 84.5 91.7 83.3 91.3 82.3zM27.8 82.8L22.7 68.7 27.7 69.3 31.3 79.1 27.8 82.8zM66.1 85.8C66.1 86.9 65.2 87.8 64.1 87.8L52.1 88.1C51 88.1 50.1 87.2 50.1 86.1L50 82.1 50 81.8 66.1 81.5 66.1 81.8 66.1 85.8zM33.6 78.2L30.1 68.5 62.7 41.8 69.2 59.7C69.4 60.2 69.9 60.5 70.4 60.5 70.5 60.5 70.7 60.5 70.8 60.4 71.4 60.2 71.8 59.4 71.5 58.8L64.7 40.1 70.1 35.7 85.2 77.1 33.6 78.2z"/>
  </g>
</svg>
