<svg xmlns="http://www.w3.org/2000/svg" width="124" height="124"><g fill-rule="evenodd"><path d="M62 6.4C31.3 6.4 6.4 31.3 6.4 62c0 30.7 25 55.6 55.6 55.6 30.7 0 55.6-25 55.6-55.6S92.7 6.4 62 6.4zM62 124C27.8 124 0 96.2 0 62S27.8 0 62 0s62 27.8 62 62-27.8 62-62 62z"/><path fill="currentColor" d="M99.6 57.6l-.3-.2c-5.9-2.9-13.4-2.2-18.8 1.8-3.2-1.6-6.8-2.4-10.6-2.3-5.1.1-9.8 1.9-13.3 4.9-1.9-1.2-4-2.1-6.3-2.6-.2 0-.4-.1-.5-.1.4-1.4.7-2.8.9-4.2.2-1.3.1-2.2.1-3.1 0-.6-.1-1.2-.1-1.9 0-1.6 0-2.3.2-4 .1-1.2.3-2.4.6-3.6l9.9 2.5h.2c.4.1.8 0 1.2-.3l10.5-7c.7-.5 1-1.5.6-2.2L72 31.6c.5-.7.8-1.5.9-2.4.2-1.6-.4-3.1-1.5-4.3l-7.3-7.5c-1.7-1.8-4.4-2.1-6.6-.9l-16.9 10-.5.3c-.7.2-1.7.6-2.5 1.2-1.7 1.1-2.5 2.9-3.2 4.5-.2.4-.4.9-.6 1.2L23 53.7c-.9 1.7-2 5.3-3.1 8.8-.6 1.9-1.1 3.7-1.5 4.7-.2.4-.3.8-.4 1.2-.6 1.5-1.1 3-2 4.2-.6.8-.4 1.9.3 2.4l4.5 3.4c12 9.3 27.5 16.5 41.5 19.5 1.1.2 2.5.5 4.1.6 1.4.2 5.1.6 9.6.6 6 0 13.3-.7 17.9-3.7.1 0 .2-.1.2-.1l.1-.1c.4-.3.6-.8.6-1.3 0-1-.8-1.7-1.7-1.7-.3 0-.5.1-.7.2l-.3.2c-4.5 2.8-12.7 3.4-19.8 3.1V91c3.9-.9 6.6-4.1 6.6-7.8 0-5.4-4.3-7.1-7.7-8.4-2.4-1-3.9-1.6-3.9-2.9 0-1.8 2.1-2.2 3.4-2.2 1.4 0 3 .6 4 1.5.1.1.2.1.3.1h.1c.1 0 .3-.1.4-.2l2.5-3.6c.2-.2.1-.5-.1-.7-1.7-1.3-3.5-2-5.5-2.3v-4c2.3.2 4.4.8 6.4 1.7 2.4 1.5 5.2 4.5 6.4 7.8.2.5.7.8 1.2.8.1 0 .3 0 .4-.1.6-.2 1-.9.8-1.6-1-2.8-2.9-5.2-4.9-7.1l.8-.5c4.3-2.8 10-3.2 14.5-1l.2.1c.3.2.6.3 1 .3 1 0 1.7-.8 1.7-1.7-.2-.7-.7-1.3-1.3-1.6zM61.2 71.9c0 2.7 1.2 4.7 3.8 6.2 1.1.6 2.3 1.1 3.4 1.5 2.4.9 4.4 1.7 4.4 3.6 0 1.6-1.3 2.7-3.2 2.7-2 0-4.1-1-5.6-2.6-.1-.1-.2-.2-.4-.2-.1 0-.3.1-.4.2L60 86.6c.1.1 0 .3 0 .4 0 .1.1.3.2.4 2 1.8 4.2 3 6.6 3.6v4.2c-1.4-.2-2.8-.4-3.8-.6-13.5-2.8-28.5-9.9-40.1-18.8l-3.2-2.5c.6-1.2 1.1-2.4 1.5-3.6.1-.4.3-.8.4-1.1.4-1.1 1-2.9 1.6-5 .9-3 2-6.7 2.8-8.1l10.7-19.9c.2-.4.5-.9.7-1.4.6-1.2 1.2-2.5 2.1-3.1.5-.3 1.1-.6 1.7-.8.1 0 .2-.1.3-.1l17.7-10.4c.7-.4 1.7-.3 2.3.3l7.3 7.5c.4.4.6.9.5 1.5 0 .4-.2.8-.5 1.1-3.4 1.6-7.3 3.4-8.2 3.5-.4 0-.4-.1-1.1-1.1l-.1-.6c0-.4 1.1-1.2 3.1-2.4.6-.3.8-1.1.4-1.7-.3-.6-1.1-.8-1.7-.4-2.1 1.2-3.8 2.4-4.2 3.9-.2.7 0 1.4.3 2l.2.3c.8 1.3 1.3 2.1 3 2.3h.1c1 0 3.7-1 8.1-3.1l.4.8.9 1.9-8.6 5.7-9.4-2.5-.6-.1c.5-1.2 1.1-2.3 1.8-3.2.4-.5.4-1.3-.2-1.8-.5-.4-1.3-.4-1.8.2-1.1 1.4-1.8 2.9-2.3 4.2l-.1.3c-.8 2.3-1.3 4.7-1.5 7.1-.2 1.8-.2 2.6-.2 4.3 0 .8 0 1.4.1 2 .1.8.1 1.5 0 2.6-.3 1.9-.8 3.8-1.5 5.6-.8 2-2.9 5-4.8 7.2-.5.5-.4 1.3.1 1.8.2.2.5.3.8.3.3 0 .7-.1.9-.4 1.8-2 3.6-4.6 4.7-6.7.3-.1 1.4.2 1.9.3l.3.1c1.7.4 3.3 1 4.9 2l.5.4c-1.5 1.8-2.7 3.7-3 4.6-.3.6 0 1.4.7 1.6.2.1.3.1.5.1.5 0 1-.3 1.2-.8.3-.8 1.8-3.1 3.6-5l.3-.3c.2-.2.5-.5.8-.7.1 0 .1-.1.1-.2 2.2-1.8 4.9-3.1 7.9-3.6v4.1c-3.8 1.1-5.9 3.8-5.9 7.1z"/></g></svg>