<?xml version="1.0" encoding="UTF-8"?>
<svg width="15px" height="16px" viewBox="0 0 15 16" version="1.1" xmlns="http://www.w3.org/2000/svg" xmlns:xlink="http://www.w3.org/1999/xlink">
    <!-- Generator: Sketch 57.1 (83088) - https://sketch.com -->
    <title>outlined</title>
    <desc>Created with Sketch.</desc>
    <g id="Page-1">
        <g id="Artboard" transform="translate(-92.000000, -39.000000)">
            <g id="outlined" transform="translate(92.000000, 39.000000)">
                <path d="M10.9101244,0.00805566941 L11,0 C11.2454599,0 11.4496084,0.176875161 11.4919443,0.410124368 L11.5,0.5 L11.5,2 L14,2 C14.5522847,2 15,2.44771525 15,3 L15,5 L15,6 L15,15 C15,15.5522847 14.5522847,16 14,16 L1,16 C0.44771525,16 0,15.5522847 0,15 L0,3 C0,2.44771525 0.44771525,2 1,2 L3.5,2 L3.5,0.5 C3.5,0.254540111 3.67687516,0.0503916296 3.91012437,0.00805566941 L4,0 C4.24545989,0 4.44960837,0.176875161 4.49194433,0.410124368 L4.5,0.5 L4.5,2 L10.5,2 L10.5,0.5 C10.5,0.254540111 10.6768752,0.0503916296 10.9101244,0.00805566941 L11,0 Z M4,6 L1,6 L1,15 L14,15 L14,6 L11,6 L4,6 Z M3.5,3 L1,3 L1,5 L3.5,5 L3.5,3 Z M10.5,3 L4.5,3 L4.5,5 L10.5,5 L10.5,3 Z M14,3 L11.5,3 L11.5,5 L14,5 L14,3 Z" id="Combined-Shape"></path>
                <path d="M4.35831617,9.65981935 C4.16572035,9.4619268 3.84916698,9.45763294 3.65127443,9.65022876 C3.45338187,9.84282457 3.44908802,10.1593779 3.64168383,10.3572705 L6.29598071,13.0845654 C6.49631634,13.2904106 6.82849432,13.2855324 7.02269888,13.073893 L11.368402,8.33805319 C11.5551036,8.13459038 11.541516,7.81829961 11.3380532,7.63159799 C11.1345904,7.44489637 10.8182996,7.458484 10.631598,7.66194681 L6.64360744,12.0079603 L4.35831617,9.65981935 Z" id="Path-2"></path>
            </g>
        </g>
    </g>
</svg>
