<?xml version="1.0" encoding="utf-8"?>
<!-- Generator: Adobe Illustrator 15.1.0, SVG Export Plug-In  -->
<!DOCTYPE svg PUBLIC "-//W3C//DTD SVG 1.1//EN" "http://www.w3.org/Graphics/SVG/1.1/DTD/svg11.dtd" [
		<!ENTITY ns_flows "http://ns.adobe.com/Flows/1.0/">
		]>
<svg version="1.1"
	 xmlns="http://www.w3.org/2000/svg" xmlns:xlink="http://www.w3.org/1999/xlink" xmlns:a="http://ns.adobe.com/AdobeSVGViewerExtensions/3.0/"
	 x="0px" y="0px" width="57px" height="23px" viewBox="0 0 57 23" overflow="visible" enable-background="new 0 0 57 23"
	 xml:space="preserve">
<defs>
</defs>
<path d="M4.695,0.391H0v22.141h4.695V0.391z M17.594,22.532h4.695V7.011h-4.695V22.532z M29.753,22.532h5.413
	l5.413-15.521h-4.662c0,0-2.544,8.445-3.293,11.119h-0.066c-0.75-2.674-3.326-11.119-3.326-11.119h-4.956L29.753,22.532z
	 M6.216,14.222c7.37,0,9.092-6.158,9.092-7.21h-0.637c-7.372,0-9.094,6.157-9.094,7.21H6.216z M5.577,15.191
	c0,1.117,1.276,7.403,9.222,7.403h0.638c0-1.119-1.277-7.403-9.221-7.403H5.577z M22.746,2.739C22.746,1.272,21.671,0,19.941,0
	c-1.727,0-2.804,1.272-2.804,2.739c0,1.468,1.077,2.739,2.804,2.739C21.671,5.478,22.746,4.207,22.746,2.739 M57,7.011h-4.532V9.13
	c-0.783-1.631-2.608-2.543-4.729-2.543c-3.848,0-6.88,3.129-6.88,8.184c0,5.087,2.935,8.185,6.652,8.185
	c2.608,0,4.173-1.272,4.956-2.675v2.25H57V7.011z M52.337,15.162c0,2.871-1.76,4.208-3.522,4.208c-1.924,0-3.163-1.956-3.163-4.598
	c0-2.608,1.305-4.598,3.326-4.598c1.663,0,3.359,1.37,3.359,4.206V15.162z"/>
</svg>
