<?xml version="1.0" encoding="UTF-8"?>
<svg width="35px" height="35px" viewBox="0 0 35 35" version="1.1" xmlns="http://www.w3.org/2000/svg" xmlns:xlink="http://www.w3.org/1999/xlink">
    <!-- Generator: Sketch 57.1 (83088) - https://sketch.com -->
    <title>outlined</title>
    <desc>Created with Sketch.</desc>
    <g id="Rd6---BT-CCs" stroke="none" stroke-width="1" fill="none" fill-rule="evenodd">
        <g id="delete-CC2" transform="translate(-230.000000, -124.000000)" fill-rule="nonzero">
            <g id="outlined" transform="translate(231.000000, 125.000000)">
                <path d="M16.5,0 C7.387875,0 0,7.387875 0,16.5 C0,25.612125 7.387875,33 16.5,33 C25.612125,33 33,25.612125 33,16.5 C33,7.387875 25.612125,0 16.5,0 Z" id="Shape-2-Copy-Copy-4-path" stroke="#D74937" stroke-width="2"></path>
                <polygon id="Shape-2-Copy-Copy-4-path" fill="#D74937" points="18.6275 8.25 14.6375 8.25 15.005 18.75 18.26 18.75"></polygon>
                <path d="M14.375,23.755 C14.375,25.015 15.29375,26.0125 16.6325,26.0125 C17.97125,26.0125 18.89,25.015 18.89,23.755 C18.89,22.41625 17.97125,21.52375 16.6325,21.52375 C15.29375,21.52375 14.375,22.41625 14.375,23.755 L14.375,23.755 Z" id="Shape-2-Copy-Copy-4-path" fill="#D74937"></path>
            </g>
        </g>
    </g>
</svg>