<?xml version="1.0" encoding="utf-8"?>
<!-- Generator: Adobe Illustrator 21.0.0, SVG Export Plug-In . SVG Version: 6.00 Build 0)  -->
<svg version="1.1" id="Layer_1" xmlns="http://www.w3.org/2000/svg" xmlns:xlink="http://www.w3.org/1999/xlink" x="0px" y="0px"
	 viewBox="0 0 62 62" style="enable-background:new 0 0 62 62;" xml:space="preserve">
<style type="text/css">
	.st0{fill:#FFFFFF;}
</style>
<path d="M31,61c16.5,0,30-13.5,30-30S47.5,1,31,1S1,14.5,1,31S14.5,61,31,61"/>
<g>
	<path class="st0" d="M45.2,37.7L45.2,37.7l-3.7,0.1c-0.2,0-0.4-0.1-0.6-0.1c-2.1-0.4-3.2-1.7-3.6-3.8l-0.1-0.5
		c-0.1-0.7-0.1-0.9-0.2-1.8c0-3.6,0-7.2,0-10.9l0-3.4c0-0.4,0.2-0.7,0.5-0.7c0.3-0.1,0.8,0,1,0.4c0,0.1,0.1,0.2,0.1,0.4
		c0,1.7,0,3,0,4.5l0,2.5h1.8l0-9.6c0-0.5,0.3-0.8,0.8-0.8h0c0.2,0,0.4,0.1,0.5,0.2c0.1,0.2,0.2,0.4,0.2,0.6c0,2.2,0,4,0,6l0,3.5h1.9
		l0-11.2c0-0.4,0.2-0.6,0.5-0.7c0.3-0.1,0.7,0,0.9,0.3c0.1,0.1,0.1,0.3,0.1,0.4c0,2.9,0,5.4,0,8.1v3.1h2.1v-1.5c0-2.5,0-4.5,0-7
		c0-0.4,0.2-0.6,0.6-0.7c0.4-0.1,0.8,0.1,0.9,0.4c0,0.1,0.1,0.2,0.1,0.4c0,3.8,0,8,0,11.9v2c-0.1-0.1-0.1-0.1-0.2-0.1
		c-0.9-0.4-4.2-1.5-7.7,0c-0.3,0.1-0.5,0.5-0.3,0.8c0.1,0.3,0.5,0.5,0.8,0.3c3-1.3,5.9-0.3,6.7,0c0.1,0,0.2,0,0.2,0
		c0.2,0,0.3-0.1,0.4-0.2v0.1l1.1-1c0.1-0.1,0.1-0.1,0.2-0.2c0.4-0.4,0.8-1,1.2-1.5c0.4-0.5,0.8-1,1.1-1.4c0.2-0.2,0.4-0.3,0.6-0.3
		c0.2,0,0.5,0.1,0.7,0.3c0,0,0,0,0,0c0.2,0.2,0.3,0.5,0.1,0.9c-0.3,0.6-0.7,1.2-1,1.7l-0.4,0.7c-0.9,1.5-1.7,2.7-2.7,4l-0.6,0.8
		c-0.2,0.3-0.1,0.7,0.1,0.9c0.1,0.1,0.2,0.1,0.4,0.1c0.2,0,0.4-0.1,0.5-0.3l0.4-0.5c1.7,1.2,4.8,2.6,7.1,3.6c-0.9,3-2.2,5.9-4,8.4
		c-3.4-2-8.8-5.4-12.3-7.9l3.7-0.1c0.3,0,0.6-0.3,0.6-0.6C45.8,38,45.6,37.7,45.2,37.7L45.2,37.7z M31,58.9c-3.1,0-6.1-0.5-8.9-1.5
		c2-2.3,4.2-5.1,5.2-7.1l1.4-1.8l0,0l0,0c0.2-0.3,0.4-0.5,0.6-0.8c1-1.3,1.9-2.6,2.9-4.2l0.4-0.7c0.4-0.6,0.7-1.2,1-1.8
		c0.9-1.6,0.7-3.3-0.6-4.6c-0.8-0.8-1.8-1.2-2.9-1.2c-0.4,0-0.8,0.1-1.2,0.2c0-2.5,0-5.1,0-7.5c0-0.6-0.1-1.1-0.3-1.6
		c-0.6-1.4-2-2.3-3.5-2.3c-0.1-0.2-0.1-0.5-0.3-0.7c-0.7-1.3-2-2.1-3.4-2.1c-0.3,0-0.7,0-1,0.1c-0.9,0.2-1.7,0.8-2.2,1.5
		c-0.1,0-0.2,0-0.3,0h0c-1.7,0-3.1,1.1-3.6,2.6c-0.2,0-0.5,0.1-0.7,0.1c-1.7,0.4-2.8,2-2.8,3.7l0,3.5c0,3.5,0,7.2,0,10.8
		c0,1,0.1,1.4,0.2,2.2l0.1,0.4c0.1,0.4,0.1,0.8,0.3,1.2c-0.4,0.4-0.9,1-1.6,1.7C5.6,44.2,3.1,37.9,3.1,31C3.1,15.6,15.6,3.1,31,3.1
		S58.9,15.6,58.9,31c0,2.2-0.3,4.3-0.7,6.3c-3.1-1.4-5.5-2.5-6.7-3.4c0.8-1,1.5-2.1,2.3-3.4l0.4-0.7c0.3-0.6,0.7-1.2,1-1.7
		c0.5-0.9,0.4-1.7-0.3-2.4c0,0,0,0,0,0c-0.4-0.4-1-0.7-1.5-0.7h0c-0.6,0-1.1,0.3-1.5,0.7c-0.4,0.4-0.8,1-1.2,1.5
		c-0.1,0.1-0.2,0.3-0.3,0.4c0-3.9,0-8,0-11.8c0-0.4-0.1-0.6-0.2-0.9c-0.4-0.9-1.3-1.3-2.3-1.1c-0.5,0.1-0.9,0.4-1.2,0.7
		c0-0.5,0-1,0-1.5c0-0.4-0.1-0.7-0.2-1c-0.4-0.8-1.4-1.2-2.3-1c-0.9,0.2-1.5,1-1.5,1.9v0.2c0,0,0,0,0,0c-0.4-0.4-0.9-0.6-1.4-0.6
		c-1.1,0-2,0.9-2,2v1.1c-0.5-0.4-1.2-0.6-1.9-0.4c-0.9,0.2-1.4,1-1.4,1.9l0,3.4c0,3.6,0,7.3,0,10.9c0,0.9,0.1,1.3,0.2,2l0.1,0.5
		c0.2,1.5,0.8,2.6,1.7,3.5l0,0c2,2.2,10.8,7.7,15.3,10.4C48,54.6,40,58.9,31,58.9L31,58.9z M14.1,47.6c-0.2-0.5-0.4-1.1-0.5-1.7
		c-0.2-1-0.2-1.3-0.2-2.3c0-4.8,0-9.5,0-14.3c0-0.7,0.4-1.2,1-1.3c0.1,0,0.3-0.1,0.4-0.1c0.4,0,0.7,0.1,1,0.4v8.1
		c-0.8,0.4-1.5,1.5-1.5,2.6c0,0.3,0.2,0.6,0.6,0.7c0,0,0,0,0,0c0.3,0,0.6-0.3,0.6-0.6c0-0.8,0.7-1.5,0.9-1.6c0.3,0,0.6-0.3,0.6-0.6
		c0,0,0-0.1,0-0.1c0,0,0-0.1,0-0.1V25.8c0.2-0.3,0.6-0.5,1.1-0.5h0c0.5,0,0.9,0.2,1.1,0.6v10.5c-0.8,0.4-1.5,1.5-1.5,2.6
		c0,0.3,0.2,0.6,0.6,0.7c0,0,0,0,0,0c0.3,0,0.6-0.3,0.6-0.6c0-0.8,0.7-1.5,0.9-1.6c0.3,0,0.6-0.3,0.6-0.6c0,0,0-0.1,0-0.1
		c0,0,0-0.1,0-0.1V24.1c0.2-0.2,0.4-0.4,0.7-0.4c0.1,0,0.3-0.1,0.4-0.1c0.5,0,1,0.2,1.2,0.7c0,0,0,0.1,0,0.1v12
		c-0.8,0.4-1.5,1.5-1.5,2.6c0,0.3,0.2,0.6,0.6,0.7c0,0,0,0,0,0c0.3,0,0.6-0.3,0.6-0.6c0-0.8,0.7-1.5,0.9-1.6c0.3,0,0.6-0.3,0.6-0.6
		c0,0,0-0.1,0-0.1c0,0,0-0.1,0-0.1v-9.6c0.2-0.3,0.5-0.4,0.8-0.5c0.1,0,0.2,0,0.4,0c0.5,0,1,0.3,1.3,0.8c0.1,0.2,0.1,0.4,0.1,0.6
		c0,4.2,0,8.7,0,12.9v0.5c0.1-0.1,0.2-0.2,0.3-0.2c0.8-0.8,1.6-2.1,2.3-2.9c0.3-0.3,0.7-0.5,1.1-0.5c0.4,0,0.8,0.2,1.1,0.5
		c0.5,0.5,0.5,1,0.2,1.6c-0.5,0.8-1,1.7-1.5,2.5C29,44,28,45.3,26.8,47l-1.6,2c-0.8,1.8-3.2,4.8-5.6,7.5c-3-1.4-5.8-3.3-8.2-5.6
		c1.2-1.2,2.2-2.2,2.7-3L14.1,47.6L14.1,47.6z M31,0C13.9,0,0,13.9,0,31s13.9,31,31,31c17.1,0,31-13.9,31-31S48.1,0,31,0L31,0z"/>
	<path class="st0" d="M21.1,8.5c-0.2-0.3-0.6-0.3-0.9-0.1s-0.3,0.6-0.1,0.9l4.4,6c0.1,0.2,0.3,0.3,0.5,0.3c0.1,0,0.3,0,0.4-0.1
		c0.3-0.2,0.3-0.6,0.1-0.9L21.1,8.5 M27.6,7.1c-0.1-0.3-0.4-0.5-0.8-0.4c-0.3,0.1-0.5,0.4-0.5,0.8l1.8,7.1c0.1,0.3,0.3,0.5,0.6,0.5
		c0.1,0,0.1,0,0.2,0c0.3-0.1,0.5-0.4,0.4-0.8L27.6,7.1 M33,8.2c-0.3-0.1-0.7,0.1-0.8,0.4l-1.5,5.7c-0.1,0.3,0.1,0.7,0.4,0.8
		c0.1,0,0.1,0,0.2,0c0.3,0,0.5-0.2,0.6-0.5L33.5,9C33.6,8.6,33.4,8.3,33,8.2 M23,16.8l-5.3-2.6c-0.3-0.2-0.7,0-0.8,0.3
		c-0.1,0.3,0,0.7,0.3,0.8l5.3,2.6c0.1,0,0.2,0.1,0.3,0.1c0.2,0,0.5-0.1,0.6-0.3C23.5,17.3,23.3,16.9,23,16.8"/>
</g>
</svg>
