<svg version="1.1" id="Layer_1" xmlns="http://www.w3.org/2000/svg" x="0" y="0" viewBox="0 0 62 62" xml:space="preserve"><style>.st0{fill:#fff}</style><path d="M31 61c16.5 0 30-13.5 30-30S47.5 1 31 1 1 14.5 1 31s13.5 30 30 30"/><path class="st0" d="M45.2 37.7l-3.7.1c-.2 0-.4-.1-.6-.1-2.1-.4-3.2-1.7-3.6-3.8l-.1-.5c-.1-.7-.1-.9-.2-1.8V17.3c0-.4.2-.7.5-.7.3-.1.8 0 1 .4 0 .1.1.2.1.4v7h1.8v-9.6c0-.5.3-.8.8-.8.2 0 .4.1.5.2.1.2.2.4.2.6v9.5h1.9V13.1c0-.4.2-.6.5-.7.3-.1.7 0 .9.3.1.1.1.3.1.4v11.2h2.1v-1.5-7c0-.4.2-.6.6-.7.4-.1.8.1.9.4 0 .1.1.2.1.4v13.9c-.1-.1-.1-.1-.2-.1-.9-.4-4.2-1.5-7.7 0-.3.1-.5.5-.3.8.1.3.5.5.8.3 3-1.3 5.9-.3 6.7 0h.2c.2 0 .3-.1.4-.2v.1l1.1-1 .2-.2c.4-.4.8-1 1.2-1.5.4-.5.8-1 1.1-1.4.2-.2.4-.3.6-.3.2 0 .5.1.7.3.2.2.3.5.1.9-.3.6-.7 1.2-1 1.7l-.4.7c-.9 1.5-1.7 2.7-2.7 4l-.6.8c-.2.3-.1.7.1.9.1.1.2.1.4.1s.4-.1.5-.3l.4-.5c1.7 1.2 4.8 2.6 7.1 3.6-.9 3-2.2 5.9-4 8.4-3.4-2-8.8-5.4-12.3-7.9l3.7-.1c.3 0 .6-.3.6-.6.1-.3-.1-.6-.5-.6zM31 58.9c-3.1 0-6.1-.5-8.9-1.5 2-2.3 4.2-5.1 5.2-7.1l1.4-1.8c.2-.3.4-.5.6-.8 1-1.3 1.9-2.6 2.9-4.2l.4-.7c.4-.6.7-1.2 1-1.8.9-1.6.7-3.3-.6-4.6-.8-.8-1.8-1.2-2.9-1.2-.4 0-.8.1-1.2.2v-7.5c0-.6-.1-1.1-.3-1.6-.6-1.4-2-2.3-3.5-2.3-.1-.2-.1-.5-.3-.7-.7-1.3-2-2.1-3.4-2.1-.3 0-.7 0-1 .1-.9.2-1.7.8-2.2 1.5h-.3c-1.7 0-3.1 1.1-3.6 2.6-.2 0-.5.1-.7.1-1.7.4-2.8 2-2.8 3.7v14.3c0 1 .1 1.4.2 2.2l.1.4c.1.4.1.8.3 1.2-.4.4-.9 1-1.6 1.7-4.2-4.8-6.7-11.1-6.7-18C3.1 15.6 15.6 3.1 31 3.1S58.9 15.6 58.9 31c0 2.2-.3 4.3-.7 6.3-3.1-1.4-5.5-2.5-6.7-3.4.8-1 1.5-2.1 2.3-3.4l.4-.7c.3-.6.7-1.2 1-1.7.5-.9.4-1.7-.3-2.4-.4-.4-1-.7-1.5-.7-.6 0-1.1.3-1.5.7-.4.4-.8 1-1.2 1.5-.1.1-.2.3-.3.4V15.8c0-.4-.1-.6-.2-.9-.4-.9-1.3-1.3-2.3-1.1-.5.1-.9.4-1.2.7V13c0-.4-.1-.7-.2-1-.4-.8-1.4-1.2-2.3-1-.9.2-1.5 1-1.5 1.9v.2c-.4-.4-.9-.6-1.4-.6-1.1 0-2 .9-2 2v1.1c-.5-.4-1.2-.6-1.9-.4-.9.2-1.4 1-1.4 1.9v14.3c0 .9.1 1.3.2 2l.1.5c.2 1.5.8 2.6 1.7 3.5 2 2.2 10.8 7.7 15.3 10.4C48 54.6 40 58.9 31 58.9zM14.1 47.6c-.2-.5-.4-1.1-.5-1.7-.2-1-.2-1.3-.2-2.3V29.3c0-.7.4-1.2 1-1.3.1 0 .3-.1.4-.1.4 0 .7.1 1 .4v8.1c-.8.4-1.5 1.5-1.5 2.6 0 .3.2.6.6.7.3 0 .6-.3.6-.6 0-.8.7-1.5.9-1.6.3 0 .6-.3.6-.6v-.1-11c.2-.3.6-.5 1.1-.5.5 0 .9.2 1.1.6v10.5c-.8.4-1.5 1.5-1.5 2.6 0 .3.2.6.6.7.3 0 .6-.3.6-.6 0-.8.7-1.5.9-1.6.3 0 .6-.3.6-.6v-.1-12.7c.2-.2.4-.4.7-.4.1 0 .3-.1.4-.1.5 0 1 .2 1.2.7v12.1c-.8.4-1.5 1.5-1.5 2.6 0 .3.2.6.6.7.3 0 .6-.3.6-.6 0-.8.7-1.5.9-1.6.3 0 .6-.3.6-.6v-.1-9.7c.2-.3.5-.4.8-.5h.4c.5 0 1 .3 1.3.8.1.2.1.4.1.6v13.4c.1-.1.2-.2.3-.2.8-.8 1.6-2.1 2.3-2.9.3-.3.7-.5 1.1-.5.4 0 .8.2 1.1.5.5.5.5 1 .2 1.6-.5.8-1 1.7-1.5 2.5-1 1.6-2 2.9-3.2 4.6l-1.6 2c-.8 1.8-3.2 4.8-5.6 7.5-3-1.4-5.8-3.3-8.2-5.6 1.2-1.2 2.2-2.2 2.7-3v-.3zM31 0C13.9 0 0 13.9 0 31s13.9 31 31 31 31-13.9 31-31S48.1 0 31 0z"/><path class="st0" d="M21.1 8.5c-.2-.3-.6-.3-.9-.1s-.3.6-.1.9l4.4 6c.1.2.3.3.5.3.1 0 .3 0 .4-.1.3-.2.3-.6.1-.9l-4.4-6.1m6.5-1.4c-.1-.3-.4-.5-.8-.4-.3.1-.5.4-.5.8l1.8 7.1c.1.3.3.5.6.5h.2c.3-.1.5-.4.4-.8l-1.7-7.2M33 8.2c-.3-.1-.7.1-.8.4l-1.5 5.7c-.1.3.1.7.4.8h.2c.3 0 .5-.2.6-.5L33.5 9c.1-.4-.1-.7-.5-.8m-10 8.6l-5.3-2.6c-.3-.2-.7 0-.8.3-.1.3 0 .7.3.8l5.3 2.6c.1 0 .2.1.3.1.2 0 .5-.1.6-.3.1-.4-.1-.8-.4-.9"/></svg>