<svg xmlns="http://www.w3.org/2000/svg" width="205" height="51" viewBox="0 0 205 51">
  <g fill="none" transform="translate(2 -75)">
    <rect width="200" height="200" x="1" fill="#FFFFFF"/>
    <g transform="translate(0 76)">
      <path fill="#159BD7" d="M37.193,12.373 C37.787,8.584 37.189,6.007 35.14,3.672 C32.884,1.102 28.809,0 23.594,0 L8.458,0 C7.392,0 6.485,0.775 6.319,1.829 L0.016,41.795 C-0.108,42.584 0.501,43.297 1.3,43.297 L10.644,43.297 L9.999,47.387 C9.89,48.077 10.424,48.7 11.122,48.7 L18.998,48.7 C19.93,48.7 20.724,48.022 20.869,47.101 L20.947,46.7 L22.43,37.292 L22.526,36.772 C22.671,35.852 23.465,35.173 24.398,35.173 L25.576,35.173 C33.206,35.173 39.181,32.073 40.927,23.108 C41.657,19.362 41.28,16.235 39.35,14.037 C38.766,13.372 38.04,12.822 37.193,12.373"/>
      <path fill="#232C65" d="M37.193,12.373 C37.787,8.584 37.189,6.007 35.14,3.672 C32.884,1.102 28.809,0 23.594,0 L8.458,0 C7.392,0 6.485,0.775 6.319,1.829 L0.016,41.795 C-0.108,42.584 0.501,43.297 1.3,43.297 L10.644,43.297 L12.991,28.413 L12.918,28.879 C13.084,27.826 13.984,27.051 15.049,27.051 L19.49,27.051 C28.213,27.051 35.042,23.508 37.038,13.259 C37.098,12.957 37.148,12.662 37.193,12.373"/>
      <path fill="#263B80" d="M15.513,12.423 C15.613,11.79 16.019,11.271 16.566,11.009 C16.815,10.891 17.093,10.824 17.384,10.824 L29.248,10.824 C30.654,10.824 31.964,10.916 33.163,11.109 C33.505,11.165 33.839,11.228 34.163,11.299 C34.487,11.371 34.801,11.451 35.105,11.54 C35.257,11.584 35.407,11.631 35.554,11.68 C36.142,11.875 36.69,12.106 37.194,12.373 C37.788,8.584 37.19,6.007 35.141,3.672 C32.884,1.102 28.809,0 23.594,0 L8.458,0 C7.392,0 6.485,0.775 6.319,1.829 L0.016,41.795 C-0.108,42.584 0.501,43.297 1.3,43.297 L10.644,43.297 L15.513,12.423"/>
      <g transform="translate(58 10)">
        <path fill="#159BD7" d="M95.979,0.808 L84.971,0.808 C84.218,0.808 83.578,1.354 83.461,2.099 L79.01,30.323 C78.921,30.879 79.353,31.383 79.916,31.383 L85.563,31.383 C86.089,31.383 86.539,30.999 86.62,30.479 L87.883,22.478 C88,21.735 88.642,21.187 89.394,21.187 L92.876,21.187 C100.126,21.187 104.312,17.679 105.405,10.724 C105.897,7.682 105.425,5.293 104.001,3.62 C102.436,1.78 99.661,0.808 95.979,0.808 L95.979,0.808 Z M97.249,11.116 C96.647,15.067 93.63,15.067 90.711,15.067 L89.05,15.067 L90.215,7.691 C90.285,7.245 90.671,6.916 91.121,6.916 L91.882,6.916 C93.869,6.916 95.746,6.916 96.713,8.048 C97.293,8.725 97.468,9.728 97.249,11.116 L97.249,11.116 Z"/>
        <path fill="#263B80" d="M17.469.808L6.461.808C5.709.808 5.068 1.354 4.951 2.099L.5 30.323C.413 30.879.842 31.383 1.406 31.383L6.662 31.383C7.415 31.383 8.056 30.835 8.174 30.091L9.374 22.477C9.492 21.734 10.132 21.186 10.885 21.186L14.368 21.186C21.618 21.186 25.803 17.678 26.896 10.723 27.389 7.681 26.917 5.292 25.492 3.619 23.926 1.78 21.151.808 17.469.808L17.469.808zM18.74 11.116C18.138 15.067 15.12 15.067 12.202 15.067L10.541 15.067 11.706 7.691C11.776 7.245 12.161 6.916 12.612 6.916L13.373 6.916C15.36 6.916 17.236 6.916 18.204 8.048 18.783 8.725 18.958 9.728 18.74 11.116L18.74 11.116zM50.369 10.989L45.098 10.989C44.647 10.989 44.262 11.317 44.192 11.764L43.961 13.238 43.592 12.704C42.45 11.047 39.906 10.493 37.366 10.493 31.543 10.493 26.568 14.906 25.6 21.095 25.096 24.183 25.811 27.133 27.562 29.193 29.171 31.086 31.466 31.873 34.201 31.873 38.894 31.873 41.498 28.858 41.498 28.858L41.263 30.323C41.175 30.88 41.605 31.384 42.17 31.384L46.917 31.384C47.67 31.384 48.311 30.836 48.428 30.093L51.278 12.05C51.363 11.492 50.934 10.989 50.369 10.989L50.369 10.989zM43.023 21.248C42.514 24.26 40.123 26.282 37.074 26.282 35.546 26.282 34.322 25.79 33.535 24.859 32.756 23.937 32.462 22.622 32.709 21.157 33.184 18.173 35.613 16.086 38.616 16.086 40.112 16.086 41.327 16.582 42.13 17.522 42.938 18.468 43.255 19.791 43.023 21.248L43.023 21.248z"/>
        <path fill="#159BD7" d="M128.878,10.989 L123.608,10.989 C123.155,10.989 122.771,11.317 122.702,11.764 L122.469,13.238 L122.102,12.704 C120.96,11.047 118.416,10.493 115.876,10.493 C110.052,10.493 105.078,14.906 104.109,21.095 C103.605,24.183 104.321,27.133 106.071,29.193 C107.68,31.086 109.975,31.873 112.71,31.873 C117.404,31.873 120.007,28.858 120.007,28.858 L119.773,30.323 C119.684,30.88 120.115,31.384 120.679,31.384 L125.425,31.384 C126.178,31.384 126.819,30.836 126.936,30.093 L129.786,12.05 C129.873,11.492 129.442,10.989 128.878,10.989 L128.878,10.989 Z M121.532,21.248 C121.024,24.26 118.633,26.282 115.584,26.282 C114.055,26.282 112.831,25.79 112.045,24.859 C111.265,23.937 110.971,22.622 111.219,21.157 C111.694,18.173 114.122,16.086 117.125,16.086 C118.623,16.086 119.838,16.582 120.64,17.522 C121.447,18.468 121.765,19.791 121.532,21.248 L121.532,21.248 Z"/>
        <path fill="#263B80" d="M78.442,10.989 L73.144,10.989 C72.637,10.989 72.164,11.24 71.878,11.66 L64.57,22.423 L61.472,12.08 C61.279,11.434 60.683,10.989 60.006,10.989 L54.799,10.989 C54.171,10.989 53.729,11.607 53.931,12.203 L59.764,29.325 L54.278,37.067 C53.847,37.675 54.282,38.515 55.027,38.515 L60.32,38.515 C60.821,38.515 61.291,38.269 61.576,37.857 L79.195,12.429 C79.618,11.821 79.183,10.989 78.442,10.989"/>
        <path fill="#159BD7" d="M135.092,1.583 L130.573,30.324 C130.485,30.881 130.916,31.384 131.479,31.384 L136.023,31.384 C136.776,31.384 137.417,30.836 137.534,30.093 L141.988,1.869 C142.077,1.312 141.645,0.808 141.082,0.808 L135.997,0.808 C135.546,0.808 135.161,1.136 135.092,1.583"/>
      </g>
    </g>
  </g>
</svg>
