<svg width="46" height="46" xmlns="http://www.w3.org/2000/svg"><g fill-rule="evenodd"><circle stroke="currentColor" cx="22.82" cy="22.865" r="22"/><path d="M22.82 10.865c-6.627 0-12 5.372-12 12 0 4.913 2.955 9.134 7.183 10.99-.034-.838-.006-1.844.209-2.755l1.544-6.539s-.383-.766-.383-1.899c0-1.778 1.03-3.106 2.314-3.106 1.091 0 1.618.82 1.618 1.801 0 1.098-.7 2.74-1.059 4.26-.3 1.272.638 2.31 1.894 2.31 2.273 0 3.805-2.92 3.805-6.38 0-2.63-1.771-4.598-4.993-4.598-3.64 0-5.908 2.714-5.908 5.747 0 1.045.308 1.782.791 2.353.222.263.253.368.173.669-.058.22-.19.752-.245.963-.08.304-.326.413-.601.3-1.676-.684-2.457-2.52-2.457-4.584 0-3.409 2.875-7.496 8.576-7.496 4.581 0 7.596 3.315 7.596 6.874 0 4.707-2.616 8.224-6.474 8.224-1.296 0-2.514-.7-2.932-1.496 0 0-.696 2.765-.844 3.299-.254.925-.752 1.85-1.208 2.57 1.08.319 2.22.493 3.401.493 6.627 0 12-5.373 12-12 0-6.628-5.373-12-12-12" fill="currentColor"/></g></svg>