<?xml version="1.0" encoding="UTF-8"?>
<svg width="24px" height="23px" viewBox="0 0 24 23" version="1.1" xmlns="http://www.w3.org/2000/svg" xmlns:xlink="http://www.w3.org/1999/xlink">
    <!-- Generator: Sketch 52.2 (67145) - http://www.bohemiancoding.com/sketch -->
    <title>present copy</title>
    <desc>Created with Sketch.</desc>
    <g id="Holday-Promos" stroke="none" stroke-width="1" fill="none" fill-rule="evenodd">
        <g id="&lt;$15-NEW" transform="translate(-231.000000, -824.000000)" fill="#000000" fill-rule="nonzero">
            <g id="Promo" transform="translate(232.000000, 825.000000)">
                <g id="present-copy">
                    <g id="Group-2" transform="translate(2.000000, 0.000000)">
                        <path d="M-0.5,0.0303296034 C-0.5,-0.245812771 -0.276142375,-0.469670397 0,-0.469670397 L0.578777617,-0.469670397 C3.93140296,-0.469670397 6.33171091,0.733021848 7.86164031,2.770761 C8.8925463,4.14384234 9.44117647,5.85936036 9.44117647,6.88747246 C9.44117647,7.16361484 9.21731885,7.38747246 8.94117647,7.38747246 L8.36264888,7.38747246 C5.00991618,7.38747246 2.60953941,6.18478342 1.0795712,4.14704608 C0.0486384154,2.77396512 -0.5,1.05845164 -0.5,0.0303296034 Z M0.546117034,0.530329603 C0.686113998,1.37613294 1.1422704,2.56504808 1.87925741,3.54662793 C3.22059298,5.33312881 5.32489585,6.38747246 8.36264888,6.38747246 L8.39505973,6.38747246 C8.25506435,5.54167043 7.79891517,4.35275022 7.06194652,3.37116907 C5.72064788,1.58467046 3.61641653,0.530329603 0.578777617,0.530329603 L0.546117034,0.530329603 Z" id="Shape-path-Copy-2"></path>
                        <path d="M17.4951118,0.530329603 C14.4574729,0.530329603 12.3532416,1.58467046 11.0119429,3.37116907 C10.2749743,4.35275022 9.81882509,5.54167043 9.67882971,6.38747246 L9.71124057,6.38747246 C12.7489936,6.38747246 14.8532965,5.33312881 16.194632,3.54662793 C16.931619,2.56504808 17.3877754,1.37613294 17.5277724,0.530329603 L17.4951118,0.530329603 Z M18.5738894,0.0303296034 C18.5738894,1.05845164 18.025251,2.77396512 16.9943182,4.14704608 C15.46435,6.18478342 13.0639733,7.38747246 9.71124057,7.38747246 L9.13271297,7.38747246 C8.8565706,7.38747246 8.63271297,7.16361484 8.63271297,6.88747246 C8.63271297,5.85936036 9.18134314,4.14384234 10.2122491,2.770761 C11.7421785,0.733021848 14.1424865,-0.469670397 17.4951118,-0.469670397 L18.0738894,-0.469670397 C18.3500318,-0.469670397 18.5738894,-0.245812771 18.5738894,0.0303296034 Z" id="Shape-path-Copy-3"></path>
                    </g>
                    <path d="M1,7.5 C0.723857625,7.5 0.5,7.72385763 0.5,8 L0.5,11 C0.5,11.2761424 0.723857625,11.5 1,11.5 L21,11.5 C21.2761424,11.5 21.5,11.2761424 21.5,11 L21.5,8 C21.5,7.72385763 21.2761424,7.5 21,7.5 L1,7.5 Z M1,6.5 L21,6.5 C21.8284271,6.5 22.5,7.17157288 22.5,8 L22.5,11 C22.5,11.8284271 21.8284271,12.5 21,12.5 L1,12.5 C0.171572875,12.5 -0.5,11.8284271 -0.5,11 L-0.5,8 C-0.5,7.17157288 0.171572875,6.5 1,6.5 Z" id="Rectangle"></path>
                    <path d="M2,12.5 C1.72385763,12.5 1.5,12.7238576 1.5,13 L1.5,20 C1.5,20.2761424 1.72385763,20.5 2,20.5 L20,20.5 C20.2761424,20.5 20.5,20.2761424 20.5,20 L20.5,13 C20.5,12.7238576 20.2761424,12.5 20,12.5 L2,12.5 Z M2,11.5 L20,11.5 C20.8284271,11.5 21.5,12.1715729 21.5,13 L21.5,20 C21.5,20.8284271 20.8284271,21.5 20,21.5 L2,21.5 C1.17157288,21.5 0.5,20.8284271 0.5,20 L0.5,13 C0.5,12.1715729 1.17157288,11.5 2,11.5 Z" id="Rectangle"></path>
                    <g id="Group" transform="translate(8.000000, 7.000000)">
                        <polygon id="Line-2" points="-1.216311e-14 -0.5 1 -0.5 1 14 1.216311e-14 14"></polygon>
                        <polygon id="Line-3" points="6 13.9938776 5 13.9938776 5 -0.5 6 -0.5"></polygon>
                    </g>
                </g>
            </g>
        </g>
    </g>
</svg>