<svg width="28" height="28" xmlns="http://www.w3.org/2000/svg"><path d="M14 0C6.269 0 0 6.269 0 14c0 7.732 6.269 14 14 14 7.732 0 14-6.268 14-14 0-7.731-6.268-14-14-14zm1.752 16.688v-.648c0-1.224 1.512-1.824 2.64-2.952.744-.744 1.368-1.68 1.368-3.144C19.76 7.52 17.96 5 14.096 5 10.376 5 8.528 7.352 8 10.352l3.456.576c.168-1.536.912-3.168 2.64-3.168 1.296 0 2.112.936 2.112 2.064 0 1.176-.84 1.776-1.536 2.28-1.2.864-2.424 2.016-2.424 3.768v.816h3.504zm-3.768 4.624c0 1.152.84 2.064 2.064 2.064 1.224 0 2.064-.912 2.064-2.064 0-1.224-.84-2.04-2.064-2.04-1.224 0-2.064.816-2.064 2.04z" fill-rule="evenodd"/></svg>