<?xml version="1.0" encoding="UTF-8" standalone="no"?>
<svg width="28px" height="28px" viewBox="0 0 28 28" version="1.1" xmlns="http://www.w3.org/2000/svg" xmlns:xlink="http://www.w3.org/1999/xlink" xmlns:sketch="http://www.bohemiancoding.com/sketch/ns">
    <!-- Generator: Sketch 3.3.3 (12081) - http://www.bohemiancoding.com/sketch -->
    <title>Question icon</title>
    <g id="Page-1" stroke-width="1" fill-rule="evenodd" sketch:type="MSPage">
        <path d="M14,0 C6.2685,0 0,6.2685 0,14 C0,21.7315 6.2685,28 14,28 C21.7315,28 28,21.7315 28,14 C28,6.2685 21.7315,0 14,0 Z M15.752,16.688 L15.752,16.04 C15.752,14.816 17.264,14.216 18.392,13.088 C19.136,12.344 19.76,11.408 19.76,9.944 C19.76,7.52 17.96,5 14.096,5 C10.376,5 8.528,7.352 8,10.352 L11.456,10.928 C11.624,9.392 12.368,7.76 14.096,7.76 C15.392,7.76 16.208,8.696 16.208,9.824 C16.208,11 15.368,11.6 14.672,12.104 C13.472,12.968 12.248,14.12 12.248,15.872 L12.248,16.688 L15.752,16.688 Z M11.984,21.312 C11.984,22.464 12.824,23.376 14.048,23.376 C15.272,23.376 16.112,22.464 16.112,21.312 C16.112,20.088 15.272,19.272 14.048,19.272 C12.824,19.272 11.984,20.088 11.984,21.312 L11.984,21.312 Z" id="info-circle-copy-2" sketch:type="MSShapeGroup"></path>
    </g>
</svg>