<svg width="124" height="124" xmlns="http://www.w3.org/2000/svg"><g fill-rule="evenodd"><path d="M61.997 6.314c-30.679 0-55.638 24.761-55.638 55.197 0 30.435 24.959 55.196 55.638 55.196s55.638-24.761 55.638-55.196c0-30.436-24.959-55.197-55.638-55.197zm0 116.702C27.812 123.016 0 95.425 0 61.511S27.812.006 61.997.006s61.997 27.591 61.997 61.505-27.812 61.505-61.997 61.505z"/><path d="M48.592 75.463c3.01 2.791 6.507 4.652 10.288 5.363v6.129h6.561V80.88c5.53-1.095 9.96-5.363 9.96-11.163 0-12.914-17.677-11-17.677-17.182 0-2.955 3.125-4.159 5.912-4.159 2.518 0 5.094 1.095 6.626 2.517l3.826-5.472c-2.843-2.08-5.686-3.119-8.647-3.447v-5.91h-6.56v6.293c-4.71 1.313-8.538 4.925-8.538 10.233 0 4.322 2.405 6.949 5.412 8.7 5.148 3.01 12.265 3.612 12.265 8.536 0 2.79-2.305 4.815-5.586 4.815-3.499 0-6.843-1.805-9.03-4.213l-4.812 5.034" fill="currentColor"/><path d="M62.18 102.806l.048.003c1.075-.005 2.116-.138 3.17-.225.667-.056 1.35-.053 2.008-.142 12.044-1.586 22.353-8.465 28.71-18.173l4.28 3.08-1.7-14.482-14.273 2.983 4.161 2.996c-.11.174-.209.355-.323.528-.449.677-.928 1.33-1.425 1.971-.32.413-.645.819-.983 1.214a32.012 32.012 0 01-1.693 1.829c-.346.345-.701.679-1.062 1.007-.636.58-1.29 1.142-1.971 1.668-.358.278-.731.536-1.101.798a31.517 31.517 0 01-2.242 1.468c-.367.216-.75.404-1.127.605-.81.433-1.626.852-2.476 1.212-.393.166-.804.297-1.205.448-.862.324-1.726.644-2.62.893-.482.133-.983.214-1.473.324-.845.19-1.683.396-2.551.516-.966.133-1.959.18-2.952.222-.417.02-.821.084-1.24.086-.101 0-.199-.018-.3-.019-1.79-.006-3.529-.213-5.237-.505a31.5 31.5 0 01-1.876-.385 31.382 31.382 0 01-3.662-1.119 31.004 31.004 0 01-2.502-1.042 31.539 31.539 0 01-3.178-1.706 32.145 32.145 0 01-2.261-1.564c-.6-.449-1.17-.932-1.737-1.42a31.692 31.692 0 01-4.204-4.395c-.187-.238-.399-.453-.58-.696-.677-.917-1.28-1.89-1.858-2.88-2.724-4.65-4.411-9.986-4.436-15.763l-9.17.04c.082 18.675 12.707 34.329 29.85 39.102.116.032.233.056.349.088 1.518.408 3.07.723 4.653.956.312.046.62.099.935.138 1.707.21 3.433.353 5.196.344.02 0 .038-.003.058-.003m31.505-40.941l9.17-.04c-.08-18.675-12.707-34.328-29.85-39.102-.115-.032-.234-.056-.35-.088a40.558 40.558 0 00-4.653-.956c-.313-.046-.62-.099-.936-.139-1.705-.21-3.431-.35-5.194-.343-.02 0-.037.004-.056.004-.017 0-.033-.003-.051-.003-14.23.061-26.655 7.45-33.906 18.527l-4.262-3.069 1.702 14.482 14.272-2.981-4.2-3.024c.32-.497.606-1.018.949-1.498.101-.142.2-.286.305-.426a31.705 31.705 0 012.782-3.26 31.736 31.736 0 012.544-2.348c.215-.176.437-.342.655-.513.882-.69 1.792-1.34 2.744-1.934.278-.173.567-.326.85-.49a31.487 31.487 0 012.88-1.505c.36-.162.735-.288 1.1-.436.956-.388 1.92-.763 2.919-1.057.504-.147 1.03-.237 1.544-.36.9-.218 1.797-.447 2.726-.586 1.073-.156 2.176-.215 3.282-.26.405-.018.796-.086 1.205-.089.101 0 .196.019.297.02 1.79.006 3.53.212 5.239.504.632.11 1.258.239 1.876.386 1.252.294 2.466.68 3.657 1.117.856.319 1.698.66 2.519 1.049a31.812 31.812 0 013.165 1.7c.78.487 1.529 1.016 2.262 1.566.6.448 1.169.93 1.735 1.419a31.682 31.682 0 014.193 4.379c.192.243.409.464.593.712.676.917 1.278 1.89 1.855 2.877 2.726 4.65 4.414 9.986 4.438 15.765" fill="currentColor"/></g></svg>