<svg width="62" height="60" xmlns="http://www.w3.org/2000/svg"><g fill-rule="evenodd"><path d="M30.791 58.387c15.866 0 28.773-12.685 28.773-28.277S46.657 1.833 30.791 1.833C14.926 1.833 2.02 14.518 2.02 30.11S14.926 58.387 30.79 58.387"/><path d="M30.791 58.387c15.866 0 28.773-12.685 28.773-28.277S46.657 1.833 30.791 1.833C14.926 1.833 2.02 14.518 2.02 30.11S14.926 58.387 30.79 58.387h0z" stroke="currentColor" stroke-width="3"/><path d="M42.48 46.018V19.093s0-3.365-3.426-3.365h-.108l-3.154 3.365h3.262v23.56h-16.78v-23.56h3.261l-3.153-3.365h-.109s-3.424 0-3.424 3.365v26.925s0 3.366 3.424 3.366h16.781s3.425 0 3.425-3.366zm-10.618 0c0 .744-.613 1.347-1.37 1.347-.756 0-1.37-.603-1.37-1.347 0-.743.614-1.346 1.37-1.346.757 0 1.37.603 1.37 1.346z" fill="currentColor"/><path d="M34.613 10.823V1.176h-7.898v9.647h-5.223l9.172 9.792 9.172-9.792h-5.223" fill="currentColor"/></g></svg>