<?xml version="1.0" encoding="UTF-8" standalone="no"?>
<svg width="62px" height="60px" viewBox="0 0 62 60" version="1.1" xmlns="http://www.w3.org/2000/svg" xmlns:xlink="http://www.w3.org/1999/xlink" xmlns:sketch="http://www.bohemiancoding.com/sketch/ns">
    <!-- Generator: Sketch 3.3.3 (12081) - http://www.bohemiancoding.com/sketch -->
    <title>icon-repaid</title>
    <desc>Created with Sketch.</desc>
    <defs></defs>
    <g id="Page-1" stroke-width="1" fill-rule="evenodd" sketch:type="MSPage">
        <g id="icon-repaid" sketch:type="MSLayerGroup" transform="translate(2.000000, 1.000000)">
            <path d="M28.7913475,57.3865688 C44.6566849,57.3865688 57.5640305,44.7017636 57.5640305,29.1099665 C57.5640305,13.5181694 44.6566849,0.83336416 28.7913475,0.83336416 C12.9260101,0.83336416 0.0186643709,13.5181694 0.0186643709,29.1099665 C0.0186643709,44.7017636 12.9260101,57.3865688 28.7913475,57.3865688" id="Fill-1" sketch:type="MSShapeGroup"></path>
            <path d="M28.7913475,57.3865688 C44.6566849,57.3865688 57.5640305,44.7017636 57.5640305,29.1099665 C57.5640305,13.5181694 44.6566849,0.83336416 28.7913475,0.83336416 C12.9260101,0.83336416 0.0186643709,13.5181694 0.0186643709,29.1099665 C0.0186643709,44.7017636 12.9260101,57.3865688 28.7913475,57.3865688 L28.7913475,57.3865688 Z" id="Stroke-2" stroke="currentColor" stroke-width="3" sketch:type="MSShapeGroup"></path>
            <path d="M40.4792876,45.0184787 L40.4792876,18.0934181 C40.4792876,18.0934181 40.4792876,14.727862 37.0543755,14.727862 L36.9455,14.727862 L33.7924656,18.0934181 L37.0543755,18.0934181 L37.0543755,41.6529225 L20.2732397,41.6529225 L20.2732397,18.0934181 L23.5351495,18.0934181 L20.3821152,14.727862 L20.2732397,14.727862 C20.2732397,14.727862 16.8486387,14.727862 16.8486387,18.0934181 L16.8486387,45.0184787 C16.8486387,45.0184787 16.8486387,48.3843405 20.2732397,48.3843405 L37.0543755,48.3843405 C37.0543755,48.3843405 40.4792876,48.3843405 40.4792876,45.0184787 L40.4792876,45.0184787 Z M29.8623713,45.0184787 C29.8623713,45.7619642 29.2492467,46.3648234 28.4927175,46.3648234 C27.7361884,46.3648234 27.1227527,45.7619642 27.1227527,45.0184787 C27.1227527,44.2749931 27.7361884,43.6721339 28.4927175,43.6721339 C29.2492467,43.6721339 29.8623713,44.2749931 29.8623713,45.0184787 L29.8623713,45.0184787 Z" id="Fill-3" fill="currentColor" sketch:type="MSShapeGroup"></path>
            <path d="M32.6128774,9.8230584 L32.6128774,0.176088685 L24.7147378,0.176088685 L24.7147378,9.8230584 L19.4915136,9.8230584 L28.6638076,19.6146287 L37.8361016,9.8230584 L32.6128774,9.8230584" id="Fill-4" fill="currentColor" sketch:type="MSShapeGroup"></path>
        </g>
    </g>
</svg>