<svg width="62" height="62" xmlns="http://www.w3.org/2000/svg"><g fill-rule="evenodd"><path d="M30.861 59.911c15.904 0 28.843-12.938 28.843-28.842 0-15.904-12.939-28.843-28.843-28.843S2.02 15.166 2.02 31.07c0 15.904 12.938 28.842 28.842 28.842"/><path d="M30.861 59.911c15.904 0 28.843-12.938 28.843-28.842 0-15.904-12.939-28.843-28.843-28.843S2.02 15.166 2.02 31.07c0 15.904 12.938 28.842 28.842 28.842h0z" stroke="currentColor" stroke-width="3"/><path d="M24.288 37.67c1.475 1.368 3.191 2.28 5.045 2.63v3.004h3.217v-2.978c2.712-.537 4.884-2.63 4.884-5.474 0-6.333-8.668-5.393-8.668-8.426 0-1.449 1.532-2.039 2.9-2.039 1.234 0 2.497.537 3.248 1.235l1.877-2.684c-1.395-1.02-2.789-1.53-4.24-1.69V18.35h-3.218v3.086c-2.31.644-4.187 2.414-4.187 5.017 0 2.12 1.18 3.408 2.655 4.267 2.524 1.476 6.014 1.77 6.014 4.186 0 1.368-1.13 2.361-2.74 2.361-1.715 0-3.355-.885-4.427-2.066l-2.36 2.469" fill="currentColor"/><path d="M30.95 51.078h.024c.528-.002 1.038-.067 1.555-.109.327-.028.663-.026.985-.07 5.906-.778 10.961-4.15 14.078-8.911l2.099 1.51-.834-7.101-6.999 1.462 2.04 1.47c-.053.085-.102.174-.158.258a15.8 15.8 0 01-.698.967 15.26 15.26 0 01-1.833 1.986c-.313.284-.633.56-.967.818-.176.136-.358.263-.54.391-.357.253-.72.497-1.099.72-.18.105-.368.198-.553.297-.397.211-.797.417-1.214.594-.193.082-.395.146-.591.22-.423.159-.846.315-1.285.438-.236.065-.482.104-.722.158-.414.094-.825.194-1.251.254-.474.065-.96.088-1.448.108-.204.01-.402.041-.608.042-.05 0-.097-.009-.146-.009a15.493 15.493 0 01-2.57-.247 15.349 15.349 0 01-2.715-.738 15.442 15.442 0 01-2.786-1.348 15.518 15.518 0 01-1.959-1.463 15.599 15.599 0 01-2.062-2.155c-.092-.116-.196-.222-.284-.34-.333-.451-.628-.929-.911-1.414-1.337-2.28-2.164-4.896-2.176-7.73l-4.497.02c.04 9.158 6.232 16.834 14.638 19.175.057.016.114.028.171.043.745.2 1.506.355 2.282.469.153.022.304.048.459.068.836.102 1.683.172 2.548.168l.028-.001zM46.4 31l4.497-.02c-.04-9.157-6.231-16.833-14.638-19.174-.056-.016-.114-.027-.171-.043-.745-.2-1.506-.355-2.282-.469-.153-.022-.305-.048-.459-.068a20.081 20.081 0 00-2.547-.168l-.028.002-.024-.002c-6.979.03-13.071 3.654-16.627 9.085l-2.09-1.504.834 7.101 6.999-1.462-2.06-1.483c.157-.244.297-.5.466-.734.05-.07.098-.14.149-.21a15.602 15.602 0 011.365-1.599c.395-.405.81-.79 1.247-1.15.105-.086.214-.168.321-.252.433-.338.88-.657 1.346-.948.136-.085.278-.16.417-.24.458-.267.925-.52 1.412-.739.176-.078.36-.14.54-.213.468-.19.94-.374 1.43-.519.248-.072.506-.116.758-.176.441-.107.881-.22 1.337-.287a15.625 15.625 0 011.61-.128c.198-.009.39-.042.59-.044.05 0 .096.01.146.01a15.47 15.47 0 012.57.248 15.365 15.365 0 012.713.737c.42.156.831.323 1.234.514.534.251 1.054.525 1.552.834a15.574 15.574 0 011.96 1.463c.751.651 1.442 1.365 2.056 2.148.095.119.2.227.291.349.332.449.627.926.91 1.41 1.336 2.28 2.164 4.898 2.176 7.73z" fill="currentColor"/></g></svg>