<?xml version="1.0" encoding="UTF-8" standalone="no"?>
<svg width="62px" height="62px" viewBox="0 0 62 62" version="1.1" xmlns="http://www.w3.org/2000/svg" xmlns:xlink="http://www.w3.org/1999/xlink" xmlns:sketch="http://www.bohemiancoding.com/sketch/ns">
    <!-- Generator: Sketch 3.3.3 (12081) - http://www.bohemiancoding.com/sketch -->
    <title>Repeat</title>
    <defs></defs>
    <g id="Page-1" stroke-width="1" fill-rule="evenodd" sketch:type="MSPage">
        <g id="icon-repeat" sketch:type="MSLayerGroup" transform="translate(2.000000, 2.000000)">
            <path d="M28.8612366,57.9114409 C44.765086,57.9114409 57.7037634,44.9727634 57.7037634,29.068914 C57.7037634,13.1650645 44.765086,0.226387097 28.8612366,0.226387097 C12.9573871,0.226387097 0.0187096774,13.1650645 0.0187096774,29.068914 C0.0187096774,44.9727634 12.9573871,57.9114409 28.8612366,57.9114409" id="Fill-1" sketch:type="MSShapeGroup"></path>
            <path d="M28.8612366,57.9114409 C44.765086,57.9114409 57.7037634,44.9727634 57.7037634,29.068914 C57.7037634,13.1650645 44.765086,0.226387097 28.8612366,0.226387097 C12.9573871,0.226387097 0.0187096774,13.1650645 0.0187096774,29.068914 C0.0187096774,44.9727634 12.9573871,57.9114409 28.8612366,57.9114409 L28.8612366,57.9114409 Z" id="Stroke-2" stroke="currentColor" stroke-width="3" sketch:type="MSShapeGroup"></path>
            <path d="M22.2875914,35.6696882 C23.7631613,37.0379892 25.4791505,37.9503978 27.3329677,38.2993333 L27.3329677,41.3044194 L30.5500968,41.3044194 L30.5500968,38.3261505 C33.2623763,37.7894946 35.4342581,35.6965054 35.4342581,32.8520108 C35.4342581,26.5194086 26.7660645,27.4586344 26.7660645,24.4264194 C26.7660645,22.9773548 28.2980753,22.3870645 29.6654409,22.3870645 C30.8996559,22.3870645 32.1631828,22.9237204 32.9140645,23.6215914 L34.7906452,20.9383118 C33.3964624,19.9186344 32.0022796,19.4087957 30.5500968,19.2475806 L30.5500968,16.3497634 L27.3329677,16.3497634 L27.3329677,19.4356129 C25.0232581,20.0795376 23.1463656,21.8504086 23.1463656,24.4532366 C23.1463656,26.573043 24.3260108,27.8612043 25.8006452,28.7196667 C28.3248925,30.1955484 31.8145591,30.4908495 31.8145591,32.9056452 C31.8145591,34.2742581 30.6844946,35.2671183 29.0754624,35.2671183 C27.3597849,35.2671183 25.7201935,34.3815269 24.6478172,33.2009462 L22.2875914,35.6696882" id="Fill-3" fill="currentColor" sketch:type="MSShapeGroup"></path>
            <path d="M28.9507312,49.0776667 C28.9588387,49.0776667 28.9663226,49.078914 28.9744301,49.078914 C29.5017312,49.0764194 30.0121935,49.0112473 30.5288925,48.9691505 C30.856,48.941086 31.1915269,48.9426452 31.513957,48.8993011 C37.4199785,48.1212903 42.4753333,44.7482473 45.5923656,39.9875699 L47.6909677,41.4980645 L46.8571398,34.3968065 L39.8581613,35.8592796 L41.8987634,37.3283011 C41.8448172,37.4137419 41.796172,37.5026129 41.7403548,37.5868065 C41.5205161,37.9192151 41.2853978,38.2397742 41.0415484,38.5540968 C40.8850108,38.7561613 40.7256667,38.9554194 40.5594624,39.1490645 C40.2940968,39.4587097 40.0175054,39.7583763 39.7290645,40.0458817 C39.5597419,40.2155161 39.3854301,40.3786022 39.2086237,40.5398172 C38.8964839,40.8238925 38.5762366,41.0995484 38.2416452,41.3580538 C38.0663978,41.4940108 37.8836667,41.6209247 37.701871,41.749086 C37.344828,42.0016667 36.9818602,42.2464516 36.6029892,42.4687849 C36.4227527,42.5741828 36.2347204,42.6674194 36.0501183,42.7656452 C35.6531613,42.9773763 35.2527742,43.182871 34.836172,43.3596774 C34.6431505,43.4416882 34.4413978,43.5056129 34.2446344,43.5795161 C33.8224194,43.7385484 33.398957,43.8953978 32.9602151,44.0176344 C32.7244731,44.0828065 32.4784409,44.1224086 32.2380215,44.1763548 C31.823914,44.2699032 31.4126129,44.3703118 30.9869677,44.429871 C30.5129892,44.495043 30.0265376,44.5178065 29.5394624,44.5383871 C29.3352151,44.5477419 29.1368925,44.5792366 28.931086,44.5804839 C28.8815054,44.5807957 28.8341075,44.5714409 28.7845269,44.571129 C27.9064194,44.5683226 27.0535699,44.4666667 26.2156882,44.3235376 C25.9057312,44.2695914 25.5992043,44.206914 25.2957957,44.1345699 C24.6805591,43.9901935 24.0849677,43.800914 23.5002903,43.5857527 C23.0830645,43.4307742 22.6733226,43.2645699 22.2735591,43.0752903 C21.7372151,42.8233333 21.2155269,42.5476774 20.7147312,42.2380323 C20.3324301,42.0001075 19.9657204,41.7406667 19.6064946,41.4712473 C19.3118172,41.2514086 19.0327312,41.0144194 18.7552043,40.7749355 C18.001828,40.1216559 17.3086344,39.4053871 16.6927742,38.6202043 C16.6010968,38.5035806 16.4972581,38.397871 16.4086989,38.2790645 C16.0762903,37.8287849 15.7806774,37.3513763 15.4975376,36.866172 C14.1613548,34.586086 13.3343871,31.9698495 13.321914,29.1368925 L8.82535484,29.1565376 C8.86526882,38.3139892 15.0566129,45.9899462 23.462871,48.3305269 C23.5196237,48.3467419 23.5773118,48.3585914 23.6343763,48.373871 C24.3787097,48.5740645 25.1395699,48.7287312 25.9160215,48.8425484 C26.069129,48.8653118 26.2203656,48.8911935 26.3747204,48.9105269 C27.2113548,49.0134301 28.0576559,49.0829677 28.9226667,49.0792258 C28.9320215,49.0792258 28.9410645,49.0776667 28.9507312,49.0776667 L28.9507312,49.0776667 Z M44.4002473,29.0009355 L48.8968065,28.9816022 C48.8572043,19.8241505 42.6655484,12.1481935 34.2592903,9.80730108 C34.2028495,9.79139785 34.1445376,9.77954839 34.0877849,9.76395699 C33.3431398,9.56376344 32.5819677,9.40909677 31.8061398,9.29527957 C31.6527204,9.27251613 31.5014839,9.24694624 31.347129,9.22730108 C30.5108065,9.12439785 29.6645054,9.05486022 28.7998065,9.05860215 C28.7904516,9.05860215 28.7817204,9.06047312 28.7723656,9.06078495 C28.7639462,9.06078495 28.7561505,9.05891398 28.7477312,9.05891398 C21.7693333,9.08947312 15.6768387,12.7126022 12.1207527,18.1440215 L10.0311935,16.6397634 L10.8650215,23.7410215 L17.864,22.2788602 L15.8046882,20.7964301 C15.9612258,20.5522688 16.1012366,20.2968817 16.2696237,20.0617634 C16.3195161,19.991914 16.3678495,19.9217527 16.4189892,19.8528387 C16.769172,19.3801075 17.1471075,18.9301398 17.5474946,18.5007527 C17.6251398,18.4171828 17.7040323,18.335172 17.7838602,18.2534731 C18.1786344,17.8480968 18.5946129,17.4636129 19.031172,17.1031398 C19.1362581,17.0167634 19.245086,16.9347527 19.3523548,16.8511828 C19.7845484,16.5131613 20.231086,16.1941613 20.6978925,15.902914 C20.8341613,15.8184086 20.9757312,15.7432581 21.1148065,15.6628065 C21.5728817,15.3961935 22.0403118,15.1439247 22.5270753,14.9243978 C22.7029462,14.8455054 22.8875484,14.7831398 23.0665376,14.7107957 C23.5352151,14.5202688 24.0076344,14.3366022 24.497828,14.1922258 C24.7451075,14.1201935 25.0029892,14.0756022 25.2549462,14.0157312 C25.6964946,13.9093978 26.136172,13.7962043 26.5917527,13.7288495 C27.1184301,13.6521398 27.658828,13.6231398 28.2014086,13.601 C28.3997312,13.591957 28.5915054,13.5585914 28.7923226,13.5573441 C28.8415914,13.5573441 28.8883656,13.5663871 28.9376344,13.5670108 C29.8157419,13.5698172 30.6689032,13.6711613 31.5070968,13.8146022 C31.8167419,13.8685484 32.1235806,13.9312258 32.4266774,14.0035699 C33.0409785,14.1476344 33.6359462,14.336914 34.2196882,14.5514516 C34.6403441,14.7076774 35.0522688,14.875129 35.4548387,15.0659677 C35.989,15.3169892 36.5085054,15.5913978 37.0074301,15.8997957 C37.390043,16.1383441 37.7570645,16.3977849 38.1162903,16.6675161 C38.4106559,16.8867312 38.6894301,17.1234086 38.9672688,17.3632043 C39.7181505,18.0139892 40.4091613,18.7280753 41.0234624,19.5107634 C41.1176344,19.6298817 41.2236559,19.738086 41.314086,19.8600108 C41.645871,20.309043 41.9408602,20.7861398 42.224,21.2704086 C43.5604946,23.5508065 44.388086,26.1676667 44.4002473,29.0009355 L44.4002473,29.0009355 Z" id="Fill-4" fill="currentColor" sketch:type="MSShapeGroup"></path>
        </g>
    </g>
</svg>