<svg xmlns="http://www.w3.org/2000/svg" width="62" height="62"><g fill="none" fill-rule="evenodd"><path fill="#000" d="M31 61c16.542 0 30-13.458 30-30S47.542 1 31 1 1 14.458 1 31s13.458 30 30 30"/><path fill="#FFF" d="M54.255 46.39a10.157 10.157 0 00-6.424-5.314 4.332 4.332 0 001.664-3.411 4.345 4.345 0 00-4.34-4.34 4.345 4.345 0 00-4.34 4.34c0 1.383.654 2.615 1.666 3.41a10.14 10.14 0 00-6.928 6.575 11.61 11.61 0 01-2.074-6.626c0-6.44 5.238-11.677 11.676-11.677 6.439 0 11.677 5.238 11.677 11.677 0 .193-.02.381-.028.573a27.812 27.812 0 01-2.549 4.794zm-9.1-4.385c.166 0 .328-.011.488-.03a8.898 8.898 0 017.78 5.604 28.153 28.153 0 01-3.91 4.27 11.596 11.596 0 01-4.358.851c-3.431 0-6.512-1.497-8.65-3.862a8.884 8.884 0 018.163-6.862c.16.018.322.029.487.029zm-3.1-4.34c0-1.71 1.392-3.1 3.1-3.1 1.71 0 3.1 1.39 3.1 3.1 0 1.59-1.207 2.889-2.75 3.065-.117-.004-.232-.016-.35-.016-.117 0-.232.012-.35.016-1.542-.176-2.75-1.476-2.75-3.065zM28.312 58.768v-39.03h28.205A27.727 27.727 0 0158.899 31c0 2.636-.375 5.186-1.061 7.606-1.137-5.97-6.387-10.499-12.683-10.499-7.122 0-12.916 5.795-12.916 12.917 0 7.121 5.794 12.916 12.916 12.916.655 0 1.294-.064 1.922-.16a27.734 27.734 0 01-18.765 4.988zM3.1 31C3.1 15.616 15.616 3.1 31 3.1c8.244 0 15.66 3.597 20.772 9.3H29.638c-2.098 0-3.806 1.668-3.806 3.72v42.293C12.91 55.98 3.1 44.618 3.1 31zm36.243-14.984a.93.93 0 11-1.86 0 .93.93 0 011.86 0zm10.462 0a.93.93 0 01-.93.93h-7.44a.93.93 0 110-1.86h7.44a.93.93 0 01.93.93zM31 0C13.88 0 0 13.88 0 31c0 17.12 13.88 31 31 31 17.121 0 31-13.88 31-31C62 13.88 48.12 0 31 0z"/><path fill="#FFF" d="M20.874 25.989a.62.62 0 00-.62.62v7.44a.62.62 0 001.24 0v-7.44a.62.62 0 00-.62-.62m-5.58-1.86a.62.62 0 00-.62.62v11.16a.62.62 0 001.24 0v-11.16a.62.62 0 00-.62-.62m-5.58-1.86a.62.62 0 00-.62.62v14.88a.62.62 0 101.24 0v-14.88a.62.62 0 00-.62-.62m40.711 3.37a1.55 1.55 0 100-3.1 1.55 1.55 0 000 3.1m4.237 0a1.55 1.55 0 100-3.1 1.55 1.55 0 000 3.1m-21.764-.93h7.44a.62.62 0 100-1.24h-7.44a.62.62 0 100 1.24"/></g></svg>