<svg xmlns="http://www.w3.org/2000/svg" width="16" height="16" overflow="visible"><path d="M2.459 8.692l3.72-1.914a.528.528 0 01-.034-.181c0-.479.668-.867 1.496-.867.826 0 1.496.388 1.496.867 0 .477-.67.866-1.496.866-.169 0-.329-.02-.48-.05L3.065 9.521l3.089 3.436a.399.399 0 00.553.011l9.154-5.218.021-.017a.398.398 0 00.001-.564L9.115 1.92a.406.406 0 00-.543-.009L.148 5.656l-.018.008-.013.013a.397.397 0 00-.003.561L1.626 7.92v4.371h.03L.643 14.189h2.979L2.61 12.291h.028V9.046l-.179-.354z"/></svg>