<svg xmlns="http://www.w3.org/2000/svg" width="16" height="16" overflow="visible"><path d="M9.31 8.354a6.635 6.635 0 00-.718-1.058 5.228 5.228 0 00-1.416-1.195 3.213 3.213 0 001.206-2.5 3.234 3.234 0 10-6.468 0c0 1.014.477 1.907 1.207 2.5a5.215 5.215 0 00-1.398 1.176C.666 8.528 0 10.352 0 12.383c0 .16.012.31.04.453.311 1.767 2.479 2.406 5.11 2.406.771 0 1.492-.039 2.148-.136a3.063 3.063 0 01-.263-1.265c0-1.847.607-3.623 1.666-4.875.191-.225.397-.425.609-.612zM14.737 10.05a3.543 3.543 0 00-1.267-.974 2.617 2.617 0 001.501-2.362 2.625 2.625 0 00-5.25 0c0 1.045.616 1.939 1.501 2.361a3.547 3.547 0 00-1.255.961c-.81.956-1.274 2.345-1.274 3.805 0 .095.006.185.022.269.233 1.329 2.375 1.525 3.632 1.525 2.438 0 3.489-.434 3.633-1.503.014-.091.02-.188.02-.291 0-1.452-.46-2.832-1.263-3.791z"/></svg>