<svg width="46" height="46" xmlns="http://www.w3.org/2000/svg"><g fill-rule="evenodd"><circle stroke="currentColor" cx="22.845" cy="22.792" r="22"/><path d="M34.842 15.35a9.853 9.853 0 01-2.827.775 4.94 4.94 0 002.165-2.723 9.857 9.857 0 01-3.127 1.194 4.923 4.923 0 00-8.388 4.49 13.974 13.974 0 01-10.146-5.143 4.9 4.9 0 00-.667 2.475 4.92 4.92 0 002.19 4.097 4.904 4.904 0 01-2.23-.616v.062a4.926 4.926 0 003.949 4.827 4.925 4.925 0 01-2.224.085 4.928 4.928 0 004.599 3.418 9.877 9.877 0 01-6.114 2.108c-.397 0-.789-.024-1.174-.07a13.934 13.934 0 007.546 2.213c9.055 0 14.006-7.501 14.006-14.007 0-.213-.004-.425-.014-.637a10.001 10.001 0 002.456-2.548" fill="currentColor"/></g></svg>