<?xml version="1.0" encoding="UTF-8"?>
<svg width="32px" height="20px" viewBox="0 0 32 20" version="1.1" xmlns="http://www.w3.org/2000/svg" xmlns:xlink="http://www.w3.org/1999/xlink">
    <!-- Generator: Sketch 53 (72520) - https://sketchapp.com -->
    <title>Group</title>
    <desc>Created with Sketch.</desc>
    <g id="Page-1" stroke="none" stroke-width="1" fill="none" fill-rule="evenodd">
        <g id="Group">
            <rect id="Rectangle" fill="#F6F6F6" x="0" y="3" width="32" height="14"></rect>
            <path d="M29.6512665,0 L2.34873346,0 C1.05157108,0 0,1.04894298 0,2.34292137 L0,4.23021534 L32,4.23021534 L32,2.34292137 C32,1.04902845 30.9484289,0 29.6512665,0 Z M0,17.6570786 C0,18.9509716 1.05157108,20 2.34873346,20 L29.6512665,20 C30.9484289,20 32,18.9509716 32,17.6570786 L32,8.18702005 L0,8.18702005 L0,17.6570786 Z M23.7794329,11.3629934 L28.4508729,11.3629934 L28.4508729,12.8467952 L23.7794329,12.8467952 L23.7794329,11.3629934 Z M3.60135148,11.3629934 L13.9489543,11.3629934 L13.9489543,12.8467952 L3.60135148,12.8467952 L3.60135148,11.3629934 Z M3.60135148,14.4477729 L9.21231903,14.4477729 L9.21231903,15.9315747 L3.60135148,15.9315747 L3.60135148,14.4477729 Z" id="Shape" fill="#434A54" fill-rule="nonzero"></path>
        </g>
    </g>
</svg>