<svg xmlns="http://www.w3.org/2000/svg" width="75" height="75" viewBox="0 0 75 75">
  <g fill="none" transform="translate(-116)">
    <path fill="#5E9C43" d="M147.885887,38.4745968 L152.705847,42.5451613 C152.987702,42.7834677 153.334274,42.9020161 153.681452,42.9020161 C154.028629,42.9020161 154.375202,42.7834677 154.657056,42.5451613 L159.389315,38.5495968 L171.058468,49.6133065 L136.133266,49.6133065 L147.885887,38.4745968 Z M145.561492,36.5112903 L134.024194,47.4455645 L134.024194,26.7679435 L145.561492,36.5112903 Z M173.33871,26.7685484 L173.33871,47.6082661 L161.713105,36.5862903 L173.33871,26.7685484 Z M153.681452,39.4102823 L136.646169,25.0241935 L170.716129,25.0241935 L153.681452,39.4102823 Z M176.276411,51.6104839 L176.304839,51.5191532 C176.33871,51.3927419 176.362903,51.2627016 176.362903,51.1254032 L176.362903,23.5120968 L176.35504,23.4364919 L176.339315,23.2756048 L176.310282,23.1370968 L176.266129,22.9949597 L176.20746,22.8564516 L176.140927,22.7330645 L176.048387,22.5993952 L176.006048,22.5364919 L175.963105,22.4953629 L175.845766,22.3810484 L175.740524,22.2945565 L175.609879,22.2116935 L175.488911,22.1451613 L175.345565,22.090121 L175.211895,22.0483871 L175.065524,22.0217742 L174.914315,22.0066532 L174.850806,22 L132.512097,22 L132.453427,22.0060484 C132.398992,22.0078629 132.344556,22.0145161 132.290121,22.022379 L132.155242,22.0471774 L132.01129,22.0919355 L131.877016,22.1439516 L131.74879,22.2135081 L131.624194,22.2939516 L131.515927,22.3828629 L131.400403,22.4947581 L131.356855,22.5364919 L131.313911,22.5993952 L131.222581,22.7330645 L131.155444,22.8564516 L131.096774,22.9949597 L131.052621,23.1370968 L131.024194,23.2762097 L131.007863,23.4358871 L131,23.5120968 L131,50.9627016 L131.009677,51.028629 L131,51.1254032 C131,51.9606855 131.676815,52.6375 132.512097,52.6375 L174.851411,52.6375 C174.952419,52.6375 175.053427,52.6278226 175.153226,52.6072581 C175.254839,52.5866935 175.352218,52.5558468 175.445363,52.5153226 L175.447782,52.5147177 L175.45625,52.5092742 C175.574194,52.4584677 175.681855,52.3877016 175.782258,52.3084677 L175.854839,52.2485887 C175.950403,52.1627016 176.038105,52.0689516 176.109476,51.9618952 L176.123387,51.9364919 C176.188105,51.8354839 176.237097,51.7260081 176.276411,51.6104839 L176.276411,51.6104839 Z"/>
    <path fill="#D9E1DE" d="M153.573185,75 L153.422581,75 C133.223387,74.9600806 116.721573,58.8665323 116.022984,38.8258065 L116.022984,36.1784274 C116.722782,16.1122984 133.264516,0.00362903226 153.498185,0.00362903226 C174.174597,0.00362903226 190.995766,16.8254032 190.995766,37.5024194 C190.995766,58.1534274 174.215121,74.958871 153.573185,75 M153.498185,3.84979839 C134.942339,3.84979839 119.846169,18.9459677 119.846169,37.5024194 C119.846169,56.0576613 134.942339,71.1538306 153.498185,71.1538306 C172.054032,71.1538306 187.150202,56.0576613 187.150202,37.5024194 C187.150202,18.9459677 172.054032,3.84979839 153.498185,3.84979839"/>
  </g>
</svg>
