<svg xmlns="http://www.w3.org/2000/svg" viewBox="0 0 46 46"><circle stroke="currentColor" class="st0" cx="22.8" cy="22.6" r="22" fill-rule="evenodd"/><g fill="currentColor"><path class="st1" d="M12 22c-.5.8-.7 3.2-.5 4.9.1.5.2 1 .3 1.3.2.4.5.6.9.6.2 0 .4 0 4.9-1.5l2-.6c.5-.1.8-.6.9-1.2 0-.6-.3-1.1-.8-1.3l-1.4-.6c-4.8-2-5.1-2.1-5.3-2.1-.5-.1-.8.1-1 .5zM22.8 36.9c.1-.2.1-.4.1-5.1v-2.1c0-.5-.3-1-.8-1.2-.6-.2-1.2-.1-1.5.3l-1 1.2c-3.4 4-3.5 4.2-3.6 4.4-.1.1-.1.3-.1.4 0 .2.1.4.3.6.8.9 4.6 2.3 5.8 2.1.3 0 .6-.3.8-.6zM30.4 35.2c1.1-.5 3.6-3.6 3.8-4.8.1-.4-.1-.8-.4-1-.2-.1-.3-.2-4.8-1.7l-2-.7c-.5-.2-1 0-1.4.4-.4.5-.4 1.1-.1 1.5l.8 1.3c2.7 4.3 2.9 4.6 3.1 4.8.3.3.6.4 1 .2zM28.1 24.1c5.1-1.2 5.3-1.3 5.5-1.4.3-.2.5-.6.4-1-.1-1.3-2.3-4.5-3.4-5.1-.4-.2-.8-.2-1.1 0-.2.1-.3.3-3.1 4.1 0 0-1.2 1.7-1.3 1.7-.3.4-.3 1 0 1.5s.9.8 1.4.6c.3-.1.8-.3 1.6-.4zM23 19.8c-.1-2-.7-11.1-.8-11.5-.1-.4-.4-.6-.8-.8-1.3-.3-6.3 1.1-7.2 2-.3.3-.4.7-.3 1 .1.3 6.3 10 6.3 10 .9 1.5 1.7 1.3 1.9 1.2.2.1.9-.1.9-1.9z"/></g></svg>