<?xml version="1.0" encoding="utf-8"?>
<svg version="1.1" id="Layer_1" xmlns:sketch="http://www.bohemiancoding.com/sketch/ns"
	 xmlns="http://www.w3.org/2000/svg" xmlns:xlink="http://www.w3.org/1999/xlink" x="0px" y="0px" viewBox="0 0 46 46"
	 style="enable-background:new 0 0 46 46;" xml:space="preserve">
<title>Yelp</title>
<g id="Page-1" sketch:type="MSPage" stroke-width="1" fill-rule="evenodd">
	<g id="Yelp" sketch:type="MSLayerGroup">
		<circle id="Oval-1" stroke="currentColor" sketch:type="MSShapeGroup" class="st0" cx="22.8" cy="22.6" r="22">
		</circle>
	</g>
</g>
<g>
	<g>
		<g fill="currentColor">
			<path class="st1" d="M12,22c-0.5,0.8-0.7,3.2-0.5,4.9c0.1,0.5,0.2,1,0.3,1.3c0.2,0.4,0.5,0.6,0.9,0.6c0.2,0,0.4,0,4.9-1.5
				c0,0,2-0.6,2-0.6c0.5-0.1,0.8-0.6,0.9-1.2c0-0.6-0.3-1.1-0.8-1.3l-1.4-0.6c-4.8-2-5.1-2.1-5.3-2.1C12.5,21.4,12.2,21.6,12,22z"/>
			<path class="st1" d="M22.8,36.9c0.1-0.2,0.1-0.4,0.1-5.1c0,0,0-2.1,0-2.1c0-0.5-0.3-1-0.8-1.2c-0.6-0.2-1.2-0.1-1.5,0.3
				c0,0-1,1.2-1,1.2c-3.4,4-3.5,4.2-3.6,4.4c-0.1,0.1-0.1,0.3-0.1,0.4c0,0.2,0.1,0.4,0.3,0.6c0.8,0.9,4.6,2.3,5.8,2.1
				C22.3,37.5,22.6,37.2,22.8,36.9z"/>
			<path class="st1" d="M30.4,35.2c1.1-0.5,3.6-3.6,3.8-4.8c0.1-0.4-0.1-0.8-0.4-1c-0.2-0.1-0.3-0.2-4.8-1.7c0,0-2-0.7-2-0.7
				c-0.5-0.2-1,0-1.4,0.4c-0.4,0.5-0.4,1.1-0.1,1.5l0.8,1.3c2.7,4.3,2.9,4.6,3.1,4.8C29.7,35.3,30,35.4,30.4,35.2L30.4,35.2z"/>
			<path class="st1" d="M28.1,24.1c5.1-1.2,5.3-1.3,5.5-1.4c0.3-0.2,0.5-0.6,0.4-1c0,0,0,0,0,0c-0.1-1.3-2.3-4.5-3.4-5.1
				c-0.4-0.2-0.8-0.2-1.1,0c-0.2,0.1-0.3,0.3-3.1,4.1c0,0-1.2,1.7-1.3,1.7c-0.3,0.4-0.3,1,0,1.5c0.3,0.5,0.9,0.8,1.4,0.6
				c0,0,0,0,0,0C26.8,24.4,27.3,24.2,28.1,24.1z"/>
			<path class="st1" d="M23,19.8L23,19.8c-0.1-2-0.7-11.1-0.8-11.5c-0.1-0.4-0.4-0.6-0.8-0.8c-1.3-0.3-6.3,1.1-7.2,2
				c-0.3,0.3-0.4,0.7-0.3,1c0.1,0.3,6.3,10,6.3,10c0.9,1.5,1.7,1.3,1.9,1.2C22.3,21.8,23,21.6,23,19.8z"/>
		</g>
	</g>
</g>
</svg>
