<svg width="46" height="46" xmlns="http://www.w3.org/2000/svg"><g transform="translate(0 1)" fill-rule="evenodd"><circle stroke="currentColor" cx="22.889" cy="22.329" r="22"/><path d="M34.152 30.273V14.385c0-2.24-1.704-4.056-3.807-4.056H15.434c-2.103 0-3.807 1.816-3.807 4.056v15.888c0 2.24 1.704 4.056 3.807 4.056h14.911c2.103 0 3.807-1.816 3.807-4.056zm-12.61-16.838l-1.27 4.137v2.934H19.18v-2.802l-1.3-4.269h1.1l.709 2.827h.068l.676-2.827h1.11zm2.766 5.77c0 .447-.126.797-.377 1.051-.252.254-.597.381-1.038.381-.424 0-.764-.131-1.018-.393-.255-.262-.382-.615-.382-1.058v-2.703c0-.404.13-.726.392-.965.26-.24.611-.36 1.052-.36.401 0 .73.127.986.38.257.251.385.576.385.974v2.694zm3.59 1.3h-.97v-.575a2.136 2.136 0 01-.557.485c-.193.11-.381.166-.563.166-.224 0-.393-.078-.507-.233-.113-.155-.17-.388-.17-.698v-4.36h.97v3.998c0 .124.02.213.06.269.041.055.107.083.198.083.071 0 .161-.037.27-.11.109-.073.209-.167.3-.28v-3.96h.97v5.216zm2.982 6.113c.003.997-.03 1.995-.106 2.992 0 1.26-1.034 2.282-2.308 2.282-1.818.076-3.679.11-5.576.106-1.898.003-3.759-.03-5.577-.106-1.274 0-2.308-1.022-2.308-2.282a37.552 37.552 0 01-.107-2.992c-.003-.998.03-1.995.107-2.993 0-1.26 1.034-2.281 2.308-2.281 1.818-.076 3.679-.11 5.577-.106 1.897-.004 3.758.03 5.576.106 1.274 0 2.308 1.022 2.308 2.281.076.998.11 1.995.106 2.993zm-1.685 3.168c.243-.27.364-.672.364-1.207v-.392h-.998v.363c0 .307-.032.505-.096.595-.064.09-.176.135-.337.135-.154 0-.263-.054-.327-.16-.064-.106-.096-.296-.096-.57v-.984h1.854v-1.328c0-.495-.12-.874-.357-1.138-.238-.264-.579-.396-1.022-.396-.434 0-.788.143-1.062.428-.274.285-.411.653-.411 1.106v2.34c0 .503.125.898.374 1.184.25.287.591.43 1.025.43.483 0 .846-.135 1.089-.406zm-1.49-3.03v-.528c0-.218.033-.374.1-.47.068-.093.178-.14.333-.14.147 0 .255.047.322.14.068.096.101.252.101.47v.528h-.856zm-1.958 3.066c.152-.197.228-.48.228-.851v-2.894c0-.426-.08-.75-.242-.973-.162-.222-.396-.334-.703-.334a.9.9 0 00-.446.124 1.5 1.5 0 00-.416.363v-2.275h-.98v7.07h.98v-.402c.127.16.265.277.414.353.148.076.317.114.507.114.287 0 .506-.098.658-.295zm-.77-.993c0 .166-.028.286-.084.36-.056.073-.143.11-.261.11a.513.513 0 01-.235-.057.845.845 0 01-.23-.183v-3.25a.717.717 0 01.2-.16.448.448 0 01.206-.05c.131 0 .232.045.3.136.07.091.104.225.104.401v2.693zm-3.704 1.222h.97v-5.215h-.97v3.959a1.356 1.356 0 01-.3.28c-.109.074-.199.11-.27.11-.091 0-.157-.027-.197-.083-.041-.055-.061-.144-.061-.268v-3.998h-.97v4.36c0 .31.057.542.17.698.114.155.283.233.507.233.182 0 .37-.056.563-.167a2.13 2.13 0 00.558-.484v.575zm-2.914-6.043h1.13v-1.026h-3.352v1.026h1.13v6.043h1.092v-6.043zm4.844-4.394a.455.455 0 00.116-.33v-2.84a.352.352 0 00-.118-.277.45.45 0 00-.31-.105.403.403 0 00-.29.105.364.364 0 00-.11.276v2.84c0 .144.034.255.103.334.07.078.168.116.296.116.132 0 .236-.039.313-.119z" fill="currentColor"/></g></svg>