<svg width="104" height="104" viewBox="0 0 104 104" fill="none" xmlns="http://www.w3.org/2000/svg">
<rect width="104" height="104" rx="14" fill="#BFE5D1"/>
<path d="M30.3274 17.6002C28.852 17.9968 30.4859 29.6174 31.4873 35.3781L39.707 41.4331C42.1863 44.5122 47.5099 47.292 48.9698 33.7778C50.7946 16.8851 46.1627 13.4928 43.8167 13.3845C41.9398 13.2978 40.9026 26.3586 40.6186 32.8998C37.803 27.6346 31.8028 17.2035 30.3274 17.6002Z" fill="#EAF6F0"/>
<path d="M57.9515 47.9086C57.4579 52.0903 55.2434 56.3776 52.2993 59.2149C51.5632 59.9243 50.236 61.168 49.4654 61.3813C48.5382 61.6042 47.588 61.4963 46.6494 61.5538C44.772 61.6689 43.0512 61.7743 41.1738 61.8893C41.6662 62.1913 42.0022 62.5028 42.4946 62.8048C38.8873 53.8924 35.5697 44.6302 33.0343 35.32C31.5698 30.0958 30.0706 24.3755 30.7963 19.0171C30.7847 18.8517 31.0746 18.5018 31.0746 18.5018C30.9412 18.8421 30.6052 18.5306 30.7732 18.6864C30.9412 18.8421 31.4452 19.3094 31.7811 19.621C33.1481 21.1978 34.2253 23.1246 35.1461 25.0609C36.9414 28.2721 38.4354 31.6679 39.9409 35.229C40.5026 36.5231 42.5249 36.2331 42.421 34.7449C42.0746 29.7843 42.0296 24.6391 42.6335 19.7864C42.8656 18.6097 42.9181 17.1119 43.4746 16.0815C43.7183 15.0702 43.8632 14.8952 44.3556 15.1972C45.9893 16.0934 46.9447 18.5258 47.5295 20.1506C48.3169 22.4272 48.4785 24.7422 48.4837 27.0667C48.5581 30.3834 48.1748 33.8942 47.299 37.103C46.9451 38.7853 49.3379 39.3029 49.6918 37.6206C50.5561 34.2465 50.9394 30.7357 50.8534 27.2537C50.8315 22.4392 49.935 16.3499 46.0944 13.0979C39.925 7.99588 39.5675 23.1294 39.6189 26.1153C39.5022 28.9455 39.6985 31.7565 39.7383 34.5771C40.509 34.3639 41.2912 34.3159 42.2183 34.0931C40.7244 30.6973 39.2304 27.3016 37.5915 24.0808C36.3578 22.1636 33.3352 14.876 29.9627 16.079C28.2765 16.6805 28.1367 19.18 28.0957 20.8431C27.9791 23.6733 28.4998 26.6305 29.0089 29.4224C30.4556 36.6405 32.6729 43.6452 35.2031 50.6309C36.7663 55.0187 38.3296 59.4066 40.2057 63.7753C40.3968 64.2618 40.9007 64.7291 41.5265 64.6908C43.5603 64.5661 45.5941 64.4415 47.7843 64.3073C48.5665 64.2594 49.3603 64.3768 50.131 64.1636C51.6723 63.737 52.9879 62.3279 54.1702 61.2591C57.4042 58.0718 60.0534 53.2598 60.5008 48.4166C60.5418 46.7535 58.149 46.2358 57.9515 47.9086Z" fill="#26985D"/>
<path d="M75.0356 30.5162L29.3156 35.1249C28.787 35.1802 28.392 35.6872 28.4444 36.2529L30.5085 59.3593C30.5609 59.925 31.0352 60.3483 31.5638 60.293L77.2838 55.6843C77.8124 55.629 78.2074 55.1219 78.1551 54.5562L76.0908 31.4373C76.0384 30.8716 75.5642 30.4609 75.0356 30.5162Z" fill="#BFE5D1"/>
<path d="M25.4046 35.364L71.2225 30.7729C71.3285 30.7594 71.4236 30.8462 71.4364 30.9588L73.5035 53.9623C73.5163 54.0749 73.4348 54.1759 73.3289 54.1894L27.4992 58.7806C27.3933 58.7941 27.2982 58.7073 27.2853 58.5947L25.23 35.5911C25.2172 35.4785 25.2987 35.3775 25.4046 35.364Z" stroke="#6AC395" stroke-width="3.10166"/>
<path d="M55.0257 40.3136C56.8063 43.5793 56.4171 48.2989 53.3882 50.8575C50.3729 53.3766 46.3961 51.7092 44.7375 48.665C42.957 45.3992 43.3461 40.6796 46.375 38.1211C49.3691 35.5957 53.3603 37.2892 55.0257 40.3136Z" fill="#6AC395"/>
<path d="M58.5587 31.1813C59.1382 28.8907 61.8101 27.4729 64.1044 28.2387C66.2087 28.941 67.072 31.1887 65.9885 33.1438L64.1581 36.4465C63.3086 37.9793 61.3794 38.7642 59.7101 38.2561C58.1339 37.7764 57.2674 36.2856 57.6609 34.7303L58.5587 31.1813Z" fill="#EAF6F0"/>
<path fill-rule="evenodd" clip-rule="evenodd" d="M57.2789 31.0077C58.0487 27.9647 61.5984 26.0812 64.6463 27.0985C67.4417 28.0316 68.5887 31.0176 67.1492 33.6149L65.3189 36.9176C64.1503 39.0262 61.4964 40.1059 59.2 39.407C57.0318 38.7471 55.8398 36.6962 56.3811 34.5567L57.2789 31.0077ZM63.5618 29.3791C62.0212 28.8649 60.2269 29.817 59.8378 31.3552L58.9399 34.9042C58.6943 35.8752 59.2353 36.8061 60.2194 37.1056C61.2617 37.4228 62.4663 36.9328 62.9967 35.9757L64.827 32.673C65.5546 31.3601 64.9749 29.8508 63.5618 29.3791Z" fill="#26985D"/>
<path d="M49.6646 30.7199C49.941 28.2425 52.2769 26.3859 54.7634 26.6674C57.4741 26.9742 59.0815 29.6556 58.1007 32.2344L56.8159 35.6127C56.14 37.39 54.2912 38.5092 52.4284 38.2687C50.4218 38.0097 49.0463 36.2631 49.2699 34.258L49.6646 30.7199Z" fill="#EAF6F0"/>
<path fill-rule="evenodd" clip-rule="evenodd" d="M48.4 30.6549C48.7568 27.4564 51.7727 25.0593 54.9829 25.4227C58.4827 25.8188 60.558 29.2808 59.2917 32.6103L58.0069 35.9886C57.111 38.3442 54.6606 39.8276 52.1916 39.5089C49.5319 39.1656 47.7088 36.8506 48.0053 34.193L48.4 30.6549ZM54.5462 27.9099C52.7835 27.7104 51.1276 29.0266 50.9316 30.7828L50.5369 34.3209C50.3861 35.6735 51.3139 36.8517 52.6675 37.0264C53.9241 37.1886 55.1713 36.4336 55.6272 35.2348L56.912 31.8565C57.6073 30.0283 56.4678 28.1275 54.5462 27.9099Z" fill="#26985D"/>
<path d="M52.3176 58.1607L63.5011 57.0333L59.1803 67.682L54.6892 71.5108L38.5326 71.5108L37.3907 68.0823C36.6253 67.8104 34.0195 62.8621 32.5162 57.0333C30.1798 47.9741 35.8985 47.4537 42.6632 47.4538C45.1574 47.4538 55.0651 48.5812 43.039 55.7217C41.6452 56.5492 44.9181 58.7282 44.9181 58.7282C44.9181 58.7282 50.2694 58.6213 52.3176 58.1607Z" fill="#EAF6F0"/>
<path d="M44.1678 58.3517C42.0874 55.5577 42.6646 55.721 42.6646 55.721C42.6646 55.721 51.5103 51.4178 49.0912 49.2629C44.8725 45.5048 35.7793 47.1276 33.5381 49.2629C32.4437 50.3055 32.2845 50.9872 31.8969 52.2694C31.3466 54.0901 31.8969 57.155 31.8969 57.155C32.9733 61.7713 35.7733 64.264 37.7531 68.2969C38.9808 70.7977 40.7855 72.2568 40.7855 72.2568L50.1809 72.2568C50.1809 72.2568 56.7606 71.4594 59.3989 67.2688C60.1589 66.0617 60.4462 65.3141 61.0368 64.0285C62.2105 61.4736 63.535 57.3062 63.535 57.3062" stroke="#26985D" stroke-width="3.00781" stroke-linecap="round"/>
<path d="M35.0158 73.6469C35.0158 73.6469 34.8271 69.1047 40.1102 69.4845C43.2549 69.6668 44.4184 71.5657 44.4184 71.5657C44.4184 71.5657 46.3838 69.1047 49.1197 70.244C51.8713 71.5657 51.8713 71.5657 51.8713 71.5657C51.8713 71.5657 59.3242 67.783 60.2991 71.5657C61.2739 75.3484 61.2739 91.8312 61.2739 91.8312H31.8711L35.0158 73.6469Z" fill="#6AC395"/>
<path d="M36.5861 73.6469C36.5861 72.8873 36.5861 71.9454 37.5609 71.3681C38.5358 70.806 40.1081 70.806 41.083 71.1858C41.6648 71.3681 42.0578 71.5656 42.4509 71.9454C42.6396 72.1277 42.844 72.3252 42.6396 72.1277C43.4258 73.2671 44.7937 73.0696 45.5799 72.1277C45.1868 72.6898 45.973 71.7479 46.1617 71.7479C46.9478 71.1858 47.734 71.3681 48.5202 71.7479C49.3063 72.1277 49.8881 72.5075 50.6743 72.6898C51.6491 73.0696 52.4353 72.5075 53.4259 72.1277C54.6052 71.7479 55.7844 71.1858 57.1524 71.1858C58.3316 71.1858 58.3316 71.7479 58.3316 72.705C58.5203 73.6469 58.5203 75.166 58.7247 76.3054C58.9134 79.3437 58.9134 82.5491 59.1178 85.5874C59.1178 87.6686 59.1178 89.5675 59.1178 91.6488C59.6996 91.0867 60.297 90.5094 60.8788 89.9473C52.451 89.9473 43.8189 89.9473 35.3911 89.9473C34.2118 89.9473 33.0326 89.9473 31.869 89.9473C32.4508 90.7069 32.8439 91.269 33.4414 92.0286C34.4162 85.9671 35.5955 79.9057 36.5861 74.0266C36.9792 71.9454 33.6458 71.1858 33.4414 73.0848C32.4665 79.1462 31.2873 85.2076 30.2967 91.0867C30.108 92.0286 30.6898 93.1679 31.869 93.1679C40.2968 93.1679 48.929 93.1679 57.3568 93.1679C58.536 93.1679 59.7153 93.1679 60.8788 93.1679C61.8537 93.1679 62.6398 92.4083 62.6398 91.4665C62.6398 87.4863 62.6398 83.5061 62.4512 79.526C62.4512 77.0649 62.2625 74.6039 61.8694 71.9454C61.4763 69.4844 60.1084 67.7829 57.3568 67.7829C55.2026 67.7829 52.8441 68.7248 50.8787 69.6819C51.4605 69.6819 52.058 69.6819 52.6397 69.6819C51.0674 68.9223 49.6994 67.9804 47.9384 67.7829C45.973 67.6006 44.212 68.7248 43.0327 70.244C44.0075 70.244 44.9981 70.244 45.973 70.244C44.212 67.5854 39.6993 66.6436 36.759 67.9652C34.7936 68.9071 33.6143 71.0035 33.6143 73.2671C33.4414 75.7433 36.7748 75.7433 36.5861 73.6469Z" fill="#6AC395"/>
</svg>
