<svg fill="none" xmlns="http://www.w3.org/2000/svg" viewBox="0 0 221 112">
  <defs/>
  <g filter="url(#filter0_d)">
    <path d="M207.132 36.995a12.17 12.17 0 00-1.487-.047 12.327 12.327 0 00-1.484-.23c-.097-.01-.194-.016-.291-.023a10.285 10.285 0 00-4.068-1.262l-.74-.07a10.428 10.428 0 00-2.027.012 10.286 10.286 0 00-1.989-.388l-9.436-.884a10.298 10.298 0 00-9.709 4.816l-7.169 11.534-4.923-12.679a10.3 10.3 0 00-8.64-6.524l-10.415-.976a10.253 10.253 0 00-2.193.033c-3.539-1.48-7.617-2.444-12.208-2.874-6.776-.636-12.708-.032-17.631 1.791-2.128.788-4.06 1.807-5.772 3.03-5.142-5.008-11.985-8.135-19.408-8.83a40.59 40.59 0 00-6.076-.128l.547-5.832a10.283 10.283 0 00-2.323-7.525 10.273 10.273 0 00-6.965-3.68l-8.9-.835c-5.662-.53-10.683 3.626-11.213 9.282l-.659 7.03C48.57 20.34 44.77 19.415 40.6 19.024c-10.43-.977-19.009 1.227-25.495 6.548-6.178 5.07-9.91 12.704-10.789 22.076-.834 8.902 1.423 16.788 6.526 22.8 3.715 4.377 10.854 9.85 23.756 11.06 4.172.39 10.224.375 16.271-1.664a10.307 10.307 0 005.47 2.211l8.735.819a10.28 10.28 0 004.113-.447c3.693 1.862 7.873 3.06 12.34 3.478 6.866.644 13.462-.733 19.043-3.906 4.476 4.142 10.671 6.691 17.962 7.374 4.121.386 8.906.468 13.815-.964 1.156.605 2.443.998 3.813 1.127l6.708.628a10.276 10.276 0 00-.606 10.017 10.303 10.303 0 008.317 5.774l9.968.934a10.3 10.3 0 009.661-4.737l26.313-41.517c.437.09.887.157 1.346.2.413.039.837.056 1.261.061.142.02.284.038.426.051l.741.07a9.95 9.95 0 001.211.042c.392.082.791.146 1.198.184l.744.07c.407.037.811.052 1.208.044.389.082.788.142 1.196.18l.749.07c5.662.531 10.683-3.625 11.213-9.28l.205-2.188c.639-6.851-4.041-12.502-10.887-13.144z" fill="#fff"/>
    <path d="M198.102 45.606l.74.07-.095 1.012 1.128.106-.048.515-1.128-.106-.206 2.2c-.038.406.055.639.522.683.137.012.36.019.577.008l-.049.517c-.248.009-.494 0-.722-.021-.749-.07-1.153-.355-1.074-1.203l.212-2.253-1.003-.094.048-.515 1.003.094.095-1.013zM200.785 47.752c.027-.29.036-.565.05-.868l.695.065c-.004.192-.007.41-.032.677l.017.002c.49-.543 1.062-.727 1.686-.669.641.06 1.141.423 1.3 1.086a1.818 1.818 0 011.668-.808c1.085.102 1.707.694 1.591 1.938l-.205 2.187-.749-.07.179-1.909c.087-.927-.124-1.561-.933-1.637-.655-.062-1.369.325-1.487 1.58l-.163 1.744-.744-.07.184-1.957c.096-1.027-.211-1.524-.897-1.588-.655-.062-1.417.343-1.523 1.47l-.173 1.85-.741-.07.277-2.953z" fill="#000"/>
    <path d="M126.977 59.72c-8.097-.492-13.249.492-13.746 5.803-.322 3.437 2.071 7.424 9.037 8.077 9.339.875 14.803-3.745 15.584-12.083l.086-.917c-3.272-.31-7.313-.66-10.961-.88zm18.818 12.879c-.242 2.589-.407 5.148-.395 7.47l-8.28-.775a48.502 48.502 0 01.223-5.63c-4.992 5.076-10.463 6.16-17.851 5.467-10.957-1.027-16.282-7.36-15.655-14.052.908-9.69 9.206-12.36 23.089-11.38 3.796.27 8.052.654 11.57.984l.089-.947c.607-6.487-3.306-9.546-10.524-10.222-5.357-.502-9.512 1.341-10.278 5.132l-9.356-.876c1.885-9.45 12.145-10.922 20.969-10.095 10.572.99 19.149 5.586 18.102 16.753l-1.703 18.17z" fill="#F4A700"/>
    <path d="M50.424 47.773c.435-8.352-5.286-12.027-11.708-12.63-6.927-.648-12.786 2.335-14.498 10.174l26.206 2.456zM23.47 51.21c-.276 8.116 4.848 13.412 12.51 14.13 5.308.498 10.23-1.22 12.254-5.771l9.182.86C54.738 69.8 44.292 72.088 35.56 71.27 19.685 69.78 13.468 60.387 14.572 48.612c1.215-12.965 9.292-20.821 25.07-19.343 12.56 1.178 21.148 8.606 19.805 22.937l-.222 2.361-35.755-3.35v-.006z" fill="#E70028"/>
    <path d="M80.868 69.378c8.274.776 14.49-4.643 15.332-13.619.841-8.976-4.263-15.456-12.534-16.23-8.226-.772-14.494 4.642-15.335 13.618-.841 8.976 4.312 15.46 12.537 16.231zM62.865 15.666l8.9.834-2.093 22.337c4.85-4.783 11.001-5.728 16.916-5.174 9.92.93 20.31 8.648 18.958 23.084-1.133 12.088-10.72 20.073-23.06 18.916-6.46-.605-12.32-3.488-15.642-8.425a48.448 48.448 0 01-.81 5.394l-8.735-.819c.415-2.808.896-6.31 1.162-9.155l4.404-46.992z" fill="#0070CC"/>
    <path d="M194.089 45.23l-32.585 51.416-9.965-.934 9.317-14.251-17.059-40.944 10.415.976L166.6 73.394l18.056-29.048 9.433.884z" fill="#80BC00"/>
  </g>
  <defs>
    <filter id="filter0_d" x=".147" y="1.379" width="229.93" height="117.555" filterUnits="userSpaceOnUse" color-interpolation-filters="sRGB">
      <feFlood flood-opacity="0" result="BackgroundImageFix"/>
      <feColorMatrix in="SourceAlpha" type="matrix" values="0 0 0 0 0 0 0 0 0 0 0 0 0 0 0 0 0 0 127 0"/>
      <feOffset dx="4" dy="4"/>
      <feGaussianBlur stdDeviation="4"/>
      <feColorMatrix type="matrix" values="0 0 0 0 0 0 0 0 0 0 0 0 0 0 0 0 0 0 0.25 0"/>
      <feBlend mode="normal" in2="BackgroundImageFix" result="effect1_dropShadow"/>
      <feBlend mode="normal" in="SourceGraphic" in2="effect1_dropShadow" result="shape"/>
    </filter>
  </defs>
</svg>