<svg fill="none" xmlns="http://www.w3.org/2000/svg" viewBox="0 0 231 119">
  <defs/>
  <g filter="url(#filter0_d)">
    <path d="M207.132 36.995a12.17 12.17 0 00-1.487-.047 12.327 12.327 0 00-1.484-.23c-.097-.01-.194-.016-.291-.023a10.28 10.28 0 00-4.068-1.262l-.74-.07a10.429 10.429 0 00-2.027.012 10.271 10.271 0 00-1.989-.388l-9.436-.884a10.296 10.296 0 00-9.708 4.816l-7.169 11.534-4.923-12.679a10.3 10.3 0 00-8.64-6.524l-10.416-.976a10.242 10.242 0 00-2.192.033c-3.539-1.48-7.618-2.444-12.209-2.874-6.776-.636-12.708-.032-17.631 1.791-2.128.788-4.059 1.807-5.771 3.03-5.142-5.008-11.986-8.135-19.408-8.83a40.59 40.59 0 00-6.077-.128l.547-5.832a10.283 10.283 0 00-2.323-7.525 10.273 10.273 0 00-6.964-3.68l-8.9-.835c-5.663-.53-10.684 3.626-11.214 9.282l-.659 7.03C48.57 20.34 44.77 19.415 40.6 19.024c-10.43-.977-19.009 1.227-25.495 6.548-6.178 5.07-9.91 12.704-10.789 22.076-.834 8.902 1.424 16.788 6.526 22.8 3.716 4.377 10.854 9.85 23.756 11.06 4.172.39 10.225.375 16.271-1.664a10.307 10.307 0 005.47 2.211l8.735.819a10.28 10.28 0 004.114-.447c3.692 1.862 7.873 3.06 12.338 3.478 6.867.644 13.464-.733 19.045-3.906 4.476 4.142 10.67 6.691 17.961 7.374 4.121.386 8.906.468 13.815-.964 1.156.605 2.444.998 3.814 1.127l6.707.628a10.276 10.276 0 00-.606 10.017 10.305 10.305 0 008.317 5.774l9.969.934c3.856.361 7.59-1.47 9.661-4.737l26.312-41.517c.437.09.888.157 1.346.2.413.039.837.056 1.262.061.141.02.283.038.426.051l.74.07a9.96 9.96 0 001.212.042c.391.082.79.146 1.198.184l.743.07c.407.037.811.052 1.208.044.389.082.789.142 1.196.18l.749.07c5.662.531 10.683-3.625 11.213-9.28l.205-2.188c.639-6.851-4.04-12.502-10.887-13.144z" fill="#fff"/>
    <path d="M198.102 45.606l.74.07-.094 1.012 1.127.106-.048.515-1.128-.106-.206 2.2c-.038.406.055.639.522.683.137.012.361.019.577.008l-.048.517a5.74 5.74 0 01-.722-.021c-.75-.07-1.154-.355-1.074-1.203l.211-2.253-1.003-.094.049-.515 1.002.094.095-1.013zM200.785 47.752c.028-.29.036-.565.05-.868l.695.065c-.004.192-.007.41-.032.677l.017.002c.491-.543 1.063-.727 1.686-.669.641.06 1.142.423 1.301 1.086a1.815 1.815 0 011.667-.808c1.085.102 1.708.694 1.591 1.938l-.205 2.187-.749-.07.179-1.909c.087-.927-.124-1.561-.933-1.637-.655-.062-1.369.325-1.487 1.58l-.163 1.744-.743-.07.183-1.957c.096-1.027-.211-1.524-.897-1.588-.655-.062-1.417.343-1.523 1.47l-.173 1.85-.74-.07.276-2.953z" fill="#000"/>
    <path d="M126.977 59.72c-8.097-.492-13.248.492-13.746 5.803-.322 3.437 2.071 7.424 9.038 8.077 9.339.875 14.802-3.745 15.584-12.083l.086-.917c-3.273-.31-7.314-.66-10.962-.88zm18.819 12.879c-.243 2.589-.408 5.148-.396 7.47l-8.279-.775a48.062 48.062 0 01.223-5.63c-4.993 5.076-10.464 6.16-17.852 5.467-10.957-1.027-16.282-7.36-15.655-14.052.908-9.69 9.206-12.36 23.089-11.38 3.796.27 8.053.654 11.57.984l.089-.947c.608-6.487-3.306-9.546-10.523-10.222-5.358-.502-9.513 1.341-10.279 5.132l-9.356-.876c1.886-9.45 12.146-10.922 20.969-10.095 10.572.99 19.149 5.586 18.102 16.753l-1.702 18.17z" fill="#F4A700"/>
    <path d="M50.424 47.773c.435-8.352-5.286-12.027-11.708-12.63-6.927-.648-12.786 2.335-14.497 10.174l26.205 2.456zM23.471 51.21c-.275 8.116 4.848 13.412 12.51 14.13 5.309.498 10.23-1.22 12.254-5.771l9.183.86C54.738 69.8 44.293 72.088 35.56 71.27 19.685 69.78 13.47 60.387 14.572 48.612c1.215-12.965 9.292-20.821 25.07-19.343 12.56 1.178 21.148 8.606 19.805 22.937l-.221 2.361-35.756-3.35v-.006z" fill="#E70028"/>
    <path d="M80.869 69.378c8.273.776 14.49-4.643 15.331-13.619.841-8.976-4.263-15.456-12.534-16.23-8.225-.772-14.493 4.642-15.335 13.618-.84 8.976 4.312 15.46 12.538 16.231zM62.865 15.666l8.9.834-2.093 22.337c4.85-4.783 11.001-5.728 16.917-5.174 9.92.93 20.31 8.648 18.957 23.084-1.133 12.088-10.719 20.073-23.06 18.916-6.46-.605-12.32-3.488-15.642-8.425a48.448 48.448 0 01-.81 5.394l-8.735-.819c.416-2.808.896-6.31 1.163-9.155l4.403-46.992z" fill="#0070CC"/>
    <path d="M194.089 45.23l-32.584 51.416-9.966-.934 9.317-14.251-17.059-40.944 10.415.976L166.6 73.394l18.056-29.048 9.433.884z" fill="#80BC00"/>
  </g>
  <defs>
    <filter id="filter0_d" x=".147" y="1.379" width="229.93" height="117.555" filterUnits="userSpaceOnUse" color-interpolation-filters="sRGB">
      <feFlood flood-opacity="0" result="BackgroundImageFix"/>
      <feColorMatrix in="SourceAlpha" type="matrix" values="0 0 0 0 0 0 0 0 0 0 0 0 0 0 0 0 0 0 127 0"/>
      <feOffset dx="4" dy="4"/>
      <feGaussianBlur stdDeviation="4"/>
      <feColorMatrix type="matrix" values="0 0 0 0 0 0 0 0 0 0 0 0 0 0 0 0 0 0 0.25 0"/>
      <feBlend mode="normal" in2="BackgroundImageFix" result="effect1_dropShadow"/>
      <feBlend mode="normal" in="SourceGraphic" in2="effect1_dropShadow" result="shape"/>
    </filter>
  </defs>
</svg>