<svg fill="none" xmlns="http://www.w3.org/2000/svg" viewBox="0 0 217 118">
  <defs/>
  <g filter="url(#filter0_d)">
    <path d="M122.066 91.96c-6.273.744-12.964.452-18.056-.736a11.182 11.182 0 01-6.342 3.031L84.095 96a11.251 11.251 0 01-8.76-2.623 11.272 11.272 0 01-7.82 4.754l-14.343 1.843c-5.1.656-10.007-2.24-11.92-7.044L25.642 53.8c-2.142-.55-5.289-1.123-8.885-1.439-6.177-.532-10.773-5.985-10.284-12.194l.122-1.572c.42-5.343 4.51-9.665 9.804-10.345l23.088-2.968c6.39-.821 12.42 1.826 16.186 6.726l.414-1.633a11.285 11.285 0 019.495-8.447l14.249-1.832a11.337 11.337 0 012.956.01c.901-.37 1.863-.629 2.866-.758l13.565-1.743c3-.386 6.009.458 8.372 2.306 4.918-3.419 11.086-5.784 18.129-6.69 5.558-.714 11.087-.424 16.898.894a11.265 11.265 0 016.119 3.708 17.523 17.523 0 0112.717-8.21l11.583-1.489c5.301-.68 10.352 2.466 12.111 7.545l17.728 51.301a11.4 11.4 0 01-1.062 9.69 11.271 11.271 0 01-8.149 5.272l-12.546 1.613c-4.929.633-9.642-2.04-11.693-6.502l-.505.065-.115.46c-1.028 4.666-4.86 8.176-9.571 8.782l-14.241 1.83a11.248 11.248 0 01-6.869-1.309c-4.517 2.542-9.893 4.305-15.94 5.083-.04-.003-.079.002-.118.007z" fill="#fff"/>
    <path d="M81.277 31.346L66.07 86.881l-14.342 1.844-16.22-40.672c-.993-2.5-1.683-3.381-3.82-4.218-3.495-1.361-9.089-2.342-13.963-2.764l.122-1.572 23.087-2.967c2.938-.378 5.842 1.25 6.948 4.57l9.634 29.765 9.513-37.69 14.25-1.83zm60.757 28.276c-1.725-13.914-21.025-12.22-21.691-18.447-.204-1.895 1.334-4.134 5.185-5.153 1.91-.508 7.241-1.392 13.682.64l.949-11.486c-3.418-.776-7.763-1.377-12.994-.705-13.409 1.724-21.926 10.1-20.685 20.368.883 7.606 8.259 10.954 13.722 12.817 5.618 1.906 7.603 3.334 7.876 5.642.416 3.544-3.558 5.643-7.461 6.2-6.803.986-11.019-.465-14.365-1.536l-.971 11.87c3.351 1.054 9.368 1.575 15.447.857 14.258-1.824 22.676-10.101 21.306-21.067zm37.628 12.659l12.547-1.613-17.728-51.302-11.582 1.489c-2.605.335-4.609 2.14-5.279 4.61l-14.073 51.458 14.241-1.83 1.817-8.24 17.405-2.236 2.652 7.663zM162.12 55.555l4.6-20.706 6.656 19.26-11.256 1.447zm-61.456-26.7l-4.442 54.15L82.65 84.75l4.45-54.152 13.564-1.744z" fill="url(#paint0_linear)"/>
  </g>
  <defs>
    <linearGradient id="paint0_linear" x1="20.908" y1="65.827" x2="188.815" y2="44.246" gradientUnits="userSpaceOnUse">
      <stop stop-color="#231F5C"/>
      <stop offset="1" stop-color="#034EA2"/>
    </linearGradient>
    <filter id="filter0_d" x=".762" y=".309" width="216.197" height="117.465" filterUnits="userSpaceOnUse" color-interpolation-filters="sRGB">
      <feFlood flood-opacity="0" result="BackgroundImageFix"/>
      <feColorMatrix in="SourceAlpha" type="matrix" values="0 0 0 0 0 0 0 0 0 0 0 0 0 0 0 0 0 0 127 0"/>
      <feOffset dx="4" dy="4"/>
      <feGaussianBlur stdDeviation="4"/>
      <feColorMatrix type="matrix" values="0 0 0 0 0 0 0 0 0 0 0 0 0 0 0 0 0 0 0.25 0"/>
      <feBlend mode="normal" in2="BackgroundImageFix" result="effect1_dropShadow"/>
      <feBlend mode="normal" in="SourceGraphic" in2="effect1_dropShadow" result="shape"/>
    </filter>
  </defs>
</svg>