<svg xmlns="http://www.w3.org/2000/svg" viewBox="0 0 109 89">
  <defs/>
  <defs>
    <style>
			.cls-7 { fill: #fff; }
			.cls-4 { fill: #13245a; }
			.cls-7 { stroke: #13245a; stroke-miterlimit: 10; }
			.cls-6 { fill: #4fa04d; }
			.cls-7 { stroke-width: 1.36px; }
    </style>
  </defs>
  <g style="isolation: isolate;">
    <g id="Layer_2" data-name="Layer 2">
      <g id="Stickers">
        <path d="M53 85.07c-.91 0-1.85 0-2.8-.09h-.05l-1.55-.13-1.45-.18h-.19A41.23 41.23 0 0114.83 59.7H6.7a3.61 3.61 0 01-3.55-2.8A5.82 5.82 0 013 55.66a6.17 6.17 0 015.82-6 9.23 9.23 0 013-2.1c-.11-1.2-.17-2.42-.17-3.62a41.08 41.08 0 012.15-13.18 1 1 0 010-.16c.05-.16.11-.31.16-.47l.15-.4a41.07 41.07 0 0114.83-19.41l.31-.2a41.15 41.15 0 0151.23 3.19l.23.19a41.58 41.58 0 0110.38 15 .64.64 0 01.06.18c.19.46.36.92.53 1.4a10.86 10.86 0 014.06 3.64 9.83 9.83 0 019 6.83 3.63 3.63 0 01-3.45 4.74H94v.39c0 .46 0 .91-.08 1.36V47.64c0 .25-.05.5-.08.75-.06.54-.13 1.09-.21 1.62v.06a40.42 40.42 0 01-8.18 19.08l-.23.27A41 41 0 0153 85.07z" fill="#fff"/>
        <path class="cls-4" d="M103 41.08a8 8 0 00-7.67-5.58 5.72 5.72 0 00-.59 0 9.1 9.1 0 00-4.5-4.16c-.24-.71-.5-1.42-.78-2.11v-.1a39.69 39.69 0 00-9.93-14.31.83.83 0 00-.15-.11 39.29 39.29 0 00-49.12-3.06l-.21.12a39.24 39.24 0 00-14.19 18.58l-.06.19c-.08.21-.16.42-.23.64a.45.45 0 000 .11A39.11 39.11 0 0013.47 44a41.2 41.2 0 00.32 4.87 7.37 7.37 0 00-4.11 2.64h-.25a4.4 4.4 0 00-4.6 4.18 4.14 4.14 0 00.09.84 1.83 1.83 0 001.78 1.38h9.35a39.53 39.53 0 0031.19 25h.13c.46.07.92.12 1.38.17.49.06 1 .1 1.48.13q1.34.09 2.7.09a39.33 39.33 0 0030.89-15.11A1 1 0 0084 68a39 39 0 007.82-18.24c.07-.52.14-1 .2-1.56 0-.23 0-.47.07-.71s0-.38 0-.57c0-.43.06-.87.07-1.3v-.37-1.76h9a1.82 1.82 0 001.84-2.41z"/>
        <circle cx="52.86" cy="43.87" r="37.57" stroke="#13245a" stroke-miterlimit="10" fill="#a1d5eb" stroke-width=".34"/>
        <path class="cls-6" d="M54.43 64.46c.92-1.29 3.36-.33 4.3-1.61.57-.79.17-1.87.1-2.83a4.06 4.06 0 01.44-2.17 19.88 19.88 0 001.15-1.92 1.59 1.59 0 00-.52-2c-.3-.16-.66-.16-.94-.34-.51-.33-.53-1.08-.92-1.53-.74-.86-2.18-.31-3.14-.49a4.86 4.86 0 01-3-1.91 6.2 6.2 0 00-1-1.25c-.9-.74-2.31-.56-3.2-1.31-.6-.51-.91-1.4-1.65-1.64s-1.66.3-2.38-.06c-.45-.23-.65-.75-1-1.14a2.24 2.24 0 00-2.55-.62c-1.46.62-2.23 2.76-3.81 2.62a2.16 2.16 0 01-1.72-2.07 14.85 14.85 0 00-.06-1.49 1.31 1.31 0 00-.88-1.11 1.55 1.55 0 01-.58-.15c-.65-.49 1-1.55.46-2.16a.67.67 0 00-.41-.18c-1.48-.22-2.76 1.81-4.16 1.28a1.68 1.68 0 01-1-1.59 3.74 3.74 0 01.61-1.87 5.54 5.54 0 012.57-2.47 2.82 2.82 0 013.28.75c.33.44.48 1 .82 1.41s1 .67 1.43.3.26-.91.23-1.41c-.1-2.06 1.69-3.72 3.49-4.75s3.85-1.83 5-3.53c.69-1 1.06-2.26 2-3 1.35-1 3.21-.5 4.88-.63a1.47 1.47 0 00.87-.27 1.52 1.52 0 00.19-1.72 3.49 3.49 0 00-1.61-1.89 2.28 2.28 0 00-2.41.18c-.62.51-1.06 1.48-1.86 1.41s-1.23-1-1.95-.88c-.5.09-.75.64-1 1.07a2.21 2.21 0 01-1.43 1.15 1.19 1.19 0 01-1.39-1c0-.38.21-.78.08-1.14-.31-.84-1.72-.24-2.4-.81s-.08-1.63.53-2.25a4.82 4.82 0 012.51-1.6c1.53-.24 3.11.91 4.58.41 1.28-.44 2-2 3.27-2.33s2.69.82 3.74 1.83a1.5 1.5 0 001 .54c.65 0 1-.8 1-1.44s0-1.32-.53-1.54a2.72 2.72 0 00-.81-.09c-.91-.09-1.49-1-2.24-1.53-1.5-1.07-3.65-.52-5.15.55a4.62 4.62 0 01-1.26.75 1.14 1.14 0 01-1.31-.4c-.24-.41-.1-1-.43-1.33s-1.12-.12-1.43.35-.42 1.06-.73 1.53-1 .75-1.44.34 0-1.18.44-1.63.92-1.09.59-1.62c-1.75-.55-3.47 1.77-5.21 1.2-.56-.19-1.11-.67-1.66-.46a1 1 0 00-.27 1.5 2.29 2.29 0 001.57.7 1.17 1.17 0 01.71.21.76.76 0 010 1 1.58 1.58 0 01-1.05.45c-1.77.15-3.33-1-5-1.69a37.7 37.7 0 00-13.77 18.5 5.43 5.43 0 001.16 1.28c.91.73 2 1.14 3 1.82a3.11 3.11 0 011.51 2.94 7.55 7.55 0 00-.45 1.64A1.87 1.87 0 0023.71 41a8.44 8.44 0 002.07.41 20.57 20.57 0 013.17.84l1.08.34a6.33 6.33 0 011.74.77c1.23.9 1.69 2.66 3 3.37.84.45 2 .46 2.5 1.24.66 1-.08 2.24-.93 3s-1.93 1.51-2.08 2.65a3.2 3.2 0 00.49 1.91 9.39 9.39 0 003.74 3.73c1.12.6 2.49 1.12 2.86 2.33.3 1-.2 2-.12 3s.88 2.07 1 3.18-.33 2.23 0 3.28a14.1 14.1 0 00.92 1.65 8.43 8.43 0 01.58 2.4 9.28 9.28 0 002 4.57 6.2 6.2 0 001.73 1.37q1.41.21 2.85.3a2.15 2.15 0 00.4-.45c0-.44-.63-.46-1.05-.57-.73-.2-1-1.08-1.08-1.85a5.64 5.64 0 00-.23-2.25c-.26-.57-.82-1-.9-1.64-.1-.83.68-1.49 1.39-1.94a21.8 21.8 0 003.36-2.32 5.29 5.29 0 001.86-3.52c.1-.8-.06-1.68.37-2.34z"/>
        <path class="cls-4" d="M54.79 64.82c1.28-1.48 4.28 0 4.71-2.61.24-1.42-.48-2.7.21-4.1.53-1.07 1.5-1.92 1.33-3.22a2 2 0 00-.52-1.13c-.43-.4-1.13-.38-1.5-.85s-.3-.84-.62-1.19a2 2 0 00-1.25-.62c-1.28-.2-2.28.2-3.5-.54s-1.67-2.29-3-2.92a10.65 10.65 0 00-1.49-.44 3 3 0 01-1.69-1.2A2.41 2.41 0 0045 45c-1.39.15-1.89-1.57-3.23-1.9a2.92 2.92 0 00-2.63.71c-.81.67-1.76 2.44-3 1.88-1.45-.65-.51-2.81-1.3-3.89a2 2 0 00-.89-.65s-.38-.11-.34 0c0-.12.33-.55.39-.66.29-.54.5-1.16 0-1.62a2 2 0 00-2 0c-.54.24-1 .62-1.54.87-1.59.75-2-1-1.39-2.18s1.77-2.67 3.29-2.78a2.14 2.14 0 012.09 1 4.16 4.16 0 001 1.48 1.36 1.36 0 002-.34 2.29 2.29 0 00.16-1.13 3.88 3.88 0 01.62-2.38c1.58-2.35 4.63-2.94 6.7-4.72a12.81 12.81 0 002.21-3.14c1.08-1.68 2.85-1.42 4.6-1.43.81 0 1.81 0 2.29-.76a2.79 2.79 0 00-.43-2.82A3.39 3.39 0 0051.22 19c-1.28-.17-1.85.49-2.72 1.24-1.31 1.12-1.59-.51-2.87-.3a1.55 1.55 0 00-1 .67c-.1.12-.15.24-.25.37-.38.65-1.38 1.83-1.88.02-.2-.77-.31-1.18-1.19-1.35-.65-.12-1.61.22-1.39-1 .12-.67 1.34-1.56 1.89-1.86 1.54-.85 3 .25 4.63.21a3.94 3.94 0 002.61-1.36 3.68 3.68 0 011.54-1.11 2.9 2.9 0 012.41.94c.73.61 1.55 1.79 2.66 1.36 1.34-.52 1.67-3.35.21-3.89-.45-.17-.85 0-1.32-.24a3.51 3.51 0 01-.71-.56 6.88 6.88 0 00-1.37-1 4.54 4.54 0 00-3.4-.09 7 7 0 00-1.49.7c-.55.35-1.62 1.5-2.23.6-.23-.33-.09-.83-.38-1.19a1.19 1.19 0 00-.91-.45c-.94 0-1.43.79-1.76 1.53-.08.2-.36 1.06-.62 1-.8-.17.17-1 .31-1.17a2.19 2.19 0 00.59-1.36c-.12-2.21-3.69 0-4.52.31s-1.35-.18-2.18-.37a1.58 1.58 0 00-1.05 0 1.48 1.48 0 00-.59 1.94 1.91 1.91 0 00.86.87c.24.13.59.13.8.27l.36.05v.68c-.53.47-2.32-.39-2.82-.61a8.31 8.31 0 00-2.2-1c-.74-.07-1.79 1.09-2.36 1.54a37.33 37.33 0 00-3.15 2.88 37.9 37.9 0 00-5.13 6.51 39 39 0 00-3.5 7.17c-.21.59-.34.79-.08 1.32a4.26 4.26 0 001.21 1.29c1.23 1 3 1.4 3.89 2.77s-.41 2.32 0 3.67a3 3 0 002.56 1.83 36 36 0 014.59 1.09 10.35 10.35 0 012 .75 5.39 5.39 0 011.62 1.77 5.12 5.12 0 002.09 2c.5.22 1.54.3 1.85.77.72 1.07-.25 2.07-1 2.75a5.39 5.39 0 00-1.87 2.31 4.07 4.07 0 00.87 3.29 9.75 9.75 0 002.47 2.54c1.06.76 3.16 1.28 3.6 2.64a7.19 7.19 0 01-.14 2.44 4.19 4.19 0 00.3 1.64 15.3 15.3 0 01.68 1.74 18.88 18.88 0 01-.05 2.91c.11 1.33 1.14 2.27 1.43 3.56a18.77 18.77 0 001.1 4.16 7.54 7.54 0 002.11 2.7 3 3 0 001.59.74 7.12 7.12 0 002.58.22 1 1 0 00.65-1.42 1.34 1.34 0 00-.74-.46c-.63-.26-.94-.15-1.18-1a5.14 5.14 0 01-.08-1.3 4.26 4.26 0 00-.25-1.62c-.31-.76-.79-.91-.63-1.79.26-1.4 2.63-2.21 3.73-3.08a7.3 7.3 0 002.23-2.73 4.91 4.91 0 00.37-1.31c.1-.83-.15-1.71.27-2.47.31-.58-.57-1.09-.88-.52-.58 1-.21 2.1-.46 3.21a6.56 6.56 0 01-3.15 3.72c-1.6 1.06-4.38 2.26-2.93 4.57a3.43 3.43 0 01.68 2 6.84 6.84 0 00.12 1.57A2.1 2.1 0 0050.14 81a7.08 7.08 0 01-.73-.18 6.55 6.55 0 01-2-.33 5 5 0 01-1.73-1.67 10.45 10.45 0 01-1.51-4.4 6.84 6.84 0 00-.46-1.72 9.49 9.49 0 01-1-2.05c-.26-1.4.28-2.62-.27-4a9.6 9.6 0 01-.66-1.74 11.27 11.27 0 01.22-2.46 3 3 0 00-1.35-2.59c-1-.77-2.31-1.18-3.32-2S34.4 55 34.86 53.43c.57-1.91 4.14-2.89 3-5.42a3 3 0 00-2.06-1.42c-1.41-.49-1.91-1.48-2.77-2.6-1.47-1.9-4.46-2.56-6.71-3a17 17 0 01-2.12-.35c-1.35-.43-1.25-1.25-.93-2.38a3.12 3.12 0 00-.68-3 10.48 10.48 0 00-3-2.07c-.57-.33-1.7-.94-1.76-1.72a8.3 8.3 0 011-2.46 37.43 37.43 0 019.79-13.28c.56-.48 1.13-.94 1.71-1.39a3.41 3.41 0 01.62-.46c.41-.09 1 .31 1.32.47a8.1 8.1 0 003.33 1.07 2.1 2.1 0 002.06-1 1.21 1.21 0 00-.8-1.7c-.22-.07-.91 0-1.07-.19l-.11-.53c-.27-.62-.13-.72.43-.28a3.21 3.21 0 001.18.3 7.28 7.28 0 002.85-1c.75-.32 1.73-.62.83.5a3.23 3.23 0 00-.68 1 1.21 1.21 0 00.94 1.64 1.77 1.77 0 001.77-.98c.25-.43.61-2.08 1.29-1.21.28.36.11.91.52 1.28a1.91 1.91 0 002.09.13c1.38-.66 2.28-1.72 4-1.67s2.09 1.32 3.36 1.9c.37.17 1.32.2 1.55.55a1.89 1.89 0 01-.17 1.34c-.64.54-1.19-.21-1.56-.54-1.64-1.48-3.44-2.11-5.22-.53a8.2 8.2 0 01-1.32 1.18 3 3 0 01-2.42.12 5 5 0 00-3.42 0c-1.22.56-4 2.95-2.43 4.43a1.82 1.82 0 001 .4c.62.1 1.2-.2 1.25.67s0 1.51 1 1.88a2.09 2.09 0 002.29-.72c.38-.43.55-1.22 1.14-1.25s.86.51 1.38.66a1.87 1.87 0 002-.79c.63-.67 1.26-1.2 2.22-.88s2.7 2.29 1 3a6.2 6.2 0 01-2 0 8.63 8.63 0 00-1.68.11 3.87 3.87 0 00-2.61 1.86 10.38 10.38 0 01-2.56 3.32c-1.16.83-2.5 1.37-3.71 2.12a9 9 0 00-2.43 2.12 5.37 5.37 0 00-1 3c0 .4.34 1.31-.94.36-.21-.16-.34-.68-.49-.9a2.83 2.83 0 00-.88-.91 3.56 3.56 0 00-2.78-.36 5.83 5.83 0 00-3.86 4.94c0 2.11 2 2.53 3.53 1.66a6 6 0 011.43-.78c.86-.17.51.19.25.68s-.45 1.12.12 1.53 1.1.06 1.25 1.19c.07.52 0 1.06.09 1.58a2.71 2.71 0 001.65 2c2.26.77 3-2.24 4.79-2.64 1.63-.36 1.77 1.36 2.93 1.87a2.45 2.45 0 001.26.1c1.35-.14 1.51.44 2.29 1.23a6.4 6.4 0 002.75 1.22c1.29.44 1.9 2.14 3.06 2.89a4.76 4.76 0 002.79.78c.7 0 1.5-.23 2 .45.34.46.34 1 .82 1.39s1.38.2 1.38 1.35c0 .7-.69 1.42-1 2a4.91 4.91 0 00-.65 3.18c.08.82.44 1.83-.42 2.37a4 4 0 01-1.67.35 3.1 3.1 0 00-2.21.93c-.41.47.31 1.2.74.7z"/>
        <path class="cls-6" d="M82.45 26.4a4.54 4.54 0 01.71 1.25 5.11 5.11 0 001.58 1.84.77.77 0 00.46.19c.42 0 .53-.58.55-1s.26-1 .66-.85a4 4 0 001.32 2 37.74 37.74 0 00-9.47-13.65 3.36 3.36 0 01-.91.45 3.38 3.38 0 00-1.16.47c-.32.26-.45.83-.12 1.08s1 .07 1.17.43 0 .53.14.77c.32.72 1.61-.2 2.18.35.37.36 0 1-.46 1.23a11.35 11.35 0 01-1.55.23 4.13 4.13 0 00-1.81 1.18l-3.06 2.87a3.67 3.67 0 01-1.16.84 5.47 5.47 0 01-2.21.05 2 2 0 00-2 .78c-.41.77.13 1.68.65 2.38.32.43.74.91 1.27.85s.87-.63 1.17-1.1a10.32 10.32 0 012.35-2.36 2.76 2.76 0 011.52-.78c.64 0 1.24.35 1.88.33s1.13-.39 1.67-.22a1.79 1.79 0 01.53.32l1.3 1c.64.49 1.36 1.2 1.12 2-.11.39-.46.8-.23 1.13s.83.1 1-.29.17-.84.38-1.2l.94 1a7.79 7.79 0 00-1.77-3.73 1 1 0 011.36.16z"/>
        <path class="cls-4" d="M82.09 26.76c.89 1.09 1.19 2.76 2.68 3.33a1 1 0 001.11-.23c.18-.19.44-1.5.53-1.51l-.49-.35a4.84 4.84 0 001.45 2.21c.34.29 1.06 0 .85-.5a39.09 39.09 0 00-9.6-13.88.53.53 0 00-.62-.08c-.81.51-3.42 1-2.48 2.58a1 1 0 00.6.46c.39.14.51 0 .7.36s.17.88.82 1c.32.07 1.47-.29 1.52.1s-1.23.37-1.43.4a3.25 3.25 0 00-1.28.47c-1.7 1.09-2.94 2.85-4.51 4.1-1.37 1.08-3.3-.24-4.65 1-1.18 1.06-.32 2.72.52 3.69 1.07 1.24 2.19.77 3-.45a10 10 0 012.09-2.17 3.27 3.27 0 011.28-.82c.56-.11 1.15.24 1.7.29s1-.14 1.57-.14 1.09.49 1.6.89 1.29.92 1.28 1.69c0 .42-.38.69-.31 1.15a.94.94 0 001.24.74c.88-.26.86-1.15 1.17-1.86l-.8.11.94 1a.51.51 0 00.85-.5 8.61 8.61 0 00-1.9-3.95l-.1.8.68.14c.5.42 1.22-.29.72-.72a1.58 1.58 0 00-1.91-.3.52.52 0 00-.11.8A7.68 7.68 0 0182.42 30l.86-.49-.94-1a.52.52 0 00-.8.11 5.55 5.55 0 00-.29.87c-.14.49 0 .17.06-.12a1.84 1.84 0 00-.37-1.58 6.75 6.75 0 00-1.51-1.36 3.38 3.38 0 00-1.9-1 5.51 5.51 0 00-1 .18 3.9 3.9 0 01-1.48-.16 2.43 2.43 0 00-1.83.24 10.29 10.29 0 00-3.16 2.93c-.34.5-.62 1.05-1.38.71a3.08 3.08 0 01-.81-1.18c-.63-1.44.89-1.58 1.89-1.5a4.19 4.19 0 003.67-1.47l1.94-1.82a5.71 5.71 0 012.29-1.71c1-.23 2.56-.12 2.54-1.59a1.07 1.07 0 00-.78-1 1.9 1.9 0 00-.75 0c-.45 0-.63.24-.87-.2-.11-.19-.07-.42-.23-.61s-.35-.21-.55-.34c.06 0-.35-.05-.35-.06-.24-.35.46-.62.64-.68a5 5 0 001.17-.55l-.61-.08A37.77 37.77 0 0187.23 30l.86-.49a3.77 3.77 0 01-1.18-1.76.53.53 0 00-.5-.38 1 1 0 00-.84.39c-.22.28-.26 1.21-.47 1.3-.41.17-1.28-1.22-1.43-1.49a8.48 8.48 0 00-.86-1.57c-.41-.47-1.13.25-.72.76z"/>
        <path class="cls-6" d="M89.14 34.06a4.22 4.22 0 01-2.27-.42c-.48-.29-.85-.75-1.33-1a1.24 1.24 0 00-1.56 0 3.45 3.45 0 00-.25.41c-.65 1-2.14.77-3.27.43-.78-.24-1.72-.66-1.76-1.48 0-.3.1-.59.06-.89-.11-.7-1.06-.95-1.74-.72s-1.21.76-1.87 1c-1.09.44-2.32.12-3.5.09s-2.58.48-2.78 1.64a3.68 3.68 0 01-.14.94 1.77 1.77 0 01-.78.7 10.69 10.69 0 00-3.67 3.74c.29.45 1.25 0 1.41.54.1.3-.22.55-.46.76-1.09.94-.85 2.68-.33 4A7.61 7.61 0 0067 47a3.94 3.94 0 003.55.91 12.39 12.39 0 002-1 2.58 2.58 0 012.22-.25c.48.23.83.7 1.32.92 1 .42 2.45 0 2.86.93.28.67-.34 1.39-.36 2.12a2.87 2.87 0 00.94 1.79 8.85 8.85 0 011.79 2.85 4.15 4.15 0 01-.16 3.28c-.47.85-1.36 1.74-.93 2.62a7.28 7.28 0 00.67.82c.68.94.11 2.33.59 3.38.26.57.8 1 1 1.56a37.59 37.59 0 006.59-32.84z"/>
        <path class="cls-4" d="M89.14 33.55a3.83 3.83 0 01-2.7-.91 3.16 3.16 0 00-1.44-.78 1.62 1.62 0 00-1.14.22c-.72.48-.69 1.11-1.77 1.18a4.58 4.58 0 01-2.28-.58c-.8-.49-.34-1.3-.69-2a1.84 1.84 0 00-2.12-.8 6.12 6.12 0 00-1.5.78 4.77 4.77 0 01-3 .41 4.53 4.53 0 00-3.4.72 2.52 2.52 0 00-.72 1.21c-.25.7.29.44-.69 1.34-.29.26-.69.45-1 .69a11.58 11.58 0 00-2.85 3.23.5.5 0 00.08.62 3 3 0 00.6.34c.41.26.47-.08.12.47a3.53 3.53 0 00-.64 1.84 7.85 7.85 0 001.78 4.93 4.88 4.88 0 004.41 2.06 7 7 0 002.34-1 2.22 2.22 0 012.32-.26c.37.22.64.56 1 .75.63.3 1.65 0 2.19.38.78.5-.09 2.2.22 3a10.25 10.25 0 001.65 2.25 5.26 5.26 0 011.17 3.46c-.18 1.8-2.2 2.87-1 4.69a3 3 0 01.69 1.82 9.65 9.65 0 00.06 1.2 7.78 7.78 0 001.27 2.35.52.52 0 00.88 0 38.47 38.47 0 006.64-33.23.51.51 0 00-1 .27 37.53 37.53 0 01-6.54 32.44H83c-.24-.45-.59-.79-.85-1.23a3.38 3.38 0 01-.34-1.8 4 4 0 00-.52-2 1.83 1.83 0 01-.07-2.18 6.61 6.61 0 00.62-1.1 4.59 4.59 0 00.16-2.5 7.09 7.09 0 00-1.23-2.71c-.72-1-1.79-1.74-1.52-3.11.14-.72.5-1.33 0-2a1.91 1.91 0 00-1.38-.67 7.89 7.89 0 01-1.37-.17 6.38 6.38 0 01-1.2-.79 2.68 2.68 0 00-2.16-.27c-1 .29-1.78 1.06-2.77 1.35a3.67 3.67 0 01-3.61-1.31 8 8 0 01-1.61-3.06 4.24 4.24 0 01-.15-1.56c.06-.76.42-1 .86-1.56s.54-.86.18-1.32-1-.15-1.38-.49l.08.62a11.67 11.67 0 013.48-3.55 2.52 2.52 0 001-.94c.3-.68.09-1.41.81-1.89 1.28-.84 3-.08 4.43-.28a4.49 4.49 0 001.75-.69A5.3 5.3 0 0177 31c.43-.3.74-.23 1 .22a.59.59 0 01.29.81c.44 1.8 3 2.63 4.69 2.19a2.16 2.16 0 001-.54s.36-.53.4-.55c.54-.34 1.17.06 1.55.38a4.68 4.68 0 003.3 1.09.51.51 0 00-.09-1.05z"/>
        <path class="cls-6" d="M73.42 18.48a1.44 1.44 0 00-.5-.59.48.48 0 00-.67.19.76.76 0 000 .3l.36 4.08a1.11 1.11 0 00.08.36.65.65 0 00.94.11 1.81 1.81 0 00.55-.91l-.1.44c.75-1.19.05-2.75-.66-3.98z"/>
        <path class="cls-4" d="M73.87 18.22a1.61 1.61 0 00-1-.87 1 1 0 00-1.12.6 2 2 0 000 .73l.07.69L72 21c0 .53.08 1.05.14 1.57a1.09 1.09 0 00.7 1 1.26 1.26 0 001.16-.28 2.39 2.39 0 00.68-1.13l-1-.27-.1.43a.51.51 0 00.93.39c.89-1.44.11-3.16-.64-4.49a.52.52 0 00-.89.52c.56 1 1.32 2.36.65 3.46l.93.39.1-.43a.51.51 0 00-1-.27 1.58 1.58 0 01-.33.61.31.31 0 01-.12.06h-.13c-.01 0 0-.08 0-.09v-.55L73 20.86l-.18-2c0-.17 0-.36-.05-.53s0-.07 0 0-.07 0-.07 0 .33.33.36.39a.52.52 0 00.81-.5z"/>
        <path class="cls-6" d="M70.46 22.4a1 1 0 001.59-.57 1 1 0 00-.93-.91h.07a1 1 0 00-.24 0 .78.78 0 00-.43.18l.17-.05a1 1 0 00-.23 1.35z"/>
        <path class="cls-4" d="M70.1 22.76a1.49 1.49 0 002.4-.59 1.24 1.24 0 00-.17-1.09 1.56 1.56 0 00-.52-.47 1.67 1.67 0 00-.69-.2l.14 1h.07a.51.51 0 00-.14-1 1.57 1.57 0 00-.37.05h.13a1.17 1.17 0 00-.37.08 1.38 1.38 0 00-.42.25.53.53 0 00-.08.62.51.51 0 00.58.23l.17-.05-.39-.93a1.61 1.61 0 00-.44.46 1.46 1.46 0 00-.2.5 1.49 1.49 0 000 .63 1.27 1.27 0 00.3.56.51.51 0 00.72 0 .52.52 0 000-.72v-.05l.08.11-.09-.16v.12a1.46 1.46 0 010-.2v.14a1 1 0 010-.25v.14a1.12 1.12 0 01.08-.26v.12a.94.94 0 01.14-.26l-.08.11a.77.77 0 01.18-.18l-.11.08a.57.57 0 00.24-.31.54.54 0 000-.33.51.51 0 00-.6-.29l-.18.05.5.85-.1.08.15-.09h-.12l.21-.06h-.13.26-.13.13l-.13-1h-.07a.5.5 0 00-.37.55.56.56 0 00.14.3.68.68 0 00.36.15h-.14a1.29 1.29 0 01.28.08h-.12a.89.89 0 01.25.14l-.11-.08a1.62 1.62 0 01.19.18l-.08-.1a1.18 1.18 0 01.11.19v-.12a1.21 1.21 0 010 .18v-.13a.67.67 0 010 .2v-.14a1.21 1.21 0 010 .18v-.12a1 1 0 01-.1.17l.08-.1a.91.91 0 01-.17.17l.11-.08a.94.94 0 01-.26.14l.13-.05a1.38 1.38 0 01-.29.08h.14a1.13 1.13 0 01-.26 0h.14a.83.83 0 01-.21-.06l.12.06a.62.62 0 01-.17-.11l.1.08-.1-.21a.52.52 0 00-.72 0 .53.53 0 000 .76z"/>
        <path class="cls-7" d="M48.31 68.71a3.16 3.16 0 013.15-3.16 2.85 2.85 0 01.51 0 7.26 7.26 0 0113.26-.4 4 4 0 011.44-.27 3.53 3.53 0 013.32 2 2.11 2.11 0 013.44 1.64v.1zM94.71 37.34a6.49 6.49 0 00-1.1.21 7.32 7.32 0 00-10-4.44 9.74 9.74 0 00-17.67 2.7 7.58 7.58 0 00-3.6-.56A6.71 6.71 0 0056 41.72l45.26-.09a6.23 6.23 0 00-6.55-4.29zM9.44 53.29a3.24 3.24 0 011.13.2 5.63 5.63 0 015.17-3.08 6 6 0 013.17.87 6.67 6.67 0 016.3-4.6c5.67 0 6.7 5.67 6.7 5.67 6.61-.13 7 3.62 7 3.62l-15 .06H6.68a2.12 2.12 0 01-.05-.44 2.61 2.61 0 012.81-2.3z"/>
      </g>
    </g>
  </g>
</svg>