<svg width="50" height="50" viewBox="0 0 50 50" fill="none" xmlns="http://www.w3.org/2000/svg">
<g clip-path="url(#clip0_8498_5735)">
<ellipse cx="35.4688" cy="19.8564" rx="10.5" ry="11" fill="#F4B539"/>
<path d="M23.5613 22.7656L22.6231 24.5884C18.4008 22.7656 13.0058 24.1327 12.0675 28.4963C6.90702 27.8128 5.96875 31.5664 5.96875 33.5066C6.90702 39.3653 12.1457 37.9006 14.6478 36.436C17.8602 39.6746 20.1891 40.2131 23.5613 39.6746C23.5613 39.6746 25.734 38.9205 27.0648 37.2105C29.061 38.1665 32.0793 38.5564 35.4931 38.2742C38.9069 37.992 41.647 35.6231 42.7959 33.5066L43.5038 32.2719L43.9688 30.2616V28.4963C43.9688 26.5562 43.5126 23.947 41.4118 23.1004C39.311 22.2538 38.1473 23.1004 36.7482 23.1004C35.4606 20.2784 29.8947 15.7026 24.0305 22.0821L23.5613 22.7656Z" stroke="#223829" stroke-width="2"/>
</g>
<defs>
<clipPath id="clip0_8498_5735">
<rect width="42" height="33" fill="white" transform="translate(4 8.5)"/>
</clipPath>
</defs>
</svg>
