<svg width="36" height="40" viewBox="0 0 36 40" fill="none" xmlns="http://www.w3.org/2000/svg">
<g clip-path="url(#clip0_8498_5749)">
<path d="M5.16577 22.0846C5.16577 22.0846 5.17913 22.1157 5.18358 22.1335L5.71793 22.3957L6.18994 22.0135L6.515 17.0447C6.515 17.0447 6.515 17.0136 6.515 17.0003L6.35915 10.9737C6.35915 10.9426 6.43039 10.5381 6.43039 10.2893L6.50164 9.74705C6.51945 9.5915 6.58179 9.44928 6.68421 9.32928L6.91131 9.06262C7.30762 8.73373 7.72619 8.7204 8.10914 9.06706L8.42084 9.80483C8.737 10.0937 8.94629 14.0048 8.95074 14.4314L9.11104 18.3914L9.31142 12.3959L9.41384 9.82705C9.41384 9.68927 9.48063 8.9204 9.45392 8.65373L9.68101 8.18707C9.84577 7.8893 10.1797 7.7293 10.5137 7.78708L10.6785 7.81375C10.9813 7.86708 11.2262 8.08485 11.3108 8.38263L11.5112 9.28039C11.5379 10.0493 11.6358 11.1337 11.6358 11.2048L11.7026 14.2759L11.9253 17.6936L12.1435 15.0936L12.3483 11.2937L12.473 9.20039L12.9539 8.15596L14.0226 7.86264L14.5659 8.69818L14.5881 12.5826L14.6772 17.3158L15.403 11.3204L15.4431 10.107L16.0709 9.3115L16.9927 9.43594L17.4113 10.8181L17.5003 11.7115L18.1193 21.9246C18.1638 23.6224 18.1593 23.6846 18.1504 23.7513L17.6205 26.5334C17.6116 26.5823 17.5983 26.6312 17.576 26.6801L14.931 33.2667C14.9132 33.3156 14.8954 33.3689 14.8865 33.4178L14.5436 35.2933L14.0849 37.871C14.0849 37.871 14.0805 37.8977 14.076 37.911L13.791 39.1244C13.7109 39.4666 13.4125 39.711 13.0652 39.7377C9.37376 40.0221 6.64859 38.6266 5.53981 37.9288C5.21475 37.7244 5.08562 37.3155 5.23256 36.9599L5.97174 35.1378C5.98956 35.0933 6.00291 35.0489 6.01182 35L6.29235 33.6622C6.33243 33.4756 6.30126 33.28 6.20775 33.1156L5.11233 31.1467C5.08116 31.0889 5.04109 31.0356 4.99211 30.9867L3.96794 29.9112C3.91005 29.8489 3.86107 29.7778 3.82544 29.7023L2.55191 27.0134C2.50738 26.9201 2.48512 26.8223 2.47621 26.7201L2.42723 25.8757L2.29364 23.0846L2.2313 22.1113L1.01566 18.9202L0.472406 17.8447L0.15625 17.1247C0.15625 17.1247 0.628258 16.6847 1.03793 16.7158C1.44759 16.7469 2.13779 16.9647 2.13779 16.9647L3.31336 18.5114L5.17022 22.0802L5.16577 22.0846Z" fill="#D8A15B"/>
<path d="M30.425 17.9133C30.425 17.9133 30.4124 17.8832 30.4082 17.866L29.9036 17.6119L29.4578 17.9822L29.1508 22.7957C29.1508 22.7957 29.1508 22.8259 29.1508 22.8388L29.298 28.677C29.298 28.7072 29.2307 29.099 29.2307 29.3401L29.1634 29.8653C29.1466 30.016 29.0877 30.1538 28.991 30.2701L28.7765 30.5284C28.4022 30.847 28.0069 30.8599 27.6452 30.5241L27.3508 29.8094C27.0522 29.5295 26.8545 25.7407 26.8503 25.3274L26.6989 21.4912L26.5097 27.2993L26.413 29.7878C26.413 29.9213 26.3499 30.6662 26.3751 30.9245L26.1606 31.3766C26.005 31.665 25.6896 31.82 25.3742 31.7641L25.2186 31.7382C24.9326 31.6866 24.7013 31.4756 24.6214 31.1871L24.4322 30.3174C24.4069 29.5726 24.3144 28.522 24.3144 28.4531L24.2513 25.4781L24.0411 22.1671L23.835 24.6858L23.6415 28.367L23.5238 30.3949L23.0696 31.4067L22.0603 31.6909L21.5472 30.8814L21.5262 27.1184L21.442 22.5331L20.7565 28.3412L20.7187 29.5166L20.1257 30.2873L19.2552 30.1667L18.8599 28.8277L18.7757 27.9623L18.1912 18.0683C18.1491 16.4236 18.1533 16.3633 18.1617 16.2988L18.6622 13.6035C18.6706 13.5562 18.6832 13.5088 18.7042 13.4614L21.2023 7.08071C21.2192 7.03335 21.236 6.98168 21.2444 6.93432L21.5682 5.11741L22.0014 2.62023C22.0014 2.62023 22.0056 2.59439 22.0098 2.58148L22.2789 1.40608C22.3546 1.07456 22.6364 0.837755 22.9644 0.811922C26.4508 0.536371 29.0246 1.88829 30.0718 2.56425C30.3788 2.76231 30.5007 3.15841 30.362 3.50285L29.6638 5.2681C29.647 5.31116 29.6344 5.35421 29.626 5.40157L29.361 6.69752C29.3232 6.87835 29.3526 7.06779 29.4409 7.2271L30.4755 9.13443C30.5049 9.1904 30.5428 9.24207 30.5891 9.28943L31.5563 10.3314C31.611 10.3916 31.6573 10.4605 31.6909 10.5337L32.8937 13.1385C32.9357 13.2289 32.9568 13.3237 32.9652 13.4227L33.0114 14.2407L33.1376 16.9446L33.1965 17.8875L34.3446 20.9788L34.8577 22.0208L35.1562 22.7182C35.1562 22.7182 34.7105 23.1445 34.3236 23.1143C33.9366 23.0842 33.2848 22.8732 33.2848 22.8732L32.1745 21.3749L30.4208 17.9176L30.425 17.9133Z" fill="#AF752A"/>
<path d="M7.15625 25.7754C7.15625 25.7754 9.81997 27.0232 10.1562 29.7754" stroke="#223829" stroke-linecap="square" stroke-linejoin="round"/>
<path d="M27.4895 14.4638C27.4895 14.4638 24.563 13.8053 24.2393 10.1943" stroke="#223829" stroke-linecap="square" stroke-linejoin="round"/>
<path d="M16.0598 18.5955L18.3976 17.4832L20.8097 16.06L23.1562 18.1006L22.5139 22.0373L21.0937 23.4605L16.322 26.7754L10.9297 23.0795L10.1562 18.1926L11.5764 15.7754L15.129 16.4848L16.0598 18.5955Z" fill="#E0988D"/>
<path d="M16.5685 18.902L18.2293 17.4832L21.153 16.6293L23.1563 18.5955L22.2659 22.0373L20.8747 23.4605L16.1961 26.7754L10.9182 23.0795L10.1562 18.1926L11.5517 15.7754L15.0275 16.4848L16.5685 18.902Z" stroke="#223829" stroke-linecap="square"/>
</g>
<defs>
<clipPath id="clip0_8498_5749">
<rect width="36" height="40" fill="white"/>
</clipPath>
</defs>
</svg>
