<svg width="42" height="40" viewBox="0 0 42 40" fill="none" xmlns="http://www.w3.org/2000/svg">
<g clip-path="url(#clip0_8498_5764)">
<path d="M22.8241 3.38236L28.7403 3.50725C28.7403 3.50725 29.7097 0.944921 32.4402 1.0009C35.1708 1.06119 35.544 4.51496 35.544 4.51496L41.4375 5.50113L41.3465 9.37692C41.3465 9.37692 36.8183 8.39506 36.7136 12.723C36.6635 14.8762 41.21 14.971 41.21 14.971L41.0643 21L34.7248 19.5703L33.4233 16.9563L30.7018 16.4653L28.3535 19.4325L23.3474 19.3248L23.4521 15.0184C23.4521 15.0184 19.379 14.0709 19.4381 11.4871C19.5019 8.90322 22.7148 7.68019 22.7148 7.68019L23.2518 4.24365" fill="#95D4B3"/>
<path d="M22.2102 18.4086L21.6975 22.0342C21.6975 22.0342 19.4946 23.3472 19.4381 26.0687C19.3816 28.7902 23.2704 29.7943 23.2704 29.7943L23.1531 35.2463L26.1946 35.319L26.6291 35.3599C26.6291 35.3599 30.6743 29.9714 34.0156 36.4139L39.6511 37L40.2246 29.7443C40.2246 29.7443 37.1831 29.6716 37.2309 27.3999C37.3308 22.8338 40.3506 23.8379 40.3506 23.8379L40.4375 19.7489L34.8107 18.7085C34.8107 18.7085 34.4544 15.0647 31.8474 15.0011C29.2404 14.9375 28.3149 17.6453 28.3149 17.6453L21.7801 18.3995" fill="#95D4B3"/>
<path d="M21.4203 22.4645L25.3143 22.557C25.3143 22.557 26.2662 18.415 28.8621 18.4798C31.4581 18.5445 31.8129 22.2519 31.8129 22.2519L37.4375 22.386L37.3293 27.4709C37.3293 27.4709 33.0243 26.417 32.9248 31.0628C32.8729 33.3695 37.1995 33.4759 37.1995 33.4759L36.2174 39L31.0384 38.4129C28.1353 32.3294 24.9812 38.265 24.9812 38.265L20.2219 38.1494L20.3214 33.5267C20.3214 33.5267 16.4491 32.5051 16.5053 29.7361C16.5616 26.9671 20.4858 25.6727 20.4858 25.6727L20.7995 21.0569M20.7995 21.0569L21.1132 16.4411C21.1132 16.4411 17.6821 14.9711 17.7297 12.6598C17.7773 10.3484 20.8449 8.57327 20.8449 8.57327L20.9228 4.8751L17.0288 4.78264C17.0288 4.78264 16.674 1.07522 13.6454 1.00126C10.6168 0.927298 9.24957 4.13084 9.24957 4.13084L4.05762 4.00603L3.9408 9.55329C3.9408 9.55329 -1.29874 11.7352 3.38267 15.549L5.10466 16.0528L5.00515 20.6755L8.89046 21.2303C8.89046 21.2303 9.401 17.5413 11.997 17.6061C14.5929 17.6662 15.8217 20.9344 15.8217 20.9344L20.7995 21.0569Z" stroke="#27372A" stroke-width="1.5"/>
</g>
<defs>
<clipPath id="clip0_8498_5764">
<rect width="42" height="40" fill="white"/>
</clipPath>
</defs>
</svg>
