<svg xmlns="http://www.w3.org/2000/svg" width="72" height="73" viewBox="0 0 72 73">
  <g fill="none" fill-rule="evenodd" transform="translate(2)">
    <polyline stroke="#FFFFFF" stroke-linecap="round" stroke-linejoin="round" stroke-width="3" points="43.465 9 0 9 0 71 60 71 60 27.202"/>
    <path fill="#FFFFFF" fill-rule="nonzero" d="M56.0884631,4.03770921 L68.5847776,4.07771286 C68.8596693,4.07859286 69.0822945,4.30121805 69.0831745,4.57610969 L69.1057381,11.6245155 C69.1066221,11.9006564 68.8834822,12.1252295 68.6073412,12.1261135 C68.6062742,12.1261169 68.6052071,12.1261169 68.60414,12.1261135 L56.1078255,12.0861099 C55.8329338,12.0852299 55.6103086,11.8626047 55.6094286,11.587713 L55.586865,4.53930726 C55.585981,4.2631663 55.8091209,4.0385932 56.0852618,4.03770921 C56.0863289,4.03770579 56.087396,4.03770579 56.0884631,4.03770921 Z" transform="rotate(45 62.346 8.082)"/>
    <path fill="#FFFFFF" fill-rule="nonzero" d="M61.9297201 17.6527233L52.4632183 8.08356804C52.4134831 8.03024704 52.3440434 8 52.2713668 8 52.1986902 8 52.1292505 8.03024704 52.0795153 8.08356804L30.0878503 30.4814583C30.0658482 30.5063394 30.0473993 30.534184 30.0330356 30.5641888L26.0205982 39.7803609C25.982938 39.8725084 25.9976063 39.9779303 26.0589685 40.056129L29.8959988 44.898618C29.9790092 44.9989935 30.1197587 45.0286879 30.23585 44.9703177L39.3734636 40.0726751 39.4337597 40.0285522 61.9077942 18.0387988C61.9623495 17.9909983 61.9954351 17.9230764 61.9995621 17.850407 62.0036891 17.7777377 61.9785086 17.7064656 61.9297201 17.6527233zM24.0075074 46.6730968L24.7786772 43.2095013C24.799199 43.1127294 24.8720119 43.0355182 24.9673865 43.009393 25.062761 42.9832678 25.1647348 43.0126011 25.2316721 43.0854161L27.9280701 45.9447707C27.9952466 46.0160948 28.0174715 46.1187435 27.9858172 46.2114834 27.9541629 46.3042234 27.8738238 46.3718359 27.7770718 46.3871614L24.3310752 46.9914024C24.2410647 47.0149384 24.1453142 46.9893875 24.0789786 46.9241307 24.012643 46.8588739 23.985497 46.7635271 24.0075074 46.6730968z"/>
  </g>
</svg>
