<svg data-name="Layer 1" xmlns="http://www.w3.org/2000/svg" viewBox="0 0 97.5 34.6">
  <path d="M3.6 14.6c0 .2.8 0 .8.2.2 0 0-.1.2-.2h-1m1.5.2a1.7 1.7 0 00.6.2H5c-.1 0 0-.2 0-.2m2.2.4c.1.1.5 0 .8.2-.2.2-.8 0-1 0s-.3.1-.6 0c.5-.2-.8 0-.7-.3a4.2 4.2 0 001.4.2v-.1A2.8 2.8 0 016 15l1.4.1a.2.2 0 01-.2.1m69.5-2h.5c0 .2-.4.3-.5 0m-64.6 2.4s-.3 0 0 0c-.2.2-.3 0-.5 0a.8.8 0 01.5 0m75.5-1.7c0-.1.3 0 .4 0 0 .2-.3 0-.4 0m-17.2-.2h0m2.5 0h-.7.4.3m-6.9.2c.2-.1.9 0 .5.1H66m8.5-.2c-.4 0-.8.1-.8 0 .3 0 .8-.1.8 0m-64 2h.5c.2 0 0 .1.1.1-.2.2-.2-.1-.5-.1m84.3-1.2s0 0 0 .1c-.1.2-.7 0-1 0 .1 0 .5.2.6.4-.5 0-.9-.6-1.2-.4 0 0-.4 0-.4-.2a10.7 10.7 0 001.2.1 1.3 1.3 0 00-.5-.1 3.3 3.3 0 011.3.1m-75.6 1.8l-.1.3c-.4-.2-.3.1-.6.1-.2-.6-1.5-.3-1.7 0-.2 0-.2-.2 0-.1a2.2 2.2 0 00-1.2-.4c-.2 0 .1.1 0 .2a.7.7 0 01-.7-.3h-.7l-.4.2a13.3 13.3 0 00-2.6-.5l3.9.2 4.1.3m38-2c.1.2-.2.3-.5.2 0-.2.4 0 .4-.2m7.2-.2s-.2 0-.1.1h-.6c.1-.2.6-.1.7-.1m.5-.1c.4 0 0 .3-.3.2l.3-.2m-20.4 1.3a.3.3 0 01-.3.2c0-.2-.3-.2-.3 0-.1-.2-.2 0-.5 0 .2-.3.9-.2 1-.2m14.7-.9a.6.6 0 00.2 0c0 .2-.2.2-.4.2l.2-.2m.8 0l.7.1c-.4 0-.7.2-.7-.1m8.2-.2a1.2 1.2 0 01-1 0 8.5 8.5 0 011 0m-48.6 2.3c.4 0 .6 0 .7.2s-.2 0-.2.1c-.2 0-.5-.1-.5-.3m10.8-.2c-.3.2-.4.2-.2.4h-.6c.3-.1-.2-.1-.4-.2H29.7l.6-.1m2.5 0c.2.2 1.6-.2 2.2 0-.5.3-.9 0-1.6 0-.2 0 0 .1.1.1 0 .2-.7.1-.8 0s-.1 0-.1.1c-.7-.1-1.7.1-2.3-.1a10.6 10.6 0 002.5-.2M58.5 15c.3 0 .1.1.1.2h-.5c0-.1.4 0 .4-.2m-22.2 1.3c0 .1 0 .2-.3.2.3-.2-.2-.2-.5-.1l.8-.1m27.4-1.5c.1.1-.2 0-.1.2-.2-.2-.5 0-.7 0 .3-.2.6-.1.8-.2M38 16.3H37h1m54.2-1.1c0 .2-.3 0-.3.1h1c0 .2-.4.2-.6.2.1.1.7.2.9 0l.2.1c0 .1-.6.4 0 .4a18 18 0 01-2 .1c.5-.1 1-.1 1.3-.4a3.5 3.5 0 01-1.2-.3l.1-.1a2.6 2.6 0 00-.6-.2c.2-.2.8.2 1.1 0m.2.9h.6c0-.1.3-.2 0-.3a2.4 2.4 0 00-.6.3m2.2-.5c-.2 0-.3-.2-.7-.1h.7M8.1 16.6c.8 0 2 .3 3 .4l-.1.2c-.3-.2-.8 0-.9-.3-.2.2-.5-.1-.7 0-.1 0 0 0 0 0h-.6.2c-.4 0-.5-.3-1-.3m12.6.4c.1-.1.5 0 .4 0h-.4M62.1 15h-.5s.5-.2.5 0m-13 .7a2 2 0 00.7 0v.4h-1.3c-.1 0 .2 0 .1-.1l.1.1c.2 0 0-.2 0-.3a.8.8 0 00.4.1c.2 0 0-.1 0-.2m12.6-.5s.7 0 .7 0a4 4 0 01-.7 0M8.8 17h.7c.7.2-.4 0-.7 0m45-1.1c.1.1-.3.1-.4 0a1 1 0 01.4 0m-28.3 1.5a5.3 5.3 0 012.3.1 4.8 4.8 0 01-2.3-.1m1.6.2c0-.2-.6-.1-.6 0h.6m-8 0c-.2.3-1-.1-1 .2-.2-.2-.3-.3-.8-.3a6.6 6.6 0 011.8 0m9.6-.2a8.3 8.3 0 001.2 0l.5.1a2 2 0 01-1.6-.1m1.3 0a11.4 11.4 0 011.3 0 2 2 0 01-1.3 0m1.7 0l.4.1-.4-.1m7.4-.4c.1 0 .6 0 .5.1s-.2-.1-.5 0m-19.6.6c.3.1-.2.2 0 .3-.2 0-.5-.1-.5-.3h.5m1.3.3h-.6c.3 0 .3-.2-.2-.2.3-.1.4 0 .8 0 .2 0 0 0 0 .2m16-.8a5.9 5.9 0 001 0l-.4.2c0-.1-.5.1-.5-.1m1.5 0h.5-.5m-22.8.5h.3l.1.2h-.3v-.3m.4.1h.6c.2 0-.2.2 0 .2-.1.2-.3 0-.5 0 .1 0 0 0 0-.1m11.5 0c-.5.4-1.6 0-2.3 0a7.9 7.9 0 012.2 0m6.7-.3v.1a2.6 2.6 0 00-.7 0 4.3 4.3 0 01.7-.1m3.7 0c-.2-.2-.2 0-.6 0a1.2 1.2 0 01.7-.2l-.1.2m-12.3.5c-.5.1-1-.3 0 0m-6.4 0l.4.1c-.2 0-.2.1-.4 0v-.2M9 17.8c.4-.2.5.1 1 .1-.4.2-.6-.2-1-.2m2.1.3c0 .1 0 0-.2 0 0 .2.3.2.4.3h-.6c.2-.2 0-.3-.3-.4.2-.2.4.1.7 0m20.2 0h.4a5.3 5.3 0 00-1 .2c-.2-.2.7 0 .6-.3m-4.5.3c0 .1-.5.2-.7.1h.7m-17.3.1c.2 0 .8 0 .8.2a1.3 1.3 0 01-.8-.2m1 .2h.7l-.5.1c-.1.1 0 0-.2-.1m1.8.4v-.1a1.7 1.7 0 01.6 0h-.3c.2.2.4 0 .8 0a.1.1 0 00-.1.2h-1m5.4.2c-.2 0 0 .2-.4.2.1 0 .1-.2.4-.2m10.7-.2c0 .2 0 .2-.3.2 0-.1.1-.2.3-.2m-11.4.4a.8.8 0 00.6 0c0 .2-.7.1-.6 0m-12.4-.5c.2.1.2.2.5.2-.1.2-.2 0-.5 0 0 0-.1 0 0-.1m-.1.6l.1.1a1 1 0 01-.4-.2c0-.2.5 0 .3 0m1 .3l-.6-.1c.1-.2.4 0 .6 0m-.8.3l.5.1h-.5M0 19.6c.2.1.6.1.6.3-.3-.1-.5 0-.6-.3m6.2 1h.1l.5.2H6l.1-.2m.7.1s.4 0 .3.2c-.2 0-.2 0-.3-.2m-6-.5c.2-.1.5.1.6.1H1m55.5 1c.2 0 .4 0 .3.1h-.2l.3.2c0 .2-.4 0-.8 0 0-.2.5-.3.4-.4m8.9-.4h.3c0 .1-.2.1-.1.3a1.4 1.4 0 00-.6 0c.2 0 .9.2 1 0 0 .1.8 0 .6.3-.2-.2-1-.1-1.3 0a.7.7 0 01-.3-.2.4.4 0 00-.2.2c-.2-.1-.3-.2-.3-.4a2.3 2.3 0 00.8 0l.1-.2m.6 0h.2c.1 0 0 .3.2.3-.4.2 0-.2-.4-.2m-6.3.5h-.4a.3.3 0 01.4 0m-2.2.1h.4c0 .1-.5.2-.4 0m14-.5l.1.2c-.3 0-.7 0-.3.1-.2.2-.4-.2-.3-.3s.6.3.5 0m-47.8 2.4a3.3 3.3 0 00.5.1s-.3.1 0 .1c-.1.2-.4.1-.7.1v-.2h.2m27.8-1.4c-.2 0 .2.1 0 .2h-.2c0-.1 0-.2.2-.2m4.6 0c.1-.2.2 0 .5 0-.2.1-.3 0-.2.2H56c-.2 0 .2-.3 0-.3m-6 .4a.8.8 0 01.3 0c-.1 0 0 .2-.4.2 0-.1.2-.1 0-.3m2.7 0a.5.5 0 00.2 0l-.3.2c-.3 0 0 0 0-.2m-3 .2l.2.2h-.4.1v-.2m11-.6l.7.1c-.2 0-.6.2-.7 0m-26.2 1.5c.2 0-.2.2-.2.3h-.2c.2-.1.1-.2-.2-.1a.7.7 0 01.6-.1zm-8.2.5h-.1c-.1 0 0 0 0 0l-.2-.1h-.1c.1-.2.2 0 .4 0m7.1-.3l.5.1-.3.2c.3.1.8-.2 1.1 0a1.1 1.1 0 01-.6 0c-.1 0 0 .1 0 .2h.5c-.3.2-.8 0-1 .3.1-.1 0-.3.3-.3l-.5-.1c.3-.2 0-.1-.2-.2 0-.1.5 0 .3-.2m5.3 0h.4c-.1.1.2 0 .1.1s-.4-.1-.4 0a.5.5 0 00-.2 0h.2c.2 0 0 0 0 0m-16 .5a1.7 1.7 0 01.8 0l-.1.2a2.4 2.4 0 00-.6 0c.1-.1 0 0-.1-.3m12.8-.3s-.2.2.1.1a.2.2 0 000 .2c-.2 0-.4 0-.2-.1 0 0-.4 0-.3-.2h.4m3.3 0h.4l-.3.2c-.1 0 0-.2 0-.2m1.7-.1l-.5.1.5-.1m40.9-1.2c.2-.1.4.1.6.1-.2.2-.4 0-.6 0m-51.6 2l.2.1H29.8M2.4 14.3c.2 0 .6.2.9 0l.1.2a5 5 0 01-1-.2m89 0c.3.1.4.2.3.5h-.4s.5 0 .4.2a1.3 1.3 0 00-1.1 0h.3s-.3.2 0 .2a1.9 1.9 0 01-.4 0c0 .2.3.2.5.2l-1.1.1c0 .2.4.2.7.2-.2.2-1 0-1 .3h.7c-.3.4.6.4.4.5.3 0 .2-.2.6 0 0-.2-.6 0-.5-.3 1 0 2.6.5 3.1.2.3-.2 1 0 1.6.1l-.4.1-.8-.2c0 .2.4.3.8.3-.1.1-.2.5.3.4 0 .3-.5.2-.8.3.1.2.4.2.5.3.2 0 .2-.1.4 0 0 .1-.2 0 0 .2a.2.2 0 000 .1h-.8c-.2 0 .3 0 .2.2a.5.5 0 00-.3 0c.2 0 .2 0 0 .1.3.2-.1.5.6.5v.1a.9.9 0 00-.9.3c-.2-.1 0-.2-.1-.2 0 .8-2.2.5-2 1.2l-.5.1h-1.2c-.1 0 .3.3-.2.2 0 .2.2.3.5.3h-.2.4c.1.3-.5.3-1 .3 0 0 .3 0 .2-.2a.5.5 0 00.2.1c0-.2-.3-.2-.4-.4a1.3 1.3 0 00-.8.2v.1a1.8 1.8 0 01.9 0c0 .2-.6 0-.5.3l-.1-.2c-.1.3-.9.4-1 .6a8.8 8.8 0 01-1.3.1c0 .3-.6.1-.5.4a19.6 19.6 0 01-3.7.1.7.7 0 00.3.1c-.2.1-.3 0-.4 0h-.5a13.3 13.3 0 01-3.5-.4 6.7 6.7 0 011 .1 19.2 19.2 0 00-2.4-.3v.2a8 8 0 011 0c0 .1-.3 0-.1.2 0-.2-.7-.1-.4-.1a3.5 3.5 0 00-1 0s-.5-.3-.6 0L76 22l.6-.1-.5-.2a1.2 1.2 0 01-.6 0c0-.4-.6-.3-.4-.5l-.4-.1c-.3 0 .2.2-.1.2.3.1 0 .3.4.2v.2a10.6 10.6 0 00-1.3-.2s.2 0 .2.1a5.4 5.4 0 01-1.2 0 .8.8 0 01.6 0c0-.2-.7 0-.6-.2.6.1.2-.1.6-.2 0-.2-.4-.2-.6-.3s0 .2-.2.2a.7.7 0 01-.2-.4c-.4 0 .1.2-.4.2l.2.1c-.3 0-.7.3-1 .2a.7.7 0 01.5-.2l-.5.1c-.3 0-.6.2-.8 0s0 .3-.3.3c.2 0 .6 0 .6.2-.2 0-1.3 0-1-.2h-.2c.1-.2.4 0 .5 0a.4.4 0 00.2-.3c-.1 0-.2 0 0 0s-.5 0-.5.1l-.4-.2c-.2 0-.1.2-.4.1v.2h-.6c.1 0 .4 0 .4-.2a8.5 8.5 0 00-2-.2c-.1 0 .2.2-.2.2 0 0 .2-.2 0-.2-.4.2-1 0-1.4.1a.3.3 0 00.2.1c0 .1-.3 0-.3.2h-.3c0-.2-.6-.1-.8 0a1.9 1.9 0 00-1 0 4.7 4.7 0 01-.8.6 2.2 2.2 0 00-.5 0c.2-.3-.2-.2 0-.3-.3-.1-.8.2-.7.3l-.4-.1a.6.6 0 01.4-.1s-.4-.2-.5 0 0-.3-.2-.3h.4a1.3 1.3 0 01.5 0c-.1-.1-.4 0-.4-.2l-.3.1c0 .1 0-.2-.3-.2-.4 0 0 .2-.3.4h-.3c0-.1-.4-.1-.2-.2-.4 0 0 .1-.4.2s-.4-.1-.7 0 0 0 0 .1a.9.9 0 01-.5-.2l-.4.1c-.7-.2-1.4.1-2 0 0 0-.3 0-.3.2s0 0 0-.1h-.3c.3.3.5.3.4.5-.2 0-.5-.2-.4-.3l-2 .3-.2.1c-.2.1-.4 0-.3.1-.2 0-.2-.2 0-.2-.4-.1-1 .1-1.3.2h-.6c.4-.3.5-.3 1.2-.3-.1-.1-.5 0-.3-.3a.6.6 0 00-.5 0h-.3c0 .2.4 0 .3.3h-.1c-.4 0-.6-.2-.5-.3-.2 0-.4-.3-.6-.1 0 .1.4 0 .3.1h-.4c-.2 0 .3 0 .2.3s-.4 0-.4.1a2.1 2.1 0 00.8 0v.3c-.6 0-.2.1-.8 0 .4.1.1.2.2.4l-.5.1c0-.2-.3 0-.4-.1.2 0 .2-.2.3-.3a1.7 1.7 0 00-.7.2c-.2-.1-.6 0-.6-.2a2.3 2.3 0 01-.5.2c0 .1.3 0 .4 0-.1.1-.2.2 0 .3-.3 0-.3 0-.4-.2s-.2.1-.4.2h.3c.1 0-.1 0 0 0-.2.2-.3-.3-.7 0-.2 0 .1-.2.2-.2 0-.1-.4 0-.4-.2-.2.2-.2.1-.4 0-.2 0 .1.3-.4.2.3.2 1 0 .9.4a.6.6 0 00-.5-.1l-.1-.2c-.3.1-1 .3-1.1 0-.4 0-.1.2-.3.3a2.6 2.6 0 01-.5.1c.2-.2-.1-.2-.3-.3-.2.1 0 .2 0 .3h-.5c-.2 0-.1-.3-.5-.3-.1 0 .2.1 0 .2-.6 0-.4.2-.8.2 0-.2-.5 0-.2-.2h.3a2.5 2.5 0 00-1 0h.3v.2a2.1 2.1 0 00-1 0c.2 0 0 .2-.2.2v-.3h.5c.1-.2-.7-.1-.2-.2 0-.2-.6-.1-.7 0 0 .2.3 0 .4.2-.5 0 0 .1-.4.2.2-.2-.1-.4-.2-.3s0-.1.1 0a1.1 1.1 0 00-1 0c.3.2.1 0 0 .2s.2 0 .4 0-.2.1-.2.2H38c0-.1.2-.3 0-.4-.1.3-1.2 0-1.3.3q-.3 0-.2-.1c0 .1-1 .2-1 0v.2h.7c.1 0 0 0 0 .1l.4-.1v.2c-.4.1-.7-.1-.8 0s-.1 0-.1 0h-1c0-.2.4 0 .5-.1l.2-.2s-.4 0-.2-.1c-.3 0 0 .1-.2.1s0 0-.1-.1a7 7 0 01-.8 0c.2-.2-.4-.2-.4-.4a1 1 0 01-.5 0c-.1 0-.2.1-.2.3a3.3 3.3 0 01-.5-.4h-.5a1 1 0 00.5.1l-.3.1h.3c.1.2-.2.2-.1.3-.2 0-.5-.3-.7-.1-.1 0 0-.1 0-.2-.3 0-.3.3-.3 0h-.4c.1.1.3.4.6.2.2.1-.7.2-.8.2.2 0 .2 0 .1.2-.3-.1-.8 0-.7-.2h-.4c-.1.2.2 0 .1.2s-.5 0-.4.1c-.2-.2-1 0-1.2-.1a.3.3 0 01.3 0c.1-.3-.3-.3 0-.4H28c-.2 0 0 .2-.4.2 0-.2 0-.3-.3-.4s-.4.1-.6 0a1.2 1.2 0 00.7-.3v.5c.4 0 .7 0 .5.1h.9V23c.1.2.3 0 .4-.1-.1-.2-.3 0-.4 0 .1 0-.2 0 .1-.1l-.2-.2a.4.4 0 00-.2.2c.2 0 0 0 .2.2h-.4v-.3c-.1-.1-.4 0-.6.1h.2a.6.6 0 01-.4.1c0-.1-.7-.4-1-.2 0 0 .2 0 .2.2h.5a3 3 0 01-.9.2c.3 0 .4-.4 0-.3-.2 0-.1.1-.2.2a.7.7 0 01.3 0c-.1.1-.6 0-.7.3s.5 0 .4.2c-.6 0-.5-.2-1-.2h.5c-.1-.2-.4 0-.5-.1.1-.2.5-.2.7-.3H24c-.2 0 0 .1-.1.2h.2l-.4.1c.2 0 0-.2 0-.3-.7 0-1 .5-1.7.4l.2.1c-.2.1-1 0-.8.2l-.4.1c.2-.1 0-.2 0-.3l.3-.1c-.2-.2-.5 0-.7 0 0-.2-.1-.1 0-.2l-.2.1c.2 0-.1.2.3.2l-.2.1a1 1 0 01.6.3 3.5 3.5 0 011.7.2 1.5 1.5 0 00-.7 0c0 .1.3 0 .4 0-.2.2-.5 0-.6.1 0-.2-.7-.2-1 0 0-.2-.7-.3-.4-.4h-.7c-.2 0 .1 0 .2-.2a1.5 1.5 0 00-.6 0h.3c-.2.2-.4.1-.6.2h.6c0 .1.2.1.2.3-.6 0-.4.3-1 .2h.3c-.2-.4-.7 0-.9-.4h.3a.9.9 0 00-.7 0 1.4 1.4 0 001 .3c-.1.2-.7 0-.7 0a1.3 1.3 0 00-1-.2c.2-.2 0-.2 0-.5.2.2.1 0 .2 0h-.3c-.1 0 .3 0 .3-.2h-.9s.4.1.1.2h.5v.5c-.2 0-.3 0-.2-.1a1.7 1.7 0 00-.7.2c.2.1.8 0 1.1.2a4.8 4.8 0 01-1.2 0c0 .3-.2 0-.4.2a.4.4 0 01-.3-.1l-.2.1a1 1 0 00.5.1h-1l-.5-.1v-.1c0-.1-.1 0-.2 0s.2 0 .1.1-.2 0-.2 0a4.5 4.5 0 01-1.4-.4c-.1.2-.4.1-.6 0 .7-.2.8-.6 1.6-.8a.3.3 0 00-.2-.1l.6-.1a2.8 2.8 0 00-1.2 0s.3.2.4 0c.3.2-.3 0-.3.2-.1-.1-.4-.4-.1-.4-.2 0-.2 0 0-.2-.4 0 0 0-.2.1s-.3-.2-.1-.3.5.2.5 0h.4c0 .1-.4 0-.2.1.3 0 .3 0 .4-.2s0 .2.3.1h.6v-.2c-.2.1-1 .1-1-.1-.5 0-.7 0-.8.2v-.1c-1.5 0-3.9-.4-5.6-.5.2 0 .5 0 .6.2-.2.1 0 .1.2.2a5.4 5.4 0 01-.8 0c0-.2.1-.2.3-.2s-.1 0-.1 0c-.6 0-1-.5-1.4-.4.1.2.4.2.4.4-.4 0-.8-.3-.5-.3-.3-.3-.2 0-.5-.2-.2 0 .1.3-.2.2-.8-.8-2.4-.9-3.9-1.3 0 0 .5 0 .2-.2a1.8 1.8 0 011 .3 15.7 15.7 0 012.9.5c0-.3-.6 0-.7-.3h.2c0 .2.7 0 .7.3a5.4 5.4 0 01.6 0c0 .4 1.5.3 2 .5a1.7 1.7 0 00-.7-.2c0-.2.6 0 .6-.1L7 21c-.6 0-2.2-.4-1-.2-.1-.3-.8-.1-.7-.4l1 .1a.1.1 0 01-.1-.1 5.5 5.5 0 01-1.4-.3h.4a17.9 17.9 0 003.2.4 14.7 14.7 0 00-1.7-.3 2 2 0 01.8-.2l-.1.2a.3.3 0 00.3 0c0-.1 0 .2.5.2.2-.1 0-.2.3-.1v-.2a7.9 7.9 0 01-.8 0c-.2-.3-1.2 0-1.9-.2h.3c-.5-.3-1.8-.4-2.5-.6l.6-.2c0 .1-.2 0-.1.2.3 0 .3.1.5.2l3.6.4-1.2-.2a1.3 1.3 0 011 .1h.2l-.5-.1c.5 0 0-.3.6-.2-.1-.2-.6-.1-.7-.3l-.1.1.3.1c.1.2-.4 0-.7 0-.1 0 .1-.5-.3-.3-.3-.1.3 0 .2-.2a1.5 1.5 0 01.9.2c.4-.2 1 .2 1.7.1v.2c.2 0 .4 0 .4-.2 0 0 0 .2.3.2s.2 0 .2-.2-.3 0-.4 0V19c.2 0 .1.2.4.2v.2c0 .1.5 0 .4.3.6-.2 1.2.1 1.7-.2-.2 0-.2-.2-.5-.2l.2-.1c.2-.1.1 0 .1.1h.4c-.2 0 0-.1.4 0H13h.7c.2 0 .2-.1 0-.2 0-.1.3 0 .2.2.1 0 .2-.2.2 0 .2.1 0 .1-.1.2a1.3 1.3 0 00.6 0c.1 0 .4.2.5.1 0 .3-.4 0-.7.1.2 0 1 .3 1 0-.2 0-.2-.2 0-.2v.1h.4c.2-.1-.3-.2 0-.2h-.5c.1-.2.3 0 .5 0a1 1 0 00-.7-.3c.2 0 .2.2.2.4a.8.8 0 00-.4 0c.3 0 .2-.1.3-.2l-.6-.1c.2-.2.6 0 .8-.2a4.9 4.9 0 00-1.2-.2c0 .2.3.1.1.3-.2 0-.3-.1-.2-.3h-.3c-.1 0 0 .3-.4.3 0-.2-.1-.2.1-.2l-.8-.2c.1-.3.5 0 .9-.1 0 .1.5 0 .6.2v-.2l2.1.1a8.7 8.7 0 00-2.1-.4c.2-.2-.2-.2-.5-.2l.2.3a9.2 9.2 0 00-1.6-.2h.5c-.1-.1-.1 0 0-.2h-.4c-.2-.3-1.2-.3-1.1-.5a.8.8 0 01-.4 0 3 3 0 00.4.4c.3 0 .1-.2.4-.2.1.2.4.2.5.3a4.5 4.5 0 01-1.3-.2h.3a3 3 0 00-1.7-.4l.5.2c0 .1 0 0 0 0a2 2 0 00.8.2c-.2 0-1 0-1-.2H9v-.2c.1 0 .2.1.4 0 0 0-.5 0-.2-.1h-.3l-.4-.2c.4-.1 1.3.2 1.4 0a1.4 1.4 0 01.4.2c.2-.3.8 0 1 0a9.4 9.4 0 012.7.3l-.2.1h.4a.2.2 0 01-.1 0c.2 0 .7 0 .7.3.3 0 .3 0 .4-.2 0-.2-.7.1-.6-.2h.1a1.5 1.5 0 01.9.1.2.2 0 000 .2l-.5.1c.5.1 1 0 1.6.2a.5.5 0 01.3-.3c.2 0-.2 0 .1.1a1.8 1.8 0 00.3-.3c.3 0 .3.3.2.4a2.2 2.2 0 00-.6 0 31.3 31.3 0 003.2.2c.2-.1-.1-.1 0-.3.2 0 .2.1.2.3.3 0 .3-.1.5-.2s.6.2.4 0c.4 0 .3.3.8.3h-.7a3 3 0 001.6.2c0-.3-.4 0-.8-.2.4-.1-.3-.2 0-.3 1 .4 2.3 0 3.4.1-.4 0 .3.2.5.1a1.3 1.3 0 01-.7.1c.2.1.5 0 .3.3.2 0 .3 0 .3-.2h.7c.2.2-.1.2 0 .3a.9.9 0 01.8 0l-.2-.1h.8s0 .2.2.1l-.1.2a.8.8 0 00.6 0l-.4-.1.4-.2s-.3 0-.2-.1h-.5a.3.3 0 00-.1 0c-.3 0 0 0-.2-.1a3.9 3.9 0 01-.8 0c0-.1.3 0 .3-.2a4.3 4.3 0 001.9 0c0-.2-.3 0-.3-.1l.7-.2v-.3c.3 0 .4.3.4 0h.7c-.2.2-.1.2 0 .2 0 0-.3.2-.6.1a5.2 5.2 0 00.8.3l.3-.1h1.4c.2 0-.3 0-.2-.2l.2.1h0s.4 0 .3-.2a17.7 17.7 0 002.5-.2c-.3 0 .2-.2 0-.2a1.3 1.3 0 01.7-.2l-.1-.1c-.3.2-.8-.2-1.4 0 .3-.3.8 0 1-.2.2 0 .3.2.8.2 0 .1.3.1 0 .2l.9-.1c.2.1-.3.2-.6.2a1.7 1.7 0 001.4-.2c.6.2 1 0 1.6 0 .1.1-.1 0-.1.2s.1 0 .2 0c0-.3.7-.2 1-.3s0-.3 0 0c.2 0 .5 0 .5-.2a3.7 3.7 0 01-1 0h.2-.7.3l-.3.2c-.4-.2.2-.4.3-.5.1.2.6 0 .8.2.1-.2.7 0 .8-.2a5.9 5.9 0 001 .1c0-.2.6-.2.8-.3.2 0 .5 0 .5.2.3 0 .2-.2.5-.2l.3.1c.2 0-.1.1 0 .2a.2.2 0 00.2.1s.2-.2 0-.2c.5-.3 1.5.2 1.7 0h.7c0-.1-.3 0-.4 0h.1l.6-.1s.2.2.6.1c0-.2-.5 0-.4-.1h1c.1 0 0 0 0 0h.6c0-.1.2-.2.6-.1-.3-.2-1 0-1.3-.2.7-.1 1.3.2 2 .1-.2-.1.4-.1.4-.3h-.4l.9-.1c0 .2.5 0 .7.2-.3 0-.5 0-.4.2h2c-.3-.3-.9-.1-1.3 0 0-.2-.2-.2-.4-.2s.7 0 .7-.2c.2 0 .3 0 .4.2.6 0 1.4 0 1.4-.3h-.2-.3c0-.2.3-.3.5-.3v.2l.8-.2c0 .2.6 0 .7.2l.3-.2h-.4l.4-.3a9 9 0 00-1.3 0c-.2 0 .2-.2.4-.1 0-.1-.2 0 0-.2s0 .1.2 0 .3 0 .2-.1c.4.1 1-.2 1.7-.1a.4.4 0 00.1.4c-.1.2-.5 0-.5.2.3.1.8 0 1.1.2l-.3.1.3.2c0-.2.3.1.5 0 0-.2-.2-.2-.2-.2a14.4 14.4 0 012.4-.2.2.2 0 000 .2c.1 0 .3 0 .2-.2a10.7 10.7 0 002.3 0h-.5c.3-.2 0-.3-.4-.2 1.2-.4 3.2-.2 4.5-.5 0-.2-.1 0-.4 0s-.1 0-.1 0c-.3 0-1 0-1-.2a23.5 23.5 0 003-.2s-.4 0-.3-.2c.3 0 .2 0 .2-.1 0 .1.4 0 .3.3h.6c0-.2-.2-.2-.5-.1h.2c.1 0 0 0 0 0 .2-.2.6 0 .7-.2h.6c0 .2-.4.2-.2.3.1-.2.8 0 .7.2h.3c.3 0-.2 0 0 .2a1.8 1.8 0 011-.2h-.9.6c0-.2-.4 0-.6 0s-.2-.2 0-.4 0 .2 0 .2a2 2 0 011 0c0-.1-.2 0 0-.2H72.6c.5 0 1.3.2 1.4-.2.4 0 .3.2.6.2s0 0 0-.2c.7.2 1.8 0 2.1.2s.2-.2 0-.2h.9v.2H79c.3.1.1-.1.2-.2s.7 0 .6.1h-.6l1.2.2.3-.2a.5.5 0 01.4 0c.1 0 0 0 0 0l2-.1H86c0 .2-.3.2-.5.2l1.1.1-.5-.1c0-.3.6-.3 1-.4.2.1.2.4 0 .4a3.4 3.4 0 001.7 0c.3 0 .7 0 .9.2.6-.2 2.2.2 2.1-.3.2.1.2 0 .4 0-.2 0 .3-.1 0-.2a1.4 1.4 0 01.6 0c-.3 0 .2 0 .2.1h.4l-.7.2c0 .2.8.2 1 .4-.8 0-1.3-.2-1.9-.1a6.8 6.8 0 001 .3h-.3c0 .2.4.1.5.2s-.2.2 0 .2h-.8c0-.2.3-.1.4-.2-.3-.2-.8-.6-1-.4m-1 1h-1.1s.1 0 0 .2a5.2 5.2 0 001-.1M41.8 17c0 .3.5 0 .1.2.6-.3 2 0 3-.3a12 12 0 00-3 0m43.4-3h.4c-.2 0-.2-.2-.4 0m1.2 0c.2 0 .5 0 .6-.2l-.6.1m-2 .3c.2-.2.8.1.8-.1-.3 0-1.1-.1-.8 0m-7.4.4h.7s.3 0 .2.1c-.3 0-.6 0-.7.2a9.3 9.3 0 001.8 0l-.5-.1a.2.2 0 00.1-.1 4.2 4.2 0 01-1.4-.4s.4 0 .3-.2h-.3c0 .3-.2.4-.2.5m-.6.2v-.1a1 1 0 01.4 0c0-.3-.6-.4-1-.3a1.1 1.1 0 01.6.2c-.2 0-.4.2 0 .2m-3.3-.1v-.2a1.1 1.1 0 01-.4 0c.1.3 1 .2 1.2.4 0 0-.2 0-.1-.2-.4 0-.5 0-.2-.2a1 1 0 01-.4 0v.2m2.3 0c.1.1.6 0 .3-.1h-.3M70 15h.3c-.2 0 .3-.2.2-.3l-1 .1c.1.2.8 0 .5.2m.5-.2c.3 0 .3-.1.4 0h.1a.5.5 0 00.3 0c-.2 0-.4-.1-.3-.3l-1 .1h.7l-.2.3m8.6-.2c0-.1 0-.2-.4-.2q0 .2.4.2m-10.2.2s.2 0 .1-.1c-.4 0-.6-.2-1-.1 0 .3.7 0 .9.2m6-.1c-.1-.2-.4 0-.7-.2.2.2.3.1.7.2m-1.3.1c0-.3-.8-.2-1.2-.2a4.6 4.6 0 001.2.2m-4.7.1l-.3-.1c-1 0-1.6 0-2.7.2.6.2 1 0 1.7 0s.2 0 .4 0l.4-.1h.5m-4.6.2l.5-.1-.5.1m13.1 0c.2 0-.1-.2.3-.2l-.4-.1s-.2.3.1.2m1 .1l-.2-.3c-.2.2-.2 0-.4 0 .1.1 0 .1 0 .2s.2.2.4.1l-.2-.1.4.1m-15 0a6.2 6.2 0 001.4 0 3.4 3.4 0 00-1.3 0m-6.2.6c.4 0 .9 0 .8-.3h-.9c0 .1.2.1.1.3m-6 .4H51c.3 0 0 .2 0 .2h.8c0-.2-.6-.1-.2-.4h-.4c-.2 0 .2.1.1.2m5.2-.2a.8.8 0 01.3 0c0-.2.3 0 .3-.3a.9.9 0 00-.4 0c0 .2-.3.1-.2.3m20.7-.7h.4l-.3-.1s-.1 0 0 .1m-63.8 2.5l.7.2s-.3 0 0-.2a1.3 1.3 0 00-.7 0m22-.2h.6a.2.2 0 010-.1c-.2 0 0 .1-.2 0h-.3m-19.5.8c-.1-.2-.5-.2-.8-.1a2 2 0 00.8 0m1.7.2c-.3-.2-1.2 0-1.6-.2.2.3 1.2.2 1.6.2m15.5-.4c.2 0 .1.1.4 0 0-.1-.4-.1-.4 0m-14.6.4h-.4s0 .2.2.2c0-.2.2 0 .2 0l.3-.2a.5.5 0 00-.3 0m4.5.3h1.2c.2-.1 0-.5-.1-.3H23c.2.1 0 .2.1.3m67.1-2.1c0 .1-.2 0-.2.2s.8.1.8 0c-.2 0-.2-.3-.6-.3m-73.5 2h.4-.5.1m4.4.1a.2.2 0 010-.2h-.6c0 .2.3.2.6.2m3.2.2h0m-7.3.2l.2-.1a1.2 1.2 0 00-.3 0l.1.1m1.5.9c-.2 0 .5-.1 0-.3 0 .2-.6.2-.5 0h.6l-.4-.1.1-.1c-.6 0-.3-.4-.8-.5a1 1 0 01-.3.5.7.7 0 00-.5-.2H16c-.2.2.4 0 .3.2h.5-.4c0 .1.2.1.2.3.9 0 1.4.2 2 .1m5-.3c-.2-.2-.5-.3-.4-.5l.4-.1a2.3 2.3 0 00-.7 0c0 .2.2.2 0 .3l-.5-.1c-.1-.1 0 .3-.3.3-.2 0-.5-.2-.6 0h.3l.2.2h.9c.2 0-.3-.2 0-.3 0 .2.2 0 .4 0 0 .3.1 0 .3.2m-4-.2l.2.1c-.3 0-.4.2-.3.3.5-.2.9.1 1.1.1l.4-.2c.6 0 .8.2 1.3.1 0 0 .3-.1 0-.2a6.7 6.7 0 00-1.8.1c0-.1-.2 0-.4 0a.2.2 0 000-.3c-.1 0-.6-.2-.6 0m1 .2c.1-.3.7 0 .8-.3-.7 0-1.5 0-1-.3h-.7c0 .1 0 .2-.2.2s.2 0 .1-.2c-.6.1-1.1-.1-1.6 0 .6.2 1.2 0 1.4.3a1.7 1.7 0 011.3.3m7-.4h.4s0-.3-.3-.3a.7.7 0 00-.1.3m-1.5.8c.4 0 .5-.2 1 0a.2.2 0 010-.2 5 5 0 01-1.2 0s0-.2-.2-.2c0 .2-.3.1-.3.3s.2-.1.2 0h-.2a2 2 0 00-.7-.2l.3-.1c.2-.1.2.1.3.2 0-.4-.4-.3-.4-.7a2.4 2.4 0 01-.9 0c0 .2.4.2.2.4h.3s.2 0 .2.2a2.7 2.7 0 00-.7 0c.1.2.5.2.2.4.3-.1.5 0 .7-.2l.2.1c0 .1-.3 0-.4 0 .2.2.4.2.5.2l-.1.1c.1 0 .2.1.4 0 0-.2-.3-.2-.4-.3h.3c.2.1.6.2.6.5l.6-.1c-.3 0-.2-.3-.3-.4-.2 0-.3.2-.4 0v-.2c.2 0 .3-.1.2 0m9.3-1l-.5-.1c0 .1.6.2.5 0m-7.3.6V19h-.3a.8.8 0 01.1.6c.4 0 .5 0 .7-.2l.4.2c-.2-.3.7 0 .6-.2H29l.2-.2c-.2 0 0-.3-.3-.3-.1.2-.5 0-.7.3m-2 .3h.3c0-.2.2 0 .5 0 .1-.3-.4 0-.4-.2s.4 0 .3-.2h-.7c-.1-.1-.3 0-.8 0 .1 0 .2.3.6.3 0-.1-.2-.1 0-.2s.2.2.1.3m10.5-.9c0 .1-.3 0-.4 0a.3.3 0 01.2.2h-.2.6c-.2 0-.3 0-.3-.2s.3 0 .1 0m-17.1.7h-.6.6m11.5 0l-.6-.2c0 .3.5.2.6.2m4.7-.2c0-.2-.4-.2-.5-.1h.5m-22 .4h-.3c-.1.1 0 .1.1.2h.7a1.3 1.3 0 01-.5-.2s.1 0 0 .1-.3 0 0-.1m-4.2-.2h-.6c.4 0 .5.2.6 0m-.6.3h-.4a1.3 1.3 0 00.5 0s-.1 0 0-.2h-.4l.3.1m1.2 0a3 3 0 00-.7-.1c0 .1.6.2.7.1m13.9.3c-.1-.1-.6-.2-.8 0 .1 0 0 0 0 0a.5.5 0 00.6 0h.2m6.5-.2l.5-.1h-.5zM13 20c.3 0 .5-.1.6-.3a3.7 3.7 0 00-.4-.1c-.3 0 .3.1 0 .2s-.4-.2-.5 0c.3 0 .2.2.3.2m6.8 0c0-.2-.3-.2-.5-.2 0 .2.2 0 .5.1m-8.7.4l-.7-.1c.2-.1 0-.3-.1-.3l.2-.1c-.3-.2-.5 0-.9-.2 0 .1.3.1.3.3h-.3l.7.2a.6.6 0 00-.2 0c.2.1.2.3.5.4 0-.1-.3-.2 0-.3 0 .2.3.1.4 0m-.4-.4h.2s-.3-.2-.3 0m9 .2a3 3 0 011.4.3h.6c-.2-.4-1-.1-1.3-.4 0 .3-.5 0-.7.2m-8.4-.3v.2l.5-.1h-.5m7.6.2c0-.2-.3 0-.5-.1l.5.1m-4.4 0h-.7a.4.4 0 00.4.3c0-.1-.3 0-.2-.2a2.7 2.7 0 00.9 0c-.2-.2.1 0 .2-.2h-.4l-.2.1m4.6.3c-.2 0-.3-.1-.4 0h.2c-.2 0-.2.2-.6.2.3-.2-.3 0-.4-.1-.3-.1.2-.2-.3 0 0-.1 0-.3.2-.4a.9.9 0 01-.4 0l-.2.4c.2 0 .4 0 .3.1l-.3.1s.2-.2 0-.2 0 0-.1.1a.9.9 0 01-.7-.3h-.5.1-.5c-.2 0 .2 0 0 .1s-.3 0-.5 0c0 .3 1.3.5 1.3.1h-.5.6s.5.2.2.3H16c.1.2.5 0 .6.2-.1 0-.3 0-.2.1h.3a.2.2 0 01.2-.1l.1.1c.1 0-.2 0-.2-.2a4.3 4.3 0 00.8-.3h.4c0 .1.2 0 .1.2a2.1 2.1 0 001.1-.2c.2.1 0 .3-.2.4.4-.1.5.2.6 0h.2l-.4-.1c0-.1.1-.2.4-.1 0 .1.1.1 0 .2l.8-.1h-.4c.2 0 0-.1.1-.2l-.4.1a.3.3 0 01-.2 0s.4-.2.1-.3h-.3c-.3 0 0 .2-.2.2l-.1-.3c-.3 0-.3.2-.5.2 0-.1.2 0 .2-.2m-1 0h.2c.1 0-.2-.2 0-.2a.6.6 0 01.3.1s-.2.1 0 .1c0-.1.1 0 .4 0-.1-.5-1.4-.2-1 0m8.7.1h.5s-.1 0 0-.1c-.3 0-.3 0-.2-.2h-.3V20c-.2 0-.2 0-.2.2.5 0 .5.3.2.3M8.2 20h.5c.2-.2-.5-.2-.5 0m13.7.3v-.1h-.3.3m7.2.1c-.2-.2-.7 0-.9-.2.2 0 .2-.1 0-.1 0 .1 0 .2-.2.2a3.8 3.8 0 00-.8-.1.2.2 0 010 .2h.4c.3 0 1 0 .6-.1a2 2 0 001 0m-12.5.2a.4.4 0 00.4 0c-.1 0-.4-.2-.4 0m7 0h1.1a1.6 1.6 0 00-1.1 0m-.5.3h.7c-.1-.2-.5 0-.6-.2a.2.2 0 00.1 0c-.3 0-.2-.2-.5-.1h-.1a.3.3 0 01.2.2h-.3c-.1 0 0 .1 0 .1 0-.1-.2 0-.2 0 .3.2.4-.2.7.1m-13.7-.4c0-.2 0-.2-.4-.2-.1.2.3.1.4.2m11.5 0v.6l.4-.1c-.2 0 0-.3 0-.3h.5a.2.2 0 01-.1.2c.3 0 .1.3.5 0-.3 0-.1-.2-.4-.2l.4-.1H21m-6.8.3c-.2-.2 0-.2.2-.3-.6 0-.5.2-.2.3m11.4-.2c-.2 0-.4-.2-.5 0h.5m8-.3c-.2-.1-.5.2-.4 0l-.5.1c.5 0 .6.2.9 0m-16 .4c-.2 0-.2 0-.1.1a.4.4 0 01.4 0c0-.1 0-.2-.2-.2l-.1.2m10.7-.3v.1a.4.4 0 00.4-.1h-.4m-13 .3l-.6-.2c0 .1.3.3.5.2m3 .3c.3 0 .7 0 .8-.2-.4 0-.8 0-.8.2M30 21h.2c-.2-.2-.6-.2-.3-.3a1.4 1.4 0 00-1 .1l1.1.1s-.1.1 0 .1m-23.3-.3a4.4 4.4 0 011.5.2c.1-.1.6 0 .8-.2-.5 0-1.4-.3-1.5 0-.2-.1-.6-.3-.8-.2.4 0 .2 0 0 .2M28 21a2.6 2.6 0 00-.6 0h.6m-18 0c-.3 0-.2-.2-.5-.2-.2.2.4.2.5.2m16.4.1h.6c-.2 0 0 0 0 0h-.6m-16.3 0h.6l-.5-.2-.1.1m.7.1a11.5 11.5 0 002 .2A4.3 4.3 0 0011 21c.3.1-.4 0-.3.1m9.7.1l.5.1h-.5m1.8 0h.9c-.2 0-.5 0-.4-.1l-.5.1m3.2.1a.2.2 0 010-.2h-.2c-.1.2.1.2.2.2m-12.7 0a11.3 11.3 0 001.3 0 1.6 1.6 0 00-1.3 0m2.4 0c.2 0 .3.2.4 0h-.2-.2m11.9 0l-.5-.1c-.3.1-.2.3 0 .5-.3 0-.3 0-.3.2H26a3.6 3.6 0 01.4 0H26.8s.2-.2.3 0h.5a1 1 0 00-.7-.2c.3 0-.1-.2.1-.3m-18.3-.2c-.2 0-.2-.2-.4-.1-.1.1.3.2.4 0m20.2.3c.2 0 .7 0 .8-.2-.3.1-.6 0-.8.2m-10 .1l.2.2h.5c.1 0-.1 0 0 0-.3 0-.3-.3-.7-.2m5.3 1c-.2 0-.2.3-.4.1.3-.2.1-.3.3-.6-.3 0 0 0 0 .2h-.6l.1-.2a.4.4 0 00.2.1c0-.1.3-.3.4-.1 0-.2.1-.2 0-.2a.9.9 0 00.5-.2 2.6 2.6 0 01-1.3 0c0 .2.6 0 .5.2-.4 0-.3.1-.6.2V22s.1 0 0 0h-.5s-.2-.5-.4-.4l-.2.2H21a.2.2 0 01-.1-.2c-.3 0-.5-.2-.6 0 .6 0-.2.1 0 .1.3 0 .4.3.6.3a.6.6 0 01-.5.1l.5.1c.1 0 .4-.3.6-.2l-.3.2c.4 0 .6-.2.5-.4h.4a.3.3 0 00-.3.2h.7-.3l.3.2c-.3 0-.2-.2-.7-.2a6.2 6.2 0 00.6.6c-.3 0-.5 0-.5.2.3 0 .4-.2.6 0 0-.3.4 0 .6-.2-.3 0-.2-.3-.1-.5 0 .1.4.4 0 .3 0 .2.6.1.6.1-.2.1.1.2 0 .3.6 0-.2 0 .3.1 0-.1.4 0 .5-.2h-.1l-.1-.1m.2 0c0-.1 0-.3-.2-.3s0 .3.2.3m.7-1a.9.9 0 01-.4.1c0 .1.3 0 .2.2h.4a.6.6 0 01-.2-.2l.4-.2H25h-.2c0 .1 0 .2.2 0s0 0 0 .1m2.5 0c.1 0 .3-.2.1-.2 0 .2 0 0-.2 0a.2.2 0 000 .2m-19.3-.2a2 2 0 01.8.2c0-.2-.7-.4-.8-.2m10.5.6a.6.6 0 01.5 0l-.1.1c-.7 0-.7-.2-.7-.3a2.3 2.3 0 01-.6.2c0 .2.1.3.5.3l.5-.1a3.7 3.7 0 001.2 0c0-.1-.6 0-.4-.4l-1 .1m43.8-1.1l.9-.3h.2c.2-.2.8 0 1-.3a2.1 2.1 0 01-1 0c-.3.2-1.3.3-1.1.6m-1.7-.2a1 1 0 00-.5-.1h.5m-42.8 2h-.2.4s.3-.1 0-.1h-.3.1m3.2 0s.3.2.3 0c-.2 0-.4-.2-.5 0zm-1.5.1a3.3 3.3 0 00.8.3c0-.2-.3-.2-.3-.4a2.6 2.6 0 00-1 .1v-.1h-.6c.4 0 .8.2 1 0m1.5.5c0-.2-.2-.5-.5-.5-.1.2 0 .5.5.5m27.3-1.4c.2-.2.6-.1.8-.3h-.8c0 .2-.2.2 0 .3m12-.6l.4-.1c0-.1 0 0 0 0-.2 0-.5 0-.4.1m-41.4 2s-.3-.1-.4 0a.9.9 0 00.6 0c-.2 0 .3-.1.1-.3h-.6c0 .2.3.1.3.2m40-1.7c.2 0 .6.2.6 0-.1 0-.6-.2-.6 0m-7.4.4a1 1 0 00-.5.1c.4 0 .2.3.5.3 0-.1.1-.1 0 0h.6a.4.4 0 010-.4h-.5c.2.1-.2.2-.1 0m-14 1a6.3 6.3 0 00-.7 0c0 .2.5 0 .6 0m15.7-1h-.5.5m.7 0h-.5c.2 0 .1.2.3.3s.2-.3.2-.4m-18.2 1.3a.5.5 0 01.4 0 .2.2 0 000-.1l-.4.1m25.9-1.2a2 2 0 01.6 0c.2 0-.1 0 .1-.1 0 0 .1 0 0 0a5.2 5.2 0 01-.6 0c0-.2.2 0 .2-.2l-.9.1c.1.1.5.1.6.3m-23 1v.2c.2-.1.3 0 .4-.3h-.5m-2.2.4h.4l.1-.1-.5.1m.6 0h.9c0-.3-.8-.1-.9 0m-18.4.8c0-.1.4 0 .3-.2a1 1 0 00-.6 0l.1-.2-.2.1a.8.8 0 01.4.2m3.4 0v-.3h-.3a.3.3 0 00.3.3m13.3-.5s-.3.2 0 .2c.2-.2.4-.2 1-.2a.1.1 0 000 .2h.3c-.2 0-.3 0-.3-.2.7 0 1.1-.1.7.2a3 3 0 001.4-.4 26.3 26.3 0 00-3 .2m-15.9.8c-.2-.2-.2-.2 0-.3-.2-.2-.4 0-.3.2h.3m54-2.5c0 .2.4.1.6.2l.1-.2h-.7m-39 2.1h-.2l.7-.1c-.2 0-.3 0-.2-.1H34c0 .1.4 0 .3.2m8.6-.3c-.2 0 0 0 0 0l-.4-.2c0 .1.1.4.4.2m-24.6.8l-.4-.1c0 .1.3 0 .4 0m10.5 0h.5c0-.1.2 0 .1-.2-.2 0-.8 0-.6.1m1 0l.5-.1a4.6 4.6 0 01-.6 0v.2m-15.6.3c.2-.1.4.2.7 0-.1 0-.7-.2-.7 0M82 22.2l2.2.1a4 4 0 00-.9-.2c-.1.3-1.2-.3-1.3.1M6.7 19.4l-.4.1a2 2 0 00-.6-.1H6c-.2-.2.3 0 0-.3a1.1 1.1 0 00.3-.1c-.2 0-.3-.2-.4-.3.2-.2.5 0 .8 0 0 .1-.4.2 0 .2l-.3.1c0 .1.4.1 0 .2l.4.2M45 23c.1 0 0 .2-.3.1 0 .1.1 0 .2 0l-.3.2c-.3 0 .3-.2 0-.2 0-.1.3 0 .4-.2M4.5 15h.7l.1.2a2.3 2.3 0 01-.8-.2m70.7-1.3l-.9-.1a4.9 4.9 0 011.3-.1c-.3.1-.4 0-.4.3h-.6.6m-64.9 2h-.2l-.3-.1.7.1h-.2m16.6 1c-.2-.2.5-.2.6-.2 0-.2.6-.1.5-.3.1.2.7.2.7.4-.5.4-1.3-.2-1.8 0m15.4-1a1 1 0 01-.2.1c.4 0 1.2-.2 1.5 0a1.6 1.6 0 00-.6.2h.3c.2 0-.1.2.2.2-.2.2-.3 0-.6 0h-.7a.2.2 0 01-.2-.2h.3c0-.1-.4 0-.3-.3h.3m-.6.1c.1 0 0 0 0 0-.2.2.3 0 .2.2H41c-.1-.1.5-.1.7-.2m-15.7 1a5.3 5.3 0 00.6.1 3.6 3.6 0 01-1 0c.2 0 .1-.1.3-.3a1.2 1.2 0 01.6.2H26m13-.6c0 .2-.2 0-.6 0h.7M59 15a1.6 1.6 0 011 0 1.1 1.1 0 01-.7.3c-.2-.2 0-.3-.3-.3m1.7.1s.4 0 .4.2a2.3 2.3 0 01-.5-.1c.1 0 .1-.2 0-.2h.3l-.2.1m-47.6 2c-.3 0-.3.2-.6.1-.2-.2-.9-.2-1.1-.3h1a4.7 4.7 0 001.1.3.4.4 0 01-.4 0m1-.1h-.3-.5l.2-.1h.6l.6.2c-.2 0-.8 0-.6-.1m10.5.6c0-.3-.8-.1-1-.2-.2.2.6 0 .5.3h-1.5c0-.1-.3-.1-.2-.2-.3.3-1.6 0-1.2-.3.3.1 1 0 1.5.2l.3.2.2-.2a2 2 0 00-.6-.1.3.3 0 01.3 0c0-.3-.4 0-.7-.2.4-.2.9 0 1.4-.1l.1.1c.3 0-.1-.2 0-.1l1 .1-.5.1.4.2c.1 0 .1.3-.1.3m-.7-.3c.1-.1-.2 0-.1-.2H23c.1.2.4.2.8.2m-1.9 0c-.8 0 0 .3 0 0M8.1 17c.4.1-.4.1-.1.2 0 0-.5 0-.4-.2h-.5 1m7.4.6c-.2 0-.4-.3-.7-.1l-.2-.1a.7.7 0 01.9.2m9.9 0c0 .2-.5 0-.5.1-.2 0 .3-.3.5-.1m-17.5-.3a1.4 1.4 0 00.7.3c-.3 0-.7-.1-.7-.3m24 .4h-.2a15 15 0 011.6-.1c0 .1-.3 0-.1.2-.4 0-1.1 0-1.1.4-.3 0 0-.2 0-.2h-1c.4-.1.8 0 1.1-.2 0-.1-.2 0-.4 0v-.1m-24.7 0l.6-.1a.3.3 0 00.1.1s-.2 0 0 0c-.2.2-.4 0-.7 0m2.7.3c0-.1.2 0 .4 0-.2.1.1.3 0 .4-.3-.1 0-.3-.4-.4m1.9.9a.2.2 0 000-.2h.4s-.4.1-.1.2h-.3m-9.5-.3a1 1 0 01.7.1 1.8 1.8 0 01-.7-.1m.8.2l.3.1s0-.2-.3-.1c.2-.3.4 0 .7 0 0 .1-.4 0-.4.3-.2 0 0-.2-.4-.2s.6 0 .1 0m.3.7h.1c.2 0 0-.2 0-.2.1-.1.3 0 .3.2a.4.4 0 01-.4 0m2.4.4a2.6 2.6 0 00.7 0l-.1.2-.8-.2.2-.1m18.5 3.2c.3 0 .1.2.4 0 0 .2.3.2.3.3-.6 0 .2 0 .5.2l-.6.1.4.1c0 .1-.2 0-.2.2s-.5 0-.3-.2c-.3 0-.2.1-.3.2l.3-.2c-.2 0 0-.3-.3-.2 0 0 .2-.2 0-.2h.3s-.1-.1 0-.1c-.2 0-.6-.1-.4-.3m2.2 1.3c-.3 0 0 .1-.3.2l-.1-.3c.1-.2.3-.1.4-.2 0 0-.5.2-.5 0a.9.9 0 00.4-.2c-.1 0-.1-.2-.3-.2a.7.7 0 01.6-.2c.2.3 1 .5.3.7.2.2.4 0 .7 0-.3.2-.7 0-1.2.2m26.5-2c-.1 0-.2 0-.2-.2.4 0 .3.2.7.1 0 .2 0 .3.4.2-.1 0 0 .2-.4.2h.2s-.3-.1-.3-.3c-.2.1-.3-.1-.4 0m4.5-.1c.2 0 .2.2.3.2-.3.1-.2.2-.5.2 0-.2.5-.2.2-.4m-.6 0c.2 0 .5.2.3.3a.6.6 0 00-.2 0l.1-.1a.2.2 0 00-.2-.1M23.3 24h-.6l.3-.1c.2 0 .5.2.3.4-.2 0 0-.2 0-.3m65-2c-.2.2-.8.1-1 .2-.2-.2.6-.2 1-.2m-68.6 2.6c.3-.1 0-.1 0-.3.4 0 0-.3.5-.2-.2.2 0 .4.4.5a2.2 2.2 0 00-.9 0m17.5-1h.3c0 .3-.7.3-.7.1.1 0 .4.2.4 0m-12.3.8l-.6-.2.3-.1c.4 0 .5 0 .6.2-.2 0-.4.2-.5.1s0 0 .2 0m6.7.1c.3.1-.4.1-.3.2 0 0-.2-.2-.4 0-.1-.2.6-.1.7-.2m-2.5.3a1 1 0 00.4 0v.1a.7.7 0 01-.3 0c.2-.1 0 0 0-.1l-1 .2c.1-.2.7 0 .9-.3m35.2-10.2l1.1.1h-1c.2 0 0 0-.1-.1m-44.7 1.8c1.8 0 3.5.2 4.6 0 .2 0 .2.2.5.2l.1-.2c.2.2.4.2.8.2 0 .2-.3.2-.2.3-.4.1-.8-.1-.5-.2h-.3l-.2.2c-.2.2-.7 0-1.2.1 0-.1.3-.2.1-.3-.4.3-1 .1-1.6.4a1.3 1.3 0 00-.6-.4c.5-.3-.9 0-.7-.2l-.8-.1m3.4 6.9h.6c-.2.2-.8.3-.9.6h-.5c.2-.4.9-.3.8-.6"/>
  <path d="M78.8.4c-.2.1.2.2.1.4l.2-.1c-.1-.2-.3-.1-.3-.3m.4.5s0 .2.2.3L79 1l.1-.1m.6.8l.1.4c-.2 0-.3-.2-.3-.3s-.3 0-.2-.1c.2 0-.4-.3-.1-.4 0 .2.2.3.4.5v-.1l-.3-.4c.2 0 .3.3.5.4h-.1m7.4 28l-.2.1s0-.2.2-.1M81.3 3.2s-.2 0 0 .1c-.2 0 0-.1-.2-.2l.2.1M83 32.6l-.1.2c-.1-.2 0-.2.1-.2m6.5-5l-.3.2.3-.2m-1 .7l.1-.2c.1 0 0 .1 0 .2 0-.2 0 0-.1 0m2.5-2s-.3.2-.3 0h.3m-3.2 2.3c.2 0 .2-.3.3-.1 0 0-.2.2-.3.1M80.5 3.1c.1-.1.2 0 .2 0a.1.1 0 000 .2l-.1-.2M80 34.5s0-.1 0 0l.2-.5a.3.3 0 01-.3 0c.2-.2.6.1.6-.1 0 0 .2-.2.2 0a2.2 2.2 0 00-.4.3.3.3 0 00.2 0 .8.8 0 01-.5.3m3.6-28.8c0 .2-.2.2-.2.3-.1-.3-.2 0-.4 0 .3-.6-.3-.7-.5-.6s0-.2 0 0c0-.3 0-.6-.2-.6s0 0-.2.1-.1-.2 0-.4c-.2-.1-.3 0-.3-.2h-.3c0-.4-.6-.7-.7-1l2.7 2.4m12.7 16.4c-.3 0-.2-.2 0-.3s-.1.2 0 .3m-4.8 3.6v-.2h.3l-.2.2m-.2.2c-.2 0-.2-.3 0-.3v.3m3.8-11.5a.4.4 0 01-.3 0c.2 0 0-.3-.1-.2l-.2-.4c.3 0 .5.5.6.6m-.4 8.6a.6.6 0 00-.2.1c-.2 0 0-.2 0-.3l.2.2m-.6.4c-.2.1-.4.4-.6.2.3-.1.3-.4.6-.2m-4.2 3.2c0-.2.3-.3.4-.3a2 2 0 01-.4.3M83.5 6a.3.3 0 01.1.4c0-.1-.2-.3 0-.4m4.2 2.9c-.1 0-.2 0-.2.2-.2 0-.1-.1-.3-.2.2 0 0-.2 0-.2l.3.1c.1 0 0 0 0 0h.2m1 .8c0 .2.8.4.9.8-.4 0-.3-.4-.7-.5v.1c-.1.2-.3-.1-.3-.3s-.1 0-.2.1c-.1-.4-.7-.5-.8-.8a2.8 2.8 0 001.1.6m6 12.8c-.2.2-.2 0-.3 0 .1-.2.2 0 .4-.2l-.2.2m-4.3-11.7a.2.2 0 01-.2 0c.2 0 0-.2-.2-.3l.4.3m1 14.3c-.1-.1 0-.1 0-.2l.5-.2c0 .2-.4.3-.4.4M91 11.3c-.2 0-.4-.3-.4-.3l.4.3M80.6 33.2c-.1-.1 0-.1 0-.2l-.4.3.1-.3s-.3 0-.3.3c0 0 0-.1-.1 0 0-.2 0-.5-.3-.4a4.6 4.6 0 01.6-.7c0 .2-.3.5-.1.7a1 1 0 01.6-.1h.3c0 .2-.4.1-.4.4m-.6-.6l-.2.2c.1 0 0 .2.2.2a1.1 1.1 0 000-.4m-.4 1.1l.3-.1s-.2.3-.3.1M79 3a9.2 9.2 0 011 1l-.1.1c0-.2-.3-.2-.2-.4-.2 0-.1-.2-.3-.1v-.2l-.1-.1c-.3 0-.1-.2-.3-.3m4.7 3.5s.1 0 0 .2 0-.2 0-.2M92.2 24l.3-.3s-.2.4-.3.3m4.6-6.7l.2.4a4.8 4.8 0 00-.6 0 4.8 4.8 0 00-.4-.8s.1.2.2.1c0 .2.2 0 .3 0v.3h.3m-4.5 6.3s-.3.4-.4.3a2.3 2.3 0 01.4-.3m-13-20.2l.1.2-.2-.2m17.6 16.4c-.2 0 0-.2.2-.2s0 .1-.2.2M85.5 8.1c.3.2.8.5.8.8-.3-.2-.7-.3-.8-.8m.5.6c.1-.1-.2-.2-.2-.2l.2.2m-3.2-2.2c-.2.3-.2-.3-.5 0V6l.5.5m4 2.5a2.8 2.8 0 00.5.3l.1.3a.6.6 0 01-.6-.6m.6.4a2.6 2.6 0 01.5.4l-.5-.4m.7.4c0 .1.2.2 0 .3v-.3m3.2 2.4s.3.2.2.3c-.2-.1 0-.2-.3-.3m-8.1-5.5l-.2.2v-.3c.1 0 0 .1.2 0m.4.6s-.2 0-.3-.2c.2 0 .2 0 0-.1l.4.1-.2.2m6.8 4.2c.1.2.2.2.4.3h-.3c.1-.1-.2-.1 0-.3m.5.5c.1 0 .3.2.2.3l-.2-.3m-9.3-6.1v0m.1.2l.3.1c0 .1-.2 0-.1.1-.1.1 0 0-.2 0 0 0 .1-.2 0-.2M86.1 9c-.4.2-.6-.5-.9-.6a2 2 0 011 .6m2.7 1.8v.1a.8.8 0 00-.3-.3l.3.2m1.5 1.2L90 12a.4.4 0 01.4.2h-.1m-5.1-3.4c-.3 0-.3-.5 0 0M82.8 7v.2c0 .1 0 0-.1 0V7m-4-2.8c.3 0 .1.3.3.4-.2 0 0-.3-.3-.4m.7.8c0 .1 0 0 0 0-.2 0 0 .2 0 .3L79 5c.2 0 .2-.2.1-.3.2-.1.1.1.3.2m7.9 5.4c0 .1.2.1 0 .2a1.3 1.3 0 00-.3-.1c0-.2.2 0 .3 0m-2-1.2l-.2-.1h.3M78.6 5c.1 0 .3.2.2.3s-.2-.2-.2-.3m.3.3l.2.3-.2-.1a.1.1 0 000-.2m.4.9l.1-.2c.1.1.2 0 .2.2s0 0-.1 0 .2 0 .3.2a.2.2 0 00-.1.1c-.2 0-.2-.2-.4-.3m2 1.7H81c.1 0 .2-.2.3 0m4.3 2.8h-.2c-.1 0 .1-.1.2 0m-4.7-2.9l.2.2c0 .2-.3-.1-.2-.2m-4.7-3.6v.2c0 .1 0 0-.1 0l.1-.2m-.4.4v.2a.3.3 0 010-.3c.1-.1.1.2 0 .1m.3.4l-.2-.2c.2-.1.1.2.2.2m-.5 0l.2.2c0 .2-.4 0-.2-.2m-1.8-1.5c0 .2.1.3 0 .4 0-.2-.2-.2 0-.4m1.9 2.4v.3l-.2-.2h.2m.1.2c.2 0 .2.2 0 .3a.3.3 0 010-.3m-2-2l.1.3-.2-.2m15 14.7h-.3c.1 0 0 0 0 0h-.1l.4.1M87 20.3s-.1-.1-.2 0V20l.1-.2c0-.1-.5 0-.4.3h-.3l.5-.4a.4.4 0 01.2 0 .3.3 0 000-.2.3.3 0 01.3.2c-.1.1-.3.1-.3.3.1 0 0 0 0 .2m-.2 0v.2l-.2-.2c0-.2 0 .2.2 0m1.3-1.1c-.1-.1 0-.1 0-.1s.1 0 0 0m.3-.2h-.1s-.1-.1 0 0m-3.7 2.9a.2.2 0 01-.2-.1c.1-.1.3-.3 0-.2 0-.2.4 0 .3.1s-.3 0-.1.2m-3.2-9a1 1 0 00.2.2s-.2 0-.1.1c-.2.1-.2 0-.4-.1l.2-.2a.1.1 0 00.1 0m7.4 5.5h-.3a.6.6 0 01.3 0m-.6.4H88h-.2.4m.2-.6H88h.3m0 .3H88a1 1 0 01.3 0m-.3-.3a1.1 1.1 0 01-.2 0h.3m-.6 1h-.2s0-.1.2 0M85.3 16s-.2 0-.3.2V16c.2 0 .2 0 0 0a.2.2 0 01.3 0zM82 14h-.1c-.1 0 0 0 0-.1.1-.1 0 .1 0 .2m2.8 1.6c.1 0 0 .2.2.2h-.2c0 .2.3.1.4.3l-.3-.1c-.1-.1 0 0-.1.1h.1c.1 0 0 .1 0 .2-.2 0-.3-.2-.5 0 .1-.1.2-.3.3-.2l-.1-.2c.2 0 0-.1 0-.2s.2.1.2-.1m1.8 1.5h.1c-.1.1 0 .1 0 .2s0-.2-.1 0a.2.2 0 000-.1c0-.1 0 0 0 0m-6-4c.1 0 .3 0 .3.2s-.1 0-.1.1h-.3l.1-.4m5 3.3s-.2.1 0 .2a.3.3 0 00-.2.1v-.1-.2h.2m1 1v.1c0 .1 0 0-.1 0v-.2m-6.7 6.3c0 .2-.2.1-.3.2 0-.2.3-.1.3-.2m3.4-8.1v.1c0 .1 0 0-.1 0l.1-.1M78.3 0c.1 0 .1.3.3.3a1 1 0 01-.3-.3m3 33.5a.4.4 0 01-.4-.3l.1-.1c0-.1-.1 0-.2 0 .3 0 .3-.2.4-.4H81s0-.2-.1 0a1 1 0 01.1-.3h-.3l.3-.4-.3.1c0-.2.3-.3.1-.6l-.3.4v-.2c0-.3-.4 0-.4-.1l-.1.2c0 .1.2-.2.2 0-.3.5-1 .6-1 1 0 .3-.4.4-.6.5V33c.1.1.2 0 .4 0-.2-.2-.3 0-.4 0 0-.1-.3-.4-.4-.2-.2-.3 0-.3 0-.5h-.3l-.1.2c0-.2 0-.2-.2-.2a.2.2 0 000-.1l.3-.3h-.2a.1.1 0 00.1 0v-.3c-.3 0-.4-.4-.6 0v-.2-.5l.2.1c-.5-.6.4-1.2-.1-1.6 0 0 .2-.1 0-.3.3 0 .3-.3.5-.4 0-.1-.3-.1 0-.2-.2-.2-.3-.2-.4 0v-.2.3c-.3-.3 0-.5 0-.7v.2l.4.2.1-.5c0-.2 0 0 0 0l-.3.3c-.1-.1.2-.2 0-.4 0-.1.2-.5 0-.7a2.3 2.3 0 01.5-.6c-.2-.1.1-.2-.1-.4a4.8 4.8 0 011.3-1.3.2.2 0 00-.2 0c0-.2.2 0 .2 0l.2-.2a3.3 3.3 0 011.6-.8 2 2 0 01-.4.2c.3 0 .6-.4 1-.5l-.1-.1-.4.3v-.3c0 .2.3 0 .1 0 .2 0 .4-.1.4-.3s.4 0 .3-.1c0-.1.2 0 .2 0l-.1.2h.3l.2-.2c.2.3.4 0 .4.3.1.1.2 0 .2 0s-.1-.1 0-.3c-.2 0-.2-.2-.3 0l-.1-.1.6-.2h-.1c.1 0 .2-.4.5-.4 0 .2-.2.2-.3.2.1.2.3-.2.4 0-.3 0 0 0-.1.3.1.1.2 0 .4 0s-.1-.1 0-.2a1.1 1.1 0 01.3.3c0-.2-.2-.2 0-.3h-.2c.1-.1.2-.4.4-.4a.3.3 0 01-.1.3s.2-.1 0-.3l.4-.2c.2 0-.2-.2 0-.3-.1 0-.3.1-.4 0 .1 0 .5-.4.5-.1h.2c0 .2-.2.1-.3 0a.6.6 0 00.1.4c.1 0 0-.1 0 0 0-.2.3 0 .2-.2h.3v-.4s0-.2.2-.1c0 0-.2 0 0 .2a2.4 2.4 0 00.9-.4s-.2 0 0-.2l.1.2c0-.2.4-.2.5-.5a.1.1 0 00-.1 0v-.2s.2 0 0-.1c.2.1.5 0 .3-.2h.3l-.4-.5h.2c.2 0 .1 0 .2.2s0-.3-.2-.3h.2v.1s.2 0 0 0h.3v.2H88c-.1 0 0 0 0 0l.2.1c.1.1 0 0 0-.1h.2s-.2 0-.3-.2c.1 0 .1.1 0 0l.4.1-.2-.1h.3l-.3-.1h.4s-.1 0 0 0c.3 0 .1-.2.5-.2l-.3-.2a.7.7 0 01.2 0 2.5 2.5 0 01-.8 0 3.3 3.3 0 01.6 0v-.2a1.8 1.8 0 00-.2 0h-.1a.5.5 0 01.3 0c.2 0-.2-.2-.3-.2.2 0 .2 0 0-.1.5 0 .4 0 .4.2h.5l.1-.1c0-.1-.2 0-.2 0H89 89l.5-.2c.2 0 .3 0 0 0s.2 0 0 0H89a.2.2 0 00-.2 0h.1a3.6 3.6 0 01-.5 0h-.5-.2.2a2.5 2.5 0 00.4 0 .6.6 0 00-.3 0l.2-.1a1.9 1.9 0 01-.3 0 1.4 1.4 0 00-.3 0h.1c-.1 0 0 0 0 0h-.2l.2-.1a.4.4 0 01.2 0l.2-.1c-.2 0-.2 0 0 0h-.3l-.3.2.2-.1c-.1 0-.3 0-.1-.1h-.2-.1a.6.6 0 00.2-.1 2.7 2.7 0 00-.2.2c0-.1 0 0 0 0l.2-.3-.2.2h-.2l.2-.2s0-.1 0 0a1.2 1.2 0 01-.2.1V18s-.1.2-.2.1a1.9 1.9 0 01.2-.2c.1 0 0-.2.2-.2s0-.1-.1-.1v.2c0-.1-.1.2-.3 0 .2 0 .2-.2.1-.2s.1 0 .1 0c0-.2-.2-.2-.3-.2 0 .2 0 0-.2.2s0 0 .1 0l-.1.2-.1-.1.2-.3c-.2 0-.3-.5-.6-.2v-.2s-.4 0-.3-.2-.1.1-.1.1.1.3.2.2v.1c0 .1.1 0 .2 0l-.1.2c-.2 0-.2-.3-.3-.2-.1 0 0-.1 0-.2l-.4-.2.3.1.1-.1c.1 0-.1 0 0-.1 0-.2-.1 0-.2 0v-.1a1.4 1.4 0 01-.3-.2c.2-.1 0-.3.1-.4l-.2-.1a.2.2 0 00-.2.1 3.2 3.2 0 010-.4l-.2-.1a.3.3 0 00.2.2h-.2l-.1.2s0-.3-.2-.2 0-.1 0-.1-.2 0 0-.1l-.2-.1s0 .3.2.3h-.5v.1c0-.2-.4-.2-.2-.3l-.2-.1s.1 0 0 .2-.1-.2-.2 0c0-.3-.4-.2-.4-.5h.2c.2-.1 0-.2.2-.3l-.2-.1c0-.1-.2.2-.3 0a.5.5 0 00.1-.3c-.1-.2-.2 0-.2-.2a.6.6 0 00.4 0l-.1.2c.2 0 .2.1 0 .2l.5.2a.3.3 0 01.1-.3c0 .2.2.1.3 0s-.2 0-.3 0l.2-.1v-.2a.4.4 0 00-.1 0v.3l-.2-.2c0-.2.2 0 .2-.1a1.6 1.6 0 00-.3 0 .2.2 0 01-.2 0c0-.1 0-.5-.3-.4 0 0 .1.1 0 .2l.2.1h-.4c.1 0 .3-.2 0-.3v.1h-.3v.3c-.3 0-.1-.3-.3-.4l.2.1c0-.2-.2 0-.2-.2s.3 0 .5 0a4.6 4.6 0 01-.7-.6l-.2.2c-.1 0 0 0 0 0h-.2c.2 0 .2-.1.2-.2-.3-.1-.7.1-1-.1v.1s-.3-.2-.3 0H80c.2 0 .2-.1.2-.3 0 .1.2 0 .2 0l-.3-.1v-.2s-.2.2 0 .3H80c.1.2 0 .3 0 .4a1 1 0 01.7.7.4.4 0 00-.3-.2l.1.1h-.3c0-.2-.2-.4-.4-.4.1-.1-.1-.4 0-.4 0-.1-.2 0-.2-.2s.1 0 .2-.1-.2-.2-.3-.2l.1.2h-.3l.2.1v.3c-.3-.2-.4.2-.5-.1h.1c.1-.3-.3-.2-.2-.6 0 0 .1.1.2 0s-.3 0-.4 0c0 .1 0 .3.3.4-.2.2-.3-.1-.4-.1 0-.2 0-.5-.2-.5.2-.1.1-.1.3-.4 0 .2 0 0 .1 0l-.1-.1c-.1-.1.1 0 .2 0a.2.2 0 010-.2l-.4-.1v.1a1.4 1.4 0 000 .3l-.2.3V12a.8.8 0 00-.4 0s.4 0 .4.4c-.2 0-.3-.2-.5-.4-.2.2-.1 0-.4.1a.2.2 0 010-.2s0 .1-.1 0l.1.2-.4-.2-.1-.3v-.2.2s0-.2-.2 0c-.1-.3-.3-.4-.3-.7-.1 0-.2 0-.3-.2.5 0 .8-.3 1.2-.2v-.2s.2.2.3.1a.7.7 0 00-.4-.4v.2c.1.2-.1 0-.2 0 0 0 0-.3.2-.3l.1-.2h-.1l.1-.2c.1 0 .2.3.3 0l.2.2c-.1.1-.2-.1-.2 0h.3v.3h.3v-.1s-.4-.2-.2-.3c-.2-.2-.3-.3-.5-.1v-.1l-2-2c0 .2.2.3.1.4v.2c0 .2-.2-.2-.2-.3h.1c.1 0 0 0 0 0-.2-.3-.1-.7-.4-.7 0 .1.1.2 0 .4-.2-.1-.1-.5 0-.4v-.3c-.1 0-.2.2-.3 0 .2-.7-.4-1.3-.8-2 0 0 .3.1.2 0a.5.5 0 01.3.5c.4.2.6.7.9 1 .2-.1-.2 0-.1-.3 0 .2.4.2.2.4 0 0 .2 0 .2.2-.2.3.4.6.5 1l-.1-.4s.2.2.3 0-.1-.1-.2-.2l-.3-.5c.1-.3-.3-.3 0-.5.2 0 .1.3.3.3a.2.2 0 010-.1 1.6 1.6 0 01-.4-.6s.1.1.2 0a5.3 5.3 0 001 1.3c-.1-.4-.4-.5-.5-.7l.5.1h-.2a.1.1 0 000 .2c.2-.1 0 .1.2.3s.1-.2.2 0v-.2l-.2-.3c.1-.2-.4-.4-.6-.7l.1.1c0-.4-.6-.7-.6-1.1h.3l-.2.1c.2 0 .1.2.1.3l1.2 1.3a3 3 0 00-.3-.5.3.3 0 01.3.3h.1l-.1-.2h.3c0-.1-.1-.2 0-.4a.1.1 0 00-.2 0v.3l-.2-.2c0-.1.3-.3 0-.4h.3a.5.5 0 01.2.4c.3 0 .3.3.6.5l-.1.1h.3s-.1.2 0 .2h.1v-.4.4c0 .2.1.2 0 .4.3 0 .3.4.7.3l-.1-.3h.1c.1 0 0 0 0 .1l.2.1c0-.1 0 0 .2 0h-.2l.2.3a.2.2 0 00.2-.3v.3s.2-.1.1 0h-.2c-.2 0 .2.2.3.2s0 .3.1.2c-.1.3 0-.2-.3-.1 0 .1.2.5.4.3-.1 0 0-.2.2-.2l-.2.1.2.1c.2 0 0-.2.1-.2l-.1-.1c-.1-.1.1 0 .2 0 0 0 0-.3-.2-.3l-.1.3a.2.2 0 00-.1 0l.2-.2c.2-.2-.2 0-.1-.2.1-.1.2 0 .3.1a1.4 1.4 0 00-.3-.5c-.2.1 0 .2-.1.3a.2.2 0 010-.3l-.1-.1s-.2.2-.3.1l.2-.1-.2-.4c.2-.2.2 0 .4.1l.1.4c0 .2.1-.2 0-.2l.8.7c0-.3-.4-.5-.7-.8.2 0 0-.2 0-.3-.2.2 0 .2-.1.3-.2 0-.3-.5-.6-.5h.3v-.1H80c.2-.4-.2-.6 0-.7a.2.2 0 01-.2-.2 2 2 0 000 .5s.2-.1.2 0v.3c0-.1-.3-.2-.3-.5v.1c0-.3 0-.6-.4-.7 0 0 .2.1.1.3v-.1l.2.4s-.3-.3-.3-.5c0 0-.2 0-.2-.2h.2c.2 0-.2-.1 0-.1l-.2-.1v-.3c.2 0 .4.5.6.4a.7.7 0 010 .2c.2-.1.3.2.3.4a2.3 2.3 0 011 .9h-.2V6a.2.2 0 01.1-.1c0 .2.2.3 0 .5h.3c.1-.2-.3-.1 0-.4l.2.3a.3.3 0 00-.1.2c-.1 0-.2-.2-.3 0 .2.2.4.2.6.5 0-.1.1-.2.3-.2s-.2 0 0 .2a2.2 2.2 0 00.2-.2s0 .3-.2.4 0-.2-.1-.2c.2.5.7.6 1 1 .2 0 0-.2.2-.3V8h.3s.1.3.2 0l.1.5-.3-.1a.8.8 0 00.6.5c.1-.2-.1-.2-.2-.4.2 0 0-.2.1-.3.2.6 1 .7 1.3 1.1-.1-.1 0 .3.1.2a.4.4 0 01-.3 0s.2.1 0 .2h.2s0 .2.2.2c0 .1-.1.1 0 .2a.3.3 0 01.2.3s0-.2 0-.2.1.2.3.2c0 0-.1.1 0 .2l-.2.1a.3.3 0 00.3.1l-.1-.2h.2c.1 0 0 0 0-.2 0 0-.2 0-.1-.1a.3.3 0 00-.2 0s.1 0 0-.2 0 0-.2-.2h.2c.1.4.4.3.7.5.1 0-.1 0 0-.2s.2 0 .4.1l.1-.2c.2 0 0 .3.2.1 0 .1 0 .2.2.2-.2 0-.1 0 0 .2l-.4-.1a2.9 2.9 0 00.1.5h.3l.4.4c.2.1 0 0 0 0l.1-.2c.1-.1 0 0 0 .2s.1 0 .2 0l-.1-.1h.2a6 6 0 001 .6c0-.1.3 0 .2-.2a.4.4 0 01.4.1.1.1 0 000-.1c-.3 0-.2-.4-.5-.5l.5.2c0 .2 0 .3.2.4l-.1.3c.2 0 .1.2.4.1 0 .2-.3 0-.4 0 .1.3.3.5.6.4a.4.4 0 00.3.3 2.5 2.5 0 01.4.4h-.2l.1.2c.2-.2.5.1.7.2s.2 0 0 0c.2.1.3.3.4.2l-.6-.5h.2l-.3-.3v.2h-.2c0-.4.4-.2.5-.2 0 .2.3.3.3.5.2 0 .3.4.6.3l.3.6.7.3c0 .1.2.3 0 .3l.3.3c.1.2 0 .2 0 .2.2.1 0 0-.1 0s-.1.1 0 .2.2 0 .2-.1c.5.2.3.8.6.9l.3.4-.1-.3h.1a.6.6 0 01.3.4v.3c.2 0-.2-.2 0-.2.2.3.4.4.3.6h.1c.2.1.2.2.1.3.2 0 .3 0 .4.3.1-.2-.4-.6-.3-.7.5.4.3.7.7 1.1l.5.3c.2 0 0-.1-.1-.3l.5.6c-.2 0-.1 0 0 .1s-.2.2-.4.2a.7.7 0 00.1-.2.3.3 0 00-.2 0l-.2.2a3 3 0 00-.3.2 2.5 2.5 0 01-.4.5c.4-.1.5-.4.7-.6l.4-.1c.1-.1-.3.3-.1.3a.7.7 0 01-.5.1c-.3.3-1 .6-.5.8v-.2h.3c.1 0 .1.1 0 .2H96c-.2.2 0 .3-.3.5-.2-.1-.4.2-.7.2l.1.2.2-.1c0-.1 0 .2.2.2l.8-.5-.1.2h.2l-.2.1.1.2c-.4.1-.5.6-1 .9a.7.7 0 00-.5-.2c0-.1.4-.2.1-.3-.2 0-.6.4-.9.4l.1-.2a.8.8 0 00-.4 0c.2.1-.2 0-.3.3s.3 0 .4 0c-.4.6-1 .7-1.5 1.1a.1.1 0 000-.1c-.1 0-.2.2 0 .2a6 6 0 00-1.5 1l.3-.2c0 .3.2.2.4 0a3.1 3.1 0 01-.2.3l-.3.2-.4.4a2.9 2.9 0 00-.8.8c.1.1 0 0 .2 0a.1.1 0 000-.2c.2 0 .4-.3.5 0a5.3 5.3 0 00-1 .8l.2.1c-.2 0-.1 0 0 .2-.1-.1-.3 0-.4-.2l-.2.2h.3s-.4.1-.3.3l-.2.1v-.2c0 .2-.4.3-.5 0-.1 0 0 .2 0 .2l-.2-.2a.4.4 0 01-.3.4c.1 0 .3-.3.4-.2l-.2.2c-.1.2.2-.1.2-.1l.2.1c0 .1 0 0-.1 0l-.4.2.1.2c0 .2 0-.2.2-.1s-.1.1-.1.2c-.2 0-.7 0-.5.4-.2.1-.3 0-.4 0l.1.2c-.3 0-.6.5-.9.5s0 .1.2.1-.3.2-.3.3l-.2-.2c-.4 0-.2.4-.5.4v.2c0 .1-.2.3-.2.1l.2-.2-.6.3v.2c0 .1 0 0-.1 0v.2a8 8 0 00-.7.7c-.4.2-.5.6-.9.9 0-.1 0 0-.1 0l.1-.3c-.2 0-.2.2-.5.3l.3-.1c.2.2 0 .4-.1.6-.2 0-.3-.2-.3-.4-.2.2-.5.4-.5.7-.2 0-.3.2-.4.1-.2.4-1 .6-.6 1H81c.2 0 0 .3.2.2 0 .1 0 .2-.2.3.1-.2 0 0-.1-.1s0 .1-.1.2c-.1-.2 0-.3 0-.4-.1-.2-.3 0-.5 0l.7-.5a2.2 2.2 0 00-.6 0h.1-.3V34l.2-.3c.2.1 0 .2 0 .3s.6.2.6-.1m-.2-1.6a1.9 1.9 0 01.4-.3l-.1-.2c-.1.2-.3.3-.3.5m11.4-18.8c-.3.2.3.3-.1.3a1.3 1.3 0 01.8.6 2.5 2.5 0 00.7.7 4.3 4.3 0 00-1.4-1.6m-8.5 18.3c-.1-.1-.3.1-.2.2l.2-.2m-.5.4s-.2.1-.1.3c0 0 .2-.2.1-.3m.6-.8c0 .2-.4.1-.2.3.1 0 .4-.3.2-.3m2.4-2.5s-.2 0-.2.2H86l.2-.4a2 2 0 00-.8.5h.3a.2.2 0 000 .1 1.1 1.1 0 01.7-.1c.1 0 0 .1 0 .2h.2a4 4 0 01-.3-.5m.1-.4l.2.2a.3.3 0 01-.2.1.4.4 0 00.5 0 .5.5 0 01-.3 0c0-.1 0-.3-.2-.2m1.4-.8v.1l.2-.1c-.2-.2-.5.1-.7 0 0 0 .2 0 .2.2.1-.1.2-.1.2 0a.2.2 0 01.2 0l-.1-.2m-1 .7s-.1.2 0 .2c0 0 .2-.1 0-.2m2-2l-.1.1v.3l.4-.4c-.2-.1-.3.2-.4 0m0 .2c-.1.1 0 .2-.2.1 0 0 0 .2 0 0a.2.2 0 000 .2h.2c.2 0 .4 0 .3-.3-.1.1 0 .2-.2.2l-.1-.2m-3.2 2.6h.3a.2.2 0 00-.3 0m3.8-3v.2l.5-.3c-.2-.2-.3.2-.5 0M87 28c.2.2.2 0 .3 0H87m.4-.4c.2.2.4-.1.6-.2a1.2 1.2 0 00-.6.2m1.8-1.4c0-.1.1-.1.2 0l1-1c-.4 0-.5.4-.8.5 0 0 .1 0 0 0h-.2v.3l-.2.1m1.7-1.3c-.1 0-.2 0-.1.2s.2-.2 0-.2m-5 3.6s.1 0 0 .2h.3l-.2-.2m-.5.3h.3s0 .1.1 0 0-.1 0-.2h-.3H85.4m5.8-4.2c-.2.2-.5.3-.5.5.2-.2.4-.2.5-.5m3.5-2.9c-.2.2-.6.3-.3.5l.6-.4-.3-.1m2.3-2.8l-.2-.2c0 .1-.2 0-.2 0a3 3 0 01.4.4c.2 0-.1-.3.4 0l-.1-.3H97M94.9 21a.4.4 0 01-.2.2c.2 0 0 .1.1.2a.6.6 0 00.3-.2c-.2 0 0-.2-.2-.2m-9.2 7.2h-.1c0 .2.1.2.2.1a.3.3 0 00-.1-.1M80.5 5.4l.1.3.1-.2-.2-.1m8.7 6c.2 0 0 .2.2.2a.2.2 0 01.2-.1c-.1-.1-.1.1-.2 0v-.2l-.2.1m-8-5c0-.1 0-.2-.2-.3a.4.4 0 00.2.3m.6.5c0-.2-.4-.3-.5-.5 0 .2.4.4.5.5m6.3 4.1l.2.2c.2 0 0-.3-.2-.2m-6-3.7c.2-.1 0-.2 0-.2a.3.3 0 00-.1.3c0-.2.1 0 .1 0l.2-.1a.1.1 0 00-.1 0m1.6 1.4c.2 0 .3.2.5.3s.3-.4.1-.3-.4-.3-.5-.3v.3m-3.6 22.8v-.2c0-.1-.4.1-.3.3l.3-.1m1-24.6h.3l-.2-.1c-.2 0-.1 0 0 .1M83 8.1a.4.4 0 01.2-.1l-.3-.2.1.3m1.2 1.1c.2 0 0-.2 0 0m-3-2v.1c0 .1 0 0 .1 0V7v.2m0 1s.3.1.2 0c0 0-.3-.2-.2-.3l.3.1s-.2 0-.1-.2c-.2-.1.2-.4 0-.6a1.3 1.3 0 01-.4.3.3.3 0 000-.3l-.4-.2c-.2.2.2.2 0 .3.1 0 .3 0 .2.2l-.2-.2v.3l.6.7m2.3 1V9h.3l-.3-.2s0 .3-.2.2-.1 0-.1-.2-.2.3-.3.3c0-.2 0-.3-.2-.2h.1V9l.4.2.1-.2c0 .2.1 0 .2.1-.2.2 0 .1 0 .3M82 8.2s.1 0 0 .2a.2.2 0 00-.2.1c.2 0 .2.4.3.4h.3s.2.4.5.4c0 0 .1 0 0-.1-.2-.1-.4-.5-.7-.4.1-.1 0-.2-.1-.2a.3.3 0 00.1-.2s-.1-.3-.2-.2m.3.5c.2-.2.2.2.4 0-.2-.2-.5-.5-.2-.6-.2 0-.1-.1-.3-.2s0 .1-.1 0 0 0 .1 0c-.3-.1-.4-.5-.7-.4.2.2.6.2.5.5.3 0 .3.4.3.6m3 1.6s.1.1.2 0 .2-.1 0-.2a1.1 1.1 0 00-.2.2m-1 .3c.1.1.3 0 .4.2a.3.3 0 01.1-.2l-.5-.2V10c0 .2-.2 0-.3.2s.2 0 .1 0H84a.7.7 0 00-.2-.3h.2v.2c.2-.3 0-.3.2-.7l-.4-.2v.7a.8.8 0 00-.3-.2c0 .2.1.3-.1.4.2 0 .2.1.4 0a.1.1 0 010 .2c-.1 0-.2-.1-.2 0l.1.2c.1 0 0 0 0 0s0 .2 0 .2v-.4c0-.2.1 0 .2 0v.7s.1.1.2 0l.1-.3c.1-.1-.2 0-.2-.1l.2-.3c0 .2.2 0 0 .2m4.3 1.8l-.2-.2s.1.3.2.2m-3.1-1.8v-.1l-.1-.1a1.5 1.5 0 01-.3.6h.4v.2c.1-.3.3.2.4 0-.1 0-.2 0-.2-.2s0-.1.1-.1l.1-.3c-.2 0-.2-.2-.4 0m-1-.3h.1c.1-.1.2 0 .3.1.1 0-.2 0-.1-.2s.2.1.2 0l-.3-.2c0-.2 0-.2-.3-.3v.4l.1-.1a.3.3 0 010 .3m4.5 2.4c-.1 0 0-.2-.2 0s.2.3.1.2 0-.1 0-.2h.1m-7-4.5l-.2-.2c0 .2.1.3.2.2m4.6 3.2s0-.2-.2-.3c-.1.2.1.3.2.3m1.8 1.3c.2 0 0-.3 0-.2v.2m-8.7-6h-.1c-.2 0-.1.1-.1.2.1 0 .1.2.3.1l-.1-.3v.1s-.2 0 0 0m-1.7-1.3s-.1-.2-.2-.1c.1 0 .1.2.2.1m-.4 0h-.2a.3.3 0 00.2.2s0-.2.2-.2l-.2-.1v.1m.5.4c0-.2-.1-.2-.2-.3l.2.3m5.4 4a.2.2 0 00-.3-.3l.3.2m2.7 1.7s.2.2.2 0l-.2-.1zm-7.2-4.3a.4.4 0 00.4-.1 1.1 1.1 0 000-.2c-.2 0 0 .2-.2.2s0-.3-.1-.2V7m2.8 1.7c0-.1 0-.2-.2-.3 0 .2.1.1.2.3m-3.7-2c-.1-.2-.3-.2-.2-.3v-.3h.2l-.2-.4v.3s-.3-.1-.2 0l.2.4a.3.3 0 00-.2 0v.4c.1-.1 0-.3.2-.3-.1.2 0 .2.2.2m0-.5h.2c.2 0 0 0 0 0s0-.2-.2 0M81.6 9l.4.6.3.1c0-.3-.4-.3-.4-.7 0 .3-.1 0-.3 0m-3.2-2.6l-.1.1c.2.2.1 0 .3 0s-.1 0-.2-.1m2.9 2.2l-.1-.2c-.1.1 0 .2.1.2m-1.8-1.1c0-.1-.2 0-.3-.2v.3c.1 0 0 0 0-.2.1.2.2.3.4.3 0-.2 0 0 .2-.2h-.1-.2M81 8.9v-.1s-.3.2-.4 0c.2 0-.1-.1-.1-.2s.1 0-.1 0a.3.3 0 01.3-.3.3.3 0 01-.2-.2c0 .2-.1.1-.2.3s0 0 0 .2-.2 0-.2 0c0-.1.2-.2 0-.3s0 .1 0 .1A.4.4 0 0180 8s-.1-.2-.2-.1l-.2-.2c-.2-.2 0 .1 0 .2l-.2-.2c-.2.3.2.8.4.5-.1 0-.2-.1-.1-.2l.2.1c-.1.2 0 .4-.2.4.1 0 0 0 0-.1-.2.2.1.1 0 .3h-.1c-.1 0 0 0 0 .2l.2-.1a.1.1 0 000 .1c.2 0 0-.1.1-.3h.5l.1.2V9c.1.2.2.2.5.2l-.3.2c.2 0 0 .3.2.2 0-.1 0 0 0 0 .2 0 0-.1 0-.2h.3l-.2.2c.2 0 .3.2.4.1l-.1-.1.1-.1c0-.2-.1-.1-.2 0a.1.1 0 010-.2s.3 0 .2-.1h-.1c-.1 0-.2.1-.2 0V9c0-.1-.1 0-.2 0l.2-.1m-.5-.2h.2v-.2a.2.2 0 010 .1v.1h.3c.1-.3-.5-.4-.5 0m3.4 2.4l.2.1.1-.1c-.2-.1-.1-.2 0-.2 0 0-.1-.1 0-.2h-.2c.2.2 0 .4-.1.4m-7-5.4l.2.1c.2-.1-.1-.3-.2-.1m5.3 3.9v-.2s-.1.1 0 .2m2.8 2c0-.2-.3-.2-.2-.4 0 0 .1 0 0-.1s-.1.2-.2.1l-.2-.3-.2.1s.3.1.2.2.3.3.3 0c0 .2.1.2.3.4m-5-3.3h.3c.1 0-.1-.2-.2 0m2.7 2c.2.2.2 0 .4.1l-.1.1h.3a.5.5 0 00-.6-.2m-.3.1l.2.1h.1c.1 0 0 0 0 0l-.1-.3V10h-.2v.2l-.1-.1c-.1-.1 0 .1-.1 0 0 .4.2 0 .2.4m-5.3-4v-.3c-.2.2 0 .2 0 .3M82 9.7c-.2.2-.3.2-.3.4a.1.1 0 00.2 0l.2-.2.1.1a.3.3 0 01-.1.1c.1.1-.1.4.1.2-.1 0 .1-.2 0-.2h.2c-.2-.1-.2-.4-.4-.4m-3-1.6c0-.2.2-.2.3-.2-.2-.2-.3 0-.3.2m4.8 2.7c-.1 0 0-.2-.2-.1 0 0 0 .2.2.1M87 13c0-.2-.3 0-.2-.2 0-.1-.2 0-.2 0 .2 0 .1.3.4.2m-6.6-4.2s-.1 0 0 0a.1.1 0 01.1.1s.1-.1 0-.2 0 .1-.1.1m4.3 2.8v.1a.2.2 0 00.2 0l-.1-.1m-5.4-3.3l-.1-.3v.3m1.2 1a.2.2 0 00.3 0s-.2-.2-.3 0m4.6 3.3s-.1-.2 0-.3a.4.4 0 00-.3-.2l.3.4M76 6l.5.5s.3.2.4.1c-.2-.1-.4-.6-.6-.4 0-.1 0-.4-.2-.4.1.2 0 0-.1.2m8.4 6a.7.7 0 00-.2-.2l.2.2m-7.2-5l-.1-.2.1.2m6.5 4.6l.2.2.1-.1h-.3M77.1 7c.1 0 .1.3.3.2l-.1-.3H77m.3.4l.6.6c0-.2-.3-.5-.5-.6.1.1-.1-.1-.1 0m3.8 2.7l.2.3s0-.1 0 0c.1-.2 0-.3-.2-.3m.7.6c.2 0 .2.3.4.2 0 0-.2-.1-.1-.2a.2.2 0 00-.3 0m1.3 1a.3.3 0 010-.1v-.2c-.2 0 0 .1 0 .2M78 8a3 3 0 00.5.4.4.4 0 00-.5-.4m.9.8s0 .1.2 0c-.1 0-.1 0 0-.1H79m4.8 3.3c-.2 0-.2-.2-.1-.3-.2 0-.3.3-.4.5 0-.2 0 0-.1 0H83a.6.6 0 01.2 0l.2.3a.1.1 0 010-.2h.2c-.2 0 0 .3.2.1s-.1-.2-.2-.2l.1-.2m-7.2-5.3l-.1-.2c-.1 0 0 .3 0 .2m8 5.8c.2 0 .3.2.4 0h-.3m-4-2.7c-.2 0 0 .1 0 .2v.2l.2-.1c-.1-.2 0-.3-.3-.3M82 12c0-.1-.2.2-.2 0 .2 0 .2-.3.4-.4 0-.1 0 0 0 0h-.3l.2-.2a.4.4 0 000 .2c0-.2.3-.2.2 0 0-.2.2-.1.1-.2a.4.4 0 00.3 0c-.2 0-.3 0-.5-.3 0 .1.2.2 0 .3 0-.2-.2 0-.3 0a.2.2 0 000-.1l-.2-.1s.2-.4 0-.4l-.2.1c0-.2-.3-.3-.4-.3v-.3s0-.2-.2-.1c.2.2-.1 0-.1.1v.5l-.1-.1.1.2s.3-.2.4 0-.2 0-.3 0c.1.2.4 0 .4-.1l.2.1a.1.1 0 00-.2 0c0 .2.3.1.2.3 0 0 0-.1 0 0v.2c-.1-.1 0-.3-.2-.4a5.5 5.5 0 000 .6c-.2 0-.3-.1-.4 0l.3.1c.1-.2.2.1.3 0l.2-.4v.2c-.2.2 0 .3 0 .3l-.1.2c.3.1-.1 0 0 .2h.3V12m0 .1s.2-.2 0-.3a.2.2 0 000 .3m.9-.6a.2.2 0 01-.2 0c-.1 0 0 0 0 .2h.1a.2.2 0 010-.1h.3l-.2-.1c-.1-.1 0-.1 0-.2-.1.2-.1.2 0 .2m1 .7s.2 0 .1-.1c-.1.1 0-.1 0-.1a.3.3 0 00-.1.2M76 6.7l.2.4c.1-.1 0-.4-.2-.4m4 3.4a.2.2 0 01.2.2H80a.3.3 0 010-.5.6.6 0 01-.4 0 .3.3 0 000 .5c.2 0 .2.1.4 0 0 .2.2.3.4.4 0-.1-.2-.2 0-.4l-.4-.2M88 20v.4h-.2c.2.1-.1.2 0 .5 0-.2.1-.3.3-.2 0-.3 0-.5-.2-.7m.6 0a.3.3 0 00.3 0h-.3m-9-9.6l.1.1s.2 0 .1-.1c0 0 0-.2-.1-.1m1.3 1s0 .2 0 0c0 0 0-.2-.1-.1zm-.7-.4a1.3 1.3 0 00.2.5v-.4a.7.7 0 00-.4-.2v-.1c0-.1 0-.2-.2-.1.1.1.2.4.4.3m.3.8a.6.6 0 00.2-.6.4.4 0 00-.2.6m8.8 6c.3 0 .3.2.5.2l-.1-.2h-.4m-1 2h.1c.1 0 0 0 0 0M79.6 11s0-.2-.1-.1c0 0 0 .2.2.2-.1-.2.1 0 .1-.2l-.2-.2v.3m8.8 8.4s-.2 0 0 0 .2 0 0 0m1.1-1a.3.3 0 00-.2-.1H89c.2 0 .2 0 0 0l.2.1a5 5 0 01.5 0h-.1M86.9 16l-.2-.2c-.2.2.1.2.2.2m2.4 2.6h.2-.2m0 .1s.1 0 0 0H89a2.1 2.1 0 00.4 0m-3.2-3h.1a.3.3 0 00.2 0c-.1-.2-.2 0-.3 0m1.5 3.8h-.1l.1.2h.2c.2 0 0 0 0 0l.1-.1-.3-.1m-.5-3.2v.1c.1 0 0 .1.2 0h-.2m-.9-.5l.2.1h.1a.2.2 0 00-.3 0m.3 0c0 .2.2.2.3.4.1-.2-.3-.3-.3-.3M79 11.5h.3l-.3-.2.2-.1c0-.1-.2 0-.2 0a.4.4 0 010 .3m1.5.8V12a.3.3 0 000 .3m5.3 3.4s-.2 0-.2.1l.5.1a.2.2 0 00-.2.2h.2V16c.2.1.5.2.1.3a.8.8 0 00.7 0 4 4 0 00-1-.7m-6.6-3.8c0-.2 0-.2.2-.2 0-.2-.2-.1-.3 0l.1.2m4.3 10.5c-.1-.1-.2 0-.4.1l.1.2.3-.3m1.8-6.7s0-.1-.2 0 .3.1.4.1v-.1l-.3-.2c0 .1.2.1 0 .3m2 1.7h.1c.1 0 .2-.2 0-.1v.1M79 11.6l-.1-.2v.2m4.4 2.8a.1.1 0 01.1.2h.2l-.3-.2m.3.4h.3l-.2-.2-.1.1m-6.5-4.1c.1 0 0 .3.3.2-.1 0-.2-.4-.3-.2m2.7 13.7l-1 .6h.5c-.1-.4.7-.2.5-.6m-3-19.5h-.2a.6.6 0 00-.2-.3h.1c0-.1.2 0 .2-.2h.2V4l.3.2c0 .1-.3 0 0 .2h-.3c-.1 0 0 .2 0 .1 0 .1-.2.2 0 .3m10.6 12.8h-.3a.7.7 0 00-.2 0h.5M78.7.9c.2 0 .1.2.3.3 0 0-.1 0 0 0l-.2-.3m8.7 28c.1.1.3-.1.4-.1 0 .2-.3.2-.4.4v-.3c.1 0 0-.2.2-.2s-.2.1-.2.2m-7-26h-.2v-.2s.3.1.2.3V3M86.3 8c0-.1.3 0 .3.2.1-.2.3 0 .4-.2 0 .2.2.3 0 .6-.4 0-.4-.5-.7-.6m7.5 5.2a.7.7 0 01-.3-.1l.5.5c.2.2.3.3.2.5 0-.2-.2-.4-.3-.4v.2c0 .2-.2 0 0 .2-.3 0 0-.2-.4-.3.2 0-.1-.4-.3-.4a.1.1 0 01.1-.2c0 .2 0 .1.2.1 0 0-.2-.2 0-.3s.2 0 .3.2m-.5-.3h-.1c-.2 0 .2.2 0 .3-.3-.2-.2-.4-.5-.5 0-.2.4.1.5.2m-7.4-5a1.3 1.3 0 00.2.3 1 1 0 01-.4-.3c.2 0 .2 0 .3-.2a.6.6 0 01.1.4s0-.3-.2-.2m5.7 3.7c-.3.1-.1-.1-.3-.2 0 0 .2 0 .3.2m2.7 11a1.2 1.2 0 01-.7.4c0-.1 0-.2.3-.4.3 0 .2.1.4 0m-1.2.7s-.3.2-.4 0a2.1 2.1 0 01.4 0h.2l-.2.1v-.1M80.7 4.8l-.3-.1c.1-.2-.1-.5-.2-.6.2 0 .4.4.5.2 0 .2 0 .5.2.6-.1.1-.2 0-.1-.1m.4.2c-.1-.1-.2 0-.2 0l-.1-.2.1-.1.2.2.1.3s-.3-.2-.1-.3m3.7 3.4c.1-.2-.2-.3-.3-.5-.2.2.3.2 0 .4h-.2l-.3-.4s-.1-.1 0-.2c-.3.2-.7-.4-.4-.5 0 .2.4.3.5.5v.3l.2-.2-.2-.2c-.2-.1.2 0 .2 0 .1-.2-.2-.1-.2-.3.3 0 .3.2.6.3v.2l.1-.2.3.4H85l.1.3-.2.2c-.1 0 0 0 0 0m0-.5s-.1 0 0-.2l-.3-.1c0 .1 0 .2.2.3m-.8-.4c-.3-.3-.1.2 0 0m-5-4.1c.1.1-.2-.1-.1 0s-.2-.1 0-.2l-.2-.1c.2 0 .3.2.4.3m2.5 2.2c-.1 0 0-.2-.2-.2v-.1c.2 0 .3.1.2.3m3.9 2.7c-.1.2-.2 0-.3 0s.3-.1.3 0m-6.7-4.8a.4.4 0 00.2.4c-.2 0-.3-.3-.2-.4m9.2 6.8a3.8 3.8 0 01.6.4l-.2.1c-.1-.1-.4-.3-.6 0l.1-.2c0-.2-.6-.4-.4-.3l.6.2-.2-.1.1-.1m-9.7-6.7h.3a.2.2 0 000 .2h-.1c-.1 0 0-.2-.2-.3m.9 1l.1.1-.2.3c0-.2.2-.2 0-.4m.3 1.2a.3.3 0 00.1-.2l.2.1s-.3 0-.2.2l-.1-.1M75.7 3l.1.3-.1-.3m.1.4c.1 0 0 .1 0 .1s.1-.1 0-.1c.3-.2.1.1.3.1-.2.1-.3 0-.4.2-.1 0 0-.2 0-.2s.2.1 0 0m-.3.6l.1-.2v.2h-.1m.7.8l.3.2-.2.1L76 5c0-.1.1 0 .1 0m5.7 7.6c0 .1-.2.2 0 .2v.3c-.2-.1 0 .1.2.3a1.8 1.8 0 01-.3 0v.2c0 .2 0 0-.1 0 0 0-.3 0-.1-.1 0-.1-.1 0-.2 0l.2-.1s.2-.2 0-.3l.2-.1c0-.1 0 0 0 0s-.1-.3 0-.4m.3 1.8l-.2.1c-.2 0 .2-.2.1-.3h.3s-.3 0-.2-.3a.3.3 0 00.2.1v-.3a.3.3 0 01.3 0c0 .3.1.7-.3.7 0 .2.3 0 .4.1-.3.2-.4 0-.6-.1m6.5 4.2a1.4 1.4 0 01.2 0H88.1s-.3 0-.2-.1.2 0 .4 0h.1m-.7.4l-.2-.1-.2-.1.4.2m0-.1l-.2-.1h.2M80.8 13l-.2-.1h.2a.3.3 0 010 .4c-.1 0 0-.2 0-.2m-3.3 13.4l.2-.5-.2.5m1.6-14c.1 0 0 0 0-.2.2.2.3-.2.4 0a.6.6 0 00-.1.5.5.5 0 00-.3-.2m7 4l.2.2a.2.2 0 11-.3-.2s0 .3.2 0m-5-2.7v-.3c0-.1 0 0 .1 0 .2 0 .2.2.1.3h-.3.2m2.4 2c0 .2-.2 0-.2 0s0-.2 0 0c0-.3.2 0 .2 0m-1-.4a.2.2 0 00.2.1.2.2 0 01-.1 0l-.5-.1c.2-.2.3.2.5 0m8.4 9.8c0 .1-.3.3-.5.2.2-.1.1-.2.4-.3 0 .1 0 0 .1 0M83.7 5.9c.7.4 1.2 1 1.7 1.2l.1.3c.1.1 0 0 .2 0l.1.3-.2.2c-.2 0-.2-.3 0-.3s0-.1-.1-.1l-.3.1c-.1.1-.3-.1-.5-.2.1-.1.2 0 .2-.2-.3 0-.4-.2-.8-.1a.7.7 0 000-.5c.4-.1-.3-.3-.1-.4-.2 0-.4-.1-.3-.3m-2.5 6.6l.3.2c-.2.1-.5 0-.7.3-.2 0 0-.2-.2-.2.3-.3.5 0 .6-.3"/>
</svg>
