<svg width="133" height="29" fill="none" xmlns="http://www.w3.org/2000/svg"><g clip-path="url(#clip0)" fill="#9B9FA6"><path d="M41.048 24.388c-2.324 0-4.162-.68-5.465-2.025-1.3-1.34-1.959-3.274-1.959-5.746 0-2.398.692-4.29 2.057-5.62 1.366-1.332 3.185-2.007 5.406-2.007 1.773 0 3.296.375 4.524 1.117l.132.08-.964 2.805-.206-.105c-1.196-.602-2.318-.909-3.338-.909-1.149 0-2.027.383-2.684 1.173-.66.79-.993 1.97-.993 3.506 0 1.555.33 2.748.98 3.548.649.796 1.544 1.183 2.739 1.183 1.258 0 2.484-.365 3.648-1.082l.265-.163.394 3.024-.102.067a6.934 6.934 0 01-1.996.89c-.682.173-1.502.264-2.438.264zM60.763 24.112h-3.946V15.19c0-1.134-.184-1.968-.549-2.484-.352-.5-.947-.742-1.815-.742-.75 0-1.426.186-2.006.553a3.569 3.569 0 00-1.304 1.404c-.209.782-.313 1.815-.313 3.075v7.116h-3.946V4.052l3.946-.248v4.354c0 .202-.014.766-.04 1.675-.01.364-.018.659-.026.878 1.176-1.144 2.707-1.725 4.557-1.725 1.71 0 3.06.486 4.013 1.441.95.953 1.431 2.428 1.431 4.38v9.305h-.002zM69.836 24.388c-2.438 0-4.367-.69-5.734-2.055-1.364-1.362-2.054-3.262-2.054-5.652 0-2.325.65-4.205 1.933-5.587 1.29-1.388 3.067-2.097 5.284-2.105 2.1 0 3.759.646 4.927 1.924 1.162 1.27 1.75 2.974 1.75 5.063 0 .15-.002.391-.007.723-.004.33-.006.575-.006.732v.191h-9.9c.065 1.195.43 2.136 1.083 2.799.684.695 1.646 1.046 2.858 1.046 1.585 0 3.129-.405 4.59-1.205l.239-.131.582 2.825-.117.07c-1.513.903-3.34 1.362-5.428 1.362zm-3.727-9.313h6.089c-.03-1.025-.29-1.825-.776-2.381-.518-.589-1.216-.875-2.14-.875-.866 0-1.575.282-2.17.86-.557.54-.892 1.347-1.003 2.396zM82.278 24.374c-2.219 0-4.027-.375-5.37-1.112l-.118-.065.424-2.982.252.133c.58.307 1.333.585 2.236.828.9.242 1.73.367 2.468.367.742 0 1.322-.133 1.727-.393.384-.248.576-.606.582-1.094 0-.433-.175-.768-.534-1.02-.394-.275-1.17-.628-2.307-1.05a51.83 51.83 0 01-.774-.275c-1.395-.524-2.42-1.118-3.043-1.77-.638-.666-.962-1.575-.962-2.701 0-1.368.522-2.432 1.552-3.165 1.012-.72 2.43-1.085 4.218-1.085 1.919 0 3.631.355 5.09 1.054l.158.077-1.014 2.728-.196-.089c-1.385-.622-2.722-.939-3.97-.939-.673 0-1.203.107-1.572.32-.34.196-.507.488-.507.89 0 .38.163.668.494.88.374.24 1.127.56 2.236.955.01.002.08.022.35.117.203.07.36.129.47.173 1.381.486 2.418 1.082 3.079 1.769.674.701 1.016 1.624 1.016 2.742-.01 1.495-.545 2.668-1.592 3.488-1.032.808-2.511 1.219-4.393 1.219zM94.519 24.374c-2.22 0-4.028-.375-5.371-1.112l-.117-.065.423-2.982.253.133c.58.307 1.332.585 2.236.828.899.242 1.729.367 2.467.367.743 0 1.323-.133 1.727-.393.384-.248.576-.606.582-1.094 0-.433-.175-.768-.534-1.02-.394-.275-1.17-.628-2.307-1.05-.396-.138-.655-.23-.774-.275-1.395-.524-2.42-1.118-3.043-1.77-.638-.666-.961-1.575-.961-2.701 0-1.368.521-2.432 1.552-3.165 1.011-.72 2.43-1.085 4.217-1.085 1.919 0 3.632.355 5.09 1.054l.158.077-1.014 2.728-.196-.089c-1.385-.622-2.722-.939-3.97-.939-.673 0-1.203.107-1.572.32-.34.196-.507.488-.507.89 0 .38.163.668.495.88.373.24 1.126.56 2.236.955.01.002.079.022.35.117.202.07.359.129.47.173 1.38.486 2.417 1.082 3.078 1.769.674.701 1.016 1.624 1.016 2.742-.011 1.495-.544 2.668-1.592 3.488-1.032.808-2.51 1.219-4.392 1.219zM112.976 24.142h-10.75l-.082-2.79 5.663-6.192c.682-.705 1.183-1.358 1.494-1.944a3.89 3.89 0 00.457-1.828c0-.69-.226-1.225-.687-1.632-.461-.405-1.08-.612-1.841-.612-.724 0-1.448.13-2.153.39-.705.26-1.289.589-1.738.978l-.214.187-1.06-2.704.102-.088c1.243-1.058 3.008-1.594 5.246-1.594 1.783 0 3.244.441 4.339 1.313 1.105.88 1.666 2.138 1.666 3.736 0 1.122-.313 2.206-.93 3.224-.607 1-1.446 2.04-2.495 3.093l-3.683 3.774h6.92l-.254 2.69zM125.808 24.142H122.2v-3.806h-8.012v-2.33l7.275-11.32h4.345v10.948h2.195l-.184 2.702h-2.011v3.806zm-7.924-6.496h4.316v-7.068l-4.316 7.068zM130.937 10.681c-1.136 0-2.062-.893-2.062-1.993s.924-1.992 2.062-1.992c1.137 0 2.063.892 2.063 1.992 0 1.108-.934 1.993-2.063 1.993zm-1.889-1.993c0 1.008.846 1.826 1.889 1.826 1.043 0 1.89-.818 1.89-1.826 0-1.007-.847-1.825-1.89-1.825-1.051.002-1.889.828-1.889 1.825zm1.07-1.078c.173-.026.438-.05.742-.05.361 0 .603.058.774.185a.55.55 0 01.225.466c0 .318-.221.491-.442.562v.008c.182.054.273.193.33.39.064.218.165.537.221.63h-.565c-.053-.067-.092-.172-.182-.512-.077-.299-.177-.345-.413-.345h-.156V9.8h-.534V7.61zm.534.95h.221c.281 0 .452-.122.452-.311 0-.197-.156-.298-.408-.298-.149 0-.23.008-.265.016v.592zM29.626 3.663C29.394 1.946 28.372.977 26.585.606 22.584-.226 7.29-.157 3.435.54 1.643.864.629 1.88.398 3.596c-.542 4.034-.513 18.388 0 21.862.29 1.96 1.278 2.77 3.041 3.056 3.72.605 19.046.671 23.149.067 1.764-.26 2.751-1.096 3.04-3.057.512-3.474.543-17.83-.001-21.861zm-5.528 7.9a.39.39 0 01-.392.385h-5.494a.295.295 0 01-.06-.006v5.315a.39.39 0 01-.393.385h-5.494a.295.295 0 01-.06-.006v5.315a.39.39 0 01-.392.385H6.319a.39.39 0 01-.393-.385v-5.394a.39.39 0 01.393-.384h5.494c.02 0 .041.002.06.006v-5.316a.39.39 0 01.392-.384h5.494c.021 0 .042.002.06.006V6.169a.39.39 0 01.393-.385h5.494a.39.39 0 01.392.385v5.394z"/></g><defs><clipPath id="clip0"><path fill="#fff" d="M0 0h133v29H0z"/></clipPath></defs></svg>