<svg fill="none" xmlns="http://www.w3.org/2000/svg" viewBox="0 0 250 110">
  <g filter="url(#filter0_d)">
    <path d="M233.114 8.603c-3.1-3.156-7.363-4.717-12.005-4.39-.332.024-.662.05-.994.076-.554.043-1.106.09-1.66.136-.501.042-.999.084-1.5.123-.787.062-1.409.103-1.962.128-.194.01-.381.022-.566.036-7.813.615-13.652 6.593-14.201 14.536-.046.649-.092 1.3-.14 1.954-.335.03-.669.056-1.004.082l-.292.023c-1.184.094-2.879.227-4.762.789a29.13 29.13 0 00-8.313-.532c-1.406.11-2.823.328-4.224.64-3.22-6.223-9.005-10.583-16.512-12.172-3.086-.652-6.165-.878-9.153-.667-2.482.173-5.113.372-8.282.622-2.333.183-4.665.373-6.998.562l-1.85.148c-8.053.65-13.987 6.546-14.765 14.67a74.366 74.366 0 00-.149 1.866c-.118.006-.234.012-.347.016-.217.009-.429.023-.638.04-3.892.306-7.327 1.793-10.051 4.294-2.933-2.028-6.573-2.94-10.764-2.634a533.082 533.082 0 00-6.155.485 18.9 18.9 0 00-4.05.762 16.353 16.353 0 00-3.274-.161c-.757.038-1.57.09-2.555.168l-1.312.107c-.4.034-.798.065-1.195.096-.273.022-.543.043-.817.062-.297.02-.57.04-.822.06-.874.068-2.376.186-4.124.689-.027-.006-.057-.01-.084-.015a32.624 32.624 0 00-8.289-.428 30.87 30.87 0 00-4.002.584 22.914 22.914 0 00-2.928-4.334c-2.75-3.192-7.83-7.22-16.418-8.279-3.272-.404-6.216-.256-8.415-.083-.799.063-1.54.135-2.254.202-.564.053-1.12.107-1.661.15-.413.032-.743.053-1.014.06-.213.007-.425.018-.634.034l-5.552.438c-1.152.09-2.264.178-3.375.268-8.784.708-14.66 6.618-15.332 15.43-.917 12.042-1.831 24.083-2.743 36.127l-.413 5.464c-.48 6.33 2.426 10.313 4.202 12.125 1.776 1.812 5.697 4.789 11.987 4.367A328.83 328.83 0 0028 92.76c8.155-.726 14.07-6.745 14.721-14.982l.14-1.778c.144-.027.292-.055.438-.086 1.77 3.783 4.328 6.98 7.585 9.423 4.975 3.735 11.235 5.433 18.096 4.918l.102-.008a28.35 28.35 0 008.142-1.847c1.345.212 2.77.263 4.273.153 1.082-.08 2.165-.16 3.247-.245.316-.024.635-.052.95-.08.336.877.76 1.732 1.266 2.555 2.987 4.83 8.24 7.441 14.05 6.984l.168-.014c1.28-.111 2.559-.223 3.842-.324a188.288 188.288 0 013.197-.227c5.411-.426 10.093-3.422 12.845-8.217l4.785-8.331c2.069 1.77 5.753 3.921 11.207 3.54.834-.057 1.67-.12 2.503-.185.825-.065 1.65-.133 2.474-.2.798-.066 1.596-.132 2.394-.195l.244-.019c7.786-.613 13.609-6.546 14.161-14.429.053-.76.109-1.527.169-2.3l.494-.096a28.115 28.115 0 002.234 3.831c5.185 7.456 13.619 11.303 23.135 10.553a32.44 32.44 0 007.024-1.364c.51-.157 1.012-.33 1.509-.519 1.226.2 2.576.271 4.053.171a372.75 372.75 0 003.473-.254c1.02-.08 1.96-.16 2.87-.245a17.624 17.624 0 004.761-1.107c1.41.31 2.992.453 4.768.348.418-.025.839-.055 1.257-.088.3-.024.597-.047.897-.073.145-.012.286-.026.431-.037.113-.006.225-.012.341-.021.262-.021 1.377-.106 1.671-.13.397-.03.793-.064 1.189-.101 8.701-.805 14.485-6.786 15.095-15.605.347-5.006.64-9.083.93-12.832.398-5.18.804-10.359 1.207-15.538.341-4.339.678-8.68 1.015-13.021.36-4.67-1.146-8.98-4.24-12.134z" fill="#fff"/>
    <path d="M152.126 54.005c-1.114.088-2.232.163-3.345.267-1.621.154-2.302.845-2.438 2.478-.317 3.812-.65 7.624-.916 11.44-.086 1.229-.67 1.79-1.827 1.88-2.497.195-4.994.416-7.492.59-1.565.11-2.125-.472-2.001-2.08.319-4.22.68-8.437 1.005-12.655.644-8.394 1.276-16.79 1.909-25.186.101-1.347.157-2.697.285-4.04.153-1.586.913-2.345 2.485-2.475 5.661-.456 11.324-.924 16.99-1.321 1.825-.127 3.662.03 5.46.411 4.876 1.035 7.835 4.003 8.521 9.017.649 4.754-.067 9.389-2.475 13.58-2.915 5.08-7.722 7.109-13.219 7.846-.973.132-1.96.163-2.943.24l.001.008zm-1.793-9.152c.758-.06 1.522-.07 2.27-.187 4.047-.629 5.805-2.436 6.227-6.35.341-3.17-.831-5.11-3.46-5.644-2.046-.413-4.096-.134-6.135.086-.746.08-1.113.624-1.174 1.413-.202 2.645-.455 5.284-.662 7.927-.235 3.043-.224 3.045 2.934 2.755z" fill="#019CDC"/>
    <path d="M33.048 32.643c3.363-.104 7.307-.916 11.307-.422 7 .862 10.565 4.966 10.43 12.147-.06 3.176-.575 6.285-1.9 9.209-2.269 5.002-6.3 7.672-11.459 8.876-2.765.645-5.592.677-8.397.933-2.151.197-2.739.776-2.897 2.901-.258 3.467-.522 6.931-.796 10.396-.134 1.682-.842 2.416-2.53 2.568-2.318.207-4.64.39-6.962.545-1.475.1-1.99-.448-1.88-1.899 1.051-13.862 2.1-27.722 3.156-41.584.165-2.183.797-2.785 3.02-2.963 2.763-.226 5.53-.441 8.908-.707zm1.017 21.373c.755-.06 1.519-.081 2.268-.184 4.641-.648 6.773-3.419 6.296-8.142-.243-2.4-1.56-3.72-3.952-3.984-1.653-.18-3.297.025-4.942.106-1.24.06-1.845.572-1.91 1.89-.124 2.47-.34 4.937-.569 7.402-.302 3.212-.323 3.21 2.809 2.912z" fill="#243984"/>
    <path d="M196.214 38.287c.106-.197.138-.234.148-.276.635-2.95.635-2.95 3.716-3.192 1.741-.137 3.479-.312 5.222-.387 1.407-.059 1.862.442 1.757 1.88-.551 7.455-1.125 14.913-1.689 22.367l-.318 4.176c-.132 1.704-.796 2.418-2.503 2.577-2.006.185-4.016.335-6.024.471-1.739.12-2.213-.422-2.029-2.225.032-.307.008-.621.013-1.171-1.969 2.003-4.048 3.53-6.56 4.306-5.849 1.805-11.805.92-15.227-4-2.389-3.436-2.927-7.322-2.483-11.37.852-7.767 6.175-13.995 13.683-15.877 2.606-.652 5.309-.723 7.976-.05 1.681.425 3.195 1.139 4.318 2.77zm-8.471 20.53c4.438-.35 7.597-3.39 8.182-7.871.521-3.997-1.912-7.202-5.708-7.527-5.068-.434-9.444 3.621-9.482 8.788-.033 4.5 2.572 6.96 7.008 6.61z" fill="#019CDC"/>
    <path d="M78.299 71.64c-2.983 3.091-6.332 4.784-10.345 5.087-7.285.549-12.34-3.15-13.713-10.384-1.624-8.57 2.959-18.175 11.894-21.17 2.985-1.003 6.046-1.157 9.135-.602 1.902.34 3.544 1.204 4.752 2.783.112-.11.221-.167.227-.23.196-2.852.147-2.889 3.32-3.112 1.874-.13 3.745-.324 5.622-.42 1.299-.065 1.82.52 1.72 1.802-.679 8.86-1.361 17.717-2.06 26.575-.144 1.822-.783 2.441-2.608 2.604-1.916.17-3.835.313-5.753.456-1.905.142-2.273-.246-2.169-2.211.021-.318-.009-.631-.022-1.177zm-6.753-3.646c4.289-.332 7.436-3.218 8.15-7.471.706-4.202-1.579-7.512-5.483-7.945-5.127-.568-9.732 3.655-9.69 8.889.033 4.412 2.673 6.864 7.023 6.527zM111.853 58.951c3.102-5.511 6.118-10.78 9.029-16.105.738-1.348 1.675-1.974 3.168-2.04 2.143-.096 4.281-.321 6.425-.484.683-.052 1.342-.063 1.783.635.446.708.115 1.295-.226 1.888-7.536 13.107-15.074 26.212-22.598 39.326-.541.944-1.253 1.443-2.35 1.51-2.366.146-4.729.349-7.093.556-.669.059-1.258-.001-1.644-.624-.386-.623-.19-1.202.15-1.776 2.148-3.642 4.272-7.302 6.449-10.925.417-.695.461-1.237.135-1.993-3.314-7.687-6.584-15.395-9.87-23.096-.865-2.033-.482-2.676 1.738-2.859 2.005-.166 4.014-.327 6.021-.474 2.036-.15 2.611.233 3.343 2.14 1.676 4.374 3.357 8.744 5.038 13.114.131.33.275.659.502 1.207z" fill="#243984"/>
    <path d="M215.181 64.431c-.892.07-1.783.154-2.679.208-1.689.1-2.201-.403-2.082-2.114.172-2.472.384-4.941.572-7.411.558-7.367 1.107-14.733 1.664-22.1.322-4.266.676-8.532.97-12.799.093-1.322.674-1.923 2.006-1.985 2.145-.1 4.283-.331 6.427-.481 1.399-.1 2.008.514 1.9 1.916-.735 9.52-1.489 19.042-2.222 28.562-.332 4.31-.639 8.625-.938 12.939-.15 2.162-.793 2.86-2.939 3.06-.891.083-1.784.143-2.678.213l-.001-.008z" fill="#019CDC"/>
  </g>
  <defs>
    <filter id="filter0_d" x=".511" y=".17" width="248.895" height="109.647" filterUnits="userSpaceOnUse" color-interpolation-filters="sRGB">
      <feFlood flood-opacity="0" result="BackgroundImageFix"/>
      <feColorMatrix in="SourceAlpha" values="0 0 0 0 0 0 0 0 0 0 0 0 0 0 0 0 0 0 127 0"/>
      <feOffset dx="4" dy="4"/>
      <feGaussianBlur stdDeviation="4"/>
      <feColorMatrix values="0 0 0 0 0 0 0 0 0 0 0 0 0 0 0 0 0 0 0.25 0"/>
      <feBlend in2="BackgroundImageFix" result="effect1_dropShadow"/>
      <feBlend in="SourceGraphic" in2="effect1_dropShadow" result="shape"/>
    </filter>
  </defs>
</svg>
