<svg xmlns="http://www.w3.org/2000/svg" fill="none" viewBox="0 0 113 91"><defs/><path fill="#9B9FA6" d="M92.498 39.342c5.218-.141 10.163 4.1 10.147 10.277-.016 5.816-4.62 10.526-10.328 10.487-5.848-.04-10.295-4.743-10.292-10.408.003-5.87 4.822-10.494 10.473-10.356zm-.144 5.048c-2.876-.005-5.162 2.253-5.186 5.125-.023 2.771 2.312 5.145 5.074 5.16 2.844.016 5.164-2.325 5.168-5.213a5.051 5.051 0 00-5.056-5.072zM43.864 56.862c0-.618.018-1.237-.007-1.854-.015-.351.09-.403.408-.311 1.496.433 3.027.644 4.58.641.725 0 1.45-.08 2.132-.366.595-.25 1.067-.61 1.13-1.324.069-.75-.31-1.235-.922-1.574-.698-.386-1.472-.57-2.22-.816-1.094-.361-2.156-.79-3.065-1.52-1.938-1.554-2.575-4.12-1.611-6.563.829-2.102 2.507-3.164 4.603-3.614 2.272-.488 4.522-.15 6.76.319.275.057.304.216.302.453a143.62 143.62 0 00.003 3.417c.006.39-.132.42-.463.335-1.365-.346-2.75-.554-4.164-.451-.584.042-1.15.168-1.648.503-.775.522-.838 1.437-.14 2.066.445.4 1 .58 1.555.756 1.245.392 2.504.74 3.624 1.457 3.7 2.37 3.189 8.07-.47 10.052-1.604.869-3.322 1.2-5.123 1.2-1.585 0-3.151-.184-4.716-.416-.43-.064-.598-.224-.559-.683.047-.564.01-1.137.01-1.707zM25.652 53.678c0 1.73-.002 3.372.003 5.014 0 .19-.055.304-.245.356-3.74 1.016-7.365.968-10.638-1.407-2.89-2.098-4.057-5.063-3.968-8.595.125-4.922 3.682-8.923 8.521-9.619 2.017-.29 3.98-.085 5.932.433.298.08.408.211.403.535-.019 1.48-.008 2.961-.009 4.441 0 .544.002.534-.482.316-1.596-.72-3.243-1.083-4.983-.637-2.35.603-3.96 2.839-3.846 5.316.11 2.412 1.962 4.488 4.346 4.858 1.657.258 3.195-.165 4.679-.87.07-.032.14-.067.287-.14zM76.886 53.748c0 1.659-.003 3.315.003 4.972.001.203-.086.29-.266.337-3.963 1.06-7.752.92-11.098-1.79-2.18-1.765-3.27-4.142-3.46-6.938-.178-2.623.392-5.052 2.026-7.148 1.848-2.372 4.323-3.573 7.277-3.847 1.725-.16 3.404.085 5.072.506.327.083.463.217.456.59-.026 1.48-.025 2.962-.002 4.442.007.465-.11.454-.479.287-1.703-.77-3.462-1.15-5.303-.55-2.294.75-3.735 2.999-3.521 5.448.202 2.33 2.026 4.28 4.358 4.634 1.55.236 3.007-.128 4.415-.76.157-.07.296-.199.522-.183zM81.052 15.644c0-4.391-.003-8.783.002-13.176.002-1.278.892-2.265 2.184-2.448 1.109-.157 2.264.617 2.597 1.744.092.313.127.637.127.962l.001 25.912c0 1.08-.4 1.945-1.38 2.439-.883.444-1.76.356-2.556-.236-.666-.496-.978-1.182-.977-2.022.003-4.391.002-8.783.002-13.175zM27.479 15.693V2.805c0-1.542 1.01-2.632 2.438-2.638 1.431-.006 2.484 1.072 2.486 2.605.008 8.593.007 17.186.001 25.778 0 1.482-.91 2.5-2.31 2.649-1.144.121-2.273-.726-2.556-1.939-.054-.233-.056-.483-.057-.725-.003-4.281-.002-8.561-.002-12.842zM32.354 49.548c0-3.108.008-6.216-.009-9.323-.002-.41.11-.523.513-.515 1.356.025 2.712.02 4.067.002.323-.004.413.099.412.416-.008 6.265-.008 12.529 0 18.793.002.345-.1.442-.437.437-1.355-.017-2.711-.02-4.067.002-.381.007-.49-.1-.488-.489.016-3.108.009-6.215.009-9.323zM12.934 79.089c0-3.336.007-6.672-.009-10.009-.002-.407.108-.519.512-.515 2.163.02 4.326-.007 6.489.017 1.08.011 2.154.122 3.195.45 2.519.795 4.165 3.017 4.256 5.68.065 1.915-.39 3.628-1.831 4.945-1.22 1.114-2.703 1.714-4.331 1.865-2.012.187-4.032.057-6.048.066-.453.002-.602.095-.596.581.027 2.327.005 4.654.02 6.98.001.367-.07.507-.473.5-1.183-.02-1.183 0-1.183-1.189l-.001-9.371zm1.649-3.999c0 1.512.014 3.026-.01 4.538-.007.41.072.562.52.55 1.242-.035 2.485 0 3.727-.017.87-.01 1.736.065 2.607-.082 3.074-.516 4.878-3.338 4.042-6.36-.635-2.297-2.54-3.694-5.087-3.707-1.791-.009-3.583.014-5.373.002-.34-.002-.437.1-.434.44.016 1.546.008 3.09.008 4.636zM14.098 17.947c0-2.002-.012-4.004.005-6.005a2.427 2.427 0 012.104-2.37c1.22-.16 2.39.61 2.699 1.799.076.295.11.61.11.915.007 3.792.007 7.584.004 11.375-.001 1.48-.772 2.48-2.069 2.706A2.412 2.412 0 0114.104 24c-.019-2.017-.005-4.035-.005-6.053zM45.778 17.982v5.858c-.002 1.44-1.063 2.572-2.416 2.58-1.42.008-2.5-1.11-2.5-2.6-.002-3.89-.002-7.778 0-11.668 0-1.491 1.08-2.609 2.497-2.597 1.397.012 2.417 1.115 2.419 2.617v5.81zM94.42 17.809v-5.71c0-1.46 1.029-2.539 2.423-2.546 1.41-.007 2.495 1.08 2.501 2.544.012 2.88.004 5.759.004 8.638 0 .96.016 1.92-.004 2.879-.027 1.356-.962 2.36-2.303 2.505-1.145.125-2.283-.722-2.568-1.924a2.516 2.516 0 01-.051-.58c-.003-1.935-.002-3.87-.002-5.806zM72.53 17.864c0 2 .02 4.002-.007 6.001-.018 1.397-1.156 2.44-2.53 2.386a2.41 2.41 0 01-2.32-2.401c-.006-4.017-.007-8.035 0-12.052.002-1.309 1.05-2.346 2.383-2.392 1.274-.043 2.444 1.017 2.465 2.31.03 2.05.007 4.1.008 6.149zM84.985 82.413c-1.873 0-3.745.01-5.618-.009-.363-.004-.47.093-.454.46.098 2.215 1.342 5.251 4.568 5.756 2.484.388 4.632-.645 5.496-2.873.057-.148.105-.272.287-.273.42 0 .84-.012 1.258.002.35.011.213.25.158.42-.592 1.844-1.806 3.103-3.61 3.732-2.721.947-5.227.483-7.413-1.406-1.179-1.019-1.822-2.409-2.1-3.922-.422-2.309-.353-4.57.756-6.737 2.158-4.216 7.257-4.405 9.872-2.395 1.483 1.14 2.184 2.73 2.642 4.475.186.712.205 1.445.26 2.172.032.398-.077.622-.582.612-1.839-.038-3.68-.014-5.52-.014zm-.822-1.284c1.597 0 3.193.002 4.79-.002.197 0 .425.067.398-.304-.064-.867-.24-1.698-.594-2.495-1.475-3.335-5.174-3.675-7.346-2.156-1.519 1.062-2.16 2.642-2.423 4.43-.068.46.058.543.482.536 1.563-.023 3.128-.009 4.693-.009zM39.379 87.237c-.963 1.47-2.17 2.407-3.77 2.725-1.708.34-3.37.245-4.88-.775-2.255-1.523-2.27-5.24-.02-6.783 1.28-.878 2.713-1.324 4.235-1.546 1.387-.201 2.767-.454 4.15-.681.146-.024.302-.012.298-.227-.018-.856.092-1.72-.272-2.548-.516-1.171-1.478-1.738-2.647-1.983-1.245-.26-2.469-.164-3.622.447-.867.46-1.438 1.15-1.616 2.126-.063.347-.204.462-.54.42-.223-.027-.45-.005-.677-.005-.569 0-.605-.04-.473-.615.454-1.97 1.813-3.027 3.647-3.503 2.09-.542 4.135-.469 5.96.885 1.152.855 1.765 2.044 1.78 3.47.035 3.548.006 7.096.02 10.645 0 .363-.131.426-.45.423-.834-.009-.835.005-.932-.82l-.191-1.654zm.016-4.117c0-.375-.039-.754.01-1.123.067-.511-.17-.53-.562-.458-1.252.23-2.503.474-3.762.649-1.176.163-2.229.59-3.233 1.211-1.473.91-1.56 3.672.12 4.7 2.272 1.39 5.695.436 6.94-1.938.504-.964.518-1.995.487-3.041zM64.364 76.918c.58-.915 1.203-1.601 2.01-2.11 1.703-1.073 4.703-1.197 6.426.27 1.22 1.038 1.803 2.368 1.818 3.932.032 3.4.005 6.801.016 10.201.001.33-.078.45-.428.45-1.195.001-1.195.016-1.195-1.173 0-3.01-.038-6.02.01-9.029.057-3.678-3.207-4.78-5.692-3.755-1.782.734-2.791 2.178-2.84 4.12-.076 3.074-.04 6.15-.02 9.224.002.494-.117.638-.612.617-1.005-.041-1.005-.012-1.005-1.033 0-4.54.006-9.078-.011-13.617-.002-.469.114-.66.583-.584.126.02.259.016.387.001.29-.035.387.08.4.378.024.66.092 1.318.153 2.108zM59.146 21.227c0 .846.002 1.692-.001 2.539-.006 1.388-1.045 2.466-2.395 2.489a2.434 2.434 0 01-2.494-2.392 130.895 130.895 0 010-5.273c.027-1.42 1.123-2.431 2.517-2.406 1.346.025 2.367 1.102 2.37 2.504.005.846.003 1.692.003 2.539zM107.802 21.206c0-.83-.005-1.659.001-2.489.01-1.452 1.057-2.53 2.448-2.534 1.391-.004 2.455 1.073 2.464 2.52.011 1.675.012 3.35 0 5.026-.009 1.423-1.11 2.535-2.472 2.526-1.364-.009-2.43-1.125-2.439-2.56-.007-.83-.002-1.66-.002-2.489zM.717 21.217c0-.895-.024-1.79.005-2.683.04-1.198.966-2.225 2.067-2.34 1.336-.138 2.43.596 2.743 1.852.043.172.063.353.063.53.005 1.756.014 3.512 0 5.268a2.438 2.438 0 01-2.123 2.4c-1.212.157-2.394-.628-2.686-1.815-.156-.637-.06-1.296-.074-1.944-.01-.422-.002-.846-.002-1.268h.007zM57.015 81.613c0 1.66-.002 3.32 0 4.978.002 1.582.812 2.306 2.36 2.114.384-.048.77-.082 1.15-.152.214-.04.306 0 .28.227-.004.033 0 .066 0 .098.025.953.029.983-.913 1.108-1.078.143-2.156.194-3.125-.468-.99-.679-1.345-1.678-1.35-2.818-.017-3.4-.006-6.8-.006-10.201 0-.642 0-.642-.659-.642h-1.21c-.154 0-.296-.004-.293-.221a36.9 36.9 0 000-.976c-.003-.213.136-.225.292-.225.452.001.906-.023 1.355.007.393.027.53-.093.525-.51-.01-.94.049-1.883.057-2.826.003-.294.097-.384.392-.39 1.146-.02 1.145-.031 1.145 1.133 0 .716.015 1.432-.007 2.148-.01.338.087.454.432.445.871-.022 1.744.008 2.615-.015.348-.008.477.072.47.454-.018.976.002.976-.959.976-.71 0-1.42.018-2.13-.008-.349-.013-.43.111-.427.445.013 1.772.006 3.546.006 5.32zM95.498 77.056c.424-.742.815-1.465 1.442-2.028 1.212-1.09 2.624-1.2 4.129-.864.159.036.251.116.245.3-.011.39.131.872-.046 1.15-.222.348-.681.007-1.031-.035-1.786-.216-3.235.691-4.042 2.584a7.461 7.461 0 00-.615 2.985c.01 2.669-.006 5.337.013 8.006.002.41-.113.516-.511.508-1.116-.022-1.116-.005-1.116-1.118 0-4.507.007-9.015-.01-13.522-.001-.468.122-.621.591-.599.757.038.76.01.82.793.046.614.088 1.227.13 1.84zM45.312 77.065c.332-.616.654-1.194 1.087-1.702 1.209-1.42 3.013-1.563 4.475-1.202.155.038.267.114.243.3-.002.016 0 .033 0 .05-.005.39.136.892-.053 1.14-.224.295-.695-.043-1.062-.074-1.543-.133-2.753.416-3.57 1.755-.69 1.13-1.053 2.359-1.048 3.7.012 2.7-.004 5.4.012 8.102.002.387-.073.538-.496.529-1.116-.023-1.117-.003-1.117-1.117 0-4.49-.002-8.982.006-13.473 0-.206-.139-.529.143-.602.35-.09.736-.09 1.096.014.125.035.074.2.084.308.069.756.134 1.514.2 2.272z"/></svg>