<svg width="195" height="190" viewBox="0 0 195 190" fill="none" xmlns="http://www.w3.org/2000/svg">
<path d="M97.3224 189.445C150.796 189.445 194.145 147.16 194.145 95.0001C194.145 42.8399 150.796 0.555664 97.3224 0.555664C43.8489 0.555664 0.5 42.8399 0.5 95.0001C0.5 147.16 43.8489 189.445 97.3224 189.445Z" fill="white"/>
<path d="M107.915 167.548C147.637 167.548 179.838 135.072 179.838 95.0109C179.838 54.9497 147.637 22.4736 107.915 22.4736C68.1932 22.4736 35.9922 54.9497 35.9922 95.0109C35.9922 135.072 68.1932 167.548 107.915 167.548Z" fill="#2AA967"/>
<path d="M153.583 86.7444L161.404 68.8206C159.41 63.9916 158.609 62.3763 157.007 59.558L149.152 59.5064L134.686 40.5H109.757L94.1494 33.9697L67.7043 60.6406L67.125 79.2518L82.3411 95.3712L111.836 87.5005V107.074L123.627 126.287V135.326L134.09 138.127C135.333 137.405 136.56 136.649 137.753 135.841L151.606 116.869L153.566 86.7444H153.583Z" fill="#27382B"/>
<path d="M57.939 130.136L51.5834 122.523L37.9519 117.351L31.2895 110.15L22.7188 102.383C24.7805 122.97 35.379 141.014 50.9018 152.855L56.184 141.392L57.939 130.136Z" fill="#27382B"/>
<path d="M56.5261 39.1947H69.3226L73.9062 29.3135V25.4297C67.8231 27.2341 62.0809 29.829 56.7987 33.0941L55.9297 37.7856L56.5261 39.1947Z" fill="#27382B"/>
<path d="M105.87 29.3305L100.127 26.7184L98.5938 26.9418L105.001 32.6471L106.227 31.3755L112.344 30.5162L112.225 28.4884L114.934 30.0007L115.991 29.6913L110.589 24.364C108.016 23.7626 105.375 23.2986 102.7 22.9893L107.13 27.6807L105.904 29.3477L105.87 29.3305Z" fill="#27382B"/>
<path d="M60.4141 123.624L60.5504 136.512L70.3991 141.032L74.25 140.997C72.3927 134.897 69.7687 129.123 66.4801 123.83L61.8283 123.005L60.4311 123.624H60.4141Z" fill="#27382B"/>
<path d="M70.7385 143.025L58.9302 147.992L58.4531 158.887L59.9355 162.479C64.8599 158.457 69.1709 153.835 72.8002 148.765L71.812 144.091L70.7214 143.025H70.7385Z" fill="#27382B"/>
<path d="M147.656 130.395L154.216 123.211L156.023 122.851L153.007 130.704L147.656 130.395Z" fill="#27382B"/>
<path d="M94.2902 167.548C134.012 167.548 166.213 135.072 166.213 95.0109C166.213 54.9497 134.012 22.4736 94.2902 22.4736C54.5682 22.4736 22.3672 54.9497 22.3672 95.0109C22.3672 135.072 54.5682 167.548 94.2902 167.548Z" stroke="#27372A" stroke-width="8"/>
</svg>
