<svg width="17" height="19" viewBox="0 0 17 19" fill="none" xmlns="http://www.w3.org/2000/svg">
<path d="M1.83317 18.3292V9.1625H0.166504V4.1625H4.49984C4.43039 4.0375 4.38525 3.90556 4.36442 3.76667C4.34359 3.62778 4.33317 3.48195 4.33317 3.32917C4.33317 2.63472 4.57623 2.04445 5.06234 1.55833C5.54845 1.07222 6.13873 0.829168 6.83317 0.829168C7.15262 0.829168 7.45123 0.888196 7.729 1.00625C8.00678 1.12431 8.26373 1.2875 8.49984 1.49583C8.73595 1.27361 8.99289 1.10695 9.27067 0.995835C9.54845 0.884723 9.84706 0.829168 10.1665 0.829168C10.8609 0.829168 11.4512 1.07222 11.9373 1.55833C12.4234 2.04445 12.6665 2.63472 12.6665 3.32917C12.6665 3.48195 12.6526 3.62431 12.6248 3.75625C12.5971 3.8882 12.5554 4.02361 12.4998 4.1625H16.8332V9.1625H15.1665V18.3292H1.83317ZM10.1665 2.49583C9.93039 2.49583 9.73248 2.5757 9.57275 2.73542C9.41303 2.89514 9.33317 3.09306 9.33317 3.32917C9.33317 3.56528 9.41303 3.7632 9.57275 3.92292C9.73248 4.08264 9.93039 4.1625 10.1665 4.1625C10.4026 4.1625 10.6005 4.08264 10.7603 3.92292C10.92 3.7632 10.9998 3.56528 10.9998 3.32917C10.9998 3.09306 10.92 2.89514 10.7603 2.73542C10.6005 2.5757 10.4026 2.49583 10.1665 2.49583ZM5.99984 3.32917C5.99984 3.56528 6.0797 3.7632 6.23942 3.92292C6.39914 4.08264 6.59706 4.1625 6.83317 4.1625C7.06928 4.1625 7.2672 4.08264 7.42692 3.92292C7.58664 3.7632 7.6665 3.56528 7.6665 3.32917C7.6665 3.09306 7.58664 2.89514 7.42692 2.73542C7.2672 2.5757 7.06928 2.49583 6.83317 2.49583C6.59706 2.49583 6.39914 2.5757 6.23942 2.73542C6.0797 2.89514 5.99984 3.09306 5.99984 3.32917ZM1.83317 5.82917V7.49583H7.6665V5.82917H1.83317ZM7.6665 16.6625V9.1625H3.49984V16.6625H7.6665ZM9.33317 16.6625H13.4998V9.1625H9.33317V16.6625ZM15.1665 7.49583V5.82917H9.33317V7.49583H15.1665Z" fill="#212121"/>
</svg>
