<svg width="52" height="56" viewBox="0 0 52 56" fill="none" xmlns="http://www.w3.org/2000/svg">
<path d="M1.93396 42.9157C2.86943 51.2453 10.8976 54.8106 14.3979 55.1848C18.9687 55.9766 24.2254 51.5514 26.2825 49.2398C27.8389 51.0073 32.1106 54.4973 36.7456 54.3174C41.3807 54.1375 45.4642 51.6834 46.9265 50.4789C48.8385 48.8106 50.5951 44.2364 51.1795 41.7694C50.9133 41.4821 50.0027 40.6928 48.49 39.8333C46.9773 38.9738 46.7359 37.9034 46.8044 37.4757L48.5823 30.7114C48.7885 30.002 49.0343 27.9009 48.3672 25.1722C47.7002 22.4435 44.7077 22.3386 43.2948 22.6272L41.8763 14.0103C40.6193 10.5393 37.0158 10.3519 35.4323 10.6259L37.335 3.79303C35.9298 2.63605 31.3049 0.55817 26.3291 1.15941C21.3533 1.76065 17.3364 5.62675 16.293 7.21886L18.0038 10.0908C16.3679 10.0013 14.6866 10.8175 14.3979 11.5939C12.3507 11.4183 11.2585 12.9148 10.961 14.0103L10.2774 20.8907C7.37865 20.8907 5.59142 23.6082 4.80862 28.9571C4.03271 34.2589 4.53518 38.7849 3.8107 39.8333C3.23111 40.672 2.74663 41.949 1.93396 42.9157Z" fill="white"/>
<path d="M22.9991 16.6048L24.8764 17.6128C28.3714 14.1168 26.2793 32.8238 25.525 38.0169C25.0189 42.8668 18.9061 48.1135 15.8829 49.9785C12.8622 51.9216 6.87149 46.4626 7.5245 44.2707L9.93007 41.6719C11.2344 40.3731 11.007 38.3725 9.45704 36.1006L8.67604 33.7248C9.01269 31.2673 8.88668 26.3632 9.93008 26.1225C10.9735 25.8819 12.2056 26.7969 12.4403 27.2583L13.1826 28.752L13.5244 26.3594C13.8748 24.3571 14.259 18.302 14.8113 16.2625C15.3635 14.2231 16.3046 13.3545 17.2192 14.0616C17.5321 13.0959 19.8002 13.2618 21.5459 14.4234L21.3856 15.9587L22.9991 16.6048Z" fill="#D8A15A"/>
<path d="M5.98218 43.5912C5.98218 43.5912 9.92047 40.8181 8.99869 38.5247C8.07691 36.2314 8.21451 37.3196 7.93395 34.7402C7.6534 32.1608 9.3591 29.9173 9.33056 27.5135C9.30202 25.1097 12.2645 24.3925 12.4503 27.3925" stroke="#22382A" stroke-width="2.1875" stroke-linecap="square" stroke-linejoin="round"/>
<path d="M17.1719 17.9347C17.2936 16.0642 15.9554 15.345 14.9922 15.3235C13.9318 15.3014 13.9001 17.1053 13.9001 17.1053L13.4181 24.5916C13.4181 24.5916 12.7951 26.8471 12.2099 29.4137C11.948 31.1029 11.667 31.7515 11.667 31.7515C11.667 31.7515 11.4793 32.2003 11.4105 33.3556" stroke="#22382A" stroke-width="2.1875" stroke-linecap="square" stroke-linejoin="round"/>
<path d="M15.0683 28.3709L15.0248 29.4638L17.2106 29.5507L17.2541 28.4579L15.0683 28.3709ZM16.3547 26.1283L17.4401 26.263L16.3547 26.1283ZM16.702 23.1581L17.79 23.2702C17.7908 23.2625 17.7915 23.2547 17.7921 23.2469L16.702 23.1581ZM17.2171 16.838L18.3073 16.9269C18.3078 16.9204 18.3082 16.914 18.3087 16.9076L17.2171 16.838ZM18.4405 14.1497L18.4612 13.0561L18.4595 13.0561L18.4405 14.1497ZM19.4423 17.8593C19.4657 18.463 19.9741 18.9333 20.5777 18.9098C21.1813 18.8864 21.6516 18.3781 21.6282 17.7745L19.4423 17.8593ZM16.1612 28.4144C17.2541 28.4579 17.2541 28.4579 17.2541 28.4579C17.2541 28.458 17.2541 28.458 17.2541 28.458C17.2541 28.458 17.2541 28.4581 17.2541 28.4581C17.2541 28.4581 17.2541 28.458 17.2541 28.4579C17.2541 28.4577 17.2541 28.4572 17.2541 28.4564C17.2542 28.4549 17.2543 28.4524 17.2545 28.4489C17.2548 28.4419 17.2552 28.431 17.2559 28.4164C17.2573 28.3872 17.2594 28.3433 17.2624 28.2863C17.2685 28.1724 17.2781 28.0069 17.2924 27.8042C17.321 27.3975 17.3677 26.8463 17.4401 26.263L15.2692 25.9936C15.1907 26.6266 15.1407 27.2184 15.1103 27.6507C15.095 27.8674 15.0846 28.0454 15.078 28.1701C15.0747 28.2325 15.0723 28.2816 15.0707 28.3157C15.0699 28.3327 15.0694 28.346 15.069 28.3553C15.0688 28.3599 15.0686 28.3636 15.0685 28.3662C15.0684 28.3675 15.0684 28.3685 15.0684 28.3693C15.0684 28.3697 15.0683 28.3701 15.0683 28.3703C15.0683 28.3705 15.0683 28.3706 15.0683 28.3707C15.0683 28.3707 15.0683 28.3708 15.0683 28.3708C15.0683 28.3709 15.0683 28.3709 16.1612 28.4144ZM17.4401 26.263C17.5621 25.2793 17.6494 24.533 17.7063 24.0316C17.7347 23.7809 17.7556 23.5915 17.7693 23.4643C17.7762 23.4007 17.7813 23.3526 17.7848 23.3202C17.7865 23.3041 17.7878 23.2918 17.7886 23.2834C17.7891 23.2793 17.7894 23.2761 17.7896 23.2739C17.7897 23.2728 17.7898 23.2719 17.7899 23.2713C17.7899 23.271 17.7899 23.2708 17.79 23.2706C17.79 23.2705 17.79 23.2704 17.79 23.2704C17.79 23.2703 17.79 23.2703 17.79 23.2703C17.79 23.2703 17.79 23.2702 16.702 23.1581C15.614 23.0459 15.614 23.0459 15.614 23.0459C15.614 23.0459 15.614 23.0459 15.614 23.0459C15.614 23.0459 15.614 23.0459 15.614 23.0459C15.614 23.046 15.614 23.0461 15.614 23.0463C15.6139 23.0467 15.6139 23.0473 15.6138 23.0482C15.6136 23.0499 15.6133 23.0527 15.6129 23.0564C15.6122 23.0638 15.611 23.0752 15.6094 23.0904C15.6061 23.121 15.6012 23.1672 15.5945 23.2289C15.5812 23.3525 15.5608 23.5382 15.5327 23.7851C15.4767 24.2789 15.3903 25.0177 15.2692 25.9936L17.4401 26.263ZM17.7921 23.2469L18.3073 16.9269L16.127 16.7492L15.6119 23.0692L17.7921 23.2469ZM17.2171 16.838C18.3087 16.9076 18.3086 16.9078 18.3086 16.908C18.3086 16.908 18.3086 16.9082 18.3086 16.9083C18.3086 16.9085 18.3086 16.9086 18.3086 16.9088C18.3086 16.909 18.3086 16.9091 18.3086 16.909C18.3086 16.9088 18.3086 16.908 18.3087 16.9066C18.3089 16.9039 18.3093 16.8987 18.3099 16.8913C18.311 16.8764 18.3129 16.8527 18.3158 16.8214C18.3215 16.7587 18.331 16.6665 18.3453 16.5549C18.3745 16.3279 18.4218 16.0387 18.4936 15.761C18.5697 15.4669 18.6539 15.2642 18.7219 15.1599C18.7945 15.0488 18.7048 15.2482 18.4216 15.2433L18.4595 13.0561C17.6508 13.0421 17.1455 13.573 16.8901 13.9642C16.6303 14.3623 16.4742 14.8328 16.3759 15.213C16.2732 15.6097 16.2117 15.996 16.1757 16.2759C16.1574 16.4178 16.1452 16.5369 16.1374 16.6221C16.1335 16.6647 16.1307 16.6992 16.1288 16.724C16.1278 16.7364 16.1271 16.7464 16.1266 16.7538C16.1263 16.7576 16.1261 16.7607 16.1259 16.7631C16.1259 16.7643 16.1258 16.7654 16.1257 16.7663C16.1257 16.7667 16.1257 16.7671 16.1256 16.7675C16.1256 16.7677 16.1256 16.7679 16.1256 16.768C16.1256 16.7682 16.1256 16.7684 17.2171 16.838ZM18.4199 15.2432C18.7694 15.2498 18.9241 15.3224 18.9885 15.3647C19.0455 15.4021 19.1144 15.469 19.1847 15.6417C19.3623 16.0778 19.3994 16.7543 19.4423 17.8593L21.6282 17.7745C21.5916 16.8315 21.5675 15.6929 21.2107 14.8167C21.0138 14.3333 20.6972 13.8697 20.189 13.536C19.6881 13.2072 19.0979 13.0681 18.4612 13.0561L18.4199 15.2432Z" fill="#22382A"/>
<path d="M19.6172 28.0423C19.6172 28.0423 19.7387 27.3454 19.9201 25.9901C20.1819 24.034 20.1465 23.2948 20.1465 23.2948L20.6061 17.7342C20.6061 17.7342 20.9245 15.8054 21.9713 15.7185C23.7515 15.5735 24.1977 16.8002 24.4036 18.2916" stroke="#22382A" stroke-width="2.1875" stroke-linecap="square" stroke-linejoin="round"/>
<path d="M22.9897 29.5053C23.2414 27.7739 23.4898 25.4014 23.4898 25.4014L23.8604 20.1685C23.8604 20.1685 23.9068 18.861 24.9238 18.6026C26.6554 18.1605 27.2949 20.8102 27.3513 22.8592C27.3513 22.8592 26.8671 27.8871 26.7765 29.9628C26.6859 32.0386 25.9605 38.9769 21.4627 44.1973C16.1107 49.4118 15.5581 49.7827 15.5581 49.7827" stroke="#22382A" stroke-width="2.1875" stroke-linecap="square" stroke-linejoin="round"/>
<path d="M31.2254 15.7181L30.2035 15.7577C29.2565 19.7054 28.5614 31.5217 28.9735 36.6353C29.1583 41.3984 35.4459 46.6752 38.3681 48.6835C42.2705 50.2951 47.1586 44.8449 46.6474 42.6657L44.8643 40.6945C43.8926 39.9933 44.0546 37.3007 44.257 36.042L46.5247 28.5148C46.7813 27.7963 46.5261 26.3042 45.4905 26.0043C44.4549 25.7045 43.1516 26.5202 42.8841 26.9557L41.672 28.7031L41.1893 25.1085C40.9704 23.1333 40.6183 19.0093 40.1984 16.9851C39.7785 14.961 38.5666 14.3704 37.5972 15.0031C37.3466 14.0415 36.4041 12.8413 34.5666 13.8657L34.6251 15.3736L33.3142 14.5743L31.2254 15.7181Z" fill="#AF741C"/>
<path d="M26.3684 34.4119C26.3684 34.4119 26.592 40.9187 29.2594 43.4751C32.1602 46.2551 34.6921 48.8957 35.9692 49.3948" stroke="#22382A" stroke-width="2.1875" stroke-linecap="square" stroke-linejoin="round"/>
<path d="M37.4728 35.5633C37.4728 35.5633 33.741 36.061 33.5562 39.7962" stroke="#22382A" stroke-width="2.1875" stroke-linecap="square" stroke-linejoin="round"/>
<path d="M44.7231 43.4437C44.7231 43.4437 41.2351 41.4437 42.3176 36.5885C43.4001 31.7334 45.2661 27.1356 44.6755 26.487C43.8959 25.6289 41.8401 26.3844 40.9536 28.3666C40.0672 30.3487 38.8974 32.8382 38.8974 32.8382" stroke="#22382A" stroke-width="2.1875" stroke-linecap="square" stroke-linejoin="round"/>
<path d="M35.268 28.6777L35.0128 24.7553C35.0128 24.7553 35.0332 20.9891 35.2748 19.5051C35.1636 16.64 38.0051 15.3654 38.4976 17.9351C38.8788 19.9274 38.995 24.8465 38.995 24.8465C38.995 24.8465 38.8438 27.818 39.8021 29.8617" stroke="#22382A" stroke-width="2.1875" stroke-linecap="square" stroke-linejoin="round"/>
<path d="M35.1518 17.9793C35.1128 16.9746 35.7137 14.3866 33.5978 14.0862C31.8137 14.5088 32.0676 15.7968 31.7699 17.4278C31.4722 19.0588 31.4806 23.8662 31.4806 23.8662L31.5734 28.1404" stroke="#22382A" stroke-width="2.1875" stroke-linecap="square" stroke-linejoin="round"/>
<path d="M31.7644 16.1342C30.9775 13.933 28.531 14.2737 28.3478 17.67C28.2603 19.2902 27.6204 22.3119 27.6204 22.3119L27.098 26.9232" stroke="#22382A" stroke-width="2.1875" stroke-linecap="round" stroke-linejoin="round"/>
<path d="M31.2055 10.2383L32.5392 5.62408" stroke="#F4B536" stroke-width="2.1875" stroke-linecap="square" stroke-linejoin="round"/>
<path d="M23.6662 10.5883L20.6322 6.61831" stroke="#F4B536" stroke-width="2.1875" stroke-linecap="square" stroke-linejoin="round"/>
<path d="M26.8685 4.60083L27.0695 9.77715" stroke="#F4B536" stroke-width="2.1875" stroke-linecap="square" stroke-linejoin="round"/>
</svg>
