<svg id="Layer_1" data-name="Layer 1" xmlns="http://www.w3.org/2000/svg" viewBox="0 0 200 200">
  <defs>
    <clipPath id="clip-path">
      <circle cx="126.12" cy="63.46" r="34.23" fill="none"/>
    </clipPath>
    <style>
      .cls-4{fill:none}.cls-3{fill:#d0d2d3}.cls-4{stroke:#fff;stroke-miterlimit:10;stroke-width:.5px}.cls-6{fill:#3e4572}.cls-7{fill:#f05a28}.cls-8{fill:#f6921e}
    </style>
  </defs>
  <g clip-path="url(#clip-path)">
    <path class="cls-3" d="M190.92 70.07a.52.52 0 01-.1.27 1 1 0 01-.34 0V70zM187.23 66l-.23-.08zM189.19 69.67a.6.6 0 00-.13.28h-.13a1.24 1.24 0 00-.19-.36zM191.17 66.92c-.28-.08-.72-.18-1.22-.29l-.11-.15 1.81.38.07.06a1.21 1.21 0 00-.38 0 .49.49 0 00-.17 0zM84.38 42.77c.2-.11.39.18.26.31s-.27-.2-.26-.31zM191.13 83.81a6 6 0 00-.19-.73v-.34c0-.12-.11-.32-.09-.42s.26-.21.31-.37-.11-.3-.11-.62a.43.43 0 01.06-.22l.1-.09.36-.21c.88.94 1.48 1.62 1.39 1.69a6.53 6.53 0 00-.56.37 8.73 8.73 0 00-.73.76c-.19.2-.41.36-.59.53a1 1 0 00.05-.35zM189.08 66.33a1.31 1.31 0 00-.28 0l-.15-.12zM182.74 82a3.22 3.22 0 01.44.14c-.41-.14-.59-.14-.44-.14z"/>
    <path class="cls-3" d="M189.24 66.36l.6.12.11.15-.38-.09a2.11 2.11 0 00-.33-.18zM183.8 47.92a9.76 9.76 0 01-1.6-.46 2.19 2.19 0 01.68-.53c.37-.09.75 0 1-.09s.26-.49.39-.59.25-.06.34-.11A1 1 0 00185 45c-.1-.31-.62-.66-.28-1a1.51 1.51 0 011.28 1 5.87 5.87 0 00-.05.59c0 .2.12.24.17.4.11.34.19.67.28 1-.31.39-.93.25-1.38.45-.21.1-.27.46-.48.51s-.29-.14-.45-.14a.44.44 0 00-.29.11zM187.14 71.15l.32.08.35.27h.19l.37.33v.08h-.18c-.19-.29-.7-.27-1-.44-.04-.16 0-.24-.05-.32zM188.75 69.56a1.24 1.24 0 01.19.36c-.14 0-.24 0-.28-.17a.28.28 0 010-.25zM189.19 69.67l.44.1a3.63 3.63 0 00-.57.18.6.6 0 01.13-.28zM175.25 63.45c.24.08 1.05 1.06.81 1.6a.62.62 0 01-.62.31c-.55-.09-.45-1.33-.28-1.83a.14.14 0 01.09-.08zM191.17 32.11a6.37 6.37 0 01-1.07 0 .68.68 0 01-.31-.11h.07a2.18 2.18 0 011.31.11zM186.85 67.5h.07a.81.81 0 01-.66-.39v-.18a2.13 2.13 0 00.59.57zM190.87 72.76l.49.12a2.07 2.07 0 01-.49-.12z"/>
    <path class="cls-3" d="M187.69 71.76a.3.3 0 01.26.06zM190.48 67.5a.31.31 0 00-.2.11l-.53-.44a2.21 2.21 0 00.34-.18l.79.17a.52.52 0 00-.07.21c.16.06.21-.06.36-.08s0-.06-.29-.13L191 67h.07l.29.1c-.09.17-.12.38-.32.43s-.36-.06-.56-.03zM139.14 47.81c-.09.24-.5.55-.68.2a2.62 2.62 0 000-.79c.42-.4.82-.22.68.59zM189.66 32.09l.13.09h-.18a.11.11 0 01.05-.09zM191.1 80.32c.25-.19.49-.38.73-.54.13.08.19.14.12.17a1.53 1.53 0 00-.51.28 2.33 2.33 0 00-.08.36zM187.31 66.9a1.11 1.11 0 01-.18-.34.33.33 0 010-.14h.14a1.55 1.55 0 000 .43zM188.7 69.55l.07.08zM186.91 65.9l-1-.19a.39.39 0 01.22-.11 1.3 1.3 0 01.78.3zM188.08 87.46a2.14 2.14 0 01-.47.48c-.25.17-1.06.53-1.15 0a1.54 1.54 0 01.06-.43z"/>
    <path class="cls-3" d="M185.93 65.71l1 .19a.78.78 0 01.22.26.57.57 0 010 .26c-.45-.08-.91-.17-1.36-.27a.65.65 0 01.14-.44zM135.34 41.9c-.39.3-1 .15-1.67.22-.28 0-.59.32-.9.09-.07-.19.25-.22.29-.4s-.24-.14-.29-.28.34-.26.31-.59c.16-.17.46-.11.51-.34a.48.48 0 00-.25-.45.54.54 0 01-.34-.08c-.28-.15-.38-.47-.54-.54a2.21 2.21 0 010-.73 1.86 1.86 0 01.62-.53c.25-.09.51 0 .65-.2a.17.17 0 01.14 0c0 .17-.15.2-.17.36s.49.1.54.34-.28.32-.28.51.34.48.5.7.34.29.45.45.12.32.2.4.48.16.51.36-.34.41-.28.71zM186.26 73.78l-2.4-.54c.16 0 .31-.36.45-.56s.35-.67.71-.76.6.11.76-.14-.14-.29 0-.4a5.27 5.27 0 01.95.39c.06.28-.14.48-.19.71a4.94 4.94 0 01-.12.93 2.43 2.43 0 01-.16.37z"/>
    <path class="cls-3" d="M130.75 41c0-.16-.17-.25-.15-.42s.2-.14.43-.23.23-.26.45-.39c.37-.23 1-.06 1.07.22s-.2.24-.28.48 0 .47-.09.62-.32.12-.48.17c-.35.11-1 .52-1.32.06.04-.28.28-.33.37-.51zM150.21 50.24c0-.24.54-.32.65-.12-.04.23-.54.39-.65.12zM190.47 32.35a1.76 1.76 0 01-.46-.06.65.65 0 01-.22-.11zM188.88 72.31l1.15.26a3.69 3.69 0 01-.47 0 4.48 4.48 0 01-.62-.2zM187.82 65a.93.93 0 00-.26.33c-1.06-.88-1.88-1.55-1.95-1.62.24.19.5.1.84.17s.47.3.62.14-.61-.92-.81-1c-.1-.46-.68-.44-.65-.85 0-.15.17-.2.24-.29.5.41 1.19 1 2 1.64 0 .14 0 .27.12.32h.19l.56.47a1.28 1.28 0 01-.37.49 3.16 3.16 0 01-.53.2zM191.85 39.58c-.22.09-.11.26-.37.28a2.31 2.31 0 01-.62-.28l-.21-.13c.63.08 1.07.13 1.2.13zM111.31 97.3h-.42a.61.61 0 01.42 0zM190.26 68.83c.13.26.36.37.42.56s0 .53.23.65l-.43-.1a1.15 1.15 0 000-.37c-.06-.27-.32-.33-.34-.54a.37.37 0 01.12-.2zM190.88 67.16c.28.07.4.11.29.13s-.2.14-.36.08a.52.52 0 01.07-.21zM186.23 66.84a.29.29 0 010 .13 2.11 2.11 0 01-.21-.31.35.35 0 01.21.18zM188.36 71.83c.08-.18.46-.23.8-.19a1.63 1.63 0 01.47.16 3.25 3.25 0 01-.43.08c-.21 0-.48-.12-.56.09h-.17zM190.72 47.29c-.1-.06-.25-.11-.38-.19l1.56.09c-.26 0-.45.33-.62.55a6.12 6.12 0 00-.56-.45z"/>
    <path class="cls-3" d="M190.65 48.24c0 .31.33.24.62.36s.27.29.41.38l-1.16-.31c-.07-.12-.18-.21-.25-.33s0-.24-.08-.34c-.17-.29-.47-.13-.82-.31s-.16-.37-.25-.59V47l1.25.06c.13.08.28.13.38.19a6.12 6.12 0 01.56.45 1.07 1.07 0 01-.18.19c-.13.11-.46.18-.48.35zM83.65 39c0-.1.09-.09.17-.08s0 .06 0 .11a.12.12 0 01-.17 0zM191.2 69.09c.13.2.28.6.48.9a.83.83 0 01-.13.18h-.14c-.2 0-.39 0-.48-.07.07-.43.01-.96.27-1.01zM192.29 74.47v.67l-.39-.1c-.41-.36-1-.92-1.74-1.57a3.87 3.87 0 01.12-.77v-.07a1 1 0 00.43.21l.09-.09a2.07 2.07 0 00.49.12l-.49-.12a.38.38 0 00-.27-.31l.86.2v.25c.23.17.62.11.68.5 0 .14-.07.31-.06.45s.25.43.28.63zM189.87 69.83l.26.23a.53.53 0 01-.51.55.54.54 0 01-.54-.54.49.49 0 010-.12c.2 0 .42-.16.57-.18zM191.47 67a.44.44 0 00-.13.14l-.29-.1L191 67a.76.76 0 01.19-.12.74.74 0 00.28.12zM186 69.69c-.14-.26-.19-.54-.35-.78s-.42-.38-.56-.62-.13-.46-.26-.65-.31-.25-.45-.39a4 4 0 01-.22-.34c-.36-.42-1-.64-1.07-1.27.14-.16.29.06.56.12a.75.75 0 00.38 0h.19c.22.12.39.48.64.68s.35.2.51.34a5.51 5.51 0 00.42.42c.13.08.44.18.68.34s.9.42 1 .84c0 .11-.05.28 0 .37s.23.21.34.34a1.07 1.07 0 01.15.22l-.26-.06c.2.1.36.26.52.27a.75.75 0 00.33-.07h.21a.28.28 0 000 .25c0 .15.14.18.28.17-.06.15-.31.17-.39.4a2.81 2.81 0 000 .71l-1.29-.3zm1.65-.39a.73.73 0 00-.35-.09zM189.81 65.29l-1.14-1a2.11 2.11 0 01.31-.52c.25-.29.64.27.67.5s.42.23.54.43a1.93 1.93 0 01-.38.59zM186.9 70.71l-.44-.48a3 3 0 01-.45-.5l1.21 1.09zM190.42 72.38l-1-.23c.22-.09.59 0 .71-.13a1.41 1.41 0 00.41.07.67.67 0 000 .2z"/>
    <path class="cls-3" d="M190.1 72c-.12.17-.49 0-.71.13l-.75-.17c.08-.21.35-.07.56-.09a3.25 3.25 0 00.43-.08 2.18 2.18 0 00.47.21zM190.41 72.4l-.09.19a.11.11 0 010-.08.2.2 0 01.09-.11zM190.11 69.88v.18l-.26-.23zM189.65 66a.83.83 0 01.16-.68l1.84 1.57-1.81-.38a2.82 2.82 0 01-.19-.51zM191.55 70.17L191 70a1.43 1.43 0 01.48.07zM183.16 69.91c-.21-.07 1.09.2 2.8.59v.15a3.66 3.66 0 00.4.57c.06.1.15.2.22.3a33.17 33.17 0 01-4.28-1.1c.31-.17.7-.16.86-.51zM190.6 67.87c-.11.17-.09.47-.16.66a1.14 1.14 0 01-.18.3 1.32 1.32 0 010-1.22zM191.45 72.62a2.66 2.66 0 00-.11-.84 5.2 5.2 0 011.58.5c-.22.12-.54.19-.53.5a.47.47 0 01.1.1c-.08-.03-.49-.13-1.04-.26zM183.53 73.17a6.87 6.87 0 01-1.1-.3 1.16 1.16 0 01.45-.12c.26.03.43.25.65.42z"/>
    <path class="cls-3" d="M191.45 72.62l-.86-.2h-.17v-.1a.67.67 0 010-.2h.21c.16.13.59.18.68 0s-.38-.26-.58-.2h-.22l.09-.2.65.17a2.64 2.64 0 01.2.73zM183.53 73.17l.33.07a.44.44 0 01-.33-.07zM189.66 32.09l-1-.24a3.53 3.53 0 01.65 0 1 1 0 01.35.24zM188.65 69.45h-.32a.26.26 0 01.21-.11 1 1 0 01.11.11zM192.66 32c-1.27-.23-10.1-1.54-9.73-1.6.18-.12-.13-.29 0-.4s.38 0 .62 0 .3-.07.42-.06c.31 0 .61.31 1 .4a3.38 3.38 0 001.1.06 3.22 3.22 0 01.76-.09c.12 0 .24.11.37.14a1.21 1.21 0 00.33 0c.1 0 .19.11.29.14.52.15 1.22.22 1.77.39a4.42 4.42 0 00.93.31c.13 0 .25-.05.42-.05a1.89 1.89 0 011.72.76zM188.34 71.92c0 .12.2.25.44.37l-.8-.18V72a.39.39 0 00.19-.12h.17zM190.48 70.31a.78.78 0 01-.33-.24v-.18l.38.09c-.07.13-.1.25-.05.33zM187.42 48.78a.48.48 0 00-.13.32c0 .18.15.26.32.35-1.86-.29-3.76-.59-4.76-.71 0-.18 0-.36.14-.43.37.12.57-.21.81-.39zM83 40.55c-.06.18-.23.26-.4.34l-.14-.15c-.01-.26.37-.46.54-.19zM190.79 32.38a1.48 1.48 0 01.35.13l-.67-.16a1.73 1.73 0 01.32.03zM190.58 86.61c.4.16.59.25.33.21-.1-.08-.23-.14-.33-.21zM190.22 39.32a.83.83 0 01.43.13l-.6-.07a.49.49 0 01.17-.06zM187.76 71.29l.64.12a.81.81 0 01-.38 0zM191.71 70.26zM187.76 71.29l-.56-.51 1.29.3a.49.49 0 01-.09.33zM183.1 40c0 .17.06.3 0 .42-.45-.17-.55-.61-.88-1a6.65 6.65 0 011 .11.28.28 0 01.08.15c-.04.14-.16.2-.2.32zM188.26 66.64l-1-.19a1.14 1.14 0 000-.45l1.52.36a1.65 1.65 0 00-.41.18zM139.05 46.32a.35.35 0 01-.19.42c-.37-.06-.09-.74.19-.42zM184 65.77c-1.17-.29-2-.56-2-.76s1.62.26 3.66.66a1.1 1.1 0 00.07.48l-1.55-.34h-.06zM188.8 66.37l.77.17.21.1.25.07c.06.07.11.14.1.19a.14.14 0 010 .09l-.73-.14-.58-.47zM191.68 49zM188.43 37.77c0-.17-.19-.2-.17-.34s.29-.16.28-.36-.38-.22-.42-.45.07-.16 0-.37-.22-.14-.36-.25c2.28.36 4.34.7 4.15.7s-.37.17-.53.2c-.89.16-2.21-.44-2.51.34v.36c0 .11-.19.29-.23.4s0 .26-.08.39l-.09.12a1.63 1.63 0 01-.13-.37c-.01-.14.1-.25.09-.37z"/>
    <path class="cls-3" d="M188.76 66.36l-1.52-.36 1.38.27zM187.2 70.78l.56.51-.3-.06a4.6 4.6 0 01-.56-.52zM110 31.82a.14.14 0 01.17 0 .14.14 0 01-.14.12zM191.34 67.16a.44.44 0 01.13-.14.83.83 0 01-.3-.1.49.49 0 01.17 0 1.21 1.21 0 01.38 0l.84.7a6 6 0 00-1.22-.46zM187.13 66.56a1.11 1.11 0 00.18.34c.09.3.42.53.36.8-.25-.07-.52-.1-.75-.16h-.07a2.18 2.18 0 01-.6-.53.29.29 0 000-.13c0-.09-.12-.14-.2-.19a1.9 1.9 0 01-.22-.33v-.17c.45.1.91.19 1.36.27a.21.21 0 00-.06.1zM182.85 48.74c0 .21 0 .41-.2.44s-.38-.28-.53-.48c-.03-.04.24-.02.73.04zM190 66.71l.43.1a3.81 3.81 0 01.57.19l-.1.12-.79-.17a.14.14 0 000-.09s-.02-.08-.11-.15zM189.59 69.49a.51.51 0 01.52.39h-.24a.39.39 0 00-.15-.06h-.09l-.44-.1a.51.51 0 01.4-.23z"/>
    <path class="cls-3" d="M192.16 67a1.61 1.61 0 01-.44-.06l-.07-.06a2.23 2.23 0 01.51.12zM188 72v.08l-.72-.17a2.19 2.19 0 00.72.09zM185.86 66.5a.75.75 0 01-.09-.29v.11a1.9 1.9 0 00.22.33.64.64 0 01-.13-.15zM187.29 69.21a.73.73 0 01.35.09zM186.62 37.66c-.59-.46-1.53-1-1.63-2a.17.17 0 01.07-.13l2.75.44c.14.11.29.11.36.25s-.08.23 0 .37.41.29.42.45-.23.16-.28.36.15.17.17.34-.1.24-.09.37a1.63 1.63 0 00.13.37 1.09 1.09 0 00-.22.41 11.8 11.8 0 01-1.68-1.23zM191.4 72.05c-.09.18-.52.13-.68 0a1.55 1.55 0 01.36-.13c.06 0-.05 0-.26-.07.18-.06.54.02.58.2zM187.22 65.92a.13.13 0 00-.06-.1 2.13 2.13 0 00.3-.3l.1-.15 1.05.87-1.38-.24s-.01-.06-.01-.08zM189 68.58a.87.87 0 01.17.51c0 .17-.3.27-.44.44l-.07-.08h.13a1.24 1.24 0 00.21-.87z"/>
    <path class="cls-3" d="M190.82 71.85c.21 0 .32.07.26.07a1.55 1.55 0 00-.36.13.22.22 0 01-.05-.08.2.2 0 01.15-.12zM140.55 48.72c.29-.24.95-.08 1.35-.09-.08.22-.09.5-.25.62a1.53 1.53 0 01-1.1-.53zM191.55 70.17l.16.09-.2-.05a.08.08 0 00.04-.04zM189.72 69.77a.39.39 0 01.15.06l-.24-.06zM190.3 72.63l-.27-.06h.25zM189.27 74.73c-.25 0-.38-.28-.56-.4h-.09l1 .23a.64.64 0 01-.35.17zM189.36 66.85l.39.32a.28.28 0 00-.15.15c-.09.2 0 .22 0 .53s-.44.29-.54.57v.16a.72.72 0 00-.17-.22c-.12-.11-.28-.11-.42-.2s-.26-.25-.42-.34a1.66 1.66 0 00-.31-.12c.06-.27-.27-.5-.36-.8a.49.49 0 00.33.25c.25 0 .41-.31.62-.51zM191.36 80.59a2.33 2.33 0 01.08-.36c.08-.12.39-.22.51-.28s0-.09-.12-.17c.18-.11.48.19.68.23-.12.35-.54.58-.94.8zM188.36 71.83l-.36-.33a.81.81 0 00.38 0l2.2.4-.09.27a1.41 1.41 0 01-.41-.07c-.06-.24-.25-.25-.47-.21a1.63 1.63 0 00-.47-.16c-.32-.13-.7-.08-.78.1zM192.68 32v-.05h.15zM187.78 61.22a.64.64 0 01-.64.64h-.15c-.23 0-.63-.19-.65-.31-.06-.41 1-.16 1.3-.37.09-.04.08.03.14.04zM187.24 66a1.14 1.14 0 010 .45h-.14a.57.57 0 000-.26.78.78 0 00-.22-.26h.1a1.11 1.11 0 00.26.07zM187.34 47.8a1.44 1.44 0 01.85.25 6.36 6.36 0 01-.85-.25z"/>
    <path class="cls-3" d="M151.7 68.71c-.08-.54-1.1-.27-1.21.12s0 .46-.06.73c.11.21.39.25.74.22.19-.08.16-.24.25-.42s.32-.36.28-.65zm33.44-7.38zm2.5-.17c-.26.21-1.36 0-1.3.37 0 .12.42.29.65.31a.64.64 0 00.77-.47.77.77 0 000-.15c-.04-.01-.03-.08-.12-.06zm-29.49-13.68c0 .16-.14.19-.2.36a2.42 2.42 0 00-.08.71c.06.31.38.32.67.45a2.6 2.6 0 00.88.36 1.16 1.16 0 00.84-.28c.14-1-.62-1-.76-1.74.07 0 0-.09.09-.09s.46.14.56-.08a.58.58 0 00-.66-.49.64.64 0 00-.18.06c-.13-.08-.14-.27-.17-.45-.32-.19-1.11-.6-1.1-1s.41-.49.87-.48c.2-.15.07-.6-.11-.71a1.73 1.73 0 00-1.58.29c-.22.16-.47.27-.59.36a.66.66 0 00-.25.45c0 .18.26.28.36.51s0 .27.09.37c.12.27.44.44.67.67s.64.53.65.73zm-6.08-3.38c-.39-.1-1.31 0-1.24.47 0 .25.33.11.39.37-.27.1-.61.36-.9.31s-.43-.48-.62-.73c-.27 0-.44-.26-.76-.23s-.51.52-.68.76-.23.2-.28.31 0 .18 0 .29c-.1.31-.37.42-.34.7s.29.35.31.56-.37.11-.34.37c.5.41.53-.2.79-.28a3.17 3.17 0 01.87 0c.26 0 .38-.25.62-.34a1.41 1.41 0 01.54-.11c.89 0 1.47.54 2.25.56a5.6 5.6 0 001-.06c.77-.13.42-.78 0-1s-.64-.33-1-.54-1-.34-1-.59.61-.36.39-.82zm11.4-10.65c-.1-.1-.44-.14-.59-.37s-.15-.64-.56-.56v.08c0 .62.86.78.85 1.27 0 .26-.29.29-.2.59a.58.58 0 00.69-.44.56.56 0 00-.19-.57zm18.45 6.36c-.32.06-.09.4-.11.6s-.33.47-.31.76c-.11.12-.29.17-.31.39.18.12.26-.1.39-.22s.55-.33.62-.57a1 1 0 00-.28-1zM147 37.48c-.6-.51-1.61.18-2.28.14a.91.91 0 01-.76-.51 2.16 2.16 0 010-.36 4.15 4.15 0 01-.11-.48c0-.51 1.29-.61 1.29-1.24A1 1 0 00144 35c-.08.09-.08.27-.2.45-.25.39-1.07.43-1.32.91a.92.92 0 00-.11.56c.06.27.65.34.67.62 0 .47-.72.41-.82.82a4.07 4.07 0 01.06.59c0 .17-.34.21-.7.36-.19.08-.37.38-.57.4s-.29-.11-.42-.09-.12.26-.39.31-.6-.19-.62.09.34.27.56.25.31-.14.48-.14c.33 0 .55.25.76.25.48 0 1-.44 1.46-.39.23 0 .37.18.54.17s.5-.34.7-.45c-.08-.48 0-1.1.45-1.13s.77.52.82 0a.44.44 0 00-.42-.42c-.16 0-.38.32-.51 0s.29-.19.45-.25.21-.18.34-.23c.57-.1 1.5.37 1.79-.2zm-1.55 10.17c-.11.52.74.57.73.92s-.33.21-.48.37 0 .32-.25.42c-.56.07-.74-.23-.73-.73-.24-.36-.54-.63-.76-.93a1.13 1.13 0 01-.23-.45 1.14 1.14 0 000-.45 2.6 2.6 0 00-.87-.62 4.71 4.71 0 01-1-.51c-.17-.14-.25-.38-.39-.48s-.29-.06-.4-.14-.13-.28-.34-.33-.26.1-.33.19c-.14.62.36.66.59.93s.23.47.39.59.4.11.62.2.25.25.4.34.7.19.73.51c-.17.11-.55-.17-.68.11s.15.28.14.45a.57.57 0 01-.59.53c0-.16.15-.3.14-.47 0-.36-.73-.91-1.1-1.07-.17-.08-.38-.09-.53-.17a4 4 0 01-.93-.76c-.2-.27-.37-.76-.82-.74-.18 0-.33.18-.48.26s-.28.13-.42.22a1.07 1.07 0 01-.45.23c-.35 0-.65-.26-1-.2-.1 0-.18.11-.31.23a3.38 3.38 0 010 .45c-.09.15-.36.14-.56.25a4 4 0 00-.79.7c-.15.16-.29.28-.31.4s.08.27.06.39a1.39 1.39 0 01-.45.54c-.1.07-.24.08-.34.14s-.32.3-.51.34c-.49.09-1.39-.1-1.38.42 0 .35.47.35.76.34a4.77 4.77 0 001 0 2.92 2.92 0 00.48-.29.36.36 0 00.28-.08 1.7 1.7 0 01.39-.28 3.82 3.82 0 011-.23H137c.18 0 .35-.12.54-.14s.71.12 1 .11.36-.17.56-.17a.6.6 0 01.51.32.73.73 0 000 .33c.05.12.21.29.2.43s-.46.41-.4.61.36.28.51.37a1.76 1.76 0 00.62.25h.46a2 2 0 01.79.28c.26.18.23.48.53.59a1.79 1.79 0 01.54.06c.41.09.71.43 1 .39.47 0 .26-.5.31-.82.12-.72 1.53-.68 1.81-.19a4.25 4.25 0 01.61.08c.14 0 .24.19.37.23a1.15 1.15 0 00.37 0c.54.06 1 .46 1.49.39.29 0 .51-.32.79-.34.54 0 .88.4 1.46.2.43-.15.34-.59.48-1s.3-.53.31-.76-.08-.67-.14-1c-.52-.31-.91.29-1.44.22-.32 0-.55-.41-.9-.36-.19 0-.28.27-.48.31-.4.07-.58-.32-1-.17a3.12 3.12 0 01-1-2.06c-.33-.43-.83-.08-1.07.2-.17 0-.36-.07-.39.1zM183 34.87c0 .16-.77.21-.93.2s1.22.21 3 .49a.17.17 0 00-.07.13c.1 1 1 1.51 1.63 2s1.07.92 1.61 1.27c0 .09 0 .16.19.2s.17 0 .31 0a1 1 0 01.37.17c-3-.37-7.36-.89-7.06-.62s.42.27.65.47a4.47 4.47 0 01.45.42 6.65 6.65 0 00-1-.11c.33.38.43.82.88 1 .11-.12 0-.25 0-.42s.16-.18.14-.31a.28.28 0 00-.08-.15c2.14.31 7.16 1.13 9 1.35a2.8 2.8 0 00.36.49 2 2 0 01.45.84c0 .17-.11.48-.11.76a4.86 4.86 0 010 .54 3.39 3.39 0 01-.2.53c-.07.21-.08.46-.14.6a1.07 1.07 0 01-.73.56c-.24 0-.34-.18-.57-.17s-.41.34-.62.59c0 .28.11.37.06.56s-.49.35-.48.65a.33.33 0 00.18.26l-1.2-.17a1 1 0 00-1-.31c-.23 0-.34.2-.5.29s-.24 0-.18.08a.42.42 0 00.18-.08h1.51V47c.09.22 0 .47.25.59s.65 0 .82.31c.06.1 0 .24.08.34a2.85 2.85 0 01.25.33l-2.33-.57a1.44 1.44 0 00-.85-.25 6.4 6.4 0 00.85.26c-.11.25-.55.45-.77.72l-3.62-.86a.5.5 0 01.29-.12c.16 0 .28.18.45.14s.27-.41.48-.51c.45-.2 1.07-.06 1.38-.45-.09-.31-.17-.64-.28-1 0-.16-.16-.28-.17-.4a3.17 3.17 0 000-.59 1.52 1.52 0 00-1.23-1c-.34.38.18.73.28 1a1 1 0 01-.4 1.13.46.46 0 00-.34.11c-.12.11-.14.49-.39.59s-.67 0-1 .09a2.19 2.19 0 00-.68.53 9.76 9.76 0 001.6.46c-.24.18-.44.51-.81.39-.13.07-.14.25-.14.43-.49-.06-.76-.08-.73 0s.28.52.53.48.19-.23.2-.44c1 .12 2.9.42 4.76.71a1.13 1.13 0 01.21.12c.2.15.46.56.74.85.11.12.31.2.36.28s.11.41.25.54-.07.19 0 .33.38.17.45.37c-.06.49.14.94-.25 1.13a3.18 3.18 0 01-1 2c-.54.43 3.76 1.56 3.11 1.77-.16 0-.3.23-.45.28-.37.12-1 0-1.07.5 0 .23.29.37.31.6a.72.72 0 01-.51.73.5.5 0 01-.53-.4c0-.33.42-.47.45-.67a.66.66 0 00-.64-.68H189a1.94 1.94 0 00-1.24 1.18c0 .4.6.94.82 1.13.79.7 1.63 1.12 1.49 2.82-.2.43-.7.52-1.1.76s-.41.59-.77.74l-.31-.27a.81.81 0 000-.22c-.08-.2-.48-.3-.73-.51s-.29-.43-.45-.59a3.3 3.3 0 00-.73-.36v-.09c0-.25-.57-.37-.75-.48l.25.21c-.18 0-.11.27-.17.64s-.35.69-.26 1.15c0 .19.28.35.4.54s.22.69.42.87.36.15.51.25a4 4 0 01.87.83.6.6 0 01-.15.09h-.1a1.31 1.31 0 00-.76-.3.39.39 0 00-.22.11h-.24a.3.3 0 00-.05-.2 2.55 2.55 0 00-.62-.9c-.2-.18-.55-.29-.56-.56s.13-.82.11-1.27c0-.09-.07-.19-.08-.31s0-.48 0-.67a3.06 3.06 0 00-.26-.51c-.07-.16-.15-.33-.22-.54s-.24-1-.51-1-.56.53-.93.53a.51.51 0 01-.48-.34c0-.17.09-.34.09-.53 0-.38-.28-.52-.48-.79-.08-.11-.1-.26-.17-.34s-.37-.23-.53-.39a2 2 0 01-.4-.51c-.11-.22-.14-.5-.31-.53s-.34.2-.51.25a3.91 3.91 0 01-.76.14c-.56 0-1-.11-1 .56-.09.31-.41.31-.62.46a7.58 7.58 0 00-.76.84c-.15.14-.35.23-.48.37s-.14.29-.26.39c-.3.28-.75.31-1 .71 0 .46.22.82.16 1.26 0 .2-.17.38-.19.59s.07.38 0 .57-.14.15-.23.28-.11.26-.17.34-.25.2-.34.31-.17.29-.31.31c-.61.09-.77-1.09-1-1.58-.12-.23-.38-.43-.51-.7a9.9 9.9 0 00-.39-1.08 5.32 5.32 0 01-.53-.93c-.11-.26-.19-.6-.29-.9a4.26 4.26 0 01-.22-1c0-.37.07-.59-.23-.74-.27.07-.39.34-.7.34s-1.11-.52-.87-1c-.2-.28-.7-.44-1.08-.76-.21-.19-.41-.64-.78-.68a2 2 0 00-.34.06h-.93a5.82 5.82 0 01-1.18 0l-.91-.11a2.21 2.21 0 01-1-.31c-.12-.12-.17-.48-.39-.54s-.41.15-.65.2a1.61 1.61 0 01-1.3-.34c-.24-.16-.47-.25-.64-.36-.43-.29-.51-1.15-1.16-1.16-.22 0-.58.14-.62.4s.22.51.31.65c.32.44.9.61 1.07 1.21.12 0 .36-.11.48 0s0 .74.25.85c1.18.19 1.51-.45 2-.9.31.2.21.37.31.59a1 1 0 00.48.48c.14 0 .32 0 .54.08a1.64 1.64 0 01.7.76 2.52 2.52 0 01-.48.88c-.11.14-.28.21-.34.33s0 .31-.05.37-.31.26-.45.39-.34.26-.48.37-.29.33-.48.4c-.38.13-.73.07-1 .28s-.21.43-.45.59-.7.17-1.07.34-.39.32-.59.39h-.29c-.18 0-.36.18-.53.22s-.29 0-.43.06c-.43.13-.83.57-1.26.31-.21-.47-.24-1.07-.48-1.49-.12-.22-.36-.28-.45-.51s.21-.13.22-.28c-.07-.31-.36-.45-.53-.71s-.13-.3-.23-.45c-.33-.48-1-.74-1.12-1.35v-.42a1.66 1.66 0 00-.34-.59c-.11-.13-.33-.21-.45-.4a2.83 2.83 0 01-.17-.42 4.6 4.6 0 00-1.13-1.35.76.76 0 00-.59.2 4.6 4.6 0 00.48 1 6.31 6.31 0 01.54.9.72.72 0 00.08.4c.18.44.74.58.85 1.1.07.34 0 .58.08.93s.59.52.79.84a6.31 6.31 0 01.28.87c.17.37.64.52 1 .76a9.81 9.81 0 01.79.79c.15.14.35.16.39.31s-.08.26-.11.43c.21.22.42.64.79.67.14 0 .33-.13.56-.17a.89.89 0 01.34 0c.1 0 .28-.16.45-.19a8 8 0 001-.09c.38-.09.58-.33.85-.25.29.32.08.68 0 1a.54.54 0 01-.06.31c-.15.5-.55.88-.73 1.33-.06.14 0 .3-.11.45a5.55 5.55 0 01-1 1.26 6 6 0 01-.56.57c-.2.16-.45.25-.68.42a6.07 6.07 0 00-1.18 1.24c-.12.17-.18.36-.31.51s-.46.3-.62.5a4.91 4.91 0 00-.33.74c-.16.32-.48.54-.43 1 0 .17.18.28.23.45a1.87 1.87 0 010 .88 2.89 2.89 0 00.56 1.07v1.6c0 .31.15.54 0 .82a2.36 2.36 0 01-.76.84c-.26.17-.67.22-1 .43s-.36.39-.56.56-.79.54-.82.82a2.26 2.26 0 00.17.56 2.42 2.42 0 010 1.46c-.2.49-1.24.39-1.35.91a3.1 3.1 0 010 .45 3 3 0 01-.28.81c-.12.24-.4.34-.59.54s-.34.61-.59.87a8.24 8.24 0 01-1.21 1 3.57 3.57 0 01-1.63.59 4.79 4.79 0 00-1.07 0c-.14 0-.28.14-.46.17a1 1 0 01-.3 0c-.1 0-.35.17-.51.16a1 1 0 01-.85-.87c0-.17.15-.32.14-.48a3.6 3.6 0 00-.39-.73c-.17-.33-.23-.67-.39-.93s-.41-.4-.54-.62a4.08 4.08 0 01-.37-1.46c0-.17-.14-.36-.16-.57s0-.54 0-.76a4.32 4.32 0 00-.34-.53c-.2-.37-.34-.85-.51-1.13s-.48-.54-.5-.84a4.2 4.2 0 010-.79c0-.2.18-.36.23-.57a1.35 1.35 0 000-.45c.15-.64.86-.88.77-1.66 0-.33-.28-.49-.31-.87 0-.18.08-.33.08-.51a2.62 2.62 0 00-.31-.82 6.58 6.58 0 00-.87-1.66c-.23-.25-.52-.44-.71-.67a2 2 0 01-.34-.71c0-.16.13-.26.17-.42s.07-.6.14-.93a2.21 2.21 0 00.17-.76 1.13 1.13 0 00-.67-.76c-.4-.1-.8.13-1.3.08-.43-.27-.39-1-1-1.07a4.3 4.3 0 00-2.2.45 3.12 3.12 0 01-.93.37 5.29 5.29 0 01-.79-.17 5 5 0 00-1.1.06c-.32.06-.61.29-.9.31a2.67 2.67 0 01-1.41-.76c-.2-.17-.42-.3-.61-.45s-.49-.27-.65-.43a3.43 3.43 0 01-.34-.87c-.12-.29-.56-.58-.87-.9s-.79-.59-.85-.9c0-.16.07-.34.06-.51s-.2-.39-.2-.56.3-.44.37-.65 0-.26 0-.39c.08-.29.27-.46.23-.88 0-.16-.16-.32-.17-.53s.1-.23.08-.37-.33-.29-.36-.56.27-.52.45-.85c.08-.14.12-.36.2-.48s.41-.35.53-.59.12-.43.2-.56.31-.26.5-.48.23-.4.34-.48a3.13 3.13 0 01.51-.19 2.21 2.21 0 001.15-1 1.16 1.16 0 01.23-1 1.85 1.85 0 01.59-.74c.35-.2.68-.21.93-.59a1.84 1.84 0 00.31-.7.8.8 0 00-.53-.68c-.26 0-.65.19-.79-.08-.05-.09 0-.3 0-.4s-.19-.31-.2-.45.26-.54.34-.84a4.09 4.09 0 000-1.21c.39-.62 1.27-.32 2.14-.26h.42c.52 0 .93.17 1.1-.28a3.36 3.36 0 00.09-1 2.18 2.18 0 00-.6-.78c-.28-.18-.68-.1-.84-.43.13-.55.75-.09 1.13-.22.19-.07.16-.4.33-.45s.27.11.43.11a2.89 2.89 0 00.76-.34c.18-.12.23-.37.39-.48a2.26 2.26 0 01.37-.11 2 2 0 00.7-.51c.23-.27.34-.62.62-.67s1.23.07 1.3-.34-.35-.7-.2-1.13.42-.27.84-.48c.21.15.15.57.17.82.26 0 .8-.08.85-.31s-.38-.58-.48-.76-.13-.52-.34-.56c-.43-.08-.84.59-1.38.59a1 1 0 01-.82-.54 3.38 3.38 0 010-.45 1.88 1.88 0 01-.12-.78c.22-.37.72-.43 1.07-.63.14-.07.25-.22.4-.28s.62 0 .87-.14.11-.24.23-.42.24-.18.34-.31.07-.23.14-.31c.24-.3.69-.42.87-.73.08-.14-.14-.19-.09-.4s.45 0 .65-.08.54-.38.85-.45a6.69 6.69 0 001-.14 3.4 3.4 0 01.5-.26 1.61 1.61 0 00.31 0c.11 0 .22-.07.37-.08s.46 0 .73 0a3.23 3.23 0 011.24 0c.19.09.17.31.42.4h.48c.28 0 .56.21.93.25h.39a6.86 6.86 0 011.24.39c.33.12 1 .26 1 .57s-.61.48-.88.48c-.44 0-1-.26-1.49-.12a1.19 1.19 0 001.32 1c.06-.3-.35-.14-.31-.43.28-.21.62.15 1 .09.15 0 .13-.27.17-.42a1.32 1.32 0 011.26-.29.32.32 0 01.12-.11c0-.31-.34-.47-.14-.76a.46.46 0 01.7 0c.08.13-.13.17-.11.34a.44.44 0 00.45.25c.27 0 .33-.26.59-.39.11-.06.26-.06.39-.12a2.92 2.92 0 01.43-.22 1.45 1.45 0 01.36 0c.13 0 .34-.17.48-.17s.29.2.51.23l.42-.09h.53c.27 0 .46-.18.68-.17s.43.22.54.12-.25-.32-.12-.48a7.37 7.37 0 011.33.08 18.68 18.68 0 001.83.42c-.06-.39-.5-.27-.71-.45a1.59 1.59 0 01-.31-.59 3.49 3.49 0 01.4-.67 1.1 1.1 0 011.29.08c.16.22.11.54.34.54s.31-.5.54-.51.28.31.48.31.39-.44.7-.45.22.08.48.11-.06-.26 0-.42c.31-.23 1-.06 1.43-.2.12-.13-.14-.23 0-.37a4.23 4.23 0 011.52-.36c.36-.06.7-.31 1-.34s.58.17.85.17a1.45 1.45 0 00.5-.11c.16-.06.27-.22.43-.26a5.89 5.89 0 01.84 0 4.18 4.18 0 01.79-.11c.21 0 .37.25.56.28a17.06 17.06 0 011.75.06c.1 0 .19.13.31.17.36.13.61.09.68.53.28.1.45.36.78.45a2.81 2.81 0 00.71 0 8.37 8.37 0 011 .05c.16 0 .29.15.45.17a2.66 2.66 0 00.4 0c.13 0 .33.09.47.09.3 0 .52-.28.76-.31a2.1 2.1 0 01.43.05 11.06 11.06 0 011.41 0 2.88 2.88 0 01.78.45c.17.13.27.33.43.42a1.58 1.58 0 00.67.23c.18 0 .19-.23.37-.31.56-.13 1.55.18 2 0 .17-.08.14-.26.28-.37.84 0 1.69 0 2.48.06h.17l1 .24a.27.27 0 00-.08.22c0 .5 1.27.45 1.38.93-.21.16-.43 0-.6 0a2.08 2.08 0 00-.84.45c-.19.18-.36.64-.56.68s-.64-.25-1-.17c-.14 0-.27.2-.39.23-.31.05-.71-.17-.9.19.1.26 0 .62.25.76s.31 0 .48.09.31.31.48.45l-2.75-.44c.09-.1.26-.2.3-.35a1 1 0 000-.34c0-.33.29-.65.28-.84a1.15 1.15 0 00-.62-.68c-.16.09 0 .26 0 .4a.56.56 0 01-.42.39c-.53 0-.59-.69-1.44-.48a.71.71 0 00-.45.79c-.16.45.16.58.16.75zm2.93 8.25c.12-.08.25 0 .31-.19 0-.4-.36-.36-.76-.43-.62-.1-1.16-.62-1.44-.56V42c.13.3.34.46.26.78s-.26.29-.26.45.39.52.62.57c.09-.24-.06-.45.2-.51s.48.21.71.17.23-.29.35-.37zm-2.22-1.77c.47-.31-.2-.64-.48-.79-.12.32.18.68.47.79zM174.83 31a1.09 1.09 0 00-.62.22c-.11.06-.33.09-.26.26.27-.04.81-.16.88-.48zm-5.92 13.29c-.11-.21-.41.07-.28.26.19.01.26-.1.28-.26zm-6.56 1.16c.45-.09 0-.82-.34-.73s-.01.79.34.73zm-10.54 29.8c.13-.21.3-.79 0-.93h-.05c-.13.23-.26.8.05.93zm-2.11-3c.11-.21-.18-.34-.22-.56s.06-.57-.17-.71h-.09c-.22.48.09 1.24.48 1.28zM191.34 71.78l-.65-.17a.78.78 0 01.36-.38 1.46 1.46 0 01.29.55zM189 78.1c-1.71-1.76-3.31-3.43-3.21-3.59s.36-.51.51-.73l2.36.52h.09c.18.12.31.39.56.4a.62.62 0 00.4-.2c.89.19 1.68.37 2.24.51.34.29.53.45.49.39a.63.63 0 01-.1-.29c.32.08.5.13.48.15-.22.18-.25.47-.45.65a2 2 0 01-.51.25h-.36c-.12 0-.21.37-.34.67a2.39 2.39 0 01-.79.85 3.09 3.09 0 01-.9.2 2.86 2.86 0 00-.47.22z"/>
    <path class="cls-3" d="M187.58 47a.42.42 0 01-.18.08c-.06-.02.01-.08.18-.08zM189 78.1l.84.87c-1-.35-1.84-.66-1.64-.69a1.2 1.2 0 01.34 0 2 2 0 00.46-.18zM184.26 83.65c-.22-.07 0-.29-.09-.47a2.4 2.4 0 00-.47-.82 3.43 3.43 0 00-.52-.23c1.54.4 6.22 1.53 7.88 2l-.15.16-.11.13a4.79 4.79 0 00-1.26.77 8.74 8.74 0 00-1.77.06c-.2 0 .16.25.7.48a.49.49 0 01-.21.08c-.22 0-.42-.25-.62-.28s-.4.17-.73.17c-.14 0-.21-.08-.4-.14-.4-.13-.84-.12-.9-.57 0-.24.15-.34.14-.56s-.22-.27-.31-.45a.45.45 0 00-.14-.56.64.64 0 01.11-.4 3.88 3.88 0 00-.56.23c-.21.16-.35.45-.59.4zM189.39 72.15a.23.23 0 00-.1.07c-.29 0-.58 0-.65-.24zM189.75 67.17l.53.44a1.32 1.32 0 000 1.22.48.48 0 00-.07.23c0 .21.28.27.34.54a1.15 1.15 0 010 .37l-.38-.09a.51.51 0 00-.52-.39.49.49 0 00-.4.18l-.44-.11c.14-.17.42-.27.44-.44a.87.87 0 00-.17-.51v-.16c.1-.28.42-.34.54-.57s-.06-.33 0-.53a.27.27 0 01.13-.18zM188.25 38.92a1.09 1.09 0 01.22-.41.21.21 0 010 .11.4.4 0 01-.22.3zM188.47 71.94l.41.37h-.1c-.24-.12-.43-.25-.44-.37h.13zM156.52 77.7a1.18 1.18 0 01.36-.73c.26-.2.61-.18.88-.31a2.38 2.38 0 00.67-.51c.14-.18.15-.38.26-.51s.24-.11.33-.22.07-.29.2-.4c.39-.16.51.55.57 1 0 .16.09.32.08.4s-.29.27-.37.42a4.41 4.41 0 01-.5 1.66c-.18.44-.29.92-.45 1.3 0 .14-.17.24-.22.36-.21.48-.28 1.24-.65 1.44a3.06 3.06 0 01-.79.2.82.82 0 01-.73-.57 4.17 4.17 0 010-.5c0-.23-.17-.42-.14-.68.06-.57.62-.85.65-1.32s-.19-.67-.15-1.03zM191.23 68.11c.34.07.74-.35 1.21-.26 0 .39-.5.44-.65.74a3.17 3.17 0 01.21.41l-1.41-1.16a.22.22 0 01.18-.1c.16.02.36.35.46.37zM190.6 71.81l-2.2-.4a.49.49 0 00.09-.33l2.2.53zM188 71.82l.21.05a.46.46 0 01-.21.13.06.06 0 000-.06.24.24 0 000-.12zM185.14 61.33c.18.11.73.23.75.48v.09c-.16-.09-.27-.38-.43-.37h-.05zM188.11 63.85h-.19c-.12 0-.13-.18-.12-.32zM188.33 69.47h.16a.75.75 0 01-.33.07c-.16 0-.32-.17-.52-.27l.26.06a.3.3 0 00.22.2c.1.06.15 0 .21-.06zM192.39 69.77a1.13 1.13 0 01-.09.59c-.09.1-.45-.13-.62-.37.14-.21.24-.42.52-.45a1.37 1.37 0 00.19.23zM107.54 36.29c0 .16-.56.42-.62.12a.22.22 0 01.11-.23c.15-.09.5-.04.51.11zM153.67 33.39c-.08-.3.5-.25.4 0a.3.3 0 01-.4 0z"/>
    <path class="cls-3" d="M185.87 61.9l-.46-.4h.05c.14.02.25.31.41.4zM192.24 69.54c-.09-.16-.15-.33-.23-.51l.89.73a1.3 1.3 0 00-.66-.22zM185.93 65.71a.65.65 0 00-.16.44 1.19 1.19 0 00-.07-.48zM187.24 73.2c0-.25.25-.3.48-.39s0-.21 0-.34.17-.24.23-.36l.8.18.16.08 1.23 1.1a2.44 2.44 0 01-.14.53 1.72 1.72 0 01-.33.51l-1-.23-.19-.08c-.1-.06-.26-.25-.45-.37s-.79-.3-.79-.63z"/>
    <path class="cls-3" d="M191.68 70c-.2-.3-.35-.7-.48-.9-.26 0-.22.58-.27 1-.19-.12-.17-.46-.23-.65s-.29-.3-.42-.56a1.14 1.14 0 00.18-.3c.07-.19 0-.49.16-.66L192 69c.08.18.14.35.23.51-.31.06-.41.27-.55.49zM187.42 48.78c2.62.63 5.24 1.26 5.25 1.36s-2.5-.3-5.06-.69c-.17-.09-.32-.17-.32-.35a.48.48 0 01.13-.32zM192.75 40.93h-.64c-.06-.13-.06-.25.08-.3s.48.21.56.3zM95.82 62.46c-.09-.28-.36.1-.06.11zm3.72-17.27c-.13.16-.28.29-.4.43s-.67 1-.22 1a1.06 1.06 0 00.62-.51 1.68 1.68 0 01.76-1.11c.23-.14.47-.13.5-.43-.11-.13-.74 0-.92.14s-.21.29-.34.48zm-15.72-6.3c-.08 0-.18 0-.17.08a.12.12 0 00.17 0 .12.12 0 010-.08zm17.38 5.26c.56-.24-.11-1-.37-1-.45-.12-1.1.34-1.63.48-.3.08-.58.09-.65.34.27.44.8-.1 1.19 0 .19 0 .31.3.5.34a6.41 6.41 0 00.96-.16zm.42 1.75c.29 0 .44-.72.82-.79.14 0 .21.08.39.06a.35.35 0 000-.49.42.42 0 00-.16-.11 2.38 2.38 0 01-.37.06c-.15 0-.31-.16-.45-.17a.66.66 0 00-.53.2c0 .17.12.19.11.37-.22.19-.08.85.19.87zm-1 5.46c-.54.32-1.19.69-1.18 1.5 0 .17.09.36.11.56a2.24 2.24 0 010 .37c0 .29.24.66 0 .87a3.41 3.41 0 01-1.13-.48c-.07-.28.15-.51.11-.76a.87.87 0 00-.47-.59c-.18 0-.33.15-.51.14s-.41-.31-.68-.34a6.9 6.9 0 01-1.12 0c-.43.23-.55.63-1.07.59a3.85 3.85 0 01-.57-.2 3.76 3.76 0 00-.81-.11 3.38 3.38 0 00-1.24.59c-.37.19-.88.43-1 .82-.06.21 0 .51-.08.7a2.85 2.85 0 01-.23.37 2.85 2.85 0 00-.34 2.17 6.13 6.13 0 00.48 1 1.69 1.69 0 00.82.39 4.69 4.69 0 00.65-.14 1.65 1.65 0 00.73-.11c.61-.2.49-1 1.1-1.3a3.09 3.09 0 011-.17.65.65 0 01.2.54c0 .14-.16.27-.23.48s-.08.39-.14.53-.27.33-.34.51 0 .26 0 .36-.32.32-.2.51c.6.24 1.33-.07 1.86 0 .22 0 .68.3.67.65s-.2.42-.22.7-.18.79-.2 1.07a1.57 1.57 0 001.18 1.27c.54 0 .85-.53 1.5-.26.21.1.44.44.67.43s.49-.36.62-.59.17-.53.45-.68.54-.08.93-.23a2.31 2.31 0 00.48-.28c.14-.09.28-.34.45-.17s-.27.35-.08.6c.39.2.59-.39.87-.4a2.26 2.26 0 01.56.28c.22.15.3.35.54.4s.4-.06.62 0 .46.29.67.28.4-.3.62-.34a.74.74 0 01.9.37c.25 0 .26-.29.48-.17-.12.25 0 .36.14.56s.06.23.12.29.39.12.59.25a3.59 3.59 0 01.56.65 1.67 1.67 0 001 .59c.31 0 .56-.09.82-.06a2.56 2.56 0 011.35.68c.22.17.43.29.5.5s0 .35.09.51c.12.35.63.52.45 1.13.08.18.27.24.48.36s.3.31.48.34a1.82 1.82 0 00.33 0 2.62 2.62 0 01.82.26 2.78 2.78 0 01.51.17c.14.09.16.42.34.5s.37 0 .56 0 .71.22 1 .23.3-.07.45-.06c.69 0 1.08.88 1.74 1.13.21.08.54 0 .68.08a2.78 2.78 0 01.48 1.21c0 1-.73 1.36-1.19 2-.09.14-.14.37-.28.57-.27.39-.57.48-.53 1.21 0 .2.11.39.11.62a4.27 4.27 0 01-.08.87c0 .19-.21.34-.23.51a3.38 3.38 0 000 .45 2.77 2.77 0 01-.31.62c-.26.48-.32 1-.85 1.24-.31.11-.73 0-1.07.17-.13 0-.31.17-.48.25-.49.23-1.18.53-1.32 1s.17.81.08 1.32a4.07 4.07 0 01-.33.48c-.12.16-.18.35-.31.51s-.44.31-.54.59v.37c0 .16-.12.14-.17.25s0 .23-.09.31c-.13.26-.51.85-.79.93-.58.17-1.2-.25-1.6-.17.06.28.26.25.39.45a3.18 3.18 0 00.23.4c.12.14.24.2.25.36a1 1 0 01-.42.82 2.38 2.38 0 01-.82.22c-.21 0-.74 0-.84.17s.07.68 0 .88c-.21.41-.78 0-1.07.11a.53.53 0 00.22.53c.18.11.45 0 .57.17-.06.28-.36.32-.42.6s.09.33 0 .5c-.07.36-.63.35-.62.73 0 .58 1.11.35 1.13.91 0 .34-.31.34-.42.67-.06.18 0 .22 0 .37s-.29.26-.29.48.4.56.59.79a3.23 3.23 0 00.71.67c.39.22 1 .17 1.15.57 0 .23-.28.29-.5.36h-.06a.61.61 0 00-.42 0h-.4c-.37-.17-.83-.29-1.29-.45-.17-.06-.36-.2-.54-.28s-.29-.09-.39-.14-.52-.54-.76-.71a3.62 3.62 0 01-.48-.25c-.09-.1-.14-.3-.23-.42s-.25-.23-.36-.37a2.56 2.56 0 01-.54-1c0-.22.22-.37.14-.59s-.5-.15-.56-.39.13-.39.11-.59-.22-.28-.14-.45.29 0 .45-.09c-.12-.4 0-1.06-.39-1.18-.21.17.21.57-.14.67-.34-.15-.26-.6-.34-.92a3.66 3.66 0 01-.17-.65 2.67 2.67 0 000-.4c-.06-.38-.48-.69-.51-1.07a3.79 3.79 0 01.14-.53 2.05 2.05 0 000-.43c0-.15.13-.34.14-.5a4.05 4.05 0 000-1.1c-.07-.33-.33-.6-.37-1v-.5c0-.16-.1-.31-.11-.48a4.34 4.34 0 010-.51 5.78 5.78 0 010-1.1c0-.1.06-.18 0-.28 0-.29-.1-.58-.11-.87a8.3 8.3 0 000-1.41 4.39 4.39 0 00-.28-1.19 3.78 3.78 0 00-1-.87c-.2-.11-.43-.15-.65-.25-.46-.23-1.35-.7-1.55-1.16-.06-.13 0-.3-.11-.45a5.07 5.07 0 00-.56-.81c-.35-.54-.63-1.2-1-1.75a8.82 8.82 0 00-.53-.82c-.12-.13-.49-.25-.54-.45a3.15 3.15 0 01-.23-.82c0-.2.57-.48.57-.73s-.28-.33-.34-.5c-.14-.43.08-.69.25-1 .06-.11.11-.3.17-.39s.32-.2.45-.37.13-.29.23-.42.56-.39.65-.65a5.36 5.36 0 000-1.6c0-.2-.23-.37-.31-.57s-.15-.71-.5-.7-.37.24-.51.39 0 .42-.22.48-.45-.33-.82-.45a.9.9 0 01-.48-.08c-.27-.12-.36-.52-.65-.68s-.44-.08-.59-.28a2.62 2.62 0 010-.56c-.31-.18-.57-.86-.93-1s-.6-.09-.9-.19a3 3 0 00-.39-.14 4.7 4.7 0 01-.51-.12c-.51-.27-.79-1.15-1.5-1.15-.29 0-.58.28-.84.28a3.26 3.26 0 01-1-.37c-.34-.16-.73-.24-1-.39s-.39-.33-.59-.42-.38-.08-.51-.14a4.94 4.94 0 01-.59-.43c-.21-.14-.44-.37-.45-.56s.2-.41.22-.62c.08-.67-.42-1.15-.73-1.55s-.5-.54-.73-.82a2.54 2.54 0 000-.39 4.83 4.83 0 01-.51-.68c-.16-.23-.49-.47-.53-.73s.12-.59 0-.9c-.2-.51-.91-.28-.82.39 0 .19.29.44.37.62s.06.43.14.65.29.41.36.65a7.33 7.33 0 00.23 1c.11.2.45.42.25.68-.26 0-.37-.21-.53-.37s-.43-.25-.48-.45.1-.39.06-.59c-.1-.4-.9-.41-.91-.82 0-.25.34-.28.34-.53s-.37-.5-.45-.73a4.82 4.82 0 01-.11-.85 5.66 5.66 0 00-.06-.82 1.36 1.36 0 00-.53-.56c-.25-.14-.44-.08-.57-.28a2.32 2.32 0 01-.19-.73v-1.07a5.06 5.06 0 010-1.1c.14-.27.39-.41.53-.68s.12-.42.23-.62a9.18 9.18 0 011-1.07 4.93 4.93 0 00.81-1.21 1.93 1.93 0 00.23-.7c0-.27-.55-.5-.51-.82s.31-.2.4-.39a2.26 2.26 0 00.08-.51 4 4 0 01-.08-.85c0-.24.41-.34.22-.62s-.52.15-.73 0 0-.36.06-.65c0-.12-.07-.25-.06-.34s.26-.34.2-.42-.33-.68-.65-.85a6.91 6.91 0 00-1.44-.17c-.35-.06-.52-.39-.84-.36s-.32.24-.59.36a4.66 4.66 0 01-.91.14c-.26.07-.39.25-.67.23s-.24-.23-.51-.25a4 4 0 00-.48.08 6.59 6.59 0 01-1.66 0 4.46 4.46 0 01-1.1-.42c-.33-.16-1-.35-.93-.59s.59-.33.82-.4a5.18 5.18 0 01.65-.26 2.76 2.76 0 00.4.06c.14 0 .32-.14.5-.17.4 0 1 0 .91-.36-.3-.24-1.52.17-1.55-.34 0-.31.46-.41.81-.48a5.85 5.85 0 011.1-.17c.32 0 .75.38.93 0s-.11-.53-.17-.76c.24-.33.68-.29 1-.34a3.93 3.93 0 001.07-.28 3.93 3.93 0 011.07-.28 8.73 8.73 0 001.09-.23 7.52 7.52 0 00.82 0 3.34 3.34 0 01.76-.17c.18 0 .33.14.51.17a3.13 3.13 0 00.53 0c.17 0 .26.12.4.14s.44 0 .65 0 .35.14.53.17h1.35a3.21 3.21 0 01.48.14 2.9 2.9 0 00.51 0c.16 0 .41.26.65.28a8.81 8.81 0 001.45-.21 8.39 8.39 0 001-.06c.32-.06.62-.18.9-.2a3.09 3.09 0 00.43 0c.14 0 .32-.19.47-.17s.18.3.4.37c.24-.13.49 0 .76 0a3.47 3.47 0 01.79-.08c.51.08 1.23.58 1.63.31.1-.07.08-.19.17-.37s.37-.53.31-.87c-.56 0-1.1.28-1.75.31-.65-.41.18-.66.65-.85s.7-.49 1.18-.56a5.18 5.18 0 011.3.14h.7c.23 0 .42.35.65.42s.26 0 .4.06a.75.75 0 00.73 0c.2 0 .22.24.42.28s.33-.36.62-.43h.39c.13 0 .54-.34.68 0-.06.2-.36.23-.53.39s-.39.47-.37.62.44.17.45.51-.29.11-.48.2-.24.24-.42.28a9.17 9.17 0 01-1.38-.11c0 .19.22.3.34.36a2.48 2.48 0 001.29.17c.29 0 .63.09.88-.08s.14-.35.28-.48a1.07 1.07 0 01.76-.28.38.38 0 01.31.28c0 .11-.36.17-.37.45.24.14.87-.16.9-.4s-.2-.27-.19-.45.41-.29.36-.59-.39 0-.59 0-.53-.38-.65-.59c.12-.15.38-.05.57 0a1.44 1.44 0 011.12-.45c.19 0 .45-.09.54.09s-.4.42-.31.73c.38.09.5-.42.82-.62a3.54 3.54 0 01.53-.23c.17-.06.36-.23.51-.22s.18.13.33.19.32 0 .37.15c-.33.56-1.54.24-1.86.81.07.39-.19.76 0 1s.51.06.59.25-.34.26-.22.56c.29.18.65-.17.92-.31s.68-.32.71-.67c-.15-.29-.7-.07-.79-.37a1 1 0 01.23-.59 3.12 3.12 0 012-.73 3.25 3.25 0 01.42.11c.49.05 1.06-.21 1.44 0 .31-.18.67 0 1.1 0 .33.19.24.61.73.79a1.43 1.43 0 01.48.06 3.33 3.33 0 01.42.25c.15.07.38.07.43.23s-.16.24-.15.39a.68.68 0 00.09.39c.09.14.43.25.73.37s.67.36.65.56-.43.39-.56.45a2.42 2.42 0 01-.74.26c-.26 0-.37-.58-.73-.57a.31.31 0 00-.31.31c0 .37.42.39.42.71s-.21.41-.53.65a2.13 2.13 0 00-.73-.26c-.18.22.29.29.14.57a2.41 2.41 0 01-1.21-.26 3 3 0 01-.43-.08c-.16-.09-.2-.37-.33-.51a1.26 1.26 0 00-.71-.39c-.35 0-.85.43-1.13 0 .2-.64 1.1-.16 1.7-.39.22-.08.29-.32.47-.42.37-.21 1-.24.91-.65 0-.21-.32-.2-.48-.31s-.39-.65-.71-.68c-.16 0-.28.13-.45.15-.36 0-.77-.15-1.1 0-.15.08 0 .22-.17.39s-.33.17-.42.31-.08.35-.22.48a3.2 3.2 0 01-1 .34c-.13 0-.29.19-.42.19s-.33-.31-.59-.19c0 .3.32.42.53.56a1.19 1.19 0 01.57.56c-.23.49-.6 0-1 0s-1 .77-1.32.15c.08-.33.44-.38.53-.71-.4.07-.74.4-1.21.51a1.29 1.29 0 00-.56.08c-.34.1-.58.35-.93.48a.81.81 0 00-.45.09 7.27 7.27 0 00-1.1.5 7.72 7.72 0 00-1 .59c-.12.11-.43.48-.42.6s.33.22.34.39-.18.33-.06.48.35 0 .59.06c.43 0 .71.4 1 .59a2.92 2.92 0 00.91.33c.38 0 .82-.11.87.2s-.37.41-.39.59c.2.28-.15.41-.15.65a.6.6 0 00.45.51 1 1 0 00.82-.57c.14-.33.08-.79.34-1 1.31 0 2.42-.59 2.34-1.94a1.74 1.74 0 01-.06-.45c0-.22.42-.4.37-.68.37-.11.35-.7.73-.79s.68.23 1.1.2c.13 0 .31-.13.45-.11s.44.38.65.53.37.1.42.29-.28.32-.25.61a.58.58 0 00.42.48 1.32 1.32 0 00.7-.17c.38-.17.7-.71 1-.64s.44.84.47 1.12a7.48 7.48 0 010 .82c0 .48.63.43.93.68.09.07.12.26.19.36s.32.19.34.4c0 .48-.44.52-.39 1.07-.1.21-.36.2-.34.48 0 .44.67.1.84.45.1.18 0 .32-.08.59.22.26.22.67-.17.67-.23 0-.3-.25-.53-.31s-.32 0-.48-.05l-.45-.09c-.35 0-.73.06-.93-.14a9 9 0 011.21-1.26c.13-.12.4-.2.34-.43-.24-.21-.54 0-.76.14a2.59 2.59 0 01-.79.37c-.47.07-1.09-.14-1.47.11-.05.21.43.13.37.45a.55.55 0 01-.51-.08c-.13-.12-.05-.3-.14-.37a1.74 1.74 0 00-.93-.11.66.66 0 00-.59.48c.36.16.94-.17 1.07.25-.2.35-.65.55-.59 1a.63.63 0 00.39.45c.16 0 .25-.13.4-.12s.12.2.31.17.42-.49.73-.48c.37.46-.34.68-.73.82s-1 .25-1.38.4c-.18.07-.86.73-1 .22s.34-.26.42-.56a2.25 2.25 0 00-1.24.34c-.56.21-1.52.35-1.66 1 0 .13.06.37 0 .45s-.47.08-.65.14-.5.29-.67.34-.32 0-.4.06a6.18 6.18 0 01-.56.59c-.11.08-.34.14-.42.22s-.17.51-.42.57-.3-.13-.46 0a3.51 3.51 0 010 1.21 8.19 8.19 0 01-1.13.7c-.24.14-.45.17-.73.31s-.29.29-.52.42zm3.69-5.71c-.12-.12-.5-.09-.76-.06s-.41.06-.43.2c.29.13 1.09.21 1.18-.14zm-1.86.64c-.4-.14-.77.1-1.1.14s-.55 0-.51.26.41.15.62.08a2.57 2.57 0 001-.48zM99.51 34c.09-.06.24-.14.17-.28a5.68 5.68 0 00-1.3-.08c-.26-.37-.69-.43-.73.17.53.4 1.35-.22 1.86.19zm-2.23 7.47c.32 0 .53-.94 0-.82-.35.06-.43.81 0 .8zm-2.81-4.56c.16-.06.38 0 .42-.2-.13-.11-.27-.25-.42-.25s-.3.17-.51.28-.57.15-.59.36a2 2 0 001.1-.21zm-.14-2a.69.69 0 00.48-.11c-.14-.63-1-.25-1.5-.2a1.55 1.55 0 00-.28.56c.39.05.86-.23 1.3-.3zm-9.69 8.22c.13-.13-.06-.42-.26-.31 0 .06 0 .3.26.26zm28.81-8.5c.14 0 .22 0 .2-.17s-.31 0-.2.12zm-3.24-2.76a.14.14 0 00-.17 0V32a.13.13 0 00.17-.08.11.11 0 000-.08zm-7.43 31.82c.22 0 .16-.54-.12-.42s-.09.41.12.37z"/>
    <path class="cls-3" d="M191.51 70.21a.44.44 0 01-.15.12 2.44 2.44 0 00-.54 0 .52.52 0 00.1-.27zM188.33 69.47c-.06.06-.11.12-.21.09a.3.3 0 01-.22-.2zM188.78 66.38l.58.47-1.1-.21.11-.08a1.65 1.65 0 01.41-.18zM186.92 67.54c.23.06.5.09.75.16a.56.56 0 01-.09.17 2 2 0 01-.66-.33zM191.13 85a2.07 2.07 0 01-.31.79c-.1.15-.42.29-.42.51a.35.35 0 00.18.29c-.54-.22-1.46-.56-2.11-.84a5.9 5.9 0 01.69-.4 3.24 3.24 0 01.82-.11c.43 0 .59-.47.82-.8l.22-.06c-.02.25.12.46.11.62zM190 66.63l.08.08-.25-.07-.21-.1zM188.31 87a1.67 1.67 0 01-.23.51l-1.56.07a4.16 4.16 0 01.16-.5c.2-.39.41-.13.73-.08s.64-.25.9 0zM190 66.63c.5.11.94.21 1.22.29a.83.83 0 00-.22.08 3.43 3.43 0 00-.52-.23l-.43-.1zM191.65 48.14a1.49 1.49 0 01.37.79c0 .27-.82.66-1.16.56s-.2-.4-.28-.68a.35.35 0 00-.06-.14l1.16.31a.29.29 0 00.13 0h-.13c-.14-.09-.2-.29-.41-.38s-.65-.05-.62-.36.3-.2.45-.31a1.07 1.07 0 00.18-.19 3.51 3.51 0 01.37.4zM191.1 80.32L189.8 79a18.19 18.19 0 012 .81c-.21.13-.45.32-.7.51zM188.88 72.31l.06.06-.16-.08zM95.76 62.57c-.3 0 0-.39.06-.11zM188.47 71.94h-.13v-.08zM186.46 70.23l.44.48-.9-.21a.74.74 0 000-.21c-.09-.16-.33-.18-.42-.37s0-.19 0-.28a1.15 1.15 0 01-.14-.51 5.91 5.91 0 01.66.56 3.17 3.17 0 00.36.54zM187.69 71.76a4 4 0 01-.5.09 1.57 1.57 0 01-.43-.09.72.72 0 00-.14-.24zM190.05 39.38a1 1 0 01-.37.14 1.49 1.49 0 01-.56-.25zM188.61 66.24l-1.05-.87a.93.93 0 01.26-.33c.18-.12.34-.12.48-.23a1.28 1.28 0 00.37-.49l1.14 1a.83.83 0 00-.16.68 2.74 2.74 0 00.17.48l-.6-.12h-.14z"/>
    <path class="cls-3" d="M189.57 66.54l-.77-.17a1.31 1.31 0 01.28 0h.16a2.06 2.06 0 01.33.17zM188 71.5h-.18l-.35-.27.3.06zM190.84 72.75l-.09.09a1 1 0 01-.43-.21zM190.72 72.05h-.21l.09-.27h.22a.2.2 0 00-.15.12.44.44 0 00.05.15zM190.86 72.73a3.24 3.24 0 00-.53-.16l.09-.19h.18a.38.38 0 01.26.35zM190.48 70.31a1 1 0 00.34 0 .21.21 0 01-.24 0zM190.32 72.59a3.24 3.24 0 01.53.16l-.52-.12zM189.79 32a.38.38 0 00-.13.09 1.09 1.09 0 00-.41-.22 3.53 3.53 0 00-.65 0 9.2 9.2 0 01-1.45-.41 5 5 0 012.11.17 3.87 3.87 0 01.53.37zM191.08 84.16c.44.13.67.22.55.23a4.86 4.86 0 00-.54 0H191a.67.67 0 010-.2zM190.76 80.57l.34-.25.26.27v.12a3.11 3.11 0 01-.22.4 1.22 1.22 0 01-.32.28 5.47 5.47 0 00-.7.16 10.33 10.33 0 00-1 .74 3 3 0 01-1.18.53c-.42 0-1.19-.23-.68-.62a8.17 8.17 0 01.93-.48 20.36 20.36 0 002.57-1.15zM111.42 34.07c-.06-.26.62-.58.82-.25s-.74.57-.82.25zM189.63 71.8c.22 0 .41 0 .47.21a2.18 2.18 0 01-.47-.21z"/>
    <path class="cls-3" d="M187.14 71.15c.05.08 0 .16 0 .28.31.17.82.15 1 .44l-.21-.05a.3.3 0 00-.26-.06l-1.07-.24c-.07-.1-.16-.2-.22-.3a3.66 3.66 0 01-.4-.57v-.15l.94.21a4.6 4.6 0 00.56.52l-.32-.08s-.07-.01-.02 0zM187.16 65.82a.12.12 0 00.06.1H187a.54.54 0 00.16-.1zM192.74 32.39a2.84 2.84 0 01-1.57-.28 5.21 5.21 0 01.79 0c.13 0 .25.06.34.06s.24-.11.38-.15a.78.78 0 01.06.37zM191.36 80.59l.21.22-.36.21-.1.09a3.11 3.11 0 00.22-.4zM184.82 43.32c-.26.06-.11.27-.2.51a.76.76 0 01-.62-.57c0-.26.21-.26.26-.45s-.13-.48-.26-.78v-.09c.28-.06.82.46 1.44.56.4.07.74 0 .76.43-.06.14-.19.11-.31.19s-.25.34-.39.37-.45-.22-.68-.17zM183.22 40.56c.28.15.95.48.48.79-.29-.11-.59-.47-.48-.79zM193 69.82l-.1-.07zM192.88 67.88l-.32-.26a1.59 1.59 0 01.32.26zM185.19 71.51c0 .24-.38.21-.42.06s.37-.24.42-.06zM195.24 78.32c.17 0 .4-.17.54 0a1.19 1.19 0 01-.54.59c-.12 0-.27 0-.39.08s-.36.34-.57.51a7.06 7.06 0 01-.64.42c-.2.13-.47.38-.71.2 0-.33.37-.33.45-.59s-.17-.22-.17-.42c.4-.35 1-.59 1.1-1.3 0-.31-.21-1 .17-1s.2.45.23.7c0 .1.11.17.17.31s.12.43.36.5z"/>
    <path class="cls-4" d="M182.85 48.74c1 .12 2.9.42 4.76.71 2.56.39 5.06.78 5.06.69s-2.63-.73-5.25-1.36l-3.62-.86M182.85 48.74c0 .21 0 .41-.2.44s-.38-.28-.53-.48c-.03-.04.24-.02.73.04z"/>
    <path class="cls-4" d="M183.8 47.92c-.24.18-.44.51-.81.39-.13.07-.14.25-.14.43M183.8 47.92a9.76 9.76 0 01-1.6-.46 2.19 2.19 0 01.68-.53c.37-.09.75 0 1-.09s.26-.49.39-.59.25-.06.34-.11A1 1 0 00185 45c-.1-.31-.62-.66-.28-1a1.51 1.51 0 011.28 1 5.87 5.87 0 00-.05.59c0 .2.12.24.17.4.11.34.19.67.28 1-.31.39-.93.25-1.38.45-.21.1-.27.46-.48.51s-.29-.14-.45-.14a.44.44 0 00-.29.11zM102.66 63.22c.28-.12.34.39.12.42a.23.23 0 01-.12-.42zM95.82 62.46l-.06.11c-.3-.01-.03-.39.06-.11zM102.44 46.29a2.72 2.72 0 01-1 .48c-.21.07-.58.16-.62-.08s.31-.23.51-.26a2.09 2.09 0 011.11-.14zM104.3 45.65c-.09.37-.89.27-1.19.14 0-.14.24-.18.43-.2s.64-.06.76.06zM100.8 44.6c0 .3-.27.29-.5.43a1.7 1.7 0 00-.76 1.12c0 .15-.43.55-.62.51-.45-.09.12-.92.22-1a3.51 3.51 0 00.4-.43c.13-.16.21-.36.34-.45s.81-.31.92-.18zM102.83 45.17c-.18 0-.25-.08-.39-.06-.38.07-.53.81-.82.79s-.41-.68-.14-.87c0-.18-.12-.2-.11-.37a.66.66 0 01.53-.2c.14 0 .29.16.45.17s.28-.08.37-.06a.35.35 0 01.22.44.31.31 0 01-.11.16zM98.55 43.93c.07-.25.35-.26.65-.34.53-.14 1.18-.6 1.63-.48.26.07.93.8.37 1a5.55 5.55 0 01-1 .09c-.19 0-.31-.31-.5-.34-.35-.03-.88.51-1.15.07zM84.64 43.08a.27.27 0 01-.26-.31c.2-.11.39.23.26.31zM97.28 40.63c.53-.12.32.81 0 .82s-.35-.74 0-.82zM83.82 38.89V39a.12.12 0 01-.17 0c-.01-.13.09-.12.17-.11zM94.89 36.69c0 .17-.26.14-.42.2a2 2 0 01-1.1.19c0-.21.35-.24.59-.36s.3-.29.51-.28.29.14.42.25zM113.65 34.41c0 .14-.06.18-.2.17s.07-.26.2-.17zM94.81 34.75c-.12.16-.3.08-.48.11-.44.07-.91.35-1.3.25a1.55 1.55 0 01.28-.56c.5-.05 1.36-.43 1.5.2zM99.68 33.7c.07.14-.08.22-.17.28-.54-.39-1.33.23-1.86-.19 0-.6.47-.54.73-.17a5.68 5.68 0 011.3.08zM110.21 31.82a.14.14 0 01-.14.12v-.11a.14.14 0 01.14-.01z"/>
    <path class="cls-4" d="M110.49 97.3c-.37-.17-.83-.29-1.29-.45-.17-.06-.36-.2-.54-.28s-.29-.09-.39-.14-.52-.54-.76-.71a3.62 3.62 0 01-.48-.25c-.09-.1-.14-.3-.23-.42s-.25-.23-.36-.37a2.56 2.56 0 01-.54-1c0-.22.22-.37.14-.59s-.5-.15-.56-.39.13-.39.11-.59-.22-.28-.14-.45.29 0 .45-.09c-.12-.4 0-1.06-.39-1.18-.21.17.21.57-.14.67-.34-.15-.26-.6-.34-.92a3.66 3.66 0 01-.17-.65 2.67 2.67 0 000-.4c-.06-.38-.48-.69-.51-1.07a3.79 3.79 0 01.14-.53 2.05 2.05 0 000-.43c0-.15.13-.34.14-.5a4.05 4.05 0 000-1.1c-.07-.33-.33-.6-.37-1V84c0-.16-.1-.31-.11-.48a4.34 4.34 0 010-.51 5.78 5.78 0 010-1.1c0-.1.06-.18 0-.28 0-.29-.1-.58-.11-.87a8.3 8.3 0 000-1.41 4.39 4.39 0 00-.28-1.19 3.78 3.78 0 00-1-.87c-.2-.11-.43-.15-.65-.25-.46-.23-1.35-.7-1.55-1.16-.06-.13 0-.3-.11-.45a5.07 5.07 0 00-.56-.81c-.35-.54-.63-1.2-1-1.75a8.82 8.82 0 00-.53-.82c-.12-.13-.49-.25-.54-.45a3.15 3.15 0 01-.23-.82c0-.2.57-.48.57-.73s-.28-.33-.34-.5c-.14-.43.08-.69.25-1 .06-.11.11-.3.17-.39s.32-.2.45-.37.13-.29.23-.42c.21-.28.56-.39.65-.65a5.36 5.36 0 000-1.6c0-.2-.23-.37-.31-.57s-.15-.71-.5-.7-.37.24-.51.39 0 .42-.22.48-.45-.33-.82-.45a.9.9 0 01-.48-.08c-.27-.12-.36-.52-.65-.68s-.44-.08-.59-.28a2.62 2.62 0 010-.56c-.31-.18-.57-.86-.93-1s-.6-.09-.9-.19a3 3 0 00-.39-.14 4.7 4.7 0 01-.51-.12c-.56-.31-.86-1.22-1.55-1.22-.29 0-.58.28-.84.28a3.26 3.26 0 01-1-.37c-.34-.16-.73-.24-1-.39s-.39-.33-.59-.42-.38-.08-.51-.14a4.94 4.94 0 01-.59-.43c-.21-.14-.44-.37-.45-.56s.2-.41.22-.62c.08-.67-.42-1.15-.73-1.55s-.5-.54-.73-.82a2.54 2.54 0 000-.39 4.83 4.83 0 01-.51-.68c-.16-.23-.49-.47-.53-.73s.12-.59 0-.9c-.2-.51-.91-.28-.82.39 0 .19.29.44.37.62s.06.43.14.65.29.41.36.65a7.33 7.33 0 00.23 1c.11.2.45.42.25.68-.26 0-.37-.21-.53-.37s-.43-.25-.48-.45.1-.39.06-.59c-.1-.4-.9-.41-.91-.82 0-.25.34-.28.34-.53s-.37-.5-.45-.73a4.82 4.82 0 01-.11-.78 5.66 5.66 0 00-.06-.82 1.36 1.36 0 00-.53-.56c-.25-.14-.44-.08-.57-.28a2.32 2.32 0 01-.19-.73V48.5a5.06 5.06 0 010-1.1c.14-.27.39-.41.53-.68s.12-.42.23-.62a9.18 9.18 0 011-1.07 4.93 4.93 0 00.81-1.21 1.93 1.93 0 00.23-.7c0-.27-.55-.5-.51-.82s.31-.2.4-.39a2.26 2.26 0 00.08-.51 4 4 0 01-.08-.85c0-.24.41-.34.22-.62s-.52.15-.73 0 0-.36.06-.65c0-.12-.07-.25-.06-.34s.26-.34.2-.42-.33-.68-.65-.85a6.91 6.91 0 00-1.44-.17c-.35-.06-.52-.39-.84-.36s-.32.24-.59.36a4.66 4.66 0 01-.91.14c-.26.07-.39.25-.67.23s-.24-.23-.51-.25a4 4 0 00-.48.08 6.59 6.59 0 01-1.66 0 4.46 4.46 0 01-1.1-.42c-.33-.16-1-.35-.93-.59s.59-.33.82-.4a6.52 6.52 0 01.73-.29 2.76 2.76 0 00.4.06c.14 0 .32-.14.5-.17.4 0 1 0 .91-.36-.3-.24-1.52.17-1.55-.34 0-.31.46-.41.81-.48a5.85 5.85 0 011.1-.17c.32 0 .75.38.93 0s-.11-.53-.17-.76c.24-.33.68-.29 1-.34a3.93 3.93 0 001.07-.28 3.93 3.93 0 011.07-.28 8.73 8.73 0 001.09-.23 7.52 7.52 0 00.82 0 3.34 3.34 0 01.76-.17c.18 0 .33.14.51.17a3.13 3.13 0 00.53 0c.17 0 .26.12.4.14s.44 0 .65 0 .35.14.53.17h1.35a3.21 3.21 0 01.48.14 2.9 2.9 0 00.51 0c.16 0 .41.26.65.28a8.81 8.81 0 001.45-.21 8.39 8.39 0 001-.06c.32-.06.62-.18.9-.2a3.09 3.09 0 00.43 0c.14 0 .32-.19.47-.17s.18.3.4.37c.24-.13.49 0 .76 0a3.47 3.47 0 01.79-.08c.51.08 1.23.58 1.63.31.1-.07.08-.19.17-.37s.37-.53.31-.87c-.56 0-1.1.28-1.75.31-.65-.41.18-.66.65-.85s.7-.49 1.18-.56a5.18 5.18 0 011.3.14h.7c.23 0 .42.35.65.42s.26 0 .4.06a.75.75 0 00.73 0c.2 0 .22.24.42.28s.33-.36.62-.43h.39c.13 0 .54-.34.68 0-.06.2-.36.23-.53.39s-.39.47-.37.62.44.17.45.51-.29.11-.48.2-.24.24-.42.28a9.17 9.17 0 01-1.38-.11c0 .19.22.3.34.36a2.48 2.48 0 001.29.17c.29 0 .63.09.88-.08s.14-.35.28-.48a1.07 1.07 0 01.76-.28.38.38 0 01.31.28c0 .11-.36.17-.37.45.24.14.87-.16.9-.4s-.2-.27-.19-.45.41-.29.36-.59-.39 0-.59 0-.53-.38-.65-.59c.12-.15.38-.05.57 0a1.44 1.44 0 011.12-.45c.19 0 .45-.09.54.09s-.4.42-.31.73c.38.09.5-.42.82-.62a3.54 3.54 0 01.53-.23c.17-.06.36-.23.51-.22s.18.13.33.19.32 0 .37.15c-.33.56-1.54.24-1.86.81.07.39-.19.76 0 1s.51.06.59.25-.34.26-.22.56c.29.18.65-.17.92-.31s.68-.32.71-.67c-.15-.29-.7-.07-.79-.37a1 1 0 01.23-.59 3.12 3.12 0 012-.73 3.25 3.25 0 01.42.11c.49.05 1.06-.21 1.44 0 .31-.18.67 0 1.1 0 .33.19.24.61.73.79a1.43 1.43 0 01.48.06 3.33 3.33 0 01.42.25c.15.07.38.07.43.23s-.16.24-.15.39a.68.68 0 00.09.39c.09.14.43.25.73.37s.67.36.65.56-.43.39-.56.45a2.42 2.42 0 01-.74.26c-.26 0-.37-.58-.73-.57a.31.31 0 00-.31.31c0 .37.42.39.42.71s-.21.41-.53.65a2.13 2.13 0 00-.73-.26c-.18.22.29.29.14.57a2.41 2.41 0 01-1.21-.26 3 3 0 01-.43-.08c-.16-.09-.2-.37-.33-.51a1.26 1.26 0 00-.71-.39c-.35 0-.85.43-1.13 0 .2-.64 1.1-.16 1.7-.39.22-.08.29-.32.47-.42.37-.21 1-.24.91-.65 0-.21-.32-.2-.48-.31s-.39-.65-.71-.68c-.16 0-.28.13-.45.15-.36 0-.77-.15-1.1 0-.15.08 0 .22-.17.39s-.33.17-.42.31-.08.35-.22.48a3.2 3.2 0 01-1 .34c-.13 0-.29.19-.42.19s-.33-.31-.59-.19c0 .3.32.42.53.56a1.19 1.19 0 01.57.56c-.23.49-.6 0-1 0s-1 .77-1.32.15c.08-.33.44-.38.53-.71-.4.07-.74.4-1.21.51a1.29 1.29 0 00-.56.08c-.34.1-.58.35-.93.48a.81.81 0 00-.45.09 7.27 7.27 0 00-1.1.5 7.72 7.72 0 00-1 .59c-.12.11-.43.48-.42.6s.33.22.34.39-.18.33-.06.48.35 0 .59.06c.43 0 .71.4 1 .59a2.92 2.92 0 00.91.33c.38 0 .82-.11.87.2s-.37.41-.39.59c.2.28-.15.41-.15.65a.6.6 0 00.45.51 1 1 0 00.82-.57c.14-.33.08-.79.34-1 1.31 0 2.42-.59 2.34-1.94a1.74 1.74 0 01-.06-.45c0-.22.42-.4.37-.68.37-.11.35-.7.73-.79s.68.23 1.1.2c.13 0 .31-.13.45-.11s.44.38.65.53.37.1.42.29-.28.32-.25.61a.58.58 0 00.42.48 1.32 1.32 0 00.7-.17c.38-.17.7-.71 1-.64s.44.84.47 1.12a7.48 7.48 0 010 .82c0 .48.63.43.93.68.09.07.12.26.19.36s.32.19.34.4c0 .48-.44.52-.39 1.07-.1.21-.36.2-.34.48 0 .44.67.1.84.45.1.18 0 .32-.08.59.22.26.22.67-.17.67-.23 0-.3-.25-.53-.31s-.32 0-.48-.05l-.45-.09c-.35 0-.73.06-.93-.14a9 9 0 011.21-1.26c.13-.12.4-.2.34-.43-.24-.21-.54 0-.76.14a2.59 2.59 0 01-.79.37c-.47.07-1.09-.14-1.47.11-.05.21.43.13.37.45a.55.55 0 01-.51-.08c-.13-.12-.05-.3-.14-.37a1.74 1.74 0 00-.93-.11.66.66 0 00-.59.48c.36.16.94-.17 1.07.25-.2.35-.65.55-.59 1a.63.63 0 00.39.45c.16 0 .25-.13.4-.12s.12.2.31.17.42-.49.73-.48c.37.46-.34.68-.73.82s-1 .25-1.38.4c-.18.07-.86.73-1 .22s.34-.26.42-.56a2.25 2.25 0 00-1.24.34c-.56.21-1.52.35-1.66 1 0 .13.06.37 0 .45s-.47.08-.65.14-.5.29-.67.34-.32 0-.4.06a6.18 6.18 0 01-.56.59c-.11.08-.34.14-.42.22s-.17.51-.42.57-.3-.13-.46 0a3.51 3.51 0 010 1.21 8.19 8.19 0 01-1.13.7c-.24.14-.45.17-.73.31s-.39.35-.62.48c-.54.32-1.19.69-1.18 1.5 0 .17.09.36.11.56a2.24 2.24 0 010 .37c0 .29.24.66 0 .87a3.41 3.41 0 01-1.13-.48c-.07-.28.15-.51.11-.76a.87.87 0 00-.47-.59c-.18 0-.33.15-.51.14s-.41-.31-.68-.34a6.9 6.9 0 01-1.12 0c-.43.23-.55.63-1.07.59a3.85 3.85 0 01-.57-.2 3.76 3.76 0 00-.81-.11 3.38 3.38 0 00-1.24.59c-.37.19-.88.43-1 .82-.06.21 0 .51-.08.7a2.85 2.85 0 01-.23.37 2.85 2.85 0 00-.34 2.17 6.13 6.13 0 00.48 1 1.69 1.69 0 00.82.39 4.69 4.69 0 00.65-.14 1.65 1.65 0 00.73-.11c.61-.2.49-1 1.1-1.3a3.09 3.09 0 011-.17.65.65 0 01.2.54c0 .14-.16.27-.23.48s-.08.39-.14.53-.27.33-.34.51 0 .26 0 .36-.32.32-.2.51c.6.24 1.33-.07 1.86 0 .22 0 .68.3.67.65s-.2.42-.22.7-.18.79-.2 1.07a1.57 1.57 0 001.18 1.27c.54 0 .85-.53 1.5-.26.21.1.44.44.67.43s.49-.36.62-.59.17-.53.45-.68.54-.08.93-.23a2.31 2.31 0 00.48-.28c.14-.09.28-.34.45-.17s-.27.35-.08.6c.39.2.59-.39.87-.4a2.26 2.26 0 01.56.28c.22.15.3.35.54.4s.4-.06.62 0 .46.29.67.28.4-.3.62-.34a.74.74 0 01.9.37c.25 0 .26-.29.48-.17-.12.25 0 .36.14.56s.06.23.12.29.39.12.59.25a3.59 3.59 0 01.56.65 1.67 1.67 0 001 .59c.31 0 .56-.09.82-.06a2.56 2.56 0 011.35.68c.22.17.43.29.5.5s0 .35.09.51c.12.35.63.52.45 1.13.08.18.27.24.48.36s.3.31.48.34h.33a2.62 2.62 0 01.82.26 2.78 2.78 0 01.51.17c.14.09.16.42.34.5s.37 0 .56 0 .71.22 1 .23.3-.07.45-.06c.69 0 1.08.88 1.74 1.13.21.08.54 0 .68.08a2.78 2.78 0 01.48 1.21c0 1-.73 1.36-1.19 2-.09.14-.14.37-.28.57-.27.39-.57.48-.53 1.21 0 .2.11.39.11.62a4.27 4.27 0 01-.08.87c0 .19-.21.34-.23.51a3.38 3.38 0 000 .45 2.77 2.77 0 01-.31.62c-.26.48-.32 1-.85 1.24-.31.11-.73 0-1.07.17-.13 0-.31.17-.48.25-.49.23-1.18.53-1.32 1s.17.81.08 1.32a4.07 4.07 0 01-.33.48c-.12.16-.18.35-.31.51s-.44.31-.54.59v.37c0 .16-.12.14-.17.25s0 .23-.09.31c-.13.26-.51.85-.79.93-.58.17-1.2-.25-1.6-.17.06.28.26.25.39.45a3.18 3.18 0 00.23.4c.12.14.24.2.25.36a1 1 0 01-.42.82 2.38 2.38 0 01-.82.22c-.21 0-.74 0-.84.17s.07.68 0 .88c-.21.41-.78 0-1.07.11a.53.53 0 00.22.53c.18.11.45 0 .57.17-.06.28-.36.32-.42.6s.09.33 0 .5c-.07.36-.63.35-.62.73 0 .58 1.11.35 1.13.91 0 .34-.31.34-.42.67-.06.18 0 .22 0 .37s-.29.26-.29.48.4.56.59.79a3.23 3.23 0 00.71.67c.39.22 1 .17 1.15.57 0 .23-.28.29-.5.36M110.89 97.3h-.4M111.31 97.3a.61.61 0 00-.42 0M111.37 97.3h-.06M111.31 97.3h-.42M186.52 87.53a4.16 4.16 0 01.16-.5c.2-.39.41-.13.73-.08s.64-.2.9 0a1.67 1.67 0 01-.23.51 2.14 2.14 0 01-.47.48c-.25.17-1.06.53-1.15 0a1.4 1.4 0 01.06-.41zM195.24 78.32c.17 0 .4-.17.54 0a1.19 1.19 0 01-.54.59c-.12 0-.27 0-.39.08s-.36.34-.57.51a7.06 7.06 0 01-.64.42c-.2.13-.47.38-.71.2 0-.33.37-.33.45-.59s-.17-.22-.17-.42c.4-.35 1-.59 1.1-1.3 0-.31-.21-1 .17-1s.2.45.23.7c0 .1.11.17.17.31s.12.43.36.5zM159.5 76.88a4.41 4.41 0 01-.48 1.66c-.18.44-.29.92-.45 1.3 0 .14-.17.24-.22.36-.21.48-.28 1.24-.65 1.44a3.06 3.06 0 01-.79.2.82.82 0 01-.73-.57 4.17 4.17 0 010-.5c0-.23-.17-.42-.14-.68.06-.57.62-.85.65-1.32s-.18-.71-.14-1.07a1.18 1.18 0 01.36-.73c.26-.2.61-.18.88-.31a2.38 2.38 0 00.67-.51c.14-.18.15-.38.26-.51s.24-.11.33-.22.07-.29.2-.4c.39-.16.51.55.57 1 0 .16.09.32.08.4s-.32.31-.4.46zM185.19 71.51c0 .24-.38.21-.42.06s.37-.24.42-.06zM151.76 74.32h.05c.3.14.13.72 0 .93-.31-.13-.18-.7-.05-.93zM188 72.11c-.06.12-.19.23-.23.36s.06.2 0 .34-.47.14-.48.39.46.48.74.65a3.58 3.58 0 01.45.37l.19.08h.09c.18.12.31.39.56.4a.62.62 0 00.4-.2 1.89 1.89 0 00.28-.5 2.69 2.69 0 00.17-.55 3.87 3.87 0 01.12-.77v-.07M188 71.82a.28.28 0 010 .18.06.06 0 010 .06M183.53 73.17a.44.44 0 00.33.07c.16 0 .31-.36.45-.56s.35-.67.71-.76.6.11.76-.14-.14-.29 0-.4a5.27 5.27 0 01.95.39 1.57 1.57 0 00.43.09 4 4 0 00.5-.09M183.53 73.17a6.87 6.87 0 01-1.1-.3 1.16 1.16 0 01.45-.12c.26.03.43.25.65.42z"/>
    <path class="cls-4" d="M190.58 86.61a.35.35 0 01-.18-.29c0-.22.32-.36.42-.51a2.07 2.07 0 00.31-.79c0-.18-.11-.39-.11-.62a.67.67 0 010-.2 1 1 0 00.07-.34 6 6 0 00-.19-.73v-.34c0-.12-.11-.32-.09-.42s.26-.21.31-.37-.11-.3-.11-.62a.43.43 0 01.06-.22 3.11 3.11 0 00.22-.4v-.12a2.33 2.33 0 01.08-.36c.08-.12.39-.22.51-.28s0-.09-.12-.17a18.19 18.19 0 00-2-.81c-1-.35-1.84-.66-1.64-.69a1.2 1.2 0 01.34 0 2 2 0 00.46-.18 2.6 2.6 0 01.47-.16 3.09 3.09 0 00.9-.2 2.39 2.39 0 00.79-.85c.13-.3.09-.57.34-.67s.24 0 .36 0a2 2 0 00.51-.25c.2-.18.23-.47.45-.65a3.36 3.36 0 00-.48-.15l-.39-.1c-.56-.14-1.35-.32-2.24-.51l-1-.23-2.36-.52-2.4-.54-.33-.07M190.58 86.61c.4.16.59.25.33.21-.1-.08-.23-.14-.33-.21z"/>
    <path class="cls-4" d="M190.8 84.46a4.79 4.79 0 00-1.26.77 8.74 8.74 0 00-1.77.06c-.2 0 .16.25.7.48s1.57.62 2.11.84M183.18 82.13c1.54.4 6.22 1.53 7.88 2 .44.13.67.22.55.23a4.86 4.86 0 00-.54 0H191l-.22.06M183.18 82.13a3.22 3.22 0 00-.44-.14c-.15.01.03.01.44.14z"/>
    <path class="cls-4" d="M186.62 71.52a.72.72 0 01.14.24c.06.28-.14.48-.19.71a4.94 4.94 0 01-.12.93 2 2 0 01-.19.36c-.15.22-.35.46-.51.73s1.5 1.83 3.21 3.59l.84.87 1.3 1.35.26.27.21.22c.88.94 1.48 1.62 1.39 1.69a6.53 6.53 0 00-.56.37 8.73 8.73 0 00-.73.76c-.19.2-.41.36-.59.53l-.15.16-.11.13c-.23.33-.39.75-.82.8a3.24 3.24 0 00-.82.11 5.9 5.9 0 00-.69.4.49.49 0 01-.21.08c-.22 0-.42-.25-.62-.28s-.4.17-.73.17c-.14 0-.21-.08-.4-.14-.4-.13-.84-.12-.9-.57 0-.24.15-.34.14-.56s-.22-.27-.31-.45a.45.45 0 00-.14-.56.64.64 0 01.11-.4 3.88 3.88 0 00-.56.23c-.21.12-.35.41-.59.36s0-.29-.09-.47a2.4 2.4 0 00-.47-.82 3.43 3.43 0 00-.52-.23M186 69.69a5.91 5.91 0 00-.66-.56 1.15 1.15 0 00.14.51v.28s.33.21.42.37a.74.74 0 010 .21M188.88 72.31l-.41-.37M191.45 72.62v.25c.23.17.62.11.68.5 0 .14-.07.31-.06.45s.2.45.23.65a5 5 0 010 .67.63.63 0 00.1.29c0 .06-.15-.1-.49-.39s-1-.92-1.74-1.57l-1.23-1.1M190.69 71.61a.78.78 0 01.36-.38 1.46 1.46 0 01.29.55"/>
    <path class="cls-4" d="M190.28 72.58a.11.11 0 010-.08.18.18 0 01.16-.1h.09M190.84 72.75l-.09.09a1 1 0 01-.43-.21M190.59 72.42a.38.38 0 01.27.31M186.9 70.71l-.9-.21c-1.71-.39-3-.66-2.8-.59-.12.35-.55.34-.82.51a33.17 33.17 0 004.28 1.1l1.07.24.26.06.21.05M192.49 72.88a.47.47 0 00-.1-.1c0-.31.31-.38.53-.5a5.2 5.2 0 00-1.58-.5l-.65-.17-2.2-.53"/>
    <path class="cls-4" d="M189.39 72.15l1 .23h.17l.86.2a5.94 5.94 0 011 .26M188.34 71.91h.3M190.82 71.85c.2-.06.54 0 .58.2s-.52.13-.68 0"/>
    <path class="cls-4" d="M190.1 72c-.12.17-.49 0-.71.13a.23.23 0 00-.1.07c-.29 0-.58 0-.65-.24.08-.21.35-.07.56-.09a3.25 3.25 0 00.43-.08M190.6 71.81l-2.2-.4-.64-.12-.3-.06-.32-.08"/>
    <path class="cls-4" d="M190.87 72.76a3.24 3.24 0 00-.53-.16H190a3.69 3.69 0 01-.47 0 4.48 4.48 0 01-.62-.2l-.16-.08c-.24-.12-.43-.25-.44-.37v-.08c.08-.18.46-.23.8-.19a1.63 1.63 0 01.47.16 2.18 2.18 0 00.47.21 1.41 1.41 0 00.41.07h.21A1.55 1.55 0 01191 72c.06 0-.05 0-.26-.07h-.22M190.87 72.76l.49.12a2.07 2.07 0 01-.49-.12z"/>
    <path class="cls-4" d="M187.14 71.15c.05.08 0 .16 0 .28.31.17.82.15 1 .44a.44.44 0 01-.14.13 2.31 2.31 0 01-.74-.09l.72.17.8.18h.1l1.15.26.27.06.52.12M187.14 71.15c.06 0 0-.01 0 0zM149.31 71c.23.14.11.45.17.71s.33.35.22.56c-.39 0-.68-.8-.48-1.27zM190.26 68.83a1.14 1.14 0 00.18-.3c.07-.19.05-.49.16-.66a.22.22 0 01.18-.1c.15 0 .35.32.45.34.34.07.74-.35 1.21-.26 0 .39-.5.44-.65.74a3.17 3.17 0 01.21.41c.08.18.14.35.23.51a1.14 1.14 0 00.15.23 1.13 1.13 0 01-.09.59c-.09.1-.45-.13-.62-.37s-.35-.7-.48-.9c-.26 0-.22.58-.27 1M190.92 70.07a.52.52 0 01-.1.27.21.21 0 01-.24 0 .16.16 0 01-.1-.08v-.34M185.14 61.33c.18.11.73.23.75.48v.09c-.07.09-.23.14-.24.29 0 .41.55.39.65.85.2.06 1.1.7.81 1s-.36-.08-.62-.14-.6 0-.84-.17"/>
    <path class="cls-4" d="M189.81 65.29l-1.14-1-.56-.47-.31-.27c-.76-.64-1.45-1.23-2-1.64l-.46-.4-.25-.21M192.56 67.62l-.84-.7M192.56 67.62a1.59 1.59 0 01.32.26zM191.34 67.16a6 6 0 011.22.46M188.8 66.37a1.31 1.31 0 01.28 0M188.72 69.53c.14-.17.42-.27.44-.44a1.27 1.27 0 00-.34-.73c-.12-.11-.28-.11-.42-.2s-.26-.25-.42-.34a1.66 1.66 0 00-.31-.12c-.25-.07-.52-.1-.75-.16a.81.81 0 01-.66-.39V67a.29.29 0 000-.13c0-.09-.12-.14-.2-.19a.61.61 0 01-.17-.15.75.75 0 01-.09-.29v-.06a.65.65 0 01.16-.44.39.39 0 01.22-.11 1.31 1.31 0 01.76.3.78.78 0 01.22.26.57.57 0 010 .26.33.33 0 000 .14 1.11 1.11 0 00.18.34.49.49 0 00.33.25c.25 0 .41-.31.62-.51l.11-.08a1.65 1.65 0 01.41-.18M189.06 70h-.13M189.87 69.83a.39.39 0 00-.15-.06h-.09a3.63 3.63 0 00-.57.18M191.51 70.21a.44.44 0 01-.15.12 2.44 2.44 0 00-.54 0 1 1 0 01-.34 0 .78.78 0 01-.33-.24M193 69.83l-.09-.06a1.3 1.3 0 00-.66-.22c-.28 0-.38.24-.52.45a.83.83 0 01-.13.18M190.28 67.61l.32.26L192 69l.89.73.1.07M187.56 65.37l1.05.87M151.17 69.78c-.35 0-.63 0-.74-.22.11-.27 0-.47.06-.73s1.13-.66 1.21-.12c0 .25-.19.45-.28.65s-.06.34-.25.42z"/>
    <path class="cls-4" d="M187 65.92h-.1l-1-.19h-.24c-2-.4-3.75-.71-3.66-.66a8 8 0 002 .76h.19l1.55.34c.45.1.91.19 1.36.27"/>
    <path class="cls-4" d="M191.72 66.92a1.61 1.61 0 00.44.06 2.23 2.23 0 00-.51-.12l-1.81-.38-.6-.12h-.16l-.47-.09-1.38-.27H187M190.88 67.16c.28.07.4.11.29.13s-.2.14-.36.08a.52.52 0 01.07-.21zM187.27 66.45l1 .19 1.1.21.73.14.79.17M188.93 70c-.06.15-.31.17-.39.4a2.81 2.81 0 000 .71.49.49 0 01-.09.33.81.81 0 01-.38 0h-.18l-.35-.27a4.6 4.6 0 01-.56-.52l-.44-.48a3 3 0 01-.45-.5c-.14-.26-.19-.54-.35-.78s-.42-.38-.56-.62-.13-.46-.26-.65-.31-.25-.45-.39a4 4 0 01-.22-.34c-.36-.42-1-.64-1.07-1.27.14-.16.29.06.56.12a.75.75 0 00.38 0"/>
    <path class="cls-4" d="M188.33 69.47a.26.26 0 01.21-.11.13.13 0 01.11.09M184.21 65.81c.22.12.39.48.64.68s.35.2.51.34a5.51 5.51 0 00.42.42c.13.08.44.18.68.34s.9.42 1 .84c0 .11-.05.28 0 .37s.23.21.34.34a1.07 1.07 0 01.15.22"/>
    <path class="cls-4" d="M187 65.92a.6.6 0 00.15-.09 2.13 2.13 0 00.3-.3l.1-.15a.93.93 0 01.26-.33c.18-.12.34-.12.48-.23a1.28 1.28 0 00.37-.49 2.11 2.11 0 01.31-.52c.25-.29.64.27.67.5s.42.23.54.43a1.79 1.79 0 01-.38.56.83.83 0 00-.16.68 2.74 2.74 0 00.17.48l.11.15.08.08c.06.07.11.14.1.19a.14.14 0 010 .09 2.21 2.21 0 01-.34.18.28.28 0 00-.15.15c-.09.2 0 .22 0 .53s-.44.29-.54.57v.16a1.16 1.16 0 01-.21.85h-.29a.75.75 0 01-.33.07c-.16 0-.32-.17-.52-.27"/>
    <path class="cls-4" d="M191.71 70.26l-.16-.09h-.14c-.2 0-.39 0-.48-.07-.19-.12-.17-.46-.23-.65s-.29-.3-.42-.56a1.32 1.32 0 010-1.22.31.31 0 01.2-.11c.2 0 .4.12.54.09s.23-.26.32-.43a.44.44 0 01.13-.14.83.83 0 01-.3-.1 8.89 8.89 0 00-1.22-.29l-.38-.09-.77-.17-1.56-.43M191.71 70.26z"/>
    <path class="cls-4" d="M187.64 69.3l.26.06.43.11h.42l.44.11.44.1.24.06h.24l.38.09.43.1.59.14.2.05M187.64 69.3a.73.73 0 00-.35-.09zM175.16 63.53a.14.14 0 01.09-.08c.24.08 1.05 1.06.81 1.6a.62.62 0 01-.62.31c-.55-.09-.44-1.36-.28-1.83zM150.86 50.12c0 .23-.54.39-.65.12s.54-.32.65-.12zM141.9 48.63c-.08.22-.09.5-.25.62a1.53 1.53 0 01-1.1-.53c.29-.24.95-.08 1.35-.09zM138.46 48a2.62 2.62 0 000-.79c.39-.4.79-.19.65.59-.06.25-.47.56-.65.2zM139.05 46.32a.35.35 0 01-.19.42c-.37-.06-.09-.74.19-.42zM162 44.72c.34-.09.79.64.34.73s-.78-.62-.34-.73z"/>
    <path class="cls-4" d="M144.69 48.63c0 .5.17.8.73.73.2-.1.1-.25.25-.42s.48-.14.48-.37-.84-.4-.73-.92c0-.17.22-.09.37-.09.24-.28.74-.63 1.07-.2a3.12 3.12 0 001 2.06c.43-.15.61.24 1 .17.2 0 .29-.28.48-.31.35-.05.58.32.9.36.53.07.92-.53 1.44-.22.06.33.11.66.14 1s-.21.45-.31.76 0 .89-.48 1c-.58.2-.92-.23-1.46-.2-.28 0-.5.3-.79.34-.46.07-1-.33-1.49-.39h-.37c-.1 0-.23-.19-.37-.23a4.25 4.25 0 00-.61-.08c-.28-.49-1.69-.53-1.81.19 0 .32.16.77-.31.82-.3 0-.6-.3-1-.39a1.55 1.55 0 01-.54-.06c-.3-.11-.27-.41-.53-.59a2 2 0 00-.79-.28h-.45a1.76 1.76 0 01-.62-.25c-.15-.09-.47-.23-.51-.37s.38-.44.4-.61-.17-.22-.2-.43a1.11 1.11 0 010-.33.6.6 0 00-.51-.32c-.2 0-.39.17-.56.17a8.39 8.39 0 00-1-.11c-.35 0-.36.13-.54.14h-1.26a3.82 3.82 0 00-1 .23c-.13.06-.22.19-.39.28s-.18 0-.28.08a2.92 2.92 0 01-.48.29 6.5 6.5 0 00-1 0c-.44.05-.75 0-.76-.34 0-.52.89-.33 1.38-.42.19 0 .29-.21.51-.34s.24-.07.34-.14a1.39 1.39 0 00.45-.54c0-.12-.08-.3-.06-.39a1.38 1.38 0 01.31-.4 4 4 0 01.79-.7c.2-.11.47-.1.56-.25a3.38 3.38 0 000-.45c.13-.12.21-.21.31-.23.31-.06.61.21 1 .2a1.07 1.07 0 00.45-.23c.14-.09.29-.15.42-.22s.3-.25.48-.26c.45 0 .62.47.82.74a4 4 0 00.93.76c.15.08.36.09.53.17.37.16 1.09.71 1.1 1.07 0 .17-.17.31-.14.47a.57.57 0 00.59-.53c0-.17-.17-.27-.14-.45s.51 0 .68-.11c0-.32-.47-.35-.73-.51s-.25-.28-.4-.34-.45-.06-.62-.2-.23-.4-.39-.59-.73-.31-.59-.93c.07-.09.23-.23.33-.19s.19.23.34.33.27.07.4.14.22.34.39.48a4.71 4.71 0 001 .51c.31.15.81.35.87.62a1.08 1.08 0 010 .45 1.13 1.13 0 00.23.45c.21.29.51.56.75.92zM168.91 44.29a.24.24 0 01-.28.26c-.13-.19.17-.47.28-.26zM158.91 44.83c-.46 0-.86.16-.87.48s.78.79 1.1 1c0 .18 0 .37.17.45a.57.57 0 01.78.25.64.64 0 01.06.18c-.1.22-.38 0-.56.08s0 .09-.09.09c.14.69.9.76.76 1.74a1.16 1.16 0 01-.84.28 2.6 2.6 0 01-.88-.36c-.29-.13-.61-.14-.67-.45a2.42 2.42 0 01.08-.71c.06-.17.21-.2.2-.36s-.48-.55-.65-.71-.55-.4-.67-.67c-.05-.1 0-.25-.09-.37s-.35-.33-.36-.51a.66.66 0 01.25-.45c.12-.09.37-.2.59-.36a1.73 1.73 0 011.58-.29c.2.09.31.54.11.69zM152.07 44.1c.22.46-.35.55-.34.81s.76.47 1 .59.69.36 1 .54.74.88 0 1a5.6 5.6 0 01-1 .06c-.78 0-1.36-.6-2.25-.56a1.41 1.41 0 00-.54.11c-.24.09-.41.29-.62.34s-.67-.07-.87 0-.29.69-.79.28c0-.26.32-.15.34-.37s-.29-.32-.31-.56.24-.39.34-.7v-.29c0-.07.2-.18.28-.31s.35-.72.68-.76.49.24.76.23c.19.25.28.68.62.73s.63-.21.9-.31c-.06-.26-.36-.12-.39-.37-.12-.41.8-.56 1.19-.46zM83 40.55c-.06.18-.23.26-.4.34l-.14-.15c-.01-.26.37-.46.54-.19zM181.19 41.56c0-.22.2-.27.31-.39 0-.29.28-.48.31-.76s-.21-.54.11-.6a1 1 0 01.28 1c-.07.24-.4.36-.62.57s-.21.3-.39.18zM130.38 41.48c0-.25.28-.3.37-.51s-.17-.25-.15-.42.2-.14.43-.23.23-.26.45-.39c.37-.23 1-.06 1.07.22s-.2.24-.28.48 0 .47-.09.62-.32.12-.48.17c-.35.11-1.04.52-1.32.06z"/>
    <path class="cls-4" d="M133.87 38.1c0 .17-.15.2-.17.36s.49.1.54.34-.28.32-.28.51.34.48.5.7.34.29.45.45.12.32.2.4.48.16.51.36-.34.38-.28.68c-.39.3-1 .15-1.67.22-.28 0-.59.32-.9.09-.07-.19.25-.22.29-.4s-.24-.14-.29-.28.34-.26.31-.59c.16-.17.46-.11.51-.34a.48.48 0 00-.25-.45.54.54 0 01-.34-.08c-.28-.15-.38-.47-.54-.54a2.21 2.21 0 010-.73 1.86 1.86 0 01.62-.53c.25-.09.51 0 .65-.2a.17.17 0 01.14.03zM107 36.18c.15-.09.5 0 .51.11s-.56.42-.62.12a.22.22 0 01.11-.23zM145.08 35c0 .63-1.26.73-1.29 1.24a4.15 4.15 0 00.11.48 2.16 2.16 0 000 .36.91.91 0 00.76.51c.67 0 1.68-.65 2.28-.14-.26.57-1.19.1-1.86.33-.13 0-.22.18-.34.23s-.45 0-.45.25.35 0 .51 0a.44.44 0 01.42.42c-.05.52-.51 0-.82 0s-.53.65-.45 1.13c-.2.11-.43.42-.7.45s-.31-.15-.54-.17c-.5 0-1 .41-1.46.39-.21 0-.43-.25-.76-.25-.17 0-.3.12-.48.14s-.58-.07-.56-.25.4 0 .62-.09.21-.27.39-.31.24.11.42.09.38-.32.57-.4c.36-.15.64-.07.7-.36s-.1-.41-.06-.59c.1-.41.85-.35.82-.82 0-.28-.61-.35-.67-.62a.92.92 0 01.11-.56c.25-.48 1.07-.52 1.32-.91.12-.18.12-.36.2-.45a1 1 0 011.21-.1zM112.24 33.82c.06.25-.74.57-.82.25s.58-.58.82-.25zM154.07 33.42a.3.3 0 01-.4 0c-.08-.33.5-.28.4 0zM162.94 34.46c-.09-.3.19-.33.2-.59 0-.49-.89-.65-.85-1.27v-.08c.41-.08.39.29.56.56s.49.27.59.37a.58.58 0 01.07.82.59.59 0 01-.57.19zM174.83 31c-.07.32-.61.44-.88.48-.07-.17.15-.2.26-.26a1.09 1.09 0 01.62-.22zM187.27 66.45a1.55 1.55 0 000 .43c.09.3.42.53.36.8a.56.56 0 01-.09.17 2 2 0 01-.66-.33h-.07a2.18 2.18 0 01-.6-.53 2.11 2.11 0 01-.21-.31 1.9 1.9 0 01-.22-.33v-.11M187.61 49.45a1.13 1.13 0 01.21.12c.2.15.46.56.74.85.11.12.31.2.36.28s.11.41.25.54-.07.19 0 .33.38.17.45.37c-.06.49.14.94-.25 1.13a3.18 3.18 0 01-1 2c-.54.43 3.76 1.56 3.11 1.77-.16 0-.3.23-.45.28-.37.12-1 0-1.07.5 0 .23.29.37.31.6a.72.72 0 01-.51.73.5.5 0 01-.53-.4c0-.33.42-.47.45-.67a.66.66 0 00-.64-.68H189a1.94 1.94 0 00-1.24 1.18c0 .4.6.94.82 1.13.79.7 1.63 1.12 1.49 2.82-.2.43-.7.52-1.1.76s-.41.59-.77.74h-.2c-.12 0-.13-.18-.12-.32a.81.81 0 000-.22c-.08-.2-.48-.3-.73-.51s-.29-.43-.45-.59a3.3 3.3 0 00-.73-.36c-.16-.09-.27-.38-.43-.37h-.05c-.18 0-.11.27-.17.64s-.35.69-.26 1.15c0 .19.28.35.4.54s.22.69.42.87.36.15.51.25a4 4 0 01.87.83.12.12 0 00.06.1M188.19 48.06c-.11.25-.55.45-.77.72M188.19 48.06a6.4 6.4 0 01-.85-.26 1.44 1.44 0 01.85.25zM191.68 49l-1.16-.31-2.33-.61M191.68 49zM191.9 47.19c-.26 0-.45.33-.62.55a1.07 1.07 0 01-.18.19c-.15.11-.43.14-.45.31s.33.24.62.36.27.29.41.38M191.9 47.19zM187.58 47h1.51l1.25.06 1.56.09M187.58 47a.42.42 0 01-.18.08c-.06-.02.01-.08.18-.08z"/>
    <path class="cls-4" d="M192.11 40.89a2.8 2.8 0 00.36.49 2 2 0 01.45.84c0 .17-.11.48-.11.76a4.86 4.86 0 010 .54 3.39 3.39 0 01-.2.53c-.07.21-.08.46-.14.6a1.07 1.07 0 01-.73.56c-.24 0-.34-.18-.57-.17s-.41.34-.62.59c0 .28.11.37.06.56s-.49.35-.48.65a.33.33 0 00.18.26c.13.08.28.13.38.19a6.12 6.12 0 01.56.45 3.51 3.51 0 01.37.4 1.49 1.49 0 01.37.79c0 .27-.82.66-1.16.56s-.2-.4-.28-.68a.35.35 0 00-.06-.14c-.07-.12-.18-.21-.25-.33s0-.24-.08-.34c-.17-.29-.47-.13-.82-.31s-.16-.37-.25-.59V47a1 1 0 00-1-.31c-.23 0-.34.2-.5.29"/>
    <path class="cls-4" d="M192.11 40.89c.43 0 .67.07.64 0s-.38-.41-.56-.34-.14.21-.08.34zM183.16 39.54c2.14.31 7.16 1.13 9 1.35"/>
    <path class="cls-4" d="M183.16 39.54a.28.28 0 01.08.15c0 .13-.1.19-.14.31s.06.3 0 .42c-.45-.17-.55-.61-.88-1a7.32 7.32 0 01.94.12z"/>
    <path class="cls-4" d="M190.05 39.38l-.93-.11c-3-.37-7.36-.89-7.06-.62s.42.27.65.47a4.47 4.47 0 01.45.42M191.85 39.58a5.81 5.81 0 01-1.2-.13l-.6-.07"/>
    <path class="cls-4" d="M190.05 39.38a.49.49 0 01.17-.06.83.83 0 01.43.13l.21.13a2.31 2.31 0 00.62.28c.26 0 .15-.19.37-.28"/>
    <path class="cls-4" d="M187.81 36c2.28.36 4.34.7 4.15.7s-.37.17-.53.2c-.89.16-2.21-.44-2.51.34v.36c0 .11-.19.29-.23.4s0 .26-.08.39l-.09.12a1.09 1.09 0 00-.22.41c0 .09 0 .16.19.2s.17 0 .31 0a1 1 0 01.37.17 1.49 1.49 0 00.56.25 1 1 0 00.37-.14M185.06 35.56l2.75.44M185.06 35.56c.09-.1.26-.2.3-.35a1 1 0 000-.34c0-.33.29-.65.28-.84a1.15 1.15 0 00-.62-.68c-.16.09 0 .26 0 .4a.56.56 0 01-.42.39c-.53 0-.59-.69-1.44-.48a.71.71 0 00-.45.79c0 .12.37.25.34.42s-.77.21-.93.2 1.16.21 2.94.49z"/>
    <path class="cls-4" d="M192.66 32a.78.78 0 01.06.37 2.84 2.84 0 01-1.57-.28 2.18 2.18 0 00-1.31-.14h-.07a.38.38 0 00-.13.09.27.27 0 00-.08.22c0 .5 1.27.45 1.38.93-.21.16-.43 0-.6 0a2.08 2.08 0 00-.84.45c-.19.18-.36.64-.56.68s-.64-.25-1-.17c-.14 0-.27.2-.39.23-.31 0-.71-.17-.9.19.1.26 0 .62.25.76s.31 0 .48.09.31.31.48.45c.14.11.29.11.36.25s-.08.23 0 .37.41.29.42.45-.23.16-.28.36.15.17.17.34-.1.24-.09.37a1.63 1.63 0 00.13.37.21.21 0 010 .11.41.41 0 01-.23.3c-.54-.35-1-.83-1.61-1.27s-1.53-1-1.63-2a.17.17 0 01.07-.13M192.66 32c-1.27-.23-10.1-1.54-9.73-1.6.18-.12-.13-.29 0-.4s.38 0 .62 0 .3-.07.42-.06c.31 0 .61.31 1 .4a3.38 3.38 0 001.1.06 3.22 3.22 0 01.76-.09c.12 0 .24.11.37.14a1.21 1.21 0 00.33 0c.1 0 .19.11.29.14.52.15 1.22.22 1.77.39a4.42 4.42 0 00.93.31c.13 0 .25-.05.42-.05a1.89 1.89 0 011.72.76z"/>
    <path class="cls-4" d="M189.79 32.18h-.18l-1-.24a9.2 9.2 0 01-1.45-.41 5 5 0 012.11.17 3.67 3.67 0 01.53.34.68.68 0 00.31.11 6.37 6.37 0 001.07 0 5.21 5.21 0 01.79 0c.13 0 .25.06.34.06s.24-.11.38-.15"/>
    <path class="cls-4" d="M191.14 32.51l-.67-.16-.68-.17M191.14 32.51h.13s-.01.03-.13 0z"/>
    <path class="cls-4" d="M189.79 32.18a.65.65 0 00.22.11 1.76 1.76 0 00.46.06h.32a1.48 1.48 0 01.35.13M185.69 65.67a.3.3 0 00-.05-.2 2.55 2.55 0 00-.62-.9c-.2-.18-.55-.29-.56-.56s.13-.82.11-1.27c0-.09-.07-.19-.08-.31s0-.48 0-.67a3.06 3.06 0 00-.26-.51c-.07-.16-.15-.33-.22-.54s-.24-1-.51-1-.56.53-.93.53a.51.51 0 01-.48-.34c0-.17.09-.34.09-.53 0-.38-.28-.52-.48-.79-.08-.11-.1-.26-.17-.34s-.37-.23-.53-.39a2 2 0 01-.4-.51c-.11-.22-.14-.5-.31-.53s-.34.2-.51.25a3.91 3.91 0 01-.76.14c-.56 0-1-.11-1 .56-.09.31-.41.31-.62.46a7.58 7.58 0 00-.76.84c-.15.14-.35.23-.48.37s-.14.29-.26.39c-.3.28-.75.31-1 .71 0 .46.22.82.16 1.26 0 .2-.17.38-.19.59s.07.38 0 .57-.14.15-.23.28-.11.26-.17.34-.25.2-.34.31-.17.29-.31.31c-.61.09-.77-1.09-1-1.58-.12-.23-.38-.43-.51-.7a9.9 9.9 0 00-.39-1.08 5.32 5.32 0 01-.53-.93c-.11-.26-.19-.6-.29-.9a4.26 4.26 0 01-.22-1c0-.37.07-.59-.23-.74-.27.07-.39.34-.7.34s-1.11-.52-.87-1c-.2-.28-.7-.44-1.08-.76-.21-.19-.41-.64-.78-.68a2 2 0 00-.34.06H166a5.82 5.82 0 01-1.18 0l-.91-.11a2.21 2.21 0 01-1-.31c-.12-.12-.17-.48-.39-.54s-.41.15-.65.2a1.61 1.61 0 01-1.3-.34c-.24-.16-.47-.25-.64-.36-.43-.29-.51-1.15-1.16-1.16-.22 0-.58.14-.62.4s.22.51.31.65c.32.44.9.61 1.07 1.21.12 0 .36-.11.48 0s0 .74.25.85c1.18.19 1.51-.45 2-.9.31.2.21.37.31.59a1 1 0 00.48.48c.14 0 .32 0 .54.08a1.64 1.64 0 01.7.76 2.52 2.52 0 01-.48.88c-.11.14-.28.21-.34.33s0 .31-.05.37-.31.26-.45.39-.34.26-.48.37-.29.33-.48.4c-.38.13-.73.07-1 .28s-.21.43-.45.59-.7.17-1.07.34-.39.32-.59.39h-.29c-.18 0-.36.18-.53.22s-.29 0-.43.06c-.43.13-.83.57-1.26.31-.21-.47-.24-1.07-.48-1.49-.12-.22-.36-.28-.45-.51s.21-.13.22-.28c-.07-.31-.36-.45-.53-.71s-.13-.3-.23-.45c-.33-.48-1-.74-1.12-1.35v-.42a1.66 1.66 0 00-.34-.59c-.11-.13-.33-.21-.45-.4a2.83 2.83 0 01-.17-.42 4.6 4.6 0 00-1.13-1.35.76.76 0 00-.59.2 4.6 4.6 0 00.48 1 6.31 6.31 0 01.54.9.72.72 0 00.08.4c.18.44.74.58.85 1.1.07.34 0 .58.08.93s.59.52.79.84a6.31 6.31 0 01.28.87c.17.37.64.52 1 .76a9.81 9.81 0 01.79.79c.15.14.35.16.39.31s-.08.26-.11.43c.21.22.42.64.79.67.14 0 .33-.13.56-.17a.89.89 0 01.34 0c.1 0 .28-.16.45-.19a8 8 0 001-.09c.38-.09.58-.33.85-.25.29.32.08.68 0 1a.54.54 0 01-.06.31c-.15.5-.55.88-.73 1.33-.06.14 0 .3-.11.45a5.55 5.55 0 01-1 1.26 6 6 0 01-.56.57c-.2.16-.45.25-.68.42a6.07 6.07 0 00-1.24 1.24c-.12.17-.18.36-.31.51s-.46.3-.62.5a4.91 4.91 0 00-.33.74c-.16.32-.48.54-.43 1 0 .17.18.28.23.45a1.87 1.87 0 010 .88 2.89 2.89 0 00.56 1.07v1.6c0 .31.15.54 0 .82a2.36 2.36 0 01-.76.84c-.26.17-.67.22-1 .43s-.36.39-.56.56-.79.54-.82.82a2.26 2.26 0 00.17.56A2.42 2.42 0 01152 81c-.2.49-1.24.39-1.35.91a3.1 3.1 0 010 .45 3 3 0 01-.28.81c-.12.24-.4.34-.59.54s-.34.61-.59.87a8.24 8.24 0 01-1.21 1 3.57 3.57 0 01-1.63.59 4.79 4.79 0 00-1.07 0c-.14 0-.28.14-.46.17a1 1 0 01-.3 0c-.1 0-.35.17-.51.16a1 1 0 01-.85-.87c0-.17.15-.32.14-.48a3.6 3.6 0 00-.39-.73c-.17-.33-.23-.67-.39-.93s-.41-.4-.54-.62a4.08 4.08 0 01-.37-1.46c0-.17-.14-.36-.16-.57s0-.54 0-.76a4.32 4.32 0 00-.34-.53c-.2-.37-.34-.85-.51-1.13s-.48-.54-.5-.84a4.2 4.2 0 010-.79c0-.2.18-.36.23-.57a1.35 1.35 0 000-.45c.15-.64.86-.88.77-1.66 0-.33-.28-.49-.31-.87 0-.18.08-.33.08-.51a2.62 2.62 0 00-.31-.82 6.58 6.58 0 00-.87-1.66c-.23-.25-.52-.44-.71-.67a2 2 0 01-.34-.71c0-.16.13-.26.17-.42s.07-.6.14-.93a2.21 2.21 0 00.17-.76 1.13 1.13 0 00-.67-.76c-.4-.1-.8.13-1.3.08-.43-.27-.39-1-1-1.07a4.3 4.3 0 00-2.2.45 3.12 3.12 0 01-.93.37 5.29 5.29 0 01-.79-.17 5 5 0 00-1.1.06c-.32.06-.61.29-.9.31a2.67 2.67 0 01-1.41-.76c-.2-.17-.42-.3-.61-.45s-.49-.27-.65-.43a3.43 3.43 0 01-.34-.87c-.12-.29-.56-.58-.87-.9s-.79-.59-.85-.9c0-.16.07-.34.06-.51s-.2-.39-.2-.56.3-.44.37-.65 0-.26 0-.39c.08-.29.27-.46.23-.88 0-.16-.16-.32-.17-.53s.1-.23.08-.37-.33-.29-.36-.56.27-.52.45-.85c.08-.14.12-.36.2-.48s.41-.35.53-.59.12-.43.2-.56.31-.26.5-.48.23-.4.34-.48a2.82 2.82 0 01.51-.19 2.21 2.21 0 001.15-1 1.16 1.16 0 01.23-1 1.85 1.85 0 01.59-.74c.35-.2.68-.21.93-.59a1.84 1.84 0 00.31-.7.8.8 0 00-.53-.68c-.26 0-.65.19-.79-.08-.05-.09 0-.3 0-.4s-.19-.31-.2-.45.26-.54.34-.84a4.09 4.09 0 000-1.21c.39-.62 1.27-.32 2.14-.26h.59c.52 0 .93.17 1.1-.28a3.36 3.36 0 00.09-1 2.18 2.18 0 00-.6-.78c-.28-.18-.68-.1-.84-.43.13-.55.75-.09 1.13-.22.19-.07.16-.4.33-.45s.27.11.43.11a2.89 2.89 0 00.76-.34c.18-.12.23-.37.39-.48a2.26 2.26 0 01.37-.11 2 2 0 00.7-.51c.23-.27.34-.62.62-.67s1.23.07 1.3-.34-.35-.7-.2-1.13.42-.27.84-.48c.21.15.15.57.17.82.26 0 .8-.08.85-.31s-.38-.58-.48-.76-.13-.52-.34-.56c-.43-.08-.84.59-1.38.59a1 1 0 01-.82-.54 1.7 1.7 0 010-.45 1.88 1.88 0 01-.12-.78c.22-.37.72-.43 1.07-.63.14-.07.25-.22.4-.28s.62 0 .87-.14.11-.24.23-.42.24-.18.34-.31.07-.23.14-.31c.24-.3.69-.42.87-.73.08-.14-.14-.19-.09-.4s.45 0 .65-.08.54-.38.85-.45a6.69 6.69 0 001-.14 3.4 3.4 0 01.5-.26 1.61 1.61 0 00.31 0c.11 0 .22-.07.37-.08s.46 0 .73 0a3.23 3.23 0 011.24 0c.19.09.17.31.42.4h.48c.28 0 .56.21.93.25h.39a6.86 6.86 0 011.24.39c.33.12 1 .26 1 .57s-.61.48-.88.48c-.44 0-1-.26-1.49-.12a1.19 1.19 0 001.32 1c.06-.3-.35-.14-.31-.43.28-.21.62.15 1 .09.15 0 .13-.27.17-.42a1.32 1.32 0 011.26-.29.32.32 0 01.12-.11c0-.31-.34-.47-.14-.76a.46.46 0 01.7 0c.08.13-.13.17-.11.34a.44.44 0 00.45.25c.27 0 .33-.26.59-.39.11-.06.26-.06.39-.12a2.92 2.92 0 01.43-.22 1.45 1.45 0 01.36 0c.13 0 .34-.17.48-.17s.29.2.51.23l.42-.09h.39c.27 0 .46-.18.68-.17s.43.22.54.12-.25-.32-.12-.48a7.37 7.37 0 011.33.08 18.68 18.68 0 001.83.42c-.06-.39-.5-.27-.71-.45a1.59 1.59 0 01-.31-.59 3.49 3.49 0 01.4-.67 1.1 1.1 0 011.29.08c.16.22.11.54.34.54s.31-.5.54-.51.28.31.48.31.39-.44.7-.45.22.08.48.11-.06-.26 0-.42c.31-.23 1-.06 1.43-.2.12-.13-.14-.23 0-.37a4.23 4.23 0 011.52-.36c.36-.06.7-.31 1-.34s.58.17.85.17a1.45 1.45 0 00.5-.11c.16-.06.27-.22.43-.26a5.89 5.89 0 01.84 0 4.18 4.18 0 01.79-.11c.21 0 .37.25.56.28a17.06 17.06 0 011.75.06c.1 0 .19.13.31.17.36.13.61.09.68.53.28.1.45.36.78.45a2.81 2.81 0 00.71 0 8.37 8.37 0 011 .05c.16 0 .29.15.45.17a2.66 2.66 0 00.4 0c.13 0 .33.09.47.09.3 0 .52-.28.76-.31a2.1 2.1 0 01.43.05 11.06 11.06 0 011.41 0 2.88 2.88 0 01.78.45c.17.13.27.33.43.42a1.58 1.58 0 00.67.23c.18 0 .19-.23.37-.31.56-.13 1.55.18 2 0 .17-.08.14-.26.28-.37.84 0 1.69 0 2.48.06h.17a3.53 3.53 0 01.65 0 1.09 1.09 0 01.41.22l.13.09"/>
    <path class="cls-4" d="M110.49 97.3h-37V29.87c48.77 0 73.57-10 122.33-10V87.3c-2.71 0-5.28.06-7.73.16l-1.56.07c-29.26 1.5-42.29 9.77-75.15 9.77"/>
    <path class="cls-4" d="M189.19 69.67a.6.6 0 00-.13.28.55.55 0 00.41.65h.12a.53.53 0 00.54-.52v-.21"/>
  </g>
  <circle cx="126.12" cy="63.46" r="34.23" stroke="#d0d2d3" stroke-miterlimit="10" stroke-width=".5" fill="none"/>
  <path class="cls-6" d="M39.29 108.19L41.7 101h1.23l2.38 7.24 2.77-7.56h1.49L46.05 110h-1.38l-2.37-7.06-2.37 7.06h-1.35L35 100.63h1.49zM55.45 100.42a4.9 4.9 0 11.44 9.79 3.23 3.23 0 01-.44 0 4.9 4.9 0 11-.44-9.79 3.23 3.23 0 01.44 0zm0 8.53a3.64 3.64 0 10-3.5-3.78v.16a3.57 3.57 0 003.47 3.67zM69.37 104.68c0-2.28-1.17-3-2.37-3-1 0-2.86.74-2.9 3.77V110h-1.41v-9.37h1.41v2a3.22 3.22 0 013.14-2.19 3.28 3.28 0 013.22 2.2 3.39 3.39 0 013.29-2.2c2.13 0 3.71 1.15 3.71 4.26v5.3h-1.41v-5.32c0-2.28-1.17-3-2.37-3-1 0-2.81.64-2.9 3.62v4.7h-1.41zM88.91 108.57a5.32 5.32 0 01-4 1.64c-3.23 0-5.27-2.19-5.27-4.86a4.91 4.91 0 014.89-4.93h.16c2.4 0 4.66 1.51 4.7 4.88H81v.15a3.53 3.53 0 003.49 3.55h.41a4.58 4.58 0 003.2-1.24zm-7.71-4.36h6.71a3 3 0 00-3.2-2.54 3.53 3.53 0 00-3.51 2.54zM98.58 104.68c0-2.28-1.21-3-2.41-3-1 0-3.16.74-3.2 3.77V110h-1.41v-9.37H93v2a3.35 3.35 0 013.29-2.2c2 0 3.73 1.19 3.73 4.26V110h-1.44zM45.15 132.57h-1.42v-1.86a4.1 4.1 0 01-3.73 2.07 4.9 4.9 0 010-9.78 4.09 4.09 0 013.72 2.07v-1.87h1.42zm-5-1a3.64 3.64 0 10-3.44-3.44 3.64 3.64 0 003.44 3.44zM55.21 127.25c0-2.28-1.21-3-2.41-3-1 0-3.16.74-3.2 3.77v4.55h-1.41v-9.37h1.41v2a3.35 3.35 0 013.29-2.2c2 0 3.73 1.19 3.73 4.26v5.32h-1.41zM68.6 132.57h-1.41v-1.86a4.12 4.12 0 01-3.73 2.07 4.9 4.9 0 010-9.79 4.12 4.12 0 013.73 2.07V119h1.41zm-5-1a3.64 3.64 0 10-3.44-3.44 3.64 3.64 0 003.44 3.44zM85.84 132.46c0 3-2.18 4.53-4.85 4.53a6.09 6.09 0 01-4-1.3l.57-1.11a5.22 5.22 0 003.44 1.15 3.19 3.19 0 003.44-2.88 4.34 4.34 0 000-.51v-1.63a4.1 4.1 0 01-3.72 2.07 4.9 4.9 0 010-9.79 4.1 4.1 0 013.72 2.07v-1.86h1.41zm-5-.94a3.64 3.64 0 10-3.44-3.44 3.64 3.64 0 003.44 3.44zM89.64 119a1 1 0 011 1v.06a1 1 0 11-1.06-1.06zm.71 13.57h-1.41v-9.37h1.41zM94.89 125.46a2.84 2.84 0 012.76-2.46 2 2 0 01.77.15v1.4a1.83 1.83 0 00-.86-.19c-1.26 0-2.67 1.09-2.67 4.65v3.57h-1.41v-9.38h1.41zM101.6 132.57h-1.41V119h1.41zM108.9 125.33a1.49 1.49 0 00-1.5-1.1 1.58 1.58 0 00-1.72 1.41c0 .78.66 1.15 1.3 1.36l1.39.45c1.66.55 2.24 1.52 2.24 2.56 0 1.71-1.56 2.73-3.29 2.73a3.4 3.4 0 01-3.46-2.24l1.24-.32a2.25 2.25 0 002.22 1.31c1.05 0 1.88-.58 1.88-1.48 0-.74-.53-1.11-1.33-1.38l-1.32-.43c-1.34-.43-2.28-1.18-2.28-2.5a3 3 0 015.89-.72zM44.6 153.71a5.33 5.33 0 01-4 1.63c-3.23 0-5.27-2.18-5.27-4.85a4.91 4.91 0 014.89-4.93h.11a4.52 4.52 0 014.67 4.32 5 5 0 010 .55h-8.26v.15a3.53 3.53 0 003.5 3.54h.35a4.58 4.58 0 003.2-1.24zm-7.71-4.37h6.71a3.06 3.06 0 00-3.2-2.54 3.53 3.53 0 00-3.51 2.54zM53.93 149.81c0-2.27-1.17-3-2.37-3-1 0-2.86.74-2.9 3.76v4.56h-1.41v-9.37h1.41v2a3.22 3.22 0 013.14-2.18 3.28 3.28 0 013.22 2.2 3.38 3.38 0 013.29-2.2c2.13 0 3.71 1.15 3.71 4.25v5.33h-1.41v-5.33c0-2.27-1.17-3-2.37-3-1 0-2.81.64-2.9 3.61v4.71h-1.41zM64.93 145.77h1.41v1.86a4.1 4.1 0 013.72-2.07 4.9 4.9 0 010 9.78 4.09 4.09 0 01-3.72-2.06v6.07h-1.41zm5 1a3.64 3.64 0 103.36 3.36 3.64 3.64 0 00-3.36-3.36zM81.23 145.56a4.89 4.89 0 110 9.78 4.89 4.89 0 110-9.78zm0 8.52a3.63 3.63 0 10-3.49-3.77v.16a3.56 3.56 0 003.49 3.61zM91.41 153.33l2.41-7.24H95l2.39 7.24 2.77-7.56h1.48l-3.52 9.37h-1.33l-2.37-7.06-2.37 7.06h-1.36l-3.53-9.37h1.48zM111.93 153.71a5.29 5.29 0 01-4 1.63c-3.23 0-5.27-2.18-5.27-4.85a4.91 4.91 0 014.89-4.93h.11a4.52 4.52 0 014.71 4.32 5 5 0 010 .55H104v.15a3.53 3.53 0 003.5 3.54h.35a4.58 4.58 0 003.2-1.24zm-7.71-4.37h6.71a3.06 3.06 0 00-3.2-2.54 3.53 3.53 0 00-3.51 2.54zM116 148a2.86 2.86 0 012.77-2.47 2.07 2.07 0 01.77.15v1.39a2 2 0 00-.87-.18c-1.26 0-2.67 1.09-2.67 4.64v3.58h-1.41v-9.37H116zM129.46 153.71a5.33 5.33 0 01-4 1.63c-3.23 0-5.27-2.18-5.27-4.85a4.91 4.91 0 014.89-4.93h.11a4.52 4.52 0 014.71 4.32 5 5 0 010 .55h-8.34v.15a3.54 3.54 0 003.52 3.54h.34a4.58 4.58 0 003.2-1.24zm-7.71-4.37h6.71a3.06 3.06 0 00-3.2-2.54 3.53 3.53 0 00-3.51 2.54zM141.2 155.14h-1.42v-1.86a4.09 4.09 0 01-3.72 2.06 4.9 4.9 0 010-9.78 4.09 4.09 0 013.72 2.07v-6.09h1.42zm-5-1.06a3.64 3.64 0 10-3.36-3.36 3.64 3.64 0 003.36 3.36z"/>
  <path class="cls-7" d="M112.06 128.1c1.37.58 10.2-22.93 19.76-22.18 14.54 1.13 18.84 57.41 20.12 57.25 1.46-.17-1.73-75.47-16.78-76.71-11.38-.94-24.9 40.88-23.1 41.64z"/>
  <path class="cls-7" d="M116.87 57.2c1.62-1 6.57 11.91 17.84 13.9 13 2.29 23.7-11.73 25.3-10.11 2 2-9.2 28.17-25.81 25.5-15.65-2.49-19.47-28.01-17.33-29.29z"/>
  <ellipse class="cls-7" cx="137.64" cy="61.03" rx="7.03" ry="4.81" transform="rotate(-83.42 137.6402 61.03)"/>
  <path class="cls-8" d="M116.37 57.63c-.85-.87-6.57 6.62-13.5 5.39-6-1.06-8.66-7.93-9.52-7.41-1.14.68.89 14.28 9.25 15.62 8.86 1.43 14.81-12.54 13.77-13.6z"/>
  <path class="cls-8" d="M102.17 71.35c-5.69-.64-12.45 27.53-11.54 28 .68.39 5.09-15.44 9.88-14.94 7.26.76 9.42 38.66 10 38.55s-.81-50.78-8.34-51.61z"/>
  <ellipse class="cls-8" cx="103.48" cy="56.18" rx="4.61" ry="3.16" transform="rotate(-83.42 103.4785 56.181)"/>
</svg>
