<svg xmlns="http://www.w3.org/2000/svg" viewBox="0 0 300 120.3241">
  <path d="M38.8664 26.3084C17.7207 26.3084.1 35.2794.1 62.3448c0 21.4417 11.8487 34.9444 39.3125 34.9444 32.3261 0 34.3984-21.2942 34.3984-21.2942H58.1473s-3.3584 11.466-19.6904 11.466c-13.3019 0-22.8692-8.9858-22.8692-21.5807H75.449v-7.9036c0-12.4603-7.9101-31.6683-36.5825-31.6683zm-.546 10.1011c12.6621 0 21.2943 7.757 21.2943 19.3832H15.9342c0-12.3426 11.2672-19.3832 22.3862-19.3832z" fill="#e53238"/>
  <path d="M75.4378.1v83.5971c0 4.7452-.3387 11.408-.3387 11.408h14.9397s.5363-4.7853.5363-9.1586c0 0 7.3811 11.5475 27.4512 11.5475 21.1345 0 35.4904-14.673 35.4904-35.6952 0-19.5566-13.1864-35.2857-35.4563-35.2857-20.8543 0-27.3345 11.2614-27.3345 11.2614V.1001zm38.7664 36.7531c14.352 0 23.4783 10.6517 23.4783 24.9457 0 15.3277-10.5406 25.3552-23.376 25.3552-15.3178 0-23.5806-11.9602-23.5806-25.2187 0-12.3544 7.4145-25.0822 23.4783-25.0822z" fill="#0064d2"/>
  <path d="M190.6451 26.3084c-31.8121 0-33.8524 17.4188-33.8524 20.2022h15.8342s.8303-10.1694 16.9262-10.1694c10.4593 0 18.5642 4.7875 18.5642 13.9915v3.276h-18.5642c-24.6453 0-37.6745 7.2097-37.6745 21.8402 0 14.3986 12.0385 22.2327 28.307 22.2327 22.1715 0 29.3138-12.251 29.3138-12.251 0 4.8728.3757 9.6746.3757 9.6746h14.0764s-.546-5.952-.546-9.7599v-32.914c0-21.5812-17.4075-26.123-32.7604-26.123zm17.4722 37.1284v4.368c0 5.6972-3.5155 19.861-24.212 19.861-11.3333 0-16.1925-5.6561-16.1925-12.2169 0-11.9352 16.3638-12.012 40.4045-12.012z" fill="#f5af02"/>
  <path d="M214.879 29.0412h17.8135l25.5648 51.2173 25.5063-51.2173H299.9l-46.4593 91.183h-16.9262l13.4064-25.4185z" fill="#86b817"/>
</svg>
