<svg xmlns="http://www.w3.org/2000/svg" xmlns:xlink="http://www.w3.org/1999/xlink" xml:space="preserve" style="enable-background:new 0 0 612 396" viewBox="0 0 612 396">
  <style>
    .st13{fill:#fff}.st14{fill:#f4d8b9}.st18{fill:#af762a}.st21{fill:#23392a}.st42{fill:#233829}.st50{fill:#f4b536}.st53{fill:#d8a15b}.st54{fill:#f8f2e7}.st64{fill:#a44536}.st72{fill:#af752a}.st95{fill:#aa7b44}.st119{fill:#f3b534}.st123{fill:none;stroke:#22382a;stroke-width:2;stroke-miterlimit:10}.st127{fill:#7b471d}.st129{fill:none;stroke:#23392a;stroke-width:5;stroke-linecap:round;stroke-miterlimit:10}.st136,.st137{fill:none;stroke-width:2}.st136{stroke:#23392a;stroke-miterlimit:10}.st137{stroke-linecap:square}.st137,.st138{stroke:#23392a;stroke-linejoin:round}.st138,.st139,.st140{fill:none;stroke-width:2}.st139{stroke:#23392a;stroke-linecap:round;stroke-linejoin:round}.st140{stroke:#233829}.st141{stroke-linecap:square;fill:none;stroke-width:2}.st141,.st142{stroke:#23392a}.st142,.st150,.st153,.st154{fill:none;stroke-width:2}.st150{stroke:#233829;stroke-linejoin:round}.st153,.st154{stroke:#22382a;stroke-miterlimit:10;stroke-dasharray:2.9854,2.9854}.st154{stroke-dasharray:3.0738,3.0738}.st156{fill:#efb138}.st160{fill:#9a6527}
  </style>
  <g id="Layer_3">
    <path d="m457.4 94.2 10.2-1.6s1.8 34.7 20.3 50.4c-1.8-20.4-11.3-60.8-11.3-60.8l21.2-10.1s4.7 26.6 6.9 51c7.2-6.9 10.2-26.9 10.3-29.4l10.2-2.6c-.5 28.8-13.4 41.4-19.4 45.8.5 6.5 1.1 14.2 1.9 23.3.3 4.4.6 8.6.8 12.5 9.7-6.7 32.8-27.9 31.7-76.9l7.2-2.7s6.3 65.6-38.7 89c.6 45.3-3.6 45.9-8.5 95.9C495 332.9 537 398.2 537 398.2l-28.7-2.7c-20.5-72.2-38.4-87-20-176.9 3.4-16.6 2-37.7 1-56.8-9.9-8-29.8-28.8-31.9-67.6z" class="st136"/>
    <path d="M573.2 82s-6 26.2-39.4 22.3-47.2-6.9-63.8-6.2c-16.5.7-58.8-2.3-51.2-39.7 7.6-37.4 43.6-13.4 55.7-21s11-34 52.5-21.4c28.5 8.7 17 27.7 30.6 37 19.1 13.1 15.6 29 15.6 29z" class="st21"/>
    <path d="M305.2 157s.6-2.8 4.6-5.6c4-2.8 5.9-5.2 5.9-5.2l2.7-1 7.3-1.4 3.4-2.9 5.2-7.4 24.7-.3 3.8 4.6 6 5.8 7.5.7s21.5 3.2 24.3 6.3l-2.6 17.5-.9 77.5-116.8-3.7 19.6-68.9" class="st54"/>
    <path d="m323.8 168.7-21-4.8-3.6 7.1 23.1 4.3 1.5-6.6z" class="st18"/>
    <path d="m322.4 174.7-21.7-4.2-3.5 6.4 23.8 4.5 1.4-6.7z" class="st119"/>
    <path d="M328.9 135.6s-.2 7.2-3 8.8c-1.5.8-1.4 1.3-4.2 1.5-4.8.3-15 4-17.7 11.1-.2.7-10.5 31.2-15.6 49.9m71.5-71.1s.8 5 3.5 6.6c1.5.8 5 1.5 7.7 1.7 4.5.3 8.4.7 15.6 1.9 0 0 27.8-.4 41 29.9" class="st137"/>
    <path d="m330.2 111.7 1.1-6.6s12.5-5.1 18.1-4.3c5.6.8 17.7 5.2 17.1 13.2 0 0 .7 7-1.4 14-.6 2-1.3 3.9-2.3 5.8-2.7 5-7.8 8.9-15.2 8-19-2.2-17.4-30.1-17.4-30.1" class="st53"/>
    <path d="M362.8 116.7s1.7 6.1-1.4 12.8c-3 6.3-7.5 12.2-15.2 12.2-7.3 0-13.9-6.5-16.4-14.2-2.4-7.3-1.8-15.5-1.8-15.5" class="st138"/>
    <path d="M361.3 137.8s-3.5 11.7-16 11.2c-12.6-.5-17.8-15.2-17.8-15.2" class="st139"/>
    <path d="M363 137.7s-2.9 14.8-16.5 16.4c-13.6 1.6-19.7-16.7-19.7-16.7m39.2-25.8s-2.1-20.7-14.8-20.9c-17.5-2.6-22.7 5.4-26.6 18.2" class="st139"/>
    <path d="M347 100.8s-6.7 11.2-14.3 8.5c-2.6-.9-3.1-1.1-3.7-3.1 0 0 5.7-5.7 18-5.4" class="st21"/>
    <path d="M345.3 100.9s6.8 9.9 17 10l1.8-3c0 .1-7.7-7.9-18.8-7z" class="st21"/>
    <path d="M366 111.6s-4.6-11.1-20.7-10.7c-16.2.3-21.4 11.9-21.4 11.9m40.1 31.1s-1.9 13.7-17.7 14.4c-15.8.7-20.6-15.6-20.6-15.6" class="st139"/>
    <path d="m360.9 103-4.8-2.8s1.5-3.9 4.5-1.8c2.8 2 .3 4.6.3 4.6zm-5.2-2.9-5.4-1.2s.2-4.2 3.7-3.1c3.3 1 1.7 4.3 1.7 4.3z" class="st21"/>
    <path d="m349.9 98.8-5.5-.3s-.5-4.2 3.2-3.6c3.4.4 2.3 3.9 2.3 3.9z" class="st21"/>
    <path d="m344.2 98.5-5.5.9s-1.4-4 2.3-4.3c3.4-.2 3.2 3.4 3.2 3.4z" class="st21"/>
    <path d="m338.4 99.4-5.2 1.8s-2-3.7 1.6-4.6c3.2-.8 3.6 2.8 3.6 2.8z" class="st21"/>
    <path d="m333 101.3-4.8 2.7s-2.7-3.3.7-4.8c3.1-1.4 4.1 2.1 4.1 2.1zm24.5-4.9-4.5-2.2s1-3.7 3.9-2c2.7 1.7.6 4.2.6 4.2zm-4.8-2.2-5-.3s-.4-3.8 2.9-3.3c3 .4 2.1 3.6 2.1 3.6zm-5.6-.4-5 .1s-.7-3.7 2.6-3.5c3.1.1 2.4 3.4 2.4 3.4zm-5.3.1-4.9 1.2s-1.5-3.5 1.8-4c3-.5 3.1 2.8 3.1 2.8z" class="st21"/>
    <path d="m336.7 95.1-4 1.8s-1.8-2.8.9-3.7c2.6-.9 3.1 1.9 3.1 1.9z" class="st21"/>
    <path d="M367 131.5c-3.3 0-6.1-2.7-6.1-6s2.7-6 6.1-6 6.1 2.7 6.1 6-2.7 6-6.1 6zm-42.4-3c-3.3 0-6.1-2.7-6.1-6s2.7-6 6.1-6c3.3 0 6.1 2.7 6.1 6s-2.7 6-6.1 6z" class="st119"/>
    <path d="M366.9 144.8c-4.3 0-7.7-3.5-7.7-7.7s3.5-7.7 7.7-7.7c4.3 0 7.7 3.5 7.7 7.7s-3.4 7.7-7.7 7.7zm-41.5-1.5c-4.3 0-7.7-3.5-7.7-7.7 0-4.3 3.5-7.7 7.7-7.7 4.3 0 7.7 3.5 7.7 7.7.1 4.3-3.4 7.7-7.7 7.7z" class="st119"/>
    <path d="M376.6 153.5c0-5.3-4.3-9.6-9.7-9.6-5.3 0-9.7 4.3-9.7 9.6m-22.5-3.3c0-5.3-4.3-9.6-9.7-9.6s-9.7 4.3-9.7 9.6m45.3-50.3c-2.7 0-5-2.2-5-4.9s2.2-4.9 5-4.9c2.7 0 5 2.2 5 4.9s-2.3 4.9-5 4.9z" class="st119"/>
    <path d="M364.5 108.5c-2.7 0-5-2.2-5-4.9s2.2-4.9 5-4.9c2.7 0 5 2.2 5 4.9s-2.3 4.9-5 4.9zm-38.6-3.3c-2.7 0-5-2.2-5-4.9s2.2-4.9 5-4.9c2.7 0 5 2.2 5 4.9s-2.3 4.9-5 4.9z" class="st119"/>
    <path d="M366.5 120.1c-3.3 0-6.1-2.7-6.1-6s2.7-6 6.1-6 6.1 2.7 6.1 6c-.1 3.3-2.8 6-6.1 6zm-41.8-3.2c-3.3 0-6.1-2.7-6.1-6s2.7-6 6.1-6 6.1 2.7 6.1 6c-.1 3.3-2.8 6-6.1 6z" class="st119"/>
    <path d="M354.2 119.5c.9 0 1.6-.8 1.6-1.7 0-1-.7-1.7-1.6-1.7-.9 0-1.6.8-1.6 1.7 0 1 .7 1.7 1.6 1.7zm-16.6.1c1 0 1.7-.8 1.7-1.8s-.8-1.8-1.7-1.8-1.7.8-1.7 1.8.7 1.8 1.7 1.8z" class="st21"/>
    <path d="M350.5 118.3s3.1-5.7 7.9 0m-24.5 0s3.1-5.7 7.9 0" class="st138"/>
    <path d="M349 112.2s-.7-1.5 3.3-1.5 10 2.3 7.9 4.1c-1.3 1.1-.9-1.2-5.5-1.8-2.3-.3-5.5 1-5.7-.8zm-16.2 1.3s-1-1.2 2.4-2.3c3.4-1 8.9-.4 7.6 1.8-.8 1.4-1.1-.9-5.1-.3-1.9.4-4.3 2.5-4.9.8z" class="st21"/>
    <path d="M342.5 124.9s-1.2 1.6.6 1.7c.6 0 .9.4 1.4.6.7.3 1.5.3 2.2 0l1.2-.8 1.2.1s1.6-.3.5-1.6m-5.3-.8s.6-1 .7-2.3c.1-1.3-.1-2.7-.1-2.7" class="st138"/>
    <path d="M350.9 130c-1.8-.3-3.3-.6-5.2-.6-2.9 0-5 .2-5.2.7-.2.4 1 .9 5.3 1.1 1.6.1 4.4-.1 5.7-.6-1-.4.1-.6-.6-.6z" class="st18"/>
    <path d="M340.4 130.7c.7 1 3 3.4 5 3.5 3.5.4 6.3-3 7.3-4.4 0 0-1.7 6.6-7.7 5.8-4.9-.7-5.1-5.3-5.1-5.3" class="st18"/>
    <path d="M353.8 128.9s-2.3 2.6-7.7 2.4c-2.5-.1-6-1-7.4-2.4" class="st138"/>
    <path d="M351.9 130.3c-1.5 2.1-3 3.6-6 3.5-4.5-.2-4.9-2.3-5.7-3.9" class="st140"/>
    <path d="M324.1 163s-10.1 41.9-16 59.7" class="st137"/>
    <path d="M376.4 176.2c-4.8-1.4-3.1.6-3.1.6l3.4 21.5" class="st141"/>
    <path d="m385.7 195.9-26 6.8c-1.7-1.1-23 12.7-20.6 37.3.1.8 0 10.4 0 10.4l14.5 34.5 60.3 1.9s20-22.3 20.3-23.7c.3-1.4.3-45.5.3-45.5l-12.4-23.4-16 8.6-20.4-6.9z" class="st13"/>
    <path d="M436.6 146.8s.1-1.4-2.7-3.5c-2.7-2.1-9.5-9.4-8.2-10.7 1.2-1.3 3.6 1.1 3.6 1.1s2.1 3.1 4.7 2.4c3.8-.9.9-7 .9-7s-2.6-3.3-5.3-3-1.7 6.6-5.3 3.6c-2.5-2.1 2.7-7.6 8.1-6.4 4.1.9 4.9 7.9 5.8 8.1.1-2.4-2.5-13.3-2.8-16-.3-2.7 2.1-2.1 2.1-2.1 3.3 4.4 3.8 15.6 3.8 15.6s.5-7.5-1.5-13.2c0 0 .1-5.3 2.7-3.6 1.7 1.1 4.2 6.5 4.2 6.5 1.1 3.8.5 12.8.5 12.8.1-3.9 1.4-5.5.1-11.7-.5-2.4 2.4-.3 2.4-.3 4.9 11.6 0 24.8 0 24.8" class="st18"/>
    <path d="M447.3 144.1s6.1-13.2 1.1-24.8c0 0-2.2-3-1.7.8.9 7.2.2 9.2-1 11.8 0 0-.3-9.4-1.5-13.2 0 0-1.2-5-2.9-6.1-2.6-1.7-1.5 3.4-1.5 3.4 2 5.6 1.7 13.7 1.7 13.7s-1.8-11.4-5.1-15.7c0 0-2.7-1.6-2.4 1 .3 2.7 4.1 14.3 4 16.7 0 0-2.6-8-7.1-8.4-6.4-.6-7 3.4-7.2 4.1s-.4 4.2 2.6 3.8c2.6-.4.2-4.5 3.4-4 3.2.6 4.1 2.6 4.7 6.2" class="st142"/>
    <path d="M435.3 149s-.9-3.7-3.6-5.8c-2.7-2.1-8.7-10.1-7.5-11.4 1.2-1.3 3.7 2 3.7 2s1.9 2.2 4.6 1.9c2.7-.3 2-3.4 2-3.4" class="st142"/>
    <path d="m447.8 144.5-1.1 76.1 7.9-4.9 1.1-67-2.6-5.7zm10.2 9.8-.8 54.6s12.8-18.4.8-54.6zm-21.1-7.1.4 26-6.8-24.1z" class="st119"/>
    <path d="m382.8 152.7.2-.3s11.7-5.8 17.4-5c5.7.9 18.1 2.2 16.8 17.4 0 0 6.5 32.4-18.6 33.6-24.1-1.3-15.6-43.3-15.6-43.3" class="st18"/>
    <path d="m416.7 196.1 1.6-3 9.8 1.3-3.2 102h-11.4c0 .1 3.2-94.7 3.2-100.3zm-9-.5 6.5-1.2-2.8 102h-6c-.1.1 2.4-94.9 2.3-100.8zm27.7 100.9h-7.7s3.1-99.6 2.6-104.5c0 0 .6-1.1 6.3-9 1.3 8.5-1.2 113.5-1.2 113.5zm-56.3-102.1-11.6 1.9-3.9 100.1H375c.1.1 4.1-98.3 4.1-102zm11.5 12-9.4-6-3.2 120.3v7.9l8.5.8c0 .1 3.7-118.5 4.1-123zm15.5-3.6-12.2-2.4-5.1 119.8 5.8-17.3 8.4-6.4s2.8-88.9 3.1-93.7zm37.1 93.5h-5.4l1.8-149.5 5.6-1.9-2 151.4zm-90.9.2h8.9s3.3-94 3.8-99.5c0 0-6.6.9-8.8 6.1-.3 2-.3 12.7-.7 19.2-1.5 25.1-3.2 74.1-3.2 74.2m-9.8 4.8h7.9s3.3-94 3.8-99.5c0 0-5.9 2.2-7.5 11.9-1.6 9.6-4.2 87.5-4.2 87.6m-10.8-6.4 8.9-.4s3.3-71.5 3.8-77c0 0-6.3 18.4-7.9 28.1-1.6 9.7-4.8 71.4-4.8 71.4" class="st119"/>
    <path d="m388.9 192.9 23.6-3.3s.9 4.6 7.8 5.6c0 0-1.7 4.2-6.8 7.8-7.5 5.3-20.5 9.4-32-2l-2.5-3.2s7.8-1.5 8-7.3l1.9 2.4z" class="st18"/>
    <path d="M346.3 296.8c-19.3-52.3-1.9-84.2 5-89 5.6-7.9 15.5-7.8 20.8-9.1 3.5-.9 8.6-2.6 10.1-3.4 2.8-1.6 2.9-2.5 2.9-2.5m25.6 0s.2.5 2.9 2.1c1.4.8 5.1 1.5 7.8 1.7 0 0 21.8-5.6 13.2-33.9l-4.1-13.6 22.6-6s13.6 29 10.2 50.4c-3.4 21.1-15.8 29-19.2 30.5l2.3 33.1" class="st138"/>
    <path d="M417.5 196.6s-19.7 20.6-37.9.2" class="st139"/>
    <path d="m414.5 161.1.6 9.5s3.4 24.9-16.2 26.7c-19.6 1.8-18.5-23.5-18.5-23.5l.1-10.7" class="st138"/>
    <path d="M395.5 183.4c-4.3.2-10-.5-10.5 8.1.5 7.3 7.1 10.2 12.6 10.1 5.1-.1 10.5-4 11-6.8 0 0 .8-.8-.2-3.9-.6-7.4-6.1-7.7-11.3-7.5h-1.6zm-6.7 5.7c0-4.1 3.5-3.4 6.8-3.5 3.4-.1 9.3-1.4 9.3 3.9-.1 2.7-4.3 5.4-8 3.4-3.1 1.5-8.2.2-8.1-3.8z" class="st21"/>
    <path d="M380.2 172.4s-4.8-2.7-3.9 2.3c.8 4.9 4.6 6 4.6 6m34.8-8.3s4.8-2.7 3.9 2.3c-.8 4.9-4.6 6-4.6 6" class="st139"/>
    <path d="M380.6 164.2c-1.9 0-3.4-1.5-3.4-3.3 0-1.8 1.5-3.3 3.4-3.3s3.4 1.5 3.4 3.3c0 1.8-1.5 3.3-3.4 3.3z" class="st21"/>
    <path d="M384.6 159.8c-1.9 0-3.4-1.5-3.4-3.3s1.5-3.3 3.4-3.3 3.4 1.5 3.4 3.3-1.6 3.3-3.4 3.3z" class="st21"/>
    <path d="M382.2 159.5c-1.9 0-3.4-1.5-3.4-3.3 0-1.8 1.5-3.3 3.4-3.3s3.4 1.5 3.4 3.3c0 1.8-1.5 3.3-3.4 3.3z" class="st21"/>
    <path d="M384.4 156.4c-1.9 0-3.4-1.5-3.4-3.3s1.5-3.3 3.4-3.3 3.4 1.5 3.4 3.3-1.5 3.3-3.4 3.3z" class="st21"/>
    <path d="M389.7 158.1c-1.9 0-3.4-1.5-3.4-3.3 0-1.8 1.5-3.3 3.4-3.3s3.4 1.5 3.4 3.3c0 1.8-1.5 3.3-3.4 3.3zm11.7-.8c-1.9 0-3.4-1.5-3.4-3.3s1.5-3.3 3.4-3.3 3.4 1.5 3.4 3.3-1.5 3.3-3.4 3.3z" class="st21"/>
    <path d="M403.3 156.1c-1.9 0-3.4-1.5-3.4-3.3s1.5-3.3 3.4-3.3 3.4 1.5 3.4 3.3-1.5 3.3-3.4 3.3z" class="st21"/>
    <path d="M408.3 155.2c-1.9 0-3.4-1.5-3.4-3.3 0-1.8 1.5-3.3 3.4-3.3s3.4 1.5 3.4 3.3c-.1 1.8-1.6 3.3-3.4 3.3zm5.1 7.3c-1.9 0-3.4-1.5-3.4-3.3s1.5-3.3 3.4-3.3 3.4 1.5 3.4 3.3-1.6 3.3-3.4 3.3z" class="st21"/>
    <path d="M412.2 158c-1.9 0-3.4-1.5-3.4-3.3 0-1.8 1.5-3.3 3.4-3.3s3.4 1.5 3.4 3.3c0 1.8-1.5 3.3-3.4 3.3z" class="st21"/>
    <path d="M407.8 158.8c-1.9 0-3.4-1.5-3.4-3.3 0-1.8 1.5-3.3 3.4-3.3s3.4 1.5 3.4 3.3c0 1.8-1.5 3.3-3.4 3.3zm7.4 7.6c-1.6 0-2.8-1.3-2.8-2.8 0-1.5 1.3-2.8 2.8-2.8 1.6 0 2.8 1.3 2.8 2.8 0 1.6-1.2 2.8-2.8 2.8zm.4 4.9c-1.3 0-2.4-1.1-2.4-2.4 0-1.3 1.1-2.4 2.4-2.4 1.3 0 2.4 1.1 2.4 2.4 0 1.4-1.1 2.4-2.4 2.4zm-35.8.3c-1.6 0-2.8-1.3-2.8-2.8 0-1.5 1.3-2.8 2.8-2.8 1.6 0 2.8 1.3 2.8 2.8 0 1.6-1.2 2.8-2.8 2.8z" class="st21"/>
    <path d="M380.1 167.8c-1.6 0-2.8-1.3-2.8-2.8 0-1.5 1.3-2.8 2.8-2.8 1.6 0 2.8 1.3 2.8 2.8 0 1.5-1.3 2.8-2.8 2.8zm11.5-11.5c-1.9 0-3.4-1.5-3.4-3.3 0-1.8 1.5-3.3 3.4-3.3s3.4 1.5 3.4 3.3c-.1 1.8-1.6 3.3-3.4 3.3z" class="st21"/>
    <path d="M392.6 151.7c-1.9 0-3.4-1.5-3.4-3.3s1.5-3.3 3.4-3.3 3.4 1.5 3.4 3.3-1.5 3.3-3.4 3.3z" class="st21"/>
    <path d="M397.5 156.1c-1.9 0-3.4-1.5-3.4-3.3s1.5-3.3 3.4-3.3 3.4 1.5 3.4 3.3-1.6 3.3-3.4 3.3z" class="st21"/>
    <path d="M403.2 152.7c-1.9 0-3.4-1.5-3.4-3.3s1.5-3.3 3.4-3.3 3.4 1.5 3.4 3.3-1.6 3.3-3.4 3.3z" class="st21"/>
    <path d="M397.6 151.7c-1.9 0-3.4-1.5-3.4-3.3 0-1.8 1.5-3.3 3.4-3.3s3.4 1.5 3.4 3.3c0 1.8-1.5 3.3-3.4 3.3z" class="st21"/>
    <path d="M395.5 157.2c-1.9 0-3.4-1.5-3.4-3.3s1.5-3.3 3.4-3.3 3.4 1.5 3.4 3.3-1.5 3.3-3.4 3.3zm13.6-2.7c-1.9 0-3.4-1.5-3.4-3.3s1.5-3.3 3.4-3.3 3.4 1.5 3.4 3.3-1.5 3.3-3.4 3.3zm5.4 6.6c-1.9 0-3.4-1.5-3.4-3.3s1.5-3.3 3.4-3.3 3.4 1.5 3.4 3.3-1.6 3.3-3.4 3.3zm-28.3-3.3c-1.9 0-3.4-1.5-3.4-3.3 0-1.8 1.5-3.3 3.4-3.3s3.4 1.5 3.4 3.3c-.1 1.8-1.6 3.3-3.4 3.3z" class="st21"/>
    <path d="M388.1 153.6c-1.9 0-3.4-1.5-3.4-3.3 0-1.8 1.5-3.3 3.4-3.3s3.4 1.5 3.4 3.3c-.1 1.8-1.6 3.3-3.4 3.3z" class="st21"/>
    <path d="M415.2 172.2s3.4.9 2.6-7.1c-.8-8-.8-18-21.2-18.5 0 0-12.5-.8-16.9 11.7l.4 3.9 4.5-9.1 8-1.4 14.1 1.1 4.5 2.7 4 5.4v11.3z" class="st21"/>
    <path d="M393.1 172.3c-1.3-3.8-4.8-2.6-6.1-2.1-.8.3-1.3 1.6-1.3 1.6" class="st138"/>
    <circle cx="389.5" cy="171.7" r="1.9" class="st21"/>
    <path d="M400.5 172.3c1.5-4 5.2-2.6 6.6-2 .8.4 1.3 1.8 1.3 1.8" class="st138"/>
    <circle cx="404.4" cy="171.8" r="2.1" class="st21"/>
    <path d="m410 171.8 1.5-.7m-1.4 2.6 1.6.1m-27.7-1.7-1.3-.6m19.5 15.5s-4.9 2.7-11.2-.3" class="st138"/>
    <path d="M394.8 169.2s1.3 2.1-.3 4.4" class="st140"/>
    <path d="M392.6 165.5s-3.3-1.8-7.2 0c0 0-2.3.8-2 1.8.5 1.7 2.8-.6 4.8-.6s4.1.8 4.1.8 1.9.7 2.1-.4c.1-1-1.8-1.6-1.8-1.6zm8.4-.3s3.6-1.8 8 0c0 0 2.5.8 2.2 1.8-.5 1.7-3.1-.6-5.3-.6-2.2 0-4.5.8-4.5.8s-2.1.7-2.3-.4c-.2-.9 1.9-1.6 1.9-1.6z" class="st21"/>
    <path d="M391.7 178.9c-.5.3-1.8 1.9.2 2.9m1.6-1.3c.7-.1 1.3.4 1.3.4s1.3 1 2.5.5c1.3-.5 1.4-.6 2-.7m1.7-1.7c.5.3 2.5 2.2-.4 3.1" class="st138"/>
    <path d="M420 193.5s.1 1.8-1.3 4.8c-1.3 3-2.5 12.3-.8 12.7 1.7.4 2.2-3.4 2.2-3.4s.6-2.6 3-3.8 3.4 1.7 3.4 1.7 1.7 7.2 2.3 10.2c.6 3 1.8 3.2 2.7.9.8-2.3-1.5-12.6-1.5-12.6 1.3 1.8 3.7 12.9 4.8 15.1 1.1 2.3 2.6-.4 2.6-.4.7-5.1-3.3-14.9-3.3-14.9s4.2 6.2 5.3 11.6c0 0 1.6 4.6 3 1.9.9-1.8-.5-6.2-.5-6.2-.9-3.5-5.2-11.1-5.2-11.1 2 3 3.4 4.5 5.3 10 .7 2.2 2.3-1 2.3-1-1.5-11.6-12.2-19.4-12.2-19.4" class="st53"/>
    <path d="M418.1 193.2s1.1 3.4-.3 6.4c-1.3 3-2.5 12.3-.8 12.7s2.2-3.4 2.2-3.4.6-2.6 3-3.8c2.5-1.1 3.4 1.7 3.4 1.7s1.7 7.2 2.3 10.2c.6 3 1.8 3.2 2.7.9.8-2.3-1.5-12.6-1.5-12.6 1.3 1.8 3.7 12.9 4.8 15.1 1.1 2.3 2.6-.4 2.6-.4.7-5.1-3.3-14.9-3.3-14.9s4.2 6.2 5.3 11.6c0 0 1.6 4.6 3 1.9.9-1.8-.5-6.2-.5-6.2-.9-3.5-5.2-11.1-5.2-11.1 2 3 3.4 4.5 5.3 10 .7 2.2 2.3-1 2.3-1-1.5-11.6-12.2-19.4-12.2-19.4" class="st142"/>
    <path d="M417.2 172.7s14.2 2.1 18.4 16.2l-19.2 10.9-5.6-7.5s5.5-2.5 6.4-19.6z" class="st54"/>
    <path d="M427.8 175.9s.5 1 8.8 13.3l-19.2 10.9-5.6-7.5" class="st137"/>
    <path d="M415.7 172.4s4.8-2.7 3.9 2.3c-.8 4.9-4.6 6-4.6 6" class="st72"/>
    <path d="M415.7 172.4s4.8-2.7 3.9 2.3c-.8 4.9-4.6 6-4.6 6" class="st139"/>
    <path d="m86.8 334 104.7 1.1-13.6-128.8c.9-.7-4.4-25.7-15-25.4-8 .2-39.7 1-39.7 1l-9.6.5s-5.7 1.3-8.3 10.2C102.7 201.4 86.8 334 86.8 334z" class="st72"/>
    <path d="M154.2 173.1s.3 7.6 3.2 9.3c1.6.9 2.9-.5 5.8-.3 5.1.3 9.7 3.8 11.4 9.9 2.1 8.9 3.2 12.6 3.4 13.6m-49.4-31.1s-.8 3.9-3.7 5.5c-1.5.9-4.6 1.1-7.9 2.1-5 .3-7.7 5.5-9.1 10.4-.2.8-2.9 11.9-3 12.8m14.9-4.2-.7 4.6m44.8-.1-.3-5.6" class="st137"/>
    <path d="M119.5 178.4s-3.7 3-1.7 7.7c0 0 3.4 2 9.8 5.7 0 0 8.2 18.4 27.6 10.4 7.1-3 8.6-11.6 8.6-11.6l6.4-3.7-1.7-4.9-4.2-7.4-2.3-5.5c4.7-24-5.9-29.7-5.9-29.7-9.2-5.7-10.8-4.7-16.2-5.5-11.4-1.6-15.6 6-15.6 6-5.5 8.1-8.8 21.9-9.6 28.9l-.1 3.1c-.1 1.5.5 2.9 1.7 3.8l3.2 2.7z" class="st50"/>
    <path d="m158 154.9-1-5.9s-9.4-7.6-14.4-6.9c-5 .7-13.5 8.1-13 15.3 0 0-.6 6.3 1.2 12.7.5 1.8 1 4.1 1.9 5.8 2.5 4.5 9.1 6.5 15.7 5.3 3.9-.7 3.9-2 5.4-4.6 4.8-8.5 4.2-21.7 4.2-21.7" class="st14"/>
    <path d="M153.6 162.1c-.9 0-1.5-.8-1.5-1.7 0-.9.8-1.6 1.6-1.6.9 0 1.5.8 1.5 1.7 0 .9-.8 1.7-1.6 1.6zm-14.9-.4c-.9 0-1.5-.8-1.5-1.7 0-.9.8-1.6 1.6-1.6.9 0 1.5.8 1.5 1.7 0 .9-.7 1.6-1.6 1.6z" class="st21"/>
    <path d="M142.3 160.6s-2.6-5.2-7-.3c0 0-.2.7-1.8-.7m16.7 1.3c4.5-4.9 6.5-.5 6.5-.5l1.4-.6m-10.9-2.6-.7 1.5 1.8 6.1m2.4 1.7s-.3 1.3-1.4 1.5c0 0-1.4 2.2-3.6.9-.5-.3-1.4-.4-1.7-.7-1.2-.8-1.4-1-1.4-1l1.1-1.3m-9.1-7.7 1.4 1.4" class="st138"/>
    <path d="M141.2 170.8c1.6-.1 2.8-.1 5.7-.1 3.1 0 3.6.4 3.8.8.2.4-1.2 1.3-5.1 1-1.4-.1-3.9-.6-5-1.2.9-.3 0-.6.6-.5z" class="st64"/>
    <path d="M150.4 172.6c-.8.8-3 2.7-4.9 2.6-3.2-.1-4.5-2.6-5.2-4 0 0 .7 5.7 6 5.7 4.5 0 5.3-4.7 5.3-4.7" class="st64"/>
    <path d="M138.7 169.5s2.6 2.6 7.5 3c2.3.2 5.8-.9 7.2-2" class="st138"/>
    <path d="M140.3 170.5c1.1 2 2.5 4.2 5.2 4.4 4 .4 5.4-1.6 6-3.5" class="st140"/>
    <path d="M133 152.3s4.2-5.4 13.8-4.7c9.6.7 9.6 3.5 12.1 6.2 0 0 .5-12.4-13.3-11.9-.1 0-11.8.7-12.6 10.4z" class="st21"/>
    <defs>
      <path id="SVGID_00000088814169713535736830000017115356025934338960_" d="M119.5 178.4s-3.7 3-1.7 7.7c0 0 3.4 2 9.8 5.7 0 0 8.2 18.4 27.6 10.4 7.1-3 8.6-11.6 8.6-11.6l6.4-3.7-1.7-4.9-4.2-7.4-2.3-5.5c4.7-24-5.9-29.7-5.9-29.7-9.2-5.7-10.8-4.7-16.2-5.5-11.4-1.6-15.6 6-15.6 6-5.5 8.1-8.8 21.9-9.6 28.9l-.1 3.1c-.1 1.5.5 2.9 1.7 3.8l3.2 2.7z"/>
    </defs>
    <clipPath id="SVGID_00000046323978689714510310000014084869620071990934_">
      <use xlink:href="#SVGID_00000088814169713535736830000017115356025934338960_" style="overflow:visible"/>
    </clipPath>
    <path d="M134.6 177c-1.5-4.4-1.8-6.8-1.8-6.8-5.4-30.3 12.7-27.8 12.9-28.2 0 0 12.6-1.7 13.9 14.9 0 0 0 11.4-4.7 20-2.7 4.9-6.8 4.9-6.8 4.9-7.9.3-9.1-1.5-12.4-3.6-3.9-2.5-6.3-7-7.9-15.2-1.6-7.6-2.6-15.1 2.3-24.7 2.6-5 8.2-6.1 12.2-6.8" style="clip-path:url(#SVGID_00000046323978689714510310000014084869620071990934_);fill:none;stroke:#23392a;stroke-width:2;stroke-linecap:square;stroke-linejoin:round"/>
    <path d="M127.4 192.6s7.3 6.2 17.6 5.6c5.6-.3 10.1-2.9 12.8-5.7 3.1-3.2 5.2-10.9 5.2-10.9l2.6-9.1m-31.7 4s-11.4-8.1-11.9-16.7 2.1-15.2 2.1-15.2" style="clip-path:url(#SVGID_00000046323978689714510310000014084869620071990934_);fill:none;stroke:#23392a;stroke-width:2;stroke-linecap:square;stroke-linejoin:round"/>
    <path d="M118.7 178.7c5.4 7.4 12.4 10.4 12.4 10.4s5.2 3.7 16.8 4c6 .2 11.2-3.6 13-6.1" style="clip-path:url(#SVGID_00000046323978689714510310000014084869620071990934_);fill:none;stroke:#23392a;stroke-width:2;stroke-linecap:square;stroke-linejoin:round"/>
    <path d="m151.5 155.1-1.9.9c-.2.1-.5-.1-.5-.3l.1-.5c0-.2.2-.4.4-.6l1.6-1c.3-.2.6-.3 1-.3l4.8.2c.5 0 .6.4.7.9.1.3-.3.6-.8.6l-4.8-.1-.6.2zm-15.2-.3-1.9.9c-.2.1-.7-.1-.6-.4l.1-.5c0-.2.2-.4.4-.6l1.6-1c.3-.2.6-.3 1-.3l6.4.2c.5 0 .7.5.8 1 .1.3-.5.7-1 .7l-6.1-.2-.7.2z" class="st21"/>
    <path d="M163.5 169.5c-.2.9-2.6 15.6-15.6 19" class="st137"/>
    <path d="M201.6 186.9c-5.4-15.1-3.9-26.7-3.9-26.7s.2-1.6 1.7-3.9 3.8-10.1 2.5-10.7c-1.3-.7-2.3 2.5-2.3 2.5s-.8 2.2-3 2.7-2.5-2.1-2.5-2.1-.3-6.5-.4-9.1c0-2.7-1-3.1-2.1-1.3-1 1.8-.6 11.1-.6 11.1-.8-1.8-1.2-11.7-1.7-13.8-.6-2.1-2.1-.1-2.1-.1-1.3 4.2.6 13.4.6 13.4s-2.6-6.1-2.7-10.9c0 0-.7-4.2-2.2-2.2-1 1.3-.5 5.4-.5 5.4.2 3.2 2.7 10.5 2.7 10.5-1.2-2.9-2.1-4.4-2.8-9.5-.3-2-2 .4-2 .4-.5 10.2 7.2 18.9 7.2 18.9l.7 1.3c-2 34.7 15.8 52.9 15.8 52.9l8-9.1-6.7-9-3.7-10.7z" class="st53"/>
    <path d="M199.6 160.6c1 3.2-1 27.2 14 43.4 7.1 5.8 12.9 5.7 18.1 6.8 3 .7 7.6-.4 9.4-.8 3.4-.8 6.3-5.5 6.3-5.5" class="st138"/>
    <path d="M199.7 161.1s-.4-3.1 1.1-5.4c1.5-2.3 3.8-10.1 2.5-10.7-1.3-.7-2.3 2.5-2.3 2.5s-.8 2.2-3 2.7-2.5-2.1-2.5-2.1-.3-6.5-.4-9.1c-.1-2.7-1-3.1-2.1-1.3-1 1.8-.6 11.1-.6 11.1-.8-1.8-1.2-11.7-1.7-13.8-.6-2.1-2.1-.1-2.1-.1-1.3 4.2.6 13.4.6 13.4s-2.6-6.1-2.7-10.9c0 0-.7-4.2-2.2-2.2-1 1.3-.5 5.4-.5 5.4.2 3.2 2.7 10.5 2.7 10.5-1.2-2.9-2.1-4.4-2.8-9.5-.3-2-2 .4-2 .4-.5 10.2 7.2 18.9 7.2 18.9s.2 6.4.9 13.7c1 10.6 1.6 22.2 15.2 39.2" class="st142"/>
    <path d="m272.7 158.2 7.5 18.6s-.5 28-14.5 31.7c-16.5 4.3-17.3-27.9-17.3-27.9l-.8-9.8m59.7 87.1 2.9 26.2-9.4 5.7-4.5-28.8" class="st53"/>
    <path d="m275.5 187.8 3.5-7.6s5.1-1.1 4.2 4.6-8.3 6.1-8.3 6.1l.6-3.1zm.2 8.3-21.3.8c0 3-.4 5.6-1.1 9.3-.6 3.7-7.3 4.9-11.6 5.1l6.6 8.4h11.4l16.2-2.1 2.8-10.9h2.6c0-.2-6.1-3.6-5.6-10.6z" class="st53"/>
    <path d="m311.5 244.8-.7-8.8s-1.4-20.2-8.5-27c-2.7-3.8-19.6-3.8-19.6-3.8s-9-.5-7.8 9.2c0 0-7.3-4.2-11.4 3.8 0 0-4-7-13.2-3.3 0 0-.2-8.4-7.6-8.1 0 0-3.4.7-8.7.9 0 0-5.2 3.2-14-6.5-1.7.2-13.2-8.2-20.4 5.2-6.1 11.4 3.6 24 3.2 24.4l7 7.6 20.6 13.4s-21 34.5-.4 36.8l22 8.8s18.1-.4 16.4-.4" class="st13"/>
    <defs>
      <path id="SVGID_00000076598551987427454680000017863982387502516393_" d="m250 253.7 59.2-16.8s-.3-20.8-7.2-27.5c-2.7-3.7-19.1-3.7-19.1-3.7s-8.7-.5-7.6 8.9c0 0-7.1-4.1-11.1 3.7 0 0-7.5-6.6-13.8-3.6 0 0 .7-7.8-6.5-7.5 0 0-1.8-.6-7-.4 0 0-15.8 7.2-22.4-19.5-2.9 6 1.6 45.6.1 49.3l21.6 9.8 14.3 7.6"/>
    </defs>
    <clipPath id="SVGID_00000036947389110778400560000001768187841961040528_">
      <use xlink:href="#SVGID_00000076598551987427454680000017863982387502516393_" style="overflow:visible"/>
    </clipPath>
    <path d="M286.7 199.5s-.3 29.1-25 27.2c-24.7-1.9-22.1-28.7-22.1-28.7" style="clip-path:url(#SVGID_00000036947389110778400560000001768187841961040528_);fill:none;stroke:#f4b536;stroke-width:9;stroke-linecap:round;stroke-miterlimit:10"/>
    <path d="M291.6 208.6s-.4 26.3-30.2 24.5-26.7-25.9-26.7-25.9" style="clip-path:url(#SVGID_00000036947389110778400560000001768187841961040528_);fill:none;stroke:#af752a;stroke-width:9;stroke-linecap:round;stroke-miterlimit:10"/>
    <path d="M297.2 208.9s-.5 32.6-36.1 30.5-32-32.1-32-32.1" style="clip-path:url(#SVGID_00000036947389110778400560000001768187841961040528_);fill:none;stroke:#22382a;stroke-width:9;stroke-linecap:round;stroke-miterlimit:10"/>
    <path d="M220.7 202.1c6.6 6.2 14.8 5.8 20 5.5 3-.2 6.3-.1 7.9-1 3-1.7 3.6-4.2 3.6-4.2" class="st138"/>
    <path d="m213.6 199.4-.9-3.2s-10.3-1.1-15.6 7.4l2.9 4.2m108.3 50.3.2 4.3s-4.8 5.4-11.4 3.3l-.9-6.8" class="st13"/>
    <path d="m308.3 257.2.2 3.2s-4.8 5.3-11.4 3.2l-.8-1.7" class="st137"/>
    <path d="M273.7 198.5s1.5 6.2 4.5 7.9c1.6.9 4.9.9 7.9 1.1 5.2.4 17.3-.6 19.9 10.2 2.7 10.7 3.8 16.2 3.8 18.5 0 0 7.3 28.6-16.6 24.4M278.3 177s.3 8.1-3.5 18.1c-1.5 3.9-5.8 12.2-13 12.7-6.9.4-9.5-4.8-11.9-9.8-3-6.2-4.1-26.5-4.1-26.5v-5.6" class="st138"/>
    <path d="M246.2 181.9c-1.9-.7-3.7-2.4-3.9 1.7.2 4.8 3.6 6.7 5.2 8m30.9-9.6s4.3-2.2 3.6 3.2c-.7 5.4-5.4 6.1-5.4 6.1" class="st139"/>
    <path d="M249.4 183c3.9-4.5 7.6-.2 7.6-.2" class="st138"/>
    <ellipse cx="253" cy="182.6" class="st21" rx="1.5" ry="1.6"/>
    <path d="M256.7 177.3s1.6.4 1.1 1.1c-.5.7-3.7-.4-3.7-.4s-2.6-1-4.7 1l-1.1.8v-.4c0-.6.2-1.2.7-1.5 1.2-1 3.9-2.3 7.7-.6z" class="st21"/>
    <path d="M263 182.8c4.1-4.5 8-.2 8-.2" class="st138"/>
    <circle cx="266.8" cy="182.4" r="1.6" class="st21"/>
    <path d="M258.9 180.3s.8 1.9-.2 4.6" class="st138"/>
    <path d="M264.1 190.5s.1 1.9-2.2.9c0 0-2.3 2.3-3.7 0 0 0-1.8 1.1-1.9-.5" class="st150"/>
    <path d="M271.3 194.9s-1.2-2.5-3.7-3.5" class="st138"/>
    <path d="M260.5 196.7s0-3.8-6.1-1.4l6.1 1.4z" class="st18"/>
    <path d="M259.6 196.7s0-3.5 7.5-1.5l-7.5 1.5zm-.1 4.2c-3-.7-3-4.4-3-4.4s3.1 5.9 9.3.6c0 0-2.2 4.7-6.3 3.8z" class="st18"/>
    <path d="M267.2 195.5s-6.2 1.7-12.9 0" class="st138"/>
    <path d="M256.1 196s3.9 7.7 10.7-.3m7.9-13.5-2.6-.1m2.4 2.4-2.7-.9" class="st138"/>
    <path d="M258.7 169.2c-3 0-5.4-2.5-5.4-5.6s2.4-5.6 5.4-5.6 5.4 2.5 5.4 5.6-2.4 5.6-5.4 5.6z" class="st21"/>
    <path d="M243.7 173.4c2.6 1.2 7.3 1.7 12.2-4.8.1-.1.2-.3.4-.3l6.4-2.2c.1 0 .2-.1.2-.1.8-.7 5-2.6 9.6 1.6 1.9 1.7 3 4.3 3.6 10.6.8 7.8 4.2 5.8 5.3 4.9.2-.1.3-.4.3-.6l-.3-7.3s-.3-3.2-.3-3.3l-.6-2.2c-2.2-16.6-17.7-14.6-19.2-14.3h-.2c-.2 0-.5-.1-.9 0-.6.1-1 .8-1.8.4-1-.6-1.9-2.1-4.1-1.9-1.7.1-2.7 1.5-3.4 2.3-.6.7-1.5 1.1-2.5 1.1-1.2 0-2.9.3-4 3-.7 1.7-.7 4.3-2.9 3.3-1.8-.8-2.3 4.9 2.1 4.3 0 0 .4.3-4.1-1-.5-.2-1.1.4-.9.9.4 1.6 1.5 4 3.6 4.9" class="st21"/>
    <path d="M264.1 177.3s-1.9.4-1.3 1.1c.6.7 4.4-.4 4.4-.4s3.1-1 5.6 1l1.3.8-.2-.8c-.2-.8-.6-1.4-1.3-1.7-1.4-.8-4.3-1.6-8.5 0zm-20.9-4.4s.5 15.8 4.9 15l-1.4-18-3.5 3z" class="st21"/>
    <path d="M295.6 326.6s2.2-10.7 0-29.8c-1.7-14.4-4.5-50.6-4.2-54.9m-90.5-12.1c-8.6-14.7-.9-25-.9-25 5.3-8 14.6-8.4 20.9-2.7" class="st138"/>
    <path d="m212.6 198.4-.9-3.2s-10.3-1.1-15.6 7.4l2.9 4.2" class="st138"/>
    <path d="m358.4 345.8-64.8-1.9-4.9 53.8 74.9 2.3z" class="st72"/>
    <path d="M315.8 358.1c-19.5-2.3-30.8-13.6-32.8-43.5v-10.4c.1-.9.6-10.2 4.2-17.2 5.6-9.9 17.3-11.1 22.1-11.4 2.7-.2 6-.6 7.5-1.4 2.7-1.6 3.1-6.1 3.1-6.1s5.5 8.2 19.3 2.4c0 0-.6 2.6 3.2 4.8 1.5.8 4.8 1.2 7.6 1.4 4.8.3 10.8.4 17.6 10.2 2.8 4.8 3 8.2 3.1 9l1.7 9.3v9.5c-2 29.9-13.5 41.2-33.2 43.5" class="st119"/>
    <defs>
      <path id="SVGID_00000160892523102217134590000006734663559220805507_" d="m285.3 268.4 77.1 6.4 9.1 20.3.8 13.9-1.4 20-7.1 16.9-10.4 9.1-13.8 3.4-24.9-.6-10.3-2.1-9.1-4.7-7.4-12.7-4.3-20-.2-16.1z"/>
    </defs>
    <clipPath id="SVGID_00000009573311696748942140000011180708428580029595_">
      <use xlink:href="#SVGID_00000160892523102217134590000006734663559220805507_" style="overflow:visible"/>
    </clipPath>
    <g style="clip-path:url(#SVGID_00000009573311696748942140000011180708428580029595_)">
      <path d="M374.1 288.5h-1.5" class="st123"/>
      <path d="M369.7 288.1c-5.1-1-6.6-3.6-14.1-3.6-9.3 0-9.3 4-18.5 4-9.3 0-9.3-4-18.5-4-9.3 0-9.3 4-18.5 4-8.1 0-9.1-3.1-15.5-3.8" class="st153"/>
      <path d="M283 284.5h-1.5" class="st123"/>
    </g>
    <g style="clip-path:url(#SVGID_00000009573311696748942140000011180708428580029595_)">
      <path d="M374.1 355.8h-1.5" class="st123"/>
      <path d="M369.7 355.5c-5.1-1-6.6-3.6-14.1-3.6-9.3 0-9.3 4-18.5 4-9.3 0-9.3-4-18.5-4-9.3 0-9.3 4-18.5 4-8.1 0-9.1-3.1-15.5-3.8" class="st153"/>
      <path d="M283 351.9h-1.5" class="st123"/>
    </g>
    <g style="clip-path:url(#SVGID_00000009573311696748942140000011180708428580029595_)">
      <path d="M374.1 305.3h-1.5" class="st123"/>
      <path d="M369.6 304.9c-5.3-1-6.8-3.6-14.5-3.6-9.5 0-9.5 4-19.1 4-9.5 0-9.5-4-19.1-4-9.5 0-9.5 4-19.1 4-8.4 0-9.4-3.1-16.1-3.8" class="st154"/>
      <path d="M280.2 301.4h-1.5" class="st123"/>
    </g>
    <g style="clip-path:url(#SVGID_00000009573311696748942140000011180708428580029595_)">
      <path d="M374.1 323.5h-1.5" class="st123"/>
      <path d="M369.7 323.1c-5.1-1-6.6-3.6-14.1-3.6-9.3 0-9.3 4-18.5 4-9.3 0-9.3-4-18.5-4-9.3 0-9.3 4-18.5 4-8.1 0-9.1-3.1-15.5-3.8" class="st153"/>
      <path d="M283 319.5h-1.5" class="st123"/>
    </g>
    <g style="clip-path:url(#SVGID_00000009573311696748942140000011180708428580029595_)">
      <path d="M374.1 340.3h-1.5" class="st123"/>
      <path d="M369.6 340c-5.3-1-6.8-3.6-14.5-3.6-9.5 0-9.5 4-19.1 4-9.5 0-9.5-4-19.1-4-9.5 0-9.5 4-19.1 4-8.4 0-9.4-3.1-16.1-3.8" class="st154"/>
      <path d="M280.2 336.4h-1.5" class="st123"/>
    </g>
    <path d="m336.5 265.3.6 6.3s-10 3.2-19.1-4.1l1.8-4.6 16.1.9.6 1.5z" class="st18"/>
    <path d="M327.6 218.1c-15.1.9-16.8 11-16.8 11l-.6 7.7s-.2 5.9.2 8.5c1.3 8 4.7 22.2 18 22.7 10.6.4 14.3-7 17.7-13.2 3.1-5.8 1.9-12.4 1.9-12.4l-.4-12.9c-.1.1-2.6-12.4-20-11.4z" class="st18"/>
    <path d="M312.3 242.5s-2.8-4.3-5.4-1.4c-2.6 2.9 1.4 9.9 5.9 10.5 2.7.3-.5-9.1-.5-9.1z" class="st18"/>
    <path d="M338.2 343.1s-.6-2.6-6.2-3c0 0-2.3.4-3 1.1 0 0-1.3-2.4-5.5-2.6s-5.5 2.3-5.5 2.3l-2.8 16.9s14.7 6.8 24.3.6l-1.3-15.3z" style="fill:#bc8b4a"/>
    <path d="M352.5 316.2c.9 24-14.9 25.5-14.9 25.5l2 16.7.8-.2c19.8-2.3 30.3-13.5 32.3-43.4v-9.5L371 296c-.1-.9-.3-4.2-3.1-9-6.8-9.9-12.8-9.9-17.6-10.2-2.8-.2-6.1-.6-7.6-1.4-3.8-2.2-3.2-10.5-3.2-10.5m-19.5-2.6s-.4 10.2-3.1 11.8c-1.5.8-4.8 1.2-7.5 1.4-4.8.3-16.5 1.5-22.1 11.4-3.7 7.1-4.1 16.3-4.2 17.2v10.4c2 29.9 11.4 40.8 30.9 43l1.3.2 2.8-16.9S302 340 302.9 316" class="st142"/>
    <path d="M312.1 242.1s-3.5-3.7-4 1.5c-.4 4.6 5.3 6.9 5.6 7.4m36.1-8.5s4.4-2.8 3.6 2.4c-.9 5.1-4.2 6.2-4.2 6.2" class="st139"/>
    <path d="M319.5 268.9s9.4 7 20.3 1.5" class="st136"/>
    <path d="M329.7 218.3c-15.1.9-16.6 10.5-16.6 10.5l-1.1 7.5s-.1 3.5 1.2 10.1c.5 2.6 2.1 8.9 3.8 11 4.6 5.8 6.8 10.6 14.9 10.7 6.4.1 6.7-3.2 11.9-8.6 1.3-1.4 4.8-5.7 5.2-7.5 1.3-5.1.9-9.7.9-9.7l-.4-12.9c-.2.1-2.5-12.1-19.8-11.1z" class="st138"/>
    <path d="M327.2 255.8c1.8-.4 3.3-.6 5.3-.6 2.9 0 5.1.2 5.3.7.2.4-1 .9-5.4 1.1-1.6.1-4.5-.1-5.8-.6 1.1-.4-.1-.7.6-.6z" class="st127"/>
    <path d="M337.9 256.4c-.8 1-3 3.4-5.1 3.6-3.6.4-6.5-3-7.4-4.5 0 0 1.7 6.7 7.8 5.9 5-.7 5.2-5.4 5.2-5.4" class="st127"/>
    <path d="M323.7 253.8s2.9 3.4 8.4 3.3c2.6-.1 6.1-1 7.5-2.5" class="st138"/>
    <path d="M324.9 251.7c-.3 1-1.5 3-3.3 3.2m4.3.7c1.4 2.9 3.4 4.1 6.5 4 4.5-.2 5-2.4 5.8-4" class="st140"/>
    <path d="M323.6 246.2c1 0 1.8-.8 1.8-1.8s-.8-1.8-1.8-1.8-1.8.8-1.8 1.8.8 1.8 1.8 1.8z" class="st21"/>
    <path d="M327.4 244.9c-1-1.8-4.1-4.3-8 0" class="st140"/>
    <path d="M327.4 242c-1-1.1-5.3-3.3-8.6.5" class="st140"/>
    <path d="M340.1 246.2c1 0 1.9-.8 1.9-1.9s-.8-1.9-1.9-1.9-1.9.8-1.9 1.9.9 1.9 1.9 1.9z" class="st21"/>
    <path d="M343.8 244.9c-1-1.8-4.1-4.3-8 0" class="st140"/>
    <path d="M344 242.1c-1-1.1-3.4-3.5-8.1-.1" class="st140"/>
    <path d="M326.5 235.6c2.1-.1 3 .7 2.6 1.6-.6 1.4-1.6.2-4.9.6-2.7.4-5.7.7-7.8 2.3l1-2.4c1.6-1.4 6.5-2 9.1-2.1zm11.1.1c-1.8-.1-2.7.8-2.3 1.9.5 1.5 1.4.2 4.3.6 2.4.3 5 .7 6.9 2.4l-1.3-2.8c-1.4-1.8-5.3-2.1-7.6-2.1z" class="st42"/>
    <path d="M333 239.9s-1 1.4-.6 3.6 1.2 3.4 1.2 3.4m-5.1 2.8c-.7 0-1.1.8-1 1.1.1.8 1.4 1.1 1.4 1.1l1.1.4 2 .9c.5.1 1.1.1 1.6 0l1.1-.8c1.5-.7 2.1-1.3 2.1-1.3s.6-1.3-1-1.4" class="st140"/>
    <path d="M337.2 341.9s-3.1-2.2-8.6-.5c0 0-7 1.3-5.1 3 1.9 1.7 7 .8 7 .8s4.1-.4 4 1.7-7.3 2.4-8.7 2.3c-1.3-.2-3.8.6-2.6 2.1 1.1 1.5 5.1 2.4 9 1.5 4-.9 3.6 1.5 1.7 2.6-2.3 1.3-3.8 1.1-7 1.3-2.3.1-4.9.2-4.1 1.9.8 1.7 7.5 2.8 16.4 0" class="st142"/>
    <path d="M328.6 341.4s-4.5-4.5-10.5-.6m7.9 19.3s-7.7-.2-10.2-2.3" class="st142"/>
    <defs>
      <path id="SVGID_00000008870301035040153360000013672772680924506282_" d="m313.1 246.4 1.8 6.8 3 5.6 4.5 5.4s5 10.4 5 11c0 .6 1.1 16.2 1.1 16.2l-.6 8.4s-20.4-.7-21.5-.9c-1.1-.2-9.5-19.3-9.5-19.3s-.9-15.6-.7-16.7c.2-1.1 5.8-11.5 5.8-11.5l11.1-5z"/>
    </defs>
    <clipPath id="SVGID_00000092448408584850866800000017387026167438556033_">
      <use xlink:href="#SVGID_00000008870301035040153360000013672772680924506282_" style="overflow:visible"/>
    </clipPath>
    <path d="M319.5 261.6s-4.6 12.1 5.2 23.9" style="clip-path:url(#SVGID_00000092448408584850866800000017387026167438556033_);fill:none;stroke:#23392a;stroke-width:5;stroke-linecap:round;stroke-miterlimit:10"/>
    <path d="M317.8 258.8s-11.1 17.7 6.4 34.4" style="clip-path:url(#SVGID_00000092448408584850866800000017387026167438556033_);fill:none;stroke:#23392a;stroke-width:5;stroke-linecap:round;stroke-miterlimit:10"/>
    <path d="M315.9 255.8s-12.3 16-1.8 37.4" style="clip-path:url(#SVGID_00000092448408584850866800000017387026167438556033_);fill:none;stroke:#23392a;stroke-width:5;stroke-linecap:round;stroke-miterlimit:10"/>
    <path d="M315 251.2c-.9 1.1-13.1 9.7-10.3 32.9" style="clip-path:url(#SVGID_00000092448408584850866800000017387026167438556033_);fill:none;stroke:#23392a;stroke-width:5;stroke-linecap:round;stroke-miterlimit:10"/>
    <path d="M330.5 219.3s-5.1 3.8-15 4.6m20.1-4.8s.5 13.2 15.2 16.1m-16.4-14.9c.3 5.1-7.7 14.6-21.8 13.9m36.9-4.3c-10.5-4.4-10.2-10.5-10.2-10.5m-2.6-1.3s4.9-.2 11.4 5.5" class="st129"/>
    <path d="M332.2 219.4s-4.7 9.5-19.1 9.8m19.2-11.6c.5 0-6.9-2.5-13.7 2.9" class="st129"/>
    <path d="m304.4 355.7-3.4 20.5m10.9-18-1.5 13.2" class="st142"/>
    <path d="m235 285.8-6.2.3-9.2 8.2-13.4 3.4-13.5-2.3-12.2-9.6-11.3 3.2s-7.9.5-7.4 19.6l-4.8 80.6 81 20.1 1.2-47.1s.6 6.6 13.2 5.8c8.1-.5 11.5-1.6 14.4-36.5" class="st156"/>
    <path d="M215.7 268.5s10-1.8 15-10.9c4.9-9 3.2-8.6 3.2-8.6s3.1-13.3-10.7-20.2l-6.4-3.1s-19.8-4.8-27.4 6.5l-2.1.8s-10.2 4.2-9.9 14.1c0 0-3.4 15.4 13 18.1 0 0 25.2 3.1 25.3 3.3z" class="st13"/>
    <path d="M235 285.8c16.9.7 17.9 31.9 17.9 31.9" class="st156"/>
    <defs>
      <path id="SVGID_00000129924705890414972710000014746321778610168199_" d="m235 285.8-6.2.3-9.2 8.2-13.4 3.4-13.5-2.3-12.2-9.6-11.3 3.2s-7.9.5-7.4 19.6l-9 94.6 85.2 6.1 1.2-50.8s.6 10.1 13.2 9.5c12.6-.6 14.8-19.5 9.8-59.8"/>
    </defs>
    <clipPath id="SVGID_00000085248246148842696180000000274979614926967729_">
      <use xlink:href="#SVGID_00000129924705890414972710000014746321778610168199_" style="overflow:visible"/>
    </clipPath>
    <path d="m239.1 415.4-12.6 12.9-50.6-94.4 1.1-47.5 61 54.7zm0 55.9-64.4-61.4 2.3-67.7 49.5 93.4z" class="st72" style="clip-path:url(#SVGID_00000085248246148842696180000000274979614926967729_)"/>
    <g style="clip-path:url(#SVGID_00000085248246148842696180000000274979614926967729_)">
      <defs>
        <path id="SVGID_00000181781115387084599840000004837107726954729620_" d="m239.1 415.4-12.6 12.9-50.6-94.4 1.1-47.5 61 54.7z"/>
      </defs>
      <clipPath id="SVGID_00000135657855176124828890000017903926039089169049_">
        <use xlink:href="#SVGID_00000181781115387084599840000004837107726954729620_" style="overflow:visible"/>
      </clipPath>
      <g style="clip-path:url(#SVGID_00000135657855176124828890000017903926039089169049_)">
        <path d="m222.6 321.7-3.2.9 24.4 85.1 3.2-.9-24.4-85.1zm37.2 81.5-3.2.9-22-76.9 3.6.3 21.6 75.7zm-55.2-96.3-2.9 1.6 29.4 102.9 3.2-.9-29.7-103.6zm-20.5-21.4-4.3-2.7 37.9 132.5 3.2-.9-36.8-128.9zm-13.6 7.7-3.2 2.7 36.3 125.3 3.2-.9-36.3-127.1zm1.6 57.2-1.7 4.3 19.7 70.3 3.2-.9-21.2-73.7z" class="st21"/>
        <path d="m169.3 362.2.9 3.3 85.5-24.5-.9-3.3-85.5 24.5zm1.8 13.5.8 2.9 87.4-25-.8-2.9-87.4 25zm5.5 12.1.9 3.3 85.5-24.5-.9-3.3-85.5 24.5zm1.9 13.5.8 2.9 87.4-25-.8-2.9-87.4 25zm5.8 13.1.9 3.3 85.5-24.5-.9-3.3-85.5 24.5zm55.3-86.4 2.9 2.7-69.7 19.2 4.3-4.1 62.5-17.8zm-81.5-5 .9 3.3 85.5-24.5-.9-3.3-85.5 24.5zm1.8 13.5.8 2.9 87.4-25-.8-2.9-87.4 25zm68.5-47.7 2.9 2.7-69.7 19.2 4.3-4.1 62.5-17.8z" class="st21"/>
      </g>
      <defs>
        <path id="SVGID_00000182504208353652958730000016521414866963152570_" d="m239.1 471.3-64.4-61.4 2.3-67.7 49.5 93.4z"/>
      </defs>
      <clipPath id="SVGID_00000059289056835630398290000001492926426304094117_">
        <use xlink:href="#SVGID_00000182504208353652958730000016521414866963152570_" style="overflow:visible"/>
      </clipPath>
      <g style="clip-path:url(#SVGID_00000059289056835630398290000001492926426304094117_)">
        <path d="m224.6 328.8-3.2.9 22.3 78.1 3.2-.9-22.3-78.1zm35.2 74.4-3.2.9-22-76.9 3.6.3 21.6 75.7zM211 328.9l-2.9 1.4 23.2 81 3.2-.9-23.5-81.5zm-14 1.8-3.9-1.5 24.6 85.9 3.2-.9-23.9-83.5zm-13.2 9.1-3.4 2.1 23.2 79.3 3.2-.9-23-80.5zm-11.7 10.6-1.9 4L190 425l3.2-.9-21.1-73.7z" class="st21"/>
        <path d="m169.3 362.2.9 3.3 85.5-24.5-.9-3.3-85.5 24.5zm1.8 13.5.8 2.9 87.4-25-.8-2.9-87.4 25zm5.5 12.1.9 3.3 85.5-24.5-.9-3.3-85.5 24.5zm1.9 13.5.8 2.9 87.4-25-.8-2.9-87.4 25zm5.8 13.1.9 3.3 85.5-24.5-.9-3.3-85.5 24.5zm55.3-86.4 2.9 2.7-69.7 19.2 4.3-4.1 62.5-17.8z" class="st21"/>
      </g>
    </g>
    <path d="M233.8 243.8c3 16.6-11.1 21.9-11.1 21.9l-1.7-.3 12.8-21.6z" class="st119"/>
    <path d="M171 374.2c2.4 1.5 7.8 6.3 6.7 7.4-1.1 1.1-3.2-1.3-3.2-1.3s-1.7-1.6-4-1.2c-2.3.4-1.7 2.7-1.7 2.7s2.2 5.7 3.2 8 .2 3.1-1.5 1.9c-1.7-1.2-5-9.4-5-9.4-.1 1.8 3.5 10.5 3.8 12.6.3 2-2.1.9-2.1.9-3-3.2-4.7-11.8-4.7-11.8s-.1 6.2 1.7 10.4c0 0 1 3.9-1.3 2.7-1.5-.8-2.6-4.5-2.6-4.5-1.1-2.8-1.5-10-1.5-10 0 3-.3 4.6 1 9.3.5 1.8-2.1.4-2.1.4-4.5-8.6.5-19.8.5-19.8" class="st95"/>
    <path d="M172.1 374.7c2.8.5 5.9 9.6 4.8 10.7s-3.1-3.3-3.1-3.3-1.2-3-1.3-3.1c-2.3-.6-1.7 2.7-1.7 2.7s2.2 5.7 3.2 8 .2 3.1-1.5 1.9c-1.7-1.2-5-9.4-5-9.4-.1 1.8 3.5 10.5 3.8 12.6.3 2-2.1.9-2.1.9-3-3.2-4.7-11.8-4.7-11.8s-.1 6.2 1.7 10.4c0 0 1 3.9-1.3 2.7-1.5-.8-2.6-4.5-2.6-4.5-1.1-2.8-1.5-10-1.5-10 0 3-.3 4.6 1 9.3.5 1.8-2.1.4-2.1.4-4.5-8.6-.4-19-.4-19" class="st142"/>
    <path d="m191.3 259.7 20.3-32.2 1.2-2.6c4.2.6 3.6.2 5.8 1.8l-12.4 20.9 8.4 2.3 11.4-19.3c1.3 1.1 4 3.1 5.1 4.5l-16.7 28.2 2.2 1.2m-31.2-10.2 18.3-29.6-.9.1s-5.5.3-9.4 3.5l-15.2 27.3c1 1.3 2.4 5.1 3.2 5.4l4-6.7z" class="st119"/>
    <path d="M228.5 284.8s-12 .1-12-5.5l-19.4-2.2s-1.2 4.8-2.5 7.8c-1.3 2.9-7.5 3.8-12.7 4.6 0 0 14.1 15.3 33.5 7.2 0 0 8.3-2.8 13.2-10.3" class="st160"/>
    <path d="M206.2 246.9c17.5 3.2 14.3 16.5 14.3 16.5l-.4 2.9 3-2.4s-2.4 21.2-16.9 22.6c-16.9-1.6-17.3-26.9-17.3-26.9v-7.9s.2-5.6 17.3-4.8z" class="st160"/>
    <path d="M187.3 254.9s0 14.2 5.3 23.9c1.8 3.3 5.7 6.8 11.4 6.6 4.3-.2 7.4-2 10.9-6.6 7.1-9.1 6.3-26.9 6.3-26.9s-3.2-19.7-24.4-20.5c-16.6-.6-19 11.8-19 11.8s-4.1 18.1 10.1 21.6" class="st138"/>
    <path d="M187.2 254.8c2-9.5 16.3-7.8 17.3-7.8 0 0 12.8-.2 16.4 12.9" class="st139"/>
    <path d="M193.2 231.4c17.1-10.7 36 1 36.5 15.2.4 12.4-9.5 19.9-9.5 19.9" class="st138"/>
    <path d="M187.2 254.8s0-11.8 11.7-12.6c10.9-.7 17.4 1.8 22.3 9.7" class="st150"/>
    <path d="M193.2 280.1s.4 2.8-2.7 4.5c-1.6.9-10.3 1.5-13.3 1.7-3.1.2-5.8 1.1-10.1 3.4-2.9 1.5-5.4 3.7-6.2 6.7-2.8 10.6-5.6 75.6-5.8 76.5" class="st137"/>
    <path d="M228.3 286.1s-22 26.2-51 .3" class="st139"/>
    <path d="M215.9 278.4s1 4.6 3.4 5.8c1.6.9 7.5 1.3 10.5 1.5 5.9.4 14 2.1 17.5 14.3.2.8 2 12.6 3.4 18.6m-22.6-10.5v9.1" class="st137"/>
    <path d="M198.8 259s-3.8-4-8.2 0" class="st140"/>
    <circle cx="194.8" cy="259.3" r="2.1" class="st42"/>
    <path d="M214.5 259.3s-4.4-4.3-8.8-.3" class="st140"/>
    <ellipse cx="209.9" cy="259.2" class="st42" rx="2.1" ry="2"/>
    <path d="M198 255.5s-.9-.9-3.5-.9c-2 0-3.3.6-3.3.6m23.5 1.2s-1-1.8-4.7-1.8c-2 0-3.1.5-3.1.5m-6.3 8.2c.9-2.1 1.1-5.2 1.1-5.2s-.4-2.4-1.1-3.6" class="st140"/>
    <path d="M199.3 252.5c.6.1.9-.9.3-1.3-1.2-.6-3-1.2-5.6-1.1-6 .3-5.2 3.9-1.8 2.3 1.3-.5 5.9 0 7.1.1zm5.2-.1c-.8.1-1.1-1.1-.4-1.5 1.5-.8 3.8-1.4 7.2-1.3 7.8.3 6.7 4.5 2.4 2.7-1.7-.7-7.7-.1-9.2.1z" class="st42"/>
    <path d="M205.3 269.1s.7 2.3-2.6.8c0 0-2.2 2-3.9-.1 0 0-1.6 1.8-2.5-.5" class="st150"/>
    <path d="M208.8 267.7s.2 4.3 4.9 4.6m-16.9 1.9c4.5 4 11.9-.8 11.7-1.3" class="st140"/>
    <path d="M207.7 274s-4.2-2.5-10 .6c0 0-1.3 3.8 4.3 3.6 5.6-.1 5.7-4.2 5.7-4.2z" style="opacity:.3;fill:#23392a"/>
    <path d="M207.7 271.9s1.1 1.4 2.5 1.7" class="st140"/>
    <path d="m234.4 278-14.1 47.5 37.5 10.7 14.1-47.5z" class="st21"/>
    <path d="m267.9 291.3-31-9.2 1.1-3.7c.5-1.6 2.1-2.6 3.6-2.1l6 1.8c1.5.4 3.1-.5 3.6-2.1l.1-.4c.4-1.2 1.5-1.9 2.6-1.5l4.5 1.3c1.1.3 1.7 1.5 1.3 2.7l-.3 1.1c-.4 1.3.3 2.6 1.4 3l6.8 2c1.2.4 1.8 1.7 1.4 3-.5 1.8-1.3 4.2-1.1 4.1z" class="st138"/>
    <circle cx="255.2" cy="278" r="1.7" class="st21" transform="rotate(-74.752 255.158 277.962)"/>
    <path d="m155.4 373.5 20.5 1 3-.1" class="st137"/>
    <path d="m268.7 313.6-20-2.4-6.2 46.6 21.8-4.7z" class="st156"/>
    <path d="m244.4 341.6 4.3-30.4" class="st137"/>
    <path d="m268.3 301.1-8.3-1s-3.1.1-2.7 2.4c0 0 .4 1 2.7 1.4l7.6 1.3s2.8.5 3-1.8c.1-1.9-2.3-2.3-2.3-2.3zm-1 4.3-8.2-1.6s-3.1-.1-2.8 2.2c0 0 .3 1 2.6 1.6l7.5 1.8s2.7.7 3.1-1.5c.1-2-2.2-2.5-2.2-2.5z" class="st95"/>
    <path d="m266.2 309.2-8.2-1.9s-3.1-.2-2.9 2.1c0 0 .3 1 2.5 1.7l7.4 2s2.7.8 3.2-1.4c.4-1.9-2-2.5-2-2.5z" class="st95"/>
    <path d="m264.6 313.1-6.8-2.5s-2.6-.6-2.8 1.2c0 0 .1.8 2 1.6l6.1 2.6s2.2 1 2.9-.7c.5-1.5-1.4-2.2-1.4-2.2z" class="st95"/>
    <path d="M265.7 313.8c.6 1.4-3.4 38.8-3.4 38.8s-1.4 15.1-12.1 14c-10.6-1.1-12.4-4.5-13.2-9.5" class="st138"/>
    <path d="m451.1 270.6 1.9-6.6s6.9.3 6.1-7c-.8-7.3-5.3-4.2-5.3-4.2l.8-10.6s1.3-9-11.3-11.5-19 3-20.1 4c-1.1 1.1-5.8 30.6 5.3 40.9l-6.2 7.3s18.4 18.7 36.3-3.5c.1.1-7.7-3.4-7.5-8.8zm-49.7 75.5c-2.4 18.7 2.2 31.7 2.2 31.7s.6 1.7 2.9 4.1c2.3 2.3 6.9 10.7 5.6 11.8-1.4 1.1-3.2-2.3-3.2-2.3s-1.5-2.3-4.1-2.3c-2.6-.1-2.3 3-2.3 3s1.3 7.5 1.9 10.6c.6 3.1-.4 3.8-2 2-1.6-1.8-3.5-12.6-3.5-12.6-.5 2.3 1.6 13.7 1.5 16.3-.1 2.6-2.4.7-2.4.7-2.6-4.5-2.7-15.6-2.7-15.6s-1.4 7.6-.3 13.2c0 0 .3 5-1.9 3.1-1.4-1.3-1.9-6.1-1.9-6.1-.6-3.7.4-12.7.4-12.7-.6 3.6-1.3 5.6-.9 11.7.2 2.4-2.4 0-2.4 0-3.1-11.6 3.5-23.5 3.5-23.5l.5-1.7c-10.9-39.5 4.8-64.7 4.8-64.7l11.4 8.6-5.4 12-1.7 12.7z" class="st14"/>
    <path d="M405.7 376.2s.3 3.6 2.7 6 6.9 10.7 5.6 11.8c-1.4 1.1-3.2-2.3-3.2-2.3s-1.5-2.3-4.1-2.3-2.3 3-2.3 3 1.3 7.5 1.9 10.6-.4 3.8-2 2c-1.6-1.8-3.5-12.6-3.5-12.6-.5 2.3 1.6 13.7 1.5 16.3-.1 2.6-2.4.7-2.4.7-2.6-4.5-2.7-15.6-2.7-15.6s-1.4 7.6-.3 13.2c0 0 .3 5-1.9 3.1-1.4-1.3-1.9-6.1-1.9-6.1-.6-3.7.4-12.7.4-12.7-.6 3.6-1.3 5.6-.9 11.7.2 2.4-2.4 0-2.4 0-3.1-11.6 3.5-23.5 3.5-23.5s-1.4-7.4-2.4-16c-1.5-12.4-3.7-25.9 7.6-48.8" class="st142"/>
    <path d="m492.5 308.5-11.7-27.1c-10.5 4.5-23.8-1.9-23.8-1.9-20.1 19.4-35.7 2-35.7 2l-10.2 4.4c-9.8.6-13.6 7.1-13.6 7.1-2.4 5.2-3 8-4.5 16.7l-4.7 24.5 15.8.8 2.1 42.5 69.1.4-.4-57.6s-2.6-2.6 6-6.8c8.7-4.1 12.4-4.1 12.4-4.1" style="fill:#f4f2ef"/>
    <path d="M501.2 266.3c10-14.3 11.9-27 11.9-27s.3-1.7-.6-4.6c-.9-2.9-1-11.8.6-12.1 1.6-.3 1.6 3.3 1.6 3.3s.2 2.5 2.3 3.7c2.1 1.2 3.2-1.5 3.2-1.5s2.2-6.7 3.1-9.5c.8-2.8 2-2.9 2.5-.7s-2.6 11.9-2.6 11.9c1.3-1.7 4.6-12 5.8-14 1.2-2.1 2.2.5 2.2.5.1 4.8-4.5 14-4.5 14s4.4-5.6 5.9-10.7c0 0 1.9-4.3 2.9-1.7.6 1.7-1.1 5.9-1.1 5.9-1.1 3.3-5.8 10.2-5.8 10.2 2.1-2.7 3.5-4.1 5.7-9.2.9-2 1.9 1 1.9 1-2.5 10.9-12.9 17.7-12.9 17.7l-1.1 1.1c-8.1 37.2-31.7 51-31.7 51l-5.5-12 9.6-7.5 6.6-9.8z" class="st14"/>
    <path d="M511 239.1c-2 3.1-7 29-27.1 41.5-9 4-14.9 2.1-20.6 1.7-3.3-.2-7.7-2.7-9.4-3.7-3.3-1.8-4.9-7.7-4.9-7.7" class="st138"/>
    <path d="M510.7 239.7s1.3-3.1.4-6-1-11.8.6-12.1c1.6-.3 1.6 3.3 1.6 3.3s.2 2.5 2.3 3.7c2.1 1.2 3.2-1.5 3.2-1.5s2.2-6.7 3.1-9.5c.8-2.8 2-2.9 2.5-.7s-2.6 11.9-2.6 11.9c1.3-1.7 4.6-12 5.8-14s2.2.5 2.2.5c.1 4.8-4.5 14-4.5 14s4.4-5.6 5.9-10.7c0 0 1.9-4.3 2.9-1.7.6 1.7-1.1 5.9-1.1 5.9-1.1 3.3-5.8 10.2-5.8 10.2 2.1-2.7 3.5-4.1 5.7-9.2.9-2 1.9 1 1.9 1-2.5 10.9-12.9 17.7-12.9 17.7s-2.1 6.6-5 14.2c-4.2 10.8-8.2 22.9-27.1 36.7" class="st142"/>
    <path d="M425.9 269.2s-3.7-3-4-15.2c0 0-3.1-3.1-.4 10.7 0 0 3.2 8.8 5.2 9.9l-.8-5.4z" class="st18"/>
    <path d="M454.6 248.9s-.6 6.2-1.8 15.3c-.7 5.4-6.2 10.6-13.6 13.4-6.8 2.6-12.6-3.2-15.8-7.2-5.6-6.9-3.4-28.4-3.4-28.4l.6-5s1.9-9.2 20-8.1 14 20 14 20z" class="st138"/>
    <path d="M427.6 275.2c0 1.3-.6 7.4-14 8.9 0 0-18.2 1.2-21.8 14.6-1.7 6.3-5.6 32.7-5.6 32.7l19 .6" class="st138"/>
    <path d="M444.1 268.1s5.4-.4 7.2-10.6l1.5-11.7 1.5.9-1.7 14.5-1.5 6.9s-4.1 10.6-10 11.5l3-11.5z" class="st18"/>
    <path d="m435.3 264.5-3.2-1.9s-6.3 1.7-6.5 8.9c0 0 .5 11.1 10.8 10.6 10.9-.6 11.3-12.4 11.3-12.4s-4.6-8.6-7.9-7.5l-4.5 2.3z" class="st18"/>
    <path d="M453.8 264.1s3.8.8 5.1-6.5c.7-5.5-3.7-3.2-3.7-3.2" class="st139"/>
    <path d="M442.2 268.2s-5.3 1.3-12.2-.5" class="st138"/>
    <path d="M431.9 268.2s3.7 6.6 9.7 0M418.8 283s9.3 12.6 24.3 9.5C455 290 459.9 282 459.9 282m-35 .7-2.5 3m4-1.6-1.5 3.5m4.4-2.1-1.7 3.9m4.8-2.2-1.4 4m4.8-3-.4 4.2m3.6-4.2v4.4m3.3-4.8.8 4.7m2.4-5.3 1.6 4m2.6-6.1 2.3 4.1" class="st138"/>
    <path d="M451.4 284.3c0 .6 2.7 3.4 2.7 3.4m-.9-5.4 4 3" class="st138"/>
    <path d="M424.2 281.3c-.4 1.3 16.1 15.4 31.6-1.4l3.7 2" class="st138"/>
    <path d="m434.7 250.7-2.4 12s.4.5 1.4 1.1l.8.7c.3.1.7.2 1.1 0l1.4-.7.8-.3s.9-.2 1-.9c0-.3-.1-.5-.7-1 0 0 5.9-.4 8.3 7" style="fill:none;stroke:#233829;stroke-width:2;stroke-linecap:round;stroke-linejoin:round"/>
    <path d="m405.9 310.8-2.6 65.9 69.3.6v-30.5l-.6-22.6c.1-2.1-1.1-6.8 2.8-9.6 6.7-4.8 20.3-8.5 20.3-8.5l-11.3-25.4" class="st138"/>
    <path d="M419.4 253.5c-1.4-.7-3.8-2.4-3.9 1.8.1 4.9 3.7 6.8 5 8.1" class="st139"/>
    <path d="M431.9 255.2c-1.3-3.9-4.9-2.6-6.2-2.1-.8.3-1.3 1.7-1.3 1.7" class="st138"/>
    <circle cx="428.2" cy="254.6" r="2" class="st21"/>
    <path d="M439.4 255.2c1.5-4.1 5.4-2.6 6.7-2 .8.4 1.3 1.8 1.3 1.8" class="st138"/>
    <circle cx="443.4" cy="254.7" r="2.1" class="st21"/>
    <path d="m449.1 254.7 1.6-.7m-1.5 2.7 1.7.1" class="st138"/>
    <path d="m429.8 251 2 1c.3.2.6-.1.5-.4l-.1-.5c0-.2-.2-.5-.4-.6l-1.7-1.1c-.3-.2-.7-.3-1.1-.3l-5.2.2c-.5 0-.7.4-.8 1-.1.4.3.7.9.7l5.1-.1.8.1zm16.7.2 2 1c.3.2.7-.1.7-.4l-.1-.5c0-.2-.2-.5-.4-.6l-1.7-1.1c-.3-.2-.7-.3-1.1-.3l-6.9.2c-.5 0-.7.5-.8 1.1-.1.4.5.7 1.1.7l6.6-.2.6.1z" class="st21"/>
    <path d="M447.4 245.6s1.7 7.2 6.3 6.4c2.3-.4-.5-13.9-.5-13.9l-19.6-6.1-12.1 7s-.9 4.8-1 7.2c0 0 6.8-.6 9.1-7.2l3.3-.6c-.1-.1 4.3 8.5 14.5 7.2z" class="st18"/>
    <path d="m453.4 255-.3-11.1s-13.1-12.3-32-4.5l-.9 2.3s-1.7-17.1 13.7-16.8 20.4 7.2 21.8 14.1c1.5 7-2.3 16-2.3 16z" class="st21"/>
    <path d="m421.3 233.5 20.3 1 11.7 6.3-.3 7.9-.6-5.6c-20.3-10.9-32.5-.4-32.5-.4l-.8 5.7c-10.8-2.6-9.7-7.9-9.7-7.9s.3-8.3 11.9-7zm51.324 174.773h-65.9v-31.1h65.9z" class="st21"/>
    <path d="m59.9 353.1-2.3 56.4 35.6-1.1 24.3-1.1-1.7-53.1z" class="st13"/>
    <path d="m102.7 243.6.4 12.7s1.3 9.3-3 15.6c-4.1 6-6.7 10.9-14 9-1.7-.4-8.4-3.9-9-5.5-3-7.1-3.6-25.5-3.6-25.5l3.4-13.3s22.1-11.2 26 7.1" class="st53"/>
    <path d="m77.9 262.8-3.3-7.1s-4.8-1-3.9 4.3c.9 5.4 7.2 7 7.2 7v-4.2zm-.7 7.6 19.7.7c0 2.8-.5 4.9.1 8.3.6 3.4 8.5 7.7 12.5 7.8l-6.9 5-21.6 5.5L67.8 284l5.1-4 3.5-3.3c-.1.1 1.3.3.8-6.3z" class="st53"/>
    <path d="m111.8 355.2-52-.6c-3.4-25.4-2-40.7-2-40.7l-5.6-.3C13 307.2 16.4 262 17 253c.5-9 5.4-14.1 13.9-13.4 8.4.7 10 7.7 10 7.7.8 26.3 11.5 38.7 23.5 38.8 3.2-.2 7.6-2.8 9.3-3.9 2.7 7.7 16.2 4.9 16.2 4.9s.6 2.3 11.3-4" class="st21"/>
    <path d="M101.1 283.1c0 1.4-1.9 3.3 11.2 4.9 0 0 .1.4 6.8 1.4 21.5 3.4 23.7 44.3 23.7 44.3s5.6 44.6-14.7 46.3l-7.9-.6s-7.9-1.4-6.5-13.6c0 0-.8-.6-.8-10.7l.5-24.6-6.7-13" class="st21"/>
    <path d="M75.3 252.7s.9 9.3 1.9 17.6c.6 5 6.6 7.3 13.1 9.9 6 2.3 8.4-4.4 11.2-8 4.9-6.4 3-24.9 3-24.9l-.1-3.1s-.9-11-16.8-9.9-12.3 18.4-12.3 18.4z" class="st138"/>
    <path d="M76.5 266.3s-3.5.7-4.6-5.9c-.6-5 3.3-3 3.3-3" class="st139"/>
    <path d="M102 258.3c-3.6-4.2-6.1-.2-6.1-.2" class="st138"/>
    <ellipse cx="98.7" cy="257.9" class="st21" rx="1.4" ry="1.5"/>
    <path d="M95.6 250.3s-1.1.6-.7 1.2c.4.6 3.6-.3 3.6-.3s1.5-.3 3.5 1l1.3.5.5-.4c0-.6-.2-.7-.6-1-1.1-1-4.2-2.6-7.6-1z" class="st21"/>
    <path d="M88 257.9c-3.3-3.7-6 0-6 0" class="st138"/>
    <ellipse cx="85.2" cy="258.1" class="st21" rx="1.4" ry="1.5"/>
    <path d="M82.1 269.9s1.1-2.4 3.4-3.3" class="st138"/>
    <path d="M91.7 271.1s.7-4.8 5.6-1.3l-5.6 1.3z" class="st64"/>
    <path d="M92.5 271s.1-4.6-7-1.4l7 1.4z" class="st64"/>
    <path d="M92.6 275.2c3.3-.8 3.5-4.7 3.5-4.7s-4.3 6.3-10-.1c0 0 1 6.1 6.5 4.8z" class="st64"/>
    <path d="M84.1 269.5s7.1 2 13.4.4" class="st138"/>
    <path d="M95.8 270.4s-3.6 7.1-9.9-.3" class="st138"/>
    <path d="M88.6 250s1.8.9 1.2 1.5c-.5.6-4.1-.4-4.1-.4s-2.7-.4-5.2.9l-1.2.8.2-.8c.1-.7.6-1.3 1.2-1.6 1.4-.6 4.1-1.8 7.9-.4z" class="st21"/>
    <path d="M103.5 285c.4 1.4-16.5 16-32.4-1.5l-3.8 2.1m23.1-28.7h3.7m-14.1-.3-4.6-.5" class="st138"/>
    <path d="M90.3 264.3c-.5.4-.7.6-.6.9.1.7.9.8.9.8l.7.3 1.2.7c.3.1.6.1 1 0l.7-.6c.9-.6 1.3-1.1 1.3-1.1s.4-.3-.6-1.1" class="st140"/>
    <path d="M105.3 256.9c1.3-.6 2.5-2.2 2.7 1.6-.1 4.5-2.5 6.2-3.6 7.4" class="st139"/>
    <path d="m90.4 255.7-.2 4.1c-.1 1.4-1.1 2.5-2.4 2.5l-4.2.2c-1.6 0-2.9-1.1-3.1-2.7l-.7-4.3c-.1-.9.5-1.7 1.4-1.7h7.5c1 0 1.8.8 1.7 1.9zm3.6 0 .2 4.1c.1 1.4 1.1 2.5 2.4 2.5l4.2.2c1.6 0 2.9-1.1 3.1-2.7l.2-4.3c.1-.9-.5-1.7-1.4-1.7h-7c-.9 0-1.7.8-1.7 1.9z" class="st138"/>
    <path d="M91.7 231.5s-20.7-2.6-20.9 10.3c-.1 9.4.6 14.9 4.2 15.1 4.9.2 3.4-13.4 3.4-13.4l3.2-1.5H83s14.7 5.7 21.1 1.6c7.2-4.5-2-14.2-2-14.2l-1.8-1.6.9 5.1s-1.4-3.6-6.5-6.2l1.3 5.8s-1.6-3.1-4.7-4.5l.4 3.5z" class="st21"/>
    <path d="M59 297.6s-14.4-1.7-17.8-13m17.2 19.2c-4.5 0-15-2.2-18.9-8.5m83.3 12.2s-1.7-7.3-8.8-10.7m-1.3 6.4s4.8 2.5 5.9 9.3" class="st138"/>
    <path d="m61.3 286-3.7 27.7" class="st21"/>
    <path d="M33.3 239.4s-.7 1.5 1.7.1 7.8-7.1 6.8-8.2-3.2 1.2-3.2 1.2-1.7 1.5-3.9 1.1c-2.3-.4-1.5-2.8-1.5-2.8s2.3-5.7 3.4-7.9.3-3-1.4-1.9-5.1 9.2-5.1 9.2c0-1.8 3.7-10.4 4-12.5.3-2-2-1-2-1-3 3.1-4.9 11.7-4.9 11.7s0-6.2 1.9-10.4c0 0 1.1-3.9-1.1-2.7-1.5.8-2.7 4.5-2.7 4.5-1.1 2.8-1.7 10-1.7 10 .1-3-.2-4.6 1.2-9.3.5-1.8-2-.4-2-.4-4.6 8.5 0 19.8 0 19.8" class="st53"/>
    <path d="M33.3 238.9s1.4.3 2.8.1c2.7-.4 6-10.5 5-11.6s-3.1 3.2-3.1 3.2-1.3 3-1.4 3c-2.3.5-1.5-2.8-1.5-2.8s2.3-5.7 3.4-7.9c1-2.3.3-3-1.4-1.9s-5.1 9.2-5.1 9.2c0-1.8 3.7-10.4 4-12.5.3-2-2-1-2-1-3 3.1-4.9 11.7-4.9 11.7s0-6.2 1.9-10.4c0 0 1.1-3.9-1.1-2.7-1.5.8-2.7 4.5-2.7 4.5-1.1 2.8-1.7 10-1.7 10 .1-3-.2-4.6 1.2-9.3.5-1.8-2-.4-2-.4-4.6 8.5-.9 19-.9 19" class="st142"/>
    <path d="M123.9 379.7s.7-1.4-1.7-.1-8 6.9-7 8c1 1.1 3.2-1.1 3.2-1.1s1.7-1.5 4-1 1.4 2.8 1.4 2.8-2.5 5.6-3.6 7.8-.4 3 1.4 2c1.7-1.1 5.4-9.1 5.4-9.1 0 1.8-4 10.3-4.4 12.4s1.9 1 1.9 1c3.1-3 5.3-11.5 5.3-11.5s-.2 6.2-2.3 10.3c0 0-1.2 3.8 1.1 2.8 1.5-.7 2.8-4.4 2.8-4.4 1.2-2.8 2-9.9 2-9.9-.2 3 0 4.6-1.5 9.2-.6 1.8 2 .5 2 .5 4.9-8.3.7-19.8.7-19.8" class="st53"/>
    <path d="M123.9 380.1s-1.4-.3-2.8-.2c-2.8.3-6.3 10.3-5.4 11.4 1 1.1 3.2-3.1 3.2-3.1s1.3-3 1.5-3c2.3-.4 1.4 2.8 1.4 2.8s-2.5 5.6-3.6 7.8-.4 3 1.4 2 5.4-9.1 5.4-9.1c0 1.8-4 10.3-4.4 12.4-.4 2 1.9 1 1.9 1 3.1-3 5.3-11.5 5.3-11.5s-.2 6.2-2.3 10.3c0 0-1.2 3.8 1.1 2.8 1.5-.7 2.8-4.4 2.8-4.4 1.2-2.8 2-9.9 2-9.9-.2 3 0 4.6-1.5 9.2-.6 1.8 2 .5 2 .5 4.9-8.3 1.5-18.9 1.5-18.9" class="st142"/>
    <path d="m282.2 150 13.3-11.9m-22.1 5.5 7.4-16.1M264.5 141l-1.3-17.7" class="st136"/>
    <path d="M83.1 163.7s-7.9-8.5-14.1-1.2 19.5 22.6 19.5 22.6 15.4-22.4 7.2-28.1-12.6 6.7-12.6 6.7z" class="st50"/>
    <path d="M79.3 165.7s-7.9-8.5-14.1-1.2 19.5 22.6 19.5 22.6 15.4-22.4 7.2-28.1-12.6 6.7-12.6 6.7z" style="fill:none;stroke:#22382a;stroke-width:2;stroke-linejoin:round;stroke-miterlimit:10"/>
    <path d="m59.2 160.1-6.4-4.1m13.1-2.9-3.8-6.6m32.4 4.7 4.1-6.3m-13.9 2.7.8-7.5m-10.7 8.2-1.7-7.4" style="fill:#fff;stroke:#22382a;stroke-miterlimit:10;stroke-width:2;stroke-linejoin:round"/>
    <path d="M536.3 249s8.9-3.3 8.9-15.2m-5.6 23.7s16.9-1.1 18.6-29.9" class="st141"/>
    <path d="M88.9 408.8v-23.7" style="fill:none;stroke:#fff;stroke-miterlimit:10"/>
    <path d="m101.1 283.1 6.3 15.8 5.5 56.3-.2-52" class="st21"/>
  </g>
</svg>
