<svg viewBox="0 0 48 48" fill="none" xmlns="http://www.w3.org/2000/svg">
  <path d="M46.5 23.992c0 12.422-10.073 22.493-22.5 22.493S1.5 36.414 1.5 23.992C1.5 11.571 11.573 1.5 24 1.5s22.5 10.07 22.5 22.492Z" fill="#fff" stroke="url(#paint0_linear_288_9670)" stroke-width="3"/>
  <mask id="path-2-inside-1_288_9670" fill="#fff">
    <path fill-rule="evenodd" clip-rule="evenodd" d="M.001 27.184C1.556 38.933 11.615 48 23.793 48c12.815 0 23.285-10.041 23.965-22.683-.5.182-6.36 2.28-10.344 2.581-4.575.347-11.676-1.296-11.676-1.296s-8.252-2.164-13.622-1.946c-4.426.18-10.878 2.14-12.115 2.528Z"/>
  </mask>
  <path fill-rule="evenodd" clip-rule="evenodd" d="M.001 27.184C1.556 38.933 11.615 48 23.793 48c12.815 0 23.285-10.041 23.965-22.683-.5.182-6.36 2.28-10.344 2.581-4.575.347-11.676-1.296-11.676-1.296s-8.252-2.164-13.622-1.946c-4.426.18-10.878 2.14-12.115 2.528Z" fill="#FFD600"/>
  <path d="m.001 27.184-.896-2.863-2.409.754.331 2.502 2.974-.393Zm47.757-1.867 2.995.161.244-4.526-4.261 1.545 1.022 2.82Zm-10.344 2.581.226 2.992-.226-2.992Zm-11.676-1.296-.76 2.902.041.01.043.01.676-2.922Zm-13.622-1.946-.121-2.997.121 2.997ZM23.793 45C13.139 45 4.335 37.067 2.975 26.79l-5.948.787C-1.223 40.8 10.091 51 23.793 51v-6Zm20.97-19.844C44.166 36.213 35.005 45 23.792 45v6c14.417 0 26.195-11.296 26.96-25.522l-5.99-.322Zm1.973-2.66c-.575.21-6.044 2.146-9.549 2.411l.453 5.983c4.466-.338 10.714-2.598 11.14-2.752l-2.044-5.641Zm-9.549 2.411c-1.923.146-4.555-.13-6.862-.491a66.32 66.32 0 0 1-3.848-.723l-.05-.012-.012-.002h-.002l-.675 2.923-.676 2.922h.001l.002.001.006.002a5.082 5.082 0 0 1 .09.02l.252.056a72.41 72.41 0 0 0 3.983.741c2.387.374 5.592.747 8.244.546l-.453-5.983Zm-11.449 1.695a1386.563 1386.563 0 0 0 .76-2.903h-.003l-.006-.002-.023-.006-.079-.02a71.536 71.536 0 0 0-1.343-.326 86.1 86.1 0 0 0-3.55-.746c-2.772-.521-6.457-1.064-9.5-.94l.244 5.995c2.327-.095 5.453.335 8.149.842a79.98 79.98 0 0 1 4.514.988l.061.016a.575.575 0 0 1 .016.004l.76-2.902Zm-13.743-4.943C7.107 21.857.28 23.953-.895 24.32l1.793 5.726c1.298-.407 7.374-2.232 11.34-2.393l-.243-5.995Z" fill="url(#paint1_linear_288_9670)" mask="url(#path-2-inside-1_288_9670)"/>
  <defs>
    <linearGradient id="paint0_linear_288_9670" x1="13.496" y1="8.053" x2="47.865" y2="37.892" gradientUnits="userSpaceOnUse">
      <stop stop-color="#DDD"/>
      <stop offset="1" stop-color="#A7A7A7"/>
    </linearGradient>
    <linearGradient id="paint1_linear_288_9670" x1="13.29" y1="8.068" x2="47.658" y2="37.908" gradientUnits="userSpaceOnUse">
      <stop stop-color="#FBC400"/>
      <stop offset="1" stop-color="#D1A300"/>
    </linearGradient>
  </defs>
</svg>
