<svg xmlns="http://www.w3.org/2000/svg" viewBox="0 0 142.6 68.3">
  <defs/>
  <defs>
    <style>
			.cls-1 { fill: #42507b; }
    </style>
  </defs>
  <g id="Layer_2" data-name="Layer 2">
    <g id="Artwork">
      <path class="cls-1" d="M139.6 16a4.1 4.1 0 01.3.3 6.2 6.2 0 011.3 2.1 7.2 7.2 0 01.4 2.5v9.8a2.9 2.9 0 00-.5-.5 2.2 2.2 0 00-.2-.3 1.7 1.7 0 00-.3-.1v-.1a7.1 7.1 0 00-1.7-.7 14.2 14.2 0 00-2-.5 4.5 4.5 0 01.4.4 5.1 5.1 0 01.4.5 5.2 5.2 0 01.5.4 5.1 5.1 0 01.5.5 5.2 5.2 0 01.5.5l.5.4a6.2 6.2 0 01.8.9 6.5 6.5 0 011.2 4.1 9 9 0 01-.7 3.7 6 6 0 01-2.4 2.6 15.1 15.1 0 01-4.6 1.8 57 57 0 01-7.4 1 37.8 37.8 0 01-7.3.2 13.2 13.2 0 01-4.6-1.1 5.8 5.8 0 01-1.5-1 4.5 4.5 0 01-.5-.4l-.5-.4-.5-.4a6 6 0 01-.4-.4l-.5-.4a3.6 3.6 0 01-.5-.4l-.5-.4-.4-.4a4.4 4.4 0 01-.5-.4 13.8 13.8 0 01-2 4.1A15.3 15.3 0 01102 48a26.2 26.2 0 01-7.7 2.8 20.6 20.6 0 01-7.6.6 8.7 8.7 0 01-4-1.7l-.5-.4-.4-.3a5.8 5.8 0 01-.5-.4l-.5-.3a5.8 5.8 0 01-.5-.4l-.4-.4a5.8 5.8 0 01-.5-.3l-.5-.4c-.2 0-.3-.2-.5-.3a5.8 5.8 0 01-.4-.4l-.5-.4a1.4 1.4 0 00-.2-.1A14.7 14.7 0 0175 51a16.1 16.1 0 01-4.7 4.4 25 25 0 01-7.7 3 19.2 19.2 0 01-7.6.7 8.5 8.5 0 01-4-1.7l-.5-.4-.4-.3-.5-.4a4.3 4.3 0 01-.5-.4 5.6 5.6 0 01-.5-.3 4.3 4.3 0 01-.4-.4 4.4 4.4 0 01-.5-.4l-.5-.4-.4-.3-.5-.4a4.3 4.3 0 01-.5-.4v2.4a8.1 8.1 0 01-.5 2.5 9 9 0 01-1.2 2.5 8.6 8.6 0 01-2 1.9 6.6 6.6 0 01-2.6 1 16.2 16.2 0 01-5.3.3 40.3 40.3 0 01-4.8-1l-4.6-1a13 13 0 00-4.4-.2 3.8 3.8 0 00-2.7 1.6 6.5 6.5 0 00-1 4h-1c-5-4.5-9.9-9.1-14.8-14v-9.9a4 4 0 011.1-3A7.8 7.8 0 015 38.6l.8-.2-.3-.3a3.8 3.8 0 01-.4-.4 1.7 1.7 0 01-.2-.1l-.3-.4a1.7 1.7 0 00-.1 0l-.4-.5H4l-.3-.4-.2-.1-.3-.4a1.7 1.7 0 01-.2 0 6.4 6.4 0 01-1.4-2 5.5 5.5 0 01-.6-2.5 7.6 7.6 0 01.7-3.2A6.4 6.4 0 014 25.5a16.2 16.2 0 014.6-2 41.3 41.3 0 017.4-1.3 53.9 53.9 0 017.3-.3 12.6 12.6 0 014.6.9 5.3 5.3 0 011.6 1l.5.4.4.4a4.5 4.5 0 01.5.4 4.5 4.5 0 01.5.4 3.7 3.7 0 01.5.4 4.5 4.5 0 01.4.4 3.6 3.6 0 01.5.4 3.7 3.7 0 01.5.3l.5.4.3.3a15.4 15.4 0 012.1-4 16.3 16.3 0 014.6-4.1 22.7 22.7 0 017.2-2.6 19 19 0 017.2-.5 9.2 9.2 0 014.7 2.1 5.8 5.8 0 01.5.4c.2 0 .3.2.5.3l.4.4.5.3.5.4 1 .7a3.4 3.4 0 01.5.4l.4.3.5.4.5.4h.1l.2-.6a16.2 16.2 0 012.5-5.4 17.4 17.4 0 014.6-4.3 22.6 22.6 0 017.1-3 18.3 18.3 0 017.3-.5 9 9 0 014.6 2.1 5.6 5.6 0 01.5.4 5.8 5.8 0 01.5.4l.5.3.4.4.5.4.5.3.5.4.4.4.5.4c.2 0 .4.2.5.3a3.8 3.8 0 01.4.4V5.3l1-.2s0 2.6 1.1 3.6 3.7.4 3.7.5a16.4 16.4 0 003.5-1.4l4.6-2.6a64 64 0 014.8-2.6 17.4 17.4 0 015.3-1.5 5.2 5.2 0 012.5.2 5 5 0 012 1.2c4.7 4.3 9.5 8.8 14.3 13.5z"/>
      <path d="M31 43.7a8 8 0 01-.4 2.6 8.4 8.4 0 01-1.2 2.3 8 8 0 01-2 1.9 6.2 6.2 0 01-2.5 1 15.8 15.8 0 01-5.3-.2 40.5 40.5 0 01-4.9-1.2l-4.5-1.5a13.6 13.6 0 00-4.5-.5A3.5 3.5 0 003 49.5a6 6 0 00-1 3.8H1v-9.9a4 4 0 011.1-3A7.8 7.8 0 015 38.6a31.3 31.3 0 013.7-1 18.3 18.3 0 003.7-1.2 7.8 7.8 0 002.9-2.1 6 6 0 001.1-4A5.7 5.7 0 0016 28a6 6 0 00-1.5-2 6.3 6.3 0 00-2-1.2 5.7 5.7 0 00-2.3-.3H8.7l-1 .2-.5.1a6.8 6.8 0 012.3.3 5 5 0 012 1 5.6 5.6 0 011.3 2 6.3 6.3 0 01.6 2.7 6 6 0 01-.6 2.6 6.9 6.9 0 01-1.5 2 6.3 6.3 0 01-2 1.3 6.1 6.1 0 01-2.1.5A5.6 5.6 0 015 37a6 6 0 01-2-1.2A6.4 6.4 0 011.5 34a5.5 5.5 0 01-.5-2.5 7.6 7.6 0 01.7-3.2A6.4 6.4 0 014 25.5a16.2 16.2 0 014.6-2 41.3 41.3 0 017.4-1.3 53.9 53.9 0 017.3-.3 12.6 12.6 0 014.6.9 4.6 4.6 0 012.5 2.2 8 8 0 01.7 3.5 7.3 7.3 0 01-1.3 4.4 8.8 8.8 0 01-3.3 2.8 19.5 19.5 0 01-5 1.6l-6.1.8c-3.3.3-5.8.6-7.6 1a16 16 0 00-4 1.2 2.8 2.8 0 00-1.5 1.4 4.4 4.4 0 00-.1 1.3 1.9 1.9 0 01.4-1 4.4 4.4 0 012-1.1A28.6 28.6 0 019 39.8c2-.4 4.6-.7 8-1a49 49 0 007.2-1.3 24.6 24.6 0 004.3-1.4 7 7 0 002-1.2 2.7 2.7 0 00.6-.8z" stroke-width=".5" stroke="#42507b" stroke-miterlimit="10" fill="#ffbf00"/>
      <path d="M48 16.9a19 19 0 017.2-.5 9.2 9.2 0 014.7 2.1 9 9 0 012.6 4.2 19.8 19.8 0 01.7 5.6 31 31 0 01-.6 6.2 14.6 14.6 0 01-2.2 5.3 15.8 15.8 0 01-4.7 4.4 24.3 24.3 0 01-7.7 3 18.8 18.8 0 01-7.6.4 8.5 8.5 0 01-4.6-2.4 9.2 9.2 0 01-2.2-4.4A27.5 27.5 0 0133 35a23.2 23.2 0 01.8-6 15.2 15.2 0 012.5-5.2 16.3 16.3 0 014.6-4.1 22.7 22.7 0 017.1-2.7zm.6.8l-1 .3v28.2l1-.2z" fill="#80f088" stroke="#42507b" stroke-miterlimit="10"/>
      <path d="M79.7 9.3a18.3 18.3 0 017.2-.6 9.1 9.1 0 014.7 2.1A9 9 0 0194 15a19.9 19.9 0 01.8 5.7 30 30 0 01-.6 6.1 14.3 14.3 0 01-2.3 5.4 16 16 0 01-4.7 4.3 26 26 0 01-7.7 3 20.2 20.2 0 01-7.6.7 8.2 8.2 0 01-4.5-2.1 8.5 8.5 0 01-2.3-4.3 26.2 26.2 0 01-.6-5.8 23.8 23.8 0 01.8-6 16.2 16.2 0 012.5-5.4 17.4 17.4 0 014.6-4.4 22.6 22.6 0 017.2-3zm.6.8l-1 .2v28.3l1-.2z" fill="#e8e4c7" stroke="#42507b" stroke-miterlimit="10"/>
      <path d="M112.6 15.7c-3.3.5-6 1-7.9 1a24.7 24.7 0 01-4.5.2 3.5 3.5 0 01-2-.7 1.3 1.3 0 01-.4-.8v4a345.7 345.7 0 0119.5-3.4 15.3 15.3 0 015 .3 6.2 6.2 0 013.4 2 6.1 6.1 0 011.2 4 9.4 9.4 0 01-.7 3.7 7 7 0 01-2.4 2.9 16.4 16.4 0 01-4.6 2.1 54.5 54.5 0 01-7.4 1.6 36.1 36.1 0 01-7.3.7 12.4 12.4 0 01-4.6-1 4.7 4.7 0 01-2.4-2 6.8 6.8 0 01-.7-3 6.3 6.3 0 01.6-2.7 9 9 0 011.4-2.3 8.1 8.1 0 012-1.6 7 7 0 012.2-.9 6 6 0 012.1 0 5 5 0 012 .8 4.8 4.8 0 011.4 1.7 5.2 5.2 0 01.6 2.5 7.3 7.3 0 01-.5 2.9 8 8 0 01-1.4 2.2 7 7 0 01-2 1.6 8.3 8.3 0 01-2.3.8 4.6 4.6 0 00.6 0h1l1.4-.3a6.5 6.5 0 002.2-1 9.2 9.2 0 002-1.7 9 9 0 001.6-2.3 6.6 6.6 0 00.5-2.7 4.6 4.6 0 00-.7-2.7 5.3 5.3 0 00-2-1.7 8 8 0 00-3-.8 12.6 12.6 0 00-3.6.2l-6.1 1.3V5.3l1-.2a5 5 0 001 3.6 2.7 2.7 0 002.8.7 16.1 16.1 0 004.5-1.6l4.5-2.6a64 64 0 014.8-2.6 17.4 17.4 0 015.3-1.5 5.2 5.2 0 012.6.2 5 5 0 012 1.2 5.4 5.4 0 011.2 2 6.9 6.9 0 01.4 2.4v10a2.7 2.7 0 00-.7-.8 5 5 0 00-2-.8 20.3 20.3 0 00-4.3-.3 48.5 48.5 0 00-7.3.7z" fill="#ff6156" stroke-width=".5" stroke="#42507b" stroke-miterlimit="10"/>
      <path class="cls-1" d="M120.7 1a5.2 5.2 0 012.5.3 5 5 0 012 1.2c4.8 4.3 9.6 8.8 14.4 13.5a4.1 4.1 0 01.3.3 6.2 6.2 0 011.3 2.1 7.2 7.2 0 01.4 2.5v9.8a2.9 2.9 0 00-.5-.5 2.2 2.2 0 00-.2-.3 1.7 1.7 0 00-.3-.1v-.1a7.1 7.1 0 00-1.7-.7 14.2 14.2 0 00-2-.5 4.5 4.5 0 01.4.4 5.1 5.1 0 01.4.5 5.2 5.2 0 01.5.4 5.1 5.1 0 01.5.5 5.2 5.2 0 01.5.5l.5.4a6.2 6.2 0 01.8.9 6.5 6.5 0 011.2 4.1 9 9 0 01-.7 3.7 6 6 0 01-2.4 2.6 15.1 15.1 0 01-4.6 1.8 57 57 0 01-7.4 1 37.8 37.8 0 01-7.3.2 13.2 13.2 0 01-4.6-1.1 5.8 5.8 0 01-1.5-1 4.5 4.5 0 01-.5-.4l-.5-.4-.5-.4a6 6 0 01-.4-.4l-.5-.4a3.6 3.6 0 01-.5-.4l-.5-.4-.4-.4a4.4 4.4 0 01-.5-.4 13.8 13.8 0 01-2 4.1A15.3 15.3 0 01102 48a26.2 26.2 0 01-7.7 2.8 20.6 20.6 0 01-7.6.6 8.7 8.7 0 01-4-1.7l-.5-.4-.4-.3a5.8 5.8 0 01-.5-.4l-.5-.3a5.8 5.8 0 01-.5-.4l-.4-.4a5.8 5.8 0 01-.5-.3l-.5-.4c-.2 0-.3-.2-.5-.3a5.8 5.8 0 01-.4-.4l-.5-.4a1.4 1.4 0 00-.2-.1A14.7 14.7 0 0175 51a16.1 16.1 0 01-4.7 4.4 25 25 0 01-7.7 3 19.2 19.2 0 01-7.6.7 8.5 8.5 0 01-4-1.7l-.5-.4-.4-.3-.5-.4a4.3 4.3 0 01-.5-.4 5.6 5.6 0 01-.5-.3 4.3 4.3 0 01-.4-.4 4.4 4.4 0 01-.5-.4l-.5-.4-.4-.3-.5-.4a4.3 4.3 0 01-.5-.4v2.4a8.1 8.1 0 01-.5 2.5 9 9 0 01-1.2 2.5 8.6 8.6 0 01-2 1.9 6.6 6.6 0 01-2.6 1 16.2 16.2 0 01-5.3.3 40.3 40.3 0 01-4.8-1l-4.6-1a13 13 0 00-4.4-.2 3.8 3.8 0 00-2.7 1.6 6.5 6.5 0 00-1 4h-1c-5-4.5-9.9-9.1-14.8-14v-9.9a4 4 0 011.1-3A7.8 7.8 0 015 38.6l.8-.2-.3-.3a3.8 3.8 0 01-.4-.4 1.7 1.7 0 01-.2-.1l-.3-.4a1.7 1.7 0 00-.1 0l-.4-.5H4l-.3-.4-.2-.1-.3-.4a1.7 1.7 0 01-.2 0 6.4 6.4 0 01-1.4-2 5.5 5.5 0 01-.6-2.5 7.6 7.6 0 01.7-3.2A6.4 6.4 0 014 25.5a16.2 16.2 0 014.6-2 41.3 41.3 0 017.4-1.3 53.9 53.9 0 017.3-.3 12.6 12.6 0 014.6.9 5.3 5.3 0 011.6 1l.5.4.4.4a4.5 4.5 0 01.5.4 4.5 4.5 0 01.5.4 3.7 3.7 0 01.5.4 4.5 4.5 0 01.4.4 3.6 3.6 0 01.5.4 3.7 3.7 0 01.5.3l.5.4.3.3a15.4 15.4 0 012.1-4 16.3 16.3 0 014.6-4.1 22.7 22.7 0 017.2-2.6 19 19 0 017.2-.5 9.2 9.2 0 014.7 2.1l4.3 3.2.5.4.5.4.2-.6a16.2 16.2 0 012.6-5.3 17.4 17.4 0 014.6-4.4 22.6 22.6 0 017-3 18.3 18.3 0 017.3-.5 9 9 0 014.7 2.1 5.6 5.6 0 01.5.4 5.8 5.8 0 01.5.4l.4.3.5.4.5.4.5.3.4.4.5.4.5.4.5.3a3.8 3.8 0 01.4.4V5.3l1-.2s0 2.6 1 3.6 3.8.4 3.8.5a16.4 16.4 0 003.5-1.4l4.5-2.6a64 64 0 014.8-2.6 17.4 17.4 0 015.3-1.5m0-1a18.4 18.4 0 00-5.6 1.6l-4.9 2.6-4.5 2.6a15.4 15.4 0 01-3.1 1.3h-.2c-.5 0-2 .2-2.8-.4a4.3 4.3 0 01-.8-2.8v-.1a.8.8 0 00-1-.8l-1 .2a1.3 1.3 0 00-1 1.2v7.2l-.1-.1-.4-.3h-.1l-.4-.4h-.1l-.3-.3-.2-.1-.3-.3-.2-.1a3.1 3.1 0 00-.3-.3h-.1l-.4-.3-.1-.1-.3-.3-.2-.1a9.8 9.8 0 00-5-2.3 19 19 0 00-7.6.6 24 24 0 00-7.5 3 19 19 0 00-5 4.8 17.9 17.9 0 00-2.4 4.7L62.4 19l-1.8-1.3a10 10 0 00-5-2.3 20.4 20.4 0 00-7.6.5 24.5 24.5 0 00-7.5 2.8 17.6 17.6 0 00-5 4.5 15.9 15.9 0 00-1.7 2.8l-.2-.2-.5-.4a5.4 5.4 0 00-.5-.4 4.6 4.6 0 00-.5-.4 5.3 5.3 0 00-.4-.4l-.5-.4a5 5 0 00-.5-.4 4.8 4.8 0 00-.5-.3 6 6 0 00-1.7-1.2 13.6 13.6 0 00-5-1 56.6 56.6 0 00-7.5.3 43 43 0 00-7.6 1.3 17.3 17.3 0 00-5 2.2 7.5 7.5 0 00-2.6 3.1 8.7 8.7 0 00-.8 3.6 6.5 6.5 0 00.7 3 7.7 7.7 0 001.6 2.2h.2c0 .2.2.3.3.4h.1l.3.4.2.1a2.8 2.8 0 00.3.3l.1.1a8.4 8.4 0 00-2.4 1.5 5 5 0 00-1.4 4v10a1 1 0 00.3.6Q7.7 61.3 15 68a.9.9 0 00.7.2h1a1.1 1.1 0 001-1.2 5.5 5.5 0 01.9-3.3 2.7 2.7 0 011.9-1.1 12.1 12.1 0 014.1.2l4.5 1a44.6 44.6 0 005 1 17.2 17.2 0 005.6-.2 7.7 7.7 0 003-1.2 9.6 9.6 0 002.2-2.3 10.2 10.2 0 001.5-2.8 9.2 9.2 0 00.4-2.9l.3.2a3.4 3.4 0 00.5.4l.4.3a4.6 4.6 0 00.5.4l.4.3.5.4c.2 0 .3.2.5.3l.4.3a9.4 9.4 0 004.3 1.9 20.3 20.3 0 008-.7 26.2 26.2 0 008.1-3.2 17.6 17.6 0 005-4.8 16 16 0 002-4c.2 0 .4.2.5.3a3.3 3.3 0 00.5.3l.4.4a3.3 3.3 0 00.5.3l.4.3.5.4.4.4.4.3c.2 0 .4.2.5.3a9.5 9.5 0 004.3 1.8 21.7 21.7 0 008-.6 27.3 27.3 0 008.1-3 16.5 16.5 0 005-4.5 14.5 14.5 0 001.6-2.8 3.6 3.6 0 00.4.3 4.4 4.4 0 00.5.4 5.7 5.7 0 00.4.4l.5.4a5.6 5.6 0 00.5.4 5.5 5.5 0 00.5.4 5.6 5.6 0 00.4.4 6.8 6.8 0 002 1.5 14 14 0 005 1.3 39.3 39.3 0 007.6-.2 60 60 0 007.5-1.1 16.3 16.3 0 004.9-2 7.1 7.1 0 002.8-3 10 10 0 00.8-4 7.8 7.8 0 00-1.3-4.5h.5a1 1 0 00.8-1v-10a8.1 8.1 0 00-.5-2.7 7.2 7.2 0 00-1.4-2.4 3.4 3.4 0 00-.4-.3.5.5 0 010-.2q-7.3-7-14.4-13.4a6.1 6.1 0 00-2.2-1.5 6.2 6.2 0 00-3-.2z"/>
    </g>
  </g>
</svg>
