<svg width="117" height="124" viewBox="0 0 117 124" fill="none" xmlns="http://www.w3.org/2000/svg" xmlns:xlink="http://www.w3.org/1999/xlink">
<g clip-path="url(#clip0_760_42926)">
<rect x="8.30469" width="100" height="100" rx="50" fill="#F8F2E6"/>
<path d="M101.837 96.6381V137.794L75.5914 138.666L37.8795 149.784L27.4597 141.369C21.0421 138.649 18.7983 134.365 18.4786 132.562C17.8508 111.182 20.9782 93.0195 22.6203 86.6107C25.1664 70.6017 41.0621 68.9246 48.6917 70.0872C53.8536 73.296 64.7937 71.4242 69.6185 70.0872H83.4825C97.9569 71.6218 101.75 88.4272 101.837 96.6381Z" fill="#F9F0EF"/>
<mask id="mask0_760_42926" style="mask-type:alpha" maskUnits="userSpaceOnUse" x="17" y="69" width="85" height="81">
<path d="M101.048 96.4937V137.65L74.8023 138.522L37.0904 149.639L26.6706 141.225C20.253 138.504 18.0092 134.22 17.6895 132.418C17.0617 111.038 20.1891 92.8751 21.8313 86.4663C24.3774 70.4572 40.273 68.7802 47.9026 69.9428C53.0646 73.1516 64.0047 71.2798 68.8294 69.9428H82.6935C97.1679 71.4774 100.961 88.2828 101.048 96.4937Z" fill="#F9F0EF"/>
</mask>
<g mask="url(#mask0_760_42926)">
</g>
<path d="M20.4892 34.6504C17.7463 49.2013 31.6393 55.2084 38.9287 56.3931L49.131 25.4516L71.8425 27.6678L81.9571 56.3931C95.8281 55.0355 100.926 44.291 101.733 37.243C101.926 35.5542 101.369 33.8707 100.233 32.6064C91.5252 22.9154 72.912 21.0273 62.5111 21.354C30.3988 19.7149 21.1164 29.5353 20.4892 34.6504Z" fill="#F4B539"/>
<path d="M45.0291 17.9823C36.8003 19.2534 28.6663 24.3099 25.6279 26.6793C61.4866 15.7745 85.9447 22.7252 97.128 30.1994C94.0505 24.0111 84.5144 19.4178 78.6884 17.9823C75.3769 7.41196 66.2979 4.93665 62.1724 5.02028C50.4313 4.51852 45.8514 13.4525 45.0291 17.9823Z" fill="#F8CD69"/>
<path d="M40.9452 39.0898C40.9452 29.5909 48.4712 24.9889 52.2341 23.8753C58.2442 20.733 64.2462 22.566 66.4959 23.8753C70.7062 27.8482 71.7643 46.4972 71.1349 53.7508C70.3465 55.5988 68.2499 57.8485 66.161 59.0977C65.8029 61.9108 67.0126 68.4884 65.4084 69.8487C60.6652 73.8709 51.9376 71.6094 49.1071 71.4737C48.2144 71.4309 48.7714 59.4439 48.1036 59.2876C38.5583 56.326 40.4899 45.0944 40.9452 39.0898Z" fill="#E5C09E"/>
<path d="M50.502 51.9331C51.6926 53.4707 55.099 55.7966 59.199 52.7994" stroke="#22382A" stroke-width="3.49424" stroke-linecap="square" stroke-linejoin="round"/>
<path d="M46.9796 32.3099C47.863 31.1689 50.7403 29.6305 53.4754 31.1689" stroke="#22382A" stroke-width="3.49424" stroke-linecap="square" stroke-linejoin="round"/>
<path d="M62.2498 30.9223C63.4706 30.2419 66.348 30.0239 68.7319 32.139" stroke="#22382A" stroke-width="3.49424" stroke-linecap="square" stroke-linejoin="round"/>
<path d="M57.9669 38.4549C58.8004 40.3392 59.0178 41.5351 60.4673 43.4557C60.4768 44.8471 59.0903 45.1226 55.5752 45.3763" stroke="#22382A" stroke-width="3.49424" stroke-linecap="square" stroke-linejoin="round"/>
<ellipse cx="50.5012" cy="36.3889" rx="2.10179" ry="2.06555" fill="#22382A"/>
<ellipse cx="64.3518" cy="36.2296" rx="2.10179" ry="2.06555" fill="#22382A"/>
<path d="M34.6745 35.8975C29.1218 54.6631 32.0897 71.9829 35.3511 77.8924C37.276 81.3802 35.787 84.0397 36.3974 88.007C38.0105 91.0589 51.1528 86.7097 51.3077 82.3394C52.8772 71.7888 49.4264 61.6103 47.9072 58.7531C41.5851 47.7814 42.3263 35.8696 43.7062 30.2946C48.6569 22.5006 60.5986 22.7543 65.9506 23.8554C68.0018 26.3 69.0361 37.0393 69.4302 44.5436C69.5639 47.0884 69.1001 49.6212 68.2332 52.0175C63.0577 66.3231 64.5922 68.7025 64.1002 75.057C63.8806 77.894 65.1418 80.7201 67.6496 82.0648L78.0177 87.6247C79.983 88.6786 82.4261 87.7501 83.1954 85.657L83.6135 84.5192C84.965 80.9442 84.5727 80.8993 84.5727 71.2656C84.5727 61.6319 78.3551 38.8523 74.564 24.3989C74.564 16.7274 44.4194 19.8229 40.3611 22.5592C40.3611 25.8708 37.5178 23.8554 34.6745 35.8975Z" fill="#23392A"/>
<path d="M33.9993 56.3862C21.0508 49.9904 0.279176 30.0441 38.6466 22.5178C73.1006 15.7591 91.3856 24.9266 97.9164 31.9741C99.2145 33.3749 99.7922 35.2731 99.6305 37.176C99.0052 44.534 94.7551 55.4501 80.9194 56.3862" stroke="#22382A" stroke-width="3.49424"/>
<path d="M40.0586 21.9575C40.9088 16.4939 47.8111 2.48976 61.7264 5.50028C65.0854 5.75116 74.8288 12.4576 77.2037 21.9575" stroke="#22382A" stroke-width="3.49424"/>
<path d="M74.2832 69.3023C83.269 69.5948 101.29 66.937 101.488 100.693V139.32" stroke="#22382A" stroke-width="3.49424"/>
<path d="M45.2471 60.15C49.5778 63.0274 60.3318 66.5676 68.7026 57.7085" stroke="#22382A" stroke-width="3.49424"/>
<path d="M48.9971 70.6562C52.8627 72.0368 62.399 73.6557 69.6187 69.0867" stroke="#22382A" stroke-width="3.49424"/>
<path d="M35.009 72.1483C22.9434 72.369 19.4518 95.4598 18.6532 116.432C18.3943 123.232 16.8668 129.611 19.2793 134.867C19.8782 136.172 20.943 137.183 22.0986 138.035L38.2721 149.958C38.2721 146.383 38.8389 136.051 47.384 134.394" stroke="#22382A" stroke-width="3.49424"/>
</g>
<path d="M0.304688 117.5C0.304688 114.462 2.76712 112 5.80469 112H110.805C113.842 112 116.305 114.462 116.305 117.5C116.305 120.538 113.842 123 110.805 123H5.80468C2.76712 123 0.304688 120.538 0.304688 117.5Z" fill="#E0E0E0"/>
<rect x="0.304688" y="112" width="110" height="11" rx="5.5" fill="#2AA967"/>
<defs>
<clipPath id="clip0_760_42926">
<rect x="8.30469" width="100" height="100" rx="50" fill="white"/>
</clipPath>
</defs>
</svg>
