<svg xmlns="http://www.w3.org/2000/svg" viewBox="0 0 112.9 125.7">
  <defs/>
  <defs>
    <style>
			.cls-5 { fill: #fff; }
			.cls-3 { fill: #8dc38c; }
			.cls-4 { fill: #4fa04d; }
    </style>
  </defs>
  <g id="Layer_2" data-name="Layer 2">
    <g id="Artwork">
      <path d="M111.9 83a9.2 9.2 0 00-2.1-2 4 4 0 00-1.2-3.2 9 9 0 00-6.5-2.5 13.4 13.4 0 00-3 .4 3.9 3.9 0 00-.6-.3 16.6 16.6 0 00-3.5-.3 16.2 16.2 0 00-5.8 1h-.1A73.1 73.1 0 0071 90a49.7 49.7 0 01-16-5.2c-1-.5-1.8-1-2.8-1.3a.9.9 0 01.4-1.7c2.6 0 5.3-.2 8.9-.5l2-.3h.5l1.8-.3h.6l2-.4h.8l1.2-.3.9-.2.8-.2h.5l.3-.2 2.9-.8a3.8 3.8 0 00.8-.3l.9-.4a23.4 23.4 0 003.4-1.7c1.5-.8 6.5-4.1 10.9-14a30 30 0 002.4-9.3 4 4 0 00-4.6-4.2l-17.1 2.6 4-5.4a4 4 0 00.1-4.5c-1.6-2.4-3.9-7-3.9-9L73 30c3-.3 5.8-.3 6-.3h0a4 4 0 003.6-2.2L93 6A4 4 0 0089.3.2h0a61 61 0 00-11 1 25.1 25.1 0 00-7.7 3.5 4.3 4.3 0 00-.5.4l-.7.7a5 5 0 00-.5.4L67.4 8l-.3.4c-1.6 1.7-4 4.3-6.7 7.5v.1l-1.5 1.8-.3.5-1.2 1.6-.5.6-1.4 1.8-.2.4-.3.4-.8 1.1-.6.9s-.7 1-.7 1.2l-.2.3-1.6 3a4.5 4.5 0 00-.4.9l-.5 1a19.7 19.7 0 00-1.4 4.3c-.5 2-1.7 8.5 2.6 19.5a34.2 34.2 0 002.2 4.5L35 66.2a4.1 4.1 0 00-2.2 1.7 4 4 0 00.6 5 66 66 0 006.2 5.2 1 1 0 01-.6 1.6 46.5 46.5 0 00-9.4.2 64.7 64.7 0 00-14.5 3.5A22 22 0 001 98.4a22.4 22.4 0 004.2 20.2 4.2 4.2 0 003.2 1.5 4.3 4.3 0 001.5-.3c2.7-1 6.5-2.1 8.3-2.1h0A46.3 46.3 0 0128 119c2.9.6 5.8 1.4 8.7 2.2l2.7.7c3.7 1 7.8 2 11.9 2.7a43.6 43.6 0 007.4.7 25.7 25.7 0 005.5-.6 4 4 0 001.4-.5 54.7 54.7 0 0010.3-8.5l.1-.2 4.2-4h.1a26.4 26.4 0 013.1-2.6 3.8 3.8 0 00.7-.5 19.3 19.3 0 004.5-1h.2c1.7-.6 6.5-2.3 7.4-6.3L99 99l4.6-3.7 4.3-3.8 1-.9a34.8 34.8 0 002.7-2.5 4 4 0 00.3-5z" stroke="#000" stroke-miterlimit="10" stroke-width=".5" fill="#fff"/>
      <path d="M109 85.3c-1 1.2-2.3 2.2-3.5 3.2-1.3 1.2-2.7 2.5-4.2 3.6-2.6 2.3-5.3 4.4-8 6.6a7.4 7.4 0 00-2.8-3.2 14.8 14.8 0 00-6.1-2.2 49.3 49.3 0 0118-10.4c2.2-.1 5 .5 6.6 2.4zM99.1 80A76 76 0 0080.4 93h.7l2 .1c6-5.2 14-10.6 20-11.2a7.3 7.3 0 012 .3 6 6 0 001-1.6c-1.8-1.8-4.8-1.5-7-.7zM91 80c-5.6 2.4-12.8 9.3-17.2 13.4 1.8-.2 3.5-.3 5.3-.3 4-4.7 13.2-10.8 18.8-13.7a12.3 12.3 0 00-6.9.6zM68 104a1.4 1.4 0 01-.3 0l-2-.1H60.5c-.8 0-1.6 0-2.4.2a34.1 34.1 0 00-10.3 3.2c-.5.3-1-.6-.5-.9a34.7 34.7 0 0111.5-3.4 45.1 45.1 0 019.2 0h.1l1.4.1c3 .4 6 1 9 1.2a22.2 22.2 0 009.1-.6c2.3-.8 5.6-2 5-4.8s-4-3.4-6.5-4.2c-3.4-1-7-.8-10.4-.9-23.3-.7-22.7-12.2-45.3-10a61.6 61.6 0 00-13.6 3.3 18.3 18.3 0 00-8 28.8.1.1 0 00.1 0c.8-.3 6.5-2.4 9.8-2.4a51.6 51.6 0 0110.6 1.5l11.5 3c3.9 1 7.6 2 11.5 2.6a30.5 30.5 0 0011.6.2 51.5 51.5 0 009.5-8l4.5-4.3a31.4 31.4 0 013.8-3 87.2 87.2 0 01-11.3-1.2zm6-12.8z" fill="#42507b"/>
      <path class="cls-3" d="M55.8 71.8c.4-.4 4.8-.5 10.8-6.5 2.7-2.6 4.2-9.7 4.2-9.7l19.8-3a26.2 26.2 0 01-2.1 8c-4.4 9.8-9.2 12.1-9.2 12.1L75.8 74z"/>
      <path class="cls-4" d="M62.3 70s4.5-2.7 6.2-5.5c1.4-2.3 3.1-8 3.1-8L89 53.9s-1.8 7.8-4 11c-7 9.7-9.4 9-9.4 9h-1.2a28 28 0 009.4-9.3 26.9 26.9 0 003.6-9.4l-15 2a39 39 0 01-3 7.5 28 28 0 01-6 5.8z"/>
      <path class="cls-4" d="M61.6 72.2c1.5-1 4.1-3 6.6-3.7 1.8-.4 6.1-.4 7.4.6 1 .6 1.6 2.1-.3 3.6a35.9 35.9 0 01-4.1 2.7z"/>
      <path class="cls-3" d="M36.6 70l19.7-6.8s5.6 5.5 9.3 7.1c9.3 3.9 13.7 2.4 13.7 2.4s-3.6 2.4-10.8 3.6A117.3 117.3 0 0149 77.8a18.6 18.6 0 01-5.7-2.1 52.6 52.6 0 01-6.7-5.7z"/>
      <path class="cls-4" d="M77.2 73.8a20.7 20.7 0 01-10.5-1.4c-3.4-1.4-10.5-7.6-10.5-7.6l-17.5 5.6s3 3 5 4.4a19.8 19.8 0 006.6 3h2.1a21.8 21.8 0 01-6.7-3 33 33 0 01-4.5-3.9l14.9-4.7s7 5.5 9.6 6.7a18 18 0 009.7 1.6z"/>
      <path class="cls-4" d="M72 75.5a38.5 38.5 0 00-5.6-.3c-3.2-.1-6.6 1-7 1.5-.3.4-.2.6-.1.7 2.7-.3 5.9-.6 9.3-1.2l3.4-.7z"/>
      <path class="cls-5" d="M79.5 61.4c.1.7-.6 1.3-1.6 1.5s-1.8-.3-2-1 .7-1.4 1.7-1.5 1.9.3 2 1zM55.4 72.2a1.9 1.9 0 11-2.1-.9 1.6 1.6 0 012.1 1z"/>
      <path class="cls-3" d="M72.6 18.3c0 .7-3.5 4.3-3.5 14 0 4.3 4.5 11.2 4.5 11.2L60 62a30 30 0 01-4.7-8.1c-4.5-11.5-2.4-17.3-2.4-17.3l1.7-3.9z"/>
      <path class="cls-4" d="M68.8 25s-1.5 5.8-.6 9.4c.8 3 4 9 4 9l-12 16s-4.8-7.7-5.6-12c-2.2-13.4.4-14.8.4-14.8l1-1a31.9 31.9 0 00-.2 15 30.9 30.9 0 004.7 10.6L71 43.4a45 45 0 01-3.6-8.4c-.8-3.3.2-9.6.2-9.6z"/>
      <path class="cls-4" d="M67.5 22.6c-.4 2-.8 5.8-2.3 8.4-1 1.7-4.6 5.3-6.4 5.5-1.3.2-3-.4-2.7-3.2a41.3 41.3 0 011.2-5.5z"/>
      <path class="cls-3" d="M89.5 4.3L79.1 25.6s-9 0-13.2 1.8c-10.6 4.3-13 9-13 9s1-4.8 5.8-11.6A134.3 134.3 0 0173.2 8a21.1 21.1 0 016.3-2.9 59.6 59.6 0 0110-.8z"/>
      <path class="cls-4" d="M53.7 34a23.7 23.7 0 019.6-7.3c3.9-1.7 14.5-2.4 14.5-2.4l9.7-18.8s-4.8.2-7.7.7A22.7 22.7 0 0072.1 9l-1.7 1.8s2.5-1.7 8-3a36.6 36.6 0 016.7-.5L76.9 23s-10 1.2-13.2 2.3a20.4 20.4 0 00-9.2 6.6z"/>
      <path class="cls-4" d="M56.5 28.4a44.6 44.6 0 004.8-4.2c2.6-2.6 4.5-6.2 4.4-7-.1-.6-.3-.7-.4-.7a185 185 0 00-8.8 11.9z"/>
      <path class="cls-5" d="M61.8 45.9a2.2 2.2 0 012.5-3.3 1.8 1.8 0 010 2.5c-.8.9-1.8 1.3-2.5.8zM72.5 17.6a1.9 1.9 0 01-.3-2.6 1.9 1.9 0 012.5-1 1.9 1.9 0 01.3 2.7 1.9 1.9 0 01-2.5 1z"/>
    </g>
  </g>
</svg>
