<svg width="44" height="54" viewBox="0 0 44 54" fill="none" xmlns="http://www.w3.org/2000/svg">
<mask id="mask0_4639_18959" style="mask-type:luminance" maskUnits="userSpaceOnUse" x="0" y="0" width="44" height="54">
<path d="M43.0371 0.5H0.962891V53.5H43.0371V0.5Z" fill="white"/>
</mask>
<g mask="url(#mask0_4639_18959)">
<path d="M4.56145 17.4534C4.85091 14.292 6.25849 7.7025 12.8707 5.86356C14.1307 5.51166 15.2091 4.683 15.8845 3.55921C16.6337 2.29352 18.3308 0.806479 22.1505 0.534044C26.3222 0.23323 28.1384 2.1119 28.9217 3.62732C29.5063 4.76247 30.4201 5.68193 31.5836 6.20978C34.6428 7.60601 40.0291 11.159 40.3356 18.9404C40.3867 20.1494 40.8067 21.3299 41.5899 22.2437C42.7818 23.6286 44.0362 26.3757 41.7602 30.9333C40.3753 33.6974 37.2764 34.4409 34.8358 34.5544C32.9969 34.6452 31.5723 36.1947 31.6858 38.0336L31.7028 38.3004C31.8333 40.4117 33.1842 42.2791 35.1764 42.9999C37.668 43.9023 40.8975 45.8037 42.1802 49.7483C42.7818 51.5986 41.3856 53.4943 39.4388 53.4943H9.04528C5.95768 53.4943 4.20955 49.9413 6.10525 47.5064C7.30851 45.9626 9.19285 44.4529 12.1499 43.471C14.0513 42.8353 15.4078 41.1439 15.561 39.1404V39.112C15.6689 37.7214 15.0389 36.4047 13.9605 35.5193C13.9151 35.4852 13.8697 35.4455 13.8356 35.4058C12.7572 34.4522 11.2815 34.1401 9.87961 34.4749C7.73418 34.9857 4.57848 34.6566 2.04142 29.9514C-0.370763 25.4675 1.82007 21.9543 3.33549 20.2629C4.03928 19.4796 4.47064 18.4921 4.56713 17.4421L4.56145 17.4534Z" fill="white"/>
<path d="M17.6774 11.8683C17.6774 11.8683 23.6539 6.22094 30.5272 10.0464C37.4062 13.8661 37.043 19.8824 36.8613 21.3297C36.6854 22.7827 32.877 31.3474 24.9196 31.1658C16.9565 30.9842 9.16943 23.3333 17.683 11.8683H17.6774Z" fill="#78C79F"/>
<path d="M22.6895 21.4717C22.6895 21.4717 35.0115 33.3169 37.1455 28.0101C37.1455 28.0101 40.3353 22.3684 22.6895 21.4717Z" fill="#78C79F" stroke="#27372B" stroke-width="2.20833" stroke-miterlimit="10" stroke-linecap="round"/>
<path d="M22.8032 22.0166C22.8032 22.0166 29.5516 4.54669 23.1891 5.04048C23.1891 5.04048 15.5723 3.57046 22.8032 22.0166Z" fill="#78C79F" stroke="#27372B" stroke-width="2.20833" stroke-miterlimit="10" stroke-linecap="round"/>
<path d="M20.8105 22.5616L19.6924 45.2192H26.2081L24.7268 22.3743" fill="#78C79F"/>
<path d="M20.8105 22.5616L19.6924 45.2192H26.2081L24.7268 22.3743" stroke="#27372B" stroke-width="2.20833" stroke-miterlimit="10" stroke-linecap="round"/>
<path d="M22.5991 21.4717C22.5991 21.4717 4.04516 21.4717 6.77519 28.0272C6.77519 28.0272 7.9671 35.1105 22.5991 21.4717Z" fill="#78C79F" stroke="#27372B" stroke-width="2.20833" stroke-miterlimit="10" stroke-linecap="round"/>
<path d="M22.6897 25.8875C20.7997 25.8875 19.2559 24.3551 19.2559 22.4537C19.2559 20.5523 20.7883 19.0199 22.6897 19.0199C24.591 19.0199 26.1235 20.5523 26.1235 22.4537C26.1235 24.3551 24.591 25.8875 22.6897 25.8875Z" fill="#78C79F" stroke="#27372A" stroke-width="2.20833"/>
<path d="M15.123 49.9081H34.7554L33.3251 45.3619L16.5533 45.1121L15.123 49.9024V49.9081Z" fill="#78C79F"/>
<path d="M12.2852 49.9081H31.9175L30.4872 45.3619L13.7154 45.1121L12.2852 49.9024V49.9081Z" fill="#78C79F" stroke="#27372B" stroke-width="2.20833" stroke-miterlimit="10" stroke-linecap="round"/>
<path d="M26.4346 10.0974C26.4346 10.0974 33.1717 10.3698 34.7155 17.612L26.4346 10.0974Z" fill="#78C79F"/>
<path d="M26.4346 10.0974C26.4346 10.0974 33.1717 10.3698 34.7155 17.612" stroke="#27372B" stroke-width="2.20833" stroke-miterlimit="10"/>
<path d="M26.1914 13.7015C26.1914 13.7015 30.1985 13.5426 30.8398 18.35L26.1914 13.7015Z" fill="#78C79F"/>
<path d="M26.1914 13.7015C26.1914 13.7015 30.1985 13.5426 30.8398 18.35" stroke="#27372B" stroke-width="2.20833" stroke-miterlimit="10"/>
<path d="M13.6934 29.2476C13.6934 29.2476 14.3744 31.2228 17.3485 32.4714L13.6934 29.2476Z" fill="#78C79F"/>
<path d="M13.6934 29.2476C13.6934 29.2476 14.3744 31.2228 17.3485 32.4714" stroke="#27372B" stroke-width="2.20833" stroke-miterlimit="10"/>
<path d="M10.2476 18.7936C10.2476 18.7936 9.38493 14.4063 13.1082 11.2222L10.2476 18.7936Z" fill="#78C79F"/>
<path d="M10.2476 18.7936C10.2476 18.7936 9.38493 14.4063 13.1082 11.2222" stroke="#27372B" stroke-width="2.20833" stroke-miterlimit="10"/>
</g>
</svg>
