<?xml version="1.0" encoding="utf-8"?>
<!-- Generator: Adobe Illustrator 24.2.1, SVG Export Plug-In . SVG Version: 6.00 Build 0)  -->
<svg version="1.1" id="Layer_1" xmlns="http://www.w3.org/2000/svg" xmlns:xlink="http://www.w3.org/1999/xlink" x="0px" y="0px"
	 viewBox="0 0 1200 1200" style="enable-background:new 0 0 1200 1200;" xml:space="preserve">
<style type="text/css">
	.st0{fill:#F2F2F2;}
	.st1{fill:#4FAF4E;}
	.st2{fill:#BC9066;}
	.st3{fill:#A87E5D;}
	.st4{fill:#F3DECD;}
	.st5{fill:#E8CBAA;}
	.st6{fill:#5F5F5F;}
	.st7{fill:#E0B88E;}
	.st8{fill:#FBF7F2;}
	.st9{fill:#E4E4E3;}
	.st10{fill:#D1D1D1;}
	.st11{fill:#E9AA99;}
	.st12{fill:#BA7C6E;}
	.st13{fill:#5FBC92;}
	.st14{fill:#F0F0F0;}
	.st15{fill:#39363D;}
	.st16{fill:#4D4753;}
	.st17{fill:#5FA483;}
	.st18{fill:#FDFDFB;}
	.st19{fill:#A8A9A8;}
	.st20{fill:#D2E0E8;}
	.st21{fill:#C5CFD6;}
	.st22{fill:#E67354;}
	.st23{fill:#55A3E4;}
	.st24{fill:#56D78A;}
	.st25{fill:#AAD5EE;}
	.st26{fill:#B2D9EA;}
	.st27{fill:#C9E3E5;}
	.st28{fill:#DDEDE0;}
	.st29{fill:#EFF3DA;}
	.st30{fill:#F8F8D8;}
	.st31{fill:#FAF9D7;}
	.st32{fill:#E5CB47;}
	.st33{fill:#43150D;}
	.st34{fill:#D0C647;}
	.st35{fill:#C74529;}
	.st36{fill:#682617;}
	.st37{fill:#F3F3F3;}
	.st38{fill:#D7DEDB;}
	.st39{fill:#D7D7D7;}
	.st40{fill:#DCDBDA;}
	.st41{fill:#F3EAE7;}
	.st42{fill:#FCEEEB;}
	.st43{fill:#F6E4E4;}
	.st44{fill:#ECDCE0;}
	.st45{fill:#E2D3D8;}
	.st46{fill:#070405;}
	.st47{fill:#86593A;}
	.st48{fill:#EDB853;}
	.st49{fill:none;stroke:#714341;stroke-width:0;stroke-linecap:round;stroke-linejoin:round;}
	.st50{fill:#714341;}
	.st51{fill:#E4E1DC;}
	.st52{fill:#ECEFFF;}
	.st53{fill:#E6ECFF;}
	.st54{fill:#E3EEFF;}
	.st55{fill:#DDECFF;}
	.st56{fill:#DBEFFF;}
	.st57{fill:#DAEFFF;}
	.st58{fill:#1D2B45;}
	.st59{fill:#A5A0B1;}
	.st60{fill:#7383A7;}
	.st61{fill:#77A9B0;}
	.st62{fill:#537E87;}
	.st63{fill:#AED5DE;}
	.st64{fill:#91BFC9;}
	.st65{fill:#B2D5DF;}
	.st66{fill:#79AFB8;}
	.st67{fill:#96CCD9;}
	.st68{fill:#C18C40;}
	.st69{fill:#DDDAD9;}
	.st70{fill:#8E8E8E;}
	.st71{fill:#DEAD94;}
	.st72{fill:#D9A48C;}
	.st73{fill:#D89B87;}
	.st74{fill:#D49380;}
	.st75{fill:#D18C7D;}
	.st76{fill:#D08779;}
	.st77{fill:#354A73;}
	.st78{fill:#637492;}
	.st79{fill:#26365B;}
	.st80{fill:#192547;}
	.st81{fill:#0C1430;}
	.st82{fill:#FFFFFF;}
	.st83{fill:#737378;}
	.st84{fill:#A7A8AD;}
	.st85{fill:#8A8B8F;}
	.st86{fill:#FBDCC0;}
	.st87{fill:#CDCED4;}
	.st88{fill:#4D93C6;}
</style>
<g>
	<g>
		<rect y="-2.1" class="st25" width="1200" height="132.7"/>
		<rect y="130.9" class="st26" width="1200" height="132.7"/>
		<rect y="263.9" class="st27" width="1200" height="132.7"/>
		<rect y="396.9" class="st28" width="1200" height="132.7"/>
		<rect y="529.9" class="st29" width="1200" height="132.7"/>
		<rect y="662.9" class="st30" width="1200" height="132.7"/>
		<rect y="795.9" class="st31" width="1200" height="38"/>
		<polygon class="st32" points="0,915.7 0,928.6 0,928.9 0,956.6 0,983.9 0,1061.6 0,1079.3 1200,1079.3 1200,1061.6 1200,983.9 
			1200,956.6 1200,928.9 1200,928.6 1200,915.7 1200,861.2 0,861.2 		"/>
		<rect y="833.9" class="st33" width="1200" height="27.3"/>
		<polygon class="st34" points="0,1106.6 0,1174.8 0,1202.1 1200,1202.1 1200,1174.8 1200,1106.6 1200,1079.3 0,1079.3 		"/>
	</g>
	<g>
		<rect x="667.9" y="749.2" class="st35" width="150.9" height="112"/>
		<rect x="667.9" y="726" class="st33" width="150.9" height="23.2"/>
		<path class="st22" d="M667.9,726h-9.3c0,0.7-0.3,1.3-0.8,1.8c-0.4,0.4-1,0.6-1.5,0.6c-0.7,0-1.3-0.3-1.8-0.8L521.3,572L389.4,726
			v135.2h174.1h104.4v-112V726z"/>
		<polygon class="st33" points="517.1,567 380.8,726 389.4,726 521.3,572 		"/>
		<path class="st36" d="M689.4,565c-0.4-0.4-0.5-1-0.5-1.5H528.7h-8.5l138,161c0.4,0.4,0.5,1,0.5,1.5h9.3h150.9h8.5L689.4,565z"/>
		<path class="st37" d="M521.3,572l133.2,155.4c0.5,0.5,1.1,0.8,1.8,0.8c0.5,0,1.1-0.2,1.5-0.6c0.5-0.5,0.8-1.1,0.8-1.8
			c0-0.5-0.2-1.1-0.5-1.5l-138-161l-1.3-1.5c-0.4-0.5-1.1-0.8-1.8-0.8c-0.7,0-1.3,0.3-1.8,0.8L376,724.4c-0.8,1-0.7,2.4,0.3,3.3
			c1,0.8,2.4,0.7,3.3-0.3l1.3-1.5L517.1,567L521.3,572z"/>
		<path class="st37" d="M832.2,724.4L692.9,562c-0.8-1-2.3-1.1-3.3-0.3c-0.5,0.5-0.8,1.1-0.8,1.8c0,0.5,0.2,1.1,0.5,1.5l138,161
			l1.3,1.5c0.5,0.5,1.1,0.8,1.8,0.8c0.5,0,1.1-0.2,1.5-0.6C832.9,726.9,833,725.4,832.2,724.4z"/>
	</g>
</g>
</svg>
