<?xml version="1.0" encoding="utf-8"?>
<!-- Generator: Adobe Illustrator 24.2.1, SVG Export Plug-In . SVG Version: 6.00 Build 0)  -->
<svg version="1.1" id="Layer_1" xmlns="http://www.w3.org/2000/svg" xmlns:xlink="http://www.w3.org/1999/xlink" x="0px" y="0px"
	 viewBox="0 0 1200 1200" style="enable-background:new 0 0 1200 1200;" xml:space="preserve">
<style type="text/css">
	.st0{fill:#F2F2F2;}
	.st1{fill:#4FAF4E;}
	.st2{fill:#BC9066;}
	.st3{fill:#A87E5D;}
	.st4{fill:#F2E3D7;}
	.st5{fill:#FBF7F2;}
	.st6{fill:#B7A89E;}
	.st7{fill:#9B8D84;}
	.st8{fill:none;}
	.st9{fill:#FFFFFF;}
	.st10{fill:#E5E5E5;}
	.st11{fill:#EA7156;}
	.st12{fill:#C95D4B;}
	.st13{fill:#249CA8;}
	.st14{fill:#4D4753;}
	.st15{fill:#1F858C;}
	.st16{fill:#39363D;}
	.st17{fill:#BC5342;}
	.st18{fill:#E67354;}
	.st19{fill:#55A3E4;}
	.st20{fill:#56D78A;}
	.st21{fill:#AAD5EE;}
	.st22{fill:#B2D9EA;}
	.st23{fill:#C9E3E5;}
	.st24{fill:#DDEDE0;}
	.st25{fill:#EFF3DA;}
	.st26{fill:#F8F8D8;}
	.st27{fill:#FAF9D7;}
	.st28{fill:#E5CB47;}
	.st29{fill:#43150D;}
	.st30{fill:#D0C647;}
	.st31{fill:#C74529;}
	.st32{fill:#682617;}
	.st33{fill:#F3F3F3;}
	.st34{fill:#D7DEDB;}
	.st35{fill:#D7D7D7;}
	.st36{fill:#DCDBDA;}
	.st37{fill:#F3EAE7;}
	.st38{fill:#FCEEEB;}
	.st39{fill:#F6E4E4;}
	.st40{fill:#ECDCE0;}
	.st41{fill:#E2D3D8;}
	.st42{fill:#070405;}
	.st43{fill:#86593A;}
	.st44{fill:#EDB853;}
	.st45{fill:none;stroke:#714341;stroke-width:0;stroke-linecap:round;stroke-linejoin:round;}
	.st46{fill:#714341;}
	.st47{fill:#E4E1DC;}
	.st48{fill:#ECEFFF;}
	.st49{fill:#E6ECFF;}
	.st50{fill:#E3EEFF;}
	.st51{fill:#DDECFF;}
	.st52{fill:#DBEFFF;}
	.st53{fill:#DAEFFF;}
	.st54{fill:#1D2B45;}
	.st55{fill:#A5A0B1;}
	.st56{fill:#7383A7;}
	.st57{fill:#77A9B0;}
	.st58{fill:#537E87;}
	.st59{fill:#AED5DE;}
	.st60{fill:#91BFC9;}
	.st61{fill:#B2D5DF;}
	.st62{fill:#79AFB8;}
	.st63{fill:#96CCD9;}
	.st64{fill:#C18C40;}
	.st65{fill:#DDDAD9;}
	.st66{fill:#8E8E8E;}
	.st67{fill:#DEAD94;}
	.st68{fill:#D9A48C;}
	.st69{fill:#D89B87;}
	.st70{fill:#D49380;}
	.st71{fill:#D18C7D;}
	.st72{fill:#D08779;}
	.st73{fill:#354A73;}
	.st74{fill:#637492;}
	.st75{fill:#26365B;}
	.st76{fill:#192547;}
	.st77{fill:#0C1430;}
	.st78{fill:#FBDCC0;}
	.st79{fill:#737378;}
	.st80{fill:#A7A8AD;}
	.st81{fill:#8A8B8F;}
	.st82{fill:#CDCED4;}
	.st83{fill:#4D93C6;}
	.st84{fill:#847872;}
</style>
<g>
	<g>
		<rect y="1050.3" transform="matrix(-1 -1.224647e-16 1.224647e-16 -1 1200 2250.2712)" class="st4" width="1200" height="149.7"/>
		<rect y="900.2" transform="matrix(-1 -1.224647e-16 1.224647e-16 -1 1200 1950.1938)" class="st4" width="1200" height="149.7"/>
		<rect y="750.2" transform="matrix(-1 -1.224647e-16 1.224647e-16 -1 1200 1650.1165)" class="st4" width="1200" height="149.7"/>
		<rect y="600.2" transform="matrix(-1 -1.224647e-16 1.224647e-16 -1 1200 1350.0391)" class="st4" width="1200" height="149.7"/>
		<rect y="450.1" transform="matrix(-1 -1.224647e-16 1.224647e-16 -1 1200 1049.9617)" class="st4" width="1200" height="149.7"/>
		<rect y="300.1" transform="matrix(-1 -1.224647e-16 1.224647e-16 -1 1200 749.8843)" class="st4" width="1200" height="149.7"/>
		<rect y="150" transform="matrix(-1 -1.224647e-16 1.224647e-16 -1 1200 449.8069)" class="st4" width="1200" height="149.7"/>
		<rect y="0" transform="matrix(-1 -1.224647e-16 1.224647e-16 -1 1200 149.7295)" class="st4" width="1200" height="149.7"/>
	</g>
	<g>
		<polygon class="st5" points="0,0 0,46.5 450,334.9 450,190.7 150.1,0 		"/>
		<polygon class="st5" points="0,97.5 450,383.7 450,527.9 0,239.4 		"/>
		<polygon class="st5" points="0,290.5 450,576.6 450,720.8 0,432.4 		"/>
	</g>
	<rect x="0" y="764.1" class="st6" width="1200" height="435.9"/>
	<rect x="0" y="1080" class="st7" width="1200" height="120"/>
	<g>
		<polygon class="st8" points="600,555.7 567.7,571.8 632.3,571.8 		"/>
		<rect x="308.9" y="730.6" class="st9" width="423.4" height="63.5"/>
		<polygon class="st10" points="732.3,730.6 732.3,794.1 308.9,794.1 308.9,815.3 732.3,815.3 742.9,815.3 901.7,815.3 901.7,730.6 
			742.9,730.6 		"/>
		<polygon class="st11" points="732.3,825.9 732.3,825.9 732.3,815.3 308.9,815.3 308.9,794.1 308.9,730.6 732.3,730.6 732.3,720 
			287.7,720 287.7,730.6 287.7,815.3 287.7,825.9 732.3,825.9 		"/>
		<polygon class="st12" points="732.3,720 732.3,730.6 742.9,730.6 901.7,730.6 912.3,730.6 912.3,720 742.9,720 		"/>
		<polygon class="st12" points="732.3,815.3 732.3,825.9 742.9,825.9 762.1,825.9 912.3,825.9 912.3,825.9 912.3,825.9 912.3,815.3 
			901.7,815.3 742.9,815.3 		"/>
		<rect x="308.9" y="582.4" class="st9" width="423.4" height="105.9"/>
		<polygon class="st13" points="732.3,571.8 632.3,571.8 567.7,571.8 287.7,571.8 287.7,582.4 308.9,582.4 732.3,582.4 		"/>
		<polygon class="st13" points="732.3,709.5 308.9,709.5 287.7,709.5 287.7,720 732.3,720 		"/>
		<rect x="308.9" y="688.3" class="st10" width="423.4" height="21.2"/>
		<polygon class="st9" points="732.3,868.2 732.3,836.5 308.9,836.5 308.9,868.2 732.3,868.2 		"/>
		<polygon class="st14" points="732.3,836.5 732.3,825.9 287.7,825.9 287.7,836.5 308.9,836.5 732.3,836.5 		"/>
		<polygon class="st14" points="732.3,889.4 308.9,889.4 287.7,889.4 287.7,900 732.3,900 732.3,889.4 		"/>
		<rect x="308.9" y="868.2" class="st10" width="423.4" height="21.2"/>
		<polygon class="st15" points="742.9,571.8 732.3,571.8 732.3,582.4 732.3,688.3 732.3,709.5 732.3,720 742.9,720 912.3,720 
			912.3,709.5 912.3,582.4 912.3,571.8 		"/>
		<polygon class="st16" points="762.1,825.9 742.9,825.9 732.3,825.9 732.3,825.9 732.3,825.9 732.3,836.5 732.3,836.5 732.3,868.2 
			732.3,868.2 732.3,889.4 732.3,889.4 732.3,900 732.3,900 742.9,900 762.1,900 912.3,900 912.3,825.9 912.3,825.9 		"/>
		<polygon class="st11" points="653.5,529.1 713,442.7 680.7,378.2 636,363.3 629.2,373 600.3,378 600,378.2 567.7,362.1 
			519.3,378.2 487,442.7 519.3,539.6 567.7,571.8 600,555.7 		"/>
		<polygon class="st1" points="636,363.3 653.3,338.6 660.2,292.2 619,314.5 594.9,348.9 600,378.1 600.3,378 629.2,373 		"/>
		<polygon class="st17" points="600,555.7 632.3,571.8 680.7,539.6 713,442.7 653.5,529.1 		"/>
	</g>
</g>
<rect x="0" y="1140" class="st84" width="1200" height="60"/>
</svg>
