<?xml version="1.0" encoding="utf-8"?>
<!-- Generator: Adobe Illustrator 24.2.1, SVG Export Plug-In . SVG Version: 6.00 Build 0)  -->
<svg version="1.1" id="Layer_1" xmlns="http://www.w3.org/2000/svg" xmlns:xlink="http://www.w3.org/1999/xlink" x="0px" y="0px"
	 viewBox="0 0 1200 1200" style="enable-background:new 0 0 1200 1200;" xml:space="preserve">
<style type="text/css">
	.st0{fill:#F2F2F2;}
	.st1{fill:#4FAF4E;}
	.st2{fill:#BC9066;}
	.st3{fill:#A87E5D;}
	.st4{fill:#F3DECD;}
	.st5{fill:#E8CBAA;}
	.st6{fill:#5F5F5F;}
	.st7{fill:#E0B88E;}
	.st8{fill:#FBF7F2;}
	.st9{fill:#E4E4E3;}
	.st10{fill:#D1D1D1;}
	.st11{fill:#E9AA99;}
	.st12{fill:#BA7C6E;}
	.st13{fill:#5FBC92;}
	.st14{fill:#F0F0F0;}
	.st15{fill:#39363D;}
	.st16{fill:#4D4753;}
	.st17{fill:#5FA483;}
	.st18{fill:#FDFDFB;}
	.st19{fill:#A8A9A8;}
	.st20{fill:#D2E0E8;}
	.st21{fill:#C5CFD6;}
	.st22{fill:#E67354;}
	.st23{fill:#55A3E4;}
	.st24{fill:#56D78A;}
	.st25{fill:#AAD5EE;}
	.st26{fill:#B2D9EA;}
	.st27{fill:#C9E3E5;}
	.st28{fill:#DDEDE0;}
	.st29{fill:#EFF3DA;}
	.st30{fill:#F8F8D8;}
	.st31{fill:#FAF9D7;}
	.st32{fill:#E5CB47;}
	.st33{fill:#43150D;}
	.st34{fill:#D0C647;}
	.st35{fill:#C74529;}
	.st36{fill:#682617;}
	.st37{fill:#F3F3F3;}
	.st38{fill:#D7DEDB;}
	.st39{fill:#D7D7D7;}
	.st40{fill:#DCDBDA;}
	.st41{fill:#F3EAE7;}
	.st42{fill:#FCEEEB;}
	.st43{fill:#F6E4E4;}
	.st44{fill:#ECDCE0;}
	.st45{fill:#E2D3D8;}
	.st46{fill:#070405;}
	.st47{fill:#86593A;}
	.st48{fill:#EDB853;}
	.st49{fill:none;stroke:#714341;stroke-width:0;stroke-linecap:round;stroke-linejoin:round;}
	.st50{fill:#714341;}
	.st51{fill:#E4E1DC;}
	.st52{fill:#ECEFFF;}
	.st53{fill:#E6ECFF;}
	.st54{fill:#E3EEFF;}
	.st55{fill:#DDECFF;}
	.st56{fill:#DBEFFF;}
	.st57{fill:#DAEFFF;}
	.st58{fill:#1D2B45;}
	.st59{fill:#A5A0B1;}
	.st60{fill:#7383A7;}
	.st61{fill:#77A9B0;}
	.st62{fill:#537E87;}
	.st63{fill:#AED5DE;}
	.st64{fill:#91BFC9;}
	.st65{fill:#B2D5DF;}
	.st66{fill:#79AFB8;}
	.st67{fill:#96CCD9;}
	.st68{fill:#C18C40;}
	.st69{fill:#DDDAD9;}
	.st70{fill:#8E8E8E;}
	.st71{fill:#DEAD94;}
	.st72{fill:#D9A48C;}
	.st73{fill:#D89B87;}
	.st74{fill:#D49380;}
	.st75{fill:#D18C7D;}
	.st76{fill:#D08779;}
	.st77{fill:#354A73;}
	.st78{fill:#637492;}
	.st79{fill:#26365B;}
	.st80{fill:#192547;}
	.st81{fill:#0C1430;}
	.st82{fill:#FFFFFF;}
	.st83{fill:#737378;}
	.st84{fill:#A7A8AD;}
	.st85{fill:#8A8B8F;}
	.st86{fill:#FBDCC0;}
	.st87{fill:#CDCED4;}
	.st88{fill:#4D93C6;}
</style>
<g>
	<g>
		<rect class="st0" width="1200" height="1200"/>
	</g>
	<g>
		<circle class="st23" cx="600" cy="604.1" r="286.4"/>
		<g>
			<path class="st24" d="M612,317.7c0.2,0.6,0.7,0.5,1.1,0.4c1-0.1,1.6,0.4,2.3,1c8.3,8.3,16.6,16.7,25,25c0.8,0.8,0.9,1.4,0.6,2.5
				c-3.8,11.2-7.5,22.5-11.2,33.7c-0.5,1.4-1.1,2.9-1.4,4.3c-0.3,1.2-1,1.6-2.1,1.9c-4.2,1-8.3,2.1-12.5,3.1
				c-21.8,5.5-43.7,10.9-65.5,16.4c-9.2,2.3-18.5,4.6-27.7,6.9c-0.4,0.1-0.7,0.2-1.1,0.2c-0.5,0.1-0.8-0.1-0.8-0.7c0-0.7,0-1.3,0-2
				c0-16.4,0-32.7,0-49.1c0-3,0.4-2.4-2.5-3.4c-11.9-4-23.8-8-35.8-11.9c-0.5-0.2-1.1-0.4-1.6-0.6c0-0.8,0.6-0.8,1-1
				c5-2.4,10.2-4.6,15.4-6.7c10.8-4.3,21.9-7.9,33.1-10.8c7.8-2,15.7-3.7,23.6-5.1c5.8-1,11.6-1.8,17.5-2.5
				c4.4-0.5,8.8-0.9,13.2-1.1c1.9-0.1,3.8-0.2,5.7-0.4c0.3,0,0.6-0.1,0.7-0.4C596.6,317.7,604.3,317.7,612,317.7z"/>
			<path class="st24" d="M586.7,590.4c0-12.9,0-25.7,0-38.6c0-1.5,0.4-2.6,1.3-3.8c11.2-14.8,22.3-29.6,33.4-44.5
				c1.8-2.4,3.7-4.9,5.5-7.3c0.6-0.8,1.3-1.2,2.3-1.4c14.4-2.9,28.8-5.7,43.1-8.6c7.3-1.5,14.5-2.9,21.8-4.4
				c0.4-0.1,0.7-0.1,1.1-0.2c0.5-0.1,1,0.1,1.4,0.5c0.4,0.4,0.8,0.8,1.2,1.2c8,8,16,15.9,23.9,23.9c1,1,2.2,1.6,3.6,1.8
				c9.2,1.5,18.3,3,27.5,4.5c9.6,1.6,19.2,3.2,28.8,4.8c7.3,1.2,14.6,2.5,21.9,3.7c0.2,0,0.4,0.1,0.6,0.1c0.5,0,0.8-0.2,0.8-0.8
				c0-0.3,0-0.6,0-0.9c0-7.9,0-15.7,0-23.6c0-0.4,0-0.7,0-1.1c0-0.4-0.2-0.7-0.7-0.7c-0.7,0-1.3,0-2,0c-12,0-24,0-36,0
				c-1.5,0-2.8-0.3-4.1-1.1c-21.4-12.9-42.7-25.7-64.1-38.5c-0.4-0.3-0.9-0.5-1.3-0.8c-0.6-0.5-1.3-0.5-2.1-0.3
				c-9.7,1.7-19.5,3.3-29.2,4.9c-9.6,1.6-19.2,3.2-28.8,4.8c-6.9,1.1-13.7,2.3-20.6,3.4c-0.2,0-0.4,0.1-0.6,0.1
				c-1.1,0.1-1.3,0-1.3-1.1c0-0.5,0-1,0-1.5c0-7.3,0-14.5,0-21.8c0-0.4,0-0.7,0-1.1c0-1.5,0-1.6,1.5-1.9c6.9-1.7,13.8-3.5,20.7-5.2
				c10.1-2.5,20.2-5,30.2-7.5c0.4-0.1,0.8-0.3,1.3-0.4c0.6-0.1,0.8-0.5,0.9-1.1c0-0.6,0-1.2,0-1.7c0-7.6,0-15.1,0-22.7
				c0-1.4,0.3-2.5,1.1-3.6c8.3-12.4,16.5-24.8,24.8-37.2c0.2-0.4,0.5-0.7,0.7-1.1c0.4-0.7,1-0.8,1.7-0.6c0.6,0.2,1.2,0.4,1.9,0.6
				c25.6,8.5,51.3,17.1,76.9,25.6c2.4,0.8,1.9,0.7,3.8-0.5c0.8-0.5,1.6-1,2.4-1.6c0.3-0.2,0.6-0.2,0.8,0c0.5,0.4,1,0.8,1.5,1.2
				c9.3,7.8,18.1,16.2,26.4,25.1c14.6,15.7,27.2,32.9,38,51.5c10.8,18.6,19.3,38.2,25.7,58.8c3.1,10,5.6,20.1,7.5,30.4
				c0.9,4.9,1.6,9.7,2.4,14.6c0.1,0.7,0.1,1.4,0.1,2.2c0,0.1-0.1,0.3-0.2,0.3c-0.1,0-0.3,0-0.4-0.1c-0.3-0.5-0.7-1-1-1.5
				c-1.9-3.2-3.9-6.5-5.8-9.7c-1.1-1.8-2.2-3.6-3.3-5.4c-0.4-0.7-0.7-0.7-1.4-0.1c-0.3,0.3-0.6,0.6-0.9,0.9
				c-3.5,3.5-7.1,7.1-10.6,10.6c-0.7,0.7-1.3,1.5-1.8,2.4c-4,8.1-8.1,16.1-12.1,24.2c-0.2,0.3-0.3,0.7-0.5,1c-0.3,0.6-0.3,1.1,0,1.7
				c0.3,0.5,0.5,1,0.8,1.6c3.7,7.5,7.5,15,11.2,22.4c0.1,0.3,0.3,0.5,0.4,0.8c0.8,1.6,1.1,1.4-0.3,3.3c-2.6,3.9-5.2,7.7-7.7,11.6
				c-5.8,8.6-11.5,17.3-17.3,25.9c-0.8,1.2-1.3,2.4-1.7,3.7c-5.6,22.5-11.2,45.1-16.9,67.6c-3.2,12.6-6.3,25.2-9.5,37.8
				c-0.3,1.2-0.8,2.1-1.7,2.9c-1.4,1.4-2.8,2.8-4.2,4.2c-11.1,11.1-22.2,22.2-33.3,33.3c-0.3,0.3-0.6,0.6-0.9,0.9
				c-0.8,1-1.8,1.3-3.1,1.2c-12.4,0-24.9,0-37.3,0c-0.1,0-0.3,0-0.4,0c-0.9,0.1-1.6-0.2-1.9-1.1c-0.1-0.3-0.3-0.7-0.5-1
				c-8.5-16.9-16.9-33.8-25.4-50.7c-0.7-1.3-0.9-2.7-0.9-4.2c0-21.2,0-42.5,0-63.7c0-1.6-0.2-3-0.7-4.5c-4-12-8-24-12-36
				c-1-2.9-0.6-2.7-3.4-1.7c-12.2,4.1-24.4,8.1-36.6,12.2c-0.1,0-0.3,0.1-0.4,0.2c-0.9,0.4-1.8,0.4-2.7-0.1c-0.9-0.6-1.9-1-2.9-1.5
				c-16-8-32-16-48-24c-2.9-1.4-2.4-0.9-2.4-3.9C586.7,616,586.7,603.2,586.7,590.4z"/>
			<path class="st24" d="M477.1,345.8c0,1.1-0.5,1.6-0.8,2.3c-3.7,7.4-7.3,14.7-11,22c-1.3,2.7-1.3,2.1,0,4.8
				c3.8,7.6,7.6,15.2,11.4,22.8c0.6,1.3,0.9,2.5,0.9,4c0,12.3,0,24.6,0,36.9c0,0.4,0,0.7,0,1.1c0.1,0.8-0.2,1.4-0.7,2
				c-3,3.4-6,6.9-9.1,10.3c-5.7,6.6-11.5,13.1-17.2,19.7c-4.4,5-8.7,9.9-13.1,14.9c-5.8,6.7-11.7,13.4-17.5,20
				c-4.5,5.1-9,10.3-13.5,15.4c-5.6,6.5-11.3,12.9-16.9,19.4c-2.1,2.4-4.1,4.7-6.2,7.1c-0.2,0.3-0.5,0.6-0.7,0.8
				c-0.3,0.3-0.3,0.7-0.1,1c0.3,0.4,0.5,0.9,0.8,1.3c17.4,26.1,34.8,52.3,52.2,78.4c0.7,1,1.5,2,2.4,2.8
				c9.1,7.7,18.1,15.5,27.2,23.3c9.6,8.2,19.2,16.4,28.8,24.7c6.6,5.6,13.1,11.3,19.7,16.9c5.6,4.8,11.2,9.5,16.7,14.3
				c0.3,0.2,0.5,0.5,0.8,0.7c0.7,0.5,0.8,1.1,0.6,1.9c-0.6,2.2-1.1,4.5-1.7,6.8c-3.7,14.9-7.5,29.7-11.1,44.6
				c-0.4,1.5-1,2.4-2.3,3.2c-11.2,6.7-22.5,13.4-33.7,20.2c-10.3,6.2-20.7,12.4-31,18.6c-1.8,1.1-1.7,0.7-1.7,2.9
				c0,11.3,0,22.7,0,34c0,0.5,0,1,0,1.5c0,0.5,0.2,1.1-0.3,1.4c-0.6,0.4-1.1-0.2-1.5-0.5c-7.7-4.8-15.1-9.9-22.2-15.4
				c-3.4-2.6-6.7-5.4-10-8c-0.4-0.3-0.8-0.7-1.2-1c-1-0.7-1.5-1.7-1.7-2.9c-0.6-3.8-1.2-7.6-1.9-11.4c-0.7-4.1-1.4-8.2-2.1-12.2
				c-0.1-0.8-0.4-1.5-0.7-2.3c-8.7-21.6-17.3-43.3-26-65c-0.5-1.3-1.2-2.5-2-3.6c-12.8-17.1-25.7-34.2-38.5-51.3
				c-0.7-1-1.3-2-1.7-3.3c-4.3-15.2-8.6-30.3-13-45.5c-3.6-12.4-7.1-24.9-10.7-37.3c-0.6-2.1-1.2-4.2-1.8-6.3
				c-0.2-0.8-0.3-1.7-0.2-2.6c1.6-19.4,5.3-38.4,10.8-57c5.4-18.2,12.6-35.6,21.5-52.3c8.6-16.1,18.7-31.3,30.2-45.6
				c8.9-11,18.6-21.3,28.9-30.8c13.4-12.4,28-23.4,43.6-33c8.4-5.2,17-9.9,25.8-14.2C476.2,346.1,476.6,346,477.1,345.8z"/>
		</g>
	</g>
</g>
</svg>
