<?xml version="1.0" encoding="utf-8"?>
<!-- Generator: Adobe Illustrator 24.2.1, SVG Export Plug-In . SVG Version: 6.00 Build 0)  -->
<svg version="1.1" id="Layer_1" xmlns="http://www.w3.org/2000/svg" xmlns:xlink="http://www.w3.org/1999/xlink" x="0px" y="0px"
	 viewBox="0 0 1200 1200" style="enable-background:new 0 0 1200 1200;" xml:space="preserve">
<style type="text/css">
	.st0{fill:#F2F2F2;}
	.st1{fill:#4FAF4E;}
	.st2{fill:#BC9066;}
	.st3{fill:#A87E5D;}
	.st4{fill:#F2E3D7;}
	.st5{fill:#FBF7F2;}
	.st6{fill:#B7A89E;}
	.st7{fill:#9B8D84;}
	.st8{fill:none;}
	.st9{fill:#FFFFFF;}
	.st10{fill:#E5E5E5;}
	.st11{fill:#EA7156;}
	.st12{fill:#C95D4B;}
	.st13{fill:#249CA8;}
	.st14{fill:#4D4753;}
	.st15{fill:#1F858C;}
	.st16{fill:#39363D;}
	.st17{fill:#BC5342;}
	.st18{fill:#E67354;}
	.st19{fill:#55A3E4;}
	.st20{fill:#56D78A;}
	.st21{fill:#AAD5EE;}
	.st22{fill:#B2D9EA;}
	.st23{fill:#C9E3E5;}
	.st24{fill:#DDEDE0;}
	.st25{fill:#EFF3DA;}
	.st26{fill:#F8F8D8;}
	.st27{fill:#FAF9D7;}
	.st28{fill:#E5CB47;}
	.st29{fill:#43150D;}
	.st30{fill:#D0C647;}
	.st31{fill:#C74529;}
	.st32{fill:#682617;}
	.st33{fill:#F3F3F3;}
	.st34{fill:#D7DEDB;}
	.st35{fill:#D7D7D7;}
	.st36{fill:#DCDBDA;}
	.st37{fill:#F3EAE7;}
	.st38{fill:#FCEEEB;}
	.st39{fill:#F6E4E4;}
	.st40{fill:#ECDCE0;}
	.st41{fill:#E2D3D8;}
	.st42{fill:#070405;}
	.st43{fill:#86593A;}
	.st44{fill:#EDB853;}
	.st45{fill:none;stroke:#714341;stroke-width:0;stroke-linecap:round;stroke-linejoin:round;}
	.st46{fill:#714341;}
	.st47{fill:#E4E1DC;}
	.st48{fill:#ECEFFF;}
	.st49{fill:#E6ECFF;}
	.st50{fill:#E3EEFF;}
	.st51{fill:#DDECFF;}
	.st52{fill:#DBEFFF;}
	.st53{fill:#DAEFFF;}
	.st54{fill:#1D2B45;}
	.st55{fill:#A5A0B1;}
	.st56{fill:#7383A7;}
	.st57{fill:#77A9B0;}
	.st58{fill:#537E87;}
	.st59{fill:#AED5DE;}
	.st60{fill:#91BFC9;}
	.st61{fill:#B2D5DF;}
	.st62{fill:#79AFB8;}
	.st63{fill:#96CCD9;}
	.st64{fill:#C18C40;}
	.st65{fill:#DDDAD9;}
	.st66{fill:#8E8E8E;}
	.st67{fill:#DEAD94;}
	.st68{fill:#D9A48C;}
	.st69{fill:#D89B87;}
	.st70{fill:#D49380;}
	.st71{fill:#D18C7D;}
	.st72{fill:#D08779;}
	.st73{fill:#354A73;}
	.st74{fill:#637492;}
	.st75{fill:#26365B;}
	.st76{fill:#192547;}
	.st77{fill:#0C1430;}
	.st78{fill:#FBDCC0;}
	.st79{fill:#737378;}
	.st80{fill:#A7A8AD;}
	.st81{fill:#8A8B8F;}
	.st82{fill:#CDCED4;}
	.st83{fill:#4D93C6;}
	.st84{fill:#847872;}
</style>
<g>
	<g>
		<rect y="0" class="st67" width="1200" height="132.7"/>
		<rect y="133" class="st68" width="1200" height="132.7"/>
		<rect y="266" class="st69" width="1200" height="132.7"/>
		<rect y="399" class="st70" width="1200" height="132.7"/>
		<rect y="532" class="st71" width="1200" height="132.7"/>
		<rect y="664.9" class="st72" width="1200" height="105.4"/>
		<rect y="865.8" class="st73" width="1200" height="59.6"/>
		<polygon class="st74" points="0,797.7 0,797.9 0,865.8 1200,865.8 1200,797.9 1200,797.7 1200,770.3 0,770.3 		"/>
		<polygon class="st75" points="0,930.6 0,930.9 0,961.2 0,988.5 1200,988.5 1200,961.2 1200,930.9 1200,930.6 1200,925.4 0,925.4 
					"/>
		<polygon class="st76" points="0,1063.6 0,1083.9 1200,1083.9 1200,1063.6 1200,988.5 0,988.5 		"/>
		<polygon class="st77" points="0,1116.3 0,1179.4 0,1200 1200,1200 1200,1179.4 1200,1116.3 1200,1083.9 0,1083.9 		"/>
	</g>
	<circle class="st9" cx="600" cy="265.8" r="68.2"/>
	<g>
		<polygon class="st77" points="736.4,606.7 395.5,688.5 95.5,633.9 95.7,633.9 0,616.5 0,770.3 1200,770.3 1200,597 1009.1,497.6 
					"/>
		<polygon class="st74" points="1090.9,374.8 1077.3,443 1009.1,497.6 1200,597 1200,382.5 		"/>
		<polygon class="st78" points="395.5,688.5 736.4,606.7 1009.1,497.6 1077.3,443 1090.9,374.8 518.2,606.7 95.7,633.9 95.5,633.9 
					"/>
	</g>
	<g>
		<path class="st79" d="M263.3,924.5c-0.1,0.1-0.2,0.2-0.3,0.3C263.1,924.7,263.2,924.6,263.3,924.5z"/>
		<path class="st79" d="M263.7,924c-0.1,0.1-0.2,0.3-0.3,0.4C263.5,924.3,263.6,924.2,263.7,924z"/>
		<path class="st79" d="M260.6,925.3c0.2,0,0.4,0.1,0.6,0.1c0.2,0,0.4,0,0.6-0.1c-0.2,0-0.4,0.1-0.5,0.1
			C261,925.4,260.8,925.3,260.6,925.3z"/>
		<path class="st79" d="M258.6,923.9c-0.1-0.1-0.1-0.2-0.1-0.3C258.5,923.7,258.5,923.8,258.6,923.9z"/>
		<path class="st79" d="M258.3,923.4c0-0.1-0.1-0.2-0.1-0.3C258.3,923.2,258.3,923.3,258.3,923.4z"/>
		<path class="st79" d="M259.4,924.8c-0.1-0.1-0.2-0.1-0.2-0.2C259.2,924.6,259.3,924.7,259.4,924.8z"/>
		<path class="st79" d="M259,924.4c-0.1-0.1-0.1-0.2-0.2-0.2C258.8,924.2,258.9,924.3,259,924.4z"/>
		<path class="st79" d="M262.9,924.9c-0.1,0.1-0.3,0.2-0.5,0.3C262.6,925,262.7,925,262.9,924.9z"/>
		<path class="st79" d="M258.2,922.8c0-0.1,0-0.2,0-0.3C258.1,922.6,258.2,922.7,258.2,922.8z"/>
		<path class="st79" d="M259.8,925c0,0,0.1,0,0.1,0.1c-0.1,0-0.2-0.1-0.3-0.1C259.7,925,259.8,925,259.8,925z"/>
		<path class="st79" d="M289.5,859c0.1-0.1,0.1-0.2,0.2-0.3C289.6,858.8,289.5,858.9,289.5,859z"/>
		<path class="st79" d="M262.3,925.1c-0.1,0.1-0.3,0.1-0.4,0.1C262.1,925.2,262.2,925.2,262.3,925.1z"/>
		<path class="st79" d="M260.6,925.3c-0.2,0-0.3-0.1-0.5-0.2C260.2,925.2,260.4,925.2,260.6,925.3z"/>
		<path class="st79" d="M290,863c-1.1-1-1.4-2.5-0.7-3.8c0,0,0,0,0,0.1l-25,49.9v13c0,0.6-0.2,1.2-0.5,1.7c0.1-0.1,0.1-0.2,0.2-0.3
			l30.6-61.3l-0.2,0.3C293.2,864,291.3,864.1,290,863z"/>
		<polygon class="st80" points="677,891.5 677,886.3 659.2,862.6 485.7,660.2 538.4,922.3 677,922.3 703.9,922.3 680.8,891.5 		"/>
		<polygon class="st80" points="704.7,891.5 688.5,891.5 704.7,913 		"/>
		<rect x="710.9" y="891.5" class="st80" width="166.3" height="30.8"/>
		<polygon class="st80" points="483.6,657.7 482.5,656.4 307.4,860.7 307.4,922.3 415.2,922.3 		"/>
		<path class="st81" d="M677,876.1l11.5,15.4h16.2v0c0-1.7,1.4-3.1,3.1-3.1s3.1,1.4,3.1,3.1v0h166.3v-30.8H677V876.1z"/>
		<polygon class="st81" points="680.8,891.5 677,886.3 677,891.5 		"/>
		<polygon class="st80" points="677,860.7 665.4,860.7 677,876.1 		"/>
		<polygon class="st78" points="485.7,660.2 483.6,657.7 415.2,922.3 476.8,922.3 538.4,922.3 		"/>
		<polygon class="st81" points="476.8,649.8 296.1,860.7 307.4,860.7 482.5,656.4 		"/>
		<path class="st79" d="M708.9,925.1c-0.1,0-0.2,0.1-0.4,0.1C708.7,925.2,708.8,925.2,708.9,925.1z"/>
		<path class="st79" d="M710.2,924.2c-0.1,0.1-0.1,0.2-0.2,0.2C710.1,924.3,710.2,924.2,710.2,924.2z"/>
		<path class="st79" d="M707.8,925.4c-0.2,0-0.4,0-0.6-0.1C707.4,925.3,707.6,925.4,707.8,925.4z"/>
		<path class="st79" d="M707.8,925.4c0.2,0,0.4,0,0.6-0.1C708.2,925.3,708,925.4,707.8,925.4C707.8,925.4,707.8,925.4,707.8,925.4z"
			/>
		<path class="st79" d="M709.6,924.7c0.1,0,0.1-0.1,0.1-0.1C709.7,924.7,709.7,924.7,709.6,924.7
			C709.6,924.8,709.6,924.8,709.6,924.7z"/>
		<path class="st79" d="M710.9,922.5c0,0.1,0,0.2,0,0.3C710.8,922.7,710.9,922.6,710.9,922.5z"/>
		<path class="st79" d="M710.5,923.6c0,0.1-0.1,0.2-0.1,0.3C710.5,923.8,710.5,923.7,710.5,923.6z"/>
		<path class="st79" d="M710.8,923.1c0,0.1-0.1,0.2-0.1,0.3C710.7,923.3,710.7,923.2,710.8,923.1z"/>
		<path class="st79" d="M709.4,924.9c-0.1,0.1-0.2,0.1-0.3,0.2C709.2,925,709.3,925,709.4,924.9z"/>
		<path class="st79" d="M707.1,925.3c-0.2,0-0.3-0.1-0.5-0.2C706.8,925.2,707,925.2,707.1,925.3z"/>
		<path class="st79" d="M706,924.8c-0.1-0.1-0.3-0.2-0.4-0.3C705.8,924.6,705.9,924.7,706,924.8z"/>
		<path class="st79" d="M706.6,925.1c-0.2-0.1-0.3-0.2-0.5-0.2C706.2,924.9,706.4,925,706.6,925.1z"/>
		<path class="st79" d="M704.7,913l-16.2-21.6L677,876.1l-11.6-15.4l-1.4-1.8c0,0,0,0-0.1-0.1c1,1.3,0.9,3.2-0.4,4.3
			c-0.6,0.5-1.3,0.7-2,0.7c-0.9,0-1.7-0.4-2.3-1.1l-0.1-0.1l17.8,23.7l3.8,5.1l23.1,30.8l1.4,1.8c0.1,0.1,0.2,0.2,0.3,0.3
			c-0.5-0.6-0.9-1.3-0.9-2.2V913z"/>
		<path class="st79" d="M935.7,913l-40.7-54.2c0,0,0,0-0.1-0.1c1,1.3,0.9,3.2-0.4,4.3c-0.6,0.5-1.3,0.7-2,0.7
			c-0.9,0-1.7-0.4-2.3-1.1l-0.1-0.1l46.1,61.5c0.1,0.1,0.2,0.2,0.3,0.3c-0.5-0.6-0.9-1.3-0.9-2.2V913z"/>
		<path class="st79" d="M938.8,925.4c-0.2,0-0.4,0-0.6-0.1C938.4,925.3,938.6,925.4,938.8,925.4z"/>
		<path class="st79" d="M938.1,925.3c-0.2,0-0.3-0.1-0.5-0.2C937.8,925.2,938,925.2,938.1,925.3z"/>
		<path class="st79" d="M937.5,925.1c-0.2-0.1-0.3-0.2-0.5-0.2C937.2,924.9,937.4,925,937.5,925.1z"/>
		<path class="st79" d="M937,924.8c-0.1-0.1-0.3-0.2-0.4-0.3C936.8,924.6,936.9,924.7,937,924.8z"/>
		<path class="st79" d="M941.2,924.2c-0.1,0.1-0.1,0.2-0.2,0.2C941.1,924.3,941.2,924.2,941.2,924.2z"/>
		<path class="st79" d="M940.4,924.9c-0.1,0.1-0.2,0.1-0.3,0.2C940.2,925,940.3,925,940.4,924.9z"/>
		<path class="st79" d="M940.6,924.7c0.1,0,0.1-0.1,0.1-0.1C940.7,924.7,940.6,924.7,940.6,924.7
			C940.6,924.8,940.6,924.8,940.6,924.7z"/>
		<path class="st79" d="M941.5,923.6c0,0.1-0.1,0.2-0.1,0.3C941.5,923.8,941.5,923.7,941.5,923.6z"/>
		<path class="st79" d="M941.8,923.1c0,0.1-0.1,0.2-0.1,0.3C941.7,923.3,941.7,923.2,941.8,923.1z"/>
		<path class="st79" d="M941.9,922.5c0,0.1,0,0.2,0,0.3C941.8,922.7,941.8,922.6,941.9,922.5z"/>
		<path class="st79" d="M939.9,925.1c-0.1,0-0.2,0.1-0.4,0.1C939.7,925.2,939.8,925.2,939.9,925.1z"/>
		<path class="st79" d="M938.8,925.4c0.2,0,0.4,0,0.6-0.1C939.2,925.3,939,925.4,938.8,925.4C938.8,925.4,938.8,925.4,938.8,925.4z"
			/>
		<path class="st9" d="M710.9,891.5c0-1.7-1.4-3.1-3.1-3.1s-3.1,1.4-3.1,3.1v0V913v9.2c0,0.8,0.3,1.6,0.9,2.2c0,0,0,0,0.1,0
			c0.1,0.1,0.2,0.2,0.4,0.3c0,0,0,0,0.1,0c0.1,0.1,0.3,0.2,0.5,0.2c0,0,0.1,0,0.1,0c0.2,0.1,0.3,0.1,0.5,0.2c0,0,0.1,0,0.1,0
			c0.2,0,0.4,0.1,0.6,0.1c0,0,0,0,0,0c0,0,0,0,0,0c0.2,0,0.4,0,0.6-0.1c0.1,0,0.1,0,0.2,0c0.1,0,0.2-0.1,0.4-0.1
			c0.1,0,0.1-0.1,0.2-0.1c0.1,0,0.2-0.1,0.3-0.2c0.1,0,0.1-0.1,0.2-0.1c0.1-0.1,0.1-0.1,0.2-0.2c0.1-0.1,0.2-0.1,0.2-0.2
			c0.1-0.1,0.1-0.1,0.2-0.2c0.1-0.1,0.1-0.2,0.2-0.2c0.1-0.1,0.1-0.2,0.1-0.3c0-0.1,0.1-0.2,0.1-0.3c0-0.1,0.1-0.2,0.1-0.3
			c0-0.1,0.1-0.2,0.1-0.3c0-0.1,0-0.2,0-0.3c0-0.1,0-0.1,0-0.2V891.5L710.9,891.5z"/>
		<path class="st9" d="M938.8,888.4c-1.7,0-3.1,1.4-3.1,3.1V913v9.2c0,0.8,0.3,1.6,0.9,2.2c0,0,0,0,0.1,0c0.1,0.1,0.2,0.2,0.4,0.3
			c0,0,0,0,0.1,0c0.1,0.1,0.3,0.2,0.5,0.2c0,0,0.1,0,0.1,0c0.2,0.1,0.3,0.1,0.5,0.2c0,0,0.1,0,0.1,0c0.2,0,0.4,0.1,0.6,0.1
			c0,0,0,0,0,0c0,0,0,0,0,0c0.2,0,0.4,0,0.6-0.1c0.1,0,0.1,0,0.2,0c0.1,0,0.2-0.1,0.4-0.1c0.1,0,0.1-0.1,0.2-0.1
			c0.1,0,0.2-0.1,0.3-0.2c0.1,0,0.1-0.1,0.2-0.1c0.1-0.1,0.1-0.1,0.2-0.2c0.1-0.1,0.2-0.1,0.2-0.2c0.1-0.1,0.1-0.1,0.2-0.2
			c0.1-0.1,0.1-0.2,0.2-0.2c0.1-0.1,0.1-0.2,0.1-0.3c0-0.1,0.1-0.2,0.1-0.3c0-0.1,0.1-0.2,0.1-0.3c0-0.1,0.1-0.2,0.1-0.3
			c0-0.1,0-0.2,0-0.3c0-0.1,0-0.1,0-0.2v-30.8C941.9,889.8,940.5,888.4,938.8,888.4z"/>
		<path class="st82" d="M892.6,863.8c0.7,0,1.4-0.2,2-0.7c1.3-1.1,1.4-3,0.4-4.3c0,0,0-0.1-0.1-0.1L710.1,643.1
			c-1.1-1.3-3.1-1.4-4.3-0.3c-0.7,0.6-1.1,1.5-1.1,2.3H492.2h-11.3l-1.7-2c-0.6-0.7-1.4-1.1-2.3-1.1s-1.8,0.4-2.3,1.1L289.7,858.7
			c0,0,0,0,0,0c-0.1,0.1-0.1,0.2-0.2,0.3c-0.1,0.1-0.1,0.2-0.2,0.3c-0.7,1.2-0.4,2.8,0.7,3.8c1.3,1.1,3.2,1,4.3-0.3l0.2-0.3l1.5-1.7
			l180.7-210.9l5.7,6.6l1.1,1.3l2.2,2.5l173.5,202.4l0.1,0.1c0.6,0.7,1.5,1.1,2.3,1.1c0.7,0,1.4-0.2,2-0.7c1.3-1.1,1.4-3,0.4-4.3
			c0,0,0,0,0.1,0.1l1.4,1.8H677h200.2h11.3l1.7,1.9l0.1,0.1C890.9,863.4,891.7,863.8,892.6,863.8z M652.2,738.6
			c-3.2-2.2-6.1-4.4-8.7-6.9c-6.8-6.6-7.3-11.9-5.5-14.1c1.3-1.6,3.7-2.2,7.1-1.9c4,0.4,8.3,1.9,12.9,4.3c1.1,0.6,2.1,1.1,3.2,1.7
			c0.1,0.1,0.3,0.2,0.4,0.3c-0.1-0.1-0.1-0.1-0.2-0.2c0.2-0.6,0.5-1.2,0.7-1.9c0.6-2.2,2.3-3.7,5.4-4.2c4.8-0.6,10.5,1.1,16.9,5.1
			c3.3,2,6.1,4.3,8.4,6.8c1.9,2.1,3.3,4.1,4.2,6.1c1.3,2.9,1.8,5.4,1.8,7.9c0,3.3-0.7,6.2-1.8,9c-1.2,3.1-2.9,5.8-4.8,8.5
			c-0.1,0.1-0.1,0.1-0.4,0c-8.4-3.6-16.8-7.4-25.1-11.8C661.9,744.6,656.9,741.8,652.2,738.6z M684.5,792.4L674,779.6h69.9
			l10.5,12.8H684.5z"/>
		<path class="st9" d="M264.3,909.2v-17.8c0-1.7-1.4-3.1-3.1-3.1c-1.7,0-3.1,1.4-3.1,3.1v30.8c0,0.1,0,0.1,0,0.2c0,0.1,0,0.2,0,0.3
			c0,0.1,0,0.2,0.1,0.3c0,0.1,0.1,0.2,0.1,0.3c0,0.1,0.1,0.2,0.1,0.3c0,0.1,0.1,0.2,0.1,0.3c0.1,0.1,0.1,0.2,0.2,0.2
			c0.1,0.1,0.1,0.2,0.2,0.2c0.1,0.1,0.1,0.1,0.2,0.2c0.1,0.1,0.1,0.1,0.2,0.2c0.1,0.1,0.2,0.1,0.3,0.2c0.1,0.1,0.2,0.1,0.3,0.1
			c0,0,0.1,0,0.1,0.1c0.2,0.1,0.3,0.1,0.5,0.2c0,0,0,0,0.1,0c0.2,0,0.4,0.1,0.6,0.1c0.2,0,0.4,0,0.5-0.1c0.1,0,0.1,0,0.1,0
			c0.2,0,0.3-0.1,0.4-0.1c0,0,0,0,0.1,0c0.2-0.1,0.3-0.2,0.5-0.3c0,0,0.1-0.1,0.1-0.1c0.1-0.1,0.2-0.2,0.3-0.3c0,0,0.1-0.1,0.1-0.1
			c0.1-0.1,0.2-0.3,0.3-0.4c0,0,0-0.1,0-0.1c0.3-0.5,0.5-1,0.5-1.7V909.2z"/>
		<path class="st83" d="M692.3,759c1.9-2.7,3.5-5.5,4.8-8.5c1.1-2.7,1.8-5.6,1.8-9c0-2.4-0.5-5-1.8-7.9c-0.9-2-2.3-4-4.2-6.1
			c-2.3-2.5-5.1-4.8-8.4-6.8c-6.4-4-12.1-5.7-16.9-5.1c-3.1,0.4-4.7,1.9-5.4,4.2c-0.2,0.6-0.5,1.2-0.7,1.9c0.1,0.1,0.1,0.1,0.2,0.2
			c-0.1-0.1-0.3-0.2-0.4-0.3c-1.1-0.6-2.1-1.2-3.2-1.7c-4.6-2.4-8.9-3.9-12.9-4.3c-3.4-0.3-5.8,0.3-7.1,1.9
			c-1.9,2.3-1.4,7.6,5.5,14.1c2.6,2.5,5.5,4.7,8.7,6.9c4.7,3.2,9.6,6,14.7,8.7c8.3,4.4,16.7,8.1,25.1,11.8
			C692.2,759.1,692.3,759.1,692.3,759z"/>
		<polygon class="st83" points="674,779.6 684.5,792.4 754.4,792.4 743.9,779.6 		"/>
	</g>
</g>
</svg>
