<?xml version="1.0" encoding="utf-8"?>
<!-- Generator: Adobe Illustrator 24.2.1, SVG Export Plug-In . SVG Version: 6.00 Build 0)  -->
<svg version="1.1" id="Layer_1" xmlns="http://www.w3.org/2000/svg" xmlns:xlink="http://www.w3.org/1999/xlink" x="0px" y="0px"
	 viewBox="0 0 1200 1200" style="enable-background:new 0 0 1200 1200;" xml:space="preserve">
<style type="text/css">
	.st0{fill:#F2F2F2;}
	.st1{fill:#4FAF4E;}
	.st2{fill:#BC9066;}
	.st3{fill:#A87E5D;}
	.st4{fill:#F3DECD;}
	.st5{fill:#E8CBAA;}
	.st6{fill:#5F5F5F;}
	.st7{fill:#E0B88E;}
	.st8{fill:#FBF7F2;}
	.st9{fill:#E4E4E3;}
	.st10{fill:#D1D1D1;}
	.st11{fill:#E9AA99;}
	.st12{fill:#BA7C6E;}
	.st13{fill:#5FBC92;}
	.st14{fill:#F0F0F0;}
	.st15{fill:#39363D;}
	.st16{fill:#4D4753;}
	.st17{fill:#5FA483;}
	.st18{fill:#FDFDFB;}
	.st19{fill:#A8A9A8;}
	.st20{fill:#D2E0E8;}
	.st21{fill:#C5CFD6;}
	.st22{fill:#E67354;}
	.st23{fill:#55A3E4;}
	.st24{fill:#56D78A;}
	.st25{fill:#AAD5EE;}
	.st26{fill:#B2D9EA;}
	.st27{fill:#C9E3E5;}
	.st28{fill:#DDEDE0;}
	.st29{fill:#EFF3DA;}
	.st30{fill:#F8F8D8;}
	.st31{fill:#FAF9D7;}
	.st32{fill:#E5CB47;}
	.st33{fill:#43150D;}
	.st34{fill:#D0C647;}
	.st35{fill:#C74529;}
	.st36{fill:#682617;}
	.st37{fill:#F3F3F3;}
	.st38{fill:#D7DEDB;}
	.st39{fill:#D7D7D7;}
	.st40{fill:#DCDBDA;}
	.st41{fill:#F3EAE7;}
	.st42{fill:#FCEEEB;}
	.st43{fill:#F6E4E4;}
	.st44{fill:#ECDCE0;}
	.st45{fill:#E2D3D8;}
	.st46{fill:#070405;}
	.st47{fill:#86593A;}
	.st48{fill:#EDB853;}
	.st49{fill:none;stroke:#714341;stroke-width:0;stroke-linecap:round;stroke-linejoin:round;}
	.st50{fill:#714341;}
	.st51{fill:#E4E1DC;}
	.st52{fill:#ECEFFF;}
	.st53{fill:#E6ECFF;}
	.st54{fill:#E3EEFF;}
	.st55{fill:#DDECFF;}
	.st56{fill:#DBEFFF;}
	.st57{fill:#DAEFFF;}
	.st58{fill:#1D2B45;}
	.st59{fill:#A5A0B1;}
	.st60{fill:#7383A7;}
	.st61{fill:#77A9B0;}
	.st62{fill:#537E87;}
	.st63{fill:#AED5DE;}
	.st64{fill:#91BFC9;}
	.st65{fill:#B2D5DF;}
	.st66{fill:#79AFB8;}
	.st67{fill:#96CCD9;}
	.st68{fill:#C18C40;}
	.st69{fill:#DDDAD9;}
	.st70{fill:#8E8E8E;}
	.st71{fill:#DEAD94;}
	.st72{fill:#D9A48C;}
	.st73{fill:#D89B87;}
	.st74{fill:#D49380;}
	.st75{fill:#D18C7D;}
	.st76{fill:#D08779;}
	.st77{fill:#354A73;}
	.st78{fill:#637492;}
	.st79{fill:#26365B;}
	.st80{fill:#192547;}
	.st81{fill:#0C1430;}
	.st82{fill:#FFFFFF;}
	.st83{fill:#737378;}
	.st84{fill:#A7A8AD;}
	.st85{fill:#8A8B8F;}
	.st86{fill:#FBDCC0;}
	.st87{fill:#CDCED4;}
	.st88{fill:#4D93C6;}
</style>
<g>
	<g>
		<rect y="0" class="st52" width="1200" height="132.9"/>
		<rect y="133.2" class="st53" width="1200" height="132.9"/>
		<rect y="266.4" class="st54" width="1200" height="132.9"/>
		<rect y="399.5" class="st55" width="1200" height="132.9"/>
		<rect y="532.7" class="st56" width="1200" height="132.9"/>
		<rect y="665.9" class="st57" width="1200" height="132.9"/>
		<rect y="799.1" class="st53" width="1200" height="50.3"/>
		<rect y="849.3" class="st58" width="1200" height="44.7"/>
		<polygon class="st59" points="0,926.1 0,932 0,932.2 0,943.8 1200,943.8 1200,932.2 1200,932 1200,926.1 1200,894 0,894 		"/>
		<polygon class="st60" points="0,970.7 0,1024.7 0,1065.1 0,1101.4 0,1123.3 0,1178.1 0,1200 1200,1200 1200,1178.1 1200,1123.3 
			1200,1101.4 1200,1065.1 1200,1024.7 1200,970.7 1200,943.8 0,943.8 		"/>
	</g>
	<g>
		<polygon class="st61" points="641.7,561.4 641.7,623.2 657.1,715.9 662.3,736.5 672.6,685 672.6,654.1 672.6,592.3 688,576.8 
			684.8,560.6 672.6,576.8 		"/>
		<polygon class="st61" points="595.3,453.2 626.2,484.1 641.7,530.5 641.7,561.4 675.8,515.9 672.6,499.6 641.7,453.2 626.2,406.9 
			626.2,422.4 610.8,437.8 595.3,437.8 579.9,422.4 579.9,406.9 573.7,425.4 579.9,437.8 		"/>
		<polygon class="st62" points="662.3,736.5 657.1,715.9 641.7,623.2 641.7,685 533.6,777.6 672.6,777.6 		"/>
		<polygon class="st63" points="641.7,623.2 641.7,561.4 641.7,530.5 626.2,484.1 595.3,453.2 579.9,437.8 573.7,425.4 564.5,406.9 
			549,453.2 549,576.8 533.6,777.6 641.7,685 		"/>
		<polygon class="st64" points="672.6,576.8 684.8,560.6 718.9,515 688,499.6 675.8,515.9 641.7,561.4 		"/>
		<polygon class="st65" points="595.3,437.8 610.8,437.8 626.2,422.4 626.2,406.9 579.9,406.9 579.9,422.4 		"/>
		<polygon class="st66" points="641.7,391.5 641.7,376 626.2,391.5 610.8,376 595.3,376 579.9,391.5 564.5,376 564.5,391.5 
			579.9,406.9 626.2,406.9 		"/>
		<polygon class="st67" points="549,329.7 549,314.2 549,298.8 518.1,283.3 518.1,314.2 533.6,329.7 549,453.2 564.5,406.9 		"/>
		<polygon class="st68" points="541.3,283.3 525.8,252.4 518.1,275.6 518.1,283.3 549,298.8 		"/>
		<path class="st69" d="M672.6,777.6h-139h-64.9v169.9H685V777.6H672.6z M545.9,870.3H515v-61.8h30.9V870.3z M592.3,870.3h-30.9
			v-61.8h30.9V870.3z M638.6,870.3h-30.9v-61.8h30.9V870.3z"/>
		<rect x="685" y="777.6" class="st70" width="46.3" height="169.9"/>
		<rect x="515" y="808.5" class="st70" width="30.9" height="61.8"/>
		<rect x="561.4" y="808.5" class="st70" width="30.9" height="61.8"/>
		<rect x="607.7" y="808.5" class="st70" width="30.9" height="61.8"/>
	</g>
</g>
</svg>
