<?xml version="1.0" encoding="utf-8"?>
<!-- Generator: Adobe Illustrator 24.2.1, SVG Export Plug-In . SVG Version: 6.00 Build 0)  -->
<svg version="1.1" id="Layer_1" xmlns="http://www.w3.org/2000/svg" xmlns:xlink="http://www.w3.org/1999/xlink" x="0px" y="0px"
	 viewBox="0 0 1200 1200" style="enable-background:new 0 0 1200 1200;" xml:space="preserve">
<style type="text/css">
	.st0{fill:#F2F2F2;}
	.st1{fill:#4FAF4E;}
	.st2{fill:#BC9066;}
	.st3{fill:#A87E5D;}
	.st4{fill:#F3DECD;}
	.st5{fill:#E8CBAA;}
	.st6{fill:#5F5F5F;}
	.st7{fill:#E0B88E;}
	.st8{fill:#FBF7F2;}
	.st9{fill:#E4E4E3;}
	.st10{fill:#D1D1D1;}
	.st11{fill:#E9AA99;}
	.st12{fill:#BA7C6E;}
	.st13{fill:#5FBC92;}
	.st14{fill:#F0F0F0;}
	.st15{fill:#39363D;}
	.st16{fill:#4D4753;}
	.st17{fill:#5FA483;}
	.st18{fill:#FDFDFB;}
	.st19{fill:#A8A9A8;}
	.st20{fill:#D2E0E8;}
	.st21{fill:#C5CFD6;}
	.st22{fill:#E67354;}
	.st23{fill:#55A3E4;}
	.st24{fill:#56D78A;}
	.st25{fill:#AAD5EE;}
	.st26{fill:#B2D9EA;}
	.st27{fill:#C9E3E5;}
	.st28{fill:#DDEDE0;}
	.st29{fill:#EFF3DA;}
	.st30{fill:#F8F8D8;}
	.st31{fill:#FAF9D7;}
	.st32{fill:#E5CB47;}
	.st33{fill:#43150D;}
	.st34{fill:#D0C647;}
	.st35{fill:#C74529;}
	.st36{fill:#682617;}
	.st37{fill:#F3F3F3;}
	.st38{fill:#D7DEDB;}
	.st39{fill:#D7D7D7;}
	.st40{fill:#DCDBDA;}
	.st41{fill:#F3EAE7;}
	.st42{fill:#FCEEEB;}
	.st43{fill:#F6E4E4;}
	.st44{fill:#ECDCE0;}
	.st45{fill:#E2D3D8;}
	.st46{fill:#070405;}
	.st47{fill:#86593A;}
	.st48{fill:#EDB853;}
	.st49{fill:none;stroke:#714341;stroke-width:0;stroke-linecap:round;stroke-linejoin:round;}
	.st50{fill:#714341;}
	.st51{fill:#E4E1DC;}
	.st52{fill:#ECEFFF;}
	.st53{fill:#E6ECFF;}
	.st54{fill:#E3EEFF;}
	.st55{fill:#DDECFF;}
	.st56{fill:#DBEFFF;}
	.st57{fill:#DAEFFF;}
	.st58{fill:#1D2B45;}
	.st59{fill:#A5A0B1;}
	.st60{fill:#7383A7;}
	.st61{fill:#77A9B0;}
	.st62{fill:#537E87;}
	.st63{fill:#AED5DE;}
	.st64{fill:#91BFC9;}
	.st65{fill:#B2D5DF;}
	.st66{fill:#79AFB8;}
	.st67{fill:#96CCD9;}
	.st68{fill:#C18C40;}
	.st69{fill:#DDDAD9;}
	.st70{fill:#8E8E8E;}
	.st71{fill:#DEAD94;}
	.st72{fill:#D9A48C;}
	.st73{fill:#D89B87;}
	.st74{fill:#D49380;}
	.st75{fill:#D18C7D;}
	.st76{fill:#D08779;}
	.st77{fill:#354A73;}
	.st78{fill:#637492;}
	.st79{fill:#26365B;}
	.st80{fill:#192547;}
	.st81{fill:#0C1430;}
	.st82{fill:#FFFFFF;}
	.st83{fill:#737378;}
	.st84{fill:#A7A8AD;}
	.st85{fill:#8A8B8F;}
	.st86{fill:#FBDCC0;}
	.st87{fill:#CDCED4;}
	.st88{fill:#4D93C6;}
</style>
<g>
	<g>
		<rect y="1050.3" class="st38" width="1200" height="149.7"/>
		<rect y="900.2" class="st39" width="1200" height="149.7"/>
		<rect y="750.2" class="st40" width="1200" height="149.7"/>
		<rect y="600.2" class="st41" width="1200" height="149.7"/>
		<rect y="450.1" class="st42" width="1200" height="149.7"/>
		<rect y="300.1" class="st43" width="1200" height="149.7"/>
		<rect y="150" class="st44" width="1200" height="149.7"/>
		<rect y="0" class="st45" width="1200" height="149.7"/>
	</g>
	<g>
		<polygon class="st46" points="406.4,897 372.3,815.6 389.8,723.5 426.4,661.8 555.5,671.6 643.1,812.5 645.4,812.7 676,811.6 
			640.9,857 660.7,851 683.1,881.1 678.3,898.3 675.3,912.8 664.7,922.8 632.3,929.3 623.5,915.6 610.7,893.4 611.2,888.6 
			605.6,894.4 630.2,955.2 630.2,955.2 635,946.2 642,932.3 664.3,949.5 659.8,965 666.1,974.9 785.4,931 875.5,791.4 867.6,625.5 
			760.1,440.6 598.1,402.1 455.7,412.4 335.1,546.8 304,689.2 337.8,830.8 398.3,896.1 400.5,890.6 		"/>
		<polygon class="st47" points="406.3,1050.7 325.3,1067.9 259,1200 356.7,1200 399.8,1122.9 		"/>
		<polygon class="st47" points="727.9,1016.8 706.7,1098 730.4,1200 804.5,1200 870.8,1040.6 		"/>
		<polygon class="st47" points="471.4,1085 433.4,1087.3 434.4,1136.1 625.3,1136.1 670.7,1063 612.1,1064.2 670.7,1063 
			703.4,1010.4 665.9,982.2 659.7,995.8 654,998.1 647.6,998.9 628.9,976.4 627.8,959.9 630.2,955.2 630.2,955.2 605.6,894.4 
			611.2,888.6 613.4,867.1 626.4,861.4 640.9,857 676,811.6 645.4,812.7 643.1,812.5 555.5,671.6 426.4,661.8 389.8,723.5 
			372.3,815.6 406.4,897 420.7,931.2 426.6,945.1 461.7,958.8 481.5,953.8 570.8,931.5 605.6,894.4 557.2,972.4 488,991.9 
			475.3,1013.3 432.5,1045.1 433.4,1087.3 		"/>
		<polygon class="st46" points="488,991.9 557.2,972.4 605.6,894.4 570.8,931.5 481.5,953.8 484,954.4 475.3,1013.3 		"/>
		<polygon class="st48" points="406.4,897 400.5,890.6 398.3,896.1 394.6,905.2 393.9,920.2 388.5,934.9 406.3,957.6 412.4,955.6 
			417.4,953.4 420.8,936.3 420.7,931.2 		"/>
		<polygon class="st48" points="623.5,915.6 632.3,929.3 664.7,922.8 675.3,912.8 678.3,898.3 683.1,881.1 660.7,851 640.9,857 
			626.4,861.4 613.4,867.1 611.2,888.6 610.7,893.4 		"/>
		<polygon class="st48" points="664.3,949.5 642,932.3 635,946.2 630.2,955.2 627.8,959.9 628.9,976.4 647.6,998.9 654,998.1 
			659.7,995.8 665.9,982.2 667.9,977.8 666.1,974.9 659.8,965 		"/>
		<line class="st49" x1="612.1" y1="1064.2" x2="670.7" y2="1063"/>
		<line class="st49" x1="471.4" y1="1085" x2="433.4" y2="1087.3"/>
		<polygon class="st50" points="870.8,1040.6 804.5,1200 885.8,1200 940.9,1200 		"/>
		<polygon class="st51" points="727.9,1016.8 730.8,1005.6 706.9,1004.8 703.4,1010.4 670.7,1063 625.3,1136.1 434.4,1136.1 
			433.4,1087.3 432.5,1045.1 432.4,1041.3 407.2,1040.6 406.3,1050.7 399.8,1122.9 356.7,1200 413.8,1200 542.9,1200 570.6,1200 
			727.4,1200 730.4,1200 706.7,1098 		"/>
	</g>
</g>
</svg>
