<svg xmlns="http://www.w3.org/2000/svg" viewBox="0 0 354.393 105.966">
    <path fill="#9B9FA6" d="M286.032 62.084a62.417 62.417 0 016.364 1.2 20.929 20.929 0 0112.831 10.026 40.088 40.088 0 011.853 4.451c-.476.038-.711.073-.946.073-3.2 0-6.392 0-9.588.008-.437 0-.77-.022-.987-.52-2.141-4.905-6.123-7.037-11.281-7.219-4.851-.171-9.046 1.315-12.043 5.325-4.528 6.056-3.308 15.529 2.515 19.87 4.762 3.551 12.592 3.573 16.922.046a14.222 14.222 0 004.148-6.119 1.012 1.012 0 011.137-.769c3.471.031 6.942.015 10.549.015-.175.643-.311 1.216-.487 1.776-1.779 5.634-4.945 10.172-10.341 12.933a26.454 26.454 0 01-10.4 2.677 33.017 33.017 0 01-15.04-2.073 19.815 19.815 0 01-12.639-18.8 22.547 22.547 0 013.368-12.8c3.29-5.067 8.117-7.9 13.9-9.245 1.7-.394 3.444-.572 5.169-.85zM127.341 104.469h-2.2c-2.833 0-5.667-.013-8.5.011-.532 0-.839-.127-.919-.678-.191-1.307-.482-2.607-.578-3.921-.136-1.845-.023-3.711-.211-5.548-.3-2.909-1.987-4.481-4.911-4.662-1.772-.11-3.553-.085-5.33-.1-2.583-.013-5.167 0-7.751 0h-.96v14.836h-10.3V63.554c.32-.019.613-.052.907-.052 8.7 0 17.391-.057 26.086.034a27.621 27.621 0 016.825.826 10.44 10.44 0 017.777 9.346 10.729 10.729 0 01-6.155 11l-.784.4a3.59 3.59 0 00.415.227 6.694 6.694 0 014.529 6.1c.226 2.226.33 4.464.458 6.7a15.66 15.66 0 001.602 6.334zM96.027 81.216h13.613c.694 0 1.391.011 2.082-.041a4.538 4.538 0 004.029-2.778 4.417 4.417 0 00-.507-4.629 4.784 4.784 0 00-4.288-1.917c-4.723.018-9.447.005-14.17.008-.241 0-.483.031-.759.049zM213.02 104.427h-37.513V63.572h37.513v8.261h-27.164V79.5h23.955v8.279h-23.957v8.372h27.166zM354.393 104.432h-10.227V87.839h-21.094v16.569h-10.315V63.544h10.263v15.9h21.07V63.578h10.3zM81.737 104.469h-5.859c-1.5 0-3-.023-4.5.012a.937.937 0 01-1.012-.62c-1.143-2.4-2.338-4.766-3.482-7.161a1.014 1.014 0 00-1.081-.661q-8.337.03-16.672 0a1.088 1.088 0 00-1.16.786c-1.036 2.353-2.122 4.684-3.175 7.03-.169.374-.314.634-.819.63-3.445-.025-6.891-.013-10.337-.016a3.087 3.087 0 01-.388-.062c1.152-2.419 2.276-4.785 3.405-7.148q7.883-16.5 15.755-33.015a1.116 1.116 0 011.189-.755q3.958.05 7.919 0a1.013 1.013 0 011.075.676q9.378 19.74 18.777 39.471c.114.238.214.486.365.833zm-25.221-29.1l-5.051 12.296h10.608l-5.557-12.294zM0 63.5h.932q17.046 0 34.093-.018c.835 0 1.084.2 1.061 1.052-.064 2.4-.022 4.8-.022 7.311H10.322v7.624h23.546v8.337H10.282v16.614H0zM144.4 87.788v16.625h-10.28V63.558h35.971v8.279h-25.658v7.63h23.556v8.321zM242.956 104.431h-10.332V71.866H218.4v-8.372h38.628v8.341h-14.072zM81.762.033c12 0 20.09 7.038 21.566 17.125.774 5.29.367 10.439-2.165 15.216-3.85 7.261-10.076 10.734-18.242 10.534a19.392 19.392 0 01-18.914-16.365 24.325 24.325 0 011.767-15.435C69.381 3.766 75.491.255 81.762.033zM98.657 21.5a19.15 19.15 0 00-1.405-7.678C94.887 8.228 90.672 5 84.564 4.641c-6.022-.357-10.843 2.028-13.712 7.392a19.314 19.314 0 00-.228 18.492c4.677 9.351 17.829 10.649 24.342 2.537A18.015 18.015 0 0098.657 21.5zM112.537 28.284c.531 1.308.931 2.564 1.529 3.718a11.828 11.828 0 0011.917 6.461c2.66-.208 5.138-.843 7.067-2.831a6.8 6.8 0 00-1.094-10.232 17.761 17.761 0 00-6.62-2.243c-3.12-.621-6.3-1.017-9.235-2.358A10.688 10.688 0 01111.57 5.3a11.224 11.224 0 017.5-4.785c5.331-1.093 10.419-.57 14.978 2.674a14.086 14.086 0 014.932 6.458l-4.069 2.41c-.248-.511-.466-.977-.7-1.437a12.034 12.034 0 00-15.95-5.084A5.722 5.722 0 00114.916 11a5.15 5.15 0 003.422 5.171c2.288.849 4.715 1.328 7.08 1.974a68.781 68.781 0 017.163 2.009c4.989 1.964 7.33 5.465 7.281 10.516-.05 5.2-2.479 9-7.324 10.85-6.487 2.476-12.861 2.061-18.724-1.931a14.673 14.673 0 01-5.7-8.332c-.063-.214-.013-.633.123-.708 1.432-.795 2.894-1.536 4.3-2.265zM31.588 26.758v15.295h-4.919V.939a2.384 2.384 0 01.364-.062c6.243.006 12.489-.1 18.729.066a13.224 13.224 0 019.63 4.1 12.42 12.42 0 013.13 9.5C58.2 21.578 53.5 25.712 47.144 26.466a92.134 92.134 0 01-9.218.285c-2.067.037-4.135.007-6.338.007zm.048-21.371v16.778a4.893 4.893 0 00.6.075c3.889 0 7.779.024 11.668-.007a12.079 12.079 0 005.764-1.228c2.838-1.529 3.831-4.093 3.874-7.106a7.863 7.863 0 00-2.149-6.05A9.514 9.514 0 0044.465 5.4c-3.274-.035-6.548-.009-9.822-.009zM249.428 5.388v13.1h19.151V23h-19.131v14.591h20.939v4.461h-25.925V.931H270.2v4.457zM204.116.872c1.707 0 3.274-.034 4.837.034.246.011.58.439.691.741q3 8.156 5.941 16.33c2.183 6.081 4.333 12.175 6.5 18.263.036.1.075.2.142.379.7-2.046 1.353-4.026 2.062-5.985q5.211-14.416 10.444-28.828c.257-.714.561-1 1.353-.958 1.362.079 2.732.022 4.2.022-.721 1.944-1.4 3.793-2.092 5.64q-6.5 17.421-12.985 34.844c-.2.542-.427.8-1.054.768a36.068 36.068 0 00-3.778 0c-.735.043-1-.263-1.235-.888q-5.634-15.2-11.306-30.383c-1.22-3.281-2.446-6.564-3.72-9.979zM299.79.875c1.781 0 3.449-.017 5.117.023.194.005.446.294.561.51q5.169 9.659 10.312 19.33c.009.016.038.022.062.034.861-1.647 1.707-3.3 2.585-4.942 2.54-4.743 5.1-9.476 7.629-14.226a1.161 1.161 0 011.213-.751c1.481.053 2.965.017 4.61.017-.194.371-.334.651-.485.925q-6.312 11.375-12.611 22.756a3.251 3.251 0 00-.379 1.491c-.027 5.022-.016 10.044-.016 15.066v.947h-5.038v-.982c0-4.994.01-9.988-.017-14.982a3.241 3.241 0 00-.377-1.493q-6.344-11.455-12.733-22.886c-.131-.236-.248-.48-.433-.837zM158.007 5.438V.933h30.531v4.458h-12.681v36.655h-5.006V5.438zM283.107 37.564h20.935v4.483h-25.9V.937h4.962zM199.1.924v41.114h-4.955V.924zM147.5.92h4.926v41.132H147.5z"/>
</svg>
