<svg fill="none" xmlns="http://www.w3.org/2000/svg" viewBox="0 0 355 85">
  <g filter="url(#filter0_d)">
    <path d="M75.072 28.53c-1.557 1.582-2.05 3.541-1.849 5.705.297 3.181 2.87 5.645 6.115 5.785 2.196.055 4.09-.757 5.282-2.732 1.554-2.57 1.565-5.235-.096-7.77-2.098-3.191-6.813-3.665-9.452-.987z" fill="#fff"/>
    <path d="M31.659 40.205c-.686-.595-1.455-1.068-2.258-1.478-1.645-.842-3.42-1.367-5.12-2.076-1.04-.434-2.09-.856-2.96-1.602-.492-.423-.813-.934-.782-1.622.05-1.204.764-2.073 2.035-2.44 1.091-.315 2.188-.224 3.27.021 1.977.453 3.762 1.353 5.451 2.448.222.143.32.158.474-.094a178.126 178.126 0 012.19-3.51c.135-.212.12-.328-.088-.473-.882-.621-1.797-1.176-2.78-1.621-3.041-1.381-6.193-2.07-9.526-1.364-3.547.75-6.75 3.329-6.576 8.22.042 1.178.378 2.267 1.063 3.243.875 1.242 2.092 2.055 3.425 2.717 1.69.84 3.499 1.384 5.246 2.078.96.383 1.933.747 2.773 1.373.64.477 1.06 1.07 1.021 1.915-.059 1.241-.795 2.14-2.107 2.532-1.22.366-2.449.267-3.668.028-2.425-.473-4.546-1.584-6.45-3.125-.24-.194-.348-.2-.54.06-.865 1.192-1.75 2.365-2.63 3.542a.568.568 0 000 .079c.948.715 1.898 1.431 2.948 2.005 2.079 1.137 4.284 1.886 6.638 2.192.075.01.165-.013.201.084.718.033 1.435.065 2.152.1.046-.096.136-.061.208-.065.825-.02 1.644-.113 2.446-.3 2.163-.505 3.994-1.517 5.156-3.486.926-1.57 1.113-3.301 1.006-5.077-.115-1.752-.907-3.164-2.218-4.304zM53.523 39.182c-.172-.272-.183-.412.073-.649 3.408-3.184 6.803-6.381 10.201-9.576.1-.094.243-.159.278-.33-.044-.01-.078-.024-.115-.026-2.299-.107-4.598-.207-6.892-.324-.235-.014-.366.102-.512.238-2.045 1.978-4.087 3.955-6.132 5.93l-5.009 4.838c.012-.265.02-.421.03-.577.372-8.106.744-16.211 1.127-24.317.016-.363-.036-.5-.44-.512-1.662-.048-3.32-.13-4.983-.228-.35-.02-.442.058-.458.414-.59 13.014-1.187 26.03-1.797 39.043-.015.336.04.45.408.464 1.674.055 3.347.134 5.02.23.356.019.442-.072.454-.418.085-2.189.19-4.38.296-6.567.008-.166-.015-.333.134-.476a905.427 905.427 0 003.695-3.508c.15.085.198.23.278.35 2.304 3.614 4.608 7.232 6.901 10.853.143.227.3.32.568.331 2.085.084 4.172.188 6.257.28.112.004.236.057.35-.046l-.225-.37c-3.168-5.014-6.333-10.033-9.507-15.047zM91.36 32.432c-.28-3.139-1.528-5.836-3.959-7.855-3.813-3.166-8.143-3.793-12.734-2.036-7.632 2.922-9.844 12.984-4.183 18.867 3.037 3.155 6.804 4.24 11.085 3.61 5.527-.815 9.616-5.351 9.835-10.976-.001-.272.004-.683-.002-1.094-.002-.17-.025-.341-.041-.516zm-6.743 4.855c-1.194 1.976-3.087 2.788-5.283 2.733-3.244-.136-5.818-2.604-6.114-5.785-.203-2.164.291-4.126 1.848-5.704 2.64-2.678 7.354-2.204 9.449.99 1.664 2.535 1.653 5.196.1 7.767zM103.677 16.532c-1.715-.06-3.428-.141-5.142-.235-.35-.02-.465.047-.482.423-.286 6.502-.59 13.004-.89 19.502-.3 6.525-.598 13.054-.91 19.582-.013.309.058.4.37.411 1.729.064 3.456.139 5.179.24.401.025.475-.097.492-.467.343-7.696.7-15.391 1.054-23.083.243-5.308.485-10.612.741-15.92.026-.352-.061-.44-.412-.453zM114.486 57.037c.381.02.51-.041.525-.462.283-6.489.585-12.977.885-19.465.301-6.528.598-13.054.906-19.582.014-.309-.05-.4-.369-.414-1.742-.065-3.48-.14-5.22-.242-.367-.024-.437.089-.452.424-.195 4.47-.403 8.94-.612 13.414-.391 8.544-.783 17.087-1.189 25.633-.016.356.072.442.419.454 1.708.067 3.408.143 5.107.24z" fill="#941511"/>
    <path d="M88.938 49.826c-3.4-.143-6.798-.306-10.198-.46-3.414-.157-6.825-.31-10.239-.478-.316-.018-.43.031-.443.38a266.326 266.326 0 01-.238 5.213c-.017.302.043.41.37.425 6.824.304 13.649.619 20.473.943.35.016.414-.1.424-.412.064-1.724.142-3.45.24-5.172.022-.332-.055-.428-.389-.44z" fill="#FC4302"/>
    <path d="M136.838 31.822l-3.475-.157-.328 7.265-7.284-.328-.156 3.462 7.284.329-.328 7.268 3.476.157.328-7.268 7.284.328.156-3.463-7.284-.328.327-7.265z" fill="#061E44"/>
    <path d="M290.877 58.31c-.774-.004-1.344.49-1.491 1.402-.09.563-.065 1.145-.091 1.722l-.028-.001-.042.95c-.047 1.115.878 1.67 1.907 1.14.426-.223.715-.58.901-1.014.388-.897.478-1.837.317-2.793-.152-.924-.683-1.404-1.473-1.405zM277.007 58.325c-.631 1.235-.677 2.555-.105 3.842.297.666.893.992 1.62.957.727-.032 1.115-.535 1.354-1.163a4.36 4.36 0 00.266-1.439c.032-.784.016-1.56-.444-2.246-.702-1.055-2.119-1.064-2.691.048zM279.746 45.578c-.621.152-1.228 1.08-1.11 1.781.121.716.761.208 1.128.38.047.023.115.01.241.015.418-.114 1.058.35 1.377-.142.27-.416.107-1.018-.141-1.488-.32-.616-.889-.696-1.495-.546zM259.729 56.798c-.561.192-1.163 1.219-.974 1.788.184.545.745.176 1.118.305.054.02.115.009.173.008.347.016.698.018 1.044.05.326.032.477-.07.472-.42-.007-.439.002-.873-.239-1.262-.388-.615-.961-.685-1.594-.47zM230.771 45.535c.081.02.174.01.259.011.347.016.69.028 1.037.047.228.014.4-.033.416-.304.031-.553.023-1.117-.346-1.559-.427-.511-.998-.527-1.575-.278-.501.219-1.139 1.366-.931 1.82.211.459.756.164 1.14.263zM297.719 58.378c-.623-.004-1.075.336-1.373.897-.294.554-.345 1.153-.375 1.757-.045.922.053 1.548.311 2.022.623 1.14 2.142 1.303 2.736.229.72-1.303.742-2.706.115-4.07-.257-.565-.807-.831-1.414-.835zM253.478 45.042c-.618.863-.71 3.194-.157 4.075.388.62.952.893 1.683.84.68-.047.985-.523 1.24-1.055.23-.482.213-1.01.254-1.399.053-.874.056-1.625-.356-2.3-.634-1.044-1.977-1.122-2.664-.16zM309.659 61.846c-.229.034-.456.068-.688.078-.638.018-.903.445-1.012.974-.096.474-.002.964.461 1.206.486.253.992.215 1.448-.166.411-.345.593-.761.544-1.317.196-.654-.115-.865-.753-.775zM265.195 35.385c.462.031 1.36.29 1.282-.775.017-1.056-.385-1.57-1.247-1.588-.871-.02-1.532.665-1.525 1.712.005 1.18.984.618 1.49.651zM240.461 58.716c-.493-.022-.987-.017-1.45.186-.643.284-.881 1.024-.549 1.678.263.518 1.015.702 1.582.36.536-.322.823-.799.748-1.56-.106-.137.309-.639-.331-.664zM285.051 37.657c.051-.902.048-.912-.797-.855-.338.022-.691.064-1.006.185-.631.244-.864 1.018-.546 1.665.272.55.972.744 1.554.393.525-.316.849-.77.795-1.388zM314.159 40.424c.589-.297.927-.764.879-1.51-.072-.215.259-.675-.222-.741-.654-.09-1.368-.13-1.894.37-.47.448-.484 1.055-.147 1.58.329.505.854.566 1.384.3zM221.875 40.692c-.37.04-.475.189-.485.545-.029 1.097-.092 2.195-.141 3.29l-.148 3.29c-.012.262-.05.488.317.59 1.589.445 3.325-.347 3.949-1.886.407-1.004.536-2.052.281-3.134-.425-1.83-1.933-2.908-3.773-2.695zM324.954 59.61c-.634.008-1.113.357-1.35.927-.482 1.158-.56 2.36-.133 3.546.27.746.878 1.16 1.68 1.146.76-.013 1.155-.532 1.407-1.204.178-.471.196-.957.257-1.396.026-.8-.009-1.54-.418-2.214-.33-.545-.829-.812-1.443-.806zM243.823 46.123c.047.023.115.009.173.008.232.01.471-.01.694.038.837.167.942-.267.798-.93-.037-.167-.039-.348-.096-.51-.26-.732-.824-.928-1.529-.79-.636.125-1.317 1.11-1.179 1.827.129.682.768.184 1.139.357z" fill="#fff"/>
    <path d="M341.421 63.132c.021-.55.034-1.13.017-1.736-.124-4.495-3.406-7.903-7.803-8.1a8.933 8.933 0 00-1.498.057 6.775 6.775 0 00-1.149-.15c-.88-.04-1.633.093-2.273.25a9.068 9.068 0 00-3.094-.686c-.095-.004-.187-.005-.283-.006a8.679 8.679 0 00-.281-.335c-1.249-1.389-3.011-2.212-4.953-2.314l-.054-.002a7.11 7.11 0 00-3.766.857 6.954 6.954 0 00-1.369-.106c-1.501.037-2.891.485-4.045 1.286a8.997 8.997 0 00-.743-.065 10.446 10.446 0 00-1.638.06c-.336.035-.648.089-.937.147a6.736 6.736 0 00-2.669-.198 6.618 6.618 0 00-1.004-.12 6.995 6.995 0 00-1.548.107c-.196.035-.423.08-.663.126a6.27 6.27 0 00-.651-3.19c.304-.68.497-1.422.56-2.211.059-.01.114-.022.172-.036a6.24 6.24 0 001.508.255l2.731.123c.184.008.364.01.545 0 .287.054.579.088.875.101l2.782.125c.343.016.684 0 1.024-.038.317.072.644.13.977.166a8.593 8.593 0 002.017-.008c.402.09.785.141 1.131.157.449.02.876-.005 1.291-.064.301.057.606.095.919.109l2.788.126a6.257 6.257 0 006.366-4.767 6.233 6.233 0 00-.505-4.298l.085-1.88c.045-1 .091-2.03.131-3.062.299-2.4-.583-4.07-1.397-5.066a6.54 6.54 0 00-4.772-2.377 8.066 8.066 0 00-.494-.005l-.079.003c-.955.022-3.408.085-5.752 2.039-.184.002-.371.01-.566.022-.612.033-1.107.127-1.433.187l-.127.025c-.282.048-.55.11-.806.18a8.665 8.665 0 00-2.751-.565 9.884 9.884 0 00-1.505.05 7.036 7.036 0 00-1.105-.137c-1.017-.046-1.85.14-2.536.314a9.479 9.479 0 00-2.001-.498 10.47 10.47 0 00-1.022-.097c-.044-.002-.085 0-.129-.003-1.158-1.449-2.906-2.425-4.957-2.599a6.428 6.428 0 00-.254-.018c-.068-.003-.136-.006-.205-.006a7.378 7.378 0 00-3.491.801 6.58 6.58 0 00-.969-.115l-.024-.001.026-.043-30.391-1.37-.055-.003c-1.725-.064-3.334.414-4.634 1.355-.067-.01-.132-.02-.2-.026a8.279 8.279 0 00-.577-.047c-.092-.004-.18-.004-.269-.008a6.539 6.539 0 00-5.196-2.654c-.425-.023-.853-.042-1.278-.061-.282-.013-.568-.026-.85-.035a6.515 6.515 0 00-4.872 1.486c-1.036-.913-2.344-1.516-3.83-1.74l-.227-.033c-.535-.082-1.198-.187-1.973-.222a10.261 10.261 0 00-4.326.716 6.911 6.911 0 00-3.384-1.04l-.296-.013s-.718-.036-.871-.042a27.142 27.142 0 00-.544-.022 6.648 6.648 0 00-1.941.059 6.953 6.953 0 00-1.667-.228c-.2-.002-.425-.012-.728-.026l-.904-.044-.279-.013a7.26 7.26 0 00-.499-.04 6.445 6.445 0 00-4.488 1.525c-.477-.535-.962-.961-1.343-1.291a6.954 6.954 0 00-.638-.494c-2.784-2.12-6.081-3.282-9.805-3.45a22.464 22.464 0 00-2.451.025c-2.515.155-4.852.757-6.949 1.764-.062-.075-.12-.149-.175-.212-.861-.987-2.426-2.186-4.99-2.302l-.044-.002a1293.983 1293.983 0 01-13.589-.613l-.058-.002c-2.513-.113-4.17.9-5.116 1.768-.099.09-.199.191-.299.296-1.592-.891-3.491-1.63-5.766-2.126-1.724-.377-3.396-.554-4.823-.65l.001-.013-34.727-1.565a8.972 8.972 0 00-1.845-3.132c-1.614-1.768-3.864-2.805-6.33-2.916-.023 0-.064-.003-.091-.004a215.252 215.252 0 01-5.019-.233l-.147-.006a9.338 9.338 0 00-3.768.601 9.252 9.252 0 00-3.723-.946l-.112-.005a247.315 247.315 0 01-4.968-.23l-.105-.006c-3.262-.147-5.454 1.321-6.469 2.21a9.007 9.007 0 00-2.991 5.663c-2.803-1.553-5.843-2.435-8.962-2.575-2.945-.133-5.953.377-8.931 1.52a19.967 19.967 0 00-7.848 5.458l-.99-.044c-1.71-.077-3.479-.16-5.21-.245l-.054-.003a9.264 9.264 0 00-2.436.217l.238-5.043c.122-2.7-.833-4.643-1.657-5.798-1.615-2.265-4.184-3.642-7.054-3.771l-.16-.007c-.68-.02-1.381-.046-2.133-.08a245.03 245.03 0 01-2.604-.134l-.136-.006c-5.094-.23-9.27 3.579-9.506 8.683l-.228 5.043c-2.212-.741-4.378-1.152-6.554-1.25a21.72 21.72 0 00-5.465.447c-3.72.787-6.946 2.593-9.33 5.228-2.862 3.16-4.29 7.236-4.127 11.783.082 2.26.666 4.438 1.702 6.388-.38.517-.769 1.036-1.171 1.575l-.686.918a8.66 8.66 0 00-1.708 4.783c-.009.193-.019.498.001.88a8.66 8.66 0 003.438 6.5c1.071.81 2.403 1.815 4.016 2.693a27.657 27.657 0 008.79 3.05 9.002 9.002 0 001.834.283l2.15.1a8.91 8.91 0 001.793-.102 20.553 20.553 0 003.235-.48c1.418-.33 2.672-.78 3.786-1.307 1.506 1.23 3.382 1.943 5.412 2.035l.126.006c.731.022 1.48.053 2.224.086.844.038 1.71.084 2.58.133l.13.006c2.312.105 4.501-.609 6.224-2.02 1.62 1.562 3.742 2.48 6.072 2.585l.044.002c.793.032 1.588.068 2.38.104l3.557.163a9.028 9.028 0 002.991-.219 9.46 9.46 0 002.586.478l3.493.157c5.954.269 11.5.525 16.957.785l.024.001a9.332 9.332 0 004.008-.693 9.276 9.276 0 003.939 1.065l.088.004c.796.029 1.592.061 2.388.097a204.446 204.446 0 012.747.141 9.374 9.374 0 003.792-.604c1 .497 2.237.883 3.733.95l.109.005a219.776 219.776 0 014.897.228l.146.006c.476.022.926.008 1.357-.03l41.94 1.89.001-.017c4.026.178 7.917.35 11.399.507l10.851.49c.092.007.184.015.279.019l10.593.478c6.043.272 12.293.554 18.437.844l.021.001c2.717.123 4.445-1.026 5.416-2.009.2-.205.437-.473.67-.802l22.76 1.026c.227.03.454.054.686.064.238.011.476.008.712-.001l14.442.65c.065.004.129.01.194.013.054.002.106.001.157.004l5.747.259c.074.003.152.01.227.013.075.004.147.003.221.007l10.27.463c.241.024.485.045.727.056.238.011.476.012.719.009l5.461.246c.159.014.322.028.486.036.078.003.159.007.241.007.068.003.133 0 .198-.001l3.805.171.021.001.064.003.208.01a6.456 6.456 0 004.901 2.158c.275.016.551.031.83.044.2.009.387.017.571.022.173.022.37.04.587.05a6.493 6.493 0 004.758-1.75l2.73.124c.17.014.336.028.506.036.157.007.31.007.464.007l9.844.444c.156.017.316.031.472.038.099.005.197.01.296.007l.154-.003 6.196.279a6.208 6.208 0 00.857.039l8.26.372a9.84 9.84 0 001.295.058l4.843.219.183.008 1.15.052c.245.01.487.008.73-.011.243.041.487.066.736.077l1.237.056c.344.015.68.03 1.017.042.089.007.187.015.296.02 2.935.133 5.523-1.644 6.438-4.42a6.497 6.497 0 00-.366-4.954zm-21.495-30.52c.447-.01.256.44.248.684-.077 2.019-.182 4.036-.262 6.055-.033.804-.395 1.729.71 2.234l-2.789-.126c-.004-.058-.017-.154-.006-.156.954-.236.889-.983.912-1.726.053-1.7.113-3.404.241-5.101.057-.742.002-1.264-1.175-1.158.751-.707 1.462-.688 2.121-.706zm-7.437 5.323c.639-.192 1.309-.311 1.974-.257.567.046.68-.194.703-.69.053-1.261-.311-1.73-1.313-1.792-.768-.048-.768.564-1.012.974-.125.212-.119.607-.421.573-.339-.036-.273-.434-.364-.693-.268-.77.065-1.132.796-1.256.285-.048.571-.113.858-.127 2.08-.117 2.67.473 2.56 2.552-.041.752-.061 1.506-.139 2.253-.072.677-.103 1.284 1.025 1.294-1.631 1.024-2.094.867-2.163-.628-.511.837-1.158 1.277-2.097 1.17-.905-.102-1.442-.592-1.549-1.47-.115-.923.299-1.652 1.142-1.903zm-8.465-3.24c.139-.044.28-.075.418-.113 1.22-.316 1.22-.316 1.381.888.53-.347.908-.88 1.59-.955 1.472-.161 2.357.538 2.403 2.022.025.81-.056 1.619-.072 2.43-.018.78-.39 1.699.922 2l-.192.178-2.782-.126c1.613-1.157.855-2.786.928-4.18.062-1.152-.467-1.58-1.307-1.553-.832.027-1.593.788-1.661 1.706-.058.748-.041 1.507-.115 2.254-.069.69-.07 1.31.735 1.672l-2.731-.123c-.001-.035-.017-.13-.011-.13.9-.231.907-.921.91-1.662.005-1.012.071-2.026.133-3.035.027-.438.052-.83-.559-.818-.116.002-.237-.037-.254-.178-.029-.201.13-.235.264-.276zM32.864 49.583c-1.162 1.973-2.993 2.982-5.155 3.486-.803.188-1.621.28-2.447.3-.075 0-.162-.03-.207.066-.718-.032-1.435-.065-2.153-.1-.036-.097-.126-.074-.2-.084-2.351-.307-4.556-1.055-6.638-2.193-1.051-.574-2-1.286-2.95-2.005-.002-.024 0-.051 0-.078.879-1.18 1.766-2.354 2.631-3.542.189-.26.301-.255.541-.06 1.907 1.54 4.027 2.652 6.45 3.125 1.222.238 2.448.338 3.667-.029 1.313-.393 2.048-1.29 2.108-2.532.038-.844-.382-1.438-1.021-1.915-.841-.626-1.81-.989-2.774-1.372-1.747-.694-3.556-1.238-5.245-2.079-1.334-.665-2.551-1.474-3.425-2.717-.682-.972-1.021-2.065-1.064-3.242-.175-4.889 3.029-7.47 6.576-8.22 3.334-.707 6.485-.018 9.527 1.363.982.446 1.9 1.004 2.78 1.621.21.149.222.262.087.473-.74 1.163-1.475 2.33-2.19 3.51-.154.252-.252.24-.474.095-1.688-1.096-3.474-1.996-5.45-2.448-1.086-.25-2.18-.336-3.27-.022-1.271.368-1.985 1.233-2.036 2.44-.03.685.29 1.2.782 1.623.87.746 1.92 1.167 2.96 1.601 1.7.709 3.475 1.234 5.12 2.077.807.413 1.573.883 2.258 1.478 1.312 1.14 2.103 2.552 2.212 4.303.114 1.776-.073 3.508-1 5.077zm30.038 5.072c-2.085-.094-4.173-.195-6.258-.279-.268-.012-.42-.103-.567-.331a4504.91 4504.91 0 00-6.902-10.853c-.076-.12-.124-.268-.277-.35-1.229 1.169-2.46 2.343-3.696 3.508-.149.143-.126.31-.133.476-.102 2.188-.211 4.378-.296 6.567-.013.35-.099.44-.455.418a190.61 190.61 0 00-5.02-.23c-.364-.013-.423-.128-.408-.464.607-13.013 1.207-26.03 1.797-39.043.017-.356.109-.434.459-.414 1.658.095 3.321.177 4.981.228.409.011.457.15.44.512-.382 8.106-.754 16.211-1.126 24.317-.01.156-.018.312-.03.577l5.01-4.838c2.045-1.978 4.086-3.956 6.131-5.93.143-.14.274-.253.512-.238 2.298.117 4.597.217 6.892.324.034.001.071.017.115.025-.035.172-.178.237-.277.331a3402.62 3402.62 0 01-10.201 9.576c-.253.237-.246.38-.074.65 3.175 5.013 6.336 10.032 9.5 15.052.076.122.149.248.225.37-.106.097-.23.044-.342.04zm26.189.776c-.01.313-.07.429-.424.413a6889.53 6889.53 0 00-20.474-.944c-.327-.014-.387-.122-.37-.424.092-1.736.177-3.476.239-5.213.012-.35.13-.398.443-.38 3.41.166 6.824.32 10.238.478 3.4.156 6.798.316 10.199.46.333.014.41.106.392.435-.102 1.729-.18 3.452-.243 5.175zm-7.522-10.409c-4.277.63-8.048-.454-11.085-3.61-5.66-5.882-3.449-15.944 4.183-18.866 4.59-1.758 8.92-1.13 12.734 2.035 2.427 2.016 3.676 4.713 3.96 7.856.016.17.039.345.041.515.01.412.004.823.002 1.094-.22 5.625-4.308 10.162-9.835 10.976zm21.789-12.116c-.354 7.696-.711 15.391-1.054 23.084-.017.37-.094.488-.491.467-1.727-.105-3.454-.18-5.18-.24-.316-.011-.386-.103-.37-.411.312-6.529.61-13.054.91-19.583.3-6.501.604-13.003.89-19.501.017-.377.133-.443.483-.424 1.713.098 3.427.175 5.141.235.351.013.439.102.419.454-.263 5.307-.505 10.612-.748 15.92zm87.884 2.487c.244-6.32 4.502-10.614 10.694-10.998 2.993-.184 5.763.352 8.176 2.234.069.055.146.095.212.15 1.38 1.203 1.383 1.207-.105 2.241-.767.533-1.556 1.034-2.323 1.567-.232.16-.352.243-.636-.015-3.81-3.472-9.363-1.774-10.659 3.245-.851 3.299.437 6.636 3.134 8.117 2.327 1.278 4.975.965 6.891-.868.346-.331.514-.28.829-.004.976.856 1.964 1.71 2.987 2.51.432.336.355.53.023.858-1.656 1.655-3.698 2.501-5.983 2.622-4.812.26-8.945-1.12-11.688-5.363-1.268-1.953-1.693-4.15-1.552-6.296zm-15.758-12.36c4.548.232 9.099.43 13.653.615.51.02.714.117.661.69a41.491 41.491 0 00-.166 3.38c-.006.513-.191.61-.671.585-2.869-.15-5.74-.249-8.606-.412-.706-.042-.969.12-.948.865.028.953-.002 1.917-.133 2.859-.115.827.227.948.935.97 2.552.077 5.1.247 7.653.307.697.018.803.247.748.86-.097 1.009-.166 2.025-.13 3.032.028.746-.282.81-.9.772-2.549-.145-5.102-.216-7.65-.379-.734-.046-.921.17-.939.882-.062 2.431-.219 4.857-.298 7.287-.019.56-.163.74-.75.69a44.689 44.689 0 00-3.564-.164c-.545-.004-.667-.16-.64-.695.186-3.584.337-7.17.498-10.75.161-3.555.338-7.112.468-10.668.017-.604.167-.757.779-.726zm-12.258-.2c3.988.873 7.184 2.85 8.459 6.9 2.081 6.602-.785 13.484-8.591 15.141-1.624.345-3.255.333-4.894.255-2.115-.099-4.233-.218-6.35-.273-.626-.017-.753-.217-.72-.81.188-3.557.334-7.112.495-10.67.16-3.558.317-7.112.488-10.67.013-.291-.168-.738.453-.69 3.552.28 7.147.05 10.66.817zm-53.841 33.972c-.347-.012-.438-.098-.419-.454.406-8.543.794-17.086 1.19-25.633.205-4.47.417-8.943.611-13.413.016-.336.082-.449.452-.425 1.74.102 3.478.18 5.22.242.32.01.384.106.37.414-.311 6.525-.609 13.054-.907 19.583-.299 6.487-.602 12.975-.884 19.464-.019.42-.145.483-.525.462a197.59 197.59 0 00-5.108-.24zm34.254-13.926l-7.285-.328-.327 7.264-3.475-.156.327-7.265-7.284-.329.156-3.462 7.284.328.328-7.265 3.472.157-.328 7.264 7.284.329-.156 3.463h.004zm65.636 20.77c-7.651-.361-15.302-.703-22.957-1.048l-6.087-.274v-.007c-9.681-.437-19.363-.88-29.045-1.292-.656-.03-.867-.196-.783-.848.089-.686.096-1.386.097-2.079 0-.459.188-.627.628-.563.143.02.289.017.436.023 19.159.864 38.318 1.724 57.48 2.591 1.343.06 1.155-.077 1.115 1.2-.017.519-.095 1.042-.064 1.56.043.634-.232.764-.82.738zm1.153-7.893c-.104.654-.094 1.328-.1 1.994-.003.438-.141.622-.612.58-.75-.068-1.506-.078-2.258-.112-18.523-.835-37.05-1.666-55.572-2.512-1.374-.062-1.281.225-1.197-1.277.04-.74-.265-1.738.267-2.143.452-.343 1.39-.07 2.111-.037 9.189.41 18.381.825 27.569 1.24 9.624.433 19.251.874 28.875 1.284.732.03 1.045.19.917.983zm.231-5.35c-.065.307-.039.634-.053.953-.065 1.513-.065 1.513-1.541 1.447l-28.354-1.279v-.003c-9.596-.433-19.192-.879-28.791-1.274-.914-.038-1.15-.32-1.007-1.154.125-.735-.23-1.716.241-2.167.48-.461 1.435-.088 2.179-.055 18.789.837 37.574 1.69 56.363 2.514.759.034 1.14.19.963 1.019zm86.148-14.271c.452-1.492 1.738-2.205 3.408-1.97 1.52.214 2.39 1.185 2.459 2.751.01.232.006.463.009.544-.14 2.495-1.654 3.664-3.928 3.17-.952-.205-1.602-.761-1.921-1.687-.326-.932-.304-1.886-.027-2.808zm-2.357-4.63c.407.036.76.221.739.774-.019.496-.322.703-.788.699-.511-.003-.828-.231-.814-.77.012-.49.308-.71.863-.703zm.061 2.42c.489-.043.363.332.355.6-.051 1.269-.122 2.54-.165 3.81-.029.783-.39 1.701.753 2.123l-2.85-.128c1.138-.367.859-1.297.904-2.077.046-.78.084-1.556.102-2.337.018-.614.361-1.414-1.058-1.315.778-.56 1.371-.625 1.959-.677zm-6.433-.07c.544-.132.815-.411.772-1.025-.037-.553.501-.627.864-.648.495-.028.276.438.236.65-.145.802.176 1.088.947.997.198-.021.404.022.609.021.259-.002.356.108.344.37-.011.257-.112.371-.373.336a.383.383 0 00-.088-.004c-.488.015-1.167-.274-1.413.048-.264.345-.127.997-.153 1.516-.034.664-.077 1.329-.084 1.994-.01 1.213.36 1.543 1.585 1.431.168-.016.333-.053.501-.082-.663.816-1.502.979-2.406.693-.675-.214-.87-.807-.847-1.459.039-1.184.089-2.368.156-3.554.027-.438.061-.823-.573-.74-.151.02-.381.058-.403-.191-.015-.208.157-.31.326-.353zm-12.543-.762c.578.094.005.714.33 1.058.585-.653 1.282-1.139 2.28-.975.991.164 1.496.601 1.641 1.604.177 1.214-.031 2.425-.055 3.64-.01.449-.066.871.528.983.139.026.288.115.27.29-.023.21-.204.154-.337.152-.8-.033-1.599-.069-2.388-.104 1.341-1.537.783-3.292.727-4.943-.02-.613-.579-.893-1.215-.864-.703.033-1.521.652-1.595 1.37-.118 1.119-.108 2.255-.189 3.38-.039.558.719.358.718.909l-2.747-.124c1.127-.374.876-1.3.915-2.09.04-.81.043-1.623.116-2.428.06-.643.114-1.232-.952-1.25.676-.564 1.337-.707 1.953-.608zm-4.952-.22c.562.086.036.715.319 1.085.402-.37.78-.818 1.339-.963.355-.093.766-.21.915.33.129.472.179.79-.541.75-1.608-.092-1.837.16-1.91 1.76-.013.288-.05.58-.035.865.045.957-.643 2.17.898 2.685l-3.013-.136c1.145-.394.881-1.343.928-2.147.045-.78.04-1.561.119-2.336.068-.677.08-1.257-.968-1.291.66-.575 1.334-.701 1.949-.602zm-7.452.385c.752-.823 2.263-1.074 3.385-.562.908.415 1.314 1.378 1.175 2.65-.05.44-.2.589-.648.555-.982-.075-1.966-.082-2.948-.15-.424-.029-.535.078-.507.514.082 1.428 1.152 2.343 2.576 2.125.388-.06.762-.197 1.276-.333-.841 1.416-3.235 1.462-4.347.205-1.044-1.179-1.023-3.846.038-5.005zm-5.45-.8c.577-.117.756-.452.752-1.033-.005-.572.575-.668.959-.654.402.015.224.48.183.715-.133.749.108 1.076.89.972.226-.031.463.014.694.027.204.01.319.09.288.323-.025.182-.043.348-.278.358-.058.004-.116-.009-.174-.001-.487.08-1.132-.35-1.434.149-.225.37-.095.958-.12 1.45-.034.664-.081 1.328-.09 1.994-.016 1.185.334 1.5 1.503 1.43.191-.012.373-.184.68.024-.764.693-1.585.846-2.46.603-.781-.219-.931-.888-.913-1.591.032-1.158.084-2.314.15-3.47.026-.444.05-.824-.58-.743-.154.02-.387.04-.396-.209-.001-.2.174-.311.346-.344zm-11.279 3.62c.069-1.76.142-3.524.249-5.283.03-.515.01-.91-.606-1.013-.162-.028-.384-.082-.35-.305.04-.3.305-.197.489-.188.782.028 1.564.067 2.346.105.163.008.376-.03.41.21.033.245-.18.273-.344.286-.653.049-.729.46-.747 1.01a271.174 271.174 0 01-.263 5.98c-.026.502-.052.918.609.996.156.017.456.102.354.383-.073.2-.301.115-.464.108-.922-.038-1.844-.08-2.837-.124.067-.205.075-.3.099-.305 1.153-.17 1.022-1.052 1.055-1.86zm3.371 12.761c-.022.482-.168 1.005.541 1.16.084.017.196.168.193.253-.006.194-.182.175-.325.17-.724-.034-1.449-.063-2.173-.102-.132-.006-.308.03-.34-.169-.029-.191.138-.265.265-.276.657-.063.633-.52.651-1 .069-1.823.161-3.644.243-5.465.051-1.126.051-1.126-1.049-1.58.686-.4 1.308-.461 1.931-.508.584-.045.366.404.358.666-.089 2.286-.192 4.569-.295 6.851zm-7.835-4.37c.646-1.089 2.188-1.44 3.493-.913.957.386 1.457 1.47 1.266 2.68-.062.399-.163.605-.648.56-.954-.088-1.916-.053-2.866-.154-.617-.065-.66.195-.596.677.185 1.415 1.297 2.22 2.741 1.942.329-.063.652-.178 1.135-.313-1.01 1.606-3.755 1.439-4.643-.182-.785-1.418-.701-2.91.118-4.297zm-1.581-8.085c.533.044.775.347.759.853-.019.577-.37.806-.843.795-.632-.046-.925-.348-.873-.903.049-.565.404-.787.957-.745zm-8.159.482c.046-.338.017-.669.206-1 .177-.305-.053-.961.457-.918.38.03.393.657.436 1.043.085.768.495 1.123 1.246 1.167.931.053 1.768-.362 2.014-1.05.265-.743-.03-1.31-.645-1.716-.507-.332-1.043-.61-1.571-.906-1.705-.954-1.993-1.68-1.549-3.445.208-.827.836-1.012 1.498-1.166.895-.211 1.79-.035 2.68.1.721.11 1.01.505.757 1.197-.151.414-.014 1.151-.465 1.178-.461.027-.34-.698-.432-1.08-.158-.656-.589-.767-1.135-.819-.696-.065-1.375-.048-1.754.645-.282.518-.224 1.057.173 1.537.42.505.997.78 1.549 1.093.581.329 1.167.644 1.618 1.154.95 1.069.764 2.61-.436 3.382-.698.448-1.441.826-2.362.624-.749.221-1.302-.436-2.01-.532-.196-.036-.309-.255-.275-.488zm-2.431-.95c.626.026.958.455.915.878-.043.426-.413.916-1.016.695-.724.1-.796-.335-.78-.84.012-.581.303-.755.881-.732zm-1.694 17.026c-.026.423-.28.759-.798.62-.521.061-.806-.183-.791-.678.015-.469.292-.731.786-.736.546-.01.831.313.803.794zm-8.281-24.714c.048-.226.288-.113.442-.11.782.026 1.563.081 2.346.096.276.006.428.108.536.446-.814-.016-1.121.364-1.123 1.166-.005 1.618-.125 3.237-.151 4.857-.015 1.025.614 1.659 1.697 1.826 1.205.184 2.096-.238 2.441-1.157a3.77 3.77 0 00.224-1.187c.047-1.214.102-2.428.16-3.642.035-.685.245-1.43-.749-1.669-.118-.029-.382-.071-.33-.314.065-.306.328-.165.501-.164.637.012 1.276.054 1.912.08.18.007.387.03.437.203.071.237-.186.28-.327.311-.654.144-.709.593-.72 1.157-.03 1.416-.121 2.832-.178 4.247-.062 1.53-.822 2.583-2.285 2.98-1.242.334-2.384-.087-3.342-.92-.616-.537-.736-1.286-.708-2.06.064-1.56.124-3.121.215-4.68.03-.526.05-.977-.631-1.065-.209-.034-.411-.172-.367-.4zm4.929 24.311c-.019.115-.004.235-.033.346-.096.406.09 1.111-.28 1.166-.522.075-.346-.661-.548-1.01-.126-.22-.197-.396-.477-.382-.116.005-.231-.01-.347-.012-.691-.014-1.574-.295-2.025.027-.482.346-.194 1.29-.232 1.975-.026.502-.32 1.263.077 1.465.543.276 1.297.17 1.958.176.48.005.386-.696 1.011-.804-.033.73-.059 1.384-.095 2.035-.011.163.007.37-.249.376-.194.005-.184-.15-.243-.282-.233-.504-1.912-.97-2.422-.694-.192.103-.163.285-.17.45-.028.55-.046 1.1-.078 1.65-.036.643-.225 1.359.772 1.478.132.016.266.138.221.313-.05.188-.218.15-.354.144-.84-.035-1.68-.076-2.524-.114-.146-.007-.312-.018-.317-.205-.007-.167.138-.276.278-.283.721-.05.66-.569.678-1.06.083-1.995.167-3.99.277-5.983.026-.495.055-.925-.577-1.042-.138-.027-.287-.136-.266-.298.031-.24.248-.196.411-.188 1.71.077 3.42.167 5.132.224.408.015.482.188.422.532zm-2.499-3.443c-.983-.038-1.966-.16-2.947-.248-.132-.013-.312.053-.362-.139-.054-.22.129-.355.286-.354.807.006.797-.522.816-1.105.064-1.88.146-3.76.254-5.637.032-.543.013-.968-.647-1.07-.206-.032-.416-.147-.325-.408.078-.221.297-.106.454-.102.636.018 1.275.054 1.911.083.922.028 1.842-.04 2.756.256 1.86.6 2.617 1.947 2.709 3.766.078 1.53-.301 2.97-1.458 4.005-.934.842-2.202.996-3.447.953zm6.099 12.024c-.046.198-.218.15-.351.144-.86-.036-1.724-.075-2.615-.115.022-.19.021-.24.028-.243 1.19-.16 1.066-1.053 1.084-1.889.018-.865.074-1.733.11-2.601.018-.462.227-1.037-.595-1.02-.126.002-.23-.108-.19-.229a.38.38 0 01.228-.224c.476-.118.951-.24 1.438-.302.466-.057.299.326.289.54-.06 1.56-.127 3.12-.214 4.68-.024.458-.067.87.542.966.125.022.289.101.246.293zm-.078-14.376a5.71 5.71 0 01.266-2.03c.578-1.868 2.61-2.575 4.272-1.504.692.446 1.148 2.043.826 2.773-.14.316-.371.211-.582.205-.983-.034-1.97-.055-2.952-.133-.499-.04-.593.153-.541.59.172 1.49 1.35 2.328 2.84 2.022.326-.067.62-.305 1.001-.21-.045.385-.344.528-.61.68-1.993 1.112-4.42-.227-4.52-2.393zm8.063 14.732c-.04.203-.212.154-.344.148-.694-.024-1.391-.056-2.085-.094-.132-.006-.308.023-.329-.181-.018-.195.15-.235.281-.26.389-.08.475-.325.481-.688.019-1.04.097-2.08.099-3.119.004-1.053-.407-1.544-1.21-1.57-.854-.029-1.653.608-1.733 1.485-.099 1.063-.11 2.136-.162 3.204-.009.214.014.382.254.488.184.08.532.14.4.436-.11.243-.417.09-.631.087-.579-.006-1.16-.046-1.738-.072-.146-.006-.316-.028-.301-.214.008-.085.133-.222.215-.232.527-.05.61-.444.628-.838.066-1.39.098-2.782.157-4.173.009-.203-.088-.228-.233-.269-.192-.056-.543.03-.473-.324.053-.256.372-.228.586-.3.052-.017.116-.008.171-.019 1.179-.219 1.179-.222 1.208 1.115.686-.877 1.396-1.344 2.399-1.156 1.061.197 1.593.738 1.635 1.912.043 1.096-.034 2.194-.077 3.293-.018.468-.121.943.549 1.055.125.022.289.094.253.286zm.597-12.422c-.425-1.069-.771-2.175-1.217-3.236-.388-.918-.346-2.071-1.398-2.697l2.676.121c-1.055.418-.554 1.107-.356 1.71.353 1.084.727 2.157 1.148 3.393.587-1.445 1.105-2.74 1.644-4.028.107-.253.124-.416-.167-.54-.163-.07-.458-.113-.326-.396.11-.237.366-.11.546-.091.533.048 1.09-.063 1.678.191-1.632 1.055-1.703 2.938-2.562 4.374-.236.394-.399.832-.568 1.263-.123.307-.236.62-.637.593-.387-.028-.369-.421-.461-.657zm3.822 11.833c-.243.234-.434.463-.663.636-.67.497-1.414.531-2.13.153-.685-.361-.933-.998-.844-1.752.098-.82.609-1.264 1.378-1.47.624-.17 1.259-.188 1.896-.187.361.003.527-.129.541-.498.018-.492.081-.982-.167-1.442-.236-.44-.626-.545-1.088-.573-.65-.036-.797.433-1.001.886-.121.267-.125.732-.528.68-.349-.046-.214-.482-.304-.74-.254-.723.079-1.081.779-1.2.285-.048.568-.123.853-.161 1.831-.251 2.705.533 2.623 2.36-.033.723-.109 1.44-.166 2.162-.056.718-.3 1.529.905 1.614-1.228.947-1.893.798-2.084-.468zm9.709 1.243c-.019.06-.121.134-.179.132-.842-.066-1.705.028-2.612-.264 1.097-.304.877-1.157.913-1.886.037-.75.088-1.505.05-2.255-.052-1.032-.438-1.47-1.203-1.508-.812-.044-1.681.644-1.76 1.487-.099 1.066-.103 2.136-.169 3.207-.031.54.434.594.744.812-.01.078-.02.156-.034.237-.82-.037-1.636-.07-2.455-.114-.106-.005-.243.012-.27-.148-.035-.2.121-.264.255-.275.653-.062.63-.525.648-1.004.035-1.157.091-2.313.153-3.47.024-.447.105-.899-.581-.872-.123.005-.241-.099-.215-.217a.373.373 0 01.222-.231c.475-.121.957-.225 1.442-.32.278-.054.346.115.335.36-.011.227-.004.458-.002.713.372-.014.462-.343.673-.5.752-.568 1.551-.6 2.38-.24.728.319.988.97.997 1.694.008 1.098-.048 2.197-.095 3.296-.021.468-.127.946.546 1.06.118.016.28.119.217.306zm-.809-23.694l-.178-.201c1.381-.25 1.038-1.259 1.095-2.075.058-.837.072-1.676.12-2.516.025-.472.129-.97-.608-.952-.119.001-.226-.044-.215-.2.009-.143.11-.189.227-.214.424-.097.847-.18 1.267-.29.5-.13.627.093.562.542-.025.169-.019.342-.035.692.658-.749 1.274-1.265 2.216-1.158 1.143.13 1.657.581 1.831 1.71.137.897.025 1.793.002 2.686-.019.797-.366 1.7.677 2.226l-2.656-.12c.985-.462.738-1.333.775-2.086.04-.722.093-1.447.061-2.169-.048-.991-.47-1.442-1.246-1.463-.807-.023-1.616.617-1.694 1.44-.099 1.066-.09 2.14-.175 3.206-.032.393.206.482.463.61.127.063.277.134.214.318-.063.191-.237.122-.367.116-.775-.028-1.554-.066-2.336-.102zm3.354 22.348c.612 1.026 1.566 1.253 3.041.728.038-.015.101.032.151.048-.34 1.35-3.004 1.329-4.003.217-.987-1.095-1.101-3.482-.179-4.797.801-1.143 2.57-1.457 4.104-.8.652.28.24.653.177.99-.067.35-.061.915-.434.939-.451.027-.373-.568-.488-.889-.317-.908-1.242-1.086-2.025-.353-.779.726-.968 2.869-.344 3.917zm.74-10.37c-.737-.19-1.322-.6-1.634-1.304-.569-1.287-.541-2.607.071-3.85.585-1.188 1.853-1.657 3.353-1.372 1.271.24 2.047 1.081 2.218 2.425.043.341.031.69.038.824-.139 2.644-1.752 3.87-4.046 3.277zm8.994 8.885c-.125.361-.374.296-.626.284-.986-.04-1.969-.078-2.955-.133-.398-.021-.561.053-.504.525.197 1.67 1.445 2.478 3.14 2 .207-.058.378-.292.775-.104-.692.9-1.582 1.084-2.565.972-1.163-.131-2.002-.72-2.387-1.855-.325-.963-.298-1.93-.009-2.9.529-1.773 2.63-2.559 4.214-1.577.783.484 1.227 1.901.917 2.788zm1.963-10.046c-.59 1.292-1.771 1.796-3.332 1.56-.24-.039-.7-.406-.748.122-.04.433-.436 1.057.325 1.333.195.07.437.135.375.384-.071.272-.344.137-.521.133-.711-.019-1.422-.057-2.435-.103 1.325-.593 1.046-1.588 1.099-2.459.085-1.44.133-2.883.198-4.327.019-.404.124-.841-.509-.866-.146-.007-.286-.074-.257-.267.025-.182.179-.196.32-.23.255-.06.512-.103.758-.18.608-.19 1.04-.167.877.658-.045.226-.004.377.264.338.193-.881.819-1.173 1.644-1.17 1.073.005 1.872.49 2.144 1.43.35 1.225.331 2.472-.202 3.644zm7.968 14.093c-.962.12-1.92.035-2.833-.27-1.893-.637-2.808-2.405-2.596-4.764.391-4.288 3.849-4.649 6.487-3.837.249.076.487.152.443.52-.079.625-.077 1.26-.384 2.029-.414-.563-.511-1.07-.635-1.555-.102-.399-.317-.538-.716-.596-1.72-.248-2.987.419-3.568 2.038-.425 1.19-.498 2.428-.069 3.653.528 1.506 1.875 2.311 3.456 2.165.709-.067.721-.644.968-1.065.133-.228.102-.675.487-.596.311.062.161.446.191.681.167 1.293.044 1.44-1.231 1.597zm1.329-11.852c-.13-.006-.312.033-.351-.162-.036-.182.108-.281.239-.306.546-.097.55-.492.556-.913.02-1.07.082-2.137.086-3.207.003-.585-.196-1.093-.861-1.232-.651-.135-1.12.123-1.449.692-.207.362-.336.73-.344 1.147-.013.577-.052 1.157-.072 1.734-.024.767-.374 1.655.946 1.922-.065.085-.134.17-.199.256-.84-.038-1.68-.072-2.519-.12-.068-.004-.168-.07-.189-.131-.067-.18.085-.285.212-.314.595-.116.557-.56.57-1 .023-.954.086-1.907.085-2.861-.002-.718-.096-1.432-1.039-1.522-.675-.065-1.482.582-1.564 1.36-.116 1.12-.122 2.251-.18 3.377-.008.19.033.331.209.434.203.118.607.146.452.483-.121.266-.474.08-.716.08-.521 0-1.044-.037-1.564-.068-.129-.009-.306.051-.369-.128-.064-.18.064-.303.205-.317.719-.073.647-.6.669-1.092.047-1.184.1-2.37.164-3.554.018-.34.032-.644-.43-.682-.159-.014-.376-.03-.348-.281.024-.233.244-.203.4-.247a5.81 5.81 0 01.42-.11c1.122-.249 1.122-.249 1.171.946 1.607-1.48 2.905-1.323 3.716.41.119-.152.217-.287.325-.414.624-.757 1.529-1.03 2.411-.71.902.322 1.064 1.104 1.069 1.896.012 1.099-.068 2.196-.124 3.295-.022.41-.102.82.479.929.156.027.355.145.291.356-.069.228-.289.13-.446.126a51.18 51.18 0 01-1.911-.072zm4.306 12.19c-1.76-.041-2.796-1.016-2.942-2.77-.16-1.89.509-3.273 1.822-3.764 2.426-.907 4.355.617 4.218 3.337-.1 2.065-1.24 3.24-3.098 3.198zm4.372-15.81c-.041.468-.206.572-.641.54-.981-.072-1.966-.072-2.947-.15-.5-.04-.576.147-.534.584.135 1.453 1.272 2.317 2.736 2.04.33-.064.652-.178 1.221-.333-.66 1.027-1.498 1.183-2.372 1.134-1.135-.065-2.072-.515-2.532-1.647-.469-1.153-.413-2.33.033-3.458.542-1.373 1.924-1.936 3.459-1.51 1.188.333 1.709 1.304 1.577 2.8zm.268-7.916c-.874-.104-1.458-.606-1.597-1.442-.134-.818.333-1.647 1.142-1.913a5.507 5.507 0 012.054-.278c.523.034.629-.192.653-.647.069-1.312-.308-1.794-1.342-1.834-.66-.027-.712.454-.921.842-.141.265-.133.687-.522.71-.243.017-.254-.28-.262-.477-.011-.418-.458-.948.134-1.23 1.055-.504 2.187-.592 3.273-.112.695.307.817 1.01.792 1.698-.031.923-.12 1.843-.165 2.766-.032.64-.265 1.408.948 1.34-1.279 1.003-1.903.877-2.171-.376-.555.614-1.155 1.056-2.016.953zm3.93 18.434c-.089.309-.452.13-.691.125-1.378-.038-1.744.289-1.809 1.655-.036.81-.052 1.619-.12 2.428-.037.464.009.796.565.858.19.023.438.119.375.377-.054.222-.289.127-.449.123-.697-.025-1.391-.053-2.088-.09-.156-.008-.387.056-.414-.193-.016-.16.136-.28.272-.287.598-.024.572-.446.591-.857.049-1.156.101-2.313.153-3.47.02-.444.176-.967-.581-.953-.105.002-.223-.116-.173-.243.035-.09.139-.197.228-.22.479-.111.964-.287 1.444-.275.674.013.042.719.464.955.444-.235.77-.74 1.34-.83.247-.04.56-.185.715.083.133.23.247.572.178.814zm-1.17-10.252c-.046.78-.067 1.56-.109 2.34-.024.461-.121.943.508 1.114.138.037.238.164.173.337-.058.147-.192.097-.294.096-.725-.03-1.449-.062-2.173-.098-.102-.005-.24.037-.277-.125-.04-.185.087-.288.225-.306.685-.08.663-.571.679-1.077.036-1.184.086-2.368.156-3.551.021-.383.028-.699-.479-.712-.143-.003-.315-.041-.327-.215-.014-.232.191-.246.36-.28.113-.021.221-.064.334-.09 1.257-.293 1.257-.293 1.401.978.581-.647 1.179-1.137 2.085-1.055 1.158.103 1.745.609 1.866 1.763.124 1.185-.021 2.368-.068 3.552-.016.43-.043.81.507.93.172.038.323.171.238.385-.069.177-.243.104-.379.098-.667-.026-1.333-.06-2-.09-.149-.007-.319-.011-.314-.198.003-.085.122-.222.211-.238.581-.113.573-.539.583-.987.021-.838.083-1.675.097-2.514.02-1.283-.392-1.897-1.249-1.925-.929-.035-1.691.77-1.754 1.868zm7.887 13.413c-.316 1.94-1.752 2.96-3.677 2.635-.23-.038-.625-.416-.707.04-.077.417-.367.975.227 1.314.193.108.525.14.448.425-.082.295-.398.132-.606.129a36.503 36.503 0 01-1.826-.082c-.125-.01-.306.06-.362-.136-.056-.189.088-.274.228-.292.682-.085.657-.578.676-1.084.07-1.853.157-3.7.25-5.552.022-.397.076-.775-.507-.76-.15.003-.304-.059-.296-.238.007-.163.16-.224.305-.265.169-.047.338-.087.506-.127 1.157-.257 1.157-.257 1.263 1.029.758-1.026 1.613-1.314 2.675-.923 1.093.4 1.404 1.28 1.476 2.327a7.064 7.064 0 01-.073 1.56zm.234-9.064c-1.097.083-1.731-.452-1.729-1.55.002-1.243.071-2.484.151-3.724.032-.478-.005-.802-.604-.741-.154.017-.38.04-.378-.218.003-.217.21-.279.365-.313.543-.108.747-.408.714-.963-.038-.59.5-.739.889-.742.494-.001.257.498.222.737-.111.74.094 1.102.9.986.226-.03.463.01.694.024.19.009.338.056.324.3-.015.244-.106.383-.371.354a.383.383 0 00-.088-.004c-1.514.092-1.517.091-1.585 1.597-.033.723-.096 1.444-.077 2.165.028 1.123.291 1.335 1.429 1.339.221 0 .449-.133.773.08-.517.424-1.04.629-1.629.673zm3.15 11.99c-1.54-.311-2.304-1.484-2.228-3.418.102-2.55 1.991-3.876 4.324-3.02 1.405.516 1.692 1.708 1.756 3.005.113 2.405-1.566 3.896-3.852 3.433zm22.829-8.13c.493.025.819.278.788.82-.03.512-.381.66-.828.68-.445-.044-.785-.198-.775-.725.007-.536.298-.802.815-.775zm-13.536 2.904c-.106.307-.456.135-.698.131-1.402-.036-1.735.258-1.809 1.659-.04.75-.044 1.5-.105 2.248-.04.525-.075.99.634 1.059.17.017.338.137.288.352-.047.196-.231.126-.364.123-.752-.027-1.503-.06-2.255-.098-.105-.004-.212-.047-.317-.069l-.172-.18c1.336-.236 1.012-1.212 1.065-2.009.053-.806.09-1.613.112-2.421.015-.465.267-1.082-.594-1.09-.092-.002-.234-.107-.16-.246a.453.453 0 01.245-.21c.448-.109.902-.197 1.355-.279.326-.06.393.124.377.405-.013.217.014.436.031.76.5-.447.875-.906 1.456-1.026.269-.056.602-.2.767.157.106.222.215.526.144.734zm4.497 5.844c-.574-.043-.142-.703-.479-1.102-.43.707-1.022 1.061-1.809 1.053-.926-.008-1.626-.593-1.763-1.473-.142-.93.353-1.554 1.312-1.898.561-.2 1.112-.253 1.685-.267.393-.013.8.087.85-.557.083-1.08-.176-1.768-.895-1.916-.53-.11-1.011-.09-1.266.568-.135.35-.152 1.037-.671.904-.374-.095-.249-.755-.336-1.167-.07-.33.125-.497.394-.57.472-.132.949-.273 1.435-.326 1.744-.197 2.574.585 2.492 2.328-.038.838-.123 1.67-.178 2.507-.042.627-.147 1.305.972 1.267-.565.6-1.186.688-1.743.649zm4.059.125c-.839-.344-.875-1.066-.845-1.812.046-1.099.082-2.198.152-3.297.031-.454.041-.82-.578-.77-.154.014-.385.06-.397-.201-.011-.212.157-.296.339-.332.584-.11.78-.447.749-1.036-.031-.535.493-.665.851-.672.529-.014.295.482.257.721-.119.743.105 1.083.893.979.226-.03.463.017.694.024.208.006.32.093.306.316-.014.231-.082.398-.36.358-.027-.005-.058-.003-.089-.004-.485.026-1.153-.273-1.407.073-.261.355-.137 1-.167 1.518a66.344 66.344 0 00-.09 1.994c-.029 1.25.239 1.5 1.528 1.48.188-.002.378.017.602.027-.676.717-1.645.959-2.438.634zm3.219.105c-.015-.123-.031-.226-.024-.226.94-.209.877-.936.889-1.649.02-.981.085-1.964.126-2.944.019-.434.199-.94-.57-.96-.313-.011-.227-.259-.029-.41.042-.032.107-.036.162-.057 1.512-.578 1.7-.443 1.625 1.14-.041.923-.11 1.848-.114 2.772-.007.836-.499 1.847.819 2.314-1.038.191-1.963.01-2.884.02zm7.306.451c-1.956.163-3.225-.947-3.324-2.91-.095-1.893.569-3.165 1.885-3.632 2.413-.853 4.294.652 4.16 3.328-.095 1.953-1.045 3.076-2.721 3.214zm10.517.352c-.063.187-.234.125-.367.12-.775-.032-1.547-.067-2.397-.105 1.554-1.46.85-3.208.847-4.819-.001-.659-.538-.986-1.213-.979-.781.006-1.587.67-1.672 1.495-.106 1.062-.08 2.137-.175 3.204-.055.602.769.385.747 1.033l-2.469-.112c-.112-.005-.242.01-.259-.154-.019-.188.129-.287.255-.294.697-.04.618-.55.639-1.008.05-1.184.103-2.368.16-3.555.016-.35.104-.719-.452-.707-.14.004-.315-.034-.338-.205-.031-.22.145-.282.324-.325.087-.02.166-.05.253-.074 1.335-.375 1.348-.364 1.426 1.023.483-.448.861-.968 1.531-1.09 1.464-.267 2.466.481 2.507 1.989.028 1.038-.057 2.08-.11 3.118-.026.492-.144 1 .573 1.117.135.026.245.16.19.328z" fill="#fff"/>
    <path d="M299.818 40.164c.764-.016 1.123-.503 1.349-1.135.359-1.003.406-2.031.097-3.05-.228-.752-.731-1.254-1.55-1.298-.839-.044-1.311.444-1.601 1.193-.169.44-.203.894-.258 1.266-.025.719-.016 1.352.25 1.945.332.725.901 1.094 1.713 1.08zM261.443 45.232c-.109.066-.181.223-.344.14-.451 1.312-.4 2.684-.475 4.044-.019.335-.018.614.378.761.911.34 1.868.06 2.331-.778.59-1.061.659-2.217.363-3.362-.288-1.09-1.282-1.41-2.253-.805zM157.23 26.878c-.534-.027-.419.362-.435.654-.098 2.02-.186 4.043-.277 6.06l-.277 6.15c-.015.332-.137.69.442.71 1.908.065 3.813.215 5.705-.243 2.556-.622 4.297-2.505 4.652-5.089.457-3.337-.567-5.636-3.054-7.016-2.121-1.176-4.451-1.108-6.756-1.226z" fill="#fff"/>
    <path d="M152.567 22.015c-.622-.048-.441.399-.454.69-.171 3.558-.328 7.112-.488 10.67-.16 3.558-.307 7.113-.495 10.67-.03.593.094.796.72.81 2.117.055 4.235.174 6.35.273 1.642.078 3.271.09 4.894-.255 7.807-1.657 10.669-8.535 8.592-15.14-1.276-4.052-4.472-6.027-8.46-6.9-3.513-.767-7.108-.538-10.659-.818zm11.423 6.09c2.487 1.379 3.511 3.678 3.054 7.015-.355 2.584-2.1 4.467-4.653 5.09-1.891.461-3.796.307-5.704.242-.582-.02-.457-.378-.442-.71l.277-6.15c.091-2.02.179-4.043.277-6.06.013-.288-.099-.678.435-.654 2.301.118 4.632.05 6.756 1.226zM174.234 34.422c-.161 3.585-.313 7.17-.498 10.75-.027.536.095.691.64.696 1.189.006 2.379.06 3.564.164.584.05.731-.13.75-.69.079-2.43.232-4.857.298-7.287.018-.713.205-.929.939-.882 2.548.159 5.101.233 7.65.379.618.034.928-.03.9-.772-.036-1.008.034-2.027.13-3.032.058-.613-.047-.845-.748-.86-2.553-.06-5.101-.23-7.653-.308-.708-.021-1.05-.142-.935-.97.131-.942.161-1.906.133-2.859-.021-.745.241-.903.948-.864 2.869.166 5.74.262 8.606.412.48.024.661-.073.671-.585.013-1.128.061-2.258.166-3.381.053-.572-.151-.666-.661-.69a1411.5 1411.5 0 01-13.653-.615c-.612-.03-.762.122-.786.723-.123 3.563-.3 7.116-.461 10.67z" fill="#0C1F3F"/>
    <path d="M209.508 54.772c-9.624-.41-19.251-.85-28.875-1.285-9.188-.414-18.38-.832-27.569-1.24-.721-.032-1.659-.305-2.111.038-.533.408-.223 1.404-.267 2.143-.085 1.502-.177 1.212 1.197 1.277 18.522.846 37.049 1.677 55.572 2.512.752.034 1.508.044 2.258.112.471.042.609-.139.612-.58.003-.666-.005-1.34.1-1.994.131-.793-.182-.953-.917-.983z" fill="#C10443"/>
    <path d="M204.479 47.051c2.285-.121 4.33-.967 5.982-2.622.329-.329.409-.522-.022-.858a67.269 67.269 0 01-2.988-2.51c-.315-.276-.483-.328-.828.004-1.92 1.833-4.564 2.146-6.892.868-2.697-1.48-3.984-4.819-3.134-8.118 1.297-5.019 6.849-6.716 10.659-3.244.281.257.404.175.636.015.771-.53 1.557-1.034 2.323-1.567 1.488-1.03 1.485-1.038.105-2.242-.066-.057-.142-.098-.211-.149-2.413-1.886-5.18-2.422-8.177-2.234-6.191.383-10.45 4.678-10.694 10.998-.141 2.145.281 4.342 1.546 6.3 2.749 4.242 6.882 5.618 11.695 5.36z" fill="#0C1F3F"/>
    <path d="M210.159 61.343c.044-1.275.232-1.138-1.115-1.198-19.159-.867-38.318-1.728-57.48-2.592-.146-.006-.293 0-.435-.023-.44-.064-.629.108-.629.563-.004.693-.012 1.393-.097 2.08-.084.655.127.82.783.847 9.683.413 19.364.856 29.045 1.292v.007l6.087.274c7.651.345 15.303.69 22.957 1.049.588.026.863-.104.824-.745-.031-.51.043-1.034.06-1.553zM209.696 49.39c-18.789-.826-37.574-1.677-56.363-2.513-.745-.034-1.699-.403-2.18.054-.47.451-.115 1.433-.241 2.168-.143.833.093 1.115 1.008 1.153 9.598.395 19.194.842 28.791 1.274v.004l28.354 1.278c1.476.066 1.476.07 1.54-1.446.015-.32-.011-.647.054-.953.177-.831-.205-.988-.963-1.019z" fill="#C10443"/>
    <path d="M276.329 51.442c.064-.21-.135-.328-.29-.356-.581-.108-.502-.519-.48-.929.057-1.098.133-2.196.125-3.294-.008-.796-.171-1.578-1.07-1.897-.882-.315-1.787-.044-2.41.71-.105.128-.206.263-.325.414-.812-1.733-2.106-1.886-3.717-.41-.048-1.194-.048-1.194-1.17-.946a5.888 5.888 0 00-.421.11c-.155.048-.375.014-.399.247-.025.247.189.267.348.281.462.041.445.343.43.682-.061 1.184-.118 2.37-.164 3.555-.019.492.053 1.018-.669 1.091-.141.014-.266.137-.206.317.064.183.237.12.369.129.52.03 1.044.067 1.565.067.245 0 .598.187.716-.08.151-.336-.25-.365-.452-.483-.176-.1-.221-.24-.209-.434.058-1.126.064-2.257.18-3.377.082-.781.888-1.424 1.564-1.36.943.09 1.037.805 1.038 1.522.002.955-.062 1.907-.084 2.861-.01.441.025.885-.57 1-.127.026-.279.13-.212.314.021.059.121.124.188.13.84.046 1.68.083 2.52.121.065-.085.134-.17.199-.256-1.32-.27-.974-1.158-.946-1.922.019-.577.059-1.156.071-1.733.009-.418.135-.786.345-1.147.329-.57.797-.828 1.449-.693.665.139.863.648.861 1.232-.004 1.07-.066 2.138-.087 3.208-.009.424-.009.815-.555.913-.131.024-.275.123-.239.305.039.195.221.156.35.162.636.032 1.276.06 1.912.076.157 0 .381.099.445-.13zM227.134 44.134c-.092-1.82-.852-3.165-2.71-3.766-.913-.292-1.833-.229-2.755-.257-.636-.028-1.275-.064-1.911-.082-.157-.004-.376-.12-.455.102-.09.26.116.375.326.409.66.1.678.526.647 1.069a225.58 225.58 0 00-.254 5.637c-.019.583-.013 1.11-.817 1.105-.156 0-.339.13-.285.354.046.192.23.126.362.139.981.088 1.963.214 2.947.248 1.241.046 2.513-.111 3.453-.952 1.151-1.036 1.53-2.477 1.452-4.006zm-1.767 2.387c-.621 1.54-2.361 2.33-3.949 1.885-.37-.105-.33-.327-.318-.588l.149-3.29c.049-1.096.112-2.194.141-3.29.009-.357.118-.502.485-.546 1.839-.213 3.348.864 3.773 2.695.251 1.082.125 2.13-.281 3.134zM292.16 57.672c-1.063-.388-1.921-.104-2.676.923-.106-1.286-.105-1.286-1.262-1.03-.169.037-.338.08-.507.127-.141.038-.294.1-.305.265-.008.18.146.242.296.238.584-.014.529.364.508.76-.094 1.852-.177 3.7-.25 5.553-.02.505.006.996-.676 1.084-.137.017-.281.103-.228.292.056.196.236.126.362.135.608.038 1.216.072 1.826.083.208.002.524.17.605-.13.078-.285-.254-.317-.447-.424-.595-.34-.301-.897-.227-1.315.082-.455.477-.077.707-.04 1.924.325 3.357-.695 3.676-2.634a6.753 6.753 0 00.07-1.557c-.068-1.05-.379-1.93-1.472-2.33zm-.126 4.834c-.187.433-.476.794-.901 1.013-1.026.531-1.955-.024-1.908-1.14l.043-.95.027.002c.026-.573-.002-1.16.091-1.723.147-.91.718-1.401 1.491-1.4.791.001 1.321.484 1.477 1.402.161.959.068 1.9-.32 2.796zM262.73 44.182c-.827-.004-1.451.288-1.644 1.17-.271.038-.308-.113-.264-.339.163-.822-.268-.848-.877-.658-.248.078-.506.124-.757.18-.138.032-.295.045-.321.23-.025.193.111.26.257.267.633.025.528.462.51.866-.068 1.441-.113 2.883-.199 4.327-.052.871.226 1.866-1.099 2.46 1.014.045 1.724.087 2.436.102.18.005.45.14.52-.133.062-.248-.18-.314-.374-.384-.762-.275-.365-.9-.325-1.333.047-.528.508-.16.748-.123 1.56.237 2.741-.267 3.331-1.559.537-1.172.556-2.419.202-3.64-.271-.944-1.067-1.429-2.144-1.433zm.6 5.216c-.464.84-1.417 1.12-2.332.779-.395-.147-.396-.426-.378-.761.075-1.36.025-2.732.476-4.044.163.083.235-.074.343-.14.971-.606 1.966-.286 2.25.804.3 1.146.227 2.301-.359 3.362zM220.163 28.621c.681.088.66.543.63 1.065-.091 1.56-.151 3.12-.214 4.68-.032.774.088 1.527.708 2.061.957.835 2.1 1.257 3.342.919 1.462-.396 2.222-1.446 2.284-2.98.057-1.418.152-2.83.178-4.247.012-.563.066-1.013.72-1.157.141-.03.399-.073.328-.311-.051-.172-.257-.199-.438-.203-.636-.026-1.274-.068-1.911-.08-.174-.004-.437-.142-.502.165-.051.245.212.288.33.314.995.235.784.983.75 1.668a442.458 442.458 0 00-.161 3.643c-.015.407-.08.802-.224 1.186-.344.92-1.236 1.341-2.441 1.158-1.083-.165-1.712-.801-1.696-1.827.025-1.62.146-3.236.151-4.857.002-.802.309-1.182 1.122-1.166-.107-.338-.259-.44-.535-.445-.783-.012-1.564-.07-2.347-.096-.153-.003-.393-.116-.441.11-.048.235.154.373.367.4zM232.477 37.343c.708.096 1.261.753 2.01.532.921.202 1.664-.176 2.362-.624 1.201-.772 1.382-2.313.436-3.382-.451-.507-1.036-.825-1.618-1.154-.552-.31-1.129-.588-1.549-1.093-.397-.48-.455-1.016-.172-1.537.378-.693 1.057-.71 1.753-.645.546.052.977.16 1.135.82.092.381-.029 1.106.432 1.08.447-.028.314-.765.465-1.18.257-.695-.032-1.088-.757-1.196-.89-.135-1.785-.311-2.68-.1-.662.157-1.287.343-1.498 1.166-.444 1.764-.16 2.49 1.549 3.445.528.295 1.068.575 1.571.906.615.405.91.973.645 1.715-.246.69-1.083 1.107-2.014 1.051-.751-.044-1.161-.395-1.245-1.167-.044-.386-.06-1.012-.437-1.043-.513-.043-.283.613-.457.918-.192.327-.16.662-.206 1-.038.243.075.462.275.488zM288.682 48.19c-.014.838-.079 1.675-.096 2.514-.01.448-.002.873-.583.986-.086.017-.208.154-.212.239-.005.186.165.19.315.197.666.03 1.333.064 1.999.09.136.006.31.075.38-.098.084-.21-.067-.346-.239-.385-.546-.116-.523-.496-.506-.93.046-1.184.192-2.367.068-3.552-.122-1.15-.709-1.66-1.866-1.763-.907-.081-1.505.408-2.086 1.055-.143-1.27-.143-1.274-1.4-.977-.114.025-.222.068-.335.09-.169.036-.374.048-.36.28.009.173.184.212.327.215.508.012.5.328.479.711-.066 1.183-.12 2.367-.156 3.551-.016.506.006.996-.679 1.078-.137.017-.264.117-.225.306.037.164.175.12.277.124.724.036 1.449.069 2.173.098.102.005.236.055.294-.095.069-.174-.034-.3-.172-.338-.63-.17-.533-.652-.509-1.114.042-.78.064-1.56.109-2.34.063-1.098.822-1.903 1.754-1.875.861.036 1.269.649 1.249 1.933zM304.014 35.144c.611-.014.586.38.56.817-.063 1.01-.129 2.023-.134 3.035-.002.741-.01 1.427-.91 1.662a.602.602 0 00.012.13l2.73.123c-.805-.363-.804-.981-.735-1.671.074-.748.057-1.503.115-2.255.069-.918.829-1.676 1.661-1.706.84-.027 1.369.401 1.307 1.554-.073 1.397.685 3.022-.928 4.18l2.782.125.192-.179c-1.312-.3-.94-1.218-.922-1.999.016-.811.097-1.62.072-2.43-.042-1.483-.927-2.183-2.403-2.022-.682.075-1.06.609-1.59.955-.161-1.203-.161-1.203-1.381-.888-.141.038-.283.069-.418.114-.134.045-.293.075-.264.273.017.147.138.187.254.182zM273.687 61.067c-.385-.075-.354.368-.487.597-.247.42-.259 1-.968 1.064-1.584.146-2.928-.659-3.456-2.164-.432-1.223-.359-2.464.069-3.654.581-1.622 1.845-2.286 3.568-2.038.399.059.614.197.716.596.121.485.217.992.635 1.555.307-.765.309-1.403.385-2.029.047-.368-.192-.443-.444-.52-2.638-.812-6.096-.45-6.487 3.838-.215 2.362.703 4.127 2.597 4.762.913.307 1.87.39 2.833.27 1.274-.156 1.397-.303 1.234-1.599-.034-.232.113-.616-.195-.678zM274.534 34.95c-.073.805-.076 1.618-.116 2.428-.039.79.213 1.712-.915 2.09l2.747.123c-.002-.55-.761-.35-.719-.909.082-1.124.072-2.26.19-3.38.077-.717.892-1.336 1.595-1.369.636-.029 1.195.251 1.215.864.052 1.65.614 3.402-.727 4.943.789.035 1.588.075 2.388.104.132.006.314.062.337-.151.018-.176-.128-.264-.27-.291-.598-.112-.538-.534-.528-.982.028-1.212.232-2.427.055-3.641-.145-1.003-.651-1.437-1.641-1.604-1.002-.167-1.698.322-2.28.975-.322-.344.248-.964-.33-1.058-.616-.1-1.277.044-1.953.605 1.066.02 1.012.606.952 1.253zM335.644 65.804c-.717-.114-.595-.625-.573-1.117.051-1.04.138-2.08.11-3.118-.041-1.507-1.043-2.253-2.507-1.989-.67.123-1.048.643-1.531 1.09-.077-1.39-.091-1.398-1.426-1.023-.083.024-.166.054-.252.074-.179.043-.353.106-.325.325.023.17.198.21.338.206.556-.013.468.357.452.706-.056 1.184-.106 2.368-.16 3.555-.021.458.059.964-.638 1.008-.127.008-.274.106-.255.294.016.164.146.15.258.154.82.04 1.643.075 2.469.112.023-.648-.798-.43-.747-1.033.096-1.066.069-2.142.175-3.204.082-.829.892-1.489 1.672-1.495.675-.003 1.213.32 1.214.98.002 1.61.707 3.359-.848 4.818.85.038 1.622.076 2.398.104.132.006.303.069.366-.119.062-.17-.048-.305-.19-.328zM252.335 38.422c.062-.184-.088-.256-.214-.32-.257-.13-.491-.215-.464-.608.083-1.067.077-2.141.176-3.207.074-.823.883-1.463 1.693-1.44.78.025 1.202.476 1.246 1.463.036.722-.021 1.447-.06 2.17-.041.752.206 1.623-.776 2.085l2.656.12c-1.042-.526-.699-1.425-.676-2.226.023-.896.135-1.792-.002-2.685-.174-1.13-.688-1.58-1.831-1.71-.942-.108-1.559.408-2.216 1.157.016-.346.01-.52.035-.692.064-.449-.059-.672-.562-.542-.417.11-.844.194-1.267.29-.117.025-.221.072-.228.214-.01.153.097.202.216.2.737-.018.633.48.608.952-.048.837-.062 1.68-.12 2.516-.058.82.286 1.825-1.095 2.075.058.067.12.134.178.202.782.035 1.561.073 2.343.102.122.005.296.074.36-.116zM250.213 61.82c-.673-.115-.562-.596-.545-1.06.046-1.1.103-2.198.094-3.297-.008-.724-.265-1.374-.997-1.693-.829-.36-1.631-.328-2.379.24-.211.16-.301.489-.673.5.001-.259-.009-.487.001-.714.011-.244-.056-.41-.334-.359-.482.094-.963.198-1.443.32a.354.354 0 00-.221.23c-.026.118.089.222.215.218.686-.03.604.421.581.872a143.48 143.48 0 00-.153 3.47c-.015.479.005.942-.649 1.004-.13.014-.286.075-.254.274.027.16.164.14.269.148.82.04 1.636.077 2.455.114.011-.078.021-.155.035-.236-.307-.215-.775-.273-.744-.812.065-1.068.069-2.141.169-3.208.079-.842.948-1.527 1.76-1.487.765.038 1.151.477 1.203 1.509.038.75-.013 1.502-.05 2.254-.037.73.187 1.582-.913 1.886.906.296 1.769.199 2.612.264.057.006.159-.07.179-.131.066-.184-.096-.287-.218-.306zM236.053 61.192c-.666-.111-.566-.586-.549-1.054.043-1.096.12-2.197.077-3.294-.046-1.174-.574-1.711-1.634-1.912-1.004-.188-1.714.283-2.4 1.156-.029-1.337-.029-1.337-1.207-1.115-.059.011-.12.002-.172.02-.211.075-.533.047-.586.3-.074.353.278.267.473.324.145.04.242.065.233.268-.062 1.39-.091 2.783-.157 4.174-.018.39-.1.787-.628.838-.082.006-.207.143-.214.232-.016.186.154.207.3.214.578.026 1.159.065 1.738.071.215.003.521.156.631-.087.133-.3-.212-.356-.4-.436-.24-.106-.263-.277-.254-.487.052-1.069.063-2.142.162-3.205.08-.876.879-1.513 1.733-1.485.807.026 1.214.517 1.211 1.57-.003 1.04-.081 2.08-.1 3.12-.006.363-.096.607-.481.688-.127.028-.299.065-.281.26.022.204.197.175.329.18.694.035 1.391.067 2.085.094.133.006.304.055.344-.147.036-.196-.128-.268-.253-.287zM224.292 52.01c-1.711-.058-3.421-.148-5.132-.225-.166-.008-.379-.055-.41.188-.021.163.13.271.266.298.628.117.602.547.576 1.042-.107 1.993-.19 3.988-.276 5.983-.023.491.043 1.01-.679 1.06-.14.01-.284.116-.278.283.009.187.172.198.318.205.84.038 1.68.079 2.523.113.136.007.305.045.354-.143.045-.175-.085-.297-.221-.313-.996-.12-.807-.835-.771-1.479.031-.55.049-1.099.077-1.648.008-.166-.022-.348.17-.451.51-.276 2.19.19 2.423.694.059.128.048.287.242.282.256-.009.238-.217.249-.376.036-.654.062-1.306.095-2.035-.625.108-.53.809-1.011.804-.664-.006-1.415.1-1.958-.176-.396-.202-.103-.96-.077-1.465.038-.682-.25-1.63.232-1.975.451-.322 1.335-.041 2.026-.027.115.002.231.017.347.012.28-.011.35.165.477.382.202.349.026 1.085.547 1.01.37-.055.184-.76.281-1.166.025-.111.01-.231.032-.346.067-.347-.007-.52-.422-.532zM284.935 39.008c.264 1.249.892 1.379 2.171.376-1.213.064-.98-.703-.948-1.34.045-.923.134-1.844.165-2.767.025-.685-.1-1.39-.792-1.697-1.086-.48-2.218-.392-3.273.11-.592.283-.145.813-.134 1.232.005.197.019.493.262.477.389-.027.381-.449.522-.71.209-.385.257-.866.921-.843 1.037.04 1.411.523 1.342 1.835-.024.45-.133.68-.653.647a5.453 5.453 0 00-2.054.278c-.809.262-1.276 1.094-1.142 1.912.136.836.723 1.338 1.597 1.442.861.1 1.461-.342 2.016-.952zm-.676.034c-.581.35-1.281.156-1.553-.393-.318-.647-.086-1.421.545-1.665.312-.122.669-.163 1.007-.185.844-.057.844-.047.796.855.051.62-.273 1.075-.795 1.388zM241.908 59.74c.056-.722.133-1.439.165-2.161.086-1.828-.792-2.612-2.623-2.361-.288.038-.567.113-.852.162-.701.118-1.037.476-.78 1.198.091.256-.045.695.304.741.403.052.407-.413.528-.68.205-.453.352-.925 1.001-.886.459.028.853.134 1.088.573.246.46.183.95.167 1.442-.013.366-.182.498-.54.499-.637-.002-1.272.017-1.896.186-.77.21-1.284.65-1.379 1.47-.088.758.159 1.394.845 1.752.716.375 1.46.34 2.13-.152.232-.17.42-.4.662-.637.192 1.266.856 1.415 2.088.468-1.206-.085-.965-.893-.908-1.614zm-1.864 1.204c-.564.341-1.319.158-1.582-.36-.332-.654-.094-1.398.549-1.678.463-.204.957-.209 1.45-.187.64.026.225.527.331.668.075.758-.212 1.234-.748 1.557zM299.046 58.04c-2.333-.856-4.219.47-4.324 3.02-.076 1.93.688 3.104 2.228 3.418 2.286.463 3.965-1.025 3.852-3.432-.064-1.298-.351-2.49-1.756-3.006zm-.025 5.243c-.594 1.078-2.113.914-2.736-.229-.258-.474-.356-1.1-.311-2.022.028-.607.082-1.203.376-1.757.294-.561.749-.898 1.373-.897.606.004 1.156.27 1.42.84.624 1.363.598 2.765-.122 4.065zM323.888 59.238c-1.319.468-1.98 1.74-1.885 3.633.096 1.962 1.365 3.07 3.324 2.91 1.676-.139 2.627-1.262 2.725-3.215.127-2.675-1.754-4.18-4.164-3.328zm2.67 4.787c-.255.671-.646 1.19-1.407 1.204-.798.015-1.41-.397-1.679-1.146-.427-1.185-.349-2.388.132-3.546.237-.57.717-.919 1.351-.928.614-.01 1.109.26 1.439.803.409.674.447 1.413.418 2.214-.057.443-.076.928-.254 1.399zM298.755 40.63c2.274.493 3.785-.676 3.928-3.17.001-.082.001-.313-.009-.545-.069-1.566-.939-2.537-2.459-2.752-1.669-.234-2.956.479-3.408 1.971-.28.922-.299 1.876.023 2.812.323.922.973 1.478 1.925 1.684zm-.638-4.76c.289-.745.761-1.236 1.601-1.192.816.044 1.321.546 1.55 1.297.308 1.02.262 2.047-.097 3.05-.226.633-.588 1.12-1.349 1.136-.812.018-1.378-.35-1.706-1.08-.267-.592-.279-1.225-.25-1.944.047-.372.082-.826.251-1.267zM311.508 63.18c.055-.837.14-1.67.178-2.507.082-1.743-.749-2.525-2.492-2.328-.483.053-.963.194-1.436.326-.265.073-.464.24-.393.57.09.412-.035 1.072.336 1.167.518.132.536-.553.671-.904.254-.655.735-.674 1.266-.568.719.144.977.836.895 1.916-.05.644-.458.544-.85.556-.573.019-1.124.069-1.685.268-.963.344-1.458.967-1.312 1.898.137.88.836 1.465 1.763 1.473.79.008 1.382-.349 1.809-1.053.34.399-.095 1.059.479 1.102.553.042 1.174-.046 1.739-.649-1.115.035-1.01-.64-.968-1.267zm-1.636.755c-.457.384-.966.419-1.449.166-.462-.242-.556-.732-.46-1.207.11-.532.374-.955 1.012-.974.229-.006.459-.044.688-.077.638-.09.949.12.753.774.046.556-.136.976-.544 1.318zM312.893 41.301c.942.107 1.589-.333 2.097-1.17.069 1.499.532 1.656 2.162.628-1.124-.01-1.093-.617-1.025-1.293.078-.748.099-1.502.139-2.254.111-2.079-.479-2.67-2.56-2.552-.287.017-.572.08-.857.128-.728.123-1.065.485-.796 1.255.09.259.025.657.364.693.302.03.296-.364.421-.573.247-.41.244-1.022 1.012-.973 1.002.062 1.366.53 1.312 1.792-.022.495-.135.735-.702.689-.665-.054-1.335.065-1.974.257-.843.251-1.258.98-1.145 1.896.106.885.643 1.375 1.552 1.477zm.032-2.758c.527-.5 1.241-.46 1.894-.37.481.066.147.526.222.74.048.747-.29 1.215-.879 1.51-.53.27-1.055.205-1.38-.3-.341-.528-.327-1.132.143-1.58zM255.51 43.883c-1.5-.285-2.772.185-3.354 1.372-.611 1.247-.64 2.564-.071 3.85.312.705.897 1.115 1.635 1.305 2.293.592 3.903-.633 4.042-3.281-.004-.133.008-.482-.037-.825-.165-1.34-.945-2.18-2.215-2.42zm.988 3.62c-.041.393-.024.92-.254 1.4-.255.532-.56 1.007-1.24 1.055-.731.052-1.295-.222-1.683-.84-.553-.882-.458-3.213.157-4.076.687-.96 2.033-.883 2.664.161.409.675.406 1.422.356 2.3zM277.163 57.152c-1.314.492-1.983 1.872-1.823 3.765.146 1.754 1.182 2.728 2.942 2.77 1.855.043 2.999-1.132 3.098-3.194.137-2.723-1.791-4.248-4.217-3.34zm2.713 4.81c-.239.63-.63 1.13-1.354 1.162-.724.032-1.322-.291-1.62-.957-.572-1.283-.526-2.607.106-3.842.571-1.117 1.985-1.107 2.69-.05.46.688.476 1.463.444 2.247a4.343 4.343 0 01-.266 1.44zM261.8 56.51c-1.584-.985-3.685-.196-4.215 1.578-.289.97-.315 1.94.009 2.9.385 1.135 1.221 1.723 2.387 1.854.983.112 1.871-.072 2.565-.972-.397-.185-.567.046-.774.104-1.692.478-2.943-.33-3.14-2-.058-.472.106-.546.504-.525.985.055 1.968.092 2.955.134.251.01.501.073.626-.285.306-.887-.138-2.304-.917-2.787zm-.71 2.443c-.346-.033-.697-.035-1.044-.05-.058-.003-.119.008-.173-.008-.369-.13-.934.236-1.118-.306-.192-.57.41-1.596.974-1.788.633-.216 1.206-.146 1.597.473.242.385.232.823.239 1.262.002.347-.149.448-.475.417zM232.763 49.135c.266-.15.565-.29.61-.68-.381-.094-.675.144-1.001.21-1.49.307-2.668-.527-2.84-2.02-.048-.434.042-.63.541-.591.982.078 1.969.099 2.952.133.208.006.442.108.582-.205.322-.73-.134-2.324-.826-2.773-1.662-1.07-3.694-.364-4.272 1.503a5.71 5.71 0 00-.266 2.03c.1 2.167 2.527 3.507 4.52 2.393zm-2.204-5.68c.573-.252 1.148-.233 1.575.279.368.445.381 1.006.345 1.558-.015.271-.191.318-.415.304-.347-.019-.691-.03-1.038-.046-.085-.004-.177.009-.258-.012-.384-.099-.925.196-1.14-.262-.208-.455.43-1.602.931-1.82zM267.433 38.055c-.514.137-.888.273-1.276.334-1.421.221-2.493-.697-2.575-2.125-.025-.433.085-.543.507-.514.981.071 1.966.078 2.947.15.452.034.602-.116.649-.556.142-1.267-.264-2.234-1.176-2.649-1.122-.513-2.632-.261-3.385.561-1.061 1.159-1.082 3.822-.041 5 1.115 1.258 3.509 1.216 4.35-.2zm-2.203-5.034c.862.019 1.268.533 1.247 1.59.079 1.063-.819.802-1.282.774-.509-.033-1.485.528-1.493-.652-.004-1.047.657-1.73 1.528-1.712zM281.074 45.073c-1.538-.43-2.916.137-3.459 1.51-.446 1.128-.502 2.302-.033 3.458.46 1.132 1.398 1.582 2.533 1.647.873.05 1.712-.106 2.371-1.134-.566.158-.888.27-1.221.333-1.464.28-2.597-.586-2.736-2.04-.042-.44.035-.628.534-.585.981.078 1.966.079 2.947.15.435.033.6-.071.641-.538.133-1.497-.389-2.468-1.577-2.8zm.308 2.54c-.319.495-.959.028-1.376.141-.126-.005-.191.009-.241-.014-.364-.173-1.007.335-1.128-.38-.118-.703.492-1.63 1.109-1.782.603-.15 1.172-.07 1.492.543.248.47.412 1.072.144 1.491zM246.459 48.95c-.483.135-.802.25-1.135.313-1.444.278-2.553-.526-2.741-1.942-.063-.482-.018-.741.596-.676.95.097 1.916.062 2.866.153.482.045.586-.16.649-.56.187-1.21-.313-2.29-1.266-2.68-1.305-.528-2.848-.176-3.493.913-.823 1.384-.904 2.879-.123 4.3.892 1.618 3.638 1.786 4.647.18zm-2.596-5.01c.705-.139 1.269.06 1.529.789.057.162.059.343.096.51.148.663.043 1.097-.798.93-.226-.044-.462-.028-.694-.038-.057-.003-.123.015-.173-.008-.37-.173-1.01.325-1.139-.357-.138-.72.543-1.702 1.179-1.826zM245.344 37.933c-.024.002-.035.1-.099.305.993.045 1.915.09 2.836.124.164.008.392.093.465-.108.102-.284-.198-.366-.354-.383-.661-.077-.635-.494-.609-.996.107-1.993.2-3.984.263-5.98.018-.55.094-.96.747-1.01.164-.012.377-.04.344-.286-.031-.24-.247-.202-.41-.21a179.77 179.77 0 00-2.347-.105c-.183-.005-.445-.108-.489.189-.03.223.189.277.351.305.616.102.639.497.605 1.012-.106 1.76-.179 3.523-.248 5.284-.03.811.101 1.694-1.055 1.86zM238.001 49.117c.169-.428.332-.87.568-1.263.856-1.44.93-3.32 2.562-4.374-.588-.254-1.145-.143-1.678-.191-.18-.015-.44-.142-.546.09-.128.284.163.328.327.396.294.122.273.288.166.541-.535 1.288-1.057 2.583-1.643 4.028-.422-1.236-.796-2.313-1.149-3.392-.198-.604-.698-1.293.356-1.71l-2.676-.121c1.049.625 1.01 1.782 1.398 2.697.447 1.06.792 2.163 1.217 3.235.095.24.074.63.461.657.401.028.514-.286.637-.593zM316.638 64.56c-1.289.02-1.553-.23-1.528-1.48.017-.665.05-1.33.09-1.994.03-.518-.094-1.163.168-1.518.254-.346.922-.047 1.407-.073a.378.378 0 01.088.004c.278.04.347-.127.36-.357.014-.224-.098-.31-.306-.317-.231-.007-.467-.055-.694-.024-.788.104-1.011-.236-.893-.978.038-.24.272-.736-.257-.722-.361.007-.882.137-.851.672.031.589-.165.93-.749 1.036-.182.033-.349.12-.339.332.012.262.246.215.397.201.619-.05.609.317.578.77-.069 1.099-.105 2.198-.152 3.297-.03.75.006 1.469.846 1.812.793.325 1.761.083 2.437-.634-.224-.01-.414-.029-.602-.027zM255.348 57.215c.112.322.037.92.488.89.373-.025.367-.586.434-.94.063-.333.479-.709-.177-.99-1.534-.657-3.303-.342-4.104.8-.921 1.315-.808 3.703.179 4.797.999 1.113 3.663 1.134 4.003-.217-.05-.019-.109-.063-.151-.047-1.475.524-2.433.298-3.041-.729-.624-1.048-.435-3.19.347-3.92.78-.73 1.705-.552 2.022.356zM288.162 34.398c.638-.083.6.303.573.74a149.756 149.756 0 00-.156 3.555c-.023.654.172 1.244.847 1.458.904.286 1.743.12 2.406-.693-.168.026-.333.066-.501.083-1.225.11-1.599-.215-1.585-1.431.006-.666.047-1.33.083-1.995.027-.519-.11-1.17.154-1.516.246-.321.925-.033 1.413-.048a.378.378 0 01.088.004c.261.035.362-.082.373-.337.012-.26-.085-.37-.344-.369-.201.002-.411-.042-.609-.02-.775.09-1.096-.196-.947-.998.037-.209.259-.678-.236-.65-.363.022-.904.096-.865.648.041.614-.227.89-.772 1.026-.172.04-.343.144-.322.352.019.249.249.208.4.191zM294.653 51.728c-1.138-.004-1.401-.216-1.429-1.339-.019-.721.044-1.442.077-2.165.071-1.505.071-1.505 1.585-1.597.027-.002.058.003.088.004.268.033.356-.106.371-.354.014-.244-.134-.291-.324-.3-.231-.01-.468-.055-.694-.024-.806.113-1.011-.246-.9-.986.035-.236.272-.738-.222-.737-.385.003-.923.152-.889.742.037.555-.168.855-.714.963-.155.03-.366.096-.365.313-.002.259.224.235.378.218.599-.061.632.267.604.741a61.832 61.832 0 00-.151 3.725c-.002 1.097.632 1.633 1.729 1.55.585-.046 1.112-.25 1.622-.679-.317-.208-.548-.072-.766-.075zM257.734 33.007c.634-.077.607.299.58.743a97.987 97.987 0 00-.149 3.47c-.018.699.132 1.372.913 1.59.875.244 1.696.09 2.46-.602-.311-.208-.489-.036-.681-.024-1.171.07-1.522-.245-1.503-1.43.01-.666.057-1.33.09-1.995.026-.492-.104-1.079.12-1.45.302-.495.947-.069 1.435-.149.055-.007.116.002.173.001.236-.01.254-.178.279-.357.031-.23-.088-.31-.289-.323-.231-.014-.468-.055-.694-.028-.781.104-1.022-.222-.89-.97.042-.237.219-.701-.182-.716-.381-.014-.961.082-.96.653.005.582-.174.917-.752 1.034-.171.033-.347.144-.342.341.002.252.238.228.392.212zM285.953 57.487c-.57.09-.896.599-1.34.83-.422-.236.21-.942-.464-.955-.48-.008-.965.164-1.444.274a.397.397 0 00-.228.221c-.05.127.068.245.173.243.757-.014.601.51.581.954-.049 1.156-.104 2.313-.153 3.47-.019.41.01.833-.591.856-.136.005-.292.127-.272.287.027.25.258.185.414.192.697.038 1.391.07 2.088.091.16.004.395.1.449-.123.063-.258-.185-.355-.375-.377-.556-.062-.602-.394-.564-.858.067-.806.083-1.617.119-2.428.065-1.366.431-1.693 1.809-1.655.238.008.602.187.691-.125.069-.242-.045-.583-.181-.82-.152-.266-.465-.117-.712-.077zM318.973 34.479c-.128 1.697-.184 3.4-.24 5.1-.024.74.042 1.488-.913 1.727-.01.003.006.099.007.156l2.788.126c-1.105-.505-.743-1.43-.71-2.234.081-2.019.185-4.036.262-6.055.008-.248.199-.698-.248-.684-.659.018-1.37 0-2.128.71 1.184-.11 1.239.412 1.182 1.154zM249.706 41.321c-.622.047-1.245.107-1.931.508 1.101.454 1.101.454 1.05 1.58-.082 1.821-.174 3.642-.243 5.464-.018.482.006.938-.652 1-.126.012-.293.086-.264.277.032.202.207.163.34.169.724.039 1.448.068 2.173.1.142.007.319.026.324-.168.004-.085-.112-.236-.193-.253-.705-.151-.562-.678-.54-1.16.102-2.282.205-4.568.291-6.852.012-.261.23-.707-.355-.665zM269.599 34.761c-.08.775-.074 1.557-.119 2.337-.047.803.217 1.753-.929 2.146l3.013.136c-1.541-.515-.849-1.73-.898-2.684-.014-.286.023-.577.036-.865.072-1.601.302-1.853 1.909-1.76.724.043.67-.275.542-.75-.146-.54-.557-.426-.916-.33-.558.148-.936.593-1.338.962-.283-.37.246-.998-.319-1.085-.619-.096-1.289.03-1.952.602 1.051.034 1.042.618.971 1.291zM305.336 58.354c-.581.12-.956.58-1.457 1.026-.016-.324-.043-.543-.03-.76.016-.281-.051-.464-.377-.404a29.42 29.42 0 00-1.355.279.425.425 0 00-.245.21c-.071.136.067.244.159.245.862.011.609.625.595 1.09a65.216 65.216 0 01-.112 2.422c-.053.796.271 1.772-1.066 2.008l.173.18c.104.026.212.065.317.07.752.037 1.503.07 2.255.098.132.006.317.072.363-.123.054-.215-.118-.335-.287-.353-.709-.07-.675-.533-.634-1.058.061-.749.064-1.5.105-2.249.073-1.4.407-1.694 1.809-1.658.238.007.588.176.698-.132.07-.208-.039-.512-.144-.74-.165-.351-.502-.207-.767-.15zM293.61 35.919c-.021.78-.057 1.557-.102 2.337-.045.78.233 1.71-.904 2.076l2.849.129c-1.143-.426-.781-1.344-.753-2.124.044-1.27.115-2.54.165-3.81.012-.268.135-.643-.354-.6-.588.048-1.178.117-1.959.68 1.422-.103 1.076.697 1.058 1.312zM320.083 62.989c.007-.924.073-1.85.114-2.772.075-1.587-.113-1.718-1.625-1.14-.052.021-.12.022-.162.057-.201.15-.284.402.029.41.765.023.586.525.57.96-.041.98-.106 1.962-.126 2.944-.015.716.051 1.443-.889 1.649-.006 0 .009.102.024.225.924-.01 1.85.172 2.887-.023-1.321-.464-.826-1.471-.822-2.31zM228.075 60.829c-.609-.092-.567-.508-.543-.966.088-1.56.155-3.12.215-4.68.009-.214.177-.6-.289-.54-.484.06-.963.184-1.438.302a.383.383 0 00-.229.224c-.039.121.065.231.191.23.822-.017.616.558.595 1.02-.036.867-.092 1.732-.111 2.6-.017.836.106 1.732-1.083 1.89-.007-.001-.006.05-.028.243.894.04 1.754.082 2.615.114.133.006.304.058.351-.144.043-.195-.121-.274-.246-.293zM240.272 38.03c.474.012.828-.217.844-.794.016-.505-.229-.812-.759-.853-.553-.046-.908.18-.957.745-.049.559.241.86.872.903zM229.662 37.488c.603.22.973-.266 1.016-.695.043-.423-.289-.853-.915-.877-.578-.023-.868.15-.884.731-.013.506.06.938.783.84zM319.739 57.845c.45-.017.801-.165.828-.68.031-.542-.295-.795-.788-.82-.517-.027-.808.242-.818.775-.007.526.333.68.778.725zM294.397 32.977c.471 0 .773-.203.788-.699.022-.553-.331-.739-.738-.774-.555-.008-.852.213-.863.702-.014.536.302.768.813.77zM226.484 52.886c-.015.496.27.74.791.678.522.14.775-.196.798-.62.029-.481-.257-.803-.806-.794-.491.005-.768.264-.783.736z" fill="#0C1F3F"/>
  </g>
  <defs>
    <filter id="filter0_d" x=".426" y=".985" width="353.688" height="83.528" filterUnits="userSpaceOnUse" color-interpolation-filters="sRGB">
      <feFlood flood-opacity="0" result="BackgroundImageFix"/>
      <feColorMatrix in="SourceAlpha" values="0 0 0 0 0 0 0 0 0 0 0 0 0 0 0 0 0 0 127 0"/>
      <feOffset dx="4" dy="4"/>
      <feGaussianBlur stdDeviation="4"/>
      <feColorMatrix values="0 0 0 0 0 0 0 0 0 0 0 0 0 0 0 0 0 0 0.25 0"/>
      <feBlend in2="BackgroundImageFix" result="effect1_dropShadow"/>
      <feBlend in="SourceGraphic" in2="effect1_dropShadow" result="shape"/>
    </filter>
  </defs>
</svg>
