<svg xmlns="http://www.w3.org/2000/svg" viewBox="0 0 169.55 75.25">
  <defs/>
  <defs>
    <style>
			.cls-2 { fill: #4fa04d; }
			.cls-3 { fill: #fefefe; }
			.cls-4 { fill: #80ef87; }
			.cls-5 { fill: #fdfefd; }
			.cls-6 { fill: #fe6156; }
			.cls-7 { fill: #13245a; }
			.cls-8 { fill: #fe6155; }
			.cls-9 { fill: #14245a; }
			.cls-10 { fill: #50a04e; }
			.cls-11 { fill: #a6cea7; }
    </style>
  </defs>
  <g id="Layer_2" data-name="Layer 2">
    <g id="Layer_1-2" data-name="Layer 1">
      <path d="M169.55 50.68h-6.31c-2.94.07-5.89.16-8.82.35-2.71.17-5.42.45-8.12.75-3.89.43-7.76 1-11.61 1.72a315.75 315.75 0 00-18.24 3.82.43.43 0 01-.46-.15l-2.2-2.25h-.07V58l-2.67.66c-4.4 1.13-8.81 2.25-13.21 3.39C93.9 63 90 64.1 86 65.09q-8.76 2.19-17.53 4.29c-2.27.54-4.54 1-6.83 1.5s-4.76.91-7.14 1.37a.25.25 0 01-.33-.16c-.08-.16-.26-.26-.38-.4s-.28-.4-.47-.49a1.71 1.71 0 01-.6-.56c-.25-.34-.53-.22-.83-.18s-.89.16-1.33.22a.35.35 0 00-.33.28l-.66 1.92a.32.32 0 01-.3.24c-2.58.34-5.16.71-7.74 1-1.65.21-3.31.35-5 .53-.5 0-1 .09-1.51.17-.26 0-.29-.21-.47-.26s-.07-.09-.1-.13a1.51 1.51 0 00-.09.18 1.27 1.27 0 000 .22c-1 0-1.92.11-2.88.15l-4.14.18a.22.22 0 00-.11 0h-7a1.74 1.74 0 00-.18-.33c-.16-.17-.34-.31-.51-.47l-.48-.36-.55-.56c-.17-.18-.31-.37-.48-.54s-.36-.31-.53-.48l-.47-.45-.55-.56-.66-.68-.45-.49-1.12-1.14-2.74-2.75-1.28-1.27-1-1-1.65-1.65c-.28-.27-.59-.51-.87-.78s-.22-.31-.35-.45l-.8-.79a1.52 1.52 0 01-.44-.5c0-.07-.23-.12-.32-.25s-.37-.37-.55-.56l-.49-.45-.52-.48-.69-.73-.73-.77-.46-.45-.74-.73L.11 55a.44.44 0 01-.1-.16.61.61 0 010-.19V24.14h5.06c2.16-.05 4.31-.18 6.46-.23a17.18 17.18 0 018.12 1.45 9.91 9.91 0 012.91 2.11l1.29 1.31.56-1.52 1.66-4.64a.34.34 0 01.32-.29c3-.49 6-1 9-1.51l.83-.14.92.78a2.26 2.26 0 01.16.26c.12.16.16.4.46.37.09 0 .2.21.29.33s.08.29.29.23c.06.44.58.46.74.84s.42.43.64.66a2.72 2.72 0 01.25.32.88.88 0 00.53.43c.13 0 .24.21.34.34a2.91 2.91 0 00.29.37v-5.7c0-.17 0-.26.21-.31 3.79-.85 7.57-1.73 11.36-2.55a14.67 14.67 0 017.27.08l.51.16.49.17v-2.2c0-.21 0-.3.27-.36L84.07 9c2-.51 3.9-1 5.85-1.48a.57.57 0 01.59.19c.44.45.85.93 1.29 1.38.29.29.61.55.93.84V6.81c1-.24 2-.49 3.06-.71 3.58-.8 7.15-1.65 10.74-2.36 3.9-.77 7.83-1.42 11.75-2.09 1.73-.3 3.47-.55 5.21-.78s3.2-.36 4.8-.52c1.29-.13 2.58-.27 3.88-.33a14.53 14.53 0 017.05 1.34 10.92 10.92 0 013 2.1l20.46 20.46a11.18 11.18 0 013.18 6.58 13.05 13.05 0 01-.34 5.56 11.85 11.85 0 01-1.92 3.78.26.26 0 000 .34l5.88 10.28a.87.87 0 00.09.11zM66.3 26.45l-.06-.06a1.08 1.08 0 00-.11-.18c-1.39-1.39-2.76-2.8-4.13-4.21a6.85 6.85 0 00-1.48-1 9.34 9.34 0 00-6-.82c-1 .15-2 .41-3.06.63-2.31.53-4.62 1.07-6.94 1.58-.24.06-.32.14-.32.38v11.52h-.07l-4.5-4.5a4 4 0 00-.33-.24 7.31 7.31 0 00-.52-.59c-.58-.59-1.18-1.16-1.77-1.75l-1.29-1.31-1.32-1.29a.31.31 0 00-.22-.11l-1.63.29c-1.31.22-2.63.43-3.94.66a.37.37 0 00-.24.2l-2.14 5.94-1.14 3.13-.38-.33-.07-.07-.1-.08h-.06a1.38 1.38 0 00-.17-.25l-4-4a7.74 7.74 0 00-3-1.86 15.41 15.41 0 00-5.8-.71c-1.32.06-2.63.13-3.94.17s-2.79 0-4.18.06H3.1v24.03a1.35 1.35 0 00.48 1c.36.4.78.75 1.17 1.12l.73.72.88.86 1.16 1.18c.23.24.45.51.67.76l1.16.98 2.19 2.19 1.69 1.66.12.12a1.13 1.13 0 00.12.18l1.3 1.26 3.3 3.29a2.91 2.91 0 00.46.32c.23.27.45.53.7.79l.73.72.7.7.92.93.64.68c.22.22.64.67 1 1a.71.71 0 00.52.26c1.82-.06 3.65-.09 5.47-.13.68 0 1.37-.06 2.07-.1v-.37-5.22c0-.22.07-.28.29-.3q1-.09 1.95-.24c.1 0 .3 0 .28-.18l.08.08.12.06a2.09 2.09 0 00.22.2c.13.09.2.28.42.22v.15c0 .02.24.19.36.29a1.1 1.1 0 01.22.21c.09.11.14.29.25.34s.34.39.55.53a.7.7 0 01.26.28 1 1 0 00.37.35c.12.06.15.18.23.26a4.79 4.79 0 00.55.46 1.52 1.52 0 01.22.22c.09.11.14.28.25.33s.36.37.55.53.22.1.25.28.22.13.33.21a1.08 1.08 0 01.24.28c.11.15.19.34.43.31l2-.22 5.3-.67a.35.35 0 00.31-.27c.18-.55.39-1.08.55-1.63a.68.68 0 01.64-.56c1.93-.29 3.86-.63 5.79-.94a.39.39 0 01.3.06c.55.53 1.09 1 1.61 1.61a.31.31 0 00.35.12l5.45-1.1 2-.42-.24-.6c-.19-.44-.19-.44-.1-.53l1 1 7.79-1.77V61a2.11 2.11 0 01.35.26q1.59 1.56 3.15 3.15a.41.41 0 00.46.12L82.67 63l2.65-.69-.45-.71-4-6a.29.29 0 010-.43c.29-.31.57-.65.85-1h.07l1.84 1.85a2.46 2.46 0 00.39.22 2.12 2.12 0 00.26.38 6.46 6.46 0 01.71.67c.08.11.19.13.26.22s.13.3.24.34c.34.12.45.48.75.65s.46.52.69.77.52.53.78.79l.25.24.34.33c.08.08.14.24.23.26s.29.26.41.42l7.87-2.06c.18-.05.21-.13.21-.29v-2.48-4.58c.21.21.42.42.64.61a.78.78 0 00.28.11.59.59 0 00.06.2l.37.32c.21.23.42.47.64.69l.77.74c.22.22.41.45.62.67s.54.46.78.71.56.62.86.92a6.83 6.83 0 01.73.69c.11.15.18.12.29.09l6.23-1.58 1.24-.31v-.91-7.4l.55.52 1.18 1.13 5 4.9a.38.38 0 00.27.08l6.08-1.36c.2 0 .24-.13.24-.32v-2.46a4.07 4.07 0 010-.47l2.57 2.57 14.73-2.6v-1.6-.65c0-.06.05-.12.07-.18a.47.47 0 01.13.11 3 3 0 00.23.27c.31.28.64.55.95.84a5.09 5.09 0 01.78.83c.13.2.25.15.39.13l6.45-.72 1.06-.12c0-1.31 0-2.6.06-3.88a3 3 0 01.41.37c.93.93 1.86 1.87 2.8 2.78.21.21.35.51.76.46.79-.08 1.58-.12 2.37-.15l4.85-.13h1.71a835.84 835.84 0 00-4.62-8l.15-.13a8.36 8.36 0 002.67-3.78 9.64 9.64 0 00.43-4.2 8.59 8.59 0 00-2.54-5.49l-4-4a1.7 1.7 0 00-.22-.15l-.06-.12-.07-.05c-.19-.21-.38-.43-.59-.64l-4.16-4.17-.16-.17-.06-.06-.1-.07-1.19-1.19-.12-.16-.11-.06c-.06-.08-.1-.17-.16-.24l-4.58-4.54-.14-.12-.1-.07a1.24 1.24 0 00-.19-.26l-3.91-3.93a10.69 10.69 0 00-.8-.71 9.52 9.52 0 00-4-1.83 13.48 13.48 0 00-3.64-.25c-.94 0-1.87.17-2.8.26l-2.5.25-3.18.38c-.22 0-.33.08-.33.34V7.3l-2.58-2.59c-1 .15-2 .28-3.06.46-2 .34-4 .69-6 1-1.67.31-3.35.65-5 1-.26 0-.33.16-.32.41v2.88l-2.66-2.67-7.28 1.67c-.29.06-.34.19-.34.46v8l-1.74-1.7c-.37-.38-.74-.77-1.12-1.14-1.24-1.25-2.49-2.48-3.73-3.74a.43.43 0 00-.48-.12l-5.43 1.39c-.73.19-.73.19-.73.93v1l-1.4-1.4-5.43 1.42-11.39 3a.29.29 0 00-.27.34v5.48c0 .37 0 .69.37 1s.53.68.87.92.44.52.76.68.42.44.63.66l.09.11.22.23.52.51c.23.23.48.44.7.69s.41.26.36.55l-2.19-2.12-.11-.08-.06-.06z" fill="#febe01"/>
      <path class="cls-2" d="M151 16.9l.22.17 4.16 4.17c.21.21.4.43.59.64l.07.05.06.12a1.24 1.24 0 00.1.2 8.37 8.37 0 011.2 2.41 10.75 10.75 0 01.35 4.37 8.39 8.39 0 01-2.2 4.72 13.4 13.4 0 01-1 1l4.59 8h-.19l-3.53.06h-1l-4.31.18a.56.56 0 01-.47-.19l-3.21-3.21-.27-.26v4l-.84.09-3.06.29c-1.26.14-2.53.31-3.79.46a.26.26 0 01-.2 0l-1-1-1.22-1.25v2.58c-.8.12-1.59.22-2.37.35-1.69.27-3.37.54-5 .84-2.37.44-4.73.91-7.1 1.35a.47.47 0 01-.36-.1c-.66-.64-1.3-1.29-2-1.94l-.5-.49V47.4c0 .17 0 .26-.21.3l-4 .87c-.77.17-1.53.37-2.29.56L111.16 48l-.55-.52c0-.05-.07-.11-.11-.15l-2.68-2.66c-.2-.2-.37-.42-.55-.63h.15l4.76-1.08 1.53-.33V18.34v-.31l1.5 1.44 1 1V42h.23c.87-.17 1.74-.36 2.62-.52 2-.38 4-.76 6-1.1s3.79-.61 5.69-.9c.23 0 .29-.11.29-.33v-6.21L124.18 34v-2.81l6.49-1V24l-6.51 1v-2.53a.25.25 0 01.17-.19l4.55-.75 1.92-.29v-6-.33l.54.51c.43.44.86.89 1.3 1.32a7 7 0 00.59.49v21.84l7.86-.86v-6.07c.73 1 1.39 2.12 2.06 3.19.51.83 1 1.66 1.55 2.49a.36.36 0 00.3.18l2.29-.15c1-.05 2-.09 3-.11s2.27 0 3.41 0h.32l-4.62-8 .22-.2a8.15 8.15 0 002-2.4 8.49 8.49 0 001.08-4.11 18.19 18.19 0 00-.15-2.09 8.14 8.14 0 00-1.26-3.33 2.27 2.27 0 00-.29-.71zM34.6 66.44c-.22.06-.29-.13-.42-.22A2.09 2.09 0 0134 66l-.12-.1-.08-.08c-.28-.29-.55-.58-.84-.85l-.66-.63c-.22-.21-.38-.32-.54-.49s-.48-.56-.74-.82l-.88-.87-.71-.71v-.11l1.3-.13 3.48-.45 2.56-.35a.43.43 0 00.4-.34c.19-.62.42-1.23.63-1.85a.3.3 0 01.29-.23c1.36-.21 2.7-.44 4-.66l2.91-.49a.28.28 0 01.37.22c.22.61.47 1.2.71 1.82l7.76-1.57-.28-.72c-.91-2.2-1.83-4.39-2.73-6.59l-3.12-7.58-2.87-7.05c-.09-.21-.14-.42-.21-.63h.05l2.72 2.7 1.91 1.91.4.47a2.59 2.59 0 00.11.37Q51.93 45.3 54 50.38c.12.28.25.54.38.81s0 .3 0 .45v5.51h.09c2.51-.57 5-1.15 7.53-1.71.24-.05.27-.15.27-.36V49.2l.21.28 3.29 4.78a.37.37 0 00.47.17l7.59-1.92 1.36-.35-4.61-6.93a.91.91 0 01.1-.1 10.79 10.79 0 003.21-7.9 7.54 7.54 0 00-1.25-4.35.35.35 0 010-.11c.07 0 .16.08.22.13l.87.85.51.51.21.2.2.11-.08-.38 4.24-1.11v5.69l-.3-.28c0-.11 0-.24-.08-.32s-.17 0-.26 0L78 38c0-.21-.05-.33-.29-.29l-.16-.16c-.11-.17-.21-.35-.33-.52a1 1 0 00-.17-.19 1.62 1.62 0 00-.18-.19l-.11.06a.56.56 0 00.07.23l.62.65c.24.4.53.77.73 1.19s.38 1 .57 1.58V44.8a11 11 0 01-2.93 5.28c-.15.16-.08.25 0 .39l4.14 6.22.31.48-.18.07-8.78 2.26a.45.45 0 01-.49-.14l-3.19-3.2-.27-.24v4.33c0 .18-.05.27-.24.31l-7.35 1.68a.43.43 0 01-.49-.18 8.61 8.61 0 00-.68-.67h-.06l.36 1a.85.85 0 01-.22.08l-7.25 1.46a.59.59 0 01-.41-.14c-.51-.48-1-1-1.48-1.48a.53.53 0 00-.53-.15l-2.46.43-3.42.55a.33.33 0 00-.31.26q-.31.94-.66 1.89a.43.43 0 01-.19.23 1.94 1.94 0 01-.42.07l-2.75.37-2.93.36zm40.09-31.76l.45.57c-.03-.46-.14-.61-.45-.57zM75.93 36l.12-.06-.16-.26-.11.06zm-.52-.65v.06l.22.19.06-.06zm1.11 1.22h.06l-.14-.18zm-.21-.39l-.06-.08a.22.22 0 000 .08z"/>
      <path class="cls-3" d="M151 16.9l.34.58a8.14 8.14 0 011.26 3.33 18.19 18.19 0 01.15 2.09 8.49 8.49 0 01-1.08 4.1 8.15 8.15 0 01-2 2.4l-.22.2 4.62 8h-3.73c-1.14 0-2 .06-3 .11L145 38a.36.36 0 01-.29-.14c-.53-.83-1-1.66-1.55-2.49-.67-1.07-1.33-2.14-2.06-3.19v6.07l-7.86.86v-21.5-3.13l.87-.12c1.2-.14 2.4-.29 3.61-.41 1.52-.16 3-.34 4.56-.42a19.78 19.78 0 012.77.15 9.07 9.07 0 013.31 1.07l1.05.62.11.06.12.16 1.19 1.19.1.07.06.06zm-9.85 8.8a1.76 1.76 0 00.23 0 9.91 9.91 0 001.09-.18c1.64-.45 2.33-1.23 2.4-2.56a2.26 2.26 0 00-.73-2.11 3.9 3.9 0 00-3-.57z"/>
      <path class="cls-4" d="M112.34 49.1c.76-.19 1.52-.39 2.29-.56l4-.87c.17 0 .21-.13.21-.3V44.48l.5.49c.65.65 1.29 1.3 2 1.94a.47.47 0 00.36.1c2.37-.44 4.73-.91 7.1-1.35 1.68-.3 3.36-.57 5-.84.78-.13 1.57-.23 2.37-.35v-2.58l1.22 1.25 1 1a.26.26 0 00.2 0c1.26-.15 2.53-.32 3.79-.46 1-.11 2-.19 3.06-.29l.84-.09v-4l.27.26 3.21 3.21a.56.56 0 00.47.19l4.31-.18h1l3.53-.06h.19l-4.59-8a13.4 13.4 0 001-1 8.39 8.39 0 002.2-4.72 10.75 10.75 0 00-.35-4.37 8.37 8.37 0 00-1.2-2.41 1.24 1.24 0 01-.1-.2 1.7 1.7 0 01.22.15l4 4a8.59 8.59 0 012.54 5.49 9.64 9.64 0 01-.43 4.2 8.36 8.36 0 01-2.67 3.78l-.15.13c1.53 2.66 3.06 5.32 4.62 8h-1.85l-4.85.13c-.79 0-1.58.07-2.37.15-.41.05-.55-.25-.76-.46-.94-.91-1.87-1.85-2.8-2.78a3 3 0 00-.41-.37c-.08 1.28 0 2.57-.06 3.88l-1.06.12-6.45.72c-.14 0-.26.07-.39-.13a5.09 5.09 0 00-.78-.83c-.31-.29-.64-.56-.95-.84a3 3 0 01-.23-.27.47.47 0 00-.13-.11c0 .06-.07.12-.07.18v2.27l-14.73 2.6-2.57-2.57a4.07 4.07 0 000 .47v2.46c0 .19 0 .28-.24.32l-6.08 1.36a.38.38 0 01-.27-.08l-4.89-4.88z"/>
      <path class="cls-5" d="M13.35 62.27l-.12-.12v-24.5h.26c1.51 0 3 0 4.54-.09 1.89 0 3.77-.26 5.66-.14a12.38 12.38 0 014 .8c.64.27 1.25.63 1.87 1l.22.19.43.37.58.61.06.08v.06l.07.09.13.24a14.26 14.26 0 01.81 1.61 8.92 8.92 0 01.48 3.73 17.75 17.75 0 01-.18 1.93A8.76 8.76 0 0129.55 53a12.07 12.07 0 01-6.67 3c-.57.1-1.15.14-1.75.21v5.89h-.93l-6 .16zm7.8-12.75c.32 0 .61 0 .9-.09a2.45 2.45 0 001.81-1 3.27 3.27 0 00.14-3.31 2.51 2.51 0 00-2.88-1z"/>
      <path class="cls-4" d="M34.6 66.44l1.28-.17 2.93-.36 2.75-.37a1.94 1.94 0 00.42-.07.43.43 0 00.19-.23q.34-.94.66-1.89a.33.33 0 01.31-.26l3.42-.55 2.44-.43a.53.53 0 01.53.15c.48.51 1 1 1.48 1.48a.59.59 0 00.41.14l7.25-1.46a.85.85 0 00.22-.08l-.36-1h.06a8.61 8.61 0 01.68.67.43.43 0 00.49.18l7.35-1.68c.19 0 .24-.13.24-.31v-4.33l.27.24 3.19 3.2a.45.45 0 00.49.14l8.76-2.22.18-.07-.31-.48-4.13-6.17c-.08-.14-.15-.23 0-.39a11 11 0 002.93-5.28v-.09a3 3 0 010 .31v5.83a1.12 1.12 0 00.1.31v.1L80 52.35l1.09 1.11c.23.23.43.48.65.72l-.85 1a.29.29 0 000 .43l4 6 .45.71-2.67.68-6.28 1.58a.41.41 0 01-.46-.12q-1.56-1.59-3.15-3.15a2.11 2.11 0 00-.35-.26v4.5l-7.79 1.75-1-1c-.09.09-.09.09.1.53l.24.6-2 .42L56.5 69a.31.31 0 01-.35-.12c-.52-.56-1.06-1.08-1.61-1.61a.39.39 0 00-.3-.06c-1.93.31-3.86.65-5.79.94a.68.68 0 00-.64.56c-.16.55-.37 1.08-.55 1.63a.35.35 0 01-.31.27l-5.31.69-2 .22c-.24 0-.32-.16-.43-.31a1.08 1.08 0 00-.24-.28c-.11-.08-.32-.13-.33-.21s-.16-.2-.25-.28-.29-.41-.55-.53-.16-.22-.25-.33a1.52 1.52 0 00-.22-.22 4.79 4.79 0 01-.55-.46c-.08-.08-.11-.2-.23-.26a1 1 0 01-.37-.35A.7.7 0 0036 68c-.21-.14-.29-.42-.55-.53s-.16-.23-.25-.34a1.1 1.1 0 00-.22-.21c-.12-.1-.25-.18-.36-.29s-.02-.14-.02-.19z"/>
      <path class="cls-6" d="M95.85 18v-8c0-.27.05-.4.34-.46l7.28-1.65 2.66 2.67v-.33-2.55c0-.25.06-.36.32-.41 1.67-.32 3.35-.66 5-1 2-.36 4-.71 6-1 1-.18 2.07-.31 3.06-.46l2.58 2.59V4.74c0-.26.11-.32.33-.34l3.18-.38 2.5-.25c.93-.09 1.86-.21 2.8-.26a13.48 13.48 0 013.64.25 9.52 9.52 0 014 1.83 10.69 10.69 0 01.8.71l3.93 3.94a1.24 1.24 0 01.19.26h-.08a9.41 9.41 0 00-4.17-1.75 13.78 13.78 0 00-3.21-.27c-.82 0-1.63.14-2.45.22s-1.66.15-2.48.24l-3.63.44c-.21 0-.26.09-.25.27V12.23c-.17-.15-.3-.25-.41-.36-.65-.65-1.3-1.29-1.93-1.95a.39.39 0 00-.42-.12l-3.47.54c-1.39.24-2.79.47-4.18.72-1.64.3-3.27.62-4.91.93l-1.63.33v3.12l-.08.05c-.37-.39-.74-.79-1.12-1.17s-.88-.9-1.33-1.33a.37.37 0 00-.29-.08l-7.14 1.61c-.27.06-.34.16-.34.43V23l-.47-.45-.48-.4-.13-.15-.16-.16-.57-.58c-.35-.36-.69-.72-1-1.07z"/>
      <path class="cls-7" d="M100.93 23v-8c0-.27.07-.37.34-.43l7.14-1.61a.37.37 0 01.29.08c.45.43.9.88 1.33 1.33l1.12 1.17.08-.05v-3.17l1.63-.33c1.64-.31 3.27-.63 4.91-.93 1.39-.25 2.79-.48 4.18-.72l3.47-.54a.39.39 0 01.42.12c.63.66 1.28 1.3 1.93 1.95.11.11.24.21.41.36V9.65c0-.18 0-.25.25-.27l3.63-.44c.82-.09 1.65-.16 2.48-.24s1.63-.17 2.45-.22a13.78 13.78 0 013.21.16 9.41 9.41 0 014.17 1.75h.08l.1.07.14.12 4.58 4.54c.06.07.1.16.16.24l-1.05-.62a9.07 9.07 0 00-3.31-1.07 19.78 19.78 0 00-2.77-.15c-1.53.08-3 .26-4.56.42-1.21.12-2.41.27-3.61.41l-.87.12v2.76a7 7 0 01-.59-.49c-.44-.43-.87-.88-1.3-1.32l-.54-.51h-.49l-3.46.55-4.83.84c-1 .16-1.91.34-2.86.53l-2.87.6V20.44a.11.11 0 010 .05l-1-1-1.6-1.49a.74.74 0 00-.25-.05q-.59.11-1.17.24l-3.64.83-2.63.62a1.7 1.7 0 00-.03.36v8l-.18-.13-.55-.5-.12-.11-.06-.06-.06-.06-.06-.06-.06-.06-.06-.07-.06-.06-.06-.09-1.07-1.11z"/>
      <path class="cls-8" d="M8.19 57.16c-.22-.25-.44-.52-.67-.76l-1.16-1.18-.88-.86-.73-.72c-.39-.37-.81-.72-1.17-1.12a1.35 1.35 0 01-.48-1V27.49h.29c1.39 0 2.78 0 4.18-.06l3.94-.17a15.41 15.41 0 015.8.71 7.74 7.74 0 013 1.86l4 4a1.38 1.38 0 01.17.25l-.19-.1a9.11 9.11 0 00-2.47-1.15 17.27 17.27 0 00-5.26-.56l-7.16.23H8.14v24.66z"/>
      <path class="cls-7" d="M8.19 57.16V32.55h1.26l7.16-.23a17.27 17.27 0 015.26.56A9.11 9.11 0 0124.34 34l.19.1h.06l.1.08.07.07.38.33.05.06 4.21 4.21a1.07 1.07 0 01.16.25c-.62-.33-1.23-.69-1.87-1a12.38 12.38 0 00-4-.8c-1.89-.12-3.77.1-5.66.14-1.51 0-3 .06-4.54.09h-.26v24.62l-1.69-1.66-2.19-2.19z"/>
      <path class="cls-9" d="M95.85 18l2.25 2.27c.35.35.69.71 1 1.07v.05l-3.44.86-2.92.75v1.67l-1.3-1.33-.22.05-12.71 3.28-4.2 1.08a.75.75 0 000 .16v6.3l-.51-.51a1.75 1.75 0 00-.18-.29L71 30.93l-.49-.56c-.17-.18-.09 0-.13-.06a.73.73 0 01-.16-.14l-.64-.72h-.08l-.09-.06a.92.92 0 01-.23-.78V22.74l.26-.08 2.26-.59q7.22-1.87 14.42-3.77a.34.34 0 01.39.12l1.08 1.13h.07v-1.23c0-.41.08-.4.36-.47 2-.5 4.06-1 6.09-1.54z"/>
      <path class="cls-6" d="M94.11 16.26c-2 .51-4.06 1-6.09 1.54-.28.07-.38.17-.36.47s0 .82 0 1.23h-.07l-1.08-1.13a.34.34 0 00-.39-.12q-7.2 1.91-14.42 3.77l-2.26.59-.26.08V28.56a.92.92 0 00.23.78l-.75-.68c0-.29-.22-.39-.36-.55s-.47-.46-.7-.69l-.52-.42-.22-.23-.09-.11c-.21-.22-.37-.53-.63-.66s-.48-.48-.76-.68-.53-.68-.87-.92-.37-.58-.37-1v-5.48a.29.29 0 01.27-.34l11.39-3 5.43-1.42 1.4 1.4v-1c0-.74 0-.74.73-.93l5.43-1.39a.43.43 0 01.48.12c1.24 1.26 2.49 2.49 3.73 3.74l1.11 1.16z"/>
      <path class="cls-2" d="M91.44 23.3l1.3 1.33v11.19l-.28.07c-.55.16-.45 0-.45.58v17.39c0 .18 0 .31-.23.37l-4.58 1.19-3.15.85a2.46 2.46 0 01-.39-.22l-1.84-1.85h-.07c-.22-.24-.42-.49-.65-.72L80 52.35l-1-1.05v-.1l8-2.1v-8.4-9.43a.35.35 0 01.32-.41l2.68-.71 1.45-.39v-6l-.01-.46z"/>
      <path class="cls-8" d="M49.33 39.36l-1.91-1.91-2.72-2.7h-.05l-.21-.22-.19-.26v-3.25-8.27c0-.24.08-.32.32-.38 2.32-.51 4.63-1.05 6.94-1.58 1-.22 2-.48 3.06-.63a9.34 9.34 0 016 .82A6.85 6.85 0 0162 22c1.42 1.37 2.79 2.78 4.18 4.17a1.08 1.08 0 01.11.18l-.29-.08a14.54 14.54 0 00-1.71-.78 11.07 11.07 0 00-5.77-.08c-3 .65-5.92 1.35-8.88 2-.22.06-.29.13-.29.37V39l-.02.36z"/>
      <path class="cls-9" d="M49.33 39.36V27.79c0-.24.07-.31.29-.37 3-.66 5.91-1.36 8.88-2a11.07 11.07 0 015.77.08 14.54 14.54 0 011.71.78l.25.12.06.06.06.06.11.08 2.19 2.12.75.68v.08h.16l.64.72a.73.73 0 00.16.14s.1 0 .13.06.33.37.49.56.08.17.13.25l.14.25a14.39 14.39 0 00-1.63-.79 10.92 10.92 0 00-5.89-.2c-1.72.35-3.42.78-5.13 1.17l-4.19 1c0 .11 0 .22-.05.32v11.45l-.07.05-.79-.86-1.12-1.15-1.53-1.52-1.13-1.1z"/>
      <path class="cls-2" d="M13.35 62.27h.82l6-.16h.93v-5.92c.6-.07 1.18-.11 1.75-.21a12.07 12.07 0 006.67-3 8.76 8.76 0 002.66-4.92 17.75 17.75 0 00.18-1.93 8.92 8.92 0 00-.48-3.73 14.26 14.26 0 00-.81-1.61c0-.08-.08-.16-.13-.24a1.59 1.59 0 01.27.18l3.8 3.8.23.19a.59.59 0 010 .14L34 48.28 30.33 58.4c-.29.8-.6 1.59-.9 2.39h-.26l-1.91.32c-.34.06-.69.09-1.06.14v5.52c0 .17 0 .32-.23.33-1.24 0-2.49.12-3.74.16s-2.48 0-3.72.06a2.91 2.91 0 01-.46-.32l-3.3-3.31-1.3-1.26a1.13 1.13 0 01-.1-.16z"/>
      <path class="cls-9" d="M35.27 44.74l-.23-.19-3.8-3.8a1.59 1.59 0 00-.27-.18l-.07-.09v-.06l-.06-.08-.58-.61c1-2.84 2-5.68 3.07-8.53.27-.74.27-.72 1-.85l5-.86a4 4 0 01.33.24l4.5 4.5h.07l.19.26h-.11l-5.49.91a.34.34 0 00-.31.26l-1.84 5.13c-.45 1.37-.92 2.66-1.4 3.95z"/>
      <path class="cls-6" d="M39.35 29.48l-5 .86c-.77.13-.77.11-1 .85-1 2.85-2.05 5.69-3.07 8.53l-.43-.37-.22-.19a1.07 1.07 0 00-.16-.25q-2.1-2.12-4.21-4.21l-.05-.06 1.14-3.13q1.06-3 2.14-5.94a.37.37 0 01.24-.2c1.31-.23 2.63-.44 3.94-.66l1.63-.29a.31.31 0 01.22.11l1.32 1.29 1.29 1.31c.59.59 1.19 1.16 1.77 1.75a7.31 7.31 0 01.45.6z"/>
      <path class="cls-4" d="M84.05 56.27l3.15-.85 4.58-1.19c.23-.06.23-.19.23-.37V36.47c0-.55-.1-.42.45-.58l.28-.07v11.46a.91.91 0 00.11.3c.17.19.33.39.51.57l2.12 2.12 1.6 1.63V59c0 .16 0 .24-.21.29L89 61.34c-.12-.16-.17-.36-.41-.42s-.15-.18-.23-.26l-.36-.33-.25-.24c-.26-.26-.53-.52-.78-.79s-.4-.6-.69-.77-.41-.53-.75-.65c-.11 0-.16-.23-.24-.34s-.18-.11-.26-.22a6.46 6.46 0 00-.71-.67 2.12 2.12 0 01-.27-.38z"/>
      <path class="cls-2" d="M97.09 51.9l-1.6-1.63-2.12-2.12c-.18-.18-.34-.38-.51-.57a.18.18 0 01.07 0l3.59-.91c1.31-.34 2.63-.67 4-1v-9.4l5.05 5.86v8.37c0 .24-.08.32-.3.37L100.4 52c-.8.2-1.59.42-2.39.63a.78.78 0 01-.28-.11l-.64-.62z"/>
      <path class="cls-4" d="M98 52.62c.8-.21 1.59-.43 2.39-.63l4.83-1.21c.22-.05.3-.13.3-.37v-8-.37l.72.81 1 1.12c.18.21.35.43.55.63l2.68 2.66.11.15v8.31l-1.24.31-6.23 1.58c-.11 0-.18.06-.29-.09a6.83 6.83 0 00-.73-.69c-.3-.3-.56-.62-.86-.92s-.52-.47-.78-.71-.4-.45-.62-.67l-.77-.74c-.22-.22-.43-.46-.64-.69l-.37-.32a.59.59 0 01-.05-.16zM18.53 67.34c1.24 0 2.48 0 3.72-.06l3.74-.16c.26 0 .23-.16.23-.33v-5.52c.37-.05.72-.08 1.06-.14l1.91-.32h.26a3.25 3.25 0 00-.11.42s0 .1.06.16 0 .08 0 .11l.71.71c.29.29.6.57.88.87s.48.55.74.82.36.33.54.49.45.41.66.63l.84.85c0 .22-.18.17-.28.18q-1 .15-1.95.24c-.22 0-.29.08-.29.3v5.59c-.7 0-1.39.08-2.07.1-1.82 0-3.65.07-5.47.13a.71.71 0 01-.52-.26c-.34-.3-.66-.64-1-1l-.64-.68-.92-.93-.7-.7c-.23-.24-.5-.47-.73-.72s-.44-.51-.67-.78z"/>
      <path class="cls-8" d="M66.77 26.61l.09.11z"/>
      <path class="cls-7" d="M149.66 15.59l-.12-.16z"/>
      <path class="cls-4" d="M33.84 65.92L34 66z"/>
      <path class="cls-6" d="M144.69 10.59l-.14-.12z"/>
      <path class="cls-8" d="M24.69 34.26l-.1-.08zM66.47 26.58l-.11-.08z"/>
      <path class="cls-4" d="M156.1 22l-.06-.12z"/>
      <path class="cls-2" d="M151 16.85l-.1-.07z"/>
      <path class="cls-7" d="M149.54 15.43l-.11-.06z"/>
      <path class="cls-6" d="M144.56 10.47l-.1-.07z"/>
      <path class="cls-8" d="M24.76 34.32l-.07-.07zM66.36 26.5l-.06-.06zM66.3 26.45l-.06-.06zM24.59 34.18h-.06z"/>
      <path class="cls-4" d="M156 21.93l-.07-.05z"/>
      <path class="cls-2" d="M151 16.9l-.06-.06z"/>
      <path class="cls-4" d="M33.77 65.83l.08.08z"/>
      <path class="cls-3" d="M107.27 44c-.34-.37-.68-.74-1-1.12l-.72-.81-5.05-5.86v9.4l-4 1-3.59.91a.18.18 0 00-.07 0 .91.91 0 01-.11-.3V36.41v-.65V25v-2l2.93-.75 3.44-.86v-.05l.57.58.16.16.12.11a1.43 1.43 0 00.12.21c.34.38.69.77 1 1.16l1.94 2.25 2.12 2.44.8.91v-1.08-8.37l2.63-.62 3.64-.83q.58-.13 1.17-.24a.74.74 0 01.25.05v24.48l-1.53.33-4.67 1.12zM130.82 14.88v6.33l-1.92.29-4.55.75a.25.25 0 00-.17.19v2.53l6.51-1v6.14l-6.49 1V34l6.88-1.1v6.21c0 .22-.06.3-.29.33-1.9.29-3.8.57-5.69.9s-4 .72-6 1.1c-.88.16-1.75.35-2.62.52h-.23V20.88v-.42a.11.11 0 000-.05.72.72 0 000-.19V17.4c1-.2 1.91-.41 2.87-.6s1.9-.37 2.86-.53l4.83-.84 3.46-.55h.23z"/>
      <path class="cls-5" d="M54.42 32.56l4.19-1c1.71-.39 3.41-.82 5.13-1.17a10.92 10.92 0 015.89.2 14.39 14.39 0 011.63.79l.06.06.17.14.88.88.09.06.06.06.06.12.05.06a.35.35 0 000 .11 7.54 7.54 0 011.25 4.35 10.79 10.79 0 01-3.21 7.9.91.91 0 00-.1.1l4.61 6.93-1.36.35-7.59 1.92a.37.37 0 01-.47-.17l-3.29-4.78-.21-.28V55.08c0 .21 0 .31-.27.36l-7.53 1.71h-.09v-5.51-.45a2 2 0 000-.24zm7.88 10.27a5.76 5.76 0 002.15-.8A3.16 3.16 0 0066 38.85a1.61 1.61 0 00-1.36-1.6 4.69 4.69 0 00-2.35.18z"/>
      <path class="cls-3" d="M29.4 61.37c0-.06-.07-.11-.06-.16a3.25 3.25 0 01.11-.42c.3-.8.61-1.59.9-2.39q1.84-5.05 3.65-10.12l1.23-3.4a.59.59 0 000-.14l1.42-3.87 1.84-5.13a.34.34 0 01.31-.26l5.49-.91h.11l.21.22c.07.21.12.42.21.63l2.87 7.05L50.85 50c.9 2.2 1.82 4.39 2.73 6.59l.28.72-7.76 1.57c-.24-.62-.49-1.21-.71-1.82a.28.28 0 00-.37-.22l-2.91.52-4 .66a.3.3 0 00-.29.23c-.21.62-.44 1.23-.63 1.85a.43.43 0 01-.4.34l-2.56.35-3.48.45zm10.52-9.07l3.3-.56-1.65-4zM91.44 23.3v6.47l-1.44.38-2.76.71a.35.35 0 00-.32.41V49.1l-8 2.1a1.12 1.12 0 01-.1-.31v-5.83a3 3 0 000-.31V33.08l-4.24 1.11-.17.05c0-.09-.12-.19-.12-.28V27.8l4.2-1.08L91.2 23.4z"/>
      <path class="cls-4" d="M54.42 32.56V51a2 2 0 010 .24c-.13-.27-.26-.53-.38-.81q-2.12-5.13-4.2-10.23a2.59 2.59 0 01-.11-.37l1.13 1.1 1.53 1.52c.53.52.75.76 1.12 1.15l.79.86.07-.05V32.88l.05-.32zM78.79 38.77v1.63c-.19-.53-.34-1.07-.57-1.58s-.49-.79-.73-1.19h.1l.16.16.25.21.11.11.34.34z"/>
      <path class="cls-8" d="M72.37 32.49l-.88-.88-.17-.14-.06-.06-.14-.25-.13-.25 2.54 2.53a1.75 1.75 0 01.18.29l-.87-.85c-.06 0-.15-.08-.22-.13l-.05-.06-.06-.12-.06-.06z"/>
      <path class="cls-10" d="M74.25 27.8v6.16c0 .09.08.19.12.28l.05.22-.21-.2v-6.3a.75.75 0 01.04-.16z"/>
      <path class="cls-2" d="M77.59 37.59h-.1l-.62-.65a.56.56 0 01-.07-.23s.1-.07.11-.06a1.62 1.62 0 01.18.19 1 1 0 01.17.19l.33.56zM74.69 34.68c.28 0 .42.11.45.57zM78.49 38.49l-.34-.34h.26c.03 0 .05.23.08.34zM74.43 34.46l-.05-.22.17-.05.08.38zM75.93 36l-.15-.26.11-.06.16.26zM78 38l-.29-.29c.29 0 .35.12.29.29zM75.41 35.32l.23.19-.06.06-.22-.19zM76.52 36.54l-.13-.17.14.18zM76.31 36.15h-.06a.22.22 0 010-.08z"/>
      <path class="cls-10" d="M141.15 25.7v-5.42a3.9 3.9 0 013 .57 2.26 2.26 0 01.73 2.11c-.07 1.33-.76 2.11-2.4 2.56a9.91 9.91 0 01-1.09.18 1.76 1.76 0 01-.24 0z"/>
      <path class="cls-2" d="M21.15 49.52v-5.41a2.51 2.51 0 012.88 1 3.27 3.27 0 01-.17 3.28 2.45 2.45 0 01-1.81 1c-.29.09-.58.1-.9.13z"/>
      <path class="cls-7" d="M29.56 39.16l.22.19z"/>
      <path class="cls-2" d="M30.9 40.48l.07.09zM30.79 40.33l.06.08zM30.85 40.41v.06z"/>
      <path class="cls-10" d="M106 28.27v.85l-.8-.91-2.12-2.44-1.94-2.25-1-1.16a1.43 1.43 0 01-.12-.21l.48.4.47.45 2.73 2.75 1.07 1.11.06.09.06.06.06.07.06.06.06.06.06.06.06.06.12.11zM99.87 22l-.16-.16zM100 22.15l-.14-.15z"/>
      <path class="cls-11" d="M106 19.67v8.37V20a1.7 1.7 0 010-.33zM116.31 17.4v2.82a.72.72 0 010 .19v-2.95c-.05-.02-.02-.04 0-.06z"/>
      <path class="cls-4" d="M106 28v.23l-.74-.87.55.5z"/>
      <path class="cls-11" d="M130.82 14.88h-.26z"/>
      <path class="cls-4" d="M105.24 27.4l-.12-.11zM104.79 27l-.06-.09zM105.13 27.29l-.06-.06zM105.07 27.23l-.06-.06zM105 27.18l-.06-.06zM105 27.12l-.06-.06zM104.9 27.07l-.06-.07zM104.84 27l-.06-.06z"/>
      <path class="cls-6" d="M69.49 29.44h-.08v-.08z"/>
      <path class="cls-10" d="M74.31 27.75z"/>
      <path class="cls-2" d="M62.3 42.83v-5.4a4.69 4.69 0 012.35-.18 1.61 1.61 0 011.35 1.6A3.16 3.16 0 0164.45 42a5.76 5.76 0 01-2.15.83z"/>
      <path class="cls-9" d="M71.32 31.47l.17.14z"/>
      <path class="cls-2" d="M72.51 32.6l.06.12zM72.45 32.55l.06.06zM72.37 32.49l.09.06z"/>
      <path class="cls-9" d="M71.27 31.42l.06.06z"/>
      <path class="cls-2" d="M72.57 32.71l.05.06z"/>
      <path class="cls-10" d="M39.92 52.3l1.65-4.56 1.65 4z"/>
    </g>
  </g>
</svg>
