<svg fill="none" xmlns="http://www.w3.org/2000/svg" viewBox="0 0 116 116">
  <g filter="url(#filter0_d)">
    <path d="M103.475 43.718c1.571-18.372-12.091-34.591-30.462-36.162-5.623-.48-11.12.426-16.178 2.64-4.601-3.04-9.865-4.867-15.488-5.348-18.371-1.57-34.588 12.093-36.16 30.466-.813 9.51 2.467 18.445 8.36 25.066a7.718 7.718 0 00-6.779 7.006l-.582 6.805a7.676 7.676 0 001.251 4.911 7.638 7.638 0 00-.723 2.67l-.116 1.353a7.664 7.664 0 00.993 4.487L7.5 88.694a7.715 7.715 0 007.03 8.346l1.487.127a7.73 7.73 0 002.673-.238c1.167.523 2.45.862 3.81.978 1.43.123 2.811-.01 4.103-.366 1.186.56 2.503.917 3.927 1.039 1.081.092 2.126.038 3.123-.142.593.201 1.219.341 1.866.396l1.495.128c.577.05 1.137.033 1.689-.042a7.65 7.65 0 001.656.328l1.495.128a7.841 7.841 0 001.804-.054c.904.329 1.876.54 2.893.628a11.02 11.02 0 001.958-.005l1.687.144a7.661 7.661 0 001.833-.058c.925.337 1.91.558 2.942.646.669.057 1.336.05 1.98-.01l1.65.141c.698.06 1.382.025 2.045-.098a11.421 11.421 0 005.04.596c.4.099.817.171 1.244.207l1.495.128a7.56 7.56 0 001.913-.073 11.99 11.99 0 006.285.537 7.538 7.538 0 001.873.397l1.488.127c.576.05 1.137.033 1.688-.042a7.65 7.65 0 001.657.328l1.488.128a7.716 7.716 0 008.344-7.031l.366-4.278a10.647 10.647 0 00-.496-4.266 7.695 7.695 0 003.153-5.589l.814-9.531a7.692 7.692 0 00-2.027-5.888 7.707 7.707 0 006.343-6.936l.086-.997a7.677 7.677 0 00-.735-3.992 33.042 33.042 0 002.811-10.817z" fill="#fff"/>
    <path d="M67.268 20.33l-22.42-1.917L41.4 58.71l22.421 1.917 3.446-40.297z" fill="#FF5F00"/>
    <path d="M44.548 38.68c.699-8.172 5.15-15.127 11.51-19.308a25.604 25.604 0 00-15.369-6.836c-14.15-1.21-26.604 9.284-27.814 23.435-1.21 14.152 9.282 26.607 23.432 27.817a25.619 25.619 0 0016.305-4.127c-5.563-5.2-8.763-12.81-8.064-20.981z" fill="#EB001B"/>
    <path d="M95.787 43.061c-1.21 14.151-13.664 24.645-27.814 23.435a25.619 25.619 0 01-15.368-6.835c6.358-4.182 10.81-11.136 11.51-19.308.698-8.172-2.509-15.782-8.065-20.982a25.604 25.604 0 0116.305-4.127c14.15 1.21 24.643 13.666 23.432 27.817zM91.988 58.733l.07-.825.335.028.015-.17-.847-.073-.015.17.335.03-.07.825.177.015zm1.644.14l.086-.996-.257-.022-.357.658-.24-.709-.257-.022-.085.997.185.016.064-.748.222.672.193.016.332-.624-.064.755.178.015v-.007z" fill="#F79E1B"/>
    <path d="M24.664 75.771l.365-4.27c.137-1.61-.795-2.78-2.445-2.935-.867-.088-1.787.106-2.495 1.006-.405-.795-1.107-1.314-2.146-1.403-.726-.061-1.456.091-2.08.84l.073-.839-1.48-.127-.583 6.805 1.495.128.323-3.772c.1-1.182.81-1.752 1.82-1.666.982.084 1.425.767 1.327 1.92l-.324 3.787 1.495.128.322-3.773c.101-1.181.838-1.75 1.82-1.665 1.011.086 1.44.768 1.342 1.921l-.324 3.787 1.495.128zm-5.197 8.447l-2.327-.199-.466 5.453-1.488-.127.466-5.453-1.366-.117.116-1.352 1.366.117.099-1.154c.117-1.366.9-2.39 2.487-2.254a3.557 3.557 0 011.85.675l-.635 1.208c-.331-.23-.794-.434-1.235-.472-.577-.05-.922.301-.98.978l-.099 1.153 2.328.199-.115 1.345zm7.66 2.735c.175-2.036-1.252-3.714-3.359-3.894-2.1-.18-3.79 1.231-3.965 3.267-.174 2.036 1.246 3.714 3.353 3.894 2.1.172 3.797-1.232 3.972-3.267zm-5.793-.496c.11-1.288 1.104-2.1 2.314-1.996 1.217.104 2.059 1.08 1.95 2.36-.111 1.29-1.112 2.1-2.322 1.996-1.217-.104-2.052-1.078-1.942-2.36zm13.602-2.278l-1.495-.128-.324 3.787c-.112 1.317-.887 1.738-1.82 1.658-.932-.08-1.616-.626-1.504-1.943l.324-3.787-1.494-.127-.336 3.922c-.185 2.164 1.29 3.193 2.892 3.33 1.594.137 3.23-.627 3.414-2.79l.336-3.923h.007zm7.933 3.23c.136-1.594-.915-2.803-2.53-2.94-.698-.06-1.563.074-2.172.832l.07-.833-1.48-.127-.581 6.806 1.494.127.323-3.772c.1-1.168.957-1.725 1.911-1.644.997.085 1.526.776 1.428 1.915l-.324 3.787 1.495.128.366-4.279zm16.97-1.094l-1.487-.127-.07.826c-.418-.646-1.089-1.104-2.05-1.187-1.9-.162-3.53 1.212-3.708 3.29-.178 2.079 1.195 3.709 3.096 3.871.968.083 1.699-.249 2.22-.814l-.07.82 1.488.126.582-6.805zm-5.785 2.933c.102-1.196.962-2.112 2.236-2.003 1.224.105 1.97 1.115 1.864 2.353-.107 1.246-1.012 2.108-2.236 2.003-1.274-.109-1.965-1.164-1.864-2.353zm24.014 2.06c.175-2.035-1.252-3.713-3.359-3.894-2.1-.18-3.79 1.232-3.965 3.268-.174 2.036 1.253 3.714 3.353 3.894 2.1.172 3.797-1.232 3.971-3.267zm-5.8-.496c.11-1.288 1.104-2.1 2.314-1.996 1.21.104 2.059 1.08 1.949 2.361-.11 1.288-1.112 2.1-2.322 1.996-1.21-.104-2.051-1.08-1.942-2.36zm13.57.272c.136-1.595-.915-2.803-2.53-2.941-.698-.06-1.563.074-2.172.832l.071-.833-1.48-.126-.582 6.805 1.494.128.323-3.773c.1-1.168.958-1.725 1.911-1.644.997.086 1.533.777 1.435 1.916l-.323 3.787 1.487.127.366-4.278zm-19.513-4.229l-2.398-.205.175-2.05-1.48-.126-.176 2.05-1.366-.117-.115 1.338 1.367.117-.263 3.075c-.134 1.566.391 2.55 2.128 2.699.633.054 1.383-.083 1.88-.363l-.32-1.29c-.463.22-.95.307-1.335.274-.733-.063-.936-.532-.878-1.215l.26-3.047 2.4.205.114-1.345h.007zm-14.663-4.007l-.526 6.143-.29 3.403-1.48-.127.07-.825c-.522.572-1.267.895-2.235.812-1.908-.163-3.275-1.785-3.097-3.864.178-2.079 1.8-3.446 3.708-3.283.968.083 1.647.528 2.064 1.18l.305-3.558 1.48.126v-.007zm-4.157 8.027c1.224.105 2.13-.764 2.236-2.003.106-1.239-.639-2.249-1.863-2.354-1.281-.11-2.148.806-2.25 2.002-.103 1.196.596 2.245 1.877 2.355zm22.158-3.734l-1.494-.128-.583 6.812 1.495.128.582-6.812zm-.473-3.346c-.598-.051-1.079.366-1.13.964-.05.584.353 1.077.95 1.129a1.043 1.043 0 001.143-.95 1.046 1.046 0 00-.963-1.143zM47.36 70.857l-2.42-.207.177-2.064-1.495-.128-.177 2.064-1.38-.118-.116 1.353 1.38.118-.265 3.103c-.135 1.58.397 2.573 2.148 2.722.64.055 1.398-.08 1.895-.368l-.318-1.304c-.463.219-.958.305-1.343.273-.74-.064-.943-.54-.884-1.223l.262-3.075 2.42.207.116-1.353zm12.641.909c-.854-.073-1.443.278-1.878.843l.07-.826-1.466-.125-.582 6.805 1.48.127.327-3.816c.096-1.124.633-1.71 1.601-1.627.3.026.609.095.911.25l.575-1.356A3.173 3.173 0 0060 71.766zm-19.143-.92c-.671-.53-1.633-.857-2.715-.95-1.722-.147-2.903.584-3.019 1.937-.095 1.11.672 1.864 2.177 2.208l.69.16c.8.183 1.167.429 1.134.813-.045.527-.611.78-1.622.693-1.025-.087-1.737-.478-2.203-.905l-.796 1.094c.76.667 1.761 1.04 2.871 1.134 1.965.168 3.183-.66 3.294-1.955.102-1.196-.741-1.9-2.204-2.24l-.689-.159c-.633-.14-1.134-.312-1.096-.767.043-.499.553-.756 1.364-.687.869.074 1.68.474 2.071.765l.743-1.141zm39.713 2.679c-.854-.073-1.443.278-1.879.843l.071-.826-1.466-.125-.582 6.805 1.48.127.327-3.816c.096-1.124.633-1.71 1.601-1.627.3.026.609.095.911.25l.575-1.356a3.174 3.174 0 00-1.038-.275zm-19.38 1.942c-.177 2.064 1.132 3.696 3.324 3.884 1.025.088 1.728-.082 2.518-.602l-.61-1.257c-.589.351-1.19.515-1.832.46-1.18-.115-1.975-1.044-1.863-2.353.112-1.31 1.053-2.09 2.236-2.003.64.054 1.206.318 1.727.764l.814-1.135c-.69-.647-1.354-.933-2.379-1.02-2.192-.188-3.759 1.198-3.936 3.262zm13.865 1.186l.29-3.403-1.48-.126-.07.825c-.418-.652-1.097-1.097-2.065-1.18-1.907-.163-3.53 1.204-3.708 3.282-.177 2.079 1.19 3.702 3.097 3.865.968.083 1.713-.241 2.235-.813l-.07.826 1.48.126.29-3.402zm-5.51-.471c.103-1.196.97-2.112 2.251-2.002 1.224.105 1.97 1.115 1.864 2.353-.106 1.239-1.012 2.108-2.237 2.003-1.28-.11-1.98-1.159-1.877-2.354zm-17.56-5.101c-1.992-.17-3.511 1.162-3.693 3.283-.185 2.164 1.147 3.698 3.182 3.872 1.025.088 1.987-.088 2.872-.715l-.632-1.159a3.253 3.253 0 01-2.04.543c-.953-.082-1.784-.597-1.893-1.84l5.054.432c.03-.183.06-.367.077-.567.167-2.122-1.019-3.686-2.926-3.85zm-.14 1.321c.953.082 1.514.732 1.58 1.799l-3.53-.302c.24-.969.896-1.587 1.95-1.497zm36.947 5.425l.524-6.136-1.48-.126-.304 3.559c-.418-.652-1.097-1.098-2.065-1.18-1.907-.164-3.53 1.203-3.708 3.282-.177 2.079 1.19 3.701 3.097 3.864.968.083 1.713-.24 2.235-.812l-.07.825 1.48.127.29-3.403zm-5.51-.47c.103-1.197.97-2.112 2.251-2.002 1.224.104 1.97 1.114 1.864 2.353-.106 1.239-1.012 2.108-2.236 2.003-1.282-.11-1.98-1.159-1.878-2.355zm-49.986-4.275l.29-3.403-1.48-.126-.07.826c-.418-.653-1.097-1.098-2.065-1.18-1.908-.164-3.53 1.203-3.708 3.282-.177 2.078 1.19 3.7 3.097 3.864.968.083 1.713-.24 2.235-.813l-.07.826 1.48.126.29-3.402zm-5.51-.471c.103-1.196.97-2.111 2.25-2.002 1.225.105 1.97 1.115 1.864 2.354-.105 1.238-1.011 2.107-2.236 2.003-1.28-.11-1.98-1.16-1.878-2.355z" fill="#231F20"/>
  </g>
  <defs>
    <filter id="filter0_d" x="1.065" y=".725" width="114.533" height="114.346" filterUnits="userSpaceOnUse" color-interpolation-filters="sRGB">
      <feFlood flood-opacity="0" result="BackgroundImageFix"/>
      <feColorMatrix in="SourceAlpha" values="0 0 0 0 0 0 0 0 0 0 0 0 0 0 0 0 0 0 127 0"/>
      <feOffset dx="4" dy="4"/>
      <feGaussianBlur stdDeviation="4"/>
      <feColorMatrix values="0 0 0 0 0 0 0 0 0 0 0 0 0 0 0 0 0 0 0.25 0"/>
      <feBlend in2="BackgroundImageFix" result="effect1_dropShadow"/>
      <feBlend in="SourceGraphic" in2="effect1_dropShadow" result="shape"/>
    </filter>
  </defs>
</svg>
