<svg xmlns="http://www.w3.org/2000/svg" fill="none" viewBox="0 0 113 120"><defs/><path fill="#9B9FA6" d="M95.403 56.41c-.615-1.09-1.289-2.133-2.12-3.078-.655-.744-1.436-1.302-2.331-1.773.187-.158.396-.116.577-.099.766.073 1.505-.132 2.234-.272 1.185-.23 2.326-.663 3.425-1.174.013-.006.034.002.051.002.495-.323 1.02-.59 1.529-.889.17-.098.337-.2.5-.31a24.159 24.159 0 002.443-1.86c1.015-.875 1.933-1.837 2.811-2.837l.007-.006c.89-.899 1.781-2.083 2.581-3.282l.036-.014a.33.33 0 01.004-.047l.177-.268a.444.444 0 00.084-.115c-.002-.006 0-.008-.002-.013l.095-.144a.305.305 0 01.048-.005.522.522 0 01.038-.13c.07-.11.141-.22.209-.33a.718.718 0 00.058-.09v-.01c.038-.06.076-.118.112-.18a.531.531 0 01.061-.022 1.36 1.36 0 01.051-.162c1.227-2.014 2.072-3.724 2.072-3.724h-.003c1.003-1.953 1.487-3.42 1.721-4.426.261-1.134.206-1.685.206-1.685v-.013a3.91 3.91 0 00-.088-.824 2.725 2.725 0 00-1.026.034l.004-.017c-.141.302-.482.354-.724.516-.436.293-.846.618-1.274.922-.149.105-.278.245-.482.23.017.243-.217.287-.345.38-1.651 1.173-3.283 2.383-4.986 3.475a22.692 22.692 0 01-3.458 1.833c-.555.235-1.099.529-1.67.703-.564.17-1.113.393-1.699.521-.416.09-.854.139-1.259.31a1.036 1.036 0 01-.176.06 1.426 1.426 0 01-.567.016.586.586 0 01-.432.063.119.119 0 01-.056.065.102.102 0 01-.082.004.245.245 0 01-.057-.03c-.46.141-.933.101-1.403.11-.539.008-1.078.002-1.615-.02a10.074 10.074 0 01-2.133-.337c-.642-.167-1.311-.278-1.912-.545-.698-.31-1.416-.59-2.088-.972-1.453-.822-2.8-1.781-4.005-2.932-.638-.61-1.297-1.205-1.861-1.89-.94-1.145-1.908-2.264-2.822-3.425-.345-.438-.714-.861-1.015-1.333-.214-.335-.52-.593-.802-.863-.423-.407-.65-.346-.975.199.017.272.021.54-.046.805a1.395 1.395 0 01-.095.261.773.773 0 00-.06.283c-.007.101-.007.204-.02.302-.023.973.162 1.928.268 2.886.056.51.136 1.042.288 1.557.124.422.169.874.276 1.308.162.656.332 1.31.51 1.962.172.633.492 1.224.54 1.892l.013.026.072.14.002-.01c.31.58.512 1.205.75 1.812.16.411.395.78.557 1.187.057.14.12.266.11.419.284.046.255.341.335.503.682 1.35 1.499 2.611 2.392 3.827a17.9 17.9 0 003.42 3.55c1.21.945 2.53 1.695 3.98 2.236.672.25 1.378.359 2.043.608.044.017.097.02.101.13-.53.056-1.034.254-1.501.497-1.06.549-1.969 1.303-2.805 2.15-1.554 1.57-2.85 3.33-3.998 5.208-.343.56-.712 1.105-1.07 1.656-.158.182-.105.494-.377.605-.023.097-.025.204-.071.288-.21.39-.43.773-.649 1.159-.674 1.186-1.238 2.424-1.842 3.644-.417.838-.769 1.702-1.177 2.542-.268.55-.482 1.124-.72 1.686-.249.584-.525 1.158-.735 1.758-.217.62-.508 1.211-.712 1.838-.22.677-.522 1.327-.773 1.995-.242.648-.492 1.293-.682 1.956a23.53 23.53 0 01-.484 1.5c-.301.84-.514 1.704-.796 2.549a21.105 21.105 0 00-.497 1.781c-.122.516-.265 1.025-.391 1.538-.127.52-.131 1.055-.28 1.57-.102.35-.125.721.22 1.006.266-.226.474-.476.66-.756.45-.684.85-1.396 1.248-2.11.615-1.105 1.221-2.216 1.84-3.319.483-.855.942-1.727 1.48-2.544.733-1.109 1.405-2.255 2.174-3.343a46.842 46.842 0 011.983-2.643 23.469 23.469 0 012.135-2.273c1.103-1.03 2.295-1.916 3.725-2.425.38-.137.779-.294 1.21-.285.733.01 1.458-.065 2.184.186a7.42 7.42 0 011.661.792c.965.63 1.742 1.446 2.45 2.348.65.832 1.235 1.712 1.738 2.628.497.901.93 1.842 1.36 2.783.426.93.813 1.878 1.163 2.834a80.98 80.98 0 011.526 4.695c.175.603.39 1.196.567 1.802.17.586.351 1.173.46 1.773.077.408.184.813.287 1.209.078.302.087.629.217.914.177.381.23.796.31 1.194.09.455.195.914.307 1.358.204.81.324 1.635.539 2.442.097.365.23.736.253 1.117.035.537.185 1.052.284 1.574.072.375.061.776.2 1.126.198.488.208 1.01.301 1.509.11.582.322 1.161.284 1.771a.417.417 0 00.023.148c.24.596.226 1.241.333 1.859.103.587.209 1.182.314 1.767.109.606.231 1.218.311 1.826.158 1.192.445 2.364.531 3.567.004.067.027.132.038.197.107.639.253 1.276.314 1.919.059.633.21 1.25.297 1.876.056.409.063.836.183 1.23.183.606.189 1.243.366 1.849.059.199.084.388.381.423.053-.645.118-1.274.15-1.907.099-1.962-.061-3.919-.078-5.879-.021-2.28-.263-4.548-.303-6.826a2.055 2.055 0 00-.019-.249c-.226-1.409-.154-2.836-.31-4.253-.132-1.209-.307-2.422-.29-3.646 0-.05-.009-.1-.019-.15-.221-.963-.175-1.957-.304-2.933-.128-.97-.324-1.947-.286-2.939a.445.445 0 00-.023-.148c-.238-.824-.158-1.688-.318-2.528-.154-.815-.244-1.651-.345-2.481-.093-.761-.198-1.526-.299-2.287-.093-.71-.303-1.406-.308-2.13 0-.064-.023-.131-.042-.194-.168-.56-.2-1.149-.286-1.72-.099-.657-.31-1.302-.293-1.977.002-.065-.027-.13-.046-.195-.15-.493-.194-1.01-.291-1.511-.097-.501-.219-1.004-.305-1.51-.059-.356-.08-.729-.187-1.076-.184-.592-.264-1.201-.396-1.8-.162-.732-.341-1.462-.52-2.19-.1-.403-.242-.797-.304-1.204-.063-.413-.193-.809-.288-1.207-.168-.702-.385-1.396-.59-2.09-.082-.283-.155-.572-.25-.853-.185-.547-.388-1.085-.564-1.634-.287-.883-.66-1.73-.971-2.601-.17-.476-.505-.891-.546-1.415-.117-.025-.157-.086-.172-.161-.015-.074-.004-.162-.02-.235-.287-.266-.386-.66-.576-.996z"/><path fill="#CFD3DA" d="M112.4 32.996c0-1.425.002-2.848-.002-4.273 0-.115.017-.26-.044-.341-.19-.256-.184-.545-.146-.82.101-.73-.267-1.4-.225-2.119-.223-.29-.185-.629-.196-.962-.002-.08-.012-.184-.063-.235-.137-.136-.145-.3-.131-.467.038-.415-.181-.77-.288-1.142-.097-.34-.206-.686-.314-1.025-.099-.308-.196-.62-.288-.933-.129-.44-.346-.855-.51-1.287-.303-.8-.728-1.548-1.038-2.347-.147-.377-.471-.63-.617-1.008a5.125 5.125 0 00-.419-.834c-.288-.47-.638-.897-.926-1.36-.35-.56-.706-1.115-1.104-1.635-.564-.74-1.189-1.438-1.823-2.119a34.05 34.05 0 00-2.762-2.63c-.306-.262-.561-.597-.9-.799-.697-.415-1.335-.913-2.002-1.364a25.738 25.738 0 00-2.175-1.308 46.343 46.343 0 00-1.983-1.01c-.34-.163-.723-.239-1.055-.413-1.011-.53-2.114-.8-3.186-1.159-.242-.082-.497-.23-.754-.22-.476.021-.88-.32-1.362-.232-.055.01-.13-.038-.181-.078-.13-.103-.28-.094-.43-.111-.573-.06-1.124-.291-1.716-.214-.044.006-.103-.02-.139-.05-.185-.162-.408-.13-.625-.134-.472-.009-.962.065-1.409-.044-.6-.147-1.196-.158-1.8-.158-.505 0-1.032-.08-1.51.036-.652.157-1.297.151-1.95.164-.151.002-.343-.044-.446.029-.322.23-.674.153-1.019.17-.133.006-.288-.036-.394.048-.22.176-.471.149-.722.155-.118.002-.244-.01-.339.07-.173.146-.375.14-.575.13-.44-.028-.848.16-1.246.272-.577.159-1.162.33-1.725.549-.297.115-.623.13-.899.264-1.044.505-2.152.87-3.164 1.437-.344.193-.72.319-1.062.503-.58.315-1.132.684-1.69 1.038s-1.135.687-1.658 1.088c-.7.538-1.366 1.119-2.065 1.662-.71.55-1.29 1.263-1.954 1.877-.65.602-1.122 1.356-1.743 1.985a6.783 6.783 0 00-.971 1.21c-.196.322-.438.611-.617.945-.259.475-.649.867-.874 1.374-.103.235-.238.47-.396.69-.26.363-.45.778-.66 1.174a13.015 13.015 0 00-.767 1.756c-.148.42-.396.784-.523 1.22-.126.438-.28.874-.425 1.31-.345 1.04-.77 2.058-.84 3.169-.004.065-.012.144-.05.19-.16.185-.144.403-.146.62-.002.116.032.254-.052.34-.194.197-.137.434-.148.665-.01.234.063.52-.044.691-.192.304-.147.608-.156.918-.012.42-.004.838-.008 1.258-.002.132.044.289-.049.39-.185.2-.14.435-.143.664-.004.453-.002.905 0 1.358 0 .117-.031.27.03.344.236.28.156.603.164.913.01.436.004.872.008 1.308.002.132-.031.281.074.384.154.153.147.346.118.517-.103.612.297 1.155.23 1.759-.007.054.046.123.088.172.1.113.105.249.09.379-.056.482.163.914.289 1.348.242.821.522 1.636.792 2.45.216.651.543 1.253.753 1.905.135.419.318.83.544 1.209.191.32.238.733.585.958.03-.036.057-.074.084-.11a.521.521 0 00.112-.383c-.449-.427-.57-1.025-.82-1.557-.187-.4-.395-.794-.536-1.21-.152-.448-.318-.89-.474-1.336-.179-.51-.29-1.044-.478-1.551-.21-.568-.293-1.161-.444-1.74-.135-.51-.14-1.044-.358-1.536-.103-.23-.027-.497-.042-.746-.013-.247.035-.501-.146-.721-.088-.107-.052-.258-.054-.392-.005-.453 0-.905-.007-1.356-.004-.312-.088-.618-.134-.92-.093-.589-.21-1.22.092-1.807.066-.125.04-.262.042-.394.005-.383.002-.767.042-1.188.34.329.807.335 1.173.564l.08-.01c0-.038.004-.076.007-.114.006-.111.002-.22-.089-.314-.084-.103-.215-.189-.137-.354.032-.155.04-.306-.059-.445-.265-.107-.172-.34-.193-.534a.119.119 0 00.033-.072.13.13 0 00-.02-.075c-.632-.017-.634-.017-.628-.629.002-.23-.049-.473.154-.658.02-.02.037-.063.031-.092-.1-.513.24-.958.223-1.457-.006-.19.038-.364.2-.488-.012-.308.108-.58.196-.868.101-.329.268-.635.31-.985.038-.32.174-.379.482-.301.295.073.6.121.832-.16a.563.563 0 01.486-.205c.37.01.741 0 1.112.004.115 0 .255-.031.34.055.167.165.365.138.565.146.4.02.754.428.708.807-.053.436-.053.436.465.564.09-.272.139-.589 0-.809-.314-.5-.067-.884.223-1.207.478-.53.985-1.04 1.693-1.302.337-.125.619-.396.958-.513.299-.103.337-.275.318-.524-.006-.1.008-.201-.002-.302-.032-.291.05-.5.379-.528.135-.01.2-.092.28-.184.15-.179.383-.296.52-.453.476-.545 1.18-.631 1.75-.973.07-.042.158-.046.191-.138.226-.664.824-.895 1.392-1.132.335-.138.7-.2 1.017-.392.152-.09.328-.035.495-.046.21-.012.227.147.274.292.03.09.124.104.212.073.063-.023.127-.048.183-.082.082-.05.196-.063.226-.17.01-.09-.061-.121-.106-.165-.307-.298-.34-.616-.12-.987.141-.237.085-.325-.176-.371-.083-.015-.173 0-.251-.025-.177-.061-.257-.212-.143-.353.215-.268.419-.578.85-.528.582.067 1.165.005 1.748.007.373.002.743.006 1.049-.23.231-.181.488-.21.756-.179.275.031.442-.113.585-.308.05-.067.116-.166.072-.228-.188-.258-.215-.64-.571-.77-.558-.205-.733-.628-.703-1.182.01-.184.008-.369-.007-.553-.023-.287-.147-.352-.39-.18-.23.163-.48.289-.73.415-.493.251-1.042-.023-1.133-.568-.004-.032-.01-.076.007-.097.126-.163.177-.318-.007-.482-.219-.197-.38-.484-.737-.467-.05.002-.1-.002-.151 0-.335.02-.725-.126-.99.05-.252.17-.358.545-.572.79-.158.18-.165.37-.137.56.077.524-.2.922-.449 1.327a.779.779 0 01-.385.306c-.402.159-.81.295-1.234.373-.188.035-.282.11-.259.29.065.487-.267.728-.598.954-.17.118-.383.275-.596.082-.234-.211-.507-.427-.41-.8.073-.287.122-.58.284-.847-.101-.038-.15-.073-.192-.067-.55.096-.962-.23-1.4-.46-.284-.148-.293-.255-.072-.498.531-.58 1.102-1.12 1.756-1.557.375-.252.666-.6 1.04-.853.304-.205.58-.41.96-.484.285-.055.542-.241.83-.195.118-.153-.042-.193-.063-.279-.025-.103-.038-.243.065-.266.327-.071.502-.38.82-.472.303-.088.551-.31.825-.46.53-.29.962-.778 1.615-.835.06-.006.118-.056.177-.084.345-.17.505-.157.743.13.162.2.347.359.56.495.07.044.177.103.183.161.023.266.221.344.41.46.114.068.293.167.136.351-.123.143-.308.323-.46.13-.265-.335-.513-.15-.74-.02-.144.079-.316.087-.44.224-.197.215-.205.274-.043.507.205.293.522.41.817.545.17.077.432.094.527-.145.13-.327.353-.237.579-.174.044.013.075.067.118.092.092.055.2.072.277-.01.095-.097.087-.22-.008-.312a.641.641 0 01-.147-.256c-.04-.107-.181-.182-.137-.31.05-.14.105-.306.215-.39.187-.14.414-.103.614.012.072.04.135.097.2.15.285.236.567.215.771-.057.126-.168.093-.296-.112-.388-.09-.042-.195-.055-.284-.1-.347-.183-.67-.376-.642-.854.015-.253-.227-.452-.594-.538-.08-.02-.172.002-.25-.025-.18-.065-.329-.176-.354-.38-.025-.199.156-.235.284-.302.253-.134.537-.205.804-.276.628-.166 1.217-.434 1.86-.566.57-.117 1.118-.363 1.716-.38.383-.322.926-.056 1.326-.362.1-.075.295-.025.447-.031.347-.017.703.056 1.025-.168.082-.059.23-.03.345-.032.455-.004.91-.004 1.365-.006.217-.002.436.025.627-.128.127-.1.29-.063.44-.065.506-.002 1.011-.004 1.516 0 .283.002.569-.037.826.151.082.059.227.04.343.042.404.006.808-.002 1.213.009.278.006.57-.061.817.16.059.055.193.028.294.034.36.026.735-.073 1.066.179.078.058.23.023.347.025.217.004.44-.023.624.14a.195.195 0 00.139.048c.484-.092.911.164 1.364.243.465.08.926.254 1.377.42.762.283 1.554.475 2.287.842.703.352 1.476.547 2.154.962.2.122.505.07.608.4a1.57 1.57 0 00-.655.633c-.023.042-.057.093-.099.111-.587.258-.857.793-1.15 1.306-.048.086-.12.126-.201.118-.582-.057-1.003.316-1.479.54-.442.208-.46.285-.414.82.031.362.28.553.558.716.1.061.177-.018.265-.077.234-.153.476-.293.724-.42.341-.173.706-.012.756.368.03.22.116.377.265.515a.523.523 0 01.165.35c.044.315.225.413.459.237.217-.164.408-.342.703-.348a.128.128 0 00.116-.182c-.137-.306.019-.5.22-.702.283-.283.272-.298.005-.608a.767.767 0 01.232-1.203c.42-.208.82-.426 1.074-.851.126-.212.585-.226.812-.055.08.061.15.135.22.208.28.293.27.314-.085.522-.35.203-.619.45-.535.918.055.306.166.444.482.467.39.027.763-.094 1.142-.16.286-.047.564-.075.844.024.107.038.24.05.257.201.017.161-.03.33-.169.394-.221.103-.416.277-.699.247-.246-.027-.499-.006-.713-.006-.11.14-.007.185.018.256.154.404.053.547-.38.557-.068.002-.135-.002-.203 0-.343.01-.455.07-.459.388-.004.35-.168.545-.436.732-.259.18-.513.238-.802.127-.286-.109-.539.023-.768.136-.377.183-.74.183-1.097.007-.198-.099-.43-.155-.571-.03-.261.235-.409-.025-.579-.09-.179-.069-.326-.23-.307-.47.01-.133.004-.267-.005-.402-.008-.146-.097-.207-.238-.184-.157.027-.185.153-.14.266.077.2.2.375.185.61-.023.33-.207.539-.59.606-.75.132-.722.165-1.253.608-.522.435-1.101.802-1.665 1.186-.276.186-.647.098-.933.314-.236.176-.276.21-.074.444.276.321.48.66.47 1.11-.006.307-.162.536-.316.766a.463.463 0 01-.432.206c-.636-.028-1.276.05-1.907-.116-.43-.11-.678.093-.689.512-.008.346.023.683-.164 1.02-.101.18-.03.46-.03.694 0 .139.097.233.213.25.54.075.998.44 1.588.362.516-.067.93-.314 1.36-.555a.316.316 0 00.17-.34c-.044-.268.1-.446.28-.603.35-.306.611-.713 1.058-.912.107-.048.14-.172.18-.287.133-.367.243-.434.628-.432.067 0 .145-.019.2.008.482.225.849-.06 1.209-.289.54-.346.95-.297 1.255.243.12.212.294.357.44.537.27.335.676.352 1.126.54-.194-.37-.375-.614-.6-.825-.16-.149-.32-.298-.434-.486a.575.575 0 01.156-.763c.162-.122.413-.076.634.102.337.27.69.516 1.002.822.287.283.718.329 1.072.513.288.151.493.348.486.692-.004.252.1.45.263.63.068.074.12.162.188.238.284.318.598.618.6 1.075.166.034.213-.084.278-.145.27-.247.265-.253.072-.561-.036-.057-.087-.101-.125-.155-.107-.151-.052-.323-.065-.487-.019-.23.15-.253.312-.312.12-.044.244-.117.343-.189.257-.182.453-.197.709.009.207.165.365.31.36.603-.004.319.167.606.318.872.283.5.872.665 1.382.38.248-.14.404-.137.623.037.265.208.53.321.901.082.375-.241.962-.036 1.072.304.097.306.116.652.006.939-.145.383-.309.75-.385 1.159-.065.354-.762.61-1.152.407-.352-.183-.634-.168-.992-.005-.332.151-.749.14-1.082-.002a1.583 1.583 0 00-.667-.142c-.379.006-.68-.227-1.024-.33-.3-.09-.56-.295-.903-.28-.446.019-.627.146-.619.59.006.305-.122.479-.37.585-.18.076-.371.066-.519-.081-.259-.258-.574-.319-.92-.281a.433.433 0 01-.455-.256c-.21-.482-.616-.563-1.059-.545-.456.02-.814-.153-1.137-.446-.214-.197-.26-.363-.143-.61.028-.059.097-.1.118-.16.169-.446-.004-.7-.474-.7-.775 0-1.552.043-2.324-.008-.594-.037-1.078.214-1.546.474-.457.254-.905.386-1.419.346-.183-.015-.373.014-.556-.009-.387-.05-.686.057-.892.405-.089.149-.255.214-.407.285-.585.275-.87.757-.945 1.375-.021.174-.07.323-.196.448-.318.321-.63.635-1.055.837-.541.253-.88.731-1.173 1.236-.05.086-.082.193-.153.254-.377.327-.5.81-.769 1.203-.088.125-.137.285-.057.369.316.335.038.838.356 1.165.019.019.021.071.008.096-.198.399-.1.895-.395 1.256-.192.232-.293.444-.08.708.08.1.088.22.073.335-.044.323.124.516.352.72.36.32.76.605 1.023 1.024.063.099.152.176.145.306-.02.363.251.574.497.694.356.172.6.47.925.668.2.122.377.28.575.405a.66.66 0 00.673.03c.556-.292 1.112-.395 1.727-.187.261.088.541.056.819.042-.821-1.725-.62-3.873-.62-3.873h.003a9.036 9.036 0 01.366-2.176c.251-.866.603-1.668 1.112-2.398.59-.842 1.348-1.546 2.35-1.808 1.272-.334 2.413.008 3.316 1.014.426.474.781.996.994 1.585.133.362.227.754.337 1.13.183.626.154 1.25.175 1.88.012.389-.009.773-.057 1.152h.002s-.409 3.848-2.824 5.177c.066.073.127.142.047.295-.224.43-.1.907-.093 1.364.002.174.181.264.3.378.189.178.408.314.56.549.109.17.13.329.157.505.192.031.383.027.566-.017.061-.015.12-.033.177-.059.405-.171.843-.22 1.26-.31.585-.128 1.134-.35 1.699-.522.57-.172 1.114-.467 1.67-.702a22.976 22.976 0 003.457-1.834c1.705-1.094 3.335-2.3 4.986-3.474.128-.09.362-.137.345-.38-.097-.226-.215-.43-.257-.691-.052-.332-.381-.552-.644-.734-.253-.176-.465-.406-.771-.534-.286-.12-.436-.455-.474-.778-.027-.239-.136-.438-.313-.547-.44-.272-.565-.69-.594-1.146-.021-.344-.128-.61-.434-.797a.873.873 0 01-.368-.52 3.67 3.67 0 00-.687-1.345 1.243 1.243 0 01-.263-.767c.006-.319.632-.482.924-.27.453.329.847.727 1.06 1.242.113.277.271.489.478.681.256.237.448.5.393.872-.027.193.076.327.209.43.596.461.932 1.128 1.396 1.695.054.068.122.135.103.218-.067.31.126.552.253.786.109.204.149.392.164.61.031.438.25.53.661.367.526-.212 1.04-.497 1.642-.436v.002a.203.203 0 01-.004.017.875.875 0 01.798-.438c.291.002.211.235.227.404.062.275.087.55.089.824v.013s.057.55-.206 1.685c.08.035.122.1.122.2-.002.605.111 1.235-.034 1.801-.158.612-.023 1.247-.206 1.805-.165.505-.011 1.062-.333 1.521-.057.082-.027.229-.032.346-.01.214.036.438-.149.612-.032.03-.049.092-.044.138.048.682-.255 1.291-.445 1.91-.273.895-.555 1.794-.958 2.65-.17.366-.324.724-.638.992-.118.1-.107.252-.086.375.063.359-.082.68-.265.93-.415.567-.615 1.242-1.013 1.812-.377.543-.729 1.106-1.112 1.645-.151.214-.292.442-.427.66-.407.658-.99 1.165-1.438 1.782-.43.588-.88 1.165-1.434 1.649-.468.409-.849.926-1.335 1.285-.644.476-1.196 1.054-1.859 1.509-.533.364-1.028.784-1.573 1.133-.847.545-1.668 1.134-2.62 1.5.015.072.005.158.02.234.014.073.054.136.172.161.482-.08.832-.421 1.23-.652.625-.364 1.187-.844 1.813-1.192.74-.41 1.343-.987 2.006-1.482.91-.675 1.702-1.507 2.533-2.284.388-.363.699-.797 1.045-1.195a34.17 34.17 0 002.284-2.934 28.63 28.63 0 001.771-2.924c.611-1.153 1.101-2.36 1.646-3.544.205-.444.339-.926.457-1.402.097-.398.247-.775.348-1.167.086-.334.278-.646.267-.996-.015-.505.31-.951.23-1.463-.004-.027.019-.067.04-.09.166-.18.139-.402.143-.618.002-.117-.034-.268.023-.346.249-.329.154-.702.177-1.062.025-.39-.086-.801.177-1.161.048-.078.019-.206.021-.306zM61.055 14.44c.015.245.118.319.344.31.236-.008.474-.017.705.01.257.032.329.231.166.433-.115.146-.25.27-.463.257-.135-.008-.27.002-.404-.002-.385-.012-.463-.065-.541-.44-.032-.15-.061-.264-.238-.25a.387.387 0 00-.356.307c-.044.163.008.3.183.36.11.04.238-.008.383.113-.427.556-.991.715-1.63.717-.237 0-.372-.153-.444-.341-.082-.214.118-.321.255-.371.335-.122.402-.327.26-.619-.091-.184.134-.352-.003-.538-.57.142-.926.505-1.147 1.04-.135.326-.333.62-.75.628-.35.008-.55-.226-.421-.545.116-.29.219-.591.493-.799.294-.224.471-.546.636-.915a.676.676 0 00-.611.037c-.209.116-.558.007-.63-.188-.086-.235.068-.371.242-.495.306-.22.672-.287 1.015-.406.213-.076.381-.237.649-.223.541.032.943.321.987.866.026.295.14.381.405.356.05-.004.1 0 .151 0 .649.01.727.07.765.698zm45.142 2.016c-.219.01-.438.002-.727.002-.496.076-1.002-.109-1.509-.335a1.128 1.128 0 00-.975.015c-.375.192-.741.39-1.181.318-.219-.035-.331.13-.47.243-.282.229-.617.116-.651-.247-.073-.809.024-1.584.609-2.222.192-.21.263-.53.602-.605.074-.017.177-.111.228-.065.261.23.711.1.892.482.047.098.156.174.245.25a.208.208 0 00.238.022c.111-.065.008-.13-.011-.203-.065-.241.093-.474.251-.528.216-.075.427-.19.652-.229.171-.029.379-.081.52.089.154.184.156.402.085.618-.114.34-.108.387.202.48.438.13.772.442 1.166.647a.968.968 0 01.348.357c.261.435.004.886-.514.911zm4.702 6.514c-.36-.312-.731-.58-.866-1.058-.042-.151-.069-.283-.002-.432.076-.161.194-.212.362-.189.154.021.143.14.19.248.164.383.147.823.379 1.186.033.05.025.13-.063.245z"/><path fill="#9B9FA6" d="M39.93 92.387c1.206.262 2.348.094 3.381-.656.28-.201.45-.526.838-.69.082.688.002 1.29-.14 1.895-.075.31-.19.58-.371.843-.402.578-.956.88-1.63 1.088-.847.261-1.638.062-2.428-.126-.453-.107-.882-.365-1.265-.656-.169-.128-.32-.134-.39.086-.06.192-.2.337-.265.53-.122.36-.147.354.173.583.631.45 1.33.706 2.099.853 1.28.24 2.5.14 3.65-.466 1.157-.608 1.847-1.59 1.896-2.886.107-2.829.025-5.66.042-8.49 0-.033-.002-.067 0-.1.015-.206-.061-.315-.284-.308-.253.008-.505.004-.758 0-.213-.005-.301.09-.295.303.01.309.002.617.002.935-.103-.019-.147-.014-.164-.031-.089-.099-.185-.191-.276-.283-.528-.55-1.181-.94-1.924-1.046-.771-.109-1.556-.14-2.335.134-.723.256-1.335.625-1.803 1.218-1.129 1.435-1.293 3.016-.678 4.707.505 1.387 1.489 2.25 2.925 2.563zm-1.238-6.296c.526-.719 1.225-1.085 2.114-1.136 1.053-.058 1.933.275 2.617 1.082.6.708.867 1.54.735 2.441-.169 1.14-.77 2.042-1.86 2.51-1.63.697-3.385-.01-4.013-1.671-.153-.409-.16-.81-.179-1.22a2.915 2.915 0 01.586-2.006zM37.513 72.408c.427-.006.474-.05.505-.489.007-.083.002-.167.002-.251 0-1.224.034-2.448-.012-3.67-.028-.775-.017-1.567-.314-2.311-.318-.801-.842-1.373-1.678-1.69-.558-.21-1.114-.199-1.682-.188-.897.014-1.622.39-2.213 1.05-.163.182-.23.436-.44.587-1.333-2.396-4.462-1.954-5.52-.269-.126-.352-.069-.639-.077-.918-.004-.17-.082-.251-.238-.258-.32-.01-.64-.006-.958-.008-.166 0-.246.078-.24.245.004.118 0 .235 0 .353 0 2.294-.01 4.591.004 6.886.006 1.052-.232.916.981.922.434.003.445-.016.447-.467.004-1.106-.009-2.211.006-3.318.006-.532.01-1.058.173-1.586.252-.824.699-1.438 1.501-1.803.741-.337 1.929-.15 2.38.585.2.327.374.652.406 1.042.122 1.54.038 3.08.06 4.623.015 1.05-.113.92.959.925.444.002.45-.007.452-.437.005-1.207 0-2.412.002-3.619 0-.641.167-1.243.403-1.84.353-.9 1.373-1.597 2.476-1.427.644.1 1.337.612 1.484 1.232.127.532.255 1.063.238 1.626-.031 1.189-.01 2.38-.01 3.57.004.915.004.915.903.903zM24.01 105.71c-.32-.788-.824-1.366-1.641-1.691-.623-.247-1.253-.224-1.887-.189a2.733 2.733 0 00-1.951.948c-.192.216-.354.459-.537.696-1.213-2.205-4.186-2.159-5.498-.334-.122-.213-.088-.381-.09-.54-.009-.589-.02-.604-.615-.64a2.074 2.074 0 00-.352.019c-.524.067-.486.015-.486.537 0 2.328-.009 4.659.004 6.987.004 1.036-.198.92.937.925.497.002.507-.013.51-.512.004-1.106-.018-2.211.008-3.318.012-.526.004-1.045.17-1.576.272-.863.737-1.515 1.586-1.819 1.017-.364 1.969-.048 2.46.927.288.57.296 1.198.306 1.812.021 1.34.005 2.681.009 4.022.002.445.02.455.448.466.152.004.304.002.455 0 .497-.007.474.046.476-.455.004-.889.006-1.775 0-2.664-.006-.754.013-1.501.194-2.242.265-1.086 1.293-2.157 2.615-1.989.901.115 1.396.71 1.596 1.379.172.576.23 1.175.217 1.785-.023 1.071-.007 2.144-.007 3.217 0 1.084 0 1.084 1.074.971.017-.002.034-.002.05-.002.142-.005.218-.076.222-.218.004-.101.01-.202.01-.302 0-1.409.013-2.815-.006-4.223-.004-.667-.017-1.337-.278-1.977zM59.578 104.015c-.354-.013-.708-.008-1.06-.008-.086 0-.172.021-.191.123-.03.168-.156.287-.21.449-.237.706-.504 1.402-.759 2.104-.248.685-.495 1.371-.745 2.054-.148.4-.327.79-.43 1.207-.033.143-.147.205-.303.224-.368-.834-.579-1.712-.884-2.559-.35-.968-.636-1.959-.963-2.938-.143-.426-.155-.421-.595-.423-.152 0-.306.014-.455-.005-.223-.027-.322.061-.394.275-.324.958-.695 1.903-.996 2.867-.27.866-.577 1.719-.846 2.582-.03.094-.038.214-.173.191-.093-.017-.191-.059-.221-.178-.16-.627-.425-1.216-.646-1.82-.451-1.23-.885-2.464-1.333-3.694-.17-.468-.183-.466-.678-.468-.22-.002-.438-.008-.657.002-.31.015-.373.103-.244.365.058.119.111.237.157.365.3.825.586 1.66.925 2.468.33.791.627 1.595.924 2.396.305.819.661 1.622.91 2.465.07.237.21.41.511.375.2-.023.405-.002.607-.006.379-.009.415-.049.528-.397.25-.775.512-1.548.773-2.322.312-.924.625-1.846.935-2.77.036-.107.015-.246.194-.229.147.015.185.113.212.237.108.501.31.975.47 1.457.347 1.056.716 2.104 1.07 3.158.311.928.334.91 1.347.874.272-.011.388-.14.47-.365.511-1.396 1.019-2.791 1.54-4.181.45-1.192.915-2.379 1.378-3.567.072-.182.044-.302-.169-.308zM12.297 66.12c.21-.62.478-1.221.716-1.833.059-.153.025-.27-.163-.28-.252-.012-.507.013-.755-.022-.365-.053-.567.109-.67.432-.074.236-.194.46-.257.693-.194.7-.503 1.354-.724 2.044a25.366 25.366 0 01-.767 2.091c-.143.338-.16.755-.534 1.021l-.548-1.672-.465-1.42c-.253-.764-.527-1.523-.756-2.296-.188-.631-.181-.652-.826-.652-.134 0-.269.006-.404 0-.154-.006-.223.048-.28.207-.168.463-.322.93-.471 1.4-.236.74-.497 1.474-.746 2.21-.244.716-.486 1.435-.728 2.156-.2-.036-.285-.145-.333-.3-.175-.57-.415-1.117-.604-1.678-.421-1.25-.916-2.472-1.337-3.719-.173-.513-.188-.509-.75-.51-.185 0-.37-.005-.556.001-.35.01-.415.107-.257.426.141.283.228.582.337.876.234.63.468 1.261.708 1.89.326.853.675 1.696.985 2.555.286.792.632 1.561.874 2.37.059.195.212.323.459.304.234-.019.472-.017.707-.002.272.017.413-.128.47-.358.15-.627.419-1.214.608-1.826.344-1.106.733-2.198 1.091-3.3.036-.11.038-.242.202-.242.164.002.16.137.198.246.192.565.394 1.13.583 1.695.173.516.335 1.035.504 1.553.153.47.259.964.48 1.402.132.262.025.66.362.786.299.111.634.017.952.042.292.023.438-.138.492-.386.063-.293.183-.57.293-.838.35-.86.65-1.735.985-2.599.316-.82.645-1.632.925-2.466zM31.674 103.814c-.762-.019-1.503.044-2.183.427-.459.258-.865.577-1.194 1.04-.135-.183-.105-.321-.107-.451-.02-.836-.017-.832-.838-.832-.735 0-.598.059-.598.608-.005 3.536-.005 7.071 0 10.607.002 1.115-.167.974 1.107.981.236.002.337-.105.325-.338-.007-.117 0-.234 0-.352 0-1.274-.003-2.546.004-3.82 0-.17-.063-.363.09-.501.158.019.207.151.272.226.493.581 1.128.916 1.855 1.073 1.42.306 2.73.069 3.836-.912.853-.756 1.301-1.72 1.365-2.869.056-1.027-.02-2.029-.581-2.921-.771-1.218-1.862-1.929-3.353-1.966zm2.479 5.204c-.167.568-.362 1.102-.794 1.502-.828.767-1.781 1.036-2.906.702-.55-.163-1.019-.412-1.404-.811-.522-.536-.845-1.171-.85-1.94 0-.072-.003-.143-.003-.214-.025-.905.427-1.719.526-1.884.329-.501.811-.853 1.4-1.088 1.416-.56 2.864-.128 3.603 1.075.5.813.714 1.685.428 2.658zM95.01 111.803v-10.955l-.003-.352c0-.189-.099-.27-.284-.266-.27.004-.539.004-.808.004-.169 0-.24.09-.238.252.002.117-.003.234-.003.352 0 1.305.003 2.613-.002 3.919 0 .155.049.327-.063.471a.57.57 0 01-.303-.197c-.707-.806-1.604-1.182-2.672-1.219-.695-.023-1.383.014-2.017.304-1.506.691-2.26 1.93-2.457 3.527-.108.876.065 1.727.398 2.536a3.72 3.72 0 001.07 1.452c.74.616 1.597.958 2.564.973 1.215.018 2.303-.306 3.13-1.26.064-.071.142-.145.283-.145.084.105.057.21.067.309.03.293-.139.685.085.861.23.182.617.036.932.061.247.019.335-.097.318-.327-.004-.099.002-.199.002-.3zm-3.27-.687c-1.586.683-3.331.039-3.948-1.679-.468-1.304-.314-2.528.66-3.561.546-.578 1.25-.876 2.045-.803 1.186-.092 2.47.684 2.95 1.941.64 1.67-.065 3.393-1.707 4.102zM28.522 91.19c.064-.069.137-.16.276-.073.005.084.007.182.015.279.03.293-.139.679.084.86.232.186.617.035.935.062.253.023.328-.099.31-.327-.01-.134-.002-.268-.002-.402 0-3.536.004-7.07-.003-10.605-.002-.991.177-.861-.884-.866-.43-.002-.438.009-.44.409-.004 1.107-.002 2.211-.002 3.318v1.33a2.232 2.232 0 01-.417-.328c-.674-.684-1.474-1.111-2.457-1.132-.303-.007-.607-.002-.908 0-.76.008-1.438.301-2.023.731-1.064.778-1.58 1.897-1.716 3.182-.097.913.124 1.781.514 2.611.467.995 1.24 1.706 2.27 2.02 1.663.51 3.206.281 4.448-1.069zm-1.657-.174c-1.657.667-3.358-.092-3.95-1.706-.151-.412-.145-.806-.174-1.21-.108-.85.189-1.6.715-2.208.588-.677 1.382-.985 2.319-.947.966.04 1.754.417 2.339 1.142.558.692.823 1.528.678 2.419-.19 1.163-.823 2.068-1.927 2.51zM8.065 83.885c-.211.012-.297.073-.302.293-.004.31.053.627-.054.983-.12-.09-.23-.143-.3-.229-1.157-1.42-3.299-1.513-4.682-.924-1.522.648-2.274 1.916-2.47 3.515-.103.838.055 1.651.362 2.442.449 1.148 1.272 1.953 2.422 2.305 1.642.503 3.173.27 4.404-1.06.064-.07.146-.145.264-.11.073.086.042.191.059.288.05.301-.17.718.113.884.24.14.624.038.942.046.187.006.284-.07.275-.264-.004-.134.002-.268.002-.402v-6.787c.003-1.05.005-1.045-1.035-.98zm-.424 5.004c-.252.788-.646 1.417-1.33 1.843-.756.469-1.563.633-2.474.415-1.209-.288-2.24-1.608-2.173-3.077a3.081 3.081 0 01.871-2.303c.908-.96 2.53-1.027 3.57-.457.658.36 1.153.861 1.402 1.542.231.648.368 1.304.134 2.037zM8.669 106.205c-.537-1.327-1.584-2.064-2.917-2.326-1.031-.204-2.099-.132-3.082.377-1.445.75-2.257 1.93-2.43 3.533-.082.755.063 1.476.352 2.195.36.893.977 1.547 1.783 1.987a5.291 5.291 0 003.403.595c.865-.134 1.676-.415 2.358-.983.6-.501.598-.505.004-1.065-.286-.268-.297-.272-.615-.031-.347.262-.72.509-1.126.645-1.106.369-2.222.361-3.255-.226-.853-.484-1.38-1.228-1.47-2.228-.038-.417-.023-.425.392-.427 1.094-.005 2.187-.003 3.282-.003 1.112 0 2.222.003 3.333-.002.386-.002.392-.008.377-.398-.019-.574-.175-1.111-.39-1.643zm-1.443.958c-1.648.002-3.297.004-4.946 0-.414 0-.43-.055-.265-.424a2.771 2.771 0 011.916-1.59c1.236-.304 2.577-.076 3.327 1.201.135.228.208.473.33.777-.162.017-.263.036-.362.036zM83.678 104.824a3.818 3.818 0 00-2.264-.992c-.383-.035-.773-.016-1.16-.002-.836.034-1.586.34-2.242.832-1.192.891-1.771 2.105-1.79 3.584-.004.405.071.795.183 1.184.223.778.598 1.453 1.228 1.987 1.1.935 2.383 1.283 3.802 1.18 1.165-.084 2.198-.478 3.039-1.312.136-.136.23-.235.025-.394a2.904 2.904 0 01-.417-.429c-.168-.202-.307-.17-.505-.019a4.607 4.607 0 01-1.643.802c-.985.258-1.91.13-2.769-.337-.876-.476-1.408-1.237-1.476-2.264-.025-.383-.014-.391.375-.394 1.095-.004 2.188-.002 3.283-.002h3.181c.101 0 .203-.004.303 0 .175.007.236-.081.236-.245 0-.574-.124-1.121-.313-1.66-.213-.612-.6-1.09-1.076-1.519zm-.394 2.337c-.855.006-1.712.002-2.567.002v.002c-.806 0-1.61.002-2.417-.002-.406-.002-.457-.078-.28-.415.613-1.163 1.59-1.717 2.901-1.698 1.268.019 2.123.637 2.605 1.79.097.237.046.318-.242.321zM68.888 106.209c-.67-1.496-1.847-2.27-3.461-2.381-.649-.046-1.295-.031-1.935.191-.413.142-.813.31-1.15.555-.857.625-1.46 1.423-1.741 2.488-.31 1.167-.15 2.247.38 3.28.575 1.123 1.578 1.739 2.765 2.085a5.138 5.138 0 002.15.145c.885-.122 1.72-.369 2.413-.973.684-.595.724-.377.032-1.1-.25-.26-.26-.241-.57-.027-.496.337-1.007.612-1.608.769-1.002.26-1.939.132-2.81-.356-.86-.48-1.382-1.233-1.458-2.239-.029-.387-.014-.396.377-.398 1.093-.004 2.188-.002 3.28-.002 1.11 0 2.222.002 3.332-.002.383-.002.387-.008.377-.396a4.25 4.25 0 00-.373-1.639zm-1.347.951c-.638.003-1.278.003-1.916.005h-.706c-.806 0-1.613.004-2.42-.002-.395-.003-.42-.057-.256-.436.284-.656.808-1.065 1.42-1.392.688-.369 1.446-.379 2.155-.218.965.218 1.628.87 1.948 1.823.067.206-.082.22-.225.22zM48.384 70.983a7.413 7.413 0 00-.621-.637c-.095-.086-.23-.04-.33.019-.115.067-.216.157-.323.239-.632.473-1.358.68-2.133.748-.689.06-1.341-.103-1.935-.415-.927-.486-1.495-1.254-1.588-2.318-.031-.375-.017-.382.38-.384 1.094-.004 2.19-.002 3.282-.002 1.129 0 2.257.002 3.384-.002.339-.002.355-.01.339-.331-.057-1.102-.348-2.096-1.182-2.905-.75-.725-1.604-1.15-2.642-1.182-.649-.02-1.295-.042-1.935.189-.423.153-.828.325-1.188.58-.878.623-1.47 1.436-1.72 2.503-.337 1.435-.099 2.724.834 3.885.85 1.059 2.027 1.45 3.308 1.623.728.096 1.448-.03 2.139-.237a4.139 4.139 0 001.838-1.126c.074-.071.18-.149.093-.247zm-6.586-4.252c.587-1.189 1.834-1.799 3.118-1.677 1.129.107 1.929.643 2.346 1.708.124.314.084.383-.26.386-.84.008-1.678.002-2.518.002-.806 0-1.61.002-2.417-.002-.419 0-.446-.057-.27-.417zM18.255 72.61c2.274.005 4.521-1.612 4.559-4.406.032-2.318-1.885-4.385-4.371-4.422-2.592-.04-4.525 2.05-4.542 4.304-.017 2.507 1.872 4.44 4.354 4.523zm-.642-7.483c.253-.084.53-.082.8-.05 1.341-.059 2.375.922 2.784 1.951.164.415.31.874.248 1.36-.15 1.172-.951 2.335-2.219 2.813-1.432.54-3.291-.625-3.689-1.878-.623-1.955.347-3.62 2.076-4.196zM41.3 103.809c-2.473-.088-4.475 2.056-4.444 4.372.036 2.486 1.94 4.429 4.426 4.429 2.377 0 4.466-1.765 4.487-4.399.02-2.44-2.023-4.498-4.47-4.402zm.829 7.422c-1.394.486-3.199-.577-3.639-1.855-.135-.394-.177-.771-.194-1.17-.082-1.506 1.024-2.724 2.294-3.066 1.139-.306 2.166.063 2.954.927.545.597.86 1.339.848 2.165-.019 1.278-.979 2.55-2.263 2.999zM12.368 83.889c-.084 0-.168.006-.252.002-.232-.009-.346.092-.32.33.008.085.002.168.002.252v7.189c0 .117.008.235.002.352-.01.216.105.3.305.3.253 0 .505.012.758 0 .341-.017.362-.044.377-.388.006-.134 0-.268.002-.402.008-1.241.023-2.48.021-3.72 0-.449.166-.843.33-1.239.335-.811.986-1.31 1.797-1.536.84-.235 1.888-.032 2.345.95.207.443.356.892.358 1.38.009 1.342.004 2.68.006 4.022 0 1.035 0 1.03 1.055.941.207-.017.312-.103.344-.289.02-.132.023-.266.023-.4.002-1.04-.013-2.08.006-3.117.013-.74-.088-1.471-.156-2.205a2.552 2.552 0 00-.305-.949c-.895-1.683-2.358-1.87-3.935-1.563a2.62 2.62 0 00-1.756 1.261c-.043-.035-.082-.052-.089-.08a1.727 1.727 0 01-.044-.293c-.036-.807-.036-.807-.874-.798zM51.517 72.404c.457.002.472-.021.474-.493.004-1.104-.01-2.211.006-3.316.009-.53.025-1.054.192-1.582.374-1.182 1.598-2.127 2.9-1.932.566.086 1.014.34 1.3.815.266.44.428.935.434 1.455.013 1.406.008 2.812.01 4.22.003.843 0 .843.858.837.543-.004.572-.03.572-.568.002-1.256.013-2.513-.004-3.769-.01-.813-.059-1.63-.36-2.4-.307-.783-.857-1.332-1.655-1.66-.552-.223-1.11-.213-1.678-.202-.996.019-1.769.463-2.373 1.228-.03.037-.053.086-.122.06-.076-.048-.061-.136-.078-.215-.061-.281.168-.65-.135-.837-.25-.155-.594-.046-.895-.058-.033-.002-.067.002-.1.002-.228-.002-.344.092-.315.333.013.115.003.235.003.352 0 2.262-.01 4.52.004 6.782.006 1.07-.225.941.962.948zM65.616 91.038c-.92.459-2.09.163-2.649-.71-.099-.156-.219-.202-.373-.19a3.718 3.718 0 00-.545.097c-.398.099-.514.31-.316.66.169.3.386.575.653.805 1.063.91 2.937 1.08 4.264.266 1.358-.832 1.543-2.768.168-3.758-.503-.36-1.082-.576-1.68-.748-.493-.142-.994-.276-1.398-.626-.341-.296-.49-.715-.301-1.07.225-.42.554-.733 1.07-.8.579-.073 1.092.034 1.383.566.156.287.34.312.613.295.26-.016.467-.184.718-.224.094-.014.157-.1.103-.182-.133-.197-.141-.438-.284-.637-.575-.803-1.367-1.115-2.19-1.084-1.537-.014-2.418.602-2.826 1.905-.255.814 0 1.507.575 2.102.295.304.678.478 1.061.627.585.226 1.192.407 1.777.635.596.233.937.669.88 1.11-.057.464-.322.772-.703.96zM58.185 91.62c0 .084-.004.168 0 .252.02.381.07.433.443.444.168.004.337.002.505 0 .47-.004.474-.004.474-.461.002-1.876 0-3.752 0-5.627V80.7c0-.117 0-.235-.002-.352-.002-.162-.078-.248-.247-.245-.286.002-.572-.005-.859.004-.225.006-.333.13-.316.358.007.084 0 .168 0 .252.002 3.634.002 7.268.002 10.902zM52.517 92.314c.202-.002.404.004.607.002.536-.006.539-.008.54-.526.005-.838 0-1.677.003-2.513.002-.752.014-1.505.231-2.236.162-.545.371-1.065.8-1.459.42-.383.891-.647 1.493-.566.192.028.392.26.56.09.152-.155.064-.414.072-.63.006-.151.004-.302-.008-.453-.013-.145-.082-.262-.24-.283-.487-.06-.967-.075-1.439.1-.602.227-.993.682-1.339 1.229-.06-.074-.094-.094-.099-.122a1.611 1.611 0 01-.031-.247c-.036-.82-.034-.82-.864-.813-.1 0-.202.004-.303.006-.179.002-.288.07-.278.268.007.1 0 .201 0 .302v7.24c0 .1.007.2.002.3-.01.208.078.313.293.311zM75.396 103.828c-.958-.09-1.777.13-2.368.956-.074.103-.118.279-.32.318-.127-.178-.072-.383-.078-.572-.013-.499-.068-.557-.588-.574a7.662 7.662 0 00-.303 0c-.55.01-.562.023-.562.568v6.981c0 .96 0 .96.985.924.434-.014.461-.035.465-.456.007-.887.009-1.776.003-2.662-.007-.937.07-1.859.433-2.739.213-.518.537-.948 1.03-1.21.434-.232.893-.377 1.392-.115.187.099.288-.004.297-.247.008-.252-.002-.503.004-.753.008-.272-.127-.394-.39-.419zM48.563 83.857c-.156.015-.272.128-.272.31V91.653c0 .1 0 .2.002.301.004.24.101.378.367.367.219-.01.437.002.656-.002.38-.006.388-.008.388-.394.004-1.272.002-2.544.002-3.816V84.29c0-.186.021-.381-.238-.421a3.538 3.538 0 00-.905-.013z"/><path fill="#CFD3DA" d="M79.132 60.908c-.32-.002-.64-.002-.96-.006-.167-.002-.337.021-.472-.12a.264.264 0 00-.183-.066c-.94.07-1.813-.275-2.714-.434-.672-.118-1.319-.371-1.977-.56-.396-.113-.796-.218-1.194-.325-.049-.012-.108-.002-.148-.025-.657-.386-1.387-.595-2.088-.867-.858-.332-1.62-.835-2.43-1.245-.192-.097-.38-.193-.598-.19.035.309.07.621.103.942l.015.006c.06-.115-.02-.27.122-.388.41.225.825.457 1.246.68.305.16.602.366.929.45.518.132.966.405 1.453.585.362.134.688.383 1.065.432.72.092 1.34.47 2.038.624.784.172 1.56.365 2.346.53.438.093.87.168 1.312.2a.143.143 0 01.088.044c.143.163.335.127.516.132.286.004.57.008.857.004.154-.002.26.044.295.205.275-.113.22-.425.379-.608z"/><path fill="#9B9FA6" d="M48.035 81.1c0 .622.356.966.996.961.57.042.94-.28.951-.9.013-.699-.463-1.053-1.025-1.026-.547.027-.92.403-.922.964z"/><path fill="#CFD3DA" d="M61.63 53.613a59.165 59.165 0 01-2.933-2.92c-.255-.274-.423-.618-.66-.916-.178.059-.374.14-.582.254.259.065.448.235.556.532.033.09.109.17.178.241.571.59 1.12 1.201 1.725 1.755.798.73 1.497 1.573 2.409 2.177.122.08.174.241.305.306a29.97 29.97 0 00-.409-1.08c-.252-.012-.425-.194-.59-.35zM74.487 36.961c-.366-.199-.76-.21-1.16-.193-.196.009-.3-.142-.409-.258a1.64 1.64 0 00-1.326-.542c-.213.008-.392-.032-.537-.202a.726.726 0 00-.326-.215c-.232-.082-.396-.244-.377-.52.002-.017.006-.038-.002-.048-.337-.486-.417-1.124-.895-1.528-.09.002-.144.048-.196.126-.729 1.022-1.676 1.827-2.67 2.573-.59.442-1.26.759-1.94 1.06a7.167 7.167 0 01-1.903.55c-.77.109-1.556.117-2.347-.06a10.744 10.744 0 01-1.697-.542 5.516 5.516 0 01-1.46-.895c-.048-.04-.094-.081-.143-.121a1.632 1.632 0 00-.47-.306c-.018.197-.035.375.102.568.177.245.11.564-.09.775-.304.323-.334.839.043 1.019.436.205.497.645.796.918.072.065.108.168.226.17a.302.302 0 00.11-.044.647.647 0 00.092-.082c.486-.518.996-1.01 1.695-1.25.26-.09.553-.163.787-.054.386.18.79.354 1.085.686.576.645.991 1.38 1.353 2.15 0 0 1.858 2.207 3.426 15.396.01.002.021.006.032.006.1-.019.196-.046.223-.168.032-.142-.025-.303.09-.431.18-.197.146-.359-.09-.478-.305-.157-.204-.438-.179-.669.032-.27.286-.15.45-.18a.326.326 0 01.102 0c.225.019.34-.063.343-.31 0-.183-.088-.409.19-.51.185-.066.334-.22.557-.192.133.017.27.012.403-.002.568-.063.755-.468.515-.969-.153-.322-.425-.544-.63-.867.194-.09.293-.371.563-.185.324.224.682.093 1.025.114.478.027.462-.457.678-.7.04-.045.034-.128.057-.191.2-.541.453-1.033.883-1.45.216-.212.362-.548.311-.908-.023-.163.008-.335-.01-.501-.045-.398.164-.66.46-.874.148-.105.293-.22.458-.295.486-.223.922-.602 1.518-.512.238.036.406-.132.482-.3.261-.582.777-1.062.728-1.77a.27.27 0 01.028-.147c.278-.47.242-.943.025-1.42-.053-.112-.086-.244.009-.328.151-.132.183-.33.237-.484.114-.327.443-.5.527-.828.01-.153-.053-.279-.11-.42-.162-.406-.398-.777-.558-1.185-.238-.608-.44-1.235-.75-1.813l-.001.01-.072-.14-.013-.026c-.084-.002-.183.026-.248-.008z"/><path fill="#9B9FA6" d="M52.82 29.23c.009.07.015.14.023.211.12.143.247.283.194.493l.025.205c.171.082.228.218.19.396l.027.191c.103.034.181.086.156.212l.027.207c.129.1.238.212.203.396.297.447.478.952.753 1.413a14.956 14.956 0 002.16 2.802c.024.023.034.054.051.084.18.069.327.184.47.306.048.04.095.082.143.121.44.371.935.682 1.46.895.544.223 1.109.409 1.696.541.792.178 1.58.17 2.348.06a7.246 7.246 0 001.903-.548c.68-.3 1.35-.619 1.94-1.06.993-.747 1.94-1.552 2.67-2.574.054-.076.105-.124.195-.126.278-.547.71-.99 1.036-1.503.463-.727.895-1.473 1.287-2.242.377-.738.705-1.493.945-2.285.009-.031.084-.042.129-.06.012-.1.01-.202.019-.302a.781.781 0 01.06-.283c.043-.088.072-.174.095-.262.068-.264.063-.533.047-.805-.489-.16-.87.065-1.24.34-.645.475-1.285.961-1.948 1.414-.735.501-1.445 1.044-2.228 1.478-.747.415-1.516.788-2.318 1.066-.754.262-1.53.501-2.346.501-.886-.002-1.77.063-2.646-.207-.411-.128-.828-.224-1.234-.386a7.799 7.799 0 01-1.674-.918c-.918-.656-1.788-1.37-2.447-2.303-.11-.013-.12-.1-.143-.18-.108-.026-.114-.132-.16-.206-.322-.245-.596-.53-.767-.9-.065-.12-.258-.152-.233-.334-.152-.027-.223-.115-.213-.268a.828.828 0 01-.396-.501c-.023-.021-.027-.046-.019-.076-.172.015-.219-.109-.263-.237l-.128-.041c-.428-.06-.44.046-.493.36-.076.459-.116.916-.025 1.381.078.405.103.82.035 1.232.015.026.024.05.022.076a.118.118 0 01-.034.071c.135.153.263.308.194.535.099.138.088.289.058.444.106.096.232.182.14.354.09.092.092.201.086.312l-.007.114c.144.094.22.218.175.396z"/><path fill="#CFD3DA" d="M104.529 44.114l-.006.007c-.878 1.002-1.799 1.961-2.811 2.835a24.51 24.51 0 01-2.443 1.861c-.164.11-.333.212-.5.31-.51.298-1.035.566-1.53.89 0 .25-.012.502.005.752.03.387.343.589.663.408.419-.234.899-.22 1.305-.165.558.073 1-.162 1.474-.298.558-.161.912-.65 1.339-1.014.16-.139.289-.33.388-.52.12-.233.29-.41.499-.551.33-.222.499-.564.474-.912-.04-.54.157-.853.652-1.016.095-.032.198-.053.278-.11.133-.094.301-.188.297-.377-.006-.293.057-.586-.101-.88-.227-.421-.093-.95.297-1.195.352-.222.659-.49.956-.777.141-.138.284-.25.512-.277.421-.05.869-.635.871-1.066.002-.403.002-.803.002-1.206-.012.003-.023.011-.035.015-.805 1.203-1.693 2.387-2.586 3.286zM93.704 37.72a.248.248 0 00.057.03c.03.01.057.008.082-.005.021-.01.04-.03.057-.065-.099-.138-.16-.107-.196.04zM66.435 56.934c-.028 0-.057 0-.084-.002v.011c.033.025.06.023.084-.008z"/><path fill="#9B9FA6" d="M59.746 27.882c.27.252.575.457.939.516.933.15 1.697-.162 2.307-.876.855-1 1.266-2.153 1.218-3.502.002-.497-.017-1.019-.186-1.543-.194-.606-.47-1.159-.928-1.584-.489-.453-1.072-.765-1.777-.6a2.851 2.851 0 00-1.304.692c-.922.853-1.299 1.966-1.453 3.156a4.524 4.524 0 00.14 1.832c.204.731.484 1.387 1.044 1.91z"/><path fill="#CFD3DA" d="M88.196 9.944c.2.084.255.229.261.434.007.235-.04.43-.231.572-.19.14-.224.333-.16.537.069.224.278.125.431.144.082.01.169.002.253.002v-.002c.118 0 .236-.01.352.002.275.03.433-.138.568-.335.044-.065.11-.164.019-.222-.314-.208-.404-.591-.69-.828-.34-.279-.597-.606-.565-1.098.017-.27-.257-.461-.507-.432-.247.03-.382.21-.39.497a.56.56 0 00.19.444c.134.134.3.214.47.285zM71.03 13.132c.296.034.604-.054.894.063.329.132.348.126.348-.214-.005-.149.019-.38-.144-.386-.338-.01-.515-.377-.856-.333-.043.006-.08.057-.118.088-.104.084-.215.162-.308.256-.111.115-.31.212-.255.398.066.22.287.111.438.128zM86.406 11.068c.026-.02.064-.021.095-.03.428-.12.428-.12.432-.536 0-.05.002-.1 0-.151-.004-.099.02-.212-.076-.277-.124-.084-.219.008-.314.078-.12.088-.231.199-.366.253-.133.055-.255.086-.249.26.007.151-.042.331.026.445.143.238.305.062.452-.042zM95.976 16.57c.053-.047.05-.12.03-.183-.08-.233-.297-.325-.733-.254.257.14.404.264.539.402.05.053.105.09.164.036z"/><path fill="#9B9FA6" d="M66.368 57.073c-.004-.044-.01-.086-.015-.13v-.008l-.076-.648c.002-.063.004-.128.009-.193l-.032-.006c-1.569-13.19-3.426-15.396-3.426-15.396-.362-.77-.777-1.505-1.354-2.15-.294-.331-.7-.503-1.084-.686-.234-.109-.524-.035-.788.055-.699.239-1.206.731-1.694 1.249a.47.47 0 01-.093.082.265.265 0 01-.11.044c-.063.245-.238.423-.379.622-.686.962-1.242 1.995-1.752 3.058-.282.589-.473 1.226-.863 1.762.023.151-.033.273-.111.384a1.333 1.333 0 01-.085.109.676.676 0 01-.07.337c-.132.3-.281.592-.372.912-.126.438-.307.86-.463 1.287-.179.49-.366.979-.535 1.473-.196.577-.375 1.157-.56 1.736-.166.521-.368 1.035-.488 1.567-.144.646-.38 1.264-.516 1.914-.055.266-.097.553-.198.813-.162.415-.261.845-.37 1.274-.098.386-.154.784-.253 1.166-.144.544-.232 1.1-.38 1.64-.124.453-.149.92-.265 1.371-.147.575-.164 1.157-.172 1.742-.002.107-.015.243.153.28.31-.408.487-.888.685-1.347.436-1.012.808-2.052 1.276-3.053.692-1.489 1.286-3.02 2.105-4.45 1.287-2.287 2.455-3.364 3.36-3.856a3.6 3.6 0 01.584-.254c.808-.264 1.297-.046 1.297-.046a.828.828 0 01.449.18c.229.168.431.357.619.558.143.176.873 1.134 1.812 3.491.133.331.268.692.409 1.08.51 1.423 1.061 3.24 1.604 5.537.09.423.18.85.28 1.268.127.52.224 1.044.308 1.565.099.61.22 1.216.35 1.815.128.604.195 1.22.286 1.824.046.318.118.635.179.953.031.21.063.424.092.637.013.145.021.29.017.436a.636.636 0 00.034.197c.194.675.252 1.377.313 2.067.072.832.308 1.643.28 2.481-.001.034.009.067.017.099.228.771.236 1.578.323 2.366.096.893.311 1.777.284 2.685 0 .017.006.033.008.05.204.983.26 1.987.369 2.98.06.562.204 1.103.294 1.681.066-.054.108-.073.112-.096.021-.132.042-.264.042-.396-.002-3.13.044-6.256-.15-9.385-.11-1.803-.286-3.603-.305-5.412a5.603 5.603 0 00-.05-.65c-.042-.624-.087-1.23-.13-1.825-.015-.409-.022-.82-.02-1.23a.715.715 0 01-.084-.118c-.048-.605-.097-1.194-.145-1.768l-.032-.495-.014-.017c-.064-.723-.129-1.423-.194-2.1-.007-.115-.013-.228-.017-.344l-.017-.012c-.053-.524-.103-1.031-.158-1.528-.006-.096-.01-.193-.017-.29-.006-.001-.008-.003-.014-.006-.03-.312-.066-.624-.1-.932zM91.302 34.964c.81.05 1.488-.124 2.057-.436 2.417-1.329 2.824-5.177 2.824-5.177h-.003c.049-.38.07-.763.057-1.152-.02-.63.009-1.254-.174-1.88-.11-.373-.205-.767-.337-1.13-.213-.587-.571-1.11-.994-1.584-.903-1.004-2.043-1.346-3.317-1.015-1.004.262-1.762.966-2.35 1.809-.509.73-.86 1.532-1.111 2.398a8.94 8.94 0 00-.366 2.175h-.002s-.203 2.148.618 3.873c.519 1.094 1.447 2.018 3.098 2.119z"/></svg>