<svg width="80" height="83" viewBox="0 0 80 83" fill="none" xmlns="http://www.w3.org/2000/svg">
<g clip-path="url(#clip0_4717_2277)">
<path d="M80 69.3632C80 76.464 74.2436 82.2204 67.1428 82.2204H40H12.8571C5.75634 82.2204 0 76.464 0 69.3632V39.3632V34.1837C0 30.2383 1.81142 26.5114 4.91372 24.0739L32.0566 2.74733C36.7187 -0.915778 43.2813 -0.915778 47.9434 2.74733L75.0863 24.0739C78.1886 26.5114 80 30.2383 80 34.1837V39.3632V69.3632Z" fill="#F8CD69"/>
<path d="M35.036 31.4284L36.902 29.6052L42.7602 28.6256C42.7602 29.465 43.4526 29.3195 43.6386 30.3692C43.8246 31.419 44.9852 32.3457 47.428 32.3457L45.5845 36.1944L40.0543 37.1476L36.3559 35.447L33.2949 32.3477L35.036 31.4284Z" fill="#D8A15B"/>
<path d="M36.7076 18.2396L34.042 23.1158C34.042 23.1158 34.4409 32.4555 40.5451 32.4555C46.6494 32.4555 46.4572 24.0373 46.4572 24.0373V20.8079" fill="#D8A15B"/>
<path d="M48.884 46.5662L55.2805 41.1726C54.8022 40.0567 54.1105 36.8293 53.3297 35.3127C50.8081 33.079 47.8381 32.2435 47.8381 32.2435C46.7435 32.2435 46.7435 33.3856 46.7435 33.3856C45.1752 34.9623 44.258 35.7295 44.258 35.7295C40.7716 36.0779 39.6883 36.0779 39.6883 36.0779C37.2896 36.0779 36.2788 34.9623 36.2788 34.9623L33.9368 32.2435C33.9368 32.2435 31.7807 31.7046 30.3454 33.079C27.5229 34.3512 25.3262 41.1726 25.3262 41.1726L29.3014 52.0193L37.7758 64.5174C41.6642 63.033 42.3399 50.0552 44.2813 48.0868" fill="white"/>
<path d="M32.0352 30.1283C32.0352 30.1283 32.5988 38.4361 41.1222 37.9313C49.646 37.4266 48.3072 29.7497 48.3072 29.7497" stroke="#F4B536" stroke-width="1.34276" stroke-miterlimit="10" stroke-linecap="round"/>
<path d="M30.4062 31.7992C30.4062 31.7992 31.371 40.059 40.712 39.7805C50.1925 39.4958 50.1013 32.2738 50.1013 32.2738" stroke="#AF752A" stroke-width="1.34276" stroke-miterlimit="10" stroke-linecap="round"/>
<path d="M54.7611 40.9201C54.2497 39.9786 54.0249 39.6699 52.6476 36.5248C51.3168 33.4895 48.504 32.2636 46.9195 32.1575C46.0089 32.0954 45.265 32.1073 44.7807 31.8229C43.8723 31.2919 44.5599 31.4804 44.5599 31.4804" stroke="#23392A" stroke-width="0.895174" stroke-linecap="round" stroke-linejoin="round"/>
<path d="M25.0566 40.9201C25.568 39.9786 25.7927 39.6699 27.1701 36.5248C28.499 33.4895 31.0212 32.2636 32.6076 32.1575C33.5182 32.0954 33.9695 32.1073 34.4558 31.8229C35.3644 31.2919 35.9416 30.5789 35.9416 30.5789" stroke="#23392A" stroke-width="0.895174" stroke-linecap="round" stroke-linejoin="round"/>
<path d="M38.3223 28.0546C38.3223 28.0546 39.1515 29.3267 40.9141 29.4328" stroke="#23392A" stroke-width="0.895174" stroke-linecap="round" stroke-linejoin="round"/>
<path d="M35.2093 21.2051L34.9961 23.4168C34.9961 23.4168 34.9961 32.6843 40.7457 32.6843C46.4953 32.6843 46.7102 24.4686 46.7102 24.4686L46.6812 21.5176" stroke="#23392A" stroke-width="0.895174" stroke-linejoin="round"/>
<path d="M41.4315 24.3063L42.3634 27.167L40.9648 27.6458" stroke="#23392A" stroke-width="0.895174" stroke-linecap="round" stroke-linejoin="round"/>
<path d="M38.5822 25.4562C39.0392 25.4562 39.4092 25.0776 39.4092 24.6108C39.4092 24.144 39.0392 23.7654 38.5822 23.7654C38.1249 23.7654 37.7549 24.144 37.7549 24.6108C37.7549 25.0776 38.1249 25.4562 38.5822 25.4562Z" fill="#23392A"/>
<path d="M44.2814 25.4562C44.7384 25.4562 45.1084 25.0776 45.1084 24.6108C45.1084 24.144 44.7384 23.7654 44.2814 23.7654C43.8241 23.7654 43.4541 24.144 43.4541 24.6108C43.4541 25.0776 43.8241 25.4562 44.2814 25.4562Z" fill="#23392A"/>
<path d="M42.8318 22.0205C43.777 22.0205 44.5422 21.2372 44.5422 20.2696C44.5422 19.3019 43.777 18.5186 42.8318 18.5186C41.8863 18.5186 41.1211 19.3019 41.1211 20.2696C41.1211 21.2372 41.8863 22.0205 42.8318 22.0205Z" fill="#23392A"/>
<path d="M40.0854 20.8005C41.0307 20.8005 41.7959 20.0172 41.7959 19.0495C41.7959 18.0819 41.0307 17.2986 40.0854 17.2986C39.1402 17.2986 38.375 18.0819 38.375 19.0495C38.375 20.0172 39.1402 20.8005 40.0854 20.8005Z" fill="#23392A"/>
<path d="M45.8716 22.8078C46.817 22.8078 47.5822 22.0245 47.5822 21.0569C47.5822 20.0893 46.817 19.306 45.8716 19.306C44.9263 19.306 44.1611 20.0893 44.1611 21.0569C44.1611 22.0245 44.9263 22.8078 45.8716 22.8078Z" fill="#23392A"/>
<path d="M46.8506 23.3487C46.8506 23.3487 48.3132 22.2308 48.2472 23.9517C48.1891 25.4562 46.4942 26.3937 46.992 26.1794" fill="#D8A15B"/>
<path d="M46.8506 23.3487C46.8506 23.3487 48.3132 22.2308 48.2472 23.9517C48.1891 25.4562 46.4942 26.3937 46.992 26.1794" stroke="#23392A" stroke-width="0.895174" stroke-linecap="round" stroke-linejoin="round"/>
<path d="M34.6961 23.2666C34.6961 23.2666 33.1076 22.3471 33.3826 24.0439C33.6578 25.7408 34.9013 26.0933 34.9013 26.0933" fill="#D8A15B"/>
<path d="M34.6961 23.2666C34.6961 23.2666 33.1076 22.3471 33.3826 24.0439C33.6578 25.7408 34.9013 26.0933 34.9013 26.0933" stroke="#23392A" stroke-width="0.895174" stroke-linecap="round" stroke-linejoin="round"/>
<path d="M38.53 20.1032C38.53 20.1032 38.7894 22.8598 35.2135 23.4949C35.2135 23.4949 33.193 23.0161 33.9698 20.6321C33.9698 20.6321 35.3686 19.5723 35.8353 18.4585C35.8353 18.4585 36.066 16.5072 37.8558 15.4354C39.7213 14.3215 42.8306 13.368 45.7847 16.5493C45.3178 16.2307 47.6327 20.2515 47.6327 20.2515L41.1199 18.775L38.528 20.1012H38.53V20.1032Z" fill="#23392A"/>
<path d="M38.7119 14.4959C38.7119 14.4959 33.408 15.9463 34.4077 20.2055L36.9065 18.5006L38.7391 15.774L43.2353 20.2235L47.3284 21.5457C47.3284 21.5457 48.9344 17.571 44.8488 15.2051C41.9062 13.5002 38.7119 14.4939 38.7119 14.4939V14.4959Z" fill="#23392A"/>
<path d="M12.8265 59.3218L37.7756 64.113L35.0089 46.4305C35.0089 46.4305 34.8627 43.627 31.9726 43.0074C29.0803 42.3879 17.5812 43.3735 17.5812 43.3735L14.0528 43.5716C14.0528 43.5716 11.9552 44.0654 11.0021 47.4183C10.049 50.7714 9.75488 60.0834 9.75488 60.0834L12.8265 59.3218Z" fill="#AF752A"/>
<path d="M19.5702 40.5867C19.5702 40.5867 19.2676 42.0471 18.2136 42.6795C17.6475 43.0181 16.507 43.0947 15.2884 43.4694C13.4439 43.597 12.4579 45.5577 11.9515 47.4141C11.8691 47.7101 10.8934 51.9296 10.8398 52.2785" stroke="#23392A" stroke-width="0.951268" stroke-linecap="square" stroke-linejoin="round"/>
<path d="M16.2064 42.0493C16.2064 42.0493 14.8477 43.1734 15.5723 44.9511C15.5723 44.9511 16.8404 45.7005 19.1934 47.1032C19.1934 47.1032 22.2091 54.0817 29.3317 51.0353C31.9564 49.9112 32.4997 46.6351 32.4997 46.6351L34.8527 45.2298L34.2188 43.3586L32.6788 40.5506L31.8184 38.4685C33.5352 29.3952 29.6569 27.2259 29.6569 27.2259C26.2562 25.0502 25.6819 25.4334 23.7119 25.1545C19.5165 24.5627 17.9891 27.4218 17.9891 27.4218C15.9614 30.479 14.7469 35.7052 14.4607 38.3686L14.4052 39.5606C14.3805 40.1141 14.6048 40.6486 15.0145 41.0062L16.2023 42.0451L16.2064 42.0493Z" fill="#F4B536"/>
<path d="M30.1568 33.1463C30.1568 33.1463 30.3812 38.1428 28.6252 41.3467C28.0777 42.3474 28.0941 42.8264 26.6552 43.0883C24.2179 43.5332 21.7682 42.7774 20.8624 41.0851C20.5248 40.4549 20.3622 39.5799 20.1666 38.8901C19.4914 36.4845 19.7138 34.0915 19.7138 34.0915C19.5326 31.3453 22.6431 28.5608 24.4855 28.2905C26.3279 28.0179 29.7904 30.8982 29.7904 30.8982L30.1589 33.1462" fill="#D8A15B"/>
<path d="M26.128 34.5663L27.0873 36.4353C27.324 37.04 26.8918 37.702 26.2619 37.702L25.1152 37.568" stroke="#23392A" stroke-width="0.951268" stroke-linejoin="round"/>
<path d="M23.5635 38.6134C23.8826 39.3754 25.1794 40.1525 26.5504 39.684" stroke="#233829" stroke-width="0.951268"/>
<path d="M21.1836 32.1565C21.1836 32.1565 22.7234 30.0978 26.2518 30.3788C29.7719 30.6597 29.7822 31.6901 30.6879 32.7184C30.6879 32.7184 30.865 28.0178 25.7783 28.2137C25.7783 28.2137 21.4553 28.4755 21.1836 32.1565Z" fill="#23392A"/>
<path d="M18.7811 36.2993C18.9622 37.2039 19.1681 37.9939 19.4028 38.6901C20.5288 40.0097 21.7639 40.9253 21.7866 40.9424L22.1057 41.1766L22.0336 40.953C21.5539 39.4627 21.5539 39.0049 21.5539 39.0049C21.5581 38.9624 21.5539 38.9198 21.5478 38.8773C20.854 34.8792 21.1464 32.0116 22.4165 30.3511C23.526 28.9013 25.0741 28.814 25.6587 28.7821C25.7575 28.7757 25.8563 28.7715 25.9469 28.746C26.1939 28.7225 27.5443 28.6459 28.7095 29.6146C29.7449 30.4767 30.3481 31.9265 30.5025 33.9213C30.5004 34.2171 30.4346 38.2555 28.8392 41.2574C28.0116 42.8158 26.7827 42.8583 26.7147 42.8583C24.3762 42.9627 23.7978 42.5455 22.9208 41.9131C22.7603 41.7981 22.5915 41.6769 22.4062 41.5532C22.328 41.5 22.2497 41.4446 22.1756 41.3873L22.1345 41.2574L21.6342 41.992L21.2596 41.7172C21.2266 41.6937 21.064 41.5725 20.819 41.3724C21.1464 41.7597 21.5066 42.0835 21.9121 42.3516C22.0871 42.4688 22.2456 42.5838 22.398 42.6924C23.2667 43.3181 23.9686 43.8248 26.0539 43.8248C26.268 43.8248 26.4945 43.8206 26.7394 43.8077C26.8135 43.8077 28.551 43.7843 29.6502 41.713C31.4144 38.394 31.4267 34.0831 31.4267 33.9001V33.8637C31.2539 31.5859 30.5354 29.9062 29.2921 28.8694C27.707 27.5495 25.8666 27.7922 25.7884 27.8028C25.7616 27.8071 25.7369 27.8135 25.7102 27.8199C25.6834 27.8199 25.6525 27.8241 25.6134 27.8263C24.9835 27.8624 23.067 27.9689 21.7001 29.7551C20.2653 31.6305 19.9092 34.7387 20.64 38.9923C20.64 39.0773 20.6503 39.2158 20.6873 39.433C20.2879 38.5793 19.9668 37.4913 19.6889 36.0992C19.1104 33.2103 18.7728 30.5341 20.5061 27.0428C21.0208 26.006 21.6384 25.427 22.3897 25.0736C21.6239 25.097 20.9714 25.2439 20.4238 25.4547C20.1603 25.7761 19.9133 26.153 19.6889 26.6064C17.8218 30.3659 18.1985 33.3315 18.7893 36.2886L18.7811 36.2993Z" fill="#23392A"/>
<path d="M21.6303 41.9939L22.1306 41.2594L22.1594 41.2169L22.1038 41.1763L21.7847 40.9421C21.7621 40.9253 20.527 40.0097 19.4009 38.6898C18.4993 37.6318 17.6697 36.3141 17.5914 34.99L17.5626 34.5151L16.6445 34.5725L16.6733 35.0474C16.838 37.866 19.6932 40.4611 20.8131 41.3744C21.0581 41.5745 21.2207 41.6959 21.2536 41.7192L21.6283 41.9939L21.6303 41.9939Z" fill="#23392A"/>
<path d="M20.2712 46.5094C20.5573 46.7053 22.5521 47.9634 26.6568 48.0848C26.7124 48.0848 26.7659 48.0868 26.8194 48.0868C29.193 48.0868 31.1321 46.5668 31.8114 45.5832L32.079 45.1959L31.3297 44.6424L31.0621 45.0297C30.4528 45.9112 28.633 47.1905 26.6815 47.1309C22.6324 47.0117 20.7838 45.7175 20.7673 45.7069C20.7467 45.6918 20.7241 45.6792 20.7014 45.6663C20.6829 45.6579 18.787 44.6934 16.2817 42.2749L16.1253 42.1238C16.0018 42.2452 15.765 42.5135 15.5859 42.905L15.6559 42.9711C18.1241 45.3554 19.9995 46.3667 20.2733 46.5072L20.2712 46.5094Z" fill="#23392A"/>
<path d="M23.6702 35.0409C24.0522 35.0409 24.3619 34.7083 24.3619 34.298C24.3619 33.8877 24.0522 33.5551 23.6702 33.5551C23.2882 33.5551 22.9785 33.8877 22.9785 34.298C22.9785 34.7083 23.2882 35.0409 23.6702 35.0409Z" fill="#23392A"/>
<path d="M28.6525 35.1178C29.055 35.1178 29.3813 34.785 29.3813 34.3747C29.3813 33.9644 29.055 33.6317 28.6525 33.6317C28.2501 33.6317 27.9238 33.9644 27.9238 34.3747C27.9238 34.785 28.2501 35.1178 28.6525 35.1178Z" fill="#23392A"/>
<path d="M27.6133 32.7993C27.6133 32.7993 28.9122 32.0606 29.6904 33.1356" stroke="#23392A" stroke-width="0.951268" stroke-linecap="square" stroke-linejoin="round"/>
<path d="M22.5215 32.8482C22.5215 32.8482 23.6805 31.8924 24.6253 32.8141" stroke="#23392A" stroke-width="0.951268" stroke-linecap="square" stroke-linejoin="round"/>
<path d="M32.3907 38.6686C32.3291 39.0178 31.4375 44.5868 26.668 45.8684" stroke="#23392A" stroke-width="1.18909" stroke-linecap="square" stroke-linejoin="round"/>
<path d="M61.8883 32.8442L61.8391 32.7527C61.8391 32.7527 57.9929 30.6712 56.1158 30.9825C54.2369 31.2938 49.7885 31.4321 50.2272 36.8445C50.2272 36.8445 48.425 48.729 56.7081 49.1625C64.2178 49.5552 61.8411 33.7231 61.8411 33.7231" fill="#AF762A"/>
<path d="M59.0455 46.6172L52.1593 45.6974C52.1593 45.6974 51.8603 47.254 49.6035 47.6059C49.6035 47.6059 55.3526 54.9386 61.7153 48.4559V47.6059C61.7153 47.6059 59.8569 46.4299 60.0615 44.9609L59.0455 46.6172Z" fill="#AF762A"/>
<path d="M70.8441 58.8771C70.8127 56.7492 71.4061 55.1894 70.0152 52.0212C69.0746 49.8788 66.3497 49.0181 64.5967 48.5868C63.4279 48.2979 61.7675 47.716 61.2657 47.4291C60.3291 46.8959 60.3115 46.5662 60.3115 46.5662" stroke="#23392A" stroke-width="0.90918" stroke-linecap="round" stroke-linejoin="round"/>
<path d="M42.5605 62.4027C42.5605 62.4027 42.0918 55.3817 42.6253 52.7701C43.5302 49.4514 46.5524 48.0048 48.2895 47.8846C49.173 47.8258 50.4362 47.5654 50.9084 47.2864C51.7878 46.7675 52.0317 46.4198 52.0317 46.4198" stroke="#23392A" stroke-width="0.90918" stroke-linecap="round" stroke-linejoin="round"/>
<path d="M49.8105 47.9987C49.8105 47.9987 56.0985 54.8495 62.1189 47.9601" stroke="#23392A" stroke-width="0.90918" stroke-linecap="round" stroke-linejoin="round"/>
<path d="M50.6173 35.5708L50.4086 38.7916C50.4086 38.7916 49.3679 48.2163 55.8191 48.8185C62.2706 49.421 61.8533 39.8496 61.8533 39.8496L61.8259 36.2116" stroke="#23392A" stroke-width="0.90918" stroke-linejoin="round"/>
<path d="M56.6242 42.4459C55.0542 42.3606 53.2815 42.741 52.8722 44.3829C52.587 45.5285 52.3135 46.5378 52.3135 46.5378C52.4572 47.5471 54.7433 48.6619 56.3014 48.7028C57.9797 48.7453 60.1853 47.3272 60.3151 45.962C60.5493 43.5082 57.9208 42.5172 56.6262 42.4459L56.6242 42.4459ZM56.2997 45.8398C55.4024 45.8908 53.736 45.3778 53.8758 44.6211C54.1176 43.319 55.6601 43.1886 56.6853 43.219C57.7121 43.2497 58.7118 43.5588 58.763 44.4724C58.8139 45.386 57.1967 45.7869 56.2997 45.8398Z" fill="#23392A"/>
<path d="M55.1094 44.1715C55.1094 44.1715 56.1775 45.4145 57.5627 44.2222" stroke="#23392A" stroke-width="0.90918" stroke-linecap="round" stroke-linejoin="round"/>
<path d="M56.5396 38.6249L57.4624 41.4428L56.0771 41.913" stroke="#23392A" stroke-width="0.90918" stroke-linecap="round" stroke-linejoin="round"/>
<path d="M53.7219 39.7561C54.1743 39.7561 54.5403 39.3837 54.5403 38.9219C54.5403 38.46 54.1743 38.0878 53.7219 38.0878C53.2693 38.0878 52.9033 38.4622 52.9033 38.9219C52.9033 39.3817 53.2693 39.7561 53.7219 39.7561Z" fill="#23392A"/>
<path d="M58.7275 39.7561C59.1801 39.7561 59.5462 39.3837 59.5462 38.9219C59.5462 38.46 59.1801 38.0878 58.7275 38.0878C58.2752 38.0878 57.9092 38.4622 57.9092 38.9219C57.9092 39.3817 58.2752 39.7561 58.7275 39.7561Z" fill="#23392A"/>
<path d="M61.9321 39.3797C61.9321 39.3797 63.5042 38.4763 63.2307 40.1447C62.9572 41.8173 61.7275 42.1633 61.7275 42.1633" fill="#AF752A"/>
<path d="M61.9321 39.3797C61.9321 39.3797 63.5042 38.4763 63.2307 40.1447C62.9572 41.8173 61.7275 42.1633 61.7275 42.1633" stroke="#23392A" stroke-width="0.90918" stroke-linecap="round" stroke-linejoin="round"/>
<path d="M50.2142 39.3797C50.2142 39.3797 48.6422 38.4763 48.9158 40.1447C49.189 41.8173 50.4187 42.1633 50.4187 42.1633" fill="#AF752A"/>
<path d="M50.2142 39.3797C50.2142 39.3797 48.6422 38.4763 48.9158 40.1447C49.189 41.8173 50.4187 42.1633 50.4187 42.1633" stroke="#23392A" stroke-width="0.90918" stroke-linecap="round" stroke-linejoin="round"/>
<path d="M61.7845 36.6066C62.3983 36.6066 62.894 36.0998 62.894 35.4751C62.894 34.8507 62.3964 34.3439 61.7845 34.3439C61.1727 34.3439 60.6748 34.8507 60.6748 35.4751C60.6748 36.0998 61.1726 36.6066 61.7845 36.6066Z" fill="#23392A"/>
<path d="M60.4837 35.1108C61.0976 35.1108 61.5934 34.6043 61.5934 33.9796C61.5934 33.3549 61.0956 32.8484 60.4837 32.8484C59.8719 32.8484 59.374 33.3549 59.374 33.9796C59.374 34.6043 59.8719 35.1108 60.4837 35.1108Z" fill="#23392A"/>
<path d="M61.2494 35.0052C61.8632 35.0052 62.3591 34.4985 62.3591 33.8738C62.3591 33.2493 61.8612 32.7425 61.2494 32.7425C60.6375 32.7425 60.1396 33.2493 60.1396 33.8738C60.1396 34.4985 60.6375 35.0052 61.2494 35.0052Z" fill="#23392A"/>
<path d="M60.5316 33.9593C61.1454 33.9593 61.6413 33.4526 61.6413 32.8279C61.6413 32.2033 61.1434 31.6967 60.5316 31.6967C59.9197 31.6967 59.4219 32.2033 59.4219 32.8279C59.4219 33.4526 59.9197 33.9593 60.5316 33.9593Z" fill="#23392A"/>
<path d="M58.7784 34.5249C59.3922 34.5249 59.8881 34.0182 59.8881 33.3937C59.8881 32.769 59.3903 32.2623 58.7784 32.2623C58.1665 32.2623 57.6689 32.769 57.6689 33.3937C57.6689 34.0182 58.1665 34.5249 58.7784 34.5249Z" fill="#23392A"/>
<path d="M54.9359 34.2828C55.5497 34.2828 56.0456 33.7761 56.0456 33.1516C56.0456 32.5269 55.5477 32.0202 54.9359 32.0202C54.324 32.0202 53.8262 32.5269 53.8262 33.1516C53.8262 33.7761 54.324 34.2828 54.9359 34.2828Z" fill="#23392A"/>
<path d="M54.3021 33.878C54.9159 33.878 55.4118 33.3712 55.4118 32.7467C55.4118 32.122 54.9139 31.6153 54.3021 31.6153C53.6902 31.6153 53.1924 32.122 53.1924 32.7467C53.1924 33.3712 53.6902 33.878 54.3021 33.878Z" fill="#23392A"/>
<path d="M52.679 33.5443C53.2929 33.5443 53.7887 33.0376 53.7887 32.4129C53.7887 31.7883 53.2909 31.2817 52.679 31.2817C52.0672 31.2817 51.5693 31.7883 51.5693 32.4129C51.5693 33.0376 52.0672 33.5443 52.679 33.5443Z" fill="#23392A"/>
<path d="M51.0033 36.0407C51.6171 36.0407 52.113 35.5342 52.113 34.9095C52.113 34.2848 51.6151 33.7783 51.0033 33.7783C50.3914 33.7783 49.8936 34.2848 49.8936 34.9095C49.8936 35.5342 50.3914 36.0407 51.0033 36.0407Z" fill="#23392A"/>
<path d="M51.3831 34.5005C51.997 34.5005 52.4928 33.994 52.4928 33.3692C52.4928 32.7445 51.995 32.2379 51.3831 32.2379C50.7713 32.2379 50.2734 32.7445 50.2734 33.3692C50.2734 33.994 50.7713 34.5005 51.3831 34.5005Z" fill="#23392A"/>
<path d="M52.8165 34.7792C53.4303 34.7792 53.9262 34.2727 53.9262 33.648C53.9262 33.0233 53.4283 32.5168 52.8165 32.5168C52.2046 32.5168 51.707 33.0233 51.707 33.648C51.707 34.2727 52.2046 34.7792 52.8165 34.7792Z" fill="#23392A"/>
<path d="M58.181 33.943C58.7948 33.943 59.2907 33.4365 59.2907 32.8118C59.2907 32.1871 58.7929 31.6805 58.181 31.6805C57.5691 31.6805 57.0713 32.1871 57.0713 32.8118C57.0713 33.4365 57.5691 33.943 58.181 33.943Z" fill="#23392A"/>
<path d="M57.8402 32.3763C58.454 32.3763 58.9496 31.8697 58.9496 31.245C58.9496 30.6204 58.452 30.1137 57.8402 30.1137C57.2283 30.1137 56.7305 30.6204 56.7305 31.245C56.7305 31.8697 57.2283 32.3763 57.8402 32.3763Z" fill="#23392A"/>
<path d="M56.2327 33.8738C56.8466 33.8738 57.3422 33.3673 57.3422 32.7425C57.3422 32.1179 56.8446 31.6113 56.2327 31.6113C55.6209 31.6113 55.123 32.1179 55.123 32.7425C55.123 33.3673 55.6209 33.8738 56.2327 33.8738Z" fill="#23392A"/>
<path d="M54.3595 32.7119C54.9733 32.7119 55.4692 32.2054 55.4692 31.5807C55.4692 30.9561 54.9716 30.4494 54.3595 30.4494C53.7476 30.4494 53.25 30.9561 53.25 31.5807C53.25 32.2054 53.7476 32.7119 54.3595 32.7119Z" fill="#23392A"/>
<path d="M56.179 32.3844C56.7929 32.3844 57.2887 31.8778 57.2887 31.2532C57.2887 30.6286 56.7909 30.1219 56.179 30.1219C55.5672 30.1219 55.0693 30.6286 55.0693 31.2532C55.0693 31.8778 55.5672 32.3844 56.179 32.3844Z" fill="#23392A"/>
<path d="M56.8841 34.2299C57.498 34.2299 57.9938 33.7234 57.9938 33.0987C57.9938 32.474 57.496 31.9674 56.8841 31.9674C56.2723 31.9674 55.7744 32.474 55.7744 33.0987C55.7744 33.7234 56.2723 34.2299 56.8841 34.2299Z" fill="#23392A"/>
<path d="M59.9574 34.4312C60.5712 34.4312 61.0671 33.9247 61.0671 33.3C61.0671 32.6753 60.5692 32.1688 59.9574 32.1688C59.3455 32.1688 58.8477 32.6753 58.8477 33.3C58.8477 33.9247 59.3455 34.4312 59.9574 34.4312Z" fill="#23392A"/>
<path d="M59.3314 33.0336C59.9452 33.0336 60.4408 32.5269 60.4408 31.9022C60.4408 31.2776 59.9432 30.771 59.3314 30.771C58.7195 30.771 58.2217 31.2776 58.2217 31.9022C58.2217 32.5269 58.7195 33.0336 59.3314 33.0336Z" fill="#23392A"/>
<path d="M58.0681 37.0399H60.0338M52.874 37.0399H54.8397" stroke="#233829" stroke-width="0.90918" stroke-linecap="round"/>
<path d="M75.0862 24.0739L47.9433 2.74733C45.6123 0.915788 42.8062 0 40 0C37.1938 0 34.3877 0.915788 32.0565 2.74733L4.91371 24.0739C1.81138 26.5114 0 30.2383 0 34.1837V69.3632C0 76.464 5.75634 82.2203 12.8571 82.2203H67.1428C70.3453 82.2203 73.272 81.0468 75.5229 79.1097C76.2478 78.6356 76.8534 77.9978 77.2935 77.2495C78.988 75.0716 80 72.3364 80 69.3632V34.1837C80 30.2383 78.1886 26.5114 75.0862 24.0739ZM5.71428 34.1837C5.71428 31.9774 6.70926 29.9302 8.44412 28.5671L35.5869 7.24062C36.8577 6.24208 38.3838 5.71428 40 5.71428C41.6162 5.71428 43.1422 6.24206 44.4129 7.2406L71.5558 28.5672C73.2907 29.9302 74.2857 31.9774 74.2857 34.1837V63.6456H5.71428V34.1837Z" fill="#593207"/>
<path d="M23.4122 70.9718C23.6676 70.6058 23.8059 70.1417 23.8055 69.584C23.8081 68.7851 23.5136 68.1811 22.9945 67.7993C22.4768 67.4169 21.7576 67.251 20.9065 67.2506H18.1309V74.7354H19.9489V72.0101H20.6777L22.1689 74.7354H24.1945L22.495 71.7056C22.8697 71.5345 23.1869 71.2953 23.4122 70.9718ZM19.9489 68.8115H20.7319C21.1678 68.8104 21.481 68.8704 21.6638 68.9896C21.7561 69.0491 21.8195 69.1201 21.8651 69.2156C21.9101 69.3111 21.9361 69.4346 21.9361 69.5943C21.9361 69.7623 21.91 69.8972 21.8633 70.0045C21.7923 70.1645 21.6796 70.2719 21.4955 70.3513C21.3118 70.4295 21.0559 70.4699 20.7319 70.4696H19.9489L19.9489 68.8115ZM26.459 73.1744H29.8937V74.7354H24.6509V67.2506H29.8423V68.8115H26.459V70.1097H29.6057V71.6706H26.459L26.459 73.1744ZM30.6733 67.2506H35.8853V68.8115H32.4807L32.4809 70.1097H35.6175V71.6706H32.4807V74.7354H30.6733V67.2506ZM40.5806 67.2506H42.4093V71.9392C42.4097 72.8404 42.1846 73.5822 41.6807 74.0972C41.1766 74.6123 40.4121 74.88 39.3864 74.8793C38.3608 74.88 37.5964 74.6123 37.0925 74.0972C36.5887 73.5821 36.3637 72.8404 36.3641 71.9392V67.2506H38.1922V71.9494C38.1921 72.3638 38.2952 72.7079 38.4888 72.9423C38.6829 73.176 38.9666 73.3167 39.3864 73.3184C39.8062 73.3167 40.09 73.176 40.284 72.9423C40.4777 72.7079 40.5808 72.3638 40.5806 71.9494V67.2506ZM45.4749 69.2586C45.1645 69.651 44.9756 70.2532 44.9757 71.0649C44.9753 71.8494 45.1332 72.4182 45.4219 72.7812C45.7104 73.1431 46.1315 73.3266 46.7358 73.3287C47.0756 73.3293 47.4463 73.2357 47.7194 73.0434C47.9925 72.8491 48.1744 72.5724 48.1766 72.1551V71.9689H46.3356V70.4593H49.9327V74.7354H48.2486V74.2484C47.8722 74.6207 47.297 74.8815 46.4891 74.8793C45.3778 74.881 44.5156 74.4456 43.947 73.74C43.3774 73.0351 43.0964 72.0719 43.0963 71.0136C43.096 69.8798 43.4399 68.9009 44.083 68.2053C44.7256 67.5092 45.6645 67.1056 46.8178 67.1066C47.5591 67.1065 48.2146 67.2765 48.7522 67.6116C49.2902 67.9463 49.7067 68.4456 49.9736 69.0868L50.029 69.2194L48.3288 69.9165L48.2779 69.777C48.1465 69.4177 47.9489 69.1426 47.696 68.9559C47.4427 68.7696 47.1314 68.668 46.7564 68.6676C46.2161 68.6693 45.786 68.8668 45.4749 69.2586ZM52.7397 73.1744H56.1744V74.7354H50.9316V67.2506H56.123V68.8115H52.7397V70.1097H55.8864V71.6706H52.7397V73.1744ZM62.1967 73.1744V74.7354H56.9539V67.2506H62.1454V68.8115H58.762V70.1097H61.9087V71.6706H58.762V73.1744H62.1967Z" fill="#F8F2E6"/>
</g>
<defs>
<clipPath id="clip0_4717_2277">
<rect width="80" height="82.2204" fill="white"/>
</clipPath>
</defs>
</svg>
