<svg width="54" height="50" viewBox="0 0 54 50" fill="none" xmlns="http://www.w3.org/2000/svg">
<g clip-path="url(#clip0_4639_18934)">
<path d="M8.25597 3.81071H10.6996C11.897 3.81071 13.0617 3.39164 13.9651 2.59704C15.021 1.66637 16.8279 0.000976562 19.3804 0.000976562C24.2786 0.000976562 25.1657 1.20376 26.5753 2.77664C27.5223 3.83248 28.921 4.35496 30.3361 4.35496H30.864C32.0233 4.35496 33.1607 3.97942 34.0424 3.22836C35.0874 2.34124 36.916 1.30717 39.5175 1.63372C42.119 1.96027 43.8661 3.3862 44.9219 4.52367C45.7927 5.45978 46.9737 6.05845 48.2473 6.15641C50.9957 6.36867 53.1237 8.65995 53.1237 11.4193V31.5673L52.7591 43.987C52.6611 47.3668 49.8691 50.0391 46.4948 50.001L10.9826 49.5765C8.69681 49.5493 6.8627 47.6879 6.8627 45.4075V42.4523C6.8627 42.4523 1.96447 40.8195 1.96447 34.8328C1.96447 30.4298 4.32106 28.6774 5.56739 28.0569C6.03 27.8283 6.31845 27.3494 6.31845 26.8324C6.31845 26.1902 5.87217 25.6296 5.24628 25.4935C3.77137 25.1724 1.25695 23.839 0.875977 18.5054C0.875977 18.5054 0.875977 14.6957 2.47062 13.1337C3.18359 12.4316 3.59721 11.4846 3.59721 10.4886V8.47491C3.59721 5.90062 5.68168 3.81615 8.25597 3.81615V3.81071Z" fill="white"/>
<path d="M29.4868 8.56759H35.7728C35.7728 8.56759 36.7416 5.66675 39.6424 5.66675C42.5433 5.66675 43.0277 9.53635 43.0277 9.53635L49.3137 10.5051V14.8591C49.3137 14.8591 44.4808 13.8686 44.4808 18.7287C44.4808 21.1451 49.3137 21.1451 49.3137 21.1451V27.9156L42.5433 26.4624L41.0901 23.5616L38.1893 23.0772L35.7728 26.4624H30.4555V21.6295C30.4555 21.6295 26.1016 20.6608 26.1016 17.7599C26.1016 14.8591 29.4868 13.4059 29.4868 13.4059L29.9712 9.53635" fill="#2AA967"/>
<path d="M29.0083 25.9721L28.5239 29.8417C28.5239 29.8417 26.1074 31.2949 26.1074 34.1957C26.1074 37.0966 30.4614 38.0653 30.4614 38.0653V43.867H35.7787C35.7787 43.867 38.6795 37.0965 42.5491 43.867L48.8352 44.3514L49.3196 37.5809C49.3196 37.5809 45.9344 37.5809 45.9344 35.1645C45.9344 30.3043 49.3196 31.2949 49.3196 31.2949V26.9409L43.0335 25.9721C43.0335 25.9721 42.5491 22.1025 39.6483 22.1025C36.7475 22.1025 35.7787 25.0034 35.7787 25.0034L28.5239 25.9721" fill="#2AA967"/>
<path d="M12.5669 9.5305L12.0825 14.8478C12.0825 14.8478 9.66602 15.3322 9.66602 18.233C9.66602 21.1339 13.0512 21.6182 13.0512 21.6182V26.4511L17.4052 25.9668C17.4052 25.9668 20.7904 19.6807 24.1756 25.9668L30.4617 26.4511L30.9461 20.6495C30.9461 20.6495 26.1132 20.6495 26.1132 18.233C26.1132 13.3729 30.9461 14.3634 30.9461 14.3634V8.56174L24.66 7.59298C24.66 7.59298 24.1756 4.20776 21.2748 4.20776C18.374 4.20776 15.9575 8.07736 15.9575 8.07736L11.1246 9.04612" fill="#2AA967"/>
<path d="M29.009 44.8302H26.832" stroke="#EBB751" stroke-width="2.17699" stroke-miterlimit="10"/>
<path d="M25.2036 44.8302H16.4358H14.1064" stroke="#EBB751" stroke-width="2.17699" stroke-miterlimit="10"/>
<path d="M13.2893 44.8302H11.1123V42.6532" stroke="#EBB751" stroke-width="2.17699" stroke-miterlimit="10"/>
<path d="M11.113 41.2054V39.0284C11.113 39.0284 10.1171 38.8052 9.08301 38.261" stroke="#EBB751" stroke-width="2.17699" stroke-miterlimit="10"/>
<path d="M7.73885 37.3086C7.17283 36.7535 6.76465 36.0459 6.76465 35.1588C6.76465 34.1139 7.20005 33.2594 7.76062 32.59" stroke="#EBB751" stroke-width="2.17699" stroke-miterlimit="10"/>
<path d="M8.33789 32.0028C9.21957 31.2082 10.1502 30.8109 10.1502 30.8109L10.6346 26.9413" stroke="#EBB751" stroke-width="2.17699" stroke-miterlimit="10"/>
<path d="M22.2379 26.9406C22.2379 26.9406 20.7847 23.5554 17.8839 23.5554C14.9831 23.5554 14.4987 27.425 14.4987 27.425L10.1447 26.9406V22.1077L8.21263 21.6233C2.89534 17.7537 8.69701 15.3373 8.69701 15.3373V9.53561H14.4987C14.4987 9.53561 15.9518 6.15039 19.3316 6.15039C22.7114 6.15039 23.2012 10.02 23.2012 10.02H27.5552V13.8896C27.5552 13.8896 24.17 15.8217 24.17 18.2436C24.17 20.6655 28.0396 22.1132 28.0396 22.1132L27.5552 31.7844C27.5552 31.7844 23.2012 33.2376 23.2012 36.1384C23.2012 39.0393 27.5552 40.008 27.5552 40.008V44.8409H32.8725C32.8725 44.8409 36.2577 38.5549 39.6429 44.8409L45.4446 45.3253L46.4133 39.5236C46.4133 39.5236 41.5804 39.5236 41.5804 37.1072C41.5804 32.2471 46.4133 33.2376 46.4133 33.2376V27.9203H40.1273C40.1273 27.9203 39.6429 24.0507 36.7421 24.0507C33.8412 24.0507 32.8725 28.4047 32.8725 28.4047H28.5185" stroke="#27372A" stroke-width="2.17699"/>
</g>
<defs>
<clipPath id="clip0_4639_18934">
<rect width="52.2477" height="50" fill="white" transform="translate(0.875977 0.000244141)"/>
</clipPath>
</defs>
</svg>
