<svg width="80" height="80" viewBox="0 0 80 80" fill="none" xmlns="http://www.w3.org/2000/svg">
<g clip-path="url(#clip0_4717_2154)">
<path d="M40 80C17.9087 80 0 62.0914 0 40V12C0 5.37258 5.37258 0 12 0H68C74.6274 0 80 5.37258 80 12V40C80 62.0914 62.0914 80 40 80Z" fill="#BFE5D1"/>
<path d="M2.68555 10.4896V19.8042V16.543L2.75703 16.3616C2.7181 12.869 2.68555 10.4896 2.68555 10.4896Z" fill="#BFE5D1"/>
<path d="M2.79297 19.7655L2.68555 19.8042V30.0505L2.87253 30.044C2.85547 26.5728 2.82474 22.9421 2.79297 19.7655ZM75.076 4.98285L75.1176 5.30645C76.5756 5.472 77.4525 5.57154 77.4525 5.57154C77.4525 5.57154 76.4665 5.32359 75.076 4.98285Z" fill="#BFE5D1"/>
<path d="M2.75703 16.3616L2.68555 16.543V19.8042L2.79297 19.7655C2.78086 18.5534 2.76862 17.4078 2.75703 16.3616Z" fill="#92D3B1"/>
<path d="M42.7389 1.6306L7.65527 3.93889C7.65527 3.93889 20.7369 3.25786 31.6995 2.71215C37.0214 2.42784 42.0602 2.14602 45.3867 1.93119L42.7389 1.6306Z" fill="#BFE5D1"/>
<path d="M4.2666 51.0408V51.7113L4.45918 51.6986C4.39525 51.4816 4.33092 51.2618 4.2666 51.0408Z" fill="#BFE5D1"/>
<path d="M31.6995 2.71216C20.7369 3.25786 7.65527 3.9389 7.65527 3.9389C7.65527 3.9389 20.3236 3.31989 31.6995 2.71216Z" fill="#92D3B1"/>
<path d="M75.1182 5.30644L77.4531 5.57154C77.4531 5.57154 76.5762 5.472 75.1182 5.30644Z" fill="#92D3B1"/>
<path d="M75.1182 5.30646L75.1451 5.51755L77.4531 5.57153L75.1182 5.30646Z" fill="#73C69B"/>
<path d="M3.24596 30.0311L2.87227 30.044C2.90794 37.292 2.88411 43.8476 2.68529 44.146C2.4457 44.5054 3.35755 47.9169 4.26654 51.0408V47.4953L3.91693 41.9234L3.58867 41.9731L3.24596 30.0311Z" fill="#BFE5D1"/>
<path d="M2.68555 10.4896C2.68555 10.4896 2.7181 12.869 2.75703 16.3616L2.8474 16.1323L2.68555 10.4896Z" fill="#92D3B1"/>
<path d="M2.95 19.709L2.79297 19.7655C2.82474 22.9421 2.85547 26.5728 2.87253 30.044L3.24622 30.0311L2.95 19.709Z" fill="#92D3B1"/>
<path d="M2.8472 16.1323L2.75684 16.3616C2.76843 17.4078 2.78067 18.5534 2.79277 19.7655L2.94981 19.709L2.8472 16.1323Z" fill="#73C69B"/>
<path d="M2.68555 10.4896L2.8474 16.1323V16.1322L2.68555 10.4896Z" fill="#73C69B"/>
<path d="M3.24622 30.0311L3.24609 30.0311L3.5888 41.9731L3.91706 41.9234L3.30964 32.2429L3.24622 30.0311Z" fill="#92D3B1"/>
<path d="M2.95033 19.709L2.9502 19.709L3.24642 30.0311L3.24655 30.0311L2.95033 19.709Z" fill="#73C69B"/>
<path d="M2.84766 16.1322V16.1323L2.95026 19.709L2.95039 19.709L2.84766 16.1322Z" fill="#5DBE8B"/>
<path d="M75.3751 51.7113L73.8872 54.1653L74.9673 54.0849L75.3751 51.7113ZM5.84362 51.607L4.45898 51.6986C5.19375 54.1947 5.87266 56.3437 5.87266 56.3437L11.0427 62.4425H11.5951L9.13828 60.1958L5.84362 51.607ZM77.4521 39.6255L76.2604 39.7078L75.3751 51.7113L77.4521 39.6255Z" fill="#BFE5D1"/>
<path d="M77.4529 5.57153V15.0072H76.3594L77.4529 23.5518V5.57153Z" fill="#73C69B"/>
<path d="M75.1445 5.51755L76.359 15.0072H77.4525V5.57153L75.1445 5.51755Z" fill="#5DBE8B"/>
<path d="M77.4524 23.5518V26.673L77.217 26.7436L76.2607 39.7078L77.4524 39.6255V26.673V23.5518Z" fill="#92D3B1"/>
<path d="M77.4522 23.5518L77.2168 26.7436L77.4522 26.673V23.5518Z" fill="#73C69B"/>
<path d="M4.2666 47.4953V51.0408C4.33092 51.2618 4.39525 51.4816 4.45918 51.6986L5.84381 51.607L4.2666 47.4953Z" fill="#92D3B1"/>
<path d="M52.966 1.51393C51.1462 1.51393 49.7833 1.54722 49.2178 1.6306C48.7648 1.6973 47.3842 1.80218 45.3867 1.93119L46.3891 2.04499C46.3927 2.04524 46.3958 2.04552 46.3986 2.04582C46.6767 2.0774 51.0243 2.57099 56.3823 3.17931C62.0206 3.09313 65.904 3.03546 66.1996 3.03546C67.0039 3.03546 72.0191 4.23363 75.0764 4.98284L74.7003 2.04325C74.7003 2.04325 60.2168 1.51393 52.966 1.51393Z" fill="#BFE5D1"/>
<path d="M66.1992 3.03546C65.9036 3.03546 62.0201 3.09313 56.3818 3.17931C63.009 3.93173 71.182 4.85963 75.1175 5.30644L75.076 4.98285C72.0187 4.23364 67.0035 3.03546 66.1992 3.03546Z" fill="#92D3B1"/>
<path d="M45.3863 1.9312C42.0599 2.14603 37.0211 2.42785 31.6992 2.71216C39.0267 2.34741 45.4073 2.04316 46.302 2.04316C46.3418 2.04316 46.3711 2.04377 46.3887 2.045L45.3863 1.9312Z" fill="#92D3B1"/>
<path d="M73.8879 54.1653L54.4126 55.6156L37.2646 57.9059L25.2742 62.4425H11.5957L20.9823 71.026L37.831 67.4119H47.6363L68.8691 62.4425L73.8879 54.1653Z" fill="#BFE5D1"/>
<path d="M4.2666 41.8706L3.91699 41.9234L4.2666 47.4953V41.8706ZM46.3885 2.045L56.3804 3.17933L56.3817 3.17931C51.0238 2.571 46.6761 2.0774 46.398 2.04583C46.3952 2.04553 46.3921 2.04525 46.3885 2.045Z" fill="#92D3B1"/>
<path d="M56.3822 3.17931L56.3809 3.17933L75.1178 5.30646C71.1823 4.85965 63.0094 3.93172 56.3822 3.17931Z" fill="#73C69B"/>
<path d="M46.3023 2.04315C45.4076 2.04315 39.027 2.3474 31.6995 2.71215C20.3236 3.31989 7.65527 3.93889 7.65527 3.93889C7.65527 3.93889 39.6993 3.43431 56.3809 3.17933L46.389 2.04499C46.3714 2.04376 46.3421 2.04315 46.3023 2.04315Z" fill="#73C69B"/>
<path d="M7.65495 3.93889L2.68555 10.4896L2.8474 16.1322L4.2668 12.5323V8.40545L7.65495 3.93889Z" fill="#5DBE8B"/>
<path d="M4.26654 29.9959L3.24609 30.0311L3.3095 32.2429L3.91693 41.9234L4.26654 41.8706V29.9959Z" fill="#73C69B"/>
<path d="M4.26686 19.2352L2.9502 19.709L3.24642 30.0311L4.26686 29.9959V19.2352ZM56.3807 3.17932C39.699 3.43431 7.65501 3.93889 7.65501 3.93889H60.9323L56.1262 5.07268L75.1446 5.51754L75.1176 5.30645L56.3807 3.17932Z" fill="#5DBE8B"/>
<path d="M4.26706 12.5323L2.84766 16.1322L2.95039 19.709L4.26706 19.2352V12.5323ZM60.9325 3.93889H7.65521L56.1264 5.07268L60.9325 3.93889Z" fill="#4EB881"/>
<path d="M76.2605 39.7078L72.0311 40L52.6053 43.6941L31.8086 49.8898L5.84375 51.607L9.13841 60.1958L11.5952 62.4425H25.2737L37.2641 57.9059L54.4121 55.6156L73.8874 54.1653L75.3753 51.7113V51.7113L76.2605 39.7078Z" fill="#92D3B1"/>
<path d="M77.2169 26.7436L66.199 30.0505L57.5748 36.7644L26.2106 37.1467L16.6447 40L4.2666 41.8706V47.4953L5.84381 51.607L31.8087 49.8898L52.6054 43.6941L72.0312 40L76.2606 39.7078L77.2169 26.7436Z" fill="#73C69B"/>
<path d="M7.65475 3.93889L4.2666 8.40545V12.5323L7.65475 3.93889Z" fill="#4EB881"/>
<path d="M76.3588 15.0072H70.6758L57.5748 19.8042L34.5689 22.8509L19.6265 29.4658L4.2666 29.9959V41.8706L16.6447 40L26.2106 37.1467L57.5748 36.7645L66.199 30.0505L77.2169 26.7436L77.4523 23.5518L76.3588 15.0072Z" fill="#5DBE8B"/>
<path d="M56.126 5.07269L42.7383 8.23086L33.649 13.2003L16.6447 14.7812L4.2666 19.2352V29.9959L19.6265 29.4658L34.5689 22.8509L57.5748 19.8042L70.6758 15.0072H76.3588L75.1443 5.51755L56.126 5.07269Z" fill="#4EB881"/>
<path d="M7.65475 3.93889L4.2666 12.5323V19.2352L16.6447 14.7812L33.649 13.2003L42.7383 8.23085L56.126 5.07269L7.65475 3.93889Z" fill="#43B379"/>
<path d="M12.8432 25.981L12.8477 25.9905C12.9557 26.2121 14.9286 30.293 17.091 36.3511C19.254 42.4079 21.6033 50.4453 22.4794 58.5484C22.5428 59.134 23.069 59.5574 23.6546 59.494C24.2402 59.4306 24.6636 58.9044 24.6002 58.3188C23.6802 49.8313 21.2214 41.5343 18.9955 35.3422C16.7688 29.1513 14.7717 25.0689 14.7593 25.0433C14.5004 24.5142 13.8616 24.2952 13.3324 24.5541C12.8033 24.8131 12.5842 25.4519 12.8432 25.981Z" fill="#223829"/>
<path d="M16.6445 26.1155C16.6445 26.1155 27.5736 21.5173 34.0297 20.4372C43.3608 18.8762 46.5634 21.6476 51.8928 22.2373C58.399 22.9572 61.6314 21.5478 61.6314 21.5478C61.6314 21.5478 60.0579 28.196 60.8031 32.9456C61.976 40.4216 66.199 43.9551 66.199 43.9551C66.199 43.9551 62.4931 46.0234 57.5077 45.4532C53.3897 44.9822 49.2212 43.8689 42.0159 44.5239C32.1572 45.4201 25.0042 51.7114 25.0042 51.7114C25.0042 51.7114 28.1066 44.9031 26.2107 37.1467C24.274 29.2236 16.6445 26.1155 16.6445 26.1155Z" fill="#223829"/>
<path d="M43.1845 32.2242C48.3524 31.8233 49.2436 27.4026 49.1871 26.673L48.7433 26.7074C43.5754 27.1083 42.6842 31.529 42.7407 32.2586L43.1845 32.2242Z" fill="#78C79F"/>
<path d="M42.7383 33.7267C42.799 34.5084 44.028 38.8432 49.6135 38.4099L50.0573 38.3755C49.9966 37.5938 48.7677 33.259 43.182 33.6923L42.7383 33.7267Z" fill="#78C79F"/>
<path d="M40.88 32.3126C40.8234 31.583 39.2611 27.3527 34.0932 27.7536L33.6494 27.788C33.7061 28.5176 35.2683 32.7479 40.4363 32.3471L40.88 32.3126Z" fill="#78C79F"/>
<path d="M40.6443 33.938C35.0586 34.3712 34.5128 38.8437 34.5734 39.6254L35.0172 39.591C40.6027 39.1577 41.1486 34.6852 41.0879 33.9035L40.6443 33.938Z" fill="#78C79F"/>
<path d="M63.279 13.3714C63.7937 13.3714 63.7946 12.5714 63.279 12.5714C62.7642 12.5714 62.7634 13.3714 63.279 13.3714Z" fill="#2AA967"/>
<path d="M68 5.33333C71.676 5.33333 74.6667 8.32398 74.6667 12V40C74.6667 49.2598 71.0607 57.9654 64.513 64.513C57.9654 71.0607 49.2598 74.6667 39.9999 74.6667C30.7401 74.6667 22.0346 71.0607 15.487 64.513C8.93926 57.9654 5.33334 49.2598 5.33334 40V12C5.33334 8.32398 8.32396 5.33333 12 5.33333H68ZM68 0H12C5.37259 0 0 5.37257 0 12V40C0 62.0914 17.9086 80 39.9999 80C62.0913 80 80 62.0914 80 40V12C80 5.37257 74.6274 0 68 0Z" fill="#223829"/>
</g>
<defs>
<clipPath id="clip0_4717_2154">
<rect width="80" height="80" fill="white"/>
</clipPath>
</defs>
</svg>
