<svg xmlns="http://www.w3.org/2000/svg" viewBox="0 0 142.8 98.6">
  <defs/>
  <defs>
    <style>
			.cls-2 { fill: #fdfdfd; }
			.cls-3 { fill: #14245a; }
			.cls-4 { fill: #fe6056; }
			.cls-6 { fill: #fd6056; }
			.cls-7 { fill: #fefefd; }
			.cls-8 { fill: #fdfdfc; }
			.cls-9 { fill: #fdbe00; }
			.cls-10 { fill: #fdbd00; }
			.cls-12 { fill: #fc6056; }
			.cls-13 { fill: #fa6056; }
			.cls-14 { fill: #f55e56; }
			.cls-15 { fill: #13245a; }
			.cls-16 { fill: #19295b; }
			.cls-17 { fill: #152559; }
    </style>
  </defs>
  <g id="Layer_2" data-name="Layer 2">
    <g id="Layer_1-2" data-name="Layer 1">
      <path d="M68.7 98.6l-1.1-.2a12.8 12.8 0 01-4.8-2.2L44.7 84l-22-15-11.1-7.6-1.1-.7a6 6 0 01-2.8 1 7 7 0 01-5.9-1.4 5.6 5.6 0 01-1.7-3.6 1 1 0 00-.1-.2V42.6l.1-.6A6.3 6.3 0 012 38.8c1.5-1.3 2.9-2.8 4.3-4.2a6.2 6.2 0 014.5-1.9H16a11.8 11.8 0 011.6.2.6.6 0 00.5 0l23-15.8 22-15a11.8 11.8 0 0113.5 0l20.9 14.3 23.8 16.3a2 2 0 001.7.3 9.5 9.5 0 012-.3h11.7a6 6 0 014 1.4 5.5 5.5 0 012 3.6 7.5 7.5 0 01-.5 4 5.3 5.3 0 01-1.2 1.6l-3.6 3.7a.5.5 0 00-.2.3v3.4a6.5 6.5 0 01-.7 3.4 6.6 6.6 0 01-1 1.3l-4.6 4.7a5.8 5.8 0 01-3 1.6 2 2 0 00-.8.3L93.9 84.6l-17.5 12a11.6 11.6 0 01-5.2 2H71zM.2 49.5v6.8a5 5 0 003 4.5 6.5 6.5 0 002.8.7 6.9 6.9 0 004.2-1c.4-.2.4-.2.8 0l.2.2 3.5 2.4 24.9 17 23.6 16a11.7 11.7 0 006.2 2.2 11.4 11.4 0 007-2l6-4.2 23.6-16 21-14.4a2 2 0 01.7-.3 5.6 5.6 0 003-1.5l4.4-4.4a5.8 5.8 0 001.9-4.2v-4a.7.7 0 01.2-.4l3.7-3.8a5.7 5.7 0 001-1.3 6.8 6.8 0 00.5-4.1 5.2 5.2 0 00-1.6-3.3 5.7 5.7 0 00-4-1.4H125a7.8 7.8 0 00-2 .3 2.1 2.1 0 01-1.8-.4L99 17.8 76.5 2.4A11.7 11.7 0 0070.1.3a11.5 11.5 0 00-6.9 2 1547 1547 0 01-7.8 5.4L37.3 20.1 18.1 33a.6.6 0 01-.4.1l-1.1-.2H10a5.3 5.3 0 00-3.6 1.6l-4.2 4.2A7.4 7.4 0 001 40.5a6.4 6.4 0 00-.7 3z" fill="#0f0f0f"/>
      <path class="cls-2" d="M.3 49.5v-6a6.4 6.4 0 01.7-3 7.4 7.4 0 011.3-1.7l4.2-4.1a5.3 5.3 0 013.6-1.7h6.5l1.1.2a.6.6 0 00.4 0L37.3 20l18-12.3 8-5.4a11.5 11.5 0 016.8-2 11.7 11.7 0 016.5 2.1L99 17.8l22.2 15.1a2.1 2.1 0 001.8.3 7.8 7.8 0 012-.2h11.7a5.7 5.7 0 014 1.4 5.2 5.2 0 011.7 3.3 6.8 6.8 0 01-.6 4 5.7 5.7 0 01-.9 1.3l-3.7 3.8a.7.7 0 00-.2.5v4a5.8 5.8 0 01-1.9 4.2l-4.4 4.4a5.6 5.6 0 01-3 1.5 2 2 0 00-.7.3L106 76 82.4 92l-6 4.2a11.4 11.4 0 01-7 2 11.7 11.7 0 01-6.2-2.1L39.6 80 14.7 63l-3.5-2.4-.2-.2c-.4-.3-.4-.3-.8 0a6.9 6.9 0 01-4.2 1 6.5 6.5 0 01-2.8-.7 5 5 0 01-2.9-4.5v-6.8zm122.2-12.3a2.7 2.7 0 00-2-1 1.6 1.6 0 01-.8-.2l-1.6-1.2L94 18.4 74.4 5a8.3 8.3 0 00-9.5 0l-6.6 4.5-18 12.3-21.9 15a.3.3 0 01-.4 0 5.5 5.5 0 00-2.3-.6h-5.1a3.1 3.1 0 00-2.3 1L4 41.5a2.7 2.7 0 00-.5.6 3.2 3.2 0 00-.3 1.6V56a2.3 2.3 0 001.9 2.3 8.1 8.1 0 001.7.1 2.8 2.8 0 002-1l1.2-1h.3l3 2.2 6.9 4.6 25 17.1L65 93.7a8.3 8.3 0 009.5 0l3.3-2.2 23-15.7 25.1-17.1a1.4 1.4 0 01.7-.2 3 3 0 002-1l4.2-4a3.1 3.1 0 001-2.5v-5a.5.5 0 010-.3l4.8-4.7a2.3 2.3 0 00.6-1.5 9.1 9.1 0 000-1.2 2 2 0 00-1.6-2 4.7 4.7 0 00-1 0h-11.6a2.8 2.8 0 00-2.4.9z"/>
      <path class="cls-3" d="M122.5 37.2a2.8 2.8 0 012.4-1h11.5a4.7 4.7 0 011.1.1 2 2 0 011.6 2 9.1 9.1 0 010 1.2 2.3 2.3 0 01-.7 1.5l-4.6 4.6a.5.5 0 00-.2.4v5a3.1 3.1 0 01-1 2.4l-4 4.1a3 3 0 01-2.1 1 1.4 1.4 0 00-.7.1l-25.1 17.2-23 15.7-3.3 2.2a8.3 8.3 0 01-9.5 0L45.3 80.3l-25-17-7-4.7-3-2.1-.3-.2-1 1a2.8 2.8 0 01-2.2 1 8.1 8.1 0 01-1.7 0A2.3 2.3 0 013.3 56V43.7a3.2 3.2 0 01.3-1.6 2.7 2.7 0 01.4-.6l4.3-4.3a3.1 3.1 0 012.3-1h5a5.5 5.5 0 012.4.6.3.3 0 00.4 0l21.9-15 18-12.3L64.9 5a8.3 8.3 0 019.5 0L94 18.4l24.1 16.5 1.7 1a1.6 1.6 0 00.8.4 2.7 2.7 0 011.9.9zM21 38H21l-.5.3c-.2.1 0 .2 0 .2h.1l.5-.5zM49 40.3l.2.8.6-.6zm33.9-.3l1 1.4.8-.8zM69.2 25.9a2.8 2.8 0 01.2-.5 4 4 0 012.4-2 7 7 0 012-.3c.9 0 1.3-.2 1.4-1a6 6 0 000-1.7 1 1 0 00-1.1-1 15.7 15.7 0 00-2 .1 7 7 0 00-4.9 2.7 10.1 10.1 0 00-2 8.7 5.2 5.2 0 002 3.1 5 5 0 003 1 5.2 5.2 0 004.5-1.9 4.4 4.4 0 000-5.6 4.8 4.8 0 00-5.5-1.6zm19.1 0a19.2 19.2 0 012 0 4 4 0 013 1.4 5.1 5.1 0 011.1 3 5.5 5.5 0 01-1.7 4.7l-1.2 1.2a2.4 2.4 0 012 1.4h.1l.3-.2a3.3 3.3 0 012.7-1.2h8.4a2.6 2.6 0 012.5 1.2 1.6 1.6 0 00.2-.2 2.9 2.9 0 012.2-1 3.4 3.4 0 013.4 1.6 7.7 7.7 0 00.5.7l1 1.2 2.5-2.4-25.8-17.5-1.7 3.3-1.5 2.8zM98 65.8h1.2a2.2 2.2 0 012.2 1.8 8.8 8.8 0 010 1.9 2.7 2.7 0 01-.9 1.8l-4.1 4.2a2.8 2.8 0 01-2.1.9h-9a2.7 2.7 0 01-2-.7 2.6 2.6 0 01-.7-2v-10 5.5a2.7 2.7 0 01-.9 2l-4.4 4.4a2.4 2.4 0 01-1.4.7 8.5 8.5 0 01-1.5.1 2.3 2.3 0 01-2.4-2l-.7.6a5.3 5.3 0 01-2.2 1.4 2.4 2.4 0 01-3.2-1.2l-.8-1.8a.4.4 0 00-.5-.2H62a.7.7 0 00-.4.1L59 75.9a2.3 2.3 0 01-2 .8 3.5 3.5 0 01-1-.3l-1.7-1a4.7 4.7 0 01-1.8 1 2.4 2.4 0 01-2.7-.5 3.1 3.1 0 01-.5-.8l-.8-1.8-1.9 1.8a3.4 3.4 0 01-1.7 1.3l-1 .1.2.2 22.2 15.1a5.8 5.8 0 006.5 0L94.6 77l20.9-14.2 7.7-5.3a.3.3 0 000-.4 3.6 3.6 0 01-.1-1v-9.8h-.1V51a3 3 0 01-.9 2.3l-4.4 4.4a2.8 2.8 0 01-1 .6 5.2 5.2 0 01-2.2.1 2.5 2.5 0 01-1.9-1l-1-1.5-.8-1-2.6 2.7a2.6 2.6 0 01-1.6.8 6.5 6.5 0 01-1.1 0 2.6 2.6 0 01-2.4-1.1h-.1a3 3 0 01-1.6 1l-.1.2a2.9 2.9 0 01-.8 1.2L99 61.2a.4.4 0 000 .3 11 11 0 01.1 1.2 3.2 3.2 0 01-1 2.8 1.5 1.5 0 00-.2.3zM23.7 36.2h9.1a2.7 2.7 0 012.6 1.2 3.3 3.3 0 013-1.2h4a6.8 6.8 0 014 1.2l1.1.9v-.1a2 2 0 010-.3 3.4 3.4 0 011.1-3l1.2-1.2.2-.2-.3-.3a6.1 6.1 0 01-2-2.3 5.6 5.6 0 011-6.1l5-5a6.5 6.5 0 015.8-1.7 5.9 5.9 0 014.9 4.5l.1.5.3-.2 2.2-2.2a9 9 0 017.3-2.4 2.2 2.2 0 012 1.8l.2.6 1-1a4.6 4.6 0 014-1.5 4.1 4.1 0 013.5 2.2 1 1 0 00.1.2l3.1-3.1L72.7 7a5.7 5.7 0 00-6.4 0l-11.7 8-29.5 20.2zm-7.1 21.5l24.2 16.5V61.6a5 5 0 010-.9 2.4 2.4 0 01.7-1.4l1.6-1.5-.2-.2a2.4 2.4 0 01-1-1.8 3 3 0 01.4-1.5l1.3-2.6v-.3l-.3.3a8 8 0 01-3.6 2.2.8.8 0 00-.3.2l-3 2.9a3.4 3.4 0 01-2 1.2 9 9 0 01-1.2 0 2.7 2.7 0 01-2.3-1 2.2 2.2 0 00-.3.1 2.8 2.8 0 01-2.2 1h-8.8a4.7 4.7 0 01-1-.1 2.3 2.3 0 01-1.5-1.1zm67.8-13.6l-.1-.2-4.5-5.8a1.5 1.5 0 00-.8-.6 3.7 3.7 0 00-2 0 1 1 0 00-.8 1v13a1 1 0 00.8 1 4.6 4.6 0 001.1 0c1.3 0 1.8-.3 1.8-1.6v-7l.2.3 2 2.8a8.7 8.7 0 001 1.2 1.9 1.9 0 002.8-.2l2.8-3.8.3-.3V51.5a1 1 0 00.7 1 3.8 3.8 0 001.9.1 1 1 0 001-1 4 4 0 000-.8V39.2v-.5a1.1 1.1 0 00-1-1.2 7.7 7.7 0 00-1.5 0 1.5 1.5 0 00-1.2.6l-3.2 4.3zm27.7 0l.3.2 5.8 7.8a1.1 1.1 0 00.8.5 9.4 9.4 0 001.7 0 1.2 1.2 0 001.1-1.2V39v-.4c0-.8-.3-1.1-1.1-1.2a6 6 0 00-1.5 0 1 1 0 00-1 1 4.6 4.6 0 000 .7v7l-.5-.7-5.4-7a2 2 0 00-1.4-1 8.6 8.6 0 00-1.5 0 1 1 0 00-1 1 5.3 5.3 0 000 .6v12c0 .9.3 1.3 1 1.5a4 4 0 001.8 0 1.1 1.1 0 00.9-1 3 3 0 000-.5V44zm-85.7 2.8h4.5a1.1 1.1 0 001.3-1.2 6.3 6.3 0 000-1.5 1 1 0 00-1-1 2.1 2.1 0 00-.4 0h-4.4v-2.1h7.1a1 1 0 001-.9 4 4 0 000-1.9 1 1 0 00-1-.8 3.2 3.2 0 00-.6 0h-8.4a5.5 5.5 0 00-.7 0 1.2 1.2 0 00-1.1 1.1 7 7 0 000 .8v11.3a8.1 8.1 0 000 .9 1 1 0 00.9 1 4.5 4.5 0 001 .1h8a8.7 8.7 0 00.9 0 1 1 0 001-.8 3.7 3.7 0 000-2 1 1 0 00-1-.8 2.7 2.7 0 00-.5-.1h-6.6zM92 59h7a1 1 0 001-1 4 4 0 000-1.6 1.1 1.1 0 00-.8-1 2.6 2.6 0 00-.6-.1h-8.5a5.3 5.3 0 00-.8 0 1.2 1.2 0 00-1 1.1 4 4 0 000 .7v11.7a5.5 5.5 0 000 .7 1 1 0 00.8 1 3.9 3.9 0 00.9.2h9a1 1 0 001-1 6.6 6.6 0 00.1-1.4c0-.9-.4-1.3-1.3-1.3H92v-2.2h4.5c.8 0 1.2-.3 1.4-1a5.1 5.1 0 000-1.4c-.1-1-.4-1.2-1.4-1.3H92zm6.4-12.2H103a1.2 1.2 0 001.3-1 5 5 0 000-1.2c0-1-.5-1.4-1.5-1.4h-4.4V41h7.2a1 1 0 001-.9 4 4 0 000-1.9 1 1 0 00-1-.8 3.3 3.3 0 00-.6 0h-8.4a4.3 4.3 0 00-.7 0 1.1 1.1 0 00-1.1 1 3.6 3.6 0 000 .8V51a5.4 5.4 0 000 .5 1.1 1.1 0 001 1.2 4.3 4.3 0 00.9 0h8.9a1 1 0 001-.8 3.9 3.9 0 000-2 1 1 0 00-1-.8 2.6 2.6 0 00-.5 0h-6.7zm-85.6 1.7h3a139.6 139.6 0 001.8 3.6 1.2 1.2 0 001.2.7 3.6 3.6 0 001.9-.8 1 1 0 00.4-1 7.5 7.5 0 00-.3-.9l-1.4-3a.3.3 0 01.1-.4 5.4 5.4 0 001.2-5.3 5.5 5.5 0 00-5.2-4h-4.6a4.2 4.2 0 00-.7 0A1.2 1.2 0 009 38.7a5.7 5.7 0 000 .7v11.4a7.1 7.1 0 000 1 1 1 0 00.8.9 4 4 0 002 0 1.1 1.1 0 00.8-.9 2.4 2.4 0 000-.5zm37.5 18h3l.4.1L55 70a1.1 1.1 0 001.1.8 3.2 3.2 0 002.2-1 .9.9 0 00.2-.9l-.3-1L57 65a.4.4 0 010-.3 5.3 5.3 0 001.4-4.7 5.4 5.4 0 00-5.2-4.6h-4.8a4.7 4.7 0 00-.7 0 1.2 1.2 0 00-1.1 1.1 5 5 0 000 .7V69c0 1 .3 1.3 1.2 1.5a4.7 4.7 0 001.3 0 1.2 1.2 0 001.2-1.4v-1zm-10.2-18h.7a18 18 0 002.5-.1 5.4 5.4 0 004.6-7.3 5.3 5.3 0 00-5-3.7h-5.3c-.8 0-1.2.4-1.3 1.3v12.1l.1.7a1 1 0 001 1 8.2 8.2 0 001.7 0 1 1 0 00.9-.9 3.8 3.8 0 000-.7zm32.7 22.3a3.3 3.3 0 002-1.1.8.8 0 00.1-.9 8.2 8.2 0 00-.3-.8l-1.9-3.9-3.7-7.7a1.8 1.8 0 00-1-1 2 2 0 00-2.4 1.1l-4.4 9-1.3 3a1.2 1.2 0 00-.1 1 3.1 3.1 0 002.5 1.2 1.3 1.3 0 001-.8l1.1-2.4a.3.3 0 01.4-.2H70a.3.3 0 01.4.2l1.2 2.6a1.2 1.2 0 001.2.7zM52.5 49.4H58a.4.4 0 01.4.3l1.2 2.5a1.1 1.1 0 001.4.6 3.7 3.7 0 001.6-.8 1 1 0 00.3-1.4l-.2-.4-2-4.3-3.6-7.4a1.8 1.8 0 00-1.7-1.1 2 2 0 00-1.8 1.1l-5 10.4-.8 1.9a.9.9 0 00.3 1.1 7.2 7.2 0 001.4.8 1.2 1.2 0 001.7-.6l1.3-2.7zm7-21a4.2 4.2 0 01-2.3 2.3 6.7 6.7 0 01-2.4.3c-.8 0-1.2.3-1.3 1.2a5.8 5.8 0 000 1.6 1 1 0 001 1 14 14 0 002.5-.2 7.3 7.3 0 005.2-3.8 9.6 9.6 0 001.3-4 9.4 9.4 0 00-.3-4 5 5 0 00-2.5-3.1 6 6 0 00-6 .6 4.5 4.5 0 00-.5 6.7 5 5 0 004.1 1.6l1.1-.3zm8.3 15l-3.2-5a5.6 5.6 0 00-.5-.8 1 1 0 00-1.2-.4 4.2 4.2 0 00-1.7 1 1 1 0 00-.2 1.3 5.3 5.3 0 00.4.6l3.6 5.5a5.2 5.2 0 01.9 1.3 5.8 5.8 0 010 1.5v3a1.2 1.2 0 001.3 1.3 8.8 8.8 0 001 0 1.2 1.2 0 001.3-1.4v-4.1a.8.8 0 01.2-.5l4.1-6.2a8.1 8.1 0 00.6-1 1 1 0 000-.9 3.3 3.3 0 00-2.1-1.5H72a1.4 1.4 0 00-1 .8L70 39.7l-2.2 3.6zm61-3v10.4a7.3 7.3 0 000 .8 1 1 0 001 1 4.2 4.2 0 001.7 0 1 1 0 00.8-.8 4.7 4.7 0 00.1-.9V40.4h4.4c.7 0 1-.4 1.1-1.1v-.8c0-.7-.3-1-1-1.1h-12.2a3.5 3.5 0 00-.6 0 .8.8 0 00-.7.8 6.3 6.3 0 000 1.1c0 .8.4 1 1.1 1.1h3.4zm-51.2 18v11a1 1 0 001 1.2 8 8 0 001.6 0 1 1 0 001-1 2.8 2.8 0 000-.5V58.3h4.3c.9 0 1.2-.3 1.2-1.1a6 6 0 000-.8c0-.7-.4-1-1.1-1h-12a4.2 4.2 0 00-.8 0 .8.8 0 00-.7.7 4.9 4.9 0 000 1c0 1 .4 1.2 1.4 1.2h4.1zm15.7-27.5l-.1-1a3.5 3.5 0 00-1.2-2.3 3.5 3.5 0 00-2.4-.7 3.3 3.3 0 00-3.1 2.3 5.3 5.3 0 00-.3 2.3 3.5 3.5 0 001.6 2.8 3.8 3.8 0 002.6.4 3 3 0 002.2-1.3 4.4 4.4 0 00.7-2.5zm-15.9-7.5a3.9 3.9 0 00.9 2.6 3.5 3.5 0 003.3 1.2 3 3 0 002.6-2.1 5.4 5.4 0 000-3.4 3 3 0 00-2-2.1 4.3 4.3 0 00-2.1-.1 3 3 0 00-2 1.3 4.4 4.4 0 00-.7 2.6zm4.2 12a2 2 0 00.4-.3 1.9 1.9 0 00.3-.4l8-15c.3-.6.2-.8-.3-1-.8-.5-1-.5-1.4.3L82 31.4l-1.4 2.7c-.1.2-.3.5 0 .7a10 10 0 001 .6zm-3.9-2.6l-1.5.2-.2.1a7.5 7.5 0 01-.5.8l-2 2-.2.3 2 1.3 2.4-4.6zm-18 28.3c.3-1.2 1.3-1.9 2.1-2.7a2.5 2.5 0 01-1.7-2.3l-1.3 1.3a.3.3 0 000 .3l.4 1a7.4 7.4 0 01.4 2.4zm-1-22l1.4-1.4a.3.3 0 000-.2l-.5-1.3a3.4 3.4 0 01-.1-.5l-1.7 1.7zM70.4 53l-1.7 1.5a3.7 3.7 0 011.5 1.7.7.7 0 00.2-.4v-1.6zM83 54.2v-1.7L81.3 54zm-39.4-2.8z"/>
      <path class="cls-4" d="M98 65.8a1.5 1.5 0 01.1-.3 3.2 3.2 0 001-2.8 11 11 0 00-.2-1.2.4.4 0 01.1-.3l1.5-1.5a2.9 2.9 0 00.7-1.1l.2-.2a3 3 0 001.5-1l.1-.1a2.6 2.6 0 002.4 1.2 6.5 6.5 0 001.2-.1 2.6 2.6 0 001.5-.8l2.7-2.7.8 1 1 1.4a2.5 2.5 0 001.8 1.1 5.2 5.2 0 002.3-.1 2.8 2.8 0 001-.6l4.4-4.4a3 3 0 00.9-2.2v-4.9V56a3.6 3.6 0 00.3 1 .3.3 0 01-.2.4l-7.7 5.3-20.8 14.2L73 91.7a5.8 5.8 0 01-6.5 0L44.2 76.6l-.2-.2 1-.1a3.4 3.4 0 001.7-1.3l1.9-1.9c.2.7.5 1.3.8 1.8a3.1 3.1 0 00.5.8 2.4 2.4 0 002.7.6 4.7 4.7 0 001.8-1l1.7 1a3.5 3.5 0 001 .3 2.3 2.3 0 002-.8l2.5-2.5a.7.7 0 01.4-.1h2.5a.4.4 0 01.5.2l.8 1.8a2.4 2.4 0 003.2 1.2 5.3 5.3 0 002.2-1.4l.6-.7v.2a2.3 2.3 0 002.4 2 8.5 8.5 0 001.5-.2 2.4 2.4 0 001.5-.7l4.4-4.4a2.7 2.7 0 00.8-2V64v-.3 10a2.6 2.6 0 00.8 2 2.7 2.7 0 002 .7h9a2.8 2.8 0 002-.9l4.2-4.2a2.7 2.7 0 001-1.8 8.8 8.8 0 00-.2-2 2.2 2.2 0 00-2.2-1.7h-1z"/>
      <path d="M23.7 36.2l1.5-1L54.7 15l11.7-8a5.7 5.7 0 016.4 0l15.3 10.4a.2.2 0 01.1.1l-3 3.1a1 1 0 01-.2-.2 4.1 4.1 0 00-3.6-2.2 4.6 4.6 0 00-4 1.5l-1 1-.1-.6a2.2 2.2 0 00-2-1.8 9 9 0 00-7.3 2.4l-2.2 2.2-.3.2-.1-.5a5.9 5.9 0 00-5-4.5 6.5 6.5 0 00-5.8 1.6l-5 5.1a5.6 5.6 0 00-1 6.1 6.1 6.1 0 002 2.3l.4.3-.2.2-1.2 1.1a3.4 3.4 0 00-1 3.1 2 2 0 000 .3l-1.2-.8a6.8 6.8 0 00-4-1.2h-4a3.3 3.3 0 00-3 1.2 2.7 2.7 0 00-2.6-1.2h-9.1z" fill="#fe6156"/>
      <path class="cls-6" d="M16.6 57.7l.5-.5a2.3 2.3 0 001.4 1 4.7 4.7 0 001 .3h9a2.8 2.8 0 002.2-1 2.2 2.2 0 01.2-.2 2.7 2.7 0 002.4 1.1 9 9 0 001.2 0 3.4 3.4 0 002-1.3l2.9-2.9a.8.8 0 01.3-.2 8 8 0 003.6-2.2l.3-.4h.1l-.1.3-1.3 2.7a3 3 0 00-.4 1.5 2.4 2.4 0 001 1.7l.3.2-1.6 1.6a2.4 2.4 0 00-.7 1.4 5 5 0 000 .8v12.5a.5.5 0 010 .1z"/>
      <path class="cls-4" d="M88.3 26l1.4-2.9 1.8-3.3 25.7 17.5-2.5 2.4-1-1.3a7.7 7.7 0 01-.4-.6 3.4 3.4 0 00-3.5-1.6 2.9 2.9 0 00-2.2 1 1.6 1.6 0 01-.1.2 2.6 2.6 0 00-2.5-1.2h-8.3a3.3 3.3 0 00-2.8 1.1l-.3.3a2.4 2.4 0 00-2.1-1.4l1.2-1.2a5.5 5.5 0 001.7-4.7 5.1 5.1 0 00-1.1-3 4 4 0 00-3-1.5 19.2 19.2 0 00-2 .1z"/>
      <path class="cls-7" d="M84.4 44.1l1.3-1.7 3.3-4.3a1.5 1.5 0 011.2-.7 7.7 7.7 0 011.5 0 1.1 1.1 0 011 1.3v12.1a4 4 0 010 .8 1 1 0 01-1 1 3.8 3.8 0 01-1.9-.1 1 1 0 01-.8-1v-1.8-5.9l-.3.4L86 48a1.9 1.9 0 01-2.8.2 8.7 8.7 0 01-1-1.2l-2-2.9-.3-.3v7c0 1.3-.5 1.8-1.8 1.8a4.6 4.6 0 01-1.1 0 1 1 0 01-.8-1V39v-.6a1 1 0 01.8-1 3.7 3.7 0 012 0 1.5 1.5 0 01.8.6l4.4 5.9z"/>
      <path class="cls-2" d="M112.1 44v7a3 3 0 010 .7 1.1 1.1 0 01-1 .9 4 4 0 01-1.6 0c-.7-.2-1-.6-1-1.5v-1.7V39a5.3 5.3 0 010-.7 1 1 0 011-1 8.6 8.6 0 011.4 0 2 2 0 011.5 1l5.2 7.1.5.7v-.4-6.6a4.6 4.6 0 010-.8 1 1 0 011-1 6 6 0 011.6 0c.8.1 1 .5 1 1.3V51.4a1.2 1.2 0 01-1 1.2 9.4 9.4 0 01-1.7 0 1.1 1.1 0 01-.8-.5l-5.9-7.8z"/>
      <path class="cls-8" d="M26.4 46.9V49H33a2.7 2.7 0 01.6 0 1 1 0 01.9.8 3.7 3.7 0 010 2 1 1 0 01-1 .8 8.7 8.7 0 01-.8 0h-8.1a4.5 4.5 0 01-1-.1 1 1 0 01-.9-1 8.1 8.1 0 010-.9V39.3a7 7 0 010-.7 1.2 1.2 0 011.1-1.2 5.5 5.5 0 01.7 0H33a3.2 3.2 0 01.6 0 1 1 0 011 .9 4 4 0 010 1.9 1 1 0 01-1 .8h-7.1v2h4.4a2.1 2.1 0 01.4 0 1 1 0 011 1 6.3 6.3 0 010 1.6 1.1 1.1 0 01-1.3 1.1h-4.3zM92 59v2h4.5c1 0 1.3.4 1.4 1.3a5.1 5.1 0 010 1.5c-.2.6-.6 1-1.4 1H92v2.1h6.9c.8 0 1.2.4 1.3 1.3a6.6 6.6 0 010 1.5 1 1 0 01-1.1.9h-9a3.9 3.9 0 01-1-.1 1 1 0 01-.8-1 5.5 5.5 0 010-.7V57a4 4 0 010-.7 1.2 1.2 0 011.1-1 5.3 5.3 0 01.8 0h8.5a2.6 2.6 0 01.5 0 1.1 1.1 0 011 1 4 4 0 010 1.7 1 1 0 01-1 .9H92zM98.4 46.9V49h6.7a2.6 2.6 0 01.6 0 1 1 0 01.9.8 3.9 3.9 0 010 2 1 1 0 01-1 .8h-9a4.3 4.3 0 01-.9 0 1.1 1.1 0 01-1-1.2 5.4 5.4 0 010-.5V39.2a3.6 3.6 0 010-.7 1.1 1.1 0 011.2-1 4.3 4.3 0 01.7-.1h8.4a3.3 3.3 0 01.6 0 1 1 0 011 .8 4 4 0 010 2 1 1 0 01-1 .8h-7.2v2h4.5c1 0 1.4.5 1.5 1.5a5 5 0 010 1.1A1.2 1.2 0 01103 47h-4.2zM12.8 48.5v2.7a2.4 2.4 0 010 .4 1.1 1.1 0 01-1 1 4 4 0 01-1.9-.1 1 1 0 01-.7-1 7.1 7.1 0 01-.1-.8V39.3a5.7 5.7 0 010-.7 1.2 1.2 0 011-1.2 4.2 4.2 0 01.8 0h4.6a5.5 5.5 0 015.2 4 5.4 5.4 0 01-1.2 5.3.3.3 0 000 .3l1.3 3a7.5 7.5 0 01.3.9 1 1 0 01-.4 1.1 3.6 3.6 0 01-1.8.8 1.2 1.2 0 01-1.3-.8L16 48.7c0-.2-.1-.3-.3-.3h-2.4zm0-3.8h2.8a1.6 1.6 0 001.5-1 1.9 1.9 0 00-1.8-2.6h-2.5zM50.3 66.4v2.8a1.2 1.2 0 01-1.2 1.3 4.7 4.7 0 01-1.3 0c-.9 0-1.1-.4-1.2-1.4V57.2a5 5 0 010-.7 1.2 1.2 0 011.1-1.1 4.7 4.7 0 01.7 0h4.8a5.4 5.4 0 015.2 4.6 5.3 5.3 0 01-1.4 4.6.4.4 0 000 .4l1.3 3 .3 1a.9.9 0 01-.2.8 3.2 3.2 0 01-2.1 1A1.1 1.1 0 0155 70l-1.5-3.4c0-.1-.1-.2-.3-.2H51zm0-3.7H53a1.8 1.8 0 001.7-1.8A1.8 1.8 0 0053 59h-2.7zM40 48.5v2.4a3.8 3.8 0 010 .7 1 1 0 01-.9 1 8.2 8.2 0 01-1.8 0 1 1 0 01-.9-1V39v-.4c0-.8.4-1.3 1.2-1.3H43a5.3 5.3 0 015 3.7 5.4 5.4 0 01-4.6 7.3 18 18 0 01-2.5 0zm0-3.8H43a1.7 1.7 0 001.4-.9 1.8 1.8 0 00-1.4-2.7H40z"/>
      <path class="cls-2" d="M72.8 70.8a1.2 1.2 0 01-1.2-.6l-1.3-2.6a.3.3 0 00-.4-.2h-5.2a.3.3 0 00-.4.2L63.2 70a1.3 1.3 0 01-1 .8 3.1 3.1 0 01-2.5-1.3 1.2 1.2 0 010-1l1.4-2.9 4.4-9a2 2 0 012.5-1.2 1.8 1.8 0 011 1l3.7 7.7 2 3.9a8.2 8.2 0 01.2.8.8.8 0 01-.1.9 3.3 3.3 0 01-2 1.1zm-4.1-6.5l-1.4-2.8-1.3 2.8zM52.5 49.4l-1.3 2.7a1.2 1.2 0 01-1.7.6A7.2 7.2 0 0148 52a.9.9 0 01-.3-1.1l.8-2 5-10.3a2 2 0 011.8-1.1 1.8 1.8 0 011.7 1l3.6 7.5 2 4.3.2.4a1 1 0 01-.3 1.4 3.7 3.7 0 01-1.6.8 1.1 1.1 0 01-1.4-.6l-1.2-2.5a.4.4 0 00-.5-.3h-5.4zm1.5-3.1h2.7l-1.4-2.8z"/>
      <path class="cls-9" d="M59.4 28.3l-1.1.2a5 5 0 01-4.1-1.5 4.5 4.5 0 01.5-6.6 6 6 0 016-.7 5 5 0 012.5 3.1 9.4 9.4 0 01.3 4 9.6 9.6 0 01-1.2 4 7.3 7.3 0 01-5.3 3.8 14 14 0 01-2.5.1 1 1 0 01-1.1-1 5.8 5.8 0 010-1.5c.1-.8.5-1.1 1.3-1.2a6.7 6.7 0 002.4-.3 4.2 4.2 0 002.3-2.2.5.5 0 000-.2zm-1.3-3a7.7 7.7 0 00.9-.2 1.2 1.2 0 00.8-1.3 1.1 1.1 0 00-1-1.1 3.9 3.9 0 00-1.1 0 1.2 1.2 0 00-1 1.7 1.4 1.4 0 001.4 1zM69.2 25.9a4.8 4.8 0 015.5 1.6 4.4 4.4 0 010 5.6A5.2 5.2 0 0170 35a5 5 0 01-3-1 5.2 5.2 0 01-1.9-3.1 10.1 10.1 0 012-8.7 7 7 0 015-2.7 15.7 15.7 0 011.9 0 1 1 0 011 1 6 6 0 010 1.6c0 .8-.4 1-1.4 1a7 7 0 00-1.9.3 4 4 0 00-2.4 2 2.8 2.8 0 00-.2.5zm1.2 5.6h.4a1.3 1.3 0 001.2-1.2 1.3 1.3 0 00-1-1.4 2.2 2.2 0 00-1.4.1 1.3 1.3 0 00-.8 1.4 1.1 1.1 0 001 1 3.2 3.2 0 00.6.1z"/>
      <path class="cls-2" d="M67.8 43.3l2.2-3.6 1.2-1.8a1.4 1.4 0 011-.8h.2a3.3 3.3 0 012.1 1.5 1 1 0 010 1 8.1 8.1 0 01-.5.9l-4.2 6.2a.8.8 0 00-.1.5v4a1.2 1.2 0 01-1.3 1.5 8.8 8.8 0 01-1 0 1.2 1.2 0 01-1.4-1.4v-2.8a5.8 5.8 0 000-1.6 5.2 5.2 0 00-1-1.3L61.4 40a5.3 5.3 0 01-.4-.6 1 1 0 01.2-1.2 4.2 4.2 0 011.6-1.1 1 1 0 011.3.4 5.6 5.6 0 01.5.7z"/>
      <path class="cls-8" d="M128.8 40.4h-4.3c-.8 0-1-.3-1.1-1a6.3 6.3 0 010-1.2.8.8 0 01.6-.8 3.5 3.5 0 01.7 0h12.1c.8 0 1 .4 1.1 1.1v.8c0 .7-.3 1-1.1 1h-4.4V51a4.7 4.7 0 010 1 1 1 0 01-.9.7 4.2 4.2 0 01-1.8 0 1 1 0 01-.9-1 7.3 7.3 0 010-.8v-10z"/>
      <path class="cls-7" d="M77.6 58.3h-4.1c-1 0-1.3-.2-1.4-1.2a4.9 4.9 0 010-1 .8.8 0 01.7-.7 4.2 4.2 0 01.7 0h12c.8 0 1.1.3 1.2 1a6 6 0 010 .8c0 .8-.4 1.1-1.2 1.1h-4.3v10.8a2.8 2.8 0 010 .5 1 1 0 01-1 1 8 8 0 01-1.6 0 1 1 0 01-1-1.2V58.3z"/>
      <path class="cls-10" d="M93.3 30.9a4.4 4.4 0 01-.7 2.5 3 3 0 01-2.2 1.3 3.8 3.8 0 01-2.5-.4 3.5 3.5 0 01-1.7-2.8 5.3 5.3 0 01.3-2.3 3.3 3.3 0 013.1-2.3 3.5 3.5 0 012.4.7 3.5 3.5 0 011.2 2.2V31zm-4.8 0v.4a1 1 0 001 1 1.1 1.1 0 001.4-.7 2.6 2.6 0 000-.8c0-.8-.2-1.1-.7-1.2a2.4 2.4 0 00-.7 0 1 1 0 00-1 .8v.4zM77.4 23.4a4.4 4.4 0 01.7-2.7 3 3 0 012-1.3 4.3 4.3 0 012.2.1 3 3 0 012 2.1 5.4 5.4 0 010 3.4 3 3 0 01-2.7 2.1 3.5 3.5 0 01-3.3-1.1 3.9 3.9 0 01-.9-2.6zm3.6-1.5a1 1 0 00-1.1.6 2 2 0 00.2 1.8 1 1 0 00.4.2 1.2 1.2 0 001.7-1c0-1-.2-1.6-1.2-1.6z"/>
      <path d="M81.6 35.4a10 10 0 01-1-.6c-.3-.2-.1-.5 0-.7l1.4-2.7 6.5-12.3c.5-.9.7-1 1.5-.5.5.3.6.5.3 1l-8 15a1.9 1.9 0 01-.3.5 2 2 0 01-.4.3z" fill="#fcbd01"/>
      <path class="cls-12" d="M77.7 32.9l-2.4 4.6-2-1.4.2-.2 2-2a7.5 7.5 0 00.5-.8l.2-.1z"/>
      <path class="cls-13" d="M59.6 61.1a7.4 7.4 0 00-.4-2.5c0-.3-.2-.6-.4-1a.3.3 0 010-.2l1.3-1.3a2.5 2.5 0 001.7 2.2c-.8 1-1.8 1.6-2.2 2.8z"/>
      <path class="cls-12" d="M58.7 39.2l-.9-1.8 1.7-1.7a3.4 3.4 0 00.1.5l.5 1.3a.3.3 0 010 .2l-1.4 1.5z"/>
      <path class="cls-13" d="M70.4 53v2.8a.7.7 0 01-.2.4 3.7 3.7 0 00-1.5-1.7z"/>
      <path class="cls-14" d="M83.1 54.1h-1.8l1.8-1.6zM82.8 40l1.9.6-.9.8-1-1.4zM48.9 40.3l.8.2-.6.6-.2-.8zM21 38l-.4.6h-.1v-.2l.5-.4z"/>
      <path class="cls-6" d="M43.7 51.4z"/>
      <path class="cls-14" d="M48.9 40.3zM82.8 40zM21.1 38z"/>
      <path class="cls-4" d="M88.3 26z"/>
      <path class="cls-14" d="M21.1 38z"/>
      <path class="cls-15" d="M12.8 44.7v-3.6h2.6a1.9 1.9 0 011.7 2.6 1.6 1.6 0 01-1.4 1h-3zM50.3 62.7V59H53a1.8 1.8 0 011.8 1.8 1.8 1.8 0 01-1.7 1.8h-2.5zM40 44.7v-3.6H43a1.8 1.8 0 011.4 2.7 1.7 1.7 0 01-1.4.9H40z"/>
      <path class="cls-16" d="M68.7 64.3H66l1.4-2.8zM54 46.3l1.3-2.8 1.4 2.8z"/>
      <path class="cls-17" d="M58.1 25.3a1.4 1.4 0 01-1.4-1 1.2 1.2 0 011-1.7 3.9 3.9 0 011.1 0 1.1 1.1 0 011 1.2A1.2 1.2 0 0159 25a7.7 7.7 0 01-.9.2zM70.4 31.5a3.2 3.2 0 01-.6 0 1.1 1.1 0 01-1-1 1.3 1.3 0 01.8-1.4A2.2 2.2 0 0171 29a1.3 1.3 0 011 1.3 1.3 1.3 0 01-1.2 1.3h-.4z"/>
      <path class="cls-3" d="M69.2 25.9z"/>
      <path class="cls-17" d="M88.5 30.8v-.5a1 1 0 011-.8 2.4 2.4 0 01.7 0c.5.1.8.5.8 1.2a2.6 2.6 0 01-.1.8 1.1 1.1 0 01-1.4.7 1 1 0 01-1-1v-.4zM81 21.9c1 0 1.3.5 1.2 1.6a1.2 1.2 0 01-1.7 1 1 1 0 01-.4-.2 2 2 0 01-.2-1.8A1 1 0 0181 22z"/>
    </g>
  </g>
</svg>
