<svg xmlns="http://www.w3.org/2000/svg" viewBox="0 0 89.11 119.96">
  <defs/>
  <defs>
    <style>
			.cls-3 { fill: #fff; }
			.cls-4 { fill: #ffbf00; }
			.cls-5 { fill: #f2e144; }
			.cls-6,
			.cls-7 { fill: none; stroke: #42507b; stroke-linecap: round; stroke-linejoin: round; }
			.cls-6 { stroke-width: 1.12px; }
			.cls-7 { stroke-width: 0.83px; }
    </style>
  </defs>
  <g id="Layer_2" data-name="Layer 2">
    <g id="Artwork">
      <path d="M85.9 68.72a4.53 4.53 0 00-2.3-1.6 4.75 4.75 0 00-1.39-.22 4.57 4.57 0 00-3.38 1.48A31 31 0 0070 59.19a35.94 35.94 0 00-14.43-6.9A17.89 17.89 0 0055.92 22a17.86 17.86 0 00-20.23-2.22A14 14 0 0030 3.65a14 14 0 10-16.79 22.42 14 14 0 0014.58 2.29 17.85 17.85 0 006.7 22.24c.44.38.89.73 1.36 1.07a40.73 40.73 0 00-9.27 2.61A24.87 24.87 0 0016.51 52a20.67 20.67 0 00-7.11 1.25A3.32 3.32 0 007.23 56a22.28 22.28 0 003.15 13 31.59 31.59 0 00-2.52 6.64l-2.36.64a7.13 7.13 0 00-5 8.71l2.92 10.62A8.17 8.17 0 007.51 101a9.34 9.34 0 006.82 2.59c.71.81 1.47 1.59 2.26 2.34l1.12 7.61a4.89 4.89 0 003.05 4.26 4.92 4.92 0 003.83 1.86h5.76a4.89 4.89 0 004.6-3.23h.13c.33.09.65.17 1 .24l.3.08.5.12.92.18.89.18.89.14.95.14 1 .11h.22l.67.07c.38 0 .77.06 1.16.08h5.3l1.09-.07 1-.1.85-.1.56-.08.49-.07.77-.12.57-.11.42-.08.79-.16 1-.23.73-.18.57-.16a4.93 4.93 0 002 1.44 4.89 4.89 0 003.83 1.86h5.76a4.9 4.9 0 004.88-4.62l1.36-9.28.35-.38.58-.67.47-.57.55-.69.45-.6.51-.73.41-.6.47-.75.38-.62.44-.78.33-.63.4-.8.3-.65.35-.82.26-.66.32-.86.22-.67.27-.88.18-.68.22-.88c.07-.29.1-.47.14-.71l.17-.9.11-.71c.04-.24.08-.61.11-.92l.06-.71c0-.31 0-.62.06-1a2.64 2.64 0 000-.28v-.22-.71c4.1-3.83 5-9.34 5.23-12.46a4.62 4.62 0 00-2.99-4.45z" stroke="#000" stroke-miterlimit="10" stroke-width=".53" fill="#fff"/>
      <path d="M85.84 73.12a1.61 1.61 0 00-1.14-1.64 1.58 1.58 0 00-1.86.71 8.3 8.3 0 01-3.91 3.33c-4-11.45-15-20-32.74-20a41.29 41.29 0 00-17.66 3.59c-3.66-1.88-9.65-3.88-16.11-1.52a.35.35 0 00-.21.27A19.37 19.37 0 0015.9 70.3a28.69 28.69 0 00-3.52 9.21l-4.1 1.11a4.12 4.12 0 00-2.87 5l2.9 10.68c.88 3.24 2.91 4.5 7.5 4.29h.78a30.44 30.44 0 004.82 5.41l1.29 8.83a1.89 1.89 0 001.89 1.89h5.76a1.89 1.89 0 001.89-1.89l.33-2.24h.1l1 .34.58.2 1 .29.6.18 1 .25.63.15 1 .21.64.12 1.06.16c.22 0 .43.08.65.1l1.11.13.63.06c.4 0 .81.06 1.22.08h4.67l1.15-.07.69-.07 1-.11.72-.11 1-.15.74-.14c.3-.06.61-.11.91-.18l.75-.17.87-.21.74-.21.84-.25.75-.24.8-.27.74-.28c.26-.1.52-.19.77-.3l.18-.07.41 2.77a1.89 1.89 0 001.88 1.89h5.77a1.89 1.89 0 001.88-1.89l1.53-10.38.48-.51.46-.51.53-.6.44-.52.49-.64.4-.53c.13-.18.32-.43.47-.66l.37-.54.43-.68.33-.56.4-.7.3-.57c.13-.24.24-.48.36-.73l.27-.58.32-.74.23-.59.28-.77.2-.6.24-.78.17-.61.19-.8.13-.62.15-.81.09-.63c0-.27.07-.54.1-.82s0-.43.06-.64 0-.56 0-.83a2.45 2.45 0 000-.27v-.9-1.32c4.21-3 5.19-8.14 5.37-11.24z" fill="#4fa04d"/>
      <circle class="cls-3" cx="24.14" cy="78.83" r="2.08"/>
      <path class="cls-3" d="M56.15 63.85a32 32 0 00-19.55 0l-1-2.68a34.53 34.53 0 0121.47 0z"/>
      <circle class="cls-4" cx="46.2" cy="37.05" r="14.93"/>
      <circle class="cls-5" cx="46.2" cy="37.05" r="12.67"/>
      <path class="cls-3" d="M52.83 26.23a12.55 12.55 0 012 6.83 12.68 12.68 0 01-19.31 10.8 12.68 12.68 0 1017.31-17.63z"/>
      <circle class="cls-6" cx="44.2" cy="35.55" r="14.93"/>
      <circle class="cls-6" cx="44.2" cy="35.55" r="12.67"/>
      <circle class="cls-4" cx="22.34" cy="15.41" r="11.04"/>
      <circle class="cls-5" cx="22.34" cy="15.41" r="9.37"/>
      <path class="cls-3" d="M27.25 7.42a9.37 9.37 0 01-12.8 13 9.37 9.37 0 1012.8-13z"/>
      <circle class="cls-7" cx="20.87" cy="14.3" r="11.04"/>
      <circle class="cls-7" cx="20.87" cy="14.3" r="9.37"/>
      <path class="cls-6" d="M83.84 71.62A1.61 1.61 0 0082.7 70a1.58 1.58 0 00-1.86.71A8.3 8.3 0 0176.93 74c-4-11.45-15-20-32.74-20a41.29 41.29 0 00-17.66 3.59c-3.66-1.88-9.65-3.88-16.11-1.52a.35.35 0 00-.21.27A19.37 19.37 0 0013.9 68.8a28.69 28.69 0 00-3.52 9.2l-4.1 1.11a4.12 4.12 0 00-2.87 5l2.9 10.68c.88 3.24 2.91 4.5 7.5 4.29h.78a30.44 30.44 0 004.82 5.36l1.29 8.83a1.89 1.89 0 001.89 1.89h5.76a1.89 1.89 0 001.89-1.89l.33-2.24h.1l1 .34.58.2 1 .29.6.18 1 .25.63.15 1 .21.64.12 1.06.16c.22 0 .43.08.65.1l1.11.13.63.06c.4 0 .81.06 1.22.08h4.67l1.15-.07.69-.07 1-.11.72-.11 1-.15.74-.14c.3-.06.61-.11.91-.18l.75-.17.87-.21.74-.21.84-.25.75-.24.8-.27.74-.28c.26-.1.52-.19.77-.3l.18-.07.41 2.77a1.89 1.89 0 001.88 1.89h5.77a1.89 1.89 0 001.88-1.89l1.53-10.38.48-.51.46-.51.53-.6.44-.52.49-.64.4-.53c.13-.18.32-.43.47-.66l.37-.54.43-.68.33-.56.4-.7.3-.57c.13-.24.24-.48.36-.73l.27-.58.32-.74.23-.59.28-.77.2-.6.24-.78.17-.61.19-.8.13-.62.15-.81.09-.63c0-.27.07-.54.1-.82s0-.43.06-.64 0-.56 0-.83a2.45 2.45 0 000-.27v-.9-1.32c4.21-2.94 5.19-8.08 5.37-11.18z"/>
      <circle class="cls-6" cx="22.14" cy="77.33" r="2.08"/>
      <path class="cls-6" d="M54.15 62.35a32 32 0 00-19.55 0l-1-2.68a34.53 34.53 0 0121.47 0z"/>
    </g>
  </g>
</svg>
