<svg xmlns="http://www.w3.org/2000/svg" xmlns:xlink="http://www.w3.org/1999/xlink" viewBox="0 0 147.88 147.07"><defs><style>.cls-1 { fill: none; }
	.cls-2 { isolation: isolate; }
	.cls-3 { opacity: 0.5; mix-blend-mode: multiply; }
	.cls-4 { fill: #fff; }
	.cls-5 { clip-path: url(#clip-path); }
	.cls-6 { fill: #1eb13a; }
	.cls-7 { fill: #0072c2; }
	.cls-8 { fill: #ffbf00; stroke: #13245a; stroke-miterlimit: 10; stroke-width: 0.55px; }
</style><clipPath id="clip-path" transform="translate(12.34 45.73)"><path class="cls-1" d="M123.61,4.17a12.34,12.34,0,0,0-3.72-1,8.91,8.91,0,0,0-1-.06,7.52,7.52,0,0,0-1.38.13c-.2,0-.4-.09-.61-.12a10.13,10.13,0,0,0-1.88-.2,4.33,4.33,0,0,0-3,1c-1.89,1.64-4,3.64-6.25,5.94a7.43,7.43,0,0,0-3.54-5.31,11.7,11.7,0,0,0-6.43-1.86l-.59,0c-.23,0-.7,0-1.37,0l-1.26.11-.64,0a5.37,5.37,0,0,0-4.72,2.3q-1.43,2.05-2.64,3.87a7.57,7.57,0,0,0-3.37-4.46,11.71,11.71,0,0,0-6.44-1.86l-.58,0c-.23,0-.7,0-1.37,0l-1.26.11-.64,0a5.37,5.37,0,0,0-4.72,2.3c-.88,1.26-1.69,2.45-2.45,3.59a9.13,9.13,0,0,0-1.07-2.91C61.14,3.19,59.1,2.79,58,2.79c-2.55,0-4.55,0-6.1.13a5.79,5.79,0,0,0-.72,0,5.3,5.3,0,0,0-4.64,2.3c-.44.63-.86,1.24-1.26,1.84-1-2.48-3.78-3.3-4.92-3.62a11.39,11.39,0,0,0-3.22-.54A5.48,5.48,0,0,0,32.4,5.22c-1,1.46-1.95,2.83-2.8,4.12a9.71,9.71,0,0,0-2.47-3.55,10.56,10.56,0,0,0-7.61-2.73,16.84,16.84,0,0,0-4.46.6,11.25,11.25,0,0,0-4.72,2.7,8.08,8.08,0,0,0-2.58,5.76,3.61,3.61,0,0,0-1.13.52,8.83,8.83,0,0,0-3.58,4.95c-.3,1-1.08,3.67.47,5.81a10.37,10.37,0,0,0,4.93,3.84q.5.18,1,.33c-.37.26-.73.53-1.06.81C5.68,30.7,5.11,33,5.11,34.56c0,3.19,1.43,6.14,4.24,8.76l0,0H9.29A6.51,6.51,0,0,0,6,44.64a8,8,0,0,0-3.21,5.59s0,.07,0,.1a5.09,5.09,0,0,0,1.08,4.06,4.18,4.18,0,0,0,3.13,1.4,3.27,3.27,0,0,0,.54,0l.24,0,.92-.14,2.06-.29c1.45-.21,2.6-.4,3.43-.54a125.74,125.74,0,0,1,13.33,4.39c10.2,3.75,12.88,4.44,14.17,4.58a6.54,6.54,0,0,0,.89.06c2.23,0,4.53-1,6.83-3,2.16-1.83,3.37-3.48,3.81-5.16a4.33,4.33,0,0,0-.69-3.85,3.65,3.65,0,0,0-.67-.69l.37-.36.13.18A10.35,10.35,0,0,0,56,53.73a6.53,6.53,0,0,0,1.68.66l.22,0a6.69,6.69,0,0,0,1.34.13,10.41,10.41,0,0,0,6.63-2.83,7.88,7.88,0,0,0,.66.6,8,8,0,0,0,4,1.78,7.83,7.83,0,0,0,.82.05,5.1,5.1,0,0,0,3.48-1.29,7,7,0,0,0,1.67,2.35A6.31,6.31,0,0,0,80.94,57a7.51,7.51,0,0,0,2-.28,9.46,9.46,0,0,0,4.4-3,2.39,2.39,0,0,0,.22.23,8.29,8.29,0,0,0,5.83,2.33,8.19,8.19,0,0,0,.87,0c2.68-.23,5.66-2.19,9.66-6.37a69.73,69.73,0,0,0,10-14.08,4.69,4.69,0,0,0,.68-2.4,4.21,4.21,0,0,0-3.57-4.24,1.46,1.46,0,0,1,0-.2,8.07,8.07,0,0,0-1.92-3.06v0c.17-.31.45-.79.92-1.48a7,7,0,0,0,2.38,1.84,11.22,11.22,0,0,0,3.79,1.2,9.2,9.2,0,0,0,1.12.07,4.33,4.33,0,0,0,4.12-2.32,3.82,3.82,0,0,0,.39-2.2,27.2,27.2,0,0,1,1.44-4.93,47,47,0,0,1,3.14-7.38,3.81,3.81,0,0,0,.23-.45C126.82,9.85,128.22,6.22,123.61,4.17Z"/></clipPath></defs><g class="cls-2"><g id="Layer_2" data-name="Layer 2"><g id="Stickers"><path class="cls-4" d="M123.61,4.17a12.34,12.34,0,0,0-3.72-1,8.91,8.91,0,0,0-1-.06,7.52,7.52,0,0,0-1.38.13c-.2,0-.4-.09-.61-.12a10.13,10.13,0,0,0-1.88-.2,4.33,4.33,0,0,0-3,1c-1.89,1.64-4,3.64-6.25,5.94a7.43,7.43,0,0,0-3.54-5.31,11.7,11.7,0,0,0-6.43-1.86l-.59,0c-.23,0-.7,0-1.37,0l-1.26.11-.64,0a5.37,5.37,0,0,0-4.72,2.3q-1.43,2.05-2.64,3.87a7.57,7.57,0,0,0-3.37-4.46,11.71,11.71,0,0,0-6.44-1.86l-.58,0c-.23,0-.7,0-1.37,0l-1.26.11-.64,0a5.37,5.37,0,0,0-4.72,2.3c-.88,1.26-1.69,2.45-2.45,3.59a9.13,9.13,0,0,0-1.07-2.91C61.14,3.19,59.1,2.79,58,2.79c-2.55,0-4.55,0-6.1.13a5.79,5.79,0,0,0-.72,0,5.3,5.3,0,0,0-4.64,2.3c-.44.63-.86,1.24-1.26,1.84-1-2.48-3.78-3.3-4.92-3.62a11.39,11.39,0,0,0-3.22-.54A5.48,5.48,0,0,0,32.4,5.22c-1,1.46-1.95,2.83-2.8,4.12a9.71,9.71,0,0,0-2.47-3.55,10.56,10.56,0,0,0-7.61-2.73,16.84,16.84,0,0,0-4.46.6,11.25,11.25,0,0,0-4.72,2.7,8.08,8.08,0,0,0-2.58,5.76,3.61,3.61,0,0,0-1.13.52,8.83,8.83,0,0,0-3.58,4.95c-.3,1-1.08,3.67.47,5.81a10.37,10.37,0,0,0,4.93,3.84q.5.18,1,.33c-.37.26-.73.53-1.06.81C5.68,30.7,5.11,33,5.11,34.56c0,3.19,1.43,6.14,4.24,8.76l0,0H9.29A6.51,6.51,0,0,0,6,44.64a8,8,0,0,0-3.21,5.59s0,.07,0,.1a5.09,5.09,0,0,0,1.08,4.06,4.18,4.18,0,0,0,3.13,1.4,3.27,3.27,0,0,0,.54,0l.24,0,.92-.14,2.06-.29c1.45-.21,2.6-.4,3.43-.54a125.74,125.74,0,0,1,13.33,4.39c10.2,3.75,12.88,4.44,14.17,4.58a6.54,6.54,0,0,0,.89.06c2.23,0,4.53-1,6.83-3,2.16-1.83,3.37-3.48,3.81-5.16a4.33,4.33,0,0,0-.69-3.85,3.65,3.65,0,0,0-.67-.69l.37-.36.13.18A10.35,10.35,0,0,0,56,53.73a6.53,6.53,0,0,0,1.68.66l.22,0a6.69,6.69,0,0,0,1.34.13,10.41,10.41,0,0,0,6.63-2.83,7.88,7.88,0,0,0,.66.6,8,8,0,0,0,4,1.78,7.83,7.83,0,0,0,.82.05,5.1,5.1,0,0,0,3.48-1.29,7,7,0,0,0,1.67,2.35A6.31,6.31,0,0,0,80.94,57a7.51,7.51,0,0,0,2-.28,9.46,9.46,0,0,0,4.4-3,2.39,2.39,0,0,0,.22.23,8.29,8.29,0,0,0,5.83,2.33,8.19,8.19,0,0,0,.87,0c2.68-.23,5.66-2.19,9.66-6.37a69.73,69.73,0,0,0,10-14.08,4.69,4.69,0,0,0,.68-2.4,4.21,4.21,0,0,0-3.57-4.24,1.46,1.46,0,0,1,0-.2,8.07,8.07,0,0,0-1.92-3.06v0c.17-.31.45-.79.92-1.48a7,7,0,0,0,2.38,1.84,11.22,11.22,0,0,0,3.79,1.2,9.2,9.2,0,0,0,1.12.07,4.33,4.33,0,0,0,4.12-2.32,3.82,3.82,0,0,0,.39-2.2,27.2,27.2,0,0,1,1.44-4.93,47,47,0,0,1,3.14-7.38,3.81,3.81,0,0,0,.23-.45C126.82,9.85,128.22,6.22,123.61,4.17Z" transform="translate(12.34 45.73)"/><g class="cls-5"><polygon class="cls-6" points="147.88 29.59 0 87.94 0 58.34 147.88 0 147.88 29.59"/><polygon class="cls-4" points="147.88 59.16 0 117.5 0 87.91 147.88 29.57 147.88 59.16"/><polygon class="cls-7" points="147.88 88.72 0 147.07 0 117.47 147.88 59.13 147.88 88.72"/></g><path d="M8.51,16.1a6.37,6.37,0,0,0,2,2.32,5,5,0,0,0,2.78,1,2.38,2.38,0,0,0,2-.55c.36-.41.22-.86-.41-1.36a16.46,16.46,0,0,1-1.5-1.32,6.44,6.44,0,0,1-1.1-1.64,5,5,0,0,1-.54-2.23A4.16,4.16,0,0,1,13,9.18a7.31,7.31,0,0,1,3.1-1.78A12.83,12.83,0,0,1,19.52,7a6.76,6.76,0,0,1,4.91,1.64,4.59,4.59,0,0,1,1.73,3.14A4,4,0,0,1,25,14.23a3.21,3.21,0,0,1-2.32,1.37,3.31,3.31,0,0,1-1.42-.41,9.92,9.92,0,0,1-1.36-.82c-.36-.28-.55-.46-.55-.55v0A10.47,10.47,0,0,0,21,12.18a2.9,2.9,0,0,0,.87-1.5c0-.23-.32-.36-1-.36a3.84,3.84,0,0,0-2.59,1.09,2.31,2.31,0,0,0-1,2.14,3.52,3.52,0,0,0,1.23,1.5,19.82,19.82,0,0,1,2,1.82,3.31,3.31,0,0,1,1,2.32A4.2,4.2,0,0,1,19,22.88a10.71,10.71,0,0,1-5.37,1.45,10.44,10.44,0,0,1-3.77-.73,6.49,6.49,0,0,1-3.14-2.45c-.32-.41-.28-1.23.09-2.46a5,5,0,0,1,2-2.82Z" transform="translate(12.34 45.73)"/><path d="M41.67,9a56.82,56.82,0,0,0-5.19,7.37,45.19,45.19,0,0,0-3.55,6.42c-.09.27-.36.41-.82.46a4.47,4.47,0,0,1-1.5-.14A7.94,7.94,0,0,1,29,22.51a3.52,3.52,0,0,1-1.23-1,1,1,0,0,1-.18-1A97.08,97.08,0,0,1,35.62,7.4c.5-.77,1.72-.86,3.68-.27,1.46.41,2.28.87,2.41,1.37a.25.25,0,0,1,0,.31Z" transform="translate(12.34 45.73)"/><path d="M54.11,11.32c-.22-.05-.5.09-.82.41l-.54.86a1.11,1.11,0,0,0-.18.41c0,.05.13.05.36.05h1.55c.59,0,1.09.68,1.5,2s.41,2.09,0,2.32a.36.36,0,0,1-.32,0,25.86,25.86,0,0,0-5.46-.14.68.68,0,0,0-.64.46l-.41.77c-.13.32,0,.46.32.46a33.48,33.48,0,0,1,4.92.09c.41,0,.82.45,1.22,1.18a5,5,0,0,1,.69,2c0,.64-.14,1.05-.55,1.18a60.57,60.57,0,0,0-9.56-.27,4.33,4.33,0,0,1-3-.64c-1.28-.63-1.73-1.32-1.41-2.05a97.44,97.44,0,0,1,8-13.1c.32-.5,1-.68,2.05-.55,1.5-.09,3.55-.13,6.19-.13.41,0,.82.36,1.23,1.09a5,5,0,0,1,.68,2.09c0,.68-.14,1.09-.55,1.28Z" transform="translate(12.34 45.73)"/><path d="M80.79,11.41a5,5,0,0,1-1.73,2.91,15.76,15.76,0,0,1-4.64,2.59c-.32.14-.36.37-.09.64a15.9,15.9,0,0,0,3,2.64c.23.59-.27,1.32-1.45,2.19a3.52,3.52,0,0,1-3.19.82A27.25,27.25,0,0,1,68.55,19s-.09-.09-.13-.09-.1.05-.14.09l-.14.14-.09.14a34.42,34.42,0,0,0-1.77,3.5c-.19.59-1,.68-2.32.27s-2.33-1-2.64-1.77a.78.78,0,0,1,0-.78,97.44,97.44,0,0,1,8.05-13.1c.32-.5,1-.68,2.19-.55.36,0,.86-.09,1.5-.13s1,0,1.18,0a7.9,7.9,0,0,1,4.82,1.23,3.37,3.37,0,0,1,1.78,3.55Zm-6.91-.87a.91.91,0,0,0-.41.05l-2.82,4.23c-.05.14-.05.23,0,.23s.13-.05.27-.09a11.13,11.13,0,0,0,3-1.82,2.94,2.94,0,0,0,1.22-1.87.58.58,0,0,0-.31-.54A1.55,1.55,0,0,0,74,10.5Z" transform="translate(12.34 45.73)"/><path d="M101.82,11.41a5,5,0,0,1-1.73,2.91,15.9,15.9,0,0,1-4.64,2.59c-.32.14-.37.37-.09.64a15.9,15.9,0,0,0,3,2.64c.23.59-.27,1.32-1.46,2.19a3.5,3.5,0,0,1-3.18.82c-.55-.28-1.91-1.69-4.14-4.24,0,0-.1-.09-.14-.09s-.09.05-.14.09l-.13.14-.09.14a33.17,33.17,0,0,0-1.78,3.5c-.18.59-1,.68-2.32.27s-2.32-1-2.64-1.77a.78.78,0,0,1,0-.78A97.75,97.75,0,0,1,90.4,7.36c.31-.5,1-.68,2.18-.55.36,0,.86-.09,1.5-.13s1,0,1.18,0a7.93,7.93,0,0,1,4.83,1.23,3.38,3.38,0,0,1,1.77,3.55Zm-6.92-.87a.93.93,0,0,0-.41.05l-2.82,4.23c0,.14,0,.23,0,.23a2.66,2.66,0,0,0,.27-.09,11.13,11.13,0,0,0,3-1.82c.82-.73,1.23-1.37,1.23-1.87a.57.57,0,0,0-.32-.54A1.55,1.55,0,0,0,95,10.5Z" transform="translate(12.34 45.73)"/><path d="M113.2,19.1c.09-.32,0-.46-.32-.46h-2.59a1.57,1.57,0,0,0-1.37.69,37.67,37.67,0,0,0-3.32,4.91,4.84,4.84,0,0,1-2.32-1.91c-.77-1-1-1.82-.68-2.37a30.51,30.51,0,0,1,5.14-6.55q3.75-3.88,6.83-6.55c0-.05.18-.05.45-.05a7.37,7.37,0,0,1,1.19.14,5.55,5.55,0,0,1,1.45.45v0l0-.05A2.43,2.43,0,0,1,119.48,7a8.53,8.53,0,0,1,2.55.68c.82.37,1.18.69,1,1a48.7,48.7,0,0,0-3.46,8.06c-1.28,3.59-1.82,5.82-1.64,6.69-.09.18-.55.23-1.32.13a7.71,7.71,0,0,1-2.5-.81c-.91-.46-1.32-.91-1.28-1.42.28-1.41.46-2.23.5-2.41ZM116,10.86l-.41.37-3.14,3.59q-.21.27,0,.27h.14l1.68-.13a.59.59,0,0,0,.45-.41c.19-.55.6-1.64,1.28-3.32C116.07,11,116.07,10.82,116,10.86Z" transform="translate(12.34 45.73)"/><path class="cls-8" d="M35.26,19.86a7.75,7.75,0,0,1,3.23-2.32A7.67,7.67,0,0,1,42.17,17a9.83,9.83,0,0,1,3.28,1,4.56,4.56,0,0,1,2.19,2.23,4.75,4.75,0,0,1,.22,3.28,21.8,21.8,0,0,1-4,7.1,39.85,39.85,0,0,1-8,7.6,29,29,0,0,1-10,4.91,22.39,22.39,0,0,1-5.37,5,3.55,3.55,0,0,0-.68.46c-.13.13-.13.22,0,.31a.89.89,0,0,0,.27.19,2.43,2.43,0,0,0,.5.13c2.82.5,6.55,1.28,11.19,2.28s8.2,1.68,10.65,2.09a34.23,34.23,0,0,0,6.28.55c.55-.14.78,0,.64.54a7.56,7.56,0,0,1-2.59,3.23c-1.78,1.55-3.37,2.23-4.74,2s-5.73-1.59-13.28-4.37-12.43-4.32-14.61-4.68c-.82.13-2.19.36-4,.63s-2.91.41-3.14.46-.5-.32-.41-1.14a4.18,4.18,0,0,1,1.68-3,2.61,2.61,0,0,1,1.37-.55h0a49.59,49.59,0,0,1,6.33.68,25.34,25.34,0,0,0,3.27-3.82A14.37,14.37,0,0,1,12,40.48c-2-1.87-3-3.83-3-5.92a4.5,4.5,0,0,1,1.91-3.23,12.62,12.62,0,0,1,5.19-2.46,19.61,19.61,0,0,1,8.69-.32c1.64.32,2.37.73,2.23,1.28A.17.17,0,0,1,27,30h-.14a29.67,29.67,0,0,0-6,.55,14.16,14.16,0,0,0-4,1.37,8.07,8.07,0,0,0-2.32,1.91,6.43,6.43,0,0,0-1.18,1.91A5.13,5.13,0,0,0,13,37.29,3.4,3.4,0,0,0,14.42,40a7.54,7.54,0,0,0,3.82,1.5c1.09,0,2.09,0,3.05-.13,1.41-2,3.82-5.69,7.19-11.2a98.69,98.69,0,0,1,6.87-10.37ZM33,33.29c-1.41,2.23-2.73,4.18-4,5.87a26.11,26.11,0,0,0,7.19-5.51A30.09,30.09,0,0,0,41,27.05a19.68,19.68,0,0,0,2-5.87,2,2,0,0,0-.14-1.36c-.18-.28-.5-.37-1-.28s-1,.78-1.91,2.05-2.09,3.32-3.73,6.14-2.69,4.65-3.19,5.42Z" transform="translate(12.34 45.73)"/><path class="cls-8" d="M50.92,26.92h.23a6,6,0,0,1,2.05.36,4.67,4.67,0,0,1,2.09,1.27,4.53,4.53,0,0,1,1.05,1.55,2.12,2.12,0,0,1,.13,1,15.2,15.2,0,0,1-3.37,5.78q-2.58,3-4.27,3.41a4.24,4.24,0,0,1-2.64-.14c-.59-.27-1-.09-1.37.59-1.5,3.14-2.27,5.46-2.27,7,0,1,.45,1.59,1.32,1.64a5.53,5.53,0,0,0,3.27-1.23,20.23,20.23,0,0,0,3.69-3.51c1.23-1.45,2.32-2.86,3.28-4.18s2-2.73,3-4.24,1.64-2.41,1.87-2.73.36-.41.55-.41.31.14.31.41a.71.71,0,0,1-.13.41,66.15,66.15,0,0,1-9.51,13.38c-3.19,3.32-5.6,5-7.19,5.19a4.46,4.46,0,0,1-3.69-1.23,4.94,4.94,0,0,1-1.55-3.55,18.73,18.73,0,0,1,2.14-8.42A35,35,0,0,1,45.14,31c2-2.27,3.69-3.55,5-3.78l.5-.13.05-.05Zm2.64,2.91c-.59,0-1.55.73-2.87,2.23a44.59,44.59,0,0,0-4,5.32.64.64,0,0,0-.13.55.38.38,0,0,0,.32.32c.68,0,1.77-.73,3.27-2.32a19,19,0,0,0,3.51-5.15c.31-.68.27-1-.09-1Z" transform="translate(12.34 45.73)"/><path class="cls-8" d="M67,27.14a5,5,0,0,1,2.64.69,3.38,3.38,0,0,1,3.78,2.91c0,2.23-.86,5-2.59,8.33a34.35,34.35,0,0,1-6.15,8.51c-2.36,2.36-4.37,3.36-6,3a2.89,2.89,0,0,1-.86-.36,6.51,6.51,0,0,1-2.46-1.87A4.3,4.3,0,0,1,54.2,45.8a15.75,15.75,0,0,1,2-7.42,36.15,36.15,0,0,1,5-7.6c1.87-2.14,3.41-3.32,4.64-3.55a5.77,5.77,0,0,1,1-.18ZM58.57,46.89c0,.69.22,1,.63,1,.73,0,2-1.14,3.64-3.41a49.91,49.91,0,0,0,4.64-7.69c1.42-2.87,2.14-5,2.14-6.33,0-.41-.18-.64-.59-.64-.59,0-1.73,1.19-3.41,3.51A62.29,62.29,0,0,0,60.89,41c-1.46,2.78-2.19,4.74-2.19,5.83Z" transform="translate(12.34 45.73)"/><path class="cls-8" d="M72.45,49.76c-.23.41-.68.59-1.41.5a4.22,4.22,0,0,1-2.1-.95c-.68-.55-1-1.05-.81-1.51q1.7-4.42,7.14-15.15c1.27-2.37,2.23-4,2.82-4.92a2.25,2.25,0,0,1,2.5,0,4.84,4.84,0,0,1,1,.73,1.78,1.78,0,0,1,.5.69.69.69,0,0,1,0,.45c-1.27,2-2.64,4.41-4.09,7.14-.14.37-.09.55.09.6a.8.8,0,0,0,.32-.19c4.82-6.46,8.55-9.69,11.24-9.69a4.13,4.13,0,0,1,2.45.68c.64.46.82.91.59,1.41-.54.78-1.22,1.82-2.09,3.14s-2.18,3.69-4,7.1a53.2,53.2,0,0,0-3.82,9c-.09.32-.09.55,0,.69s.4,0,.81-.23a21.17,21.17,0,0,0,3.33-3.91c1.45-2,3.09-4.37,4.87-7.1s2.77-4.28,3-4.6.36-.41.55-.41a.24.24,0,0,1,.27.27,1.21,1.21,0,0,1-.14.55c-3.46,6-6.28,10.65-8.46,13.74S83.23,52.63,82,53a2.74,2.74,0,0,1-2.78-.55,3.62,3.62,0,0,1-1.09-2.78c0-1.5.78-4,2.28-7.32a82.56,82.56,0,0,1,4.64-9c.86-1.51,1.14-2.19.82-2.1a2.73,2.73,0,0,0-.78.59,66.31,66.31,0,0,0-7,8.51,59.88,59.88,0,0,0-5.6,9.15,1.05,1.05,0,0,1-.09.32Z" transform="translate(12.34 45.73)"/><path class="cls-8" d="M101.91,26.92h.23a6,6,0,0,1,2,.36,4.65,4.65,0,0,1,2.1,1.27,4.48,4.48,0,0,1,1,1.55,2,2,0,0,1,.14,1,15.2,15.2,0,0,1-3.37,5.78c-1.73,2-3.14,3.14-4.27,3.41a4.24,4.24,0,0,1-2.64-.14c-.6-.27-1.05-.09-1.37.59-1.5,3.14-2.27,5.46-2.27,7,0,1,.45,1.59,1.32,1.64a5.53,5.53,0,0,0,3.27-1.23,20.23,20.23,0,0,0,3.69-3.51c1.23-1.45,2.32-2.86,3.27-4.18s2-2.73,3-4.24,1.64-2.41,1.87-2.73.36-.41.54-.41.32.14.32.41a.71.71,0,0,1-.13.41,66.15,66.15,0,0,1-9.51,13.38c-3.19,3.32-5.6,5-7.19,5.19a4.46,4.46,0,0,1-3.69-1.23,4.94,4.94,0,0,1-1.55-3.55,18.73,18.73,0,0,1,2.14-8.42A35,35,0,0,1,96.13,31c2-2.27,3.69-3.55,5.05-3.78l.5-.13,0-.05Zm2.64,2.91c-.59,0-1.55.73-2.87,2.23a44.59,44.59,0,0,0-4,5.32.64.64,0,0,0-.13.55.38.38,0,0,0,.31.32c.69,0,1.78-.73,3.28-2.32a19,19,0,0,0,3.51-5.15c.31-.68.27-1-.1-1Z" transform="translate(12.34 45.73)"/></g></g></g></svg>
