<svg width="47" height="53" viewBox="0 0 47 53" fill="none" xmlns="http://www.w3.org/2000/svg">
<g clip-path="url(#clip0_282_604)">
<path d="M24.9501 5.91197L25.3118 4.25617C25.3118 4.25617 25.5971 -0.848811 32.3783 0.338275C36.1739 1.00569 35.5982 0.873227 35.5982 0.873227C35.5982 0.873227 44.0454 2.50865 42.5016 7.3487C42.2265 8.21482 41.9106 8.96375 41.6406 9.54455C41.2432 10.3852 42.2418 11.8219 42.6647 12.6473C43.6531 14.6037 45.2273 18.3229 44.6669 21.2829C44.5243 22.0319 45.0659 22.7636 45.3003 23.4871L45.8735 27.3718C45.8735 27.3718 47.0105 29.6741 44.6007 32.0839C43.9384 32.7462 41.931 32.9296 40.9324 32.6953C39.6282 32.3896 39.7403 34.5651 39.7708 35.905C39.8676 39.7515 37.1572 44.2095 27.7624 42.304C26.1626 41.8455 23.3503 41.8455 22.9376 43.4605C22.6422 44.6171 22.2346 46.3085 22.0868 47.6892C21.4856 53.3088 16.0495 54.3226 8.55507 50.797C5.82426 49.5132 3.19025 48.5859 4.72379 42.9307C4.94286 42.1257 5.09061 41.3055 4.67284 40.5871C3.56217 38.6714 1.50898 34.7026 1.50898 31.0904C1.50898 26.9025 -0.895764 22.8114 1.32047 20.5748C2.08469 19.8004 3.21573 19.4998 4.29073 19.6781C5.66123 19.566 6.3694 18.9444 6.42544 17.5739C6.55791 14.1248 6.7617 11.0832 9.77272 9.18792C11.2961 8.2301 13.1302 7.89384 14.9185 8.11801L19.5802 8.69882C20.054 8.75996 20.5125 8.89242 20.9609 9.07074C23.0548 9.891 24.0279 8.75996 24.675 7.35889L24.9603 5.92216L24.9501 5.91197Z" fill="white"/>
<path d="M8.57526 28.2373C8.57526 28.2373 8.59055 28.273 8.59564 28.2934L9.20702 28.594L9.74706 28.1558L10.119 22.4598C10.119 22.4598 10.119 22.4242 10.119 22.4089L9.94067 15.5004C9.94067 15.4647 10.0222 15.0011 10.0222 14.7158L10.1037 14.0942C10.1241 13.9159 10.1954 13.7529 10.3126 13.6153L10.5724 13.3096C11.0259 12.9326 11.5048 12.9173 11.9429 13.3147L12.2996 14.1604C12.6613 14.4916 12.9007 18.975 12.9058 19.4641V21.1307L13.3185 17.1307L13.4357 14.1859C13.4357 14.028 13.5121 13.1466 13.4815 12.8409L13.7414 12.3059C13.9299 11.9646 14.312 11.7812 14.6941 11.8474L14.8826 11.878C15.2291 11.9391 15.5093 12.1888 15.6061 12.5301L15.8353 13.5592C15.8659 14.4406 15.978 15.6838 15.978 15.7653L16.0544 19.2858L16.3091 23.2037L16.5588 20.2232L16.7932 15.8672L16.9358 13.4675L17.486 12.2703L18.7088 11.934L19.3304 12.8918L19.3558 17.3447L19.4577 22.7706L20.2882 15.8978L20.334 14.5069L21.0524 13.5949L22.107 13.7376L22.5859 15.322L22.6878 16.3461L23.396 28.0539C23.4469 30.0001 23.4419 30.0715 23.4317 30.1479V33.8874C23.4215 33.9435 22.6114 37.1532 22.5859 37.2093L20.7221 41.1195C20.7018 41.1755 20.5266 41.494 20.2082 42.29L19.6972 43.6115L18.7088 46.7957C18.7088 46.7957 18.3904 48.4515 17.9155 49.4068L16.7932 49.0247C16.7014 49.417 16.4518 48.9941 16.0544 49.0247C11.6388 47.8784 11.1328 47.9777 9.86424 47.1778C9.49232 46.9435 8.20844 46.7416 8.37657 46.334L9.49742 43.2007C9.5178 43.1498 9.53308 43.0988 9.54327 43.0428L9.86424 41.5093C9.9101 41.2953 9.87443 41.0711 9.76744 40.8826L8.51413 38.6256C8.47846 38.5594 8.43261 38.4982 8.37657 38.4422L7.20477 37.2093C7.13853 37.1379 7.08249 37.0564 7.04173 36.9698L5.58462 33.8874C5.53368 33.7805 5.5082 33.6684 5.49801 33.5512L5.44197 32.5832L5.28913 29.3837L5.2178 28.2679L3.82692 24.6098L3.20536 23.3769L2.84363 22.5515C2.84363 22.5515 3.38368 22.0472 3.8524 22.0828C4.32112 22.1185 5.11081 22.3681 5.11081 22.3681L6.45583 24.1411L8.58036 28.2322L8.57526 28.2373Z" fill="#D8A15B"/>
<path d="M16.3466 15.7757C16.3517 15.6944 16.3171 14.4467 16.3415 13.5651L16.1767 12.5237C16.1013 12.177 15.8372 11.9104 15.4952 11.8278L15.3089 11.7856C14.9317 11.6957 15.0413 10.9362 14.0368 11.7369C13.3377 11.7443 13.059 13.9628 12.9868 15.1222L13.0607 17.1534L12.8873 21.8899L13.0503 19.2763C13.0756 18.7878 13.1155 14.2982 12.7751 13.9451L12.4718 13.0788C12.0592 12.655 11.3206 12.6293 10.8446 12.9774L10.4681 13.199L10.0242 13.7736C10.0064 14.0584 9.88079 15.3369 9.87857 15.3725L9.86563 19.5927C9.75501 21.6946 9.71439 22.0188 9.71439 22.0188L9.35684 27.7546L8.79057 28.1583L8.13262 27.5762C8.12881 27.5555 7.74613 26.1932 7.74613 26.1932L7.41194 24.8634L7.05882 23.7567L5.5803 21.4344C5.5803 21.4344 5.14906 21.4075 4.50327 21.3673C3.85748 21.327 3.15607 22.0815 3.15607 22.0815L3.10282 22.9358L3.02754 24.1434L4.09817 27.8658L4.88783 31.1507L4.78033 32.8752C4.78321 32.9927 4.80166 33.1062 4.84585 33.2161L6.10837 36.3832C6.14366 36.4722 6.19452 36.557 6.25618 36.6323L7.34901 37.9358C7.40145 37.9952 7.44341 38.0591 7.47489 38.1274L8.58535 40.458C8.68041 40.6528 8.70206 40.8787 8.64298 41.0894L8.22722 42.6C8.21356 42.6553 8.19514 42.7052 8.17163 42.7548L6.81779 46.4574M16.3466 15.7757L16.2038 19.2942L16.284 22.1016M16.3466 15.7757L16.8559 12.9284L18.1702 11.9639L19.3105 12.1218L19.8712 13.1164L19.6196 17.5622L19.274 22.288L19.7031 16.0871L20.1847 13.9833L21.5462 13.9253L22.5899 14.1333L22.9693 15.7445L23.0073 16.7729L22.9857 28.5021C22.9154 30.4477 22.9059 30.5186 22.891 30.5942L22.0874 33.7396C22.0738 33.7949 22.055 33.8499 22.0261 33.9043L18.5359 41.2518C18.5121 41.3065 18.488 41.3662 18.4743 41.4215L17.949 43.543L17.2414 46.4596C17.2414 46.4596 17.2344 46.4898 17.2284 46.5047L16.2906 49.2812" stroke="#22382A" stroke-width="2.03791"/>
<path d="M38.2372 23.3158C38.2372 23.3158 38.2219 23.2801 38.2168 23.2597L37.6054 22.9591L37.0654 23.3973L36.6935 29.0933C36.6935 29.0933 36.6935 29.1289 36.6935 29.1442L36.8718 36.0527C36.8718 36.0884 36.7903 36.552 36.7903 36.8373L36.7088 37.4589C36.6884 37.6372 36.6171 37.8003 36.4999 37.9378L36.24 38.2435C35.7866 38.6205 35.3077 38.6358 34.8695 38.2384L34.5129 37.3927C34.1512 37.0615 33.9117 32.5781 33.9066 32.089V30.1103L33.4939 34.4224L33.3768 37.3672C33.3768 37.5251 33.3003 38.4065 33.3309 38.7122L33.0711 39.2472C32.8826 39.5885 32.5005 39.7719 32.1184 39.7057L31.9298 39.6751C31.5834 39.614 31.3032 39.3643 31.2064 39.023L30.9771 37.9939C30.9466 37.1125 30.8345 35.8693 30.8345 35.7878L30.758 32.2673L30.2537 31.3299L30.0193 35.6859L29.8766 38.0856L29.3264 39.2828L28.1037 39.6191L27.4821 38.6613L27.4566 34.2084L27.3547 28.7825L26.5243 35.6553L26.4784 37.0462L25.7601 37.9582L24.7054 37.8155L24.2265 36.2311L24.1246 35.207L23.4165 23.4992C23.3655 21.553 23.3706 21.4816 23.3808 21.4052L23.9871 18.2159C23.9973 18.1598 24.0125 18.1038 24.038 18.0478L27.0643 10.4973C27.0847 10.4412 27.1051 10.3801 27.1153 10.3241L27.5076 8.17406L28.0323 5.21909C28.0323 5.21909 28.0374 5.18852 28.0425 5.17323L28.3686 3.78236C28.4603 3.39006 27.5381 3.14551 28.3686 2.44243C32.2406 3.14545 36.668 3.88543 38.2372 4.52933C38.6091 4.76369 38.3289 5.85593 38.1608 6.26352L37.315 8.35238C37.2947 8.40333 37.2794 8.45428 37.2692 8.51032L36.9482 10.0439C36.9024 10.2578 36.938 10.482 37.045 10.6705L38.2983 12.9275C38.334 12.9937 38.3798 13.0549 38.4359 13.1109L39.6077 14.3439C39.6739 14.4152 39.73 14.4967 39.7707 14.5833L41.2278 17.6657C41.2788 17.7726 41.3043 17.8847 41.3144 18.0019L41.3705 18.9699L41.5233 22.1694L41.5947 23.2852L42.9855 26.9433L43.6071 28.1762L43.9688 29.0016C43.9688 29.0016 43.4288 29.5059 42.9601 29.4703C42.4913 29.4346 41.7016 29.185 41.7016 29.185L40.3566 27.412L38.2321 23.3209L38.2372 23.3158Z" fill="#AF752A"/>
<path d="M10.817 32.0329C10.817 32.0329 13.8841 33.4697 14.2713 36.6386" stroke="#223829" stroke-width="2.03791" stroke-linecap="square" stroke-linejoin="round"/>
<path d="M34.9206 19.2909C34.9206 19.2909 31.4663 18.5216 31.0842 14.3031" stroke="#223829" stroke-width="2.03791" stroke-linecap="square" stroke-linejoin="round"/>
<path d="M30.8345 35.7877C30.8345 35.8692 30.9466 37.1124 30.9771 37.9938L31.2064 39.0229C31.3032 39.3643 31.5834 39.6139 31.9298 39.675L32.1184 39.7056C32.5005 39.7719 32.4383 40.5367 33.3911 39.675C34.0884 39.6241 34.2284 37.3926 34.2284 36.231L34.0282 34.2083L33.9066 29.4702V32.0889C33.9117 32.578 34.1512 37.0614 34.5129 37.3926L34.8695 38.2383C35.3077 38.6357 36.0464 38.6153 36.4999 38.2383L36.8619 37.9938L37.2692 37.3926C37.2692 37.1073 37.315 35.8234 37.315 35.7877L37.0654 31.575C37.045 29.4702 37.0654 29.1441 37.0654 29.1441V23.3972L37.6054 22.9591L38.2983 23.4991C38.3034 23.5195 38.7701 24.8554 38.7701 24.8554L39.1864 26.1618L39.6077 27.2444L41.2278 29.4702C41.2278 29.4702 41.6599 29.4702 42.307 29.4702C42.954 29.4702 43.6071 28.6735 43.6071 28.6735V27.8176V26.6076L42.307 22.9591L41.3144 19.7296V18.0018C41.3043 17.8846 41.2788 17.7726 41.2278 17.6656L39.7707 14.5832C39.73 14.4966 39.6739 14.4151 39.6077 14.3438L38.4359 13.1108C38.3798 13.0548 38.334 12.9936 38.2983 12.9274L37.045 10.6704C36.938 10.4819 36.9024 10.2577 36.9482 10.0438L37.2692 8.51024C37.2794 8.45419 37.2947 8.40325 37.315 8.3523L38.4359 4.57261M30.8345 35.7877L30.758 32.2672L30.5033 29.4702M30.8345 35.7877L30.5033 38.6612L29.2516 39.7056L28.1037 39.619L27.4821 38.6612L27.4566 34.2083L27.5076 29.4702L27.4651 35.6858L27.1153 37.8155L25.7601 37.9581L24.7054 37.8155L24.2265 36.231L24.1246 35.2069L23.4165 23.4991C23.3655 21.5529 23.3706 21.4816 23.3808 21.4051L23.9871 18.2158C23.9973 18.1598 24.0125 18.1037 24.038 18.0477L27.0643 10.4972C27.0847 10.4412 27.1051 10.38 27.1153 10.324L27.5076 8.17398L28.0323 5.219C28.0323 5.219 28.0374 5.18843 28.0425 5.17315L28.8058 2.34364" stroke="#22382A" stroke-width="2.03791"/>
<path d="M21.7097 24.6863L24.4354 23.3922L27.2477 21.7364L29.9836 24.1105L29.2347 28.6908L27.5789 30.3466L22.0154 34.2033L15.7284 29.9033L14.8267 24.2175L16.4825 21.4052L20.6245 22.2306L21.7097 24.6863Z" fill="#F4B536"/>
<path d="M22.0714 24.4672L24.0482 22.8165L27.528 21.823L29.9123 24.1105L28.8526 28.115L27.1968 29.7708L21.6282 33.6276L15.3463 29.3276L14.4395 23.6418L16.1004 20.8295L20.2373 21.6549L22.0714 24.4672Z" stroke="#223829" stroke-width="2.03791" stroke-linecap="square"/>
</g>
<defs>
<clipPath id="clip0_282_604">
<rect width="45.8327" height="52.6801" fill="white" transform="translate(0.372803 0.15995)"/>
</clipPath>
</defs>
</svg>
