<svg width="24" height="24" viewBox="0 0 24 24" fill="none" xmlns="http://www.w3.org/2000/svg">
<g clip-path="url(#clip0_1311_3288)">
<path d="M5.63 17H7V9.63C6.99999 8.93421 7.27571 8.26677 7.76677 7.77384C8.25783 7.2809 8.92421 7.00265 9.62 7H17V5.62C16.9974 4.92421 16.7191 4.25783 16.2262 3.76677C15.7332 3.27571 15.0658 2.99999 14.37 3H5.62C4.92421 3.00265 4.25783 3.2809 3.76677 3.77384C3.27571 4.26677 2.99999 4.93421 3 5.63V14.38C3.00265 15.0758 3.2809 15.7422 3.77384 16.2332C4.26677 16.7243 4.93421 17 5.63 17V17Z" stroke="#277056" stroke-width="1.5"/>
<path d="M18.38 7H9.62C8.17301 7 7 8.17301 7 9.62V18.38C7 19.827 8.17301 21 9.62 21H18.38C19.827 21 21 19.827 21 18.38V9.62C21 8.17301 19.827 7 18.38 7Z" fill="#95D4B3" stroke="#277056" stroke-width="1.5"/>
<path d="M14 17V11" stroke="#277056" stroke-width="1.5" stroke-linecap="round"/>
<path d="M11 14H17" stroke="#277056" stroke-width="1.5" stroke-linecap="round"/>
</g>
<defs>
<clipPath id="clip0_1311_3288">
<rect width="19.5" height="19.5" fill="white" transform="translate(2.25 2.25)"/>
</clipPath>
</defs>
</svg>
