<svg xmlns="http://www.w3.org/2000/svg" fill="none" viewBox="0 0 34 52"><defs/><path fill="#52AD55" d="M10.377.009a1.12 1.12 0 00-.647 1.925l1.557 1.557-1.557 1.54a1.12 1.12 0 101.575 1.593l1.575-1.558 1.592 1.558a1.12 1.12 0 101.575-1.593l-1.557-1.54 1.557-1.557A1.12 1.12 0 1014.473.34L12.88 1.9 11.305.34a1.12 1.12 0 00-.928-.332zM3.342.184C1.506.184 0 1.679 0 3.49 0 5.304 1.506 6.8 3.342 6.8c1.837 0 3.343-1.495 3.343-3.308C6.685 1.68 5.179.184 3.343.184zm19.093 0c-1.836 0-3.342 1.495-3.342 3.307 0 1.813 1.506 3.308 3.342 3.308s3.343-1.495 3.343-3.308c0-1.812-1.507-3.307-3.343-3.307zM3.343 2.406c.617 0 1.102.475 1.102 1.085S3.96 4.576 3.342 4.576A1.082 1.082 0 012.24 3.491c0-.61.485-1.085 1.102-1.085zm19.092 0c.618 0 1.103.475 1.103 1.085s-.485 1.085-1.103 1.085a1.082 1.082 0 01-1.102-1.085c0-.61.484-1.085 1.102-1.085zm-9.485 7.21c-2.127 0-3.92 1.65-3.92 3.728V30.44a1.12 1.12 0 102.24 0V13.344c0-.822.665-1.488 1.68-1.488s1.663.666 1.663 1.488V24.91a1.12 1.12 0 00.997 1.12s4.104.46 8.155 1.768c2.025.654 4.018 1.524 5.425 2.572 1.407 1.049 2.17 2.16 2.17 3.483v4.077c0 2.653-1.095 5.038-2.905 6.773a1.12 1.12 0 00-.35.805v3.797H12.67V47.75a1.119 1.119 0 00-.35-.805c-1.147-1.1-2.846-2.812-4.235-4.655-1.39-1.844-2.398-3.842-2.398-5.25v-6.685c0-.41.553-1.458 1.243-1.925a1.121 1.121 0 00-1.26-1.855c-1.29.873-2.223 2.238-2.223 3.78v6.685c0 2.335 1.335 4.583 2.853 6.597 1.393 1.849 2.962 3.436 4.13 4.568v2.222a1.12 1.12 0 001.12 1.12h17.675a1.12 1.12 0 001.12-1.12v-4.515c2.003-2.1 3.255-4.893 3.255-7.98v-4.077c0-2.209-1.33-3.995-3.063-5.285-1.732-1.29-3.928-2.207-6.09-2.905a43.337 43.337 0 00-7.595-1.715V13.344c0-2.079-1.775-3.728-3.902-3.728z"/></svg>