<svg width="64" height="64" viewBox="0 0 64 64" fill="none" xmlns="http://www.w3.org/2000/svg">
<g clip-path="url(#clip0_2270_12403)">
<path d="M35.6251 7.95504C33.6401 7.44004 31.5601 7.16504 29.4101 7.16504C15.7651 7.16504 4.70508 18.225 4.70508 31.87C4.70508 44.85 14.7151 55.48 27.4351 56.49C28.4851 56.64 29.5401 56.725 30.6051 56.725C31.1151 56.725 31.6551 56.705 32.2551 56.66C33.1951 56.78 34.0901 56.835 34.9801 56.835C48.1601 56.835 59.2951 45.52 59.2951 32.125C59.2951 19.23 48.5201 8.31004 35.6251 7.95504Z" fill="white"/>
<path d="M34.98 52.5851C45.78 52.5851 55.045 43.1401 55.045 32.1251C55.045 21.1151 45.78 12.1851 34.98 12.1851C24.18 12.1851 15.42 21.1101 15.42 32.1251C15.42 43.1401 24.18 52.5851 34.98 52.5851Z" fill="#BFE5D1"/>
<path d="M19.7149 17.9701C19.7149 16.9951 19.6949 16.0201 20.0449 15.1001C19.5849 15.1001 18.7299 15.6151 18.4299 15.9601C18.1999 16.2251 17.8099 16.4301 17.5349 16.6651C17.2999 16.8701 17.0799 17.0851 16.8749 17.3201C16.5199 17.7201 16.1249 18.2051 15.7149 18.5401C15.2899 18.8851 15.0349 19.3351 14.6899 19.7501C14.2549 20.2651 13.7949 20.7651 13.3749 21.2951C12.1599 22.8251 11.0899 24.8301 10.7649 26.7851C10.6099 27.7201 10.3549 28.6151 10.2399 29.5601C10.1899 29.9851 10.0399 30.5451 10.1549 30.9751C10.3249 31.6051 10.5999 32.2401 10.8649 32.8401C11.2549 33.7301 11.5399 34.7851 12.1199 35.5701C12.4599 36.0351 12.6549 36.6051 12.9799 37.0851C13.2599 37.5051 13.4949 37.9451 13.7199 38.3951C14.1299 39.2201 14.7249 39.9451 15.0399 40.8201C15.2049 41.2751 15.3999 41.7501 15.4699 42.2351C15.5249 42.5951 15.7199 42.9201 15.7449 43.2801C15.7749 43.7101 15.8499 44.1601 15.9149 44.5851C15.9799 45.0201 15.9949 45.4351 16.1149 45.8651C16.3099 46.5651 16.9049 47.2301 17.2999 47.8251C17.5199 48.1501 17.8249 48.5951 18.1799 48.7651C18.4449 48.8951 18.7349 49.0101 18.9849 49.1651C19.3049 49.3601 19.7999 48.9851 20.0299 48.7501C20.4449 48.3251 20.6499 47.6051 20.8349 47.0551C21.0049 46.5601 21.2799 46.0651 21.6249 45.6701C22.1149 45.1101 22.7749 44.5651 23.3749 44.1201C23.7049 43.8751 23.9249 43.3751 24.1699 43.0451C24.5299 42.5601 24.8399 41.9701 25.0299 41.3951C25.2899 40.6201 24.9549 40.5201 24.4649 40.0501C23.9449 39.5501 23.4699 39.1351 23.0449 38.5401C22.6549 37.9901 22.1799 37.4951 21.8249 36.9251C21.5349 36.4651 21.2849 36.0351 20.8999 35.6451C20.3649 35.1101 19.6849 34.7501 19.0599 34.3351C18.0349 33.6551 17.1949 32.3801 16.4799 31.3651C15.9449 30.6101 15.5099 29.7151 15.7649 28.7751C15.9299 28.1751 16.3299 27.7701 16.6749 27.2651C17.1949 26.5001 17.7649 25.8051 18.2249 25.0051C19.0799 23.5301 20.1049 21.9201 20.1049 20.1601C20.1099 19.3701 19.7149 18.7251 19.7149 17.9701Z" fill="#26985D"/>
<path d="M31.78 13.17C31.41 12.71 30.63 12.265 30.055 12.125C29.075 12.125 28.155 11.925 27.185 11.925C26.595 11.925 25.87 11.965 25.3 12.125C24.655 12.31 23.965 12.3 23.32 12.53C22.825 12.71 22.425 13.18 22.225 13.66C22.13 13.89 22.02 14.355 22.26 14.515C22.58 14.725 22.825 15.05 23.055 15.36C23.425 15.86 23.37 16.555 23.665 17.09C23.85 17.425 23.955 17.75 24.295 17.98C24.515 18.125 24.815 18.385 25.075 18.385C26.5 18.385 27.81 17.925 29.18 17.595C30.345 17.31 32.645 17.1 32.56 15.415C32.535 14.96 32.45 14.49 32.335 14.05C32.23 13.645 32.03 13.48 31.78 13.17Z" fill="#26985D"/>
<path fill-rule="evenodd" clip-rule="evenodd" d="M28.045 42.26C27.29 42.26 26.675 42.875 26.675 43.63C26.675 44.385 27.29 45 28.045 45C28.8 45 29.415 44.39 29.415 43.63C29.415 42.87 28.8 42.26 28.045 42.26ZM25.35 45.495C24.595 45.495 23.98 46.105 23.98 46.865C23.98 47.625 24.595 48.235 25.35 48.235C26.105 48.235 26.72 47.62 26.72 46.865C26.72 46.11 26.105 45.495 25.35 45.495ZM29.12 46.57C28.365 46.57 27.75 47.185 27.75 47.94C27.75 48.695 28.365 49.31 29.12 49.31C29.875 49.31 30.49 48.7 30.49 47.94C30.49 47.18 29.875 46.57 29.12 46.57Z" fill="#26985D"/>
<path d="M30.605 52.4751C41.405 52.4751 50.67 43.0301 50.67 32.0201C50.67 21.0101 41.405 12.0801 30.605 12.0801C19.805 12.0801 11.045 21.0051 11.045 32.0201C11.045 43.0301 19.8 52.4751 30.605 52.4751Z" stroke="#26985D" stroke-width="2" stroke-miterlimit="10" stroke-linecap="round" stroke-linejoin="round"/>
<path d="M44.825 35.43C45.19 34.75 45.495 34.065 45.93 33.425C46.465 32.64 46.915 31.73 47.63 31.085C47.925 30.82 48.19 30.43 48.45 30.115C48.665 29.86 48.855 29.675 48.995 29.39C49.04 29.29 49.225 29.1 49.31 29.02C49.4 28.935 49.465 28.695 49.545 28.65C49.79 28.505 49.925 28.17 50.005 27.905C50.06 27.73 50.075 27.52 50.085 27.3C48.945 22.745 46.2 18.8 42.53 16.07C42.32 16.01 42.115 15.935 41.925 15.845C41.825 15.8 41.64 15.745 41.595 15.66C41.005 15.285 40.155 15.995 39.455 15.995C39.155 15.995 38.98 16.125 38.74 16.31C38.2 16.725 37.71 17.195 37.03 17.35C36.585 17.455 35.935 17.85 35.615 18.16C34.99 18.765 34.185 19.515 33.875 20.365C33.805 20.56 33.795 20.715 33.795 20.92C33.795 21.595 34.51 21.78 35.045 21.995C35.72 22.265 36.5 22.49 37.23 22.53C37.745 22.555 38.265 22.485 38.775 22.535C39.645 22.62 40.365 23.105 41.235 23.275C41.945 23.415 42.63 23.67 43.35 23.795C43.775 23.87 43.83 24.25 43.975 24.605C44.105 24.925 44.21 25.34 43.88 25.575C43.51 25.84 43.04 25.89 42.62 26.045C42.32 26.155 42.025 26.27 41.705 26.335C39.525 26.78 37.615 25.555 35.485 25.555C34.3 25.555 33.495 25.77 32.66 26.645C32.17 27.16 31.92 27.8 31.52 28.375C31.14 28.915 30.92 29.62 30.73 30.255C30.345 31.535 30.7 32.69 31.39 33.79C31.735 34.34 32.335 34.77 32.9 35.07C33.205 35.23 33.45 35.465 33.745 35.645C34.18 35.91 34.655 36.055 35.13 36.215C35.49 36.34 35.535 36.635 35.715 36.935C36.095 37.56 36.38 38.335 36.635 39.02C36.92 39.77 37.26 40.52 37.495 41.285C37.635 41.74 37.745 42.215 37.955 42.645C38.415 43.58 39.19 44.435 40.085 44.935C40.475 45.15 41.355 45.045 41.78 44.99C42.3 44.92 42.905 44.12 43.2 43.72C43.51 43.3 43.78 42.66 43.96 42.17C44.185 41.57 44.365 40.83 44.365 40.185C44.365 39.125 44.185 38.01 44.315 36.955C44.37 36.47 44.595 35.855 44.825 35.43Z" fill="#26985D"/>
</g>
<defs>
<clipPath id="clip0_2270_12403">
<rect width="54.59" height="49.67" fill="white" transform="translate(4.70508 7.16504)"/>
</clipPath>
</defs>
</svg>
