<svg viewBox="0 0 128 128" fill="none" xmlns="http://www.w3.org/2000/svg">
<path d="M105.08 62.5498H102.05C101.329 56.9292 98.7191 51.7786 94.7887 47.5881C93.5686 46.278 95.6788 39.2572 94.2086 38.1471C92.7384 37.0369 87.6879 41.8475 86.0077 40.9574C81.7472 38.7071 76.8567 37.247 71.6161 36.7669C71.6161 36.8969 71.6361 37.0169 71.6361 37.1469C71.6361 40.0673 70.516 42.7276 68.6957 44.7278C64.7453 43.8877 58.8246 43.2776 52.1239 44.7378L52.1139 44.7478C51.1137 43.6577 50.3437 42.3675 49.8336 40.9574C40.0625 46.0979 33.5518 55.279 33.5518 65.7602C33.5518 74.2811 37.8522 81.942 44.703 87.2826C43.3929 88.8528 42.5928 90.913 42.5928 93.1933C42.5928 98.1138 46.3232 102.094 50.9137 102.094C55.2542 102.094 58.8246 98.5339 59.2047 93.9934C61.985 94.6035 64.8953 94.9335 67.8956 94.9335C70.3659 94.9335 72.7862 94.7035 75.1265 94.2834C75.6365 98.6839 79.1369 102.094 83.3774 102.094C87.9679 102.094 91.6983 98.1138 91.6983 93.1933C91.6983 91.2531 91.1083 89.4629 90.1282 88.0027C93.4085 85.6324 96.1688 82.7521 98.2191 79.4917H105.07C106.69 79.4917 108 78.0916 108 76.3614V65.7102C108.01 63.95 106.69 62.5498 105.08 62.5498Z" fill="#BFE5D1"/>
<path d="M29.7611 56.7592C29.7611 56.7592 22.1702 51.3686 22.1702 44.8479C22.1702 38.3172 25.2006 37.4671 27.1308 37.317C28.3309 37.227 30.3912 37.8271 30.3912 40.8074C30.3912 43.7878 25.7906 44.0078 23.8604 43.0877C21.9302 42.1676 20 38.6672 20 36.437" stroke="#26985D" stroke-width="4" stroke-miterlimit="10" stroke-linecap="round" stroke-linejoin="round"/>
<path d="M86.5476 83.5222C86.5476 83.5222 81.0769 88.4828 76.5864 90.183" stroke="#26985D" stroke-width="4" stroke-miterlimit="10" stroke-linecap="round" stroke-linejoin="round"/>
<path d="M58.8043 93.9034C58.8043 93.9034 51.6635 93.9634 44.5327 90.0129" stroke="#26985D" stroke-width="4" stroke-miterlimit="10" stroke-linecap="round" stroke-linejoin="round"/>
<path d="M81.3665 60.4192C82.2665 60.4192 83.0066 59.6892 83.0066 58.7792C83.0066 57.8692 82.2765 57.1392 81.3665 57.1392C80.4565 57.1392 79.7266 57.8692 79.7266 58.7792C79.7266 59.6892 80.4565 60.4192 81.3665 60.4192Z" fill="#26985D" stroke="#26985D" stroke-width="4" stroke-miterlimit="10" stroke-linecap="round" stroke-linejoin="round"/>
<path d="M97.4287 61.5598H94.3984C93.6783 55.9391 91.068 50.7886 87.1376 46.5981C85.9174 45.2879 88.0277 38.2571 86.5575 37.147C85.0873 36.0369 80.0368 40.8474 78.3566 39.9573C76.2563 38.8472 74.0061 37.9371 71.6358 37.237C71.6158 40.1173 70.5057 42.7476 68.6955 44.7179C64.745 43.8778 58.8244 43.2677 52.1236 44.7279L52.1136 44.7379C50.2834 42.7376 49.1733 40.0773 49.1633 37.157C35.6417 41.0775 25.9106 51.9487 25.9106 64.7601C25.9106 73.2711 30.2111 80.942 37.0619 86.2826C35.7518 87.8527 34.9516 89.913 34.9516 92.1932C34.9516 97.1138 38.6821 101.094 43.2726 101.094C47.6131 101.094 51.1835 97.5338 51.5635 92.9933C54.3439 93.6034 57.2542 93.9334 60.2545 93.9334C62.7348 93.9334 65.1451 93.7034 67.4853 93.2834C67.9954 97.6838 71.4958 101.094 75.7363 101.094C80.3268 101.094 84.0572 97.1138 84.0572 92.1932C84.0572 90.253 83.4672 88.4628 82.477 87.0026C85.7574 84.6324 88.5177 81.7521 90.568 78.4917H97.4187C99.0389 78.4917 100.349 77.0915 100.349 75.3613V64.7101C100.359 62.9599 99.0489 61.5598 97.4287 61.5598Z" stroke="#26985D" stroke-width="4" stroke-miterlimit="10" stroke-linecap="round" stroke-linejoin="round"/>
<path d="M52.1238 44.7278C58.8345 43.2677 64.7452 43.8777 68.6956 44.7178C70.5258 42.7176 71.636 40.0573 71.636 37.137C71.636 30.9363 66.6054 25.9057 60.4047 25.9057C54.204 25.9057 49.1734 30.9363 49.1734 37.137C49.1634 40.0773 50.2835 42.7376 52.1238 44.7278Z" stroke="#26985D" stroke-width="4" stroke-miterlimit="10" stroke-linecap="round" stroke-linejoin="round"/>
<path d="M73.7862 46.228C73.7862 46.228 66.9054 43.2477 57.4243 43.9577C54.194 44.1978 50.6736 44.8679 47.0132 46.228" stroke="#26985D" stroke-width="4" stroke-miterlimit="10" stroke-linecap="round" stroke-linejoin="round"/>
</svg>
