<svg xmlns="http://www.w3.org/2000/svg" fill="none" viewBox="0 0 24 24"><path fill="#212121" fill-rule="evenodd" d="m18 18 3.15 3.15c.1667.1667.35.2083.55.125.2-.0833.3-.2417.3-.475V4c0-.55-.1958-1.02083-.5875-1.4125C21.0208 2.19583 20.55 2 20 2H4c-.55 0-1.02083.19583-1.4125.5875C2.19583 2.97917 2 3.45 2 4v12c0 .55.19583 1.0208.5875 1.4125C2.97917 17.8042 3.45 18 4 18h14Zm-4.7189-5.4062-.7188.6563c-.1597.1458-.3472.2187-.5625.2187-.2152 0-.4027-.0729-.5625-.2187l-.7083-.6459c-.75-.6736-1.42013-1.3437-2.01041-2.0104-.59028-.66663-.88542-1.39927-.88542-2.19788 0-.65278.21875-1.19792.65625-1.63542s.98264-.65625 1.63538-.65625c.3681 0 .7153.07812 1.0417.23437s.6042.36979.8333.64063c.2292-.27084.507-.48438.8334-.64063.3264-.15625.6736-.23437 1.0416-.23437.6528 0 1.198.21875 1.6355.65625s.6562.98264.6562 1.63542c0 .79861-.2969 1.52951-.8906 2.19268-.5938.6632-1.2587 1.3316-1.9948 2.0052Z" clip-rule="evenodd"/></svg>