<svg width="64" height="64" viewBox="0 0 64 64" fill="none" xmlns="http://www.w3.org/2000/svg">
<g clip-path="url(#clip0_2271_10475)">
<path d="M53.4574 20.28C52.1674 17.425 50.3224 16.285 48.7924 15.86C46.9474 12.155 44.1324 11.58 42.5924 11.58C38.8024 11.58 34.6224 14.885 31.2324 18.42C30.0324 15.68 28.2874 13.365 25.7474 12.435C24.1774 9.855 21.9324 8 18.7224 8C17.5124 8 16.2374 8.29 14.9374 8.86C12.9624 9.725 11.5224 11.3 10.6624 13.535C6.66743 23.9 16.9574 47.38 18.1474 50.025C18.4474 50.695 19.0274 51.2 19.7324 51.4C19.9624 51.465 20.1924 51.5 20.4274 51.5C20.7274 51.5 21.0274 51.44 21.3124 51.33C22.0674 53.205 22.5874 54.385 22.6424 54.51C22.9424 55.185 23.5224 55.695 24.2324 55.9C24.4624 55.965 24.6924 56 24.9274 56C25.4174 56 25.9024 55.855 26.3174 55.575C26.6424 55.355 34.3924 50.14 41.6474 43.44C52.2224 33.67 56.0874 26.095 53.4574 20.28Z" fill="white"/>
<path d="M31.3576 32.025C31.3576 32.025 46.1126 10.12 51.1776 21.315C56.2426 32.51 24.9276 53.5 24.9276 53.5C24.9276 53.5 9.99257 19.8 20.4426 15.155C30.8926 10.51 31.3576 32.025 31.3576 32.025Z" fill="#C0E3D0"/>
<path d="M26.8576 27.8C26.8576 27.8 41.6126 6.17496 46.6776 17.225C51.7426 28.275 20.4276 49 20.4276 49C20.4276 49 5.49257 15.735 15.9426 11.15C26.3926 6.56496 26.8576 27.8 26.8576 27.8Z" stroke="#24985D" stroke-width="2.75" stroke-linecap="round" stroke-linejoin="round"/>
</g>
<defs>
<clipPath id="clip0_2271_10475">
<rect width="44.505" height="48" fill="white" transform="translate(9.74756 8)"/>
</clipPath>
</defs>
</svg>
