<svg viewBox="0 0 129 128" fill="none" xmlns="http://www.w3.org/2000/svg">
<path d="M59.2031 51.0405C61.5696 43.0841 59.2031 21.6019 54.6333 20.082C52.0934 19.2354 50.2675 24.7539 51.0835 45.4608C48.207 38.1879 41.6481 24.0398 38.3941 25.6617C35.1504 27.2836 38.3941 40.5544 40.424 46.9807" stroke="#26985D" stroke-width="4"/>
<path d="M40.3423 72.5533L40.4341 73.5937L40.6075 73.5733C40.5157 73.2469 40.4239 72.9103 40.3423 72.5635C40.3423 72.5635 40.3423 72.5635 40.3423 72.5533Z" fill="#BFE5D1"/>
<path d="M94.4152 42.1864C94.354 41.5132 93.793 41.0338 93.1708 41.095L80.614 42.3598C80.5834 42.7168 80.5222 43.1045 80.3998 43.5125C78.9309 48.6535 75.9932 50.051 73.5552 50.051C71.1071 50.051 70.1279 46.3176 70.6175 43.9817C70.6583 43.7879 70.7093 43.5737 70.7705 43.3493L70.2095 43.4105C68.608 48.2047 65.7825 49.5512 63.3956 49.5512C61.3045 49.5512 60.2538 46.8072 60.2232 44.4203L39.1694 46.542C38.5472 46.6032 38.078 47.2051 38.1392 47.8783L40.0568 69.3707C40.0466 68.4731 40.118 67.5448 40.3425 66.8002C40.8015 65.2803 40.9851 64.4847 42.2806 63.2504C44.9225 60.7309 55.6636 58.8132 60.6516 63.2504C63.5078 65.8006 53.0625 70.8804 53.0625 70.8804C53.0625 70.8804 52.634 70.758 53.7153 72.4003L77.6762 70.2377L77.9822 72.6349L95.8331 70.8396C96.4553 70.7784 96.9245 70.1765 96.8633 69.5033L94.4152 42.1864Z" fill="#BFE5D1"/>
<path d="M54.8373 73.9814C52.379 70.6765 53.0624 70.8703 53.0624 70.8703C53.0624 70.8703 63.5077 65.7905 60.6516 63.2403C55.6635 58.8031 44.9224 60.7208 42.2805 63.2403C40.985 64.4746 40.8014 65.2804 40.3424 66.7901C39.6896 68.9424 40.3424 72.5636 40.3424 72.5636C41.6175 78.0208 44.9224 80.9586 47.2583 85.7222C48.7068 88.6803 50.8387 90.4042 50.8387 90.4042H61.9368C61.9368 90.4042 69.7096 89.4658 72.8207 84.5083C73.7184 83.0803 74.055 82.203 74.7588 80.6832C76.1461 77.6638 77.7068 72.7472 77.7068 72.7472" stroke="#26985D" stroke-width="4" stroke-linecap="round"/>
<path fill-rule="evenodd" clip-rule="evenodd" d="M42.8414 89.5881C42.7088 89.7309 42.617 89.9145 42.5864 90.1287C41.9438 93.1889 41.2297 96.249 40.5157 99.2786C39.9751 101.594 39.4345 103.879 38.9346 106.144C38.7204 106.98 39.3936 108 40.7605 108H70.3317H74.4221C75.5544 108 76.4622 107.327 76.4622 106.49C76.4622 102.951 76.4622 99.401 76.248 95.8614C76.248 93.6683 76.0236 91.4752 75.5748 89.1087C75.1157 86.9156 73.5347 85.4059 70.3419 85.4059C68.2202 85.4059 65.9251 86.0078 63.885 86.7116C63.7932 86.6708 63.7116 86.6402 63.6198 86.5994C62.2733 86.0588 60.9779 85.5283 59.4172 85.3957C57.9585 85.2937 56.6019 85.6609 55.4594 86.2934C52.9603 84.9571 49.1351 84.6307 46.4524 85.5589C44.4225 86.3138 43.1168 87.854 42.8414 89.5881Z" fill="#26985D"/>
<path d="M80.3993 43.5227C81.5724 39.4119 78.2776 38.0756 76.4823 37.9124C72.5653 37.4432 71.1067 41.6458 70.617 43.9817C70.1274 46.3176 71.1067 50.051 73.5548 50.051C75.9927 50.0612 78.9304 48.6637 80.3993 43.5227Z" stroke="#26985D" stroke-width="4"/>
<path d="M70.4948 42.4517C71.7087 37.9839 68.2915 36.5252 66.435 36.362C62.3752 35.852 60.8554 40.4218 60.3453 42.9617C59.8353 45.5016 60.8554 49.5614 63.3953 49.5614C65.925 49.5512 68.9749 48.0313 70.4948 42.4517Z" stroke="#26985D" stroke-width="4"/>
<path d="M87.0502 41.6254C87.0298 41.4928 86.9278 41.3908 86.7952 41.401L80.6443 42.013C80.6341 42.472 80.5627 42.9617 80.3995 43.5125C78.9306 48.6535 75.9929 50.051 73.555 50.051C71.1069 50.051 70.1276 46.3176 70.6173 43.9817C70.6785 43.6757 70.7601 43.3391 70.8621 42.9922L70.3112 43.0433C68.7404 48.1231 65.8332 49.541 63.3851 49.541C61.192 49.541 60.1414 46.5114 60.223 44.0531L32.6715 46.8174C32.5491 46.8378 32.4471 46.95 32.4675 47.0826L34.8952 74.2567C34.9156 74.3893 35.0176 74.4913 35.1502 74.4811L40.7196 73.9201C40.5768 73.4815 40.4544 73.0327 40.3422 72.5634C40.3422 72.5634 39.6894 68.9423 40.3422 66.79C40.8012 65.2701 40.9849 64.4745 42.2803 63.2402C44.9222 60.7207 55.6633 58.803 60.6514 63.2402C63.5075 65.7903 53.0622 70.8702 53.0622 70.8702C53.0622 70.8702 52.593 70.7478 53.8579 72.6042L89.2841 69.0545C89.4066 69.0341 89.5086 68.9219 89.4882 68.7893L87.0502 41.6254Z" stroke="#26985D" stroke-width="4"/>
<path d="M60.6515 63.2402C61.5899 64.0767 61.0901 65.1783 60.0089 66.2902C61.8755 66.8614 63.9462 66.6166 65.7313 65.1273C69.3117 62.108 69.7707 56.5283 67.6694 52.6725C65.7007 49.1023 60.9881 47.1031 57.4485 50.0816C54.3884 52.6725 53.6131 57.1301 54.776 60.7819C57.0099 61.1083 59.1112 61.8734 60.6515 63.2402Z" fill="#26985D"/>
</svg>
