<svg width="24" height="24" viewBox="0 0 24 24" fill="none" xmlns="http://www.w3.org/2000/svg">
<mask id="mask0_2_833" style="mask-type:alpha" maskUnits="userSpaceOnUse" x="0" y="0" width="24" height="24">
<rect width="24" height="24" fill="#D9D9D9"/>
</mask>
<g mask="url(#mask0_2_833)">
<path d="M4.975 15C4.69167 15 4.45833 14.904 4.275 14.712C4.09167 14.5207 4 14.2833 4 14C4 13.7167 4.09567 13.479 4.287 13.287C4.479 13.0957 4.71667 13 5 13H19.025C19.3083 13 19.5417 13.0957 19.725 13.287C19.9083 13.479 20 13.7167 20 14C20 14.2833 19.904 14.5207 19.712 14.712C19.5207 14.904 19.2833 15 19 15H4.975ZM4.975 19C4.69167 19 4.45833 18.904 4.275 18.712C4.09167 18.5207 4 18.2833 4 18C4 17.7167 4.09567 17.4793 4.287 17.288C4.479 17.096 4.71667 17 5 17H19.025C19.3083 17 19.5417 17.096 19.725 17.288C19.9083 17.4793 20 17.7167 20 18C20 18.2833 19.904 18.5207 19.712 18.712C19.5207 18.904 19.2833 19 19 19H4.975ZM4.975 11C4.69167 11 4.45833 10.904 4.275 10.712C4.09167 10.5207 4 10.2833 4 10C4 9.71667 4.09567 9.479 4.287 9.287C4.479 9.09567 4.71667 9 5 9H19.025C19.3083 9 19.5417 9.09567 19.725 9.287C19.9083 9.479 20 9.71667 20 10C20 10.2833 19.904 10.5207 19.712 10.712C19.5207 10.904 19.2833 11 19 11H4.975ZM4.975 7C4.69167 7 4.45833 6.90433 4.275 6.713C4.09167 6.521 4 6.28333 4 6C4 5.71667 4.09567 5.479 4.287 5.287C4.479 5.09567 4.71667 5 5 5H19.025C19.3083 5 19.5417 5.09567 19.725 5.287C19.9083 5.479 20 5.71667 20 6C20 6.28333 19.904 6.521 19.712 6.713C19.5207 6.90433 19.2833 7 19 7H4.975Z" fill="#2B7C5F"/>
</g>
</svg>
