<?xml version="1.0" encoding="utf-8"?>
<!-- Generator: Adobe Illustrator 24.2.1, SVG Export Plug-In . SVG Version: 6.00 Build 0)  -->
<svg version="1.1" id="Layer_1" xmlns="http://www.w3.org/2000/svg" xmlns:xlink="http://www.w3.org/1999/xlink" x="0px" y="0px"
	 viewBox="0 0 1200 1200" style="enable-background:new 0 0 1200 1200;" xml:space="preserve">
<style type="text/css">
	.st0{fill:#F2F2F2;}
	.st1{fill:#4FAF4E;}
	.st2{fill:#BC9066;}
	.st3{fill:#A87E5D;}
	.st4{fill:#F3DECD;}
	.st5{fill:#E8CBAA;}
	.st6{fill:#5F5F5F;}
	.st7{fill:#E0B88E;}
	.st8{fill:#FBF7F2;}
	.st9{fill:#E4E4E3;}
	.st10{fill:#D1D1D1;}
	.st11{fill:#E9AA99;}
	.st12{fill:#BA7C6E;}
	.st13{fill:#5FBC92;}
	.st14{fill:#F0F0F0;}
	.st15{fill:#39363D;}
	.st16{fill:#4D4753;}
	.st17{fill:#5FA483;}
	.st18{fill:#FDFDFB;}
	.st19{fill:#A8A9A8;}
	.st20{fill:#D2E0E8;}
	.st21{fill:#C5CFD6;}
	.st22{fill:#E67354;}
	.st23{fill:#55A3E4;}
	.st24{fill:#56D78A;}
	.st25{fill:#AAD5EE;}
	.st26{fill:#B2D9EA;}
	.st27{fill:#C9E3E5;}
	.st28{fill:#DDEDE0;}
	.st29{fill:#EFF3DA;}
	.st30{fill:#F8F8D8;}
	.st31{fill:#FAF9D7;}
	.st32{fill:#E5CB47;}
	.st33{fill:#43150D;}
	.st34{fill:#D0C647;}
	.st35{fill:#C74529;}
	.st36{fill:#682617;}
	.st37{fill:#F3F3F3;}
	.st38{fill:#D7DEDB;}
	.st39{fill:#D7D7D7;}
	.st40{fill:#DCDBDA;}
	.st41{fill:#F3EAE7;}
	.st42{fill:#FCEEEB;}
	.st43{fill:#F6E4E4;}
	.st44{fill:#ECDCE0;}
	.st45{fill:#E2D3D8;}
	.st46{fill:#070405;}
	.st47{fill:#86593A;}
	.st48{fill:#EDB853;}
	.st49{fill:none;stroke:#714341;stroke-width:0;stroke-linecap:round;stroke-linejoin:round;}
	.st50{fill:#714341;}
	.st51{fill:#E4E1DC;}
	.st52{fill:#ECEFFF;}
	.st53{fill:#E6ECFF;}
	.st54{fill:#E3EEFF;}
	.st55{fill:#DDECFF;}
	.st56{fill:#DBEFFF;}
	.st57{fill:#DAEFFF;}
	.st58{fill:#1D2B45;}
	.st59{fill:#A5A0B1;}
	.st60{fill:#7383A7;}
	.st61{fill:#77A9B0;}
	.st62{fill:#537E87;}
	.st63{fill:#AED5DE;}
	.st64{fill:#91BFC9;}
	.st65{fill:#B2D5DF;}
	.st66{fill:#79AFB8;}
	.st67{fill:#96CCD9;}
	.st68{fill:#C18C40;}
	.st69{fill:#DDDAD9;}
	.st70{fill:#8E8E8E;}
	.st71{fill:#DEAD94;}
	.st72{fill:#D9A48C;}
	.st73{fill:#D89B87;}
	.st74{fill:#D49380;}
	.st75{fill:#D18C7D;}
	.st76{fill:#D08779;}
	.st77{fill:#354A73;}
	.st78{fill:#637492;}
	.st79{fill:#26365B;}
	.st80{fill:#192547;}
	.st81{fill:#0C1430;}
	.st82{fill:#FFFFFF;}
	.st83{fill:#737378;}
	.st84{fill:#A7A8AD;}
	.st85{fill:#8A8B8F;}
	.st86{fill:#FBDCC0;}
	.st87{fill:#CDCED4;}
	.st88{fill:#4D93C6;}
</style>
<g>
	<g>
		<rect y="1050.3" transform="matrix(-1 -1.224647e-16 1.224647e-16 -1 1200 2250.2712)" class="st4" width="1200" height="149.7"/>
		<rect y="900.2" transform="matrix(-1 -1.224647e-16 1.224647e-16 -1 1200 1950.194)" class="st4" width="1200" height="149.7"/>
		<rect y="750.2" transform="matrix(-1 -1.224647e-16 1.224647e-16 -1 1200 1650.1166)" class="st4" width="1200" height="149.7"/>
		<rect y="600.2" transform="matrix(-1 -1.224647e-16 1.224647e-16 -1 1200 1350.0392)" class="st4" width="1200" height="149.7"/>
		<rect y="450.1" transform="matrix(-1 -1.224647e-16 1.224647e-16 -1 1200 1049.9617)" class="st4" width="1200" height="149.7"/>
		<rect y="300.1" transform="matrix(-1 -1.224647e-16 1.224647e-16 -1 1200 749.8843)" class="st4" width="1200" height="149.7"/>
		<rect y="150" transform="matrix(-1 -1.224647e-16 1.224647e-16 -1 1200 449.8069)" class="st4" width="1200" height="149.7"/>
		<rect y="0" transform="matrix(-1 -1.224647e-16 1.224647e-16 -1 1200 149.7295)" class="st4" width="1200" height="149.7"/>
	</g>
	<g>
		<g>
			<rect x="640.9" y="327.3" class="st5" width="327.3" height="218.2"/>
		</g>
		<path class="st6" d="M945.6,349.7H776.3c0,0,0,0,0,0h-56.4c0,0,0,0,0,0h-56.4c-0.3,0-0.6,0.3-0.6,0.6v172.2c0,0.3,0.3,0.6,0.6,0.6
			h282.1c0.3,0,0.6-0.3,0.6-0.6V350.2C946.2,349.9,945.9,349.7,945.6,349.7z M945,453h-55.3v-33.3H945V453z M833.3,488.6h53.8
			l-53.8,32.9V488.6z M888.6,487.5h-55.3v-33.3h55.3V487.5z M664,419.7h55.3V453H664V419.7z M720.5,419.7h55.3V453h-55.3V419.7z
			 M775.8,384.1h-53.8l53.8-32.9V384.1z M720.5,385.3h55.3v33.3h-55.3V385.3z M776.9,385.3h55.3v33.3h-55.3V385.3z M776.9,419.7
			h55.3V453h-55.3V419.7z M832.2,454.2v33.3h-55.3v-33.3H832.2z M833.3,453v-33.3h55.3V453H833.3z M945,418.6h-55.3v-33.3H945V418.6
			z M888.6,418.6h-55.3v-33.3h55.3V418.6z M833.3,384.1v-33.3h55.3v33.3H833.3z M832.2,384.1h-55.3v-33.3h55.3V384.1z M720.5,383.7
			v-32.9h53.8L720.5,383.7z M719.3,384.1h-53.8l53.8-32.9V384.1z M719.3,385.3v33.3H664v-33.3H719.3z M664,454.2h55.3v33.3H664
			V454.2z M720.5,454.2h55.3v33.3h-55.3V454.2z M775.8,488.6v33.3h-55.3v-33.3H775.8z M776.9,488.6h55.3v33.3h-55.3V488.6z
			 M888.6,489.1v32.9h-53.8L888.6,489.1z M889.8,488.6h53.8l-53.8,32.9V488.6z M889.8,487.5v-33.3H945v33.3H889.8z M945,384.1h-55.3
			v-33.3H945V384.1z M717.9,350.8L664,383.7v-32.9H717.9z M664,488.6h55.3v33.3H664V488.6z M891.2,521.9l53.8-32.9v32.9H891.2z"/>
	</g>
	<g>
		<polygon class="st7" points="146.6,818.2 146.6,1200 194.3,1200 194.3,1044.9 194.3,913.6 194.3,865.9 242,865.9 958,865.9 
			958,913.6 958,1044.9 958,1200 1005.7,1200 1005.7,818.2 		"/>
		<rect x="242" y="1044.9" class="st4" width="715.9" height="155.1"/>
		<rect x="242" y="865.9" class="st4" width="715.9" height="47.7"/>
		<polygon class="st2" points="958,1044.9 958,913.6 242,913.6 242,865.9 194.3,865.9 194.3,913.6 194.3,1044.9 194.3,1200 
			242,1200 242,1044.9 		"/>
		<rect x="1005.7" y="818.2" class="st2" width="47.7" height="381.8"/>
	</g>
	<g>
		<polygon class="st8" points="0,0 0,46.5 450,334.9 450,190.7 150.1,0 		"/>
		<polygon class="st8" points="0,97.5 450,383.7 450,527.9 0,239.4 		"/>
		<polygon class="st8" points="0,290.5 450,576.6 450,720.8 0,432.4 		"/>
	</g>
	<g>
		<rect x="215.1" y="733.7" class="st9" width="211.1" height="31.7"/>
		<polygon class="st10" points="426.2,733.7 426.2,765.4 426.2,776 431.5,776 510.7,776 510.7,733.7 431.5,733.7 		"/>
		<polygon class="st11" points="426.2,776 215.1,776 215.1,765.4 215.1,733.7 426.2,733.7 426.2,728.4 204.5,728.4 204.5,733.7 
			204.5,776 204.5,781.2 426.2,781.2 		"/>
		<polygon class="st12" points="426.2,728.4 426.2,733.7 431.5,733.7 510.7,733.7 516,733.7 516,728.4 431.5,728.4 		"/>
		<polygon class="st12" points="426.2,776 426.2,781.2 431.5,781.2 516,781.2 516,776 510.7,776 431.5,776 		"/>
		<rect x="215.1" y="659.8" class="st9" width="211.1" height="52.8"/>
		<polygon class="st13" points="426.2,654.5 204.5,654.5 204.5,659.8 215.1,659.8 426.2,659.8 		"/>
		<polygon class="st13" points="426.2,723.2 215.1,723.2 204.5,723.2 204.5,728.4 426.2,728.4 		"/>
		<rect x="215.1" y="712.6" class="st14" width="211.1" height="10.6"/>
		<rect x="215.1" y="786.5" class="st9" width="211.1" height="15.8"/>
		<polygon class="st15" points="431.5,786.5 426.2,786.5 426.2,802.3 426.2,812.9 431.5,812.9 431.5,818.2 516,818.2 516,781.2 
			431.5,781.2 		"/>
		<polygon class="st16" points="431.5,786.5 431.5,781.2 426.2,781.2 204.5,781.2 204.5,786.5 215.1,786.5 426.2,786.5 		"/>
		<polygon class="st16" points="426.2,812.9 215.1,812.9 204.5,812.9 204.5,818.2 426.2,818.2 431.5,818.2 431.5,812.9 		"/>
		<rect x="215.1" y="802.3" class="st14" width="211.1" height="10.6"/>
		<rect x="215.1" y="765.4" class="st14" width="211.1" height="10.6"/>
		<polygon class="st17" points="431.5,654.5 426.2,654.5 426.2,659.8 426.2,712.6 426.2,723.2 426.2,728.4 431.5,728.4 516,728.4 
			516,723.2 516,659.8 516,654.5 		"/>
	</g>
	<rect x="613.6" y="804.5" class="st18" width="286.4" height="13.6"/>
	<rect x="654.5" y="627.3" class="st15" width="286.4" height="177.3"/>
	<rect x="900" y="804.5" class="st19" width="40.9" height="13.6"/>
	<rect x="668.2" y="640.9" class="st20" width="259.1" height="150"/>
	<polygon class="st21" points="927.3,640.9 790.9,790.9 927.3,790.9 	"/>
</g>
</svg>
