<?xml version="1.0" encoding="utf-8"?>
<!-- Generator: Adobe Illustrator 24.2.1, SVG Export Plug-In . SVG Version: 6.00 Build 0)  -->
<svg version="1.1" id="Layer_1" xmlns="http://www.w3.org/2000/svg" xmlns:xlink="http://www.w3.org/1999/xlink" x="0px" y="0px"
	 viewBox="0 0 1200 1200" style="enable-background:new 0 0 1200 1200;" xml:space="preserve">
<style type="text/css">
	.st0{fill:#F2F2F2;}
	.st1{fill:#4FAF4E;}
	.st2{fill:#BC9066;}
	.st3{fill:#A87E5D;}
	.st4{fill:#F3DECD;}
	.st5{fill:#E8CBAA;}
	.st6{fill:#5F5F5F;}
	.st7{fill:#E0B88E;}
	.st8{fill:#FBF7F2;}
	.st9{fill:#E4E4E3;}
	.st10{fill:#D1D1D1;}
	.st11{fill:#E9AA99;}
	.st12{fill:#BA7C6E;}
	.st13{fill:#5FBC92;}
	.st14{fill:#F0F0F0;}
	.st15{fill:#39363D;}
	.st16{fill:#4D4753;}
	.st17{fill:#5FA483;}
	.st18{fill:#FDFDFB;}
	.st19{fill:#A8A9A8;}
	.st20{fill:#D2E0E8;}
	.st21{fill:#C5CFD6;}
	.st22{fill:#E67354;}
	.st23{fill:#55A3E4;}
	.st24{fill:#56D78A;}
	.st25{fill:#AAD5EE;}
	.st26{fill:#B2D9EA;}
	.st27{fill:#C9E3E5;}
	.st28{fill:#DDEDE0;}
	.st29{fill:#EFF3DA;}
	.st30{fill:#F8F8D8;}
	.st31{fill:#FAF9D7;}
	.st32{fill:#E5CB47;}
	.st33{fill:#43150D;}
	.st34{fill:#D0C647;}
	.st35{fill:#C74529;}
	.st36{fill:#682617;}
	.st37{fill:#F3F3F3;}
	.st38{fill:#D7DEDB;}
	.st39{fill:#D7D7D7;}
	.st40{fill:#DCDBDA;}
	.st41{fill:#F3EAE7;}
	.st42{fill:#FCEEEB;}
	.st43{fill:#F6E4E4;}
	.st44{fill:#ECDCE0;}
	.st45{fill:#E2D3D8;}
	.st46{fill:#070405;}
	.st47{fill:#86593A;}
	.st48{fill:#EDB853;}
	.st49{fill:none;stroke:#714341;stroke-width:0;stroke-linecap:round;stroke-linejoin:round;}
	.st50{fill:#714341;}
	.st51{fill:#E4E1DC;}
	.st52{fill:#ECEFFF;}
	.st53{fill:#E6ECFF;}
	.st54{fill:#E3EEFF;}
	.st55{fill:#DDECFF;}
	.st56{fill:#DBEFFF;}
	.st57{fill:#DAEFFF;}
	.st58{fill:#1D2B45;}
	.st59{fill:#A5A0B1;}
	.st60{fill:#7383A7;}
	.st61{fill:#77A9B0;}
	.st62{fill:#537E87;}
	.st63{fill:#AED5DE;}
	.st64{fill:#91BFC9;}
	.st65{fill:#B2D5DF;}
	.st66{fill:#79AFB8;}
	.st67{fill:#96CCD9;}
	.st68{fill:#C18C40;}
	.st69{fill:#DDDAD9;}
	.st70{fill:#8E8E8E;}
	.st71{fill:#DEAD94;}
	.st72{fill:#D9A48C;}
	.st73{fill:#D89B87;}
	.st74{fill:#D49380;}
	.st75{fill:#D18C7D;}
	.st76{fill:#D08779;}
	.st77{fill:#354A73;}
	.st78{fill:#637492;}
	.st79{fill:#26365B;}
	.st80{fill:#192547;}
	.st81{fill:#0C1430;}
	.st82{fill:#FFFFFF;}
	.st83{fill:#737378;}
	.st84{fill:#A7A8AD;}
	.st85{fill:#8A8B8F;}
	.st86{fill:#FBDCC0;}
	.st87{fill:#CDCED4;}
	.st88{fill:#4D93C6;}
</style>
<g>
	<g>
		<rect y="0" class="st71" width="1200" height="132.7"/>
		<rect y="133" class="st72" width="1200" height="132.7"/>
		<rect y="266" class="st73" width="1200" height="132.7"/>
		<rect y="399" class="st74" width="1200" height="132.7"/>
		<rect y="532" class="st75" width="1200" height="132.7"/>
		<rect y="664.9" class="st76" width="1200" height="105.4"/>
		<rect y="865.8" class="st77" width="1200" height="59.6"/>
		<polygon class="st78" points="0,797.7 0,797.9 0,865.8 1200,865.8 1200,797.9 1200,797.7 1200,770.3 0,770.3 		"/>
		<polygon class="st79" points="0,930.6 0,930.9 0,961.2 0,988.5 1200,988.5 1200,961.2 1200,930.9 1200,930.6 1200,925.4 0,925.4 
					"/>
		<polygon class="st80" points="0,1063.6 0,1083.9 1200,1083.9 1200,1063.6 1200,988.5 0,988.5 		"/>
		<polygon class="st81" points="0,1116.3 0,1179.4 0,1200 1200,1200 1200,1179.4 1200,1116.3 1200,1083.9 0,1083.9 		"/>
	</g>
	<circle class="st82" cx="600" cy="265.8" r="68.2"/>
	<g>
		<path class="st83" d="M205.2,1085.5c-0.1,0.1-0.1,0.1-0.2,0.2C205.1,1085.6,205.2,1085.5,205.2,1085.5z"/>
		<path class="st83" d="M205.5,1085.1c-0.1,0.1-0.1,0.2-0.2,0.3C205.4,1085.3,205.5,1085.2,205.5,1085.1z"/>
		<path class="st83" d="M203.4,1086c0.1,0,0.3,0,0.4,0c0.1,0,0.3,0,0.4,0c-0.1,0-0.2,0-0.4,0C203.7,1086.1,203.5,1086,203.4,1086z"
			/>
		<path class="st83" d="M202,1085c0-0.1-0.1-0.1-0.1-0.2C201.9,1084.9,202,1085,202,1085z"/>
		<path class="st83" d="M201.8,1084.7c0-0.1,0-0.1-0.1-0.2C201.8,1084.6,201.8,1084.6,201.8,1084.7z"/>
		<path class="st83" d="M202.5,1085.6c-0.1,0-0.1-0.1-0.2-0.1C202.4,1085.6,202.5,1085.6,202.5,1085.6z"/>
		<path class="st83" d="M202.2,1085.4c0-0.1-0.1-0.1-0.1-0.2C202.1,1085.3,202.2,1085.3,202.2,1085.4z"/>
		<path class="st83" d="M204.9,1085.7c-0.1,0.1-0.2,0.1-0.3,0.2C204.7,1085.8,204.8,1085.8,204.9,1085.7z"/>
		<path class="st83" d="M201.7,1084.3c0-0.1,0-0.2,0-0.2C201.7,1084.1,201.7,1084.2,201.7,1084.3z"/>
		<path class="st83" d="M202.8,1085.8C202.9,1085.8,202.9,1085.9,202.8,1085.8c0,0,0,0-0.1-0.1
			C202.8,1085.8,202.8,1085.8,202.8,1085.8z"/>
		<path class="st83" d="M223.2,1040.3c0-0.1,0.1-0.1,0.1-0.2C223.3,1040.2,223.3,1040.3,223.2,1040.3z"/>
		<path class="st83" d="M204.6,1085.9c-0.1,0-0.2,0.1-0.3,0.1C204.4,1086,204.5,1085.9,204.6,1085.9z"/>
		<path class="st83" d="M203.3,1086c-0.1,0-0.2-0.1-0.3-0.1C203.1,1085.9,203.2,1086,203.3,1086z"/>
		<path class="st83" d="M223.6,1043.1c-0.8-0.7-0.9-1.7-0.5-2.6c0,0,0,0,0,0l-17.2,34.4v9c0,0.4-0.1,0.8-0.3,1.1
			c0-0.1,0.1-0.1,0.1-0.2l21.1-42.2l-0.2,0.2C225.8,1043.8,224.5,1043.9,223.6,1043.1z"/>
		<polygon class="st84" points="490.2,1062.7 490.2,1059.2 477.9,1042.8 358.4,903.5 394.7,1083.9 490.2,1083.9 508.7,1083.9 
			492.8,1062.7 		"/>
		<polygon class="st84" points="509.2,1062.7 498.1,1062.7 509.2,1077.6 		"/>
		<rect x="513.5" y="1062.7" class="st84" width="114.5" height="21.2"/>
		<polygon class="st84" points="356.9,901.7 356.2,900.8 235.6,1041.5 235.6,1083.9 309.8,1083.9 		"/>
		<path class="st85" d="M490.2,1052.1l8,10.6h11.1v0c0-1.2,0.9-2.1,2.1-2.1c1.2,0,2.1,0.9,2.1,2.1v0H628v-21.2H490.2V1052.1z"/>
		<polygon class="st85" points="492.8,1062.7 490.2,1059.2 490.2,1062.7 		"/>
		<polygon class="st84" points="490.2,1041.5 482.2,1041.5 490.2,1052.1 		"/>
		<polygon class="st86" points="358.4,903.5 356.9,901.7 309.8,1083.9 352.3,1083.9 394.7,1083.9 		"/>
		<polygon class="st85" points="352.3,896.3 227.8,1041.5 235.6,1041.5 356.2,900.8 		"/>
		<path class="st83" d="M512.1,1085.9c-0.1,0-0.2,0.1-0.2,0.1C512,1086,512,1085.9,512.1,1085.9z"/>
		<path class="st83" d="M513,1085.2c0,0.1-0.1,0.1-0.1,0.2C513,1085.3,513,1085.3,513,1085.2z"/>
		<path class="st83" d="M511.4,1086.1c-0.1,0-0.3,0-0.4,0C511.1,1086,511.2,1086.1,511.4,1086.1z"/>
		<path class="st83" d="M511.4,1086.1c0.1,0,0.3,0,0.4,0C511.6,1086,511.5,1086.1,511.4,1086.1
			C511.4,1086.1,511.4,1086.1,511.4,1086.1z"/>
		<path class="st83" d="M512.6,1085.6C512.7,1085.6,512.7,1085.6,512.6,1085.6C512.7,1085.6,512.6,1085.6,512.6,1085.6
			C512.6,1085.7,512.6,1085.6,512.6,1085.6z"/>
		<path class="st83" d="M513.5,1084.1c0,0.1,0,0.2,0,0.2C513.5,1084.2,513.5,1084.1,513.5,1084.1z"/>
		<path class="st83" d="M513.3,1084.9c0,0.1-0.1,0.1-0.1,0.2C513.2,1085,513.2,1084.9,513.3,1084.9z"/>
		<path class="st83" d="M513.4,1084.5c0,0.1,0,0.1-0.1,0.2C513.4,1084.6,513.4,1084.6,513.4,1084.5z"/>
		<path class="st83" d="M512.5,1085.7c-0.1,0-0.1,0.1-0.2,0.1C512.3,1085.8,512.4,1085.8,512.5,1085.7z"/>
		<path class="st83" d="M510.9,1086c-0.1,0-0.2-0.1-0.3-0.1C510.7,1085.9,510.8,1086,510.9,1086z"/>
		<path class="st83" d="M510.2,1085.7c-0.1-0.1-0.2-0.1-0.3-0.2C510,1085.5,510.1,1085.6,510.2,1085.7z"/>
		<path class="st83" d="M510.5,1085.9c-0.1,0-0.2-0.1-0.3-0.2C510.3,1085.8,510.4,1085.8,510.5,1085.9z"/>
		<path class="st83" d="M509.2,1077.6l-11.1-14.8l-8-10.6l-8-10.6l-1-1.3c0,0,0,0,0-0.1c0.7,0.9,0.6,2.2-0.3,2.9
			c-0.4,0.3-0.9,0.5-1.4,0.5c-0.6,0-1.2-0.3-1.6-0.7l0-0.1l12.3,16.3l2.7,3.5l15.9,21.2l1,1.3c0.1,0.1,0.1,0.1,0.2,0.2
			c-0.4-0.4-0.6-0.9-0.6-1.5V1077.6z"/>
		<path class="st83" d="M668.3,1077.6l-28-37.3c0,0,0,0,0-0.1c0.7,0.9,0.6,2.2-0.3,2.9c-0.4,0.3-0.9,0.5-1.4,0.5
			c-0.6,0-1.2-0.3-1.6-0.7l0-0.1l31.8,42.4c0.1,0.1,0.1,0.1,0.2,0.2c-0.4-0.4-0.6-0.9-0.6-1.5V1077.6z"/>
		<path class="st83" d="M670.5,1086.1c-0.1,0-0.3,0-0.4,0C670.2,1086,670.3,1086.1,670.5,1086.1z"/>
		<path class="st83" d="M670,1086c-0.1,0-0.2-0.1-0.3-0.1C669.8,1085.9,669.9,1086,670,1086z"/>
		<path class="st83" d="M669.6,1085.9c-0.1,0-0.2-0.1-0.3-0.2C669.4,1085.8,669.5,1085.8,669.6,1085.9z"/>
		<path class="st83" d="M669.2,1085.7c-0.1-0.1-0.2-0.1-0.3-0.2C669.1,1085.5,669.2,1085.6,669.2,1085.7z"/>
		<path class="st83" d="M672.1,1085.2c0,0.1-0.1,0.1-0.1,0.2C672,1085.3,672.1,1085.3,672.1,1085.2z"/>
		<path class="st83" d="M671.6,1085.7c-0.1,0-0.1,0.1-0.2,0.1C671.4,1085.8,671.5,1085.8,671.6,1085.7z"/>
		<path class="st83" d="M671.7,1085.6C671.8,1085.6,671.8,1085.6,671.7,1085.6C671.8,1085.6,671.7,1085.6,671.7,1085.6
			C671.7,1085.7,671.7,1085.6,671.7,1085.6z"/>
		<path class="st83" d="M672.3,1084.9c0,0.1-0.1,0.1-0.1,0.2C672.3,1085,672.3,1084.9,672.3,1084.9z"/>
		<path class="st83" d="M672.5,1084.5c0,0.1,0,0.1-0.1,0.2C672.5,1084.6,672.5,1084.6,672.5,1084.5z"/>
		<path class="st83" d="M672.6,1084.1c0,0.1,0,0.2,0,0.2C672.6,1084.2,672.6,1084.1,672.6,1084.1z"/>
		<path class="st83" d="M671.2,1085.9c-0.1,0-0.2,0.1-0.2,0.1C671,1086,671.1,1085.9,671.2,1085.9z"/>
		<path class="st83" d="M670.5,1086.1c0.1,0,0.3,0,0.4,0C670.7,1086,670.6,1086.1,670.5,1086.1
			C670.5,1086.1,670.5,1086.1,670.5,1086.1z"/>
		<path class="st82" d="M513.5,1062.7c0-1.2-0.9-2.1-2.1-2.1c-1.2,0-2.1,0.9-2.1,2.1v0v14.8v6.4c0,0.6,0.2,1.1,0.6,1.5c0,0,0,0,0,0
			c0.1,0.1,0.2,0.2,0.3,0.2c0,0,0,0,0,0c0.1,0.1,0.2,0.1,0.3,0.2c0,0,0,0,0.1,0c0.1,0,0.2,0.1,0.3,0.1c0,0,0,0,0.1,0
			c0.1,0,0.3,0,0.4,0c0,0,0,0,0,0c0,0,0,0,0,0c0.1,0,0.3,0,0.4,0c0,0,0.1,0,0.1,0c0.1,0,0.2,0,0.2-0.1c0,0,0.1,0,0.1-0.1
			c0.1,0,0.1-0.1,0.2-0.1c0,0,0.1,0,0.1-0.1c0.1,0,0.1-0.1,0.1-0.1c0.1-0.1,0.1-0.1,0.2-0.2c0,0,0.1-0.1,0.1-0.2
			c0-0.1,0.1-0.1,0.1-0.2c0-0.1,0.1-0.1,0.1-0.2c0-0.1,0.1-0.1,0.1-0.2c0-0.1,0-0.1,0.1-0.2c0-0.1,0-0.1,0-0.2c0-0.1,0-0.2,0-0.2
			c0,0,0-0.1,0-0.1V1062.7L513.5,1062.7z"/>
		<path class="st82" d="M670.5,1060.6c-1.2,0-2.1,0.9-2.1,2.1v14.8v6.4c0,0.6,0.2,1.1,0.6,1.5c0,0,0,0,0,0c0.1,0.1,0.2,0.2,0.3,0.2
			c0,0,0,0,0,0c0.1,0.1,0.2,0.1,0.3,0.2c0,0,0,0,0.1,0c0.1,0,0.2,0.1,0.3,0.1c0,0,0,0,0.1,0c0.1,0,0.3,0,0.4,0c0,0,0,0,0,0
			c0,0,0,0,0,0c0.1,0,0.3,0,0.4,0c0,0,0.1,0,0.1,0c0.1,0,0.2,0,0.2-0.1c0,0,0.1,0,0.1-0.1c0.1,0,0.1-0.1,0.2-0.1c0,0,0.1,0,0.1-0.1
			c0.1,0,0.1-0.1,0.1-0.1c0.1-0.1,0.1-0.1,0.2-0.2c0,0,0.1-0.1,0.1-0.2c0-0.1,0.1-0.1,0.1-0.2c0-0.1,0.1-0.1,0.1-0.2
			c0-0.1,0.1-0.1,0.1-0.2c0-0.1,0-0.1,0.1-0.2c0-0.1,0-0.1,0-0.2c0-0.1,0-0.2,0-0.2c0,0,0-0.1,0-0.1v-21.2
			C672.6,1061.6,671.6,1060.6,670.5,1060.6z"/>
		<path class="st87" d="M638.6,1043.6c0.5,0,1-0.2,1.4-0.5c0.9-0.7,1-2,0.3-2.9c0,0,0,0,0-0.1L513,891.6c-0.8-0.9-2.1-1-3-0.2
			c-0.5,0.4-0.7,1-0.7,1.6H362.9h-7.8l-1.2-1.4c-0.4-0.5-1-0.7-1.6-0.7s-1.2,0.3-1.6,0.7l-127.3,148.5c0,0,0,0,0,0
			c0,0.1-0.1,0.1-0.1,0.2c0,0.1-0.1,0.1-0.1,0.2c-0.4,0.9-0.3,1.9,0.5,2.6c0.9,0.8,2.2,0.7,3-0.2l0.2-0.2l1-1.2l124.5-145.2l3.9,4.6
			l0.7,0.9l1.5,1.8l119.5,139.4l0,0.1c0.4,0.5,1,0.7,1.6,0.7c0.5,0,1-0.2,1.4-0.5c0.9-0.7,1-2,0.3-2.9c0,0,0,0,0,0.1l1,1.3h8H628
			h7.8l1.1,1.3l0,0.1C637.4,1043.4,638,1043.6,638.6,1043.6z M473.1,957.4c-2.2-1.5-4.2-3.1-6-4.8c-4.7-4.5-5.1-8.2-3.8-9.7
			c0.9-1.1,2.6-1.5,4.9-1.3c2.7,0.3,5.7,1.3,8.9,2.9c0.7,0.4,1.5,0.8,2.2,1.2c0.1,0.1,0.2,0.1,0.3,0.2c0,0-0.1-0.1-0.1-0.1
			c0.2-0.4,0.3-0.8,0.5-1.3c0.4-1.5,1.6-2.6,3.7-2.9c3.3-0.4,7.2,0.7,11.6,3.5c2.2,1.4,4.2,3,5.8,4.7c1.3,1.4,2.2,2.8,2.9,4.2
			c0.9,2,1.2,3.7,1.3,5.4c0,2.3-0.5,4.3-1.2,6.2c-0.8,2.1-2,4-3.3,5.9c0,0.1-0.1,0.1-0.3,0c-5.8-2.5-11.5-5.1-17.3-8.1
			C479.7,961.6,476.3,959.6,473.1,957.4z M495.3,994.5l-7.2-8.8h48.1l7.2,8.8H495.3z"/>
		<path class="st82" d="M205.9,1075v-12.2c0-1.2-0.9-2.1-2.1-2.1s-2.1,0.9-2.1,2.1v21.2c0,0,0,0.1,0,0.1c0,0.1,0,0.2,0,0.2
			c0,0.1,0,0.1,0,0.2c0,0.1,0,0.1,0.1,0.2c0,0.1,0.1,0.1,0.1,0.2c0,0.1,0.1,0.1,0.1,0.2c0,0.1,0.1,0.1,0.1,0.2
			c0,0.1,0.1,0.1,0.1,0.2c0,0.1,0.1,0.1,0.1,0.1c0,0,0.1,0.1,0.2,0.1c0.1,0,0.1,0.1,0.2,0.1c0.1,0,0.1,0.1,0.2,0.1c0,0,0.1,0,0.1,0
			c0.1,0,0.2,0.1,0.3,0.1c0,0,0,0,0.1,0c0.1,0,0.3,0,0.4,0c0.1,0,0.3,0,0.4,0c0,0,0.1,0,0.1,0c0.1,0,0.2-0.1,0.3-0.1c0,0,0,0,0.1,0
			c0.1,0,0.2-0.1,0.3-0.2c0,0,0.1,0,0.1-0.1c0.1-0.1,0.2-0.1,0.2-0.2c0,0,0,0,0.1-0.1c0.1-0.1,0.2-0.2,0.2-0.3c0,0,0,0,0-0.1
			c0.2-0.3,0.3-0.7,0.3-1.1V1075z"/>
		<path class="st88" d="M500.7,971.5c1.3-1.8,2.4-3.8,3.3-5.9c0.8-1.9,1.3-3.9,1.2-6.2c0-1.7-0.3-3.4-1.3-5.4
			c-0.6-1.4-1.6-2.8-2.9-4.2c-1.6-1.7-3.5-3.3-5.8-4.7c-4.4-2.8-8.3-3.9-11.6-3.5c-2.1,0.3-3.3,1.3-3.7,2.9
			c-0.1,0.4-0.3,0.9-0.5,1.3c0,0,0.1,0.1,0.1,0.1c-0.1-0.1-0.2-0.1-0.3-0.2c-0.7-0.4-1.5-0.8-2.2-1.2c-3.1-1.7-6.1-2.7-8.9-2.9
			c-2.3-0.2-4,0.2-4.9,1.3c-1.3,1.6-0.9,5.2,3.8,9.7c1.8,1.7,3.8,3.3,6,4.8c3.2,2.2,6.6,4.2,10.1,6c5.7,3,11.5,5.6,17.3,8.1
			C500.6,971.6,500.7,971.6,500.7,971.5z"/>
		<polygon class="st88" points="488.1,985.7 495.3,994.5 543.4,994.5 536.2,985.7 		"/>
		<path class="st83" d="M940.1,897c0,0,0.1,0.1,0.1,0.1C940.1,897.1,940.1,897,940.1,897z"/>
		<path class="st83" d="M951.7,920.2l-11.5-22.9c0,0,0,0,0,0c0.3,0.6,0.2,1.3-0.3,1.7c-0.6,0.5-1.5,0.4-2-0.2l-0.1-0.1l14,28.1
			c0,0,0,0.1,0.1,0.1c-0.1-0.2-0.2-0.5-0.2-0.8V920.2z"/>
		<path class="st83" d="M952.6,927.4c-0.1,0-0.1-0.1-0.2-0.1C952.4,927.4,952.5,927.4,952.6,927.4z"/>
		<path class="st83" d="M952.3,927.3c-0.1,0-0.1-0.1-0.2-0.1C952.2,927.2,952.3,927.2,952.3,927.3z"/>
		<path class="st83" d="M952.8,927.5c-0.1,0-0.1,0-0.2-0.1C952.7,927.5,952.7,927.5,952.8,927.5z"/>
		<path class="st83" d="M954.3,927c0,0-0.1,0.1-0.1,0.1C954.2,927.1,954.2,927,954.3,927z"/>
		<path class="st83" d="M954.5,926.5c0,0,0,0.1,0,0.1C954.5,926.6,954.5,926.5,954.5,926.5z"/>
		<path class="st83" d="M954.1,927.2c0,0-0.1,0.1-0.1,0.1C954,927.2,954,927.2,954.1,927.2z"/>
		<path class="st83" d="M953.8,927.4C953.8,927.4,953.8,927.4,953.8,927.4C953.8,927.4,953.8,927.4,953.8,927.4
			C953.7,927.4,953.8,927.4,953.8,927.4z"/>
		<path class="st83" d="M953.5,927.5C953.5,927.5,953.5,927.5,953.5,927.5C953.5,927.5,953.5,927.5,953.5,927.5z"/>
		<path class="st83" d="M952.9,927.5c0.1,0,0.2,0,0.3,0c0,0,0,0,0,0c0,0,0,0,0,0C953,927.5,953,927.5,952.9,927.5z"/>
		<path class="st83" d="M952.1,927.1c-0.1-0.1-0.1-0.1-0.2-0.2C952,927,952.1,927.1,952.1,927.1z"/>
		<path class="st83" d="M954.4,926.8c0,0,0,0.1-0.1,0.1C954.4,926.8,954.4,926.8,954.4,926.8z"/>
		<path class="st83" d="M954.5,926.2c0,0.1,0,0.1,0,0.2C954.5,926.3,954.5,926.3,954.5,926.2z"/>
		<rect x="670.6" y="912" class="st84" width="76.3" height="14.1"/>
		<polygon class="st84" points="749.7,921.9 757.1,912 749.7,912 		"/>
		<polygon class="st84" points="851.1,804.8 882.5,926.1 931.9,926.1 931.9,897.9 851.6,804.2 		"/>
		<polygon class="st84" points="850.1,805.9 770.6,898.8 762.4,909.7 762.4,912 760.6,912 750,926.1 762.4,926.1 826,926.1 		"/>
		<polygon class="st85" points="762.4,912 762.4,909.7 760.6,912 		"/>
		<path class="st85" d="M746.9,912c0-0.8,0.6-1.4,1.4-1.4s1.4,0.6,1.4,1.4v0h7.4l5.3-7.1v-7.1h-91.8V912L746.9,912L746.9,912z"/>
		<polygon class="st84" points="767.7,897.9 762.4,897.9 762.4,904.9 		"/>
		<polygon class="st86" points="851.1,804.8 850.1,805.9 826,926.1 854.2,926.1 882.5,926.1 		"/>
		<polygon class="st85" points="851.6,804.2 931.9,897.9 937.1,897.9 854.2,801.2 		"/>
		<path class="st83" d="M747.9,927.5c-0.1,0-0.1,0-0.2-0.1C747.8,927.5,747.9,927.5,747.9,927.5z"/>
		<path class="st83" d="M749.2,927.2C749.2,927.2,749.2,927.2,749.2,927.2C749.2,927.2,749.2,927.2,749.2,927.2z"/>
		<path class="st83" d="M747.1,926.9c0,0,0-0.1-0.1-0.1C747,926.8,747.1,926.8,747.1,926.9z"/>
		<path class="st83" d="M747.7,927.4c0,0-0.1,0-0.1-0.1C747.6,927.4,747.6,927.4,747.7,927.4z"/>
		<path class="st83" d="M747,926.6c0,0,0-0.1,0-0.1C746.9,926.6,746.9,926.6,747,926.6z"/>
		<path class="st83" d="M747.3,927.1c0,0-0.1-0.1-0.1-0.1C747.2,927,747.2,927.1,747.3,927.1z"/>
		<path class="st83" d="M748.7,927.5C748.6,927.5,748.6,927.5,748.7,927.5C748.6,927.5,748.6,927.5,748.7,927.5z"/>
		<path class="st83" d="M746.9,926.4c0,0,0-0.1,0-0.2C746.9,926.3,746.9,926.3,746.9,926.4z"/>
		<path class="st83" d="M749,927.4C748.9,927.4,748.9,927.4,749,927.4C748.9,927.4,748.9,927.4,749,927.4z"/>
		<path class="st83" d="M748.3,927.5C748.3,927.5,748.3,927.5,748.3,927.5c-0.1,0-0.2,0-0.3,0C748.1,927.5,748.2,927.5,748.3,927.5z
			"/>
		<path class="st83" d="M747.4,927.3C747.4,927.3,747.5,927.3,747.4,927.3C747.4,927.3,747.4,927.2,747.4,927.3
			C747.4,927.2,747.4,927.2,747.4,927.3z"/>
		<path class="st83" d="M762.4,909.7l8.2-10.9l0,0c-0.3,0.3-0.7,0.5-1.1,0.5c-0.3,0-0.7-0.1-0.9-0.3c-0.6-0.5-0.7-1.4-0.2-2
			c0,0,0,0,0,0l-0.6,0.8l-5.3,7.1l-5.3,7.1l-7.4,9.9v4.2c0,0.3-0.1,0.7-0.3,0.9c0,0,0,0,0,0l0.6-0.8l10.6-14.1L762.4,909.7z"/>
		<path class="st83" d="M642.7,927.5C642.7,927.5,642.7,927.5,642.7,927.5C642.7,927.5,642.7,927.5,642.7,927.5z"/>
		<path class="st83" d="M642.3,927.5C642.3,927.5,642.3,927.5,642.3,927.5c-0.1,0-0.2,0-0.3,0C642.1,927.5,642.2,927.5,642.3,927.5z
			"/>
		<path class="st83" d="M643,927.4C643,927.4,642.9,927.4,643,927.4C642.9,927.4,643,927.4,643,927.4z"/>
		<path class="st83" d="M641.1,926.9c0,0,0-0.1-0.1-0.1C641.1,926.8,641.1,926.8,641.1,926.9z"/>
		<path class="st83" d="M641.3,927.1c0,0-0.1-0.1-0.1-0.1C641.2,927,641.3,927.1,641.3,927.1z"/>
		<path class="st83" d="M642,927.5c-0.1,0-0.1,0-0.2-0.1C641.9,927.5,641.9,927.5,642,927.5z"/>
		<path class="st83" d="M641,926.6c0,0,0-0.1,0-0.1C641,926.6,641,926.6,641,926.6z"/>
		<path class="st83" d="M643.3,927.2C643.2,927.2,643.2,927.2,643.3,927.2C643.2,927.2,643.2,927.2,643.3,927.2z"/>
		<path class="st83" d="M641.7,927.4c0,0-0.1,0-0.1-0.1C641.6,927.4,641.7,927.4,641.7,927.4z"/>
		<path class="st83" d="M641.5,927.3C641.5,927.3,641.5,927.3,641.5,927.3C641.5,927.3,641.4,927.2,641.5,927.3
			C641.4,927.2,641.4,927.2,641.5,927.3z"/>
		<path class="st83" d="M640.9,926.4c0,0,0-0.1,0-0.2C640.9,926.3,640.9,926.3,640.9,926.4z"/>
		<path class="st83" d="M663.5,899.3c-0.3,0-0.7-0.1-0.9-0.3c-0.6-0.5-0.7-1.4-0.2-2c0,0,0,0,0,0l-18.6,24.9v4.2
			c0,0.3-0.1,0.7-0.3,0.9c0,0,0,0,0,0l21.2-28.2l0,0C664.3,899.1,663.9,899.3,663.5,899.3z"/>
		<path class="st82" d="M749.7,921.9V912v0c0-0.8-0.6-1.4-1.4-1.4s-1.4,0.6-1.4,1.4v0v14.1c0,0,0,0.1,0,0.1c0,0.1,0,0.1,0,0.2
			c0,0,0,0.1,0,0.1c0,0,0,0.1,0,0.1c0,0,0,0.1,0.1,0.1c0,0,0,0.1,0.1,0.1c0,0,0.1,0.1,0.1,0.1c0,0,0.1,0.1,0.1,0.1
			c0,0,0.1,0.1,0.1,0.1c0,0,0.1,0.1,0.1,0.1c0,0,0.1,0,0.1,0.1c0,0,0.1,0.1,0.1,0.1c0,0,0.1,0,0.1,0c0.1,0,0.1,0,0.2,0.1
			c0,0,0.1,0,0.1,0c0.1,0,0.2,0,0.3,0c0,0,0,0,0,0c0.1,0,0.2,0,0.3,0c0,0,0.1,0,0.1,0c0.1,0,0.1,0,0.2-0.1c0,0,0.1,0,0.1-0.1
			c0.1,0,0.1-0.1,0.2-0.1c0,0,0.1,0,0.1-0.1c0.1,0,0.1-0.1,0.1-0.2c0.2-0.2,0.3-0.6,0.3-0.9V921.9z"/>
		<path class="st82" d="M643.7,921.9V912c0-0.8-0.6-1.4-1.4-1.4s-1.4,0.6-1.4,1.4v14.1c0,0,0,0.1,0,0.1c0,0.1,0,0.1,0,0.2
			c0,0,0,0.1,0,0.1c0,0,0,0.1,0,0.1c0,0,0,0.1,0.1,0.1c0,0,0,0.1,0.1,0.1c0,0,0.1,0.1,0.1,0.1c0,0,0.1,0.1,0.1,0.1
			c0,0,0.1,0.1,0.1,0.1c0,0,0.1,0.1,0.1,0.1c0,0,0.1,0,0.1,0.1c0,0,0.1,0.1,0.1,0.1c0,0,0.1,0,0.1,0c0.1,0,0.1,0,0.2,0.1
			c0,0,0.1,0,0.1,0c0.1,0,0.2,0,0.3,0c0,0,0,0,0,0c0.1,0,0.2,0,0.3,0c0,0,0.1,0,0.1,0c0.1,0,0.1,0,0.2-0.1c0,0,0.1,0,0.1-0.1
			c0.1,0,0.1-0.1,0.2-0.1c0,0,0.1,0,0.1-0.1c0.1,0,0.1-0.1,0.1-0.2c0.2-0.2,0.3-0.6,0.3-0.9V921.9z"/>
		<path class="st87" d="M939.9,899c0.5-0.4,0.6-1.2,0.3-1.7c0,0-0.1-0.1-0.1-0.1c0,0-0.1-0.1-0.1-0.1c0,0,0,0,0,0l-84.8-98.9
			c-0.3-0.3-0.7-0.5-1.1-0.5c-0.4,0-0.8,0.2-1.1,0.5l-0.8,0.9h-5.2h-97.5c0-0.4-0.2-0.8-0.5-1.1c-0.6-0.5-1.5-0.4-2,0.2L662.4,897
			c0,0,0,0,0,0c-0.5,0.6-0.4,1.5,0.2,2c0.3,0.2,0.6,0.3,0.9,0.3c0.4,0,0.8-0.2,1.1-0.5l0,0l0.8-0.9h5.2h91.8h5.3l0.6-0.8
			c0,0,0,0,0,0c-0.5,0.6-0.4,1.5,0.2,2c0.3,0.2,0.6,0.3,0.9,0.3c0.4,0,0.8-0.2,1.1-0.5l0,0l79.6-92.8l1-1.2l0.5-0.6l2.6-3l82.9,96.7
			l0.7,0.8l0.1,0.1C938.4,899.4,939.3,899.5,939.9,899z M759,866.6h-32.1l4.8-5.9h32.1L759,866.6z M767,845.9
			c-3.8,2-7.7,3.7-11.5,5.4c-0.1,0.1-0.1,0-0.2,0c-0.9-1.2-1.6-2.5-2.2-3.9c-0.5-1.3-0.8-2.6-0.8-4.1c0-1.1,0.2-2.3,0.8-3.6
			c0.4-0.9,1-1.9,1.9-2.8c1.1-1.2,2.4-2.2,3.9-3.1c3-1.8,5.6-2.6,7.8-2.3c1.4,0.2,2.2,0.9,2.5,1.9c0.1,0.3,0.2,0.6,0.3,0.8
			c0,0,0,0.1-0.1,0.1c0.1,0,0.1-0.1,0.2-0.1c0.5-0.3,1-0.5,1.5-0.8c2.1-1.1,4.1-1.8,5.9-2c1.6-0.1,2.7,0.1,3.3,0.9
			c0.9,1,0.6,3.5-2.5,6.5c-1.2,1.1-2.5,2.2-4,3.2C771.6,843.4,769.4,844.6,767,845.9z"/>
		<path class="st82" d="M954.4,926.8c0,0,0-0.1,0.1-0.1c0,0,0-0.1,0-0.1c0,0,0-0.1,0-0.1c0,0,0-0.1,0-0.2c0,0,0-0.1,0-0.1V912
			c0-0.8-0.6-1.4-1.4-1.4c-0.8,0-1.4,0.6-1.4,1.4v8.1v6c0,0.3,0.1,0.5,0.2,0.8c0,0,0,0,0,0c0,0.1,0.1,0.1,0.2,0.2c0,0,0,0,0,0
			c0,0,0.1,0.1,0.2,0.1c0,0,0,0,0.1,0c0.1,0,0.1,0.1,0.2,0.1c0,0,0,0,0,0c0.1,0,0.1,0,0.2,0.1c0,0,0,0,0.1,0c0.1,0,0.2,0,0.3,0
			c0,0,0,0,0,0c0.1,0,0.2,0,0.3,0c0,0,0.1,0,0.1,0c0.1,0,0.1,0,0.2-0.1c0,0,0.1,0,0.1-0.1c0,0,0.1-0.1,0.1-0.1c0,0,0.1-0.1,0.1-0.1
			c0,0,0.1-0.1,0.1-0.1c0,0,0.1-0.1,0.1-0.1c0,0,0.1-0.1,0.1-0.1C954.4,926.8,954.4,926.8,954.4,926.8z"/>
		<path class="st88" d="M777.8,838.7c3.1-3,3.4-5.4,2.5-6.5c-0.6-0.7-1.7-1-3.3-0.9c-1.8,0.2-3.8,0.9-5.9,2c-0.5,0.3-1,0.5-1.5,0.8
			c-0.1,0-0.1,0.1-0.2,0.1c0,0,0-0.1,0.1-0.1c-0.1-0.3-0.2-0.6-0.3-0.8c-0.3-1-1-1.7-2.5-1.9c-2.2-0.3-4.8,0.5-7.8,2.3
			c-1.5,0.9-2.8,2-3.9,3.1c-0.9,1-1.5,1.9-1.9,2.8c-0.6,1.3-0.8,2.5-0.8,3.6c0,1.5,0.3,2.9,0.8,4.1c0.6,1.4,1.3,2.7,2.2,3.9
			c0,0,0.1,0.1,0.2,0c3.8-1.7,7.7-3.4,11.5-5.4c2.3-1.2,4.6-2.5,6.7-4C775.2,840.9,776.6,839.8,777.8,838.7z"/>
		<polygon class="st88" points="726.9,866.6 759,866.6 763.8,860.7 731.7,860.7 		"/>
	</g>
	<g>
		<polygon class="st81" points="736.4,606.7 395.5,688.5 95.5,633.9 95.7,633.9 0,616.5 0,770.3 1200,770.3 1200,597 1009.1,497.6 
					"/>
		<polygon class="st78" points="1090.9,374.8 1077.3,443 1009.1,497.6 1200,597 1200,382.5 		"/>
		<polygon class="st86" points="395.5,688.5 736.4,606.7 1009.1,497.6 1077.3,443 1090.9,374.8 518.2,606.7 95.7,633.9 95.5,633.9 
					"/>
	</g>
</g>
</svg>
