<svg width="28" height="26" viewBox="0 0 28 26" fill="none" xmlns="http://www.w3.org/2000/svg">
<path fill-rule="evenodd" clip-rule="evenodd" d="M27.16 3.78568C26.8283 3.78568 26.5594 4.05458 26.5594 4.38628C26.5594 4.51069 26.5252 4.67851 26.4581 4.86578C26.4157 4.81111 26.3713 4.7593 26.3247 4.71026C25.8555 4.21566 25.2797 4.11315 24.9091 4.0857C24.9061 4.08548 24.9031 4.08528 24.9 4.0851C24.6099 4.06804 24.1897 4.12314 23.8271 4.39872C23.4364 4.69564 23.2083 5.17499 23.2083 5.80934C23.2083 6.22225 23.3733 6.56483 23.6387 6.81215C23.8886 7.04501 24.2013 7.17096 24.4886 7.23583C24.9274 7.33491 25.4315 7.31843 25.8452 7.20163C25.8053 7.98671 25.3344 8.75725 24.781 9.38632C24.5007 9.70499 24.2187 9.96521 24.0065 10.1457C23.9008 10.2356 23.8136 10.3048 23.754 10.3506C23.7242 10.3735 23.7014 10.3905 23.6868 10.4013C23.6795 10.4067 23.6742 10.4105 23.6711 10.4127L23.6686 10.4145L23.6684 10.4147C23.3978 10.6063 23.3337 10.981 23.5252 11.2517C23.7168 11.5225 24.0916 11.5867 24.3624 11.3951L24.0246 10.9177C24.3624 11.3951 24.3626 11.395 24.3627 11.3949L24.364 11.394L24.3664 11.3923L24.3739 11.3869C24.38 11.3825 24.3884 11.3764 24.3989 11.3686C24.4199 11.3532 24.4494 11.3312 24.4861 11.3029C24.5596 11.2464 24.6624 11.1648 24.7848 11.0607C25.0288 10.8532 25.355 10.5525 25.6829 10.1797C26.321 9.45441 27.0491 8.36156 27.0491 7.09468C27.0491 6.82427 27.0341 6.5745 27.005 6.34424C27.1079 6.20916 27.2003 6.06848 27.2807 5.93008C27.5473 5.4706 27.7606 4.89952 27.7606 4.38628C27.7606 4.05458 27.4917 3.78568 27.16 3.78568ZM25.697 5.96829C25.6758 5.98219 25.6558 5.99367 25.6371 6.00268C25.4661 6.085 25.085 6.13906 24.7532 6.06413C24.5957 6.02858 24.5025 5.97521 24.4576 5.93336C24.4282 5.90597 24.4095 5.87843 24.4095 5.80934C24.4095 5.47968 24.5143 5.38522 24.5539 5.35507C24.6208 5.30424 24.7266 5.279 24.8256 5.28401C25.0726 5.3029 25.2868 5.36147 25.4533 5.537C25.5326 5.62055 25.6229 5.75392 25.697 5.96829Z" fill="black"/>
<path fill-rule="evenodd" clip-rule="evenodd" d="M25.8784 13.4985C25.8784 7.91486 20.5797 3.53324 14.2605 3.53324C12.0644 3.53324 9.99803 4.04512 8.24743 4.96348C8.21658 4.95541 8.17098 4.94051 8.10837 4.91429C7.91606 4.8338 7.68567 4.70089 7.40861 4.54065L7.39946 4.53535C7.14708 4.38938 6.84682 4.2157 6.57366 4.10739C6.43438 4.05216 6.26596 3.9987 6.08883 3.9852C5.90845 3.97145 5.66741 3.99636 5.45193 4.15958C5.24274 4.31729 5.15357 4.53818 5.11137 4.69094C5.06669 4.85265 5.05096 5.02506 5.04616 5.18086C5.03659 5.49192 5.06879 5.85874 5.0982 6.18222C5.09995 6.20151 5.10169 6.22066 5.10343 6.23968C5.13256 6.55934 5.15819 6.84062 5.15849 7.07004C5.15864 7.18305 5.15224 7.2606 5.14374 7.30916C3.9307 8.60532 3.101 10.1481 2.77615 11.865H2.32517C1.44604 11.865 0.777517 12.5923 0.806468 13.4637V16.8955C0.806468 17.7311 1.44345 18.506 2.34812 18.506H4.22684C4.81199 19.3688 5.53013 20.138 6.36727 20.802C6.15584 21.2631 6.03965 21.7741 6.03965 22.3123C6.03965 24.1651 7.46373 25.759 9.30275 25.759C10.785 25.759 12.0016 24.714 12.4128 23.3397C13.0158 23.4224 13.6251 23.4638 14.2605 23.4638C15.0307 23.4638 15.8058 23.4047 16.5621 23.2732C16.9601 24.6786 18.1754 25.759 19.7003 25.759C21.5363 25.759 22.9634 24.1913 22.9634 22.3123C22.9634 21.6591 22.7952 21.0469 22.5009 20.5237C24.5754 18.7288 25.8784 16.2556 25.8784 13.4985ZM5.13539 7.34486C5.13545 7.34495 5.13611 7.34327 5.13717 7.33952C5.13585 7.34288 5.13532 7.34476 5.13539 7.34486ZM8.28985 4.97174C8.28983 4.97172 8.28911 4.97165 8.28773 4.9716C8.28918 4.97174 8.28986 4.97177 8.28985 4.97174ZM14.2605 4.73444C20.1062 4.73444 24.6772 8.75347 24.6772 13.4985C24.6772 16.0165 23.4092 18.3075 21.3274 19.9339C21.2 20.0334 21.1181 20.1801 21.1002 20.3407C21.0823 20.5014 21.13 20.6624 21.2323 20.7875C21.5577 21.1853 21.7622 21.7166 21.7622 22.3123C21.7622 23.6008 20.8022 24.5578 19.7003 24.5578C18.6536 24.5578 17.7484 23.6912 17.6357 22.5078C17.6193 22.3355 17.5293 22.1787 17.389 22.0775C17.2486 21.9763 17.0713 21.9406 16.9027 21.9795C16.0585 22.1744 15.1635 22.2626 14.2605 22.2626C13.4927 22.2626 12.7712 22.1968 12.0497 22.0657C11.8863 22.0359 11.7178 22.0753 11.5844 22.1742C11.451 22.2732 11.3646 22.4231 11.3456 22.5881C11.2153 23.7234 10.3146 24.5578 9.30275 24.5578C8.20385 24.5578 7.24086 23.5811 7.24086 22.3123C7.24086 21.8137 7.38795 21.3554 7.64494 20.9699C7.82449 20.7006 7.75831 20.3374 7.49531 20.1487C6.49973 19.4345 5.68215 18.5725 5.05963 17.5851C4.94964 17.4106 4.75782 17.3048 4.55157 17.3048H2.34812C2.19698 17.3048 2.00767 17.1616 2.00767 16.8955V13.4526C2.00767 13.4443 2.00749 13.4359 2.00715 13.4276C1.99781 13.2034 2.15315 13.0662 2.32517 13.0662H3.28918C3.59172 13.0662 3.84703 12.8412 3.88502 12.5411C4.09691 10.8672 4.85957 9.35303 6.06596 8.08201L6.06699 8.08093C6.23107 7.90719 6.29254 7.69379 6.32084 7.54926C6.35158 7.39228 6.35989 7.22448 6.35969 7.06848C6.35932 6.78233 6.32878 6.44859 6.30125 6.14778C6.29896 6.12277 6.29669 6.09798 6.29446 6.07347C6.26614 5.76185 6.24379 5.49042 6.2457 5.27409C6.40177 5.34749 6.58733 5.45328 6.80721 5.58046L6.8408 5.59989C7.08754 5.74269 7.37783 5.9107 7.64457 6.02235C7.78566 6.0814 7.9496 6.13771 8.11998 6.16111C8.28827 6.18422 8.51615 6.18232 8.73752 6.06316C10.3215 5.21713 12.2202 4.73444 14.2605 4.73444ZM6.2726 5.00037C6.27255 5.00026 6.27189 5.00184 6.27078 5.00539C6.2721 5.00224 6.27265 5.00047 6.2726 5.00037Z" fill="black"/>
<path d="M5.81439 19.4891C5.81439 19.4891 7.55879 21.0728 9.0048 21.6237Z" fill="#F5F5F5"/>
<path fill-rule="evenodd" clip-rule="evenodd" d="M6.21784 19.0442C5.97225 18.8213 5.59247 18.8397 5.36953 19.0852C5.14657 19.3308 5.1649 19.7106 5.41049 19.9336L5.81421 19.4889C5.41049 19.9336 5.41042 19.9336 5.41049 19.9336L5.4126 19.9355L5.41724 19.9397L5.43392 19.9547C5.44827 19.9675 5.469 19.9859 5.49561 20.0093C5.54881 20.056 5.62561 20.1227 5.722 20.204C5.91452 20.3665 6.18654 20.5888 6.50573 20.8293C7.13221 21.3014 7.98531 21.8779 8.7908 22.1848C9.10078 22.3029 9.44778 22.1473 9.56587 21.8373C9.68395 21.5274 9.5284 21.1804 9.21843 21.0623C8.57791 20.8183 7.8358 20.3275 7.22859 19.87C6.93092 19.6457 6.67647 19.4377 6.49672 19.286C6.40698 19.2103 6.33621 19.1489 6.28836 19.1068C6.26445 19.0858 6.24629 19.0697 6.23437 19.059L6.22127 19.0473L6.21835 19.0447L6.21784 19.0442Z" fill="black"/>
<path d="M14.7203 22.8172C14.7203 22.8172 17.0156 22.8401 19.3108 21.5778Z" fill="#F5F5F5"/>
<path fill-rule="evenodd" clip-rule="evenodd" d="M19.8369 21.2883C19.6771 20.9976 19.3119 20.8916 19.0212 21.0515C17.9469 21.6423 16.8664 21.9352 16.0502 22.0794C15.6434 22.1513 15.3059 22.1856 15.0727 22.2019C14.9563 22.21 14.8662 22.2137 14.8069 22.2153C14.7772 22.2161 14.7553 22.2164 14.7417 22.2165C14.7348 22.2166 14.7301 22.2166 14.7275 22.2166L14.7259 22.2166C14.7257 22.2166 14.7254 22.2166 14.7252 22.2166C14.394 22.2138 14.1229 22.4798 14.1196 22.8112C14.1163 23.1429 14.3825 23.4144 14.7142 23.4177L14.7202 22.8172C14.7142 23.4177 14.7143 23.4177 14.7145 23.4177L14.7159 23.4178L14.7185 23.4178L14.7261 23.4178C14.7324 23.4178 14.7408 23.4178 14.7513 23.4177C14.7724 23.4175 14.8021 23.4171 14.8397 23.4161C14.9149 23.414 15.022 23.4096 15.1566 23.4002C15.4255 23.3813 15.8053 23.3425 16.2592 23.2623C17.1644 23.1024 18.3792 22.7755 19.6001 22.104C19.8908 21.9441 19.9968 21.5789 19.8369 21.2883Z" fill="black"/>
<path d="M7.46682 12.0984C7.17526 12.0984 6.93891 11.8621 6.93891 11.5705C6.93891 11.279 7.17526 11.0426 7.46682 11.0426C7.75837 11.0426 7.99473 11.279 7.99473 11.5705C7.99473 11.8621 7.75837 12.0984 7.46682 12.0984Z" fill="black"/>
<path fill-rule="evenodd" clip-rule="evenodd" d="M7.46699 11.4863C7.51342 11.4863 7.55106 11.5239 7.55106 11.5704C7.55106 11.6168 7.51342 11.6544 7.46699 11.6544C7.42055 11.6544 7.38291 11.6168 7.38291 11.5704C7.38291 11.5239 7.42055 11.4863 7.46699 11.4863ZM8.43873 11.5704C8.43873 11.0337 8.00367 10.5986 7.46699 10.5986C6.93031 10.5986 6.49524 11.0337 6.49524 11.5704C6.49524 12.107 6.93031 12.5421 7.46699 12.5421C8.00366 12.5421 8.43873 12.1071 8.43873 11.5704Z" fill="black"/>
<path d="M14.1918 8.21917C12.2016 8.21917 10.5883 6.6058 10.5883 4.61561C10.5883 2.62543 12.2016 1.01206 14.1918 1.01206C16.182 1.01206 17.7954 2.62543 17.7954 4.61561C17.7954 6.6058 16.182 8.21917 14.1918 8.21917Z" fill="black"/>
<path fill-rule="evenodd" clip-rule="evenodd" d="M14.1918 1.61284C15.8503 1.61284 17.1948 2.95731 17.1948 4.6158C17.1948 6.27428 15.8503 7.61875 14.1918 7.61875C12.5333 7.61875 11.1889 6.27428 11.1889 4.6158C11.1889 2.95731 12.5333 1.61284 14.1918 1.61284ZM18.396 4.6158C18.396 2.2939 16.5137 0.41164 14.1918 0.41164C11.8699 0.41164 9.98765 2.29391 9.98765 4.6158C9.98765 6.93769 11.8699 8.81995 14.1918 8.81995C16.5137 8.81995 18.396 6.93769 18.396 4.6158Z" fill="black"/>
<path d="M9.89958 7.53065C9.89958 7.53065 13.8474 5.80921 18.4838 7.53065Z" fill="#F5F5F5"/>
<path fill-rule="evenodd" clip-rule="evenodd" d="M9.66044 6.97991C9.6602 6.98002 9.65997 6.98012 9.90003 7.53066L9.65997 6.98012C9.35591 7.1127 9.21691 7.46666 9.34949 7.77072C9.48194 8.07447 9.83534 8.2135 10.1392 8.08159C10.1393 8.08152 10.1395 8.08146 10.1396 8.08139C10.1397 8.08138 10.1397 8.08137 10.1397 8.08136L10.1401 8.0812L10.1446 8.07931C10.1498 8.07711 10.1587 8.07339 10.1713 8.0683C10.1963 8.05813 10.2358 8.04251 10.2889 8.02268C10.3951 7.983 10.5556 7.92656 10.764 7.86323C11.1811 7.73646 11.7882 7.58274 12.5352 7.48013C14.0303 7.27476 16.0722 7.27573 18.2752 8.0937C18.5862 8.20916 18.9319 8.05067 19.0473 7.73971C19.1628 7.42875 19.0043 7.08307 18.6933 6.96761C16.26 6.06414 14.0097 6.06511 12.3718 6.2901C11.5523 6.40267 10.8827 6.57172 10.4147 6.71393C10.1805 6.78508 9.99634 6.84968 9.86854 6.89743C9.80462 6.9213 9.75475 6.94099 9.71974 6.95519C9.70223 6.96229 9.68843 6.96803 9.67843 6.97223L9.66631 6.97738L9.66241 6.97906L9.66101 6.97967L9.66044 6.97991Z" fill="black"/>
</svg>
