<svg width="23" height="22" viewBox="0 0 23 22" fill="none" xmlns="http://www.w3.org/2000/svg">
<path d="M3 8.67691C3 8.67691 1.56661 7.83035 1.56661 6.12492C1.56661 4.41949 2.35761 4.19509 2.86251 4.15582C3.1748 4.13151 3.71523 4.28859 3.71523 5.06838C3.71523 5.84816 2.51282 5.90426 2.00792 5.66303C1.50303 5.4218 1 4.50738 1 3.92581" stroke="#505050" stroke-width="1.5" stroke-miterlimit="10" stroke-linecap="round" stroke-linejoin="round"/>
<path d="M21.2334 10.4933H20.4424C20.2535 9.02345 19.5728 7.67892 18.5443 6.58311C18.2245 6.2409 18.7762 4.40457 18.3928 4.11472C18.0095 3.82487 16.6893 5.0815 16.2498 4.84963C14.8773 4.12594 13.256 3.70706 11.5206 3.70706C6.56329 3.70706 2.54468 7.1198 2.54468 11.3291C2.54468 13.5544 3.66854 15.5572 5.45999 16.9522C5.11778 17.3636 4.90835 17.9022 4.90835 18.4968C4.90835 19.7815 5.88261 20.8231 7.08314 20.8231C8.21823 20.8231 9.14948 19.8918 9.24859 18.7063C9.97415 18.8671 10.7352 18.9531 11.5206 18.9531C12.1676 18.9531 12.7997 18.8933 13.4093 18.7829C13.5421 19.933 14.4565 20.8231 15.5654 20.8231C16.766 20.8231 17.7402 19.7815 17.7402 18.4968C17.7402 17.9901 17.5869 17.5226 17.3288 17.1392C18.1871 16.5202 18.9071 15.7666 19.4419 14.9158H21.2334C21.656 14.9158 22.0001 14.5493 22.0001 14.0967V11.3123C22.0001 10.8598 21.656 10.4933 21.2334 10.4933Z" stroke="#505050" stroke-width="1.5" stroke-miterlimit="10" stroke-linecap="round" stroke-linejoin="round"/>
<path d="M18.3909 16.2322C18.3909 16.2322 16.9603 17.5281 15.7878 17.9732" stroke="#505050" stroke-width="1.5" stroke-miterlimit="10" stroke-linecap="round" stroke-linejoin="round"/>
<path d="M11.1391 18.9456C11.1391 18.9456 9.27283 18.9605 7.40845 17.9302" stroke="#505050" stroke-width="1.5" stroke-miterlimit="10" stroke-linecap="round" stroke-linejoin="round"/>
<path d="M17.0352 10.1959C17.2717 10.1959 17.4634 10.0042 17.4634 9.76767C17.4634 9.53117 17.2717 9.33945 17.0352 9.33945C16.7987 9.33945 16.6069 9.53117 16.6069 9.76767C16.6069 10.0042 16.7987 10.1959 17.0352 10.1959Z" fill="#505050" stroke="#505050" stroke-miterlimit="10" stroke-linecap="round" stroke-linejoin="round"/>
<path d="M9.39438 6.09502C11.1466 5.71354 12.693 5.87249 13.7253 6.09315C14.2021 5.57142 14.4938 4.87578 14.4938 4.11283C14.4938 2.49154 13.1792 1.17694 11.558 1.17694C9.93667 1.17694 8.62207 2.49154 8.62207 4.11283C8.62207 4.87765 8.91379 5.57329 9.39251 6.09689" fill="#2AA967"/>
<path d="M9.39438 6.09502C11.1466 5.71354 12.693 5.87249 13.7253 6.09315C14.2021 5.57142 14.4938 4.87578 14.4938 4.11283C14.4938 2.49154 13.1792 1.17694 11.558 1.17694C9.93667 1.17694 8.62207 2.49154 8.62207 4.11283C8.62207 4.87765 8.91379 5.57329 9.39251 6.09689" stroke="#505050" stroke-width="1.5" stroke-miterlimit="10" stroke-linecap="round" stroke-linejoin="round"/>
<path d="M15.0548 6.48585C15.0548 6.48585 13.2578 5.70607 10.78 5.89307C9.93667 5.95665 9.01664 6.13055 8.0592 6.48585" stroke="#505050" stroke-width="1.5" stroke-miterlimit="10" stroke-linecap="round" stroke-linejoin="round"/>
</svg>
