<svg width="64" height="64" viewBox="0 0 64 64" fill="none" xmlns="http://www.w3.org/2000/svg">
<path d="M9.3775 30.4475V30.5575C8.7675 31.3075 8.4175 32.2525 8.4175 33.2375V51.5725C8.4175 54.4675 10.7725 56.8225 13.6675 56.8225H31.7575C32.7775 56.8225 33.7475 56.4525 34.5075 55.8025H53.4725C56.0075 55.8025 58.0675 53.7425 58.0675 51.2075V46.1525C58.0675 44.6025 57.3025 43.2225 56.1075 42.3875C57.3025 41.5575 58.0675 40.1725 58.0675 38.6175V33.5575C58.0675 33.4425 58.0625 33.3275 58.0525 33.2125C58.0625 33.1075 58.0675 32.9925 58.0675 32.8675V27.8075C58.0675 26.2575 57.3025 24.8775 56.1075 24.0425C57.3025 23.2125 58.0675 21.8275 58.0675 20.2725V15.2125C58.0675 12.6775 56.0075 10.6175 53.4725 10.6175H51.0625C49.6625 8.49249 47.2675 7.17749 44.6425 7.17749C42.0175 7.17749 39.6225 8.49249 38.2225 10.6175H35.8125C35.7025 10.6175 35.5875 10.6225 35.4675 10.6325C35.3625 10.6225 35.2475 10.6175 35.1225 10.6175H32.7175C31.3175 8.49249 28.9225 7.17749 26.2975 7.17749C25.7075 7.17749 25.1175 7.24749 24.5425 7.37749C23.9725 7.24249 23.3875 7.17749 22.7975 7.17749C20.1875 7.17749 17.7975 8.49249 16.3875 10.6175H13.6225C11.2775 10.6175 9.3725 12.5225 9.3725 14.8675V17.6325C7.2475 19.0375 5.9325 21.4325 5.9325 24.0425C5.9325 26.6525 7.2525 29.0425 9.3775 30.4475Z" fill="white"/>
<path d="M13.6675 51.5725H12.6675C12.6675 52.1225 13.1175 52.5725 13.6675 52.5725V51.5725ZM12.6675 35.5325C12.6675 36.0825 13.1175 36.5325 13.6675 36.5325C14.2225 36.5325 14.6675 36.0825 14.6675 35.5325H12.6675ZM14.6675 40.1175C14.6675 39.5675 14.2225 39.1175 13.6675 39.1175C13.1175 39.1175 12.6675 39.5675 12.6675 40.1175H14.6675ZM12.6675 44.6975C12.6675 45.2475 13.1175 45.6975 13.6675 45.6975C14.2225 45.6975 14.6675 45.2475 14.6675 44.6975H12.6675ZM14.6675 49.2825C14.6675 48.7325 14.2225 48.2825 13.6675 48.2825C13.1175 48.2825 12.6675 48.7325 12.6675 49.2825H14.6675ZM15.9275 52.5725C16.4825 52.5725 16.9275 52.1225 16.9275 51.5725C16.9275 51.0225 16.4825 50.5725 15.9275 50.5725V52.5725ZM20.4525 50.5725C19.8975 50.5725 19.4525 51.0225 19.4525 51.5725C19.4525 52.1225 19.8975 52.5725 20.4525 52.5725V50.5725ZM24.9725 52.5725C25.5225 52.5725 25.9725 52.1225 25.9725 51.5725C25.9725 51.0225 25.5225 50.5725 24.9725 50.5725V52.5725ZM29.4975 50.5725C28.9425 50.5725 28.4975 51.0225 28.4975 51.5725C28.4975 52.1225 28.9425 52.5725 29.4975 52.5725V50.5725ZM12.6675 33.2425V35.5325H14.6675V33.2425H12.6675ZM12.6675 40.1175V44.7025H14.6675V40.1175H12.6675ZM12.6675 49.2825V51.5725H14.6675V49.2825H12.6675ZM13.6675 52.5725H15.9275V50.5725H13.6675V52.5725ZM20.4525 52.5725H24.9725V50.5725H20.4525V52.5725ZM29.4975 52.5725H31.7575V50.5725H29.4975V52.5725Z" fill="#BFE5D1"/>
<path d="M53.8175 20.2725V15.2125C53.8175 15.0225 53.6625 14.8675 53.4725 14.8675H48.4125C48.2375 14.8675 48.0875 14.7325 48.0725 14.5575C47.9175 12.8025 46.4425 11.4275 44.6475 11.4275C42.8525 11.4275 41.3775 12.8025 41.2225 14.5575C41.2075 14.7325 41.0575 14.8675 40.8825 14.8675H35.8225C35.6325 14.8675 35.4775 15.0225 35.4775 15.2125V20.2725C35.4775 20.4525 35.3425 20.5975 35.1675 20.6125C33.4125 20.7675 32.0375 22.2425 32.0375 24.0375C32.0375 25.8325 33.4125 27.3075 35.1675 27.4625C35.3425 27.4775 35.4775 27.6275 35.4775 27.8025V32.8625C35.4775 33.0525 35.6325 33.2075 35.8225 33.2075H40.8825C41.0625 33.2075 41.2075 33.0725 41.2225 32.8975C41.3825 31.1425 42.8525 29.7675 44.6475 29.7675C46.4425 29.7675 47.9175 31.1425 48.0725 32.8975C48.0875 33.0725 48.2375 33.2075 48.4125 33.2075H53.4725C53.6625 33.2075 53.8175 33.0525 53.8175 32.8625V27.8075C53.8175 27.6275 53.6825 27.4825 53.5075 27.4675C51.7525 27.3075 50.3775 25.8375 50.3775 24.0425C50.3775 22.2475 51.7525 20.7725 53.5075 20.6175C53.6825 20.5975 53.8175 20.4525 53.8175 20.2725Z" fill="#BFE5D1"/>
<path d="M53.8175 38.6175V33.5575C53.8175 33.3675 53.6625 33.2125 53.4725 33.2125H48.4125C48.2375 33.2125 48.0875 33.0775 48.0725 32.9025C47.9125 31.1475 46.4425 29.7725 44.6475 29.7725C42.8525 29.7725 41.3775 31.1475 41.2225 32.9025C41.2075 33.0775 41.0575 33.2125 40.8825 33.2125H35.8225C35.6325 33.2125 35.4775 33.3675 35.4775 33.5575V38.6175C35.4775 38.7975 35.3425 38.9425 35.1675 38.9575C33.4125 39.1175 32.0375 40.5875 32.0375 42.3825C32.0375 44.1775 33.4125 45.6525 35.1675 45.8075C35.3425 45.8225 35.4775 45.9725 35.4775 46.1475V51.2075C35.4775 51.3975 35.6325 51.5525 35.8225 51.5525H40.8825C41.0625 51.5525 41.2075 51.4175 41.2225 51.2425C41.3825 49.4875 42.8525 48.1125 44.6475 48.1125C46.4425 48.1125 47.9175 49.4875 48.0725 51.2425C48.0875 51.4175 48.2375 51.5525 48.4125 51.5525H51.5275H53.4775C53.6675 51.5525 53.8225 51.3975 53.8225 51.2075V46.1525C53.8225 45.9725 53.6875 45.8275 53.5125 45.8125C51.7575 45.6525 50.3825 44.1825 50.3825 42.3875C50.3825 40.5925 51.7575 39.1175 53.5125 38.9625C53.6825 38.9425 53.8175 38.7975 53.8175 38.6175Z" fill="#BFE5D1"/>
<path d="M35.4725 20.2725V15.2125C35.4725 15.0225 35.3175 14.8675 35.1275 14.8675H30.0675C29.8875 14.8675 29.7425 14.7325 29.7275 14.5575C29.5725 12.8025 28.0975 11.4275 26.3025 11.4275C24.5025 11.4275 23.0325 12.8025 22.8775 14.5575C22.8625 14.7325 22.7125 14.8675 22.5375 14.8675H17.4775C17.2875 14.8675 17.1325 15.0225 17.1325 15.2125V20.2725C17.1325 20.4525 16.9975 20.5975 16.8225 20.6125C15.0675 20.7675 13.6925 22.2425 13.6925 24.0375C13.6925 25.8325 15.0675 27.3075 16.8225 27.4625C16.9975 27.4775 17.1325 27.6275 17.1325 27.8025V32.8625C17.1325 33.0525 17.2875 33.2075 17.4775 33.2075H22.5375C22.7175 33.2075 22.8625 33.0725 22.8775 32.8975C23.0325 31.1425 24.5075 29.7675 26.3025 29.7675C28.0975 29.7675 29.5725 31.1425 29.7275 32.8975C29.7425 33.0725 29.8925 33.2075 30.0675 33.2075H35.1275C35.3175 33.2075 35.4725 33.0525 35.4725 32.8625V27.8075C35.4725 27.6275 35.3375 27.4825 35.1625 27.4675C33.4075 27.3125 32.0325 25.8375 32.0325 24.0425C32.0325 22.2475 33.4075 20.7725 35.1625 20.6175C35.3375 20.5975 35.4725 20.4525 35.4725 20.2725Z" fill="#BFE5D1"/>
<path d="M37.7025 33.2125C37.7025 31.3125 39.2425 29.7725 41.1425 29.7725C43.0425 29.7725 44.5825 31.3125 44.5825 33.2125H50.3175V38.9475C48.4175 38.9475 46.8775 40.4875 46.8775 42.3875C46.8775 44.2875 48.4175 45.8275 50.3175 45.8275V51.5625H44.5825C44.5825 49.6625 43.0425 48.1225 41.1425 48.1225C39.2425 48.1225 37.7025 49.6625 37.7025 51.5625H31.9675V45.8225C30.0675 45.8225 28.5275 44.2825 28.5275 42.3825C28.5275 40.4825 30.0675 38.9425 31.9675 38.9425V33.2125V27.4775C30.0675 27.4775 28.5275 25.9375 28.5275 24.0375C28.5275 22.1375 30.0675 20.5975 31.9675 20.5975V14.8675H26.2375C26.2375 12.9675 24.6975 11.4275 22.7975 11.4275C20.8975 11.4275 19.3575 12.9675 19.3575 14.8675H17.0625H13.6225V20.6025C11.7225 20.6025 10.1825 22.1425 10.1825 24.0425C10.1825 25.9425 11.7225 27.4825 13.6225 27.4825V33.2175H19.3575C19.3575 31.3175 20.8975 29.7775 22.7975 29.7775C24.6975 29.7775 26.2375 31.3175 26.2375 33.2175" stroke="#26985D" stroke-width="2" stroke-miterlimit="10" stroke-linecap="round" stroke-linejoin="round"/>
</svg>
