<svg xmlns="http://www.w3.org/2000/svg" fill="none" viewBox="0 0 50 50"><defs/><path fill="#52AD55" d="M7.045.36C3.36.36.36 3.385.36 7.08A1.12 1.12 0 001.48 8.2l6.563-.053a1.12 1.12 0 10-.018-2.24l-5.197.035C3.335 4.026 4.978 2.6 7.045 2.6h.49c.101.038.208.062.315.07 2.092.377 3.57 2.102 3.57 4.34v35.962c0 3.714 3.103 6.668 6.773 6.668h24.762c3.67 0 6.685-2.973 6.685-6.668a1.12 1.12 0 00-1.12-1.12h-3.727V7.08c0-3.695-3-6.72-6.685-6.72H7.045zm4.953 2.24h26.11c2.47 0 4.445 1.99 4.445 4.48v34.773H23.618a1.12 1.12 0 00-1.12 1.12c0 1.032-.272 1.806-.823 2.485-.55.678-1.431 1.277-2.66 1.75a1.117 1.117 0 00-.315.192h-.507c-2.486 0-4.533-1.956-4.533-4.428V7.01a6.635 6.635 0 00-1.662-4.41zm5.967 8.82a1.121 1.121 0 10.123 2.24h20.055a1.119 1.119 0 00.802-1.918 1.119 1.119 0 00-.802-.322H18.088a1.088 1.088 0 00-.123 0zm.123 6.912a1.12 1.12 0 100 2.24h20.055a1.119 1.119 0 00.802-1.917 1.12 1.12 0 00-.802-.323H18.088zm-.123 6.93a1.121 1.121 0 10.123 2.24h20.055a1.119 1.119 0 00.802-1.917 1.12 1.12 0 00-.802-.323H18.088a1.088 1.088 0 00-.123 0zm0 6.913a1.121 1.121 0 10.123 2.24H30.18a1.119 1.119 0 00.803-1.918 1.12 1.12 0 00-.803-.322H18.088a1.088 1.088 0 00-.123 0zm6.598 11.918h22.61c-.498 1.91-2.13 3.307-4.218 3.307H22.813c.19-.183.43-.322.595-.525.636-.783.977-1.76 1.155-2.782z"/></svg>