<svg xmlns="http://www.w3.org/2000/svg" fill="none" viewBox="0 0 84 90"><path fill="#BFE5D1" d="M35.148 11.756c-10.636 0-13.557 8.605-13.696 12.913-4.04-.782-12.12.228-12.12 10.556 0 12.913 25.816 13.696 36.768 13.696 10.953 0 39.513-3.13 37.166-15.26-1.882-9.705-11.478-13.696-16.043-14.478 1.436-3.13 1.327-10.646-10.566-15.647-11.883-5-19.29 3.397-21.509 8.22Z"/><path stroke="#26985D" stroke-linecap="round" stroke-linejoin="round" stroke-width="4" d="M28.414 11.756c-10.635 0-13.557 8.605-13.695 12.913-4.04-.782-12.121.228-12.121 10.556 0 12.913 25.816 13.696 36.769 13.696 10.952 0 39.512-3.13 37.165-15.26-1.882-9.705-11.477-13.696-16.042-14.478 1.435-3.13 1.326-10.646-10.567-15.647-11.883-5-19.29 3.397-21.509 8.22Z"/><path fill="#26985D" d="M20 39.397a3.272 3.272 0 1 0 .001-6.544 3.272 3.272 0 0 0 0 6.544Z"/><path stroke="#26985D" stroke-linecap="round" stroke-width="3.272" d="M42.905 39.397c0-1.549-1.465-2.805-3.272-2.805-1.807 0-3.272 1.256-3.272 2.805"/><path fill="#26985D" d="M59.266 39.397a3.272 3.272 0 1 0 0-6.544 3.272 3.272 0 0 0 0 6.544Z"/><path stroke="#26985D" stroke-linecap="round" stroke-width="3.816" d="M31.552 56.553v7.633M31.552 71.818v3.816"/><path stroke="#26985D" stroke-linecap="round" stroke-width="4" d="M43 56.553v7.633M54.449 56.553v3.816"/><ellipse cx="43" cy="86.633" fill="#BFE5D1" rx="19.78" ry="3.367"/></svg>