<svg xmlns="http://www.w3.org/2000/svg" fill="none" viewBox="0 0 21 22"><path fill="#A24536" d="M17 7.29995c-.0833 0-.1708-.025-.2625-.075-.0916-.05-.1541-.125-.1875-.225l-.8-1.75-1.75-.8c-.1-.03333-.175-.09583-.225-.1875-.05-.09167-.075-.17917-.075-.2625 0-.08333.025-.17083.075-.2625.05-.09167.125-.15417.225-.1875l1.75-.8.8-1.749999c.0334-.1.0959-.175.1875-.225.0917-.05.1792-.075.2625-.075.0834 0 .1709.025.2625.075.0917.05.1542.125.1875.225l.8 1.749999 1.75.8c.1.03333.1751.09583.225.1875.05.09167.075.17917.075.2625 0 .08333-.025.17083-.075.2625-.0499.09167-.125.15417-.225.1875l-1.75.8-.8 1.75c-.0333.1-.0958.175-.1875.225-.0916.05-.1791.075-.2625.075ZM17 21.3c-.0833 0-.1708-.025-.2625-.075-.0916-.05-.1541-.125-.1875-.225l-.8-1.75-1.75-.8c-.1-.0334-.175-.0959-.225-.1875-.05-.0917-.075-.1792-.075-.2625 0-.0834.025-.1709.075-.2625.05-.0917.125-.1542.225-.1875l1.75-.8.8-1.75c.0334-.1.0959-.175.1875-.225.0917-.05.1792-.075.2625-.075.0834 0 .1709.025.2625.075.0917.05.1542.125.1875.225l.8 1.75 1.75.8c.1.0333.1751.0958.225.1875.05.0916.075.1791.075.2625 0 .0833-.025.1708-.075.2625-.0499.0916-.125.1541-.225.1875l-1.75.8-.8 1.75c-.0333.1-.0958.175-.1875.225-.0916.05-.1791.075-.2625.075Zm-9.99995-3.725c-.18333 0-.35833-.05-.525-.15-.16667-.1-.29167-.2417-.375-.425l-1.6-3.5-3.5-1.6c-.183335-.0834-.325001-.2084-.425001-.375-.1-.1667-.15-.3417-.15-.525 0-.1834.05-.3584.15-.525.1-.1667.241666-.2917.425001-.375l3.5-1.60005 1.6-3.5c.08333-.18333.20833-.325.375-.425.16667-.1.34167-.15.525-.15.18333 0 .35833.05.525.15.16667.1.29167.24167.375.425l1.6 3.5L13 10.1c.1834.0833.325.2083.425.375.1.1666.15.3416.15.525 0 .1833-.05.3583-.15.525-.1.1666-.2416.2916-.425.375l-3.49995 1.6-1.6 3.5c-.08333.1833-.20833.325-.375.425-.16667.1-.34167.15-.525.15Z"/></svg>