<svg width="128" height="128" viewBox="0 0 128 128" fill="none" xmlns="http://www.w3.org/2000/svg">
<path d="M63.694 24.0628V20" stroke="#26985D" stroke-width="4" stroke-miterlimit="10" stroke-linecap="round" stroke-linejoin="round"/>
<path d="M55.0793 27.6366L52.2015 24.7588" stroke="#26985D" stroke-width="4" stroke-miterlimit="10" stroke-linecap="round" stroke-linejoin="round"/>
<path d="M72.318 27.6366L75.1864 24.7588" stroke="#26985D" stroke-width="4" stroke-miterlimit="10" stroke-linecap="round" stroke-linejoin="round"/>
<path d="M70.7841 44.6657C59.0348 50.9484 65.8877 86.6685 70.7841 103.747C90.8711 112.34 103.476 105.949 107.261 101.682C100.625 80.199 103.466 70.2882 105.845 59.1287C107.743 50.2012 101.893 53.4851 98.7368 56.2381C99.0515 51.1451 99.1203 40.3691 96.8392 38.0585C94.568 35.748 91.1563 37.095 89.7306 38.0585C88.2165 33.4276 82.7793 36.1314 80.2525 38.0585C76.8505 32.7688 72.5244 40.2609 70.7841 44.6657Z" fill="#BFE5D1"/>
<path d="M97.9995 103.511C95.7774 95.4485 92.2969 76.6594 96.1511 66.021C100.969 52.7182 89.4849 51.9119 87.2628 72.0678" stroke="#26985D" stroke-width="4" stroke-linecap="round"/>
<path d="M88.6491 63.8481C90.4287 55.4613 92.1592 38.9434 87.8822 39.9266C82.5336 41.1654 82.0026 52.7083 81.4619 63.8481" stroke="#26985D" stroke-width="4" stroke-linecap="round"/>
<path d="M83.9101 43.9873C84.1854 41.254 82.8679 36.5444 78.9645 38.8451C75.0612 41.1458 75.4348 57.0247 76.1132 64.6741" stroke="#26985D" stroke-width="4" stroke-linecap="round"/>
<path d="M76.5163 41.9717C75.1201 39.7693 70.3319 36.6918 68.9947 41.9717C67.6576 47.2515 68.4343 59.8563 68.9947 65.4999" stroke="#26985D" stroke-width="4" stroke-linecap="round"/>
<path d="M68.2475 48.2151C67.1954 46.465 62.8005 46.4158 61.542 56.1103C59.959 68.2235 60.7554 96.6579 65.8779 104.337" stroke="#26985D" stroke-width="4" stroke-linecap="round"/>
<path d="M20.7387 102.803C23.2164 94.544 27.1001 75.2927 22.8035 64.3791C17.4351 50.742 30.2365 49.9161 32.7142 70.5733" stroke="#26985D" stroke-width="4" stroke-linecap="round"/>
<path d="M30.6495 61.7146C28.801 53.3278 27.0116 36.8098 31.4459 37.7931C36.9814 39.0319 37.532 50.5748 38.0924 61.7146" stroke="#26985D" stroke-width="4" stroke-linecap="round"/>
<path d="M35.6147 41.8832C35.3394 39.1302 36.6766 34.3813 40.6389 36.7017C44.6013 39.0122 44.2178 55.0189 43.5296 62.7273" stroke="#26985D" stroke-width="4" stroke-linecap="round"/>
<path d="M43.0478 40.0052C44.4243 37.8028 49.1634 34.7156 50.4809 40.0052C51.7984 45.2949 51.0315 57.9095 50.4809 63.5532" stroke="#26985D" stroke-width="4" stroke-linecap="round"/>
<path d="M51.3068 45.7866C52.408 43.9971 57.0094 43.948 58.3269 53.8587C59.9787 66.257 59.1528 95.3601 53.7845 103.206" stroke="#26985D" stroke-width="4" stroke-linecap="round"/>
</svg>
