<svg width="128" height="128" viewBox="0 0 128 128" fill="none" xmlns="http://www.w3.org/2000/svg">
<path d="M68.7028 103.816C89.8545 103.816 108 85.3183 108 63.7454C108 42.1823 89.8545 24.693 68.7028 24.693C47.551 24.693 30.3945 42.1725 30.3945 63.7454C30.3945 85.3183 47.551 103.816 68.7028 103.816Z" fill="#BFE5D1"/>
<path d="M38.8063 36.0228C38.8063 34.1133 38.7671 32.2038 39.4526 30.4019C38.5517 30.4019 36.8771 31.4106 36.2896 32.0863C35.8391 32.6053 35.0753 33.0068 34.5367 33.467C34.0765 33.8685 33.6456 34.2896 33.2441 34.7498C32.5489 35.5332 31.7752 36.4831 30.9723 37.1392C30.1399 37.8149 29.6405 38.6962 28.9648 39.509C28.1129 40.5176 27.212 41.4968 26.3894 42.5348C24.0098 45.5313 21.9142 49.4581 21.2777 53.287C20.9741 55.1182 20.4747 56.8711 20.2495 58.7218C20.1516 59.5542 19.8578 60.651 20.083 61.4931C20.416 62.727 20.9546 63.9706 21.4736 65.1457C22.2374 66.8888 22.7955 68.955 23.9315 70.4924C24.5973 71.4031 24.9793 72.5195 25.6158 73.4595C26.1641 74.2821 26.6244 75.1438 27.0651 76.0252C27.8681 77.6409 29.0333 79.0608 29.6503 80.7745C29.9734 81.6656 30.3553 82.5959 30.4924 83.5458C30.6002 84.2509 30.9821 84.8874 31.031 85.5924C31.0898 86.4346 31.2367 87.3159 31.364 88.1483C31.4913 89.0002 31.5207 89.813 31.7557 90.6551C32.1376 92.0261 33.3029 93.3285 34.0765 94.4938C34.5074 95.1303 35.1047 96.0018 35.8 96.3348C36.319 96.5894 36.8869 96.8146 37.3766 97.1182C38.0033 97.5001 38.9727 96.7657 39.4232 96.3054C40.236 95.4731 40.6375 94.0629 40.9998 92.9858C41.3327 92.0163 41.8713 91.0468 42.547 90.2732C43.5067 89.1765 44.7993 88.1091 45.9744 87.2376C46.6207 86.7577 47.0515 85.7785 47.5314 85.1322C48.2364 84.1823 48.8436 83.0268 49.2157 81.9007C49.7249 80.3828 49.0688 80.187 48.1091 79.2665C47.0907 78.2872 46.1604 77.4745 45.3281 76.3091C44.5642 75.232 43.634 74.2625 42.9387 73.1462C42.3707 72.2453 41.8811 71.4031 41.1271 70.6393C40.0793 69.5915 38.7475 68.8864 37.5234 68.0737C35.516 66.7419 33.8708 64.2448 32.4705 62.2569C31.4227 60.7783 30.5708 59.0254 31.0702 57.1844C31.3933 56.0093 32.1768 55.2161 32.8524 54.2271C33.8709 52.7288 34.9872 51.3677 35.8881 49.8009C37.5626 46.9121 39.5701 43.7589 39.5701 40.312C39.5799 38.7647 38.8063 37.5015 38.8063 36.0228Z" fill="#26985D"/>
<path d="M62.4356 26.6221C61.711 25.7212 60.1833 24.8496 59.0572 24.5754C57.1378 24.5754 55.336 24.1837 53.4363 24.1837C52.2808 24.1837 50.8608 24.2621 49.7445 24.5754C48.4813 24.9378 47.1299 24.9182 45.8667 25.3686C44.8972 25.7212 44.1138 26.6417 43.7221 27.5817C43.5361 28.0322 43.3206 28.9429 43.7907 29.2562C44.4174 29.6675 44.8972 30.304 45.3477 30.9112C46.0723 31.8904 45.9646 33.2516 46.5423 34.2994C46.9047 34.9555 47.1103 35.592 47.7762 36.0425C48.2071 36.3264 48.7946 36.8356 49.3038 36.8356C52.0947 36.8356 54.6603 35.9347 57.3435 35.2884C59.6251 34.7303 64.1297 34.319 63.9632 31.0189C63.9143 30.1278 63.7478 29.2073 63.5225 28.3456C63.3169 27.5524 62.9252 27.2292 62.4356 26.6221Z" fill="#26985D"/>
<path fill-rule="evenodd" clip-rule="evenodd" d="M55.1205 83.5948C53.6419 83.5948 52.4374 84.7993 52.4374 86.2779C52.4374 87.7566 53.6419 88.9611 55.1205 88.9611C56.5992 88.9611 57.8037 87.7664 57.8037 86.2779C57.8037 84.7895 56.5992 83.5948 55.1205 83.5948ZM49.8424 89.9305C48.3637 89.9305 47.1592 91.1252 47.1592 92.6137C47.1592 94.1021 48.3637 95.2968 49.8424 95.2968C51.321 95.2968 52.5255 94.0923 52.5255 92.6137C52.5255 91.135 51.321 89.9305 49.8424 89.9305ZM57.226 92.0359C55.7473 92.0359 54.5428 93.2404 54.5428 94.7191C54.5428 96.1977 55.7473 97.4022 57.226 97.4022C58.7046 97.4022 59.9091 96.2075 59.9091 94.7191C59.9091 93.2306 58.7046 92.0359 57.226 92.0359Z" fill="#26985D"/>
<path d="M60.1343 103.601C81.2861 103.601 99.4316 85.1028 99.4316 63.5398C99.4316 41.9767 81.2861 24.4873 60.1343 24.4873C38.9826 24.4873 21.8261 41.9669 21.8261 63.5398C21.8261 85.1028 38.9728 103.601 60.1343 103.601Z" stroke="#26985D" stroke-width="4" stroke-miterlimit="10" stroke-linecap="round" stroke-linejoin="round"/>
<path d="M87.9842 70.2182C88.699 68.8865 89.2964 67.5449 90.1483 66.2915C91.1961 64.754 92.0774 62.9718 93.4777 61.7086C94.0555 61.1896 94.5745 60.4257 95.0837 59.8088C95.5048 59.3094 95.8769 58.9471 96.1511 58.3889C96.2393 58.1931 96.6016 57.8209 96.7681 57.6643C96.9443 57.4978 97.0716 57.0278 97.2283 56.9396C97.7081 56.6556 97.9725 55.9995 98.1292 55.4805C98.2369 55.1378 98.2663 54.7265 98.2859 54.2956C96.0532 45.3747 90.6771 37.6484 83.4895 32.3017C83.0782 32.1842 82.6767 32.0373 82.3045 31.861C82.1087 31.7729 81.7463 31.6652 81.6582 31.4987C80.5027 30.7643 78.838 32.1548 77.4671 32.1548C76.8795 32.1548 76.5368 32.4094 76.0667 32.7718C75.0091 33.5845 74.0495 34.505 72.7177 34.8086C71.8462 35.0142 70.5731 35.7878 69.9464 36.395C68.7224 37.5799 67.1457 39.0487 66.5386 40.7135C66.4015 41.0954 66.3819 41.3989 66.3819 41.8004C66.3819 43.1224 67.7823 43.4847 68.8301 43.9058C70.1521 44.4346 71.6797 44.8753 73.1094 44.9536C74.118 45.0026 75.1365 44.8655 76.1353 44.9634C77.8392 45.1299 79.2493 46.0797 80.9532 46.4127C82.3437 46.6869 83.6853 47.1863 85.0954 47.4311C85.9277 47.578 86.0355 48.3222 86.3194 49.0175C86.574 49.6442 86.7797 50.457 86.1334 50.9172C85.4087 51.4362 84.4883 51.5342 83.6657 51.8377C83.0782 52.0532 82.5004 52.2784 81.8737 52.4057C77.6041 53.2772 73.8634 50.8781 69.6918 50.8781C67.371 50.8781 65.7944 51.2991 64.159 53.0128C63.1994 54.0215 62.7098 55.2749 61.9264 56.401C61.1821 57.4586 60.7513 58.8394 60.3791 60.083C59.6251 62.5899 60.3204 64.852 61.6718 67.0063C62.3474 68.0835 63.5226 68.9256 64.6291 69.5132C65.2265 69.8265 65.7063 70.2868 66.284 70.6393C67.136 71.1583 68.0662 71.4423 68.9965 71.7557C69.7016 72.0005 69.7898 72.5782 70.1423 73.1658C70.8865 74.3898 71.4447 75.9077 71.9441 77.2493C72.5022 78.7181 73.1682 80.187 73.6284 81.6852C73.9026 82.5764 74.118 83.5067 74.5293 84.3488C75.4302 86.18 76.9481 87.8545 78.7009 88.8338C79.4647 89.2548 81.1882 89.0492 82.0206 88.9415C83.039 88.8044 84.2239 87.2376 84.8016 86.4542C85.4088 85.6316 85.9376 84.3782 86.2901 83.4185C86.7308 82.2434 87.0833 80.7941 87.0833 79.5309C87.0833 77.4549 86.7307 75.2712 86.9853 73.2049C87.093 72.2551 87.5337 71.0506 87.9842 70.2182Z" fill="#26985D"/>
</svg>
