<svg xmlns="http://www.w3.org/2000/svg" viewBox="0 0 91 116">
  <g fill-rule="nonzero" fill="none">
    <path fill="#3F3D56" d="M53.92008 113.2229H0v-.4458h54z"/>
    <path fill="#B9CBFF" d="M18.46154 106.7898L15 107l.46154-33H24z"/>
    <path fill="#A0616A" d="M34.8924 106.7898L32 107l.38565-33L37 74.00126z"/>
    <path d="M37.56098 103.86116c-3.44671 1.53005-6.68638 1.45204-9.77008.16256l-1.64456-38.40876-4.71043 38.07256c-3.4443.82945-6.92569.82581-10.43591.17364.80849-5.70332 4.25988-40.4246 3.95122-46.79283L38 56l-.43902 47.86116zM17.99999 116c-.82642 0-1.61624-.3557-2.18308-.98318s-.86049-1.47115-.81166-2.33192l.28616-5.04487c1.15226-2.15557 2.55085-2.16428 4.18087-.1558l1.37988 4.41517c.2979.95317.14018 1.99755-.4242 2.80896C19.8636 115.51976 18.96087 116 18 116zM32.99999 116c-.82642 0-1.61624-.3557-2.18308-.98318s-.86049-1.47115-.81166-2.33192l.28616-5.04487c1.15226-2.15557 2.55085-2.16428 4.18087-.1558l1.37988 4.41517c.2979.95317.14018 1.99755-.4242 2.80896C34.8636 115.51976 33.96086 116 33 116z" fill="#2F2E41"/>
    <circle fill="#B9CBFF" cx="29.5" cy="8.5" r="6.5"/>
    <path d="M29 20l-10-4.04255C21.3932 14.7844 23.01809 12.60439 24.31915 10h4.46808c-.21313 3.974-.38476 7.85442.21277 10z" fill="#B9CBFF"/>
    <path d="M39 57.355L15.42798 58c.28707-11.56253-.21653-23.45998-1.39822-35.64466-.27249-2.82432 1.34835-5.48276 3.94988-6.47846L20.26866 15l9.26044 2.58 4.3705 3.42293c1.18933.93451 1.84088 2.41585 1.7351 3.94482-.66166 9.87094.81569 20.85908 3.3653 32.40725z" fill="#629261"/>
    <path d="M40.86475 65.99563c-1.20326.07897-2.25062-.92233-2.38366-2.27883L38 58.81116 40.57121 58l2.12304 4.1462c.3948.77101.40808 1.71876.03509 2.50357-.373.78481-1.07885 1.2943-1.86459 1.34586z" fill="#A0616A"/>
    <path d="M44 58.7877L38.39216 59l-4.31373-16.98324L33 21c2.03044.2498 3.63055 1.8225 3.88723 3.82062l1.9363 15.07323L44 58.78771z" fill="#629261"/>
    <path fill="#000" opacity=".2" d="M18.20455 28L18 42.14286 27 58l-7.97727-16.28571zM15 48l5 10-1.77192-.11157z"/>
    <path d="M27.9697 47c-.53529.00063-.9697.434-.9697.96877v60.06248c0 .53477.43442.96813.9697.96875h62.0606c.5353-.00063.9697-.43398.9697-.96875v-60.0625c0-.53476-.4344-.96812-.9697-.96875H27.9697z" fill="#E6E6E6"/>
    <path fill="#FFF" d="M29 106h59V49H29z"/>
    <path d="M33.73062 58C33.32777 58 33 58.67293 33 59.5s.32777 1.5.73062 1.5h27.53876C61.67223 61 62 60.32707 62 59.5c0-.82708-.32777-1.5-.73062-1.5H33.73062zM33.73062 67C33.32777 67 33 67.67293 33 68.5c0 .82708.32777 1.5.73062 1.5h27.53876C61.67223 70 62 69.32707 62 68.5s-.32777-1.5-.73062-1.5H33.73062zM33.73062 74C33.32777 74 33 74.67293 33 75.5s.32777 1.5.73062 1.5h27.53876C61.67223 77 62 76.32707 62 75.5c0-.82708-.32777-1.5-.73062-1.5H33.73062zM33.73062 82C33.32777 82 33 82.67293 33 83.5c0 .82708.32777 1.5.73062 1.5h27.53876C61.67223 85 62 84.32707 62 83.5s-.32777-1.5-.73062-1.5H33.73062zM75.33333 58C74.59695 58 74 58.67157 74 59.5s.59695 1.5 1.33333 1.5h5.33334C81.40305 61 82 60.32843 82 59.5s-.59695-1.5-1.33333-1.5h-5.33334zM75.33333 65C74.59695 65 74 65.67157 74 66.5s.59695 1.5 1.33333 1.5h5.33334C81.40305 68 82 67.32843 82 66.5s-.59695-1.5-1.33333-1.5h-5.33334zM75.33333 74C74.59695 74 74 74.67157 74 75.5s.59695 1.5 1.33333 1.5h5.33334C81.40305 77 82 76.32843 82 75.5s-.59695-1.5-1.33333-1.5h-5.33334zM75.33333 82C74.59695 82 74 82.67157 74 83.5s.59695 1.5 1.33333 1.5h5.33334C81.40305 85 82 84.32843 82 83.5s-.59695-1.5-1.33333-1.5h-5.33334z" fill="#E6E6E6"/>
    <path d="M73.66667 93C72.74619 93 72 93.89543 72 95s.7462 2 1.66667 2h6.66666C81.25381 97 82 96.10457 82 95s-.7462-2-1.66667-2h-6.66666z" fill="#629261"/>
    <path fill="#E6E6E6" d="M34 89.78832h48v1H34z"/>
    <path d="M29.39427 65.7249c-1.3641.63496-3.00814.13566-3.74165-1.13636L23 59.98843 25.64069 58l4.23589 3.09296c.7877.57515 1.20763 1.50077 1.1093 2.44512-.09834.94434-.70085 1.77218-1.59161 2.18682z" fill="#B9CBFF"/>
    <path d="M26 58.47059L21.48005 61 11.20743 42.87255l-1.18381-15.9408c-.27279-3.67316 1.83964-7.09357 5.19347-8.4092L16.54919 18l.82181 24.02942L26 58.47059z" fill="#629261"/>
    <path d="M34.45814 2.08775l.06721 1.08422-.5191-1.4887c-1.3055-1.02056-2.8659-1.596-4.47904-1.65175h-.00001c-1.94545-.20844-3.86164.62629-5.1238 2.232-1.26217 1.60572-1.70857 3.77667-1.19366 5.80501L23.2819 9l1.66786-2.46633h.00002c1.52792-1.48995 3.6714-2.00697 5.64467-1.36154.72874.23915 1.42952.56755 2.08856.97873 1.00571.64774 1.9132 1.45737 2.6909 2.40072l.14489-1.05954c.97378-1.96994.3941-3.96972-1.06067-5.40429z" fill="#2F2E41"/>
  </g>
</svg>
