<svg xmlns="http://www.w3.org/2000/svg" viewBox="0 0 572 358">
  <g fill="none" fill-rule="evenodd">
    <path d="M571.76356 161.76695c7.90058 72.30295-183.70186 119.46369-348.61853 86.55134C58.22837 215.40595-17.42757 86.87954 61.26791 18.39562 139.96339-50.08831 563.86298 89.464 571.76356 161.76695z" fill="#F2F2F2"/>
    <ellipse fill="#F2F2F2" fill-rule="nonzero" cx="92" cy="346" rx="75" ry="12"/>
    <g fill="#F2F2F2">
      <path d="M12 315c0 17.12083 1.35207 31 19.5 31S51 332.12083 51 315"/>
      <path d="M37.21522 304.74792a34.9251 34.9251 0 00-1.77785 3.44435c-.01845-2.40368.11682-4.82497.4862-7.27938.6314-4.20423 1.59576-8.38662 2.50195-12.56232.65126-3.0008.61012-8.39085 3.0818-10.7822.67775-.5168.84092.49709.84092.9371.00851.093-.0019-1.79597-.65978-1.46694-3.91042 1.98446-5.17748 8.22422-6.4294 11.34833-1.82656 4.56005-3.3807 9.22155-4.02062 13.96584-.16175 1.1985-.24972 2.39663-.27006 3.59266-.1329-.31988-.25776-.64223-.39586-.96105-2.25696-5.20121-5.30282-10.2763-9.10162-14.95683-.93504-1.15164-12.69232-12.51512-13.6127-10.77586.09082.2526.28094.4622.57087.62884.01702.01902.0175.00845.00757-.01973.69051 1.09598 2.65377 2.78873 3.2653 3.74907 1.539 2.41672 2.73512 4.98139 3.95062 7.4971 2.56817 5.3164 4.95046 10.68637 7.25992 16.0676.53775 1.25345 1.0982 2.49985 1.67002 3.74238C18.688 302.56302 10.8246 294.97892 0 290.63729c3.69712 1.84811 6.12103 5.32522 8.61778 7.98748 3.01133 3.21112 6.18299 6.33594 9.19999 9.54354 3.55854 3.78395 7.74564 7.7687 11.16844 11.95603 3.31544 6.83936 6.53724 13.68612 8.52603 20.87566-.81491-2.484-.06385-5.91671-.20337-8.52366-.11068-2.075-.35756-4.13307-.69573-6.18728.4181.92653.7785 1.85375.94166 2.71616-.14898-1.4465-.32066-2.88385-.50512-4.3138.47344-1.3387.93835-2.58792 1.2524-3.61696 1.60948-5.27871 3.5259-10.46654 6.1357-15.52296 2.41492-4.67736 5.18504-9.29518 8.20346-13.77208 1.408-2.08732 2.83538-4.1669 4.25379-6.24999.92841-1.36371 1.81237-3.5472 3.10497-4.85385-8.35529 7.5059-17.48386 15.06604-22.78478 24.07234"/>
    </g>
    <ellipse fill="#F2F2F2" fill-rule="nonzero" cx="456.5" cy="327" rx="115.5" ry="19"/>
    <path d="M430.44247 149s.97688 3.29615-4.55878 6.26268c-5.53566 2.96653-7.1638 14.17344-.65125 17.46959 6.51255 3.29614 8.4663 7.58114 5.21002 10.54767-3.25629 2.96653-9.11756 10.87732-1.30251 12.85498 7.81505 1.97767 8.79193 5.93307 6.51254 7.58114-2.27939 1.64808 5.21002-2.96653 5.21002-2.96653s1.3025 7.91073 8.14067 5.93307c6.83817-1.97766 26.05017-39.55378 16.28136-44.82762C455.51572 156.58114 430.44247 149 430.44247 149z" fill="#2F2E41" fill-rule="nonzero"/>
    <path d="M442.40385 180.68836s3.30769 11.84765-2.48077 12.69392c-3.59214.57297-6.99616 2.02448-9.92308 4.2313L440.75 212h19.84615L473 199.30608s-16.53846-12.69392-13.23077-20.31027c3.3077-7.61635-17.36538 1.69255-17.36538 1.69255z" fill="#A0B4ED" fill-rule="nonzero"/>
    <path d="M442.40385 180.68836s3.30769 11.84765-2.48077 12.69392c-3.59214.57297-6.99616 2.02448-9.92308 4.2313L440.75 212h19.84615L473 199.30608s-16.53846-12.69392-13.23077-20.31027c3.3077-7.61635-17.36538 1.69255-17.36538 1.69255z" fill="#B9CBFF" fill-rule="nonzero" opacity=".1"/>
    <path fill="#B9CBFF" fill-rule="nonzero" d="M446 328.42445l20.05155 6.73393L480 336l-.87165-11.78463L450.35876 316z"/>
    <path d="M474 325.99345s0 11.58573 1.72093 11.58573 24.95349-2.48266 31.83722 0c6.88372 2.48266 17.2093-6.62042 12.0465-11.58573-5.16278-4.96532-13.5841-12.4133-18.83856-10.7582C495.51163 316.89037 474 321.02814 474 321.02814v4.96532zM409.77359 316s-10.26416 20.69526-3.42139 22.41987c6.84277 1.7246 14.5409-.8623 15.39624-1.72461.85534-.8623 12.8302-4.31151 14.54087-2.5869C438 335.83295 438 327.20992 438 327.20992L409.77359 316z" fill="#575A89" fill-rule="nonzero"/>
    <path d="M419.58995 288s-16.08533 21.75163-4.23299 27.60784c11.85234 5.85621 68.57425 5.85621 72.80725 0 4.233-5.8562 5.92618-24.26143 0-25.93464C482.23804 288 419.58994 288 419.58994 288z" fill="#2F2E41" fill-rule="nonzero"/>
    <path d="M419.58995 288s-16.08533 21.75163-4.23299 27.60784c11.85234 5.85621 68.57425 5.85621 72.80725 0 4.233-5.8562 5.92618-24.26143 0-25.93464C482.23804 288 419.58994 288 419.58994 288z" fill="#000" fill-rule="nonzero" opacity=".2"/>
    <circle fill="#B9CBFF" fill-rule="nonzero" cx="449.5" cy="168.5" r="19.5"/>
    <path d="M420 198.4l16.81818-3.4s4.20455 13.6 17.65909 11.05c13.45454-2.55 16.81819-11.05 16.81819-11.05s10.0909 4.25 10.93182 4.25c.8409 0 11.77272 4.25 11.77272 6.8s-12.61364 28.05-12.61364 28.05l1.68182 45.9-62.2273-1.7 4.20455-45.05L420 198.4z" fill="#629261" fill-rule="nonzero"/>
    <path d="M409 220s-5.33333 45.63889-1.77778 49.08333C410.77778 272.52778 425 282 425 282v-10.33333L417.88889 258.75 425 228.6111 409 220zM498 219s-3.07317 45.76336-3.07317 47.44275c0 1.6794-7.90244 7.55725-10.53658 7.55725C481.7561 274 480 269.80152 480 269.80152l6.14634-6.71755-4.39024-34.42748L498 219z" fill="#B9CBFF" fill-rule="nonzero"/>
    <path d="M490.19714 285.35266s37.93425-21.04349 38.77723 0c.84298 21.04349-19.38862 29.46088-19.38862 29.46088s-52.26497 15.6491-54.37242 9.9289c-2.10746-5.72022-6.32238-14.97933-2.95045-15.82107 3.37193-.84175 7.58685-2.52522 9.27282-.84175 1.68597 1.68348 22.76055-12.62609 22.76055-12.62609l5.90089-10.10087z" fill="#2F2E41" fill-rule="nonzero"/>
    <path d="M507 281s-7.71429 3.46667-10.28571 6.06667C494.14286 289.66667 483 294 483 294" stroke="#000" stroke-width="2" opacity=".2"/>
    <path d="M424.51188 200.66666L419.2797 199s-19.18466 19.16666-13.08045 24.16666 9.59233 6.66666 11.33639 8.33334C419.2797 233.16669 428 234 428 234l-3.48812-33.33334zM486.07667 204l7.76358 1.71429s6.03833 12.85715 7.76357 14.57142c1.72524 1.71426-2.58786.85714-5.17572 4.28571C493.84025 228 491.2524 234 486.07667 234 480.90095 234 474 225.42855 474 225.42855L486.07667 204z" fill="#629261" fill-rule="nonzero"/>
    <path d="M420.5762 292.34641s-32.18846-23.18551-43.2003-6.01105c-11.01185 17.17445 47.43563 40.35997 55.90628 43.79486C441.75283 333.56512 449.37642 337 449.37642 337S457 318.1081 457 314.6732c0-3.43488-5.92946-3.43489-7.62358-3.43489-1.69413 0-9.31772-1.71744-11.01185-4.2936-1.69413-2.57618-17.78836-14.5983-17.78836-14.5983z" fill="#2F2E41" fill-rule="nonzero"/>
    <path d="M402 285s8.38711 7.05881 15.93549 8.82354C425.48386 295.58826 428 300 428 300" stroke="#000" stroke-width="2" opacity=".2"/>
    <path d="M414.0008 252.59033l.67303 35.98932c.04627 2.47437 2.06207 4.44787 4.51483 4.42035l66.38115-.7528c2.3468-.0266 4.2727-1.88158 4.40787-4.24556l2.0149-35.2368c.07078-1.23789-.36722-2.45048-1.21083-3.35215-.84361-.90167-2.01825-1.41269-3.24721-1.41269h-69.06908c-1.19891 0-2.34747.48641-3.1872 1.34977-.83972.86336-1.30008 2.03115-1.27746 3.24056z" fill="#575A89" fill-rule="nonzero"/>
    <path d="M450.60495 142s1.09714 3.69396-5.12002 7.01853c-6.21716 3.32456-8.04574 15.88402-.73143 19.57798 7.31431 3.69396 9.5086 8.4961 5.85145 11.82067-3.65716 3.32456-10.24004 12.19006-1.46286 14.40643 8.77717 2.21638 9.87431 6.64913 7.3143 8.49611-2.56 1.84698 5.85148-3.32456 5.85148-3.32456s1.46286 8.8655 9.14288 6.64913c7.68002-2.21638 15.3428-42.50493 6.78175-52.88157C470.27222 144.11427 450.60495 142 450.60495 142z" fill="#2F2E41" fill-rule="nonzero"/>
    <path d="M448 140.4481c.00164-5.25124 15.70838-1.47798 22.4426 5.8539 4.66328 5.07724 11.74632 12.71579 5.81095 18.10018-5.93537 5.3844 10.17372 12.4428 14.49405 14.58284 4.32033 2.14003 12.85053 8.68434 5.14839 13.07466-7.70215 4.39033-7.57798 8.82216-4.67936 9.87148 2.89862 1.04932-6.3908-1.5602-6.3908-1.5602s.93851 8.67041-6.88782 8.62904c-7.82632-.04167-30.27943-43.06314-24.91556-55.02125C458.00989 142.85987 448 140.4481 448 140.4481z" fill="#2F2E41" fill-rule="nonzero"/>
    <path d="M450.8834 138.06968C429.17836 136.84608 427 152.14181 427 152.14181c.15005 8.85166 15.1649 4.53864 19.33516 5.85819 5.0312-3.38834 14.72915-9.79947 21.66484-14.37476-5.03537-3.31936-10.96714-5.24463-17.1166-5.55555z" fill="#2F2E41" fill-rule="nonzero"/>
    <path d="M445 241s-24.1483-53.11525-144-118.282" stroke="#515151"/>
    <path fill="#4F4F4F" fill-rule="nonzero" d="M222.33361 93.83208l5.66852.26995-.2217-5.5397 1.15043-.02649.26881 6.74713-6.90402-.32735z"/>
    <path d="M123.81936 329.35819L127.10416 327s2.17434 11.7365-.25194 13.49495c-2.42629 1.75844-11.52486 4.68915-11.52486 8.20602 0 3.51687-20.62344 8.20602-21.23 2.93072-.60658-5.2753 1.8197-8.20602 1.8197-8.20602s9.70515-9.37831 10.9183-11.13674c1.21314-1.75843 4.246-5.2753 4.246-5.2753l12.738 2.34456z" fill="#2F2E41" fill-rule="nonzero"/>
    <path d="M75 180.55162s.09054.52414.2474 1.48304c.14493.85172.34404 2.05484.58548 3.53789 2.53487 15.2653 9.92813 60.20349 9.42715 61.68653-.60353 1.7868-4.82825 8.33843 0 10.12524.46473.17271.96563.73258 1.50279 1.61406 1.03674 1.89857 1.89143 3.8886 2.55292 5.94414 2.87886 8.24311 5.95693 21.43572 7.73731 30.57223.77858 4.0144 1.30962 7.24255 1.46654 8.93404a4.79458 4.79458 0 01.01813 1.17932c-.60353 2.3824 3.62118 10.72084 5.43178 13.10325 1.8106 2.3824 4.82825 4.76481 4.22472 7.14723-.60354 2.3824 15.08828 8.93403 16.89887 4.76482 1.8106-4.16922 1.8106-6.55163 2.41413-7.74284.60353-1.1912 1.20706-9.52963-1.8106-10.72084-3.01765-1.1912-1.20706-22.03728-4.22471-26.2065-1.00785-1.38776-2.54689-6.08707-4.15835-11.73933-.63365-2.21563-1.27343-4.57423-1.90113-6.93874-2.54689-9.69045-4.80409-19.44047-4.80409-19.44047l.60352-69.68548L78.01764 174l-.85092 1.85232-1.69596 3.67486L75 180.55161zM73.64313 295.0803s-4.6232-4.68068-6.9348 0c-2.3116 4.68068-4.6232 22.81832-8.6685 26.9139-4.0453 4.0956-9.2464 24.57357-3.4674 25.74374 5.779 1.17017 12.1359-1.75526 12.7138-5.26576C67.86413 338.96168 80 320.82405 80 319.0688c0-1.75525-8.0906-8.1912-8.0906-8.1912l1.73373-15.7973z" fill="#2F2E41" fill-rule="nonzero"/>
    <path d="M148 149.62495s-7.6839 69.22054-9.4571 75.72845c-1.7732 6.50791-11.2303 31.35631-14.18564 35.49771-2.95535 4.1414-21.86954 37.86423-24.23381 39.63912-2.36427 1.77488-7.09283 6.50791-7.09283 6.50791s-8.86602 8.87443-10.04816 10.64932c-1.18213 1.77488-11.2303-3.54977-11.82137-7.09955-.59107-3.54977.59107-9.46605 1.18214-11.83257.59107-2.3665-1.18214-5.91628.59107-7.69117 1.7732-1.77489 10.63923-10.64932 10.63923-14.79071 0-4.1414 15.36779-28.39817 21.27847-33.72283 5.91068-5.32466 4.72854-14.19909 4.72854-14.19909v-36.08933l-32.50876-10.05768s1.7732-28.39817 5.91068-28.39817 58.51579-9.46606 65.01754-4.1414z" fill="#2F2E41" fill-rule="nonzero"/>
    <circle fill="#BEA1D0" fill-rule="nonzero" cx="98.5" cy="29.5" r="19.5"/>
    <path d="M105.31671 46.09606s2.30152 8.89427 5.17842 11.26607c2.8769 2.37181-7.47994 12.45197-7.47994 12.45197L83.45228 71 80 59.73393s6.32918-13.04491 4.60304-21.34622c-1.72614-8.30132 20.71367 7.70835 20.71367 7.70835z" fill="#BEA1D0" fill-rule="nonzero"/>
    <path d="M113.23813 56s-5.37723.5909-6.57218 2.36364c-1.19494 1.77273-9.55953 7.0909-16.13171 5.90909-6.57218-1.18182-10.75448-2.95455-11.94942-2.36364-1.19494.59091-3.58482 13-3.58482 13l6.57218 18.9091-1.19494 51.99999L78.58482 160S75 155.27273 89.3393 158.22727c14.3393 2.95455 32.8609-2.36364 38.83562-2.95454 5.97473-.59091 16.13172-2.36364 16.72919-5.9091.59747-3.54545-1.79241-16.54545-1.79241-16.54545l-9.55954-39.5909-5.9747-21.27273L113.23812 56z" fill="#629261" fill-rule="nonzero"/>
    <path d="M107 53.26411s5.13128-2.64232 6.95112-.28657c1.81984 2.35575 24.87113 5.88937 24.87113 7.65619 0 1.76681 4.8529 49.47072 3.63968 53.5933-1.21322 4.12259 2.42645 8.83406 2.42645 8.83406l4.2463 17.66812s11.52564 33.56942 6.67273 34.7473c-4.8529 1.17786-9.0992 0-10.91903 0-1.81984 0-1.21323-22.37962-6.06613-28.269-4.8529-5.88937-11.52565-20.6128-12.73887-23.55748-1.21323-2.94468-16.37855-43.58135-15.77195-48.29285C110.91804 70.64568 107 53.2641 107 53.2641zM84.1757 56s-4.79537 0-5.3948 1.1817c-.59941 1.1817-6.59363 8.8627-8.99132 10.63524C67.3919 69.5895 59 77.27048 59 79.04302c0 1.77254 17.38323 14.77117 17.38323 14.77117s7.19306 34.85995 3.59653 46.67689c-3.59654 11.81693-8.99133 40.17758-6.59364 41.95011 2.39768 1.77254 7.79248 2.36339 7.79248 0 0-2.36338 3.59654-27.76979 6.59365-33.08741 2.9971-5.31762 11.98843-38.99588 8.3919-48.44943C92.56762 91.4508 84.1757 56 84.1757 56z" fill="#D0CDE1" fill-rule="nonzero"/>
    <path d="M161.986 114s.59136 18.75309-5.91352 28.4321C149.56761 152.11112 145.42814 163 145.42814 163s-10.64434-3.02469-12.41839-6.65432C131.23569 152.71605 120 155.74074 120 154.53087c0-1.20988 13.6011-7.25926 14.7838-8.46914 1.1827-1.20988 5.32217-1.20988 7.68759-3.62963 2.3654-2.41975 2.95676-7.8642 2.95676-7.8642l2.3654-15.7284L161.986 114z" fill="#BEA1D0" fill-rule="nonzero"/>
    <path d="M111.71532 18.1232c1.52284-.13543 3.09341-.28445 4.43928-.99505 3.01564-1.59223 3.81531-6.12647 1.51965-8.61656-.63297-.63358-1.34094-1.19091-2.10888-1.66016l-4.55958-3.03844c-2.0166-1.34383-4.08088-2.70969-6.4329-3.3432-2.12736-.57297-4.37421-.5141-6.57635-.38008-4.27494.26013-8.57635.79748-12.5972 2.2425-4.02084 1.44504-7.77158 3.86255-10.2068 7.31224-3.86056 5.46883-3.91362 12.84452-1.78734 19.158C75.53148 35.11593 79.57046 40.6137 83.55023 46l2.065-9.86445c.18392-.8786.42177-1.84156 1.16816-2.36156 1.85509-1.29241 4.1243 1.36118 6.40107 1.34397 1.46292-.01105 2.69114-1.18908 3.24554-2.51455.5544-1.32547.5909-2.79331.71918-4.2201.27167-3.022 1.35056-7.22688 4.2737-8.89354 2.7239-1.55304 7.23069-1.09431 10.29244-1.36657z" fill="#2F2E41" fill-rule="nonzero"/>
    <path d="M112 181.17927s-2.15593 57.03218-3.4326 58.78356c-1.27666 1.75137 0-58.96283 0-58.96283l3.4326.17927z" fill="#000" fill-rule="nonzero" opacity=".1"/>
    <path d="M135 60h4.6302s19.67834 27.1619 17.36323 28.93333c-2.3151 1.77143 0 6.49524 0 6.49524l4.6302 8.85715s5.78775 5.31428 4.05142 6.49523c-1.73632 1.18095-4.05142 5.90476-4.05142 5.90476S150.04814 114.9143 146.5755 122l-7.5066-9.66821L135 60z" fill="#D0CDE1" fill-rule="nonzero"/>
    <path fill="#2F2E41" fill-rule="nonzero" d="M120.09456 75.51333l16.33705-6.72964 12.5719 30.36955-16.33703 6.72964z"/>
    <ellipse fill="#7BB351" fill-rule="nonzero" transform="rotate(-22.438 133.27734 83.60137)" cx="133.27734" cy="83.60137" rx="3.53376" ry="3.24059"/>
    <path d="M123.1293 106.9792s-43.01339 36.25478-50.18228 24.7741c-7.1689-11.48068 7.7663-21.14862 7.7663-21.14862s13.14299.60425 28.07819-9.0637l14.9352-6.6467s13.63466-19.68877 18.28095-12.19146c4.64628 7.4973-7.93112 20.54576-18.87836 24.27639z" fill="#BEA1D0" fill-rule="nonzero"/>
    <path d="M64.77981 76l-6.43852 2.36084V96.0672L56 99.60845s.58532 7.08254 2.34129 8.85317c1.75596 1.77064 5.26788 1.18043 4.09724 5.3119-.70356 2.69356-.90207 5.49592-.58532 8.26296 0 0 10.53577 13.57487 11.1211 11.80423.58531-1.77064 8.77981-23.60845 9.95045-23.60845C84.0954 110.23226 71.21834 76 71.21834 76h-6.43853z" fill="#D0CDE1" fill-rule="nonzero"/>
    <path d="M143.20191 167s5.93451-6.32328 2.96726-6.63944c-2.96725-.31617-13.29837-6.63945-15.02022-3.47781C129.42709 160.04439 143.20191 167 143.20191 167z" fill="#2F2E41" fill-rule="nonzero"/>
    <g transform="rotate(10 -192.81918 1386.47546)">
      <ellipse fill="#4FAF4E" fill-rule="nonzero" cx="24" cy="14.5" rx="8" ry="4.5"/>
      <path d="M58 28c-19.33333-7.30583-38.66667-7.30583-58 0V4.28252c18.9122-5.71003 39.0878-5.71003 58 0V28z" stroke="#515151"/>
      <path d="M50 24c-14-5.21846-28-5.21846-42 0V7.05894c13.69504-4.07859 28.30496-4.07859 42 0V24z" stroke="#515151"/>
      <ellipse stroke="#515151" cx="27" cy="11.5" rx="8" ry="4.5"/>
    </g>
    <g transform="rotate(10 -348.62489 1390.12054)">
      <ellipse fill="#4FAF4E" fill-rule="nonzero" transform="rotate(-11.535 26.81584 15.67341)" cx="26.81584" cy="15.67341" rx="8.58423" ry="4.53428"/>
      <path d="M62 23.4825C41.4541 20.21735 22.37859 24.0565 4.77346 35L0 11.9367C17.51076 2.62863 37.41733-1.3778 57.22654.4192L62 23.4825z" stroke="#515151"/>
      <path d="M54 21.44415C39.08766 19.0186 25.24253 21.87055 12.46463 30L9 12.86726C21.70942 5.95269 36.15773 2.9765 50.53537 4.3114L54 21.44415z" stroke="#515151"/>
      <ellipse stroke="#515151" transform="rotate(-11.535 29.38072 13.09465)" cx="29.38072" cy="13.09465" rx="8.58423" ry="4.53428"/>
    </g>
    <g transform="rotate(10 -525.7907 1374.62054)">
      <ellipse fill="#4FAF4E" fill-rule="nonzero" transform="rotate(-86.02 25.03546 12.8534)" cx="25.03546" cy="12.8534" rx="4.53389" ry="8.58498"/>
      <path d="M57.36846 30C38.74822 21.423 19.6254 20.08856 0 25.9967L1.63154 2.4846C20.7306-1.87062 40.68654-.47805 59 6.4879L57.36846 30z" stroke="#515151"/>
      <path d="M49.81089 25C36.2402 18.7102 22.30324 17.73162 8 22.06425L9.1891 4.82204C23.10874 1.6282 37.6529 2.64943 51 7.75779L49.81089 25z" stroke="#515151"/>
      <ellipse stroke="#515151" transform="rotate(-86.02 28.1984 11.05305)" cx="28.1984" cy="11.05305" rx="4.53389" ry="8.58498"/>
    </g>
    <g fill="#C1C1C1">
      <path d="M322.6671 109.2924c-.61927-2.06292-2.04692-3.68546-3.52728-5.17356-2.88185-2.89698-4.4337-4.68623-5.48693-8.8974-.61934-2.4767-1.25061-5.10103-3.16551-6.91022-1.39427-1.31748-3.78454-2.43464-5.62714-1.51509-2.83225 1.71605-3.56732 5.28033-3.25404 8.4801.38835 3.96588 2.21596 6.42458 5.70044 7.91338 1.96336.8385 3.2729 1.93414 4.35053 3.83315.862 1.51851 1.37289 3.41523 2.45176 4.7943 1.61293 2.06154 3.6178 2.9888 6.07696 2.66927-2.34164-4.36443-5.07195-8.77294-8.35168-12.45859-.30719-.37035-2.11297-1.79316-1.75625-2.41694.393-.68682 2.25617 1.92122 2.243 1.90544.9535 1.11812 1.83707 2.3052 2.705 3.50347-.00217.00114-.00472.00175-.00708.00296.89356 1.22961 1.78024 2.47716 2.65034 3.74013.35208.5341.69491 1.0749 1.02345 1.62907.48206.81318 1.25547 3.11614 2.0376 3.62024.16733.10779.32172.16855.4658.19428.53813.89458 1.06202 1.79618 1.5607 2.70816 1.30234 2.38188 2.424 4.89468 2.95136 7.57592.15388.78256.07352 3.7044.59894 4.27281.96065 1.0397.66539-.94938.60354-1.54953-.51373-4.96984-2.28926-9.21513-4.85108-13.41115.76794-1.03201.85836-3.67436.60756-4.5102M325.5194 156.35011c1.7893-2.12773 6.02998-2.5402 8.61892-2.43315 3.20355.13243 6.48612.8805 9.52373 1.79723 5.00388 1.50994 9.84878 4.32145 14.23774 7.04662.5289.32837 7.04684 4.24749 6.45624 4.95794-.58506.70388-6.97294-3.96915-8.39966-4.77031-3.04453-1.7101-5.83072-3.74316-9.19669-4.85476-3.48521-1.1512-7.18126-1.57676-10.86281-1.496-.4725.01044-2.00923-.30333-2.05163.40563-.04149.69339 2.51302.29853 2.96269.2968 1.85686-.00697 3.72315.14582 5.54972.44815 3.42222.56637 6.63107 1.75555 9.54452 3.60575-.8446 1.9428-2.8212 2.85935-4.87636 2.40279-1.7762-.39484-3.4997-1.4029-5.2404-1.6782-1.19886-.1895-2.4035-.0517-3.57302.30667-3.08494.94555-4.88135 2.82352-8.2437 1.57746-2.63588-.97682-7.01907-4.55273-4.44929-7.61262M215.26703 104.01864c-3.91673-.29274-8.29077 2.9107-10.18007 6.24436-1.52304 2.6878-1.26646 6.21724-.32574 9.07277.62995 1.91174 2.00481 4.63744 4.29758 4.664 2.86852.03325 3.00685-3.56101 3.06233-5.66222.07372-2.7935.4219-5.227 2.59314-7.13113.50604-.44357 1.05916-.83383 1.5703-1.27127.8004-.68468 1.68491-1.3857 1.78802-2.5184.14234-1.56272-.72776-1.84394-2.05627-1.55361-.22647.0494-2.50774 1.0872-2.16996.26692.1031-.25058.47976-.44914.95514-.59793 1.23015-.1356 2.69717-.29293 3.11908-.19894 4.5516 1.01234 6.32373 7.40418 6.79437 11.46524.0463.3995.08451.8002.11804 1.20152l.8394.00021c-.0573-1.02454-.13462-2.04707-.30359-3.06035-.67082-4.0226-2.76833-9.93075-7.36866-10.58366-.16971-.02434-.794-.02842-1.55023.01653-.3584-.20303-.75988-.3258-1.18288-.35404z"/>
    </g>
    <path d="M226.97319 92S171.24665 60.81074 145 76" stroke="#515151"/>
    <path fill="#515151" fill-rule="nonzero" d="M440.72898 243.08278l.47086-1.05028 5.03183 2.34992 1.95008-5.32948 1.05295.40036-2.3767 6.48968z"/>
  </g>
</svg>
