<svg xmlns="http://www.w3.org/2000/svg" viewBox="0 0 625 378">
  <defs>
    <linearGradient x1="50%" y1="100%" x2="50%" y2="0%" id="a">
      <stop stop-color="gray" stop-opacity=".25" offset="0%"/>
      <stop stop-color="gray" stop-opacity=".12" offset="54%"/>
      <stop stop-color="gray" stop-opacity=".1" offset="100%"/>
    </linearGradient>
    <linearGradient x1="49.99838%" y1="99.96508%" x2="49.99838%" y2=".00517%" id="b">
      <stop stop-color="gray" stop-opacity=".25" offset="0%"/>
      <stop stop-color="gray" stop-opacity=".12" offset="54%"/>
      <stop stop-color="gray" stop-opacity=".1" offset="100%"/>
    </linearGradient>
    <linearGradient x1="49.99752%" y1="100%" x2="49.99752%" y2="0%" id="c">
      <stop stop-color="gray" stop-opacity=".25" offset="0%"/>
      <stop stop-color="gray" stop-opacity=".12" offset="54%"/>
      <stop stop-color="gray" stop-opacity=".1" offset="100%"/>
    </linearGradient>
    <linearGradient x1="49.99264%" y1="100.00084%" x2="49.99264%" y2="-.007%" id="d">
      <stop stop-color="gray" stop-opacity=".25" offset="0%"/>
      <stop stop-color="gray" stop-opacity=".12" offset="54%"/>
      <stop stop-color="gray" stop-opacity=".1" offset="100%"/>
    </linearGradient>
  </defs>
  <g fill="none" fill-rule="evenodd">
    <g transform="translate(22.2974)">
      <path d="M13.58888 239.144C7.5294 240.12828-.0702 242.9448 0 249.49145c.03584 3.32127 2.2425 6.15293 4.38857 8.5808 9.12165 10.38964 19.52814 19.5775 30.969 27.34244 5.46364 3.69984 11.3363 7.23816 14.96693 12.957 3.63064 5.71885 4.54462 12.99738 4.83244 19.9226a153.07323 153.07323 0 01-5.72621 48.58243c17.78963 3.3869 37.6294 6.35484 52.45493-4.34087 8.87714-6.4053 14.88108-17.13635 24.77319-21.57817 6.60484-2.96795 14.08325-2.70548 21.28394-2.32691 34.0846 1.79355 68.08503 5.15857 102.0013 10.09505 14.20444 2.06948 28.68156 4.41154 42.73452 1.73635 14.05295-2.6752 27.87867-11.40236 33.05953-25.55058.79783-2.18053 1.51487-4.61344 3.30242-5.9258 1.61586-1.17102 3.73163-1.14579 5.69591-1.07512l118.70529 4.0784c6.50384.2221 13.23492.4038 19.18836-2.27139 5.77166-2.58938 10.21023-7.57129 14.48217-12.45224 9.77092-11.13485 20.27907-24.83383 17.40587-39.94613-2.29756-12.11406-12.56838-20.57877-22.75337-26.50456-10.18498-5.9258-21.42027-10.77647-28.90373-20.25068-11.38678-14.42078-10.93737-35.06012-11.64431-53.7713a298.58258 298.58258 0 00-6.23622-50.38946c-3.08529-14.5823-7.38247-29.1848-15.41634-41.50076-8.03386-12.31597-20.31946-22.17883-34.21588-23.98585-18.14815-2.36224-36.39225 8.95431-54.14654 4.14907-14.99722-4.03802-25.31854-18.38814-37.74553-28.33177-22.07167-17.66634-51.036-21.36618-78.41982-21.70436-29.03503-.36847-58.83759 2.56919-84.71663 16.19751-5.9282 3.11937-11.7251 6.89492-15.8304 12.40682-6.29177 8.4546-7.81674 19.81154-11.93214 29.6946-16.58783 39.7947-70.53744 48.3755-88.04935 87.7462-6.21602 13.9665-6.15542 30.25488-1.62596 44.92299 4.87284 15.78361 18.58747 24.5007 24.02586 38.26025-5.85246 3.76546-16.22427 3.73012-23.31892 4.886z" fill="#F2F2F2" fill-rule="nonzero"/>
      <path fill="url(#a)" fill-rule="nonzero" d="M83 49v233h374V49z"/>
      <path d="M590.12116 184.80677c.89277 1.37965 1.84952 2.68414 2.87732 3.89157-1.0891-.97748-2.04006-2.32747-2.87732-3.89157zM484.224 8.06703c1.7214-5.39306 6.62909-.89699 7.75694 2.13242 1.32943 3.57217 1.15768 7.43696.5266 11.08016-.06946.38698-.01833.34693-.25475-.04371.06215.21746.06074.399.00765.5537.91097 1.78626 1.93334 3.57508 2.56282 5.2344 1.80241 4.75198 3.33586 9.65615 4.58616 14.5826.30406 1.19816.5763 2.39967.8178 3.6034 1.15488-2.40644 3.035-4.925 3.81973-5.80026 2.03719-2.27055 5.41025-5.24493 8.79372-4.44344 2.80698.6648 4.16266 3.44262 3.30066 6.11574-1.02668 3.18254-4.78586 4.75816-7.66306 5.77453-1.30157.4596-8.25137 2.91351-7.14815 1.10892-.10187.10063-.30762.32642-.51343.6004.09158.60218.17492 1.20575.2507 1.80983.04972.00545.09435.01517.14673.01927-.05457.00038-.09628-.00691-.14553-.00924.75332 6.03967.71004 12.1293-.18935 18.20908.92872-.94363 1.9455-1.79777 3.06152-2.47353 3.30462-2.00175 11.8779-2.56845 10.03107 3.82796-1.77125 6.13227-9.74599 3.95298-14.30136 5.19207-1.57259 7.59858-3.67575 15.14623-6.07966 22.607.33336-.03891.67502.0372.95423.2683 1.48464-1.82376 2.864-4.10108 4.4703-5.2669 2.31822-1.6815 7.41968-4.34772 10.37076-2.92388 3.62935 1.7505 2.09495 5.16943-.47587 6.96065-3.72765 2.5975-9.94657 2.9876-14.46533 3.39234-.41337.27899-.9613.36623-1.41311.13857a57.3754 57.3754 0 00-.29467.0315c-2.47607 7.46172-5.21509 14.83072-7.97362 22.07363.0519-.02646.10359-.05336.15771-.08095.92295-1.43222 2.00851-2.75362 3.35945-3.79432 3.12306-2.41196 7.2416-4.25192 11.20844-2.98974 3.95097 1.25627 6.91274 5.21243 5.24184 9.34418-3.34443 8.27045-17.72182-.78366-20.9184-.0048-2.82705 7.30694-6.0928 14.412-9.4851 21.45952.53503-.4636 1.10807-.88444 1.73622-1.23875 5.11522-2.89045 20.5621-1.94212 16.86654 7.40864-3.22046 8.14848-14.63132.31048-20.91362-1.40964-3.21782 6.59357-6.47676 13.17003-9.51657 19.84866 2.41364-1.944 5.01043-3.22893 8.3371-3.65142 3.44285-.43579 9.35775-.3311 9.25832 4.6126-.10142 5.02756-6.82433 5.75572-10.47486 5.80022-1.99098.02442-6.42182-.91337-9.81822-.62666-4.65014 11.10814-7.88857 22.5039-8.78462 34.62772-.55909 7.56963-.14199 15.2049 1.0923 22.69351.78778 4.77982 1.78598 12.95252 4.70637 18.32938-7.0642-10.21972-9.22676-25.31036-9.5712-37.1048-.31707-10.84545 1.7325-21.40348 5.10426-31.5874-3.86504-4.22973-20.98352-5.1871-14.70858-13.5124 3.33681-4.41038 9.66776-2.37971 12.5423 1.47759 1.975 2.65081 2.61063 6.8039 2.80947 10.14222 1.09213-3.13304 2.29792-6.23164 3.60094-9.28854 1.80068-4.22477 3.7118-8.39947 5.66855-12.55263-7.4144-2.5735-18.60454-14.38859-12.60943-19.80732 8.85713-7.99212 12.37844 13.35587 13.25062 17.26242-.19985.10354-.38733.11288-.56396.03272.20429.30232.4281.62324.66749.9407 3.75736-7.92163 7.65045-15.78087 11.23925-23.7767-.71364-.15693-2.24163-1.29055-3.27155-1.7974-2.3235-1.14188-4.61762-2.39391-6.62277-4.0474-3.16797-2.61324-7.16578-7.25173-3.60848-11.204 3.86695-4.30212 8.8557.73599 10.49766 4.33585 1.13525 2.48988 1.50956 5.16884 2.24438 7.77771.22897.81376 2.18952 4.06817.48673 3.05107.29231.5245.4755.91708.5759 1.20853.64221-1.4403 1.27145-2.88741 1.89085-4.33847-.10397-.10209-.20028-.22095-.27815-.37385-.5361-1.05246.36604-1.95175 1.26866-1.97568.8054-1.94167 1.58976-3.8939 2.3377-5.8617 1.58573-4.16953 3.17642-8.4401 4.71878-12.765-.86706-.25842-.94891-1.1147-1.7901-1.42438-.83963-.3088-2.1342-.10973-3.05887-.33208-2.3261-.56-4.62707-1.8606-6.51648-3.30771-3.1205-2.39168-8.2843-8.0247-3.94005-11.7628 4.47671-3.85545 9.9355 1.34954 12.04071 5.18635.40815.74314 2.92368 7.95717 3.60398 10.6806 2.843-8.02718 5.50371-16.22683 7.6241-24.30784-1.45229.63105-6.86838-.49877-8.05632-.93628-2.89826-1.0667-8.0483-3.98255-5.526-7.86357 2.24499-3.44575 7.44667-2.2212 10.07324.05105.43208.37432 3.17258 4.42926 4.1125 6.37767.85067-3.40521 1.60375-6.78477 2.22204-10.1141.41468-2.21503.73282-4.44076.96427-6.67213-.30786-.02951-.64714-.16898-.99987-.37325-5.6549 1.4524-16.00193-3.74736-11.09243-9.34784 2.33824-2.66472 6.77155-1.28984 9.23062.35735.5035.3368 2.02905 2.47827 3.24435 4.16203.32137-7.19373-.20402-14.42392-1.33618-21.5727-.50824.09054-1.0512-.08563-1.36933-.66304-3.19928-.31481-5.75344-.62589-8.77828-2.6246-1.87904-1.24134-5.6364-4.31613-2.81138-6.72846 3.67644-3.13908 9.2068 2.12852 10.96722 5.15239.20446.35094.68036 1.42457 1.10389 2.41404.13807-.08549.28768-.14943.44485-.18866-.78725-4.3882-1.79339-8.73985-2.96139-13.02748-2.64103.28744-8.4284-11.64396-7.65691-14.05374zm49.2124 121.68773c.93758.24436 1.84934.7867 2.50459 1.4025a166.42642 166.42642 0 01-2.50459-1.4025zm-36.20268 6.84288c.63095-.05294 1.34072-.04856 2.09046-.00651-.17226.21133-.25543.51939-.26267.86094-.81983.24521-1.64026.61277-2.42362.89446.19886-.58285.39727-1.16546.59583-1.74889zm-66.21815-23.40244c.2727.04948.60131.1291.95267.11302-.07651.13727-.15248.27427-.23024.41178-.1143-.16095-.34394-.3351-.72243-.5248zm-12.77397 2.14213c.80786-.45866 1.6193-.9103 2.44098-1.3406-.8536.67756-1.67634 1.4058-2.48136 2.15773.0121-.27257.02914-.5441.04038-.81713zm-6.18215-13.00769c.77002.37356 1.55324.75755 2.33993 1.08898.00686.1245.01618.24908.02264.37379-.55582-.3521-1.31281-.7851-2.08593-1.19998-.12524-.11843-.2156-.20465-.25814-.24494l-.0185-.01785zm-37.83186-24.76853c2.79293-3.36756 8.48152-3.4396 8.57405 2.13206.09844 5.96668-7.76162 9.54288-12.26044 11.42814.43547-.22195-.1754-5.46155.00686-6.37563.53726-2.69632 1.96337-5.11231 3.67953-7.18457zm6.9861-4.06782c.60615 1.11924 1.5388 2.60397 1.28098 3.70732-.37882-.7648-.72474-1.53125-.97295-2.29559-.09936-.47209-.20358-.9417-.30802-1.41173zm-.38464-.80183c.08013.21754.20728.47167.35589.74838.06908.48643.17778.97538.33678 1.46518.10238.48406.20172.96967.29862 1.45653-.10882-.31753-.20968-.6375-.28696-.9684.00276.00995-.61807-2.32456-.70433-2.7017z" fill="#F2F2F2"/>
      <path fill="#F6F7F9" fill-rule="nonzero" d="M87 52h366v18H87z"/>
      <path d="M86.48967 52.35h366.06609v17.605H86.48967z" opacity=".2" fill="#629261" fill-rule="nonzero"/>
      <path fill="#F6F7F9" fill-rule="nonzero" d="M87 70h366v210H87z"/>
      <circle fill="#F6F7F9" fill-rule="nonzero" cx="96" cy="61" r="4"/>
      <circle fill="#F6F7F9" fill-rule="nonzero" cx="106" cy="61" r="4"/>
      <circle fill="#F6F7F9" fill-rule="nonzero" cx="117" cy="61" r="4"/>
      <path d="M99.09096 95.325h188.49971V108.8H99.09096zM336.41711 95.325h98.31152V108.8h-98.31152z" opacity=".2" fill="#629261" fill-rule="nonzero"/>
      <g opacity=".2" fill="#629261" fill-rule="nonzero">
        <path d="M135.39511 224.49981h13.21083v43.24398h-13.21083zM160.94044 193.48351h13.21083v74.25526h-13.21083zM186.48576 162.47223h13.21083v105.26654h-13.21083zM212.03109 172.51962h13.21083v95.22417h-13.21083zM237.57642 202.21972h13.21083v65.51905h-13.21083z"/>
      </g>
      <path d="M336.20102 139.36802h98.31152v121.19843h-98.31152z" opacity=".2" fill="#629261" fill-rule="nonzero"/>
      <path d="M503.64936 225.5175c-.63111-3.20989-1.84284-6.34912-1.87313-9.61957-.04544-5.30944 2.78193-11.47687-.93405-15.39839-.84821-.89331-1.98421-1.55952-2.61532-2.60424a5.73161 5.73161 0 01-.65636-2.93736c-.06058-6.19266 3.35246-12.48122 1.30767-18.35087a6.23817 6.23817 0 00-2.34269-3.2654c-1.18144-.76715-2.52444-.91351-3.97347-.88828-1.30766 0-2.686.14636-4.0391.1716a8.73262 8.73262 0 01-2.26696-.29777c-1.56515-.44414-2.893-1.46868-4.44301-1.97338a7.26284 7.26284 0 00-2.52445-.34824c-3.39285-.11104-6.49286 2.14497-8.90623 4.33032a33.25137 33.25137 0 01-3.8119 2.7708c.20195-.14131-4.71062 3.23008-2.86272 3.2654a6.43381 6.43381 0 013.65539 1.27185c-2.29057 3.53282-2.08784 8.129.50489 11.44658-.80278-.78733-1.69138-1.65036-2.60018-2.5235-2.7062-2.65976-6.48782-6.22798-8.26502-7.20206-2.9233-1.56961-7.09873-4.98138-7.09873-4.98138s-5.42756 3.0282-3.75637 7.23235a16.89233 16.89233 0 012.32753.9135 4.35413 4.35413 0 00.31808 1.63018 17.9768 17.9768 0 014.82169 2.362 8.21598 8.21598 0 01.4645.72172c.72198 1.26174 2.96874 3.55813 5.71533 6.1119 1.92867 1.933 4.46826 4.24453 6.99775 6.47025-.76238 1.5141-1.56515 3.0282-1.70652 4.5423a5.60033 5.60033 0 01-.57052-.26244c-3.75637-2.0188-12.52124-1.80683-12.52124-1.80683s-7.30573-3.81553-8.76486-12.45094c0 0-1.45913-5.22364-1.04512-6.6267h-.02524l.1868-.04038 1.75197-3.17456a1.4026 1.4026 0 00-.01395-1.34331c-.23273-.4163-.66106-.68594-1.1372-.71586-8.5427-.76714-8.94662 7.0658-8.94662 7.0658h.07573l-.02524.0656c1.04512 5.02176 1.87818 4.618 1.67118 8.63541l3.33731 8.8373s.207 3.02819 6.26062 7.03046c6.05361 4.00226 12.94029 10.2454 12.94029 10.2454s-3.65034 1.90776-2.29724 10.64411c1.65603 10.67944-.83307 25.91127-.83307 25.91127v9.84165l.4645-.12618c-.06059.32806-.11613.6763-.17671 1.05482a55.39548 55.39548 0 00-.28779 14.94416c1.25213 10.44728 6.26062 24.73027 6.26062 24.73027s1.87818 5.02176 2.29724 9.03917a8.32996 8.32996 0 00.53518 2.32162 18.24914 18.24914 0 011.46418 6.9699 49.06069 49.06069 0 003.21614 17.61906c2.11548 5.37 2.9031 8.51933 3.13536 10.35643-1.51467 1.95824-3.46354 4.09312-5.01355 4.3051-2.9233.40375-8.55786.80246-4.80149 5.62235a3.43254 3.43254 0 00.4342.45927c-2.85261.45423-5.98797 1.45354-2.93844 5.36496 3.75637 4.81988 25.87553 2.6093 25.87553 2.6093s.14137-2.67996 0-5.62236c1.55-.10599 2.52444-.20188 2.52444-.20188s.62606-11.64846-2.08519-13.05658a5.85852 5.85852 0 00-1.46417.3533c-.29284-1.61-.5049-3.61365-.65636-5.09242l1.07541-.08076v-.08075h.06564v-17.55345s-1.25212-10.846-5.84156-15.64568a9.75108 9.75108 0 01-1.51466-2.0188l-.0606-.12618c.0303-1.37278.0303-3.22503 0-5.34981l.06564-.11608c.08079-.13122.16157-.2473.2373-.3533a4.3963 4.3963 0 01.34333-.40375l.06563-.0858s2.52444-3.0282 11.0621-22.09575c5.2155-11.63837 3.83716-18.16918 1.96907-21.53553-.39381-1.5141-1.21678-4.90568-2.24675-10.71477a41.99082 41.99082 0 01-.60082-7.4645 15.02072 15.02072 0 003.95833.44413 13.44438 13.44438 0 006.05866-1.29203c-1.3632-1.98851-2.78699-4.32023-2.10034-6.60652.77753-2.60424 3.85735-3.80038 5.63456-5.89993 2.14072-2.53864 2.19626-6.16238 1.56515-9.37732z" fill="url(#b)" fill-rule="nonzero"/>
      <path d="M450.85248 181s-5.13037 2.98067-3.55026 7.15462c0 0 5.33038 1.59104 7.50054 5.56359C456.97292 197.69076 473.74912 212 473.74912 212L486 205.8423s-4.2553-5.71967-17.71627-9.7174c0 0-7.93557-8.55936-10.70077-10.15543-2.7652-1.59607-6.73048-4.96947-6.73048-4.96947z" fill="#797C9C" fill-rule="nonzero"/>
      <path d="M452.85248 183s-5.13037 2.98067-3.55026 7.15462c0 0 5.33038 1.59104 7.50054 5.56359C458.97292 199.69076 475.74912 214 475.74912 214L488 207.8423s-4.2553-5.71967-17.71627-9.7174c0 0-7.93557-8.55936-10.70077-10.15543-2.7652-1.59607-6.73048-4.96947-6.73048-4.96947z" fill="#000" fill-rule="nonzero" opacity=".05"/>
      <path fill="#7BB351" fill-rule="nonzero" d="M12 374h481v4H12z"/>
      <path fill="url(#c)" fill-rule="nonzero" d="M352 177h102v125H352z"/>
      <path fill="#4FAF4E" fill-rule="nonzero" d="M354 179h99v121h-99z"/>
      <path fill="#E8EAF1" fill-rule="nonzero" d="M361 190h20v20h-20zM370 222h72v4h-72zM370 231h72v4h-72zM370 239h72v4h-72zM370 248h72v4h-72zM370 256h72v4h-72zM370 265h72v4h-72zM370 273h72v4h-72z"/>
      <path d="M482.34095 351s.59331 8.48711 1.58887 9.45511C484.92537 361.42311 475 362 475 362l1.38774-11h5.95321z" fill="#BEA1D0" fill-rule="nonzero"/>
      <path d="M484.94433 356.75017s-1.39569 0-6.3868 2.55123c0 0-3.39314-.58683-4.78883-5.3014 0 0-4.19212 7.06688-6.9835 7.45976-2.79138.39288-8.18198.78576-4.59162 5.49536 3.59036 4.7096 24.7482 2.55124 24.7482 2.55124s.59166-11.3836-1.99745-12.7562z" fill="#E4E2F3" fill-rule="nonzero"/>
      <path d="M484.94433 356.75017s-1.39569 0-6.3868 2.55123c0 0-3.39314-.58683-4.78883-5.3014 0 0-4.19212 7.06688-6.9835 7.45976-2.79138.39288-8.18198.78576-4.59162 5.49536 3.59036 4.7096 24.7482 2.55124 24.7482 2.55124s.59166-11.3836-1.99745-12.7562z" fill="#000" fill-rule="nonzero" opacity=".05"/>
      <path d="M482 364.23474L480.54806 368 471 365.42456l.52606-3.73513.13152-.90366.36298-2.51018s8.09613-1.98303 8.09613-1.00407c.1073.81708.28322 1.6246.52607 2.41479.33141 1.21994.747 2.60556 1.05212 3.51424.17886.63759.30512 1.0342.30512 1.0342z" fill="#BEA1D0" fill-rule="nonzero"/>
      <path d="M477.5154 312.02448c-1.00057 1.71096-1.00057 3.83855 0 5.5495.38644.71902.86167 1.38528 1.41421 1.98269 4.32231 4.77762 5.50248 15.52852 5.50248 15.52852v17.3195l-2.94794.22702-4.7157.36829-7.07604-29.46787s-4.1281-21.5018-2.16115-25.28555c1.96695-3.78376 3.73471-27.4751 3.73471-27.4751l1.63332-1.71025L476.76846 265h11.20414c.89648.6507 1.64102 1.49286 2.18107 2.467 1.8823 3.15313 3.5704 9.71164-1.5885 21.81965-8.05702 18.91372-10.41736 21.90036-10.41736 21.90036a4.57987 4.57987 0 00-.63241.83747z" fill="#4C4C78" fill-rule="nonzero"/>
      <path d="M477.5154 312.02448c-1.00057 1.71096-1.00057 3.83855 0 5.5495.38644.71902.86167 1.38528 1.41421 1.98269 4.32231 4.77762 5.50248 15.52852 5.50248 15.52852v17.3195l-2.94794.22702-4.7157.36829-7.07604-29.46787s-4.1281-21.5018-2.16115-25.28555c1.96695-3.78376 3.73471-27.4751 3.73471-27.4751l1.63332-1.71025L476.76846 265h11.20414c.89648.6507 1.64102 1.49286 2.18107 2.467 1.8823 3.15313 3.5704 9.71164-1.5885 21.81965-8.05702 18.91372-10.41736 21.90036-10.41736 21.90036a4.57987 4.57987 0 00-.63241.83747z" fill="#000" fill-rule="nonzero" opacity=".05"/>
      <path d="M481 359.86485L472 361l.36337-2.65222s8.10474-2.09526 8.10474-1.06089A16.34516 16.34516 0 00481 359.86485z" fill="#000" fill-rule="nonzero" opacity=".1"/>
      <path d="M476.20857 286.44103s.50362 15.65074.57412 25.48345v5.54098a12.25819 12.25819 0 01-.16115 2.18113c-.59427 1.78822.59426 5.76261.59426 5.76261a57.3907 57.3907 0 013.57568 24.6523v8.74467L471.25299 360s1.59143-1.19383-2.785-12.7241a50.26137 50.26137 0 01-3.06701-17.43895 18.66652 18.66652 0 00-1.39502-6.90104 8.5145 8.5145 0 01-.50362-2.29698c-.39785-3.9744-2.18569-8.94616-2.18569-8.94616s-4.76924-14.1043-5.96281-24.45081a56.93319 56.93319 0 01.27699-14.78937 36.91514 36.91514 0 01.71513-3.69734s19.4295-12.23045 26.76719-3.77794a9.57124 9.57124 0 011.6569 2.7856 18.37379 18.37379 0 01.93672 3.0979c2.28138 11.2079-9.4982 15.58022-9.4982 15.58022z" fill="#4C4C78" fill-rule="nonzero"/>
      <circle fill="#BEA1D0" fill-rule="nonzero" cx="476" cy="189" r="10"/>
      <path d="M470.65276 195.28102s4.23178 11.90735 0 18.16792c-4.23178 6.26056 13.49676 4.2402 13.49676 4.2402L491 209.41333s-8.06029 0-8.46355-14.1323c-.40327-14.13231-11.8837 0-11.8837 0z" fill="#FFB9B9" fill-rule="nonzero"/>
      <path d="M491 269.41212c-1.46094.47648-2.96333.83125-4.48993 1.06021-2.50803.36626-5.47066.38071-7.20228-1.0602-1.0216-.853-3.5756-.96384-6.59442-.68433-6.40032.5783-15.05838 2.82884-16.71337 3.2722a33.53833 33.53833 0 01.72534-3.53725s19.70665-11.70087 27.149-3.61436h4.30094c.91958.62158 1.68333 1.42603 2.2373 2.35656.37288 1.51322.58742 2.20717.58742 2.20717zM482 364.42005L480.54806 368 471 365.55131 471.52606 362c1.64132 3.29356 4.43999 3.74224 4.43999 3.74224 1.82325-.91523 3.73571-1.67581 5.71305-2.27207.19464.57279.3209.94988.3209.94988z" fill="#000" fill-rule="nonzero" opacity=".1"/>
      <path d="M482.94339 362.75017s-1.39564 0-6.38655 2.55123c0 0-3.393-.58683-4.78864-5.3014 0 0-4.19196 7.06688-6.98323 7.45976-2.79127.39288-8.18166.78576-4.59144 5.49536 3.59022 4.7096 24.74723 2.55124 24.74723 2.55124s.59669-11.3836-1.99737-12.7562z" fill="#E4E2F3" fill-rule="nonzero"/>
      <path d="M435 191s.39688-7.69982 8.72103-6.94837c.46714.04607.8808.31321 1.1055.71393.2247.40072.23149.8834.01813 1.28993l-1.70606 3.121L435 191z" fill="#BEA1D0" fill-rule="nonzero"/>
      <path d="M481.98755 211.36977s-9.75356-1.59081-12.34073-3.57429c0 0-1.99206 3.77566-5.57274 1.78715-3.58068-1.98852-11.94231-1.78715-11.94231-1.78715-4.43502-2.71191-7.48258-7.2017-8.36164-12.31871 0 0-1.39192-5.1651-1.00864-6.54448 0 0-5.17433-5.36647-7.76149 1.78715 1.00864 4.96876 1.79034 4.57106 1.59365 8.55815l3.18227 8.7394s.19668 2.98025 5.97115 6.95224c5.77447 3.972 12.34073 10.13387 12.34073 10.13387s-3.48486 1.88783-2.18876 10.53157c1.58357 10.57184-.79682 25.62917-.79682 25.62917V271s19.90553-5.75914 23.28448-2.78392c3.37895 2.97522 11.5439 0 11.5439 0s-1.00865-3.37795-2.39048-11.5233c-1.38184-8.14536.19668-16.10948.19668-16.10948s5.17433-13.70816 7.56481-19.27096c2.39048-5.5628-1.79034-13.08895-5.97116-15.893-4.18081-2.80406-5.73412-1.11257-5.73412-1.11257s7.34795 5.27586-1.60878 7.063z" fill="#797C9C" fill-rule="nonzero"/>
      <path d="M457 240.984s1.56641-.40528 9.41338-1.66913C474.26035 238.05102 488 241 488 241" fill="#000" fill-rule="nonzero" opacity=".05"/>
      <path d="M463.39495 182.3173c4.5006.09581 7.83103 5.69327 5.83577 9.73252-.87511 1.77505-2.57034 3.3383-2.39532 5.31002.08001.89762.55508 1.7095.7601 2.58694.94513 4.0342-3.8405 7.81123-2.74536 11.795.37385 1.06828.95527 2.05062 1.71023 2.8895l8.3111 10.55954c.50468.58113.92248 1.2335 1.24016 1.93642.31676 1.00078.43901 2.0538.36005 3.1013-.04 5.04275.28504 10.45363 3.23543 14.5433 3.54547 4.91165 10.77143 6.67661 16.14714 3.9384-1.29017-1.97172-2.63535-4.2813-2.00027-6.55559.7351-2.57685 3.64549-3.76694 5.3257-5.84455 2.03028-2.52138 2.08029-6.10174 1.5002-9.28372-.58007-3.18198-1.74522-6.29336-1.77023-9.5308-.04-5.2596 2.63035-11.37142-.88511-15.25435-.80511-.88752-1.87525-1.54308-2.47533-2.58189-.4522-.9015-.66579-1.9055-.62008-2.91471-.05501-6.132 3.17042-12.36988 1.23516-18.18418-.3689-1.29373-1.14678-2.43053-2.2153-3.23745-2.74036-1.86078-6.54086-.05547-9.71128-1.00855-1.5002-.43872-2.73536-1.45736-4.20056-1.9566-3.95052-1.3464-7.606 1.3565-10.33637 3.94849a31.52926 31.52926 0 01-3.60548 2.74326c.19503-.1059-4.45058 3.2324-2.70035 3.2677z" fill="#000" fill-rule="nonzero" opacity=".1"/>
      <path d="M464.39495 182.3173c4.5006.09581 7.83103 5.69327 5.83577 9.73252-.87511 1.77505-2.57034 3.3383-2.39532 5.31002.08001.89762.55508 1.7095.7601 2.58694.94513 4.0342-3.8405 7.81123-2.74536 11.795.37385 1.06828.95527 2.05062 1.71023 2.8895l8.3111 10.55954c.50468.58113.92248 1.2335 1.24016 1.93642.31676 1.00078.43901 2.0538.36005 3.1013-.04 5.04275.28504 10.45363 3.23543 14.5433 3.54547 4.91165 10.77143 6.67661 16.14714 3.9384-1.29017-1.97172-2.63535-4.2813-2.00027-6.55559.7351-2.57685 3.64549-3.76694 5.3257-5.84455 2.03028-2.52138 2.08029-6.10174 1.5002-9.28372-.58007-3.18198-1.74522-6.29336-1.77023-9.5308-.04-5.2596 2.63035-11.37142-.88511-15.25435-.80511-.88752-1.87525-1.54308-2.47533-2.58189-.4522-.9015-.66579-1.9055-.62008-2.91471-.05501-6.132 3.17042-12.36988 1.23516-18.18418-.3689-1.29373-1.14678-2.43053-2.2153-3.23745-2.74036-1.86078-6.54086-.05547-9.71128-1.00855-1.5002-.43872-2.73536-1.45736-4.20056-1.9566-3.95052-1.3464-7.606 1.3565-10.33637 3.94849a31.52926 31.52926 0 01-3.60548 2.74326c.19503-.1059-4.45058 3.2324-2.70035 3.2677z" fill="#B36362" fill-rule="nonzero"/>
      <path d="M311.24998 278.60395c-1.14838-1.07914-2.14607-2.30973-2.96584-3.6582-1.73635-2.7449-4.64197-4.22331-6.63425-4.96v-.8931h.12043l-.0552-.8275h.0552l-.1405-2.18987-.7076-10.93925s-2.55935-7.33152 1.95716-14.0424c4.5165-6.71089.28103-13.1493-3.9645-15.66715 0 0-2.00733-10.63145-.28102-13.1493a72.75117 72.75117 0 00-7.12605-3.6481 11.75098 11.75098 0 01-.10538-.40366c-.04517-1.00915-.10539-1.98299-.1606-2.97196a10.92193 10.92193 0 01.28104-1.51374c.0552-.20687.11542-.4188.18066-.63576 4.15921-1.62155 6.90826-5.63657 6.93033-10.12184a10.76944 10.76944 0 00-.67246-3.75406 4.79749 4.79749 0 00.50184-1.1908c.22275-1.20752-.0175-2.45505-.67246-3.49168-1.12411-2.52289-3.95947-4.8288-6.02201-5.67145-2.94577-1.211-7.38199-.92338-10.4482-.55504-1.72129.20688-3.68848.79219-4.31075 2.3917a16.65393 16.65393 0 00-.39144 1.8417c-.64234 2.44217-3.42752 3.58251-5.14882 5.44945-1.5055 1.64997-2.188 3.8802-2.6798 6.05493-1.41276 6.23154-1.75223 12.66053-1.00366 19.00745.17564 1.46328.40649 2.91646.65238 4.36965-1.03378 1.46327-1.96719 4.03662-1.54063 8.57782l-3.39742 16.22723-1.41517 9.5113c-.3882 2.6989.56438 5.41769 2.54932 7.276 2.16792 2.13941 4.79754 5.75724 6.41846 8.10352-.70656 2.07482-1.05616 4.25556-1.03378 6.44851.03513 1.00916.09033 1.9628.16059 2.88114a25.77737 25.77737 0 001.08396 5.70173c.39645 3.90543 1.18433 8.90076 2.71994 12.10987l.56708 17.06482s-.8481 15.66715-2.54932 18.74507c-1.70122 3.07793 3.68346 29.09901 3.68346 29.09901v3.638l-.90832 2.66418-.22582-.17156c-4.25054 5.31825 0 7.27602 0 7.27602s1.15422.0555 3.011.12614c-.32483 1.53055.41997 3.08845 1.81163 3.78938 0 0 24.08805 1.12016 28.33357 0 4.24552-1.12016 3.11639-5.04578.8481-4.75817a10.31017 10.31017 0 01-3.3924-.44907c1.32484-1.55915.26597-3.67333-1.4202-3.46645-2.26829.27751-7.36692-1.75089-7.36692-1.75089v.03532a3.8134 3.8134 0 00-.50184-.15137 56.58774 56.58774 0 01-5.60549-1.58942c-1.094-2.35638-3.6132-8.69388-1.8066-13.6236.81799-2.22015 1.08396-5.17697 1.08396-8.04298.04299-8.64116 1.29823-17.233 3.72863-25.52155l3.39742-11.74152s4.8176-14.26947 5.09864-18.1648l-.04015-5.71183c3.98456 2.5784 7.14612 1.7963 9.16851.60045.61437-.3524 1.02085-.98224 1.09064-1.68995.06979-.7077-.20577-1.40554-.73935-1.87237zm-37.81322-29.67927c.09534-.40871.17564-.85779.2459-1.32704h2.00733c.82883 1.7082 1.17597 3.6122 1.00367 5.50494-1.53561-.50458-3.83402-1.70547-3.2569-4.1779z" fill="url(#d)" fill-rule="nonzero"/>
      <path d="M276.10199 361.24294L275 364.5894l3.58527 3.62361L290.44816 371 299 370.16339l-.55353-3.07956c-.33455-1.34278-1.38283-2.38444-2.71689-2.69974-3.51418-.83661-10.21752-2.73567-11.62928-5.38409l-7.99831 2.24294z" fill="#B9CBFF" fill-rule="nonzero"/>
      <path d="M296.92698 369.74197l-1.64404-2.30633 1.64404-2.65096s4.93214 2.09426 7.12084 1.80265c2.1887-.2916 3.28809 3.74316-.82203 4.89897-4.1101 1.15582-27.39907 0-27.39907 0s-4.11012-2.01472 0-7.4863l3.56041 2.87894s6.0517 3.45685 9.04226 2.87894l8.4976-.0159z" fill="#474463" fill-rule="nonzero"/>
      <path d="M304 374.16195L295.44454 375l-11.85775-2.81234L280 368.5887l.29467-.88946.41151-1.24422.40136-1.2185L289.10923 363c.40562.66915.96071 1.23267 1.62066 1.64524 2.60118 1.79949 7.27011 3.08484 10.00847 3.74808a2.84486 2.84486 0 01.34039.10282c1.17891.40036 2.07508 1.38092 2.37764 2.60155L304 374.16195z" fill="#B9CBFF" fill-rule="nonzero"/>
      <path d="M304 374.19648L295.44454 375l-11.85775-2.69648L280 368.85282l.29467-.85282 3.2972 2.46479s6.09653 3.21408 9.10923 2.67676h8.55546l-1.65622-2.14437 1.48857-2.22817c1.17892.38387 2.07508 1.32403 2.37764 2.49437l.53345 2.9331z" fill="#000" fill-rule="nonzero" opacity=".1"/>
      <path d="M300.92698 373.74197l-1.64404-2.30633 1.64404-2.65096s4.93214 2.09426 7.12084 1.80265c2.1887-.2916 3.28809 3.74316-.82203 4.89897-4.1101 1.15582-27.39907 0-27.39907 0s-4.11012-2.01472 0-7.4863l3.56041 2.87894s6.0517 3.45685 9.04226 2.87894l8.4976-.0159z" fill="#474463" fill-rule="nonzero"/>
      <path d="M294 214.84399s-13 1.40241-11.10084-4.2021c.52894-1.58812.66601-3.28775.39877-4.94456C282.96065 203.6422 282.17476 201.6937 281 200l12.1875 1.95926c-.72962 1.26303-1.28497 2.62535-1.64992 4.04742-1.45054 5.94482 2.46242 8.8373 2.46242 8.8373z" fill="#DB8B8B" fill-rule="nonzero"/>
      <path d="M272 277s.27394 11.80973 3.04375 17.5781l.55295 16.75404s-.82688 15.37894-2.48066 18.40215c-1.65377 3.0232 3.58149 28.56377 3.58149 28.56377v4.39326s8.8066 3.2861 11.30247-.5561l-2.48066-32.68404 1.10082-45.31782L272 277z" fill="#474463" fill-rule="nonzero"/>
      <path d="M272 277s.27394 11.80973 3.04375 17.5781l.55295 16.75404s-.82688 15.37894-2.48066 18.40215c-1.65377 3.0232 3.58149 28.56377 3.58149 28.56377v4.39326s8.8066 3.2861 11.30247-.5561l-2.48066-32.68404 1.10082-45.31782L272 277z" fill="#000" fill-rule="nonzero" opacity=".1"/>
      <path d="M266.01315 239l-1.5989 4.38889-1.33406 9.32828c-.36471 2.63634.52838 5.2919 2.39835 7.13131 3.1978 3.29293 7.4599 10.15152 7.4599 10.15152L278 254.34343s-5.06155-.82323-4.2621-4.38889c.79945-3.56565.5346-10.15151.5346-10.15151L266.01315 239z" fill="#CBCDDA" fill-rule="nonzero"/>
      <path d="M266.01315 238l-1.5989 4.38889-1.33406 9.32828c-.36471 2.63634.52838 5.2919 2.39835 7.13131 3.1978 3.29293 7.4599 10.15152 7.4599 10.15152L278 253.34343s-5.06155-.82323-4.2621-4.38889c.79945-3.56565.5346-10.15151.5346-10.15151L266.01315 238z" fill="#000" fill-rule="nonzero" opacity=".05"/>
      <path d="M291 364.6703c-3.5461 5.72373-9.02229 2.4716-10 1.82639l.4002-1.23321L289.37893 363c.40526.67971.9606 1.2519 1.62107 1.6703z" fill="#000" fill-rule="nonzero" opacity=".1"/>
      <path d="M302 287.52344c-.27507 3.85213-4.98187 17.87367-4.98187 17.87367l-3.31615 11.5412c-2.37878 8.16109-3.60624 16.61075-3.64726 25.10718 0 2.81443-.25979 5.71998-1.05954 7.90167-2.21586 6.07432 2.21587 14.29996 2.21587 14.29996-3.87649 6.8741-10.51389 2.20194-10.51389 2.20194v-4.39882s-5.25694-23.92268-3.87648-28.5999c1.38046-4.67723 1.9357-17.327 1.9357-17.327V293.2991c-4.43351-4.39-7.12941-10.21866-7.59506-16.4209-.06622-.90102-.11716-1.8476-.15282-2.82962-.22413-6.20593 4.04458-13.47992 5.7103-16.07163.40242-.62768.65202-.97695.65202-.97695l24.4509 9.61767h.05603v3.02197L302 287.52344z" fill="#474463" fill-rule="nonzero"/>
      <path d="M293 201.04027c-.7184 1.31524-1.2652 2.73389-1.62454 4.21476-2.63317 1.09506-5.55921.97887-8.11288-.32215-.33209-2.14008-1.1059-4.16914-2.26258-5.93288l12 2.04027z" fill="#000" fill-rule="nonzero" opacity=".1"/>
      <circle fill="#B9CBFF" fill-rule="nonzero" cx="288.5" cy="195.5" r="10.5"/>
      <path d="M302 269.68973h-.11587C290.40806 272.06619 276 260.0112 276 260.0112a14.34514 14.34514 0 001.00756-2.03117c.39798-.62966.64483-.98004.64483-.98004l24.18136 9.64805.06046.9648.10579 2.07688z" fill="#000" fill-rule="nonzero" opacity=".1"/>
      <path d="M299.0247 213.4566s-15.36567-9.38665-20.30572-5.52425l-6.85949 8.8327s-4.38947 1.38232-3.56613 10.21501L265 242.99376l9.8801 2.48515s5.76338 5.52424 1.0961 13.52855c0 0 14.54232 12.14623 26.0691 9.656l-.8486-12.96444s-2.47002-7.17593 1.91945-13.80299c4.38946-6.62706.27276-12.9746-3.84395-15.45975.03031 0-1.89419-10.49454-.2475-12.97969z" fill="#CBCDDA" fill-rule="nonzero"/>
      <path d="M299.83474 270s5.79913 1.12453 8.55892 5.633c.79724 1.35351 1.77 2.59112 2.89193 3.67932.51016.47442.77107 1.16632.70405 1.867-.06702.7007-.45413 1.32816-1.04457 1.69313-2.19056 1.34218-5.76355 2.17132-10.2768-1.61164-7.73555-6.4725-.83353-11.26081-.83353-11.26081z" fill="#B9CBFF" fill-rule="nonzero"/>
      <path d="M290.69151 219.20553s-5.48121-.54814-6.84773 13.65811c-1.36652 14.20626-3.56002 17.485-3.56002 17.485s-1.37156 7.3772 1.91616 11.7472c3.28772 4.36999 9.58078 13.65811 9.58078 13.65811s6.84774 1.91093 8.2193-4.91813l-8.4916-15.84562s-1.37156-5.46627 1.91616-9.28813c3.28772-3.82185 5.75855-29.23219-2.73305-26.49654z" fill="#000" fill-rule="nonzero" opacity=".1"/>
      <path d="M291.69151 218.20527s-5.48121-.54814-6.84773 13.65818c-1.36652 14.20631-3.56002 17.48508-3.56002 17.48508s-1.37156 7.37723 1.91616 11.74724c3.28772 4.37002 9.58078 13.65818 9.58078 13.65818s6.84774 1.91094 8.2193-4.91815l-8.4916-15.8457s-1.36652-5.46126 1.91616-9.26805c3.28268-3.8068 5.75855-29.25244-2.73305-26.51678z" fill="#CBCDDA" fill-rule="nonzero"/>
      <path d="M295.94525 229s.57587 8.45287-2.00763 13.0909c-2.5835 4.63805-2.5835 10.63637 0 13.9091M298 218s-2.25194-2.3539-8.71786-2.6461C282.81622 215.06169 280 213 280 213" fill="#000" fill-rule="nonzero" opacity=".1"/>
      <path d="M282.37554 181.3147c-1.68695.20797-3.61415.78119-4.22248 2.35373a16.4816 16.4816 0 00-.3834 1.81604c-.62876 2.40954-3.35855 3.5509-5.0455 5.36694-1.48757 1.62327-2.1419 3.81975-2.62754 5.96552-1.38263 6.14245-1.7127 12.47214-.97638 18.7234.54186 4.56545 1.65116 9.07003 1.95788 13.66084.30671 4.59081-.2556 9.42004-2.78602 13.27531-1.08885 1.65878-2.5202 3.11465-3.2921 4.94083 1.59493 1.2834 3.78796 1.46602 5.84297 1.52182a105.2062 105.2062 0 007.15674 0c1.25242-.04058 2.55597-.12175 3.64482-.75077.79947-.50561 1.45714-1.2036 1.91187-2.02908 1.3649-2.30302 1.7125-5.07272 1.65116-7.7359-.06134-2.66318-.48563-5.32129-.5112-7.9946-.02555-1.45588.08691-2.99799.93038-4.19008.60833-.86236 1.53359-1.44065 2.32594-2.13561 2.97516-2.61245 3.99244-6.8076 4.08957-10.7491.09712-3.9415-.5572-7.88808-.21982-11.81436.13292-1.52182.71057-3.3835 2.23393-3.6828a8.65642 8.65642 0 001.4518-.18261c1.22175-.4667 1.10418-2.1762 1.45179-3.42916.39362-1.40515 1.60004-2.49071 1.94254-3.91107.79747-3.33278-3.47613-7.31486-6.27748-8.47652-2.87803-1.19209-7.2232-.90294-10.24947-.54278z" fill="#000" fill-rule="nonzero" opacity=".1"/>
      <path d="M282.37554 180.31673c-1.68695.20798-3.61415.78118-4.22248 2.35367a16.48074 16.48074 0 00-.3834 1.81598c-.62876 2.40947-3.35855 3.5508-5.0455 5.36678-1.48757 1.62322-2.1419 3.81964-2.62754 5.96534-1.38263 6.14227-1.7127 12.47177-.97638 18.72285.54186 4.5653 1.65116 9.06975 1.95788 13.66042.30671 4.59067-.2556 9.41976-2.78602 13.2749-1.08885 1.65874-2.5202 3.11456-3.2921 4.94069 1.59493 1.28336 3.78796 1.46597 5.84297 1.52177a105.21008 105.21008 0 007.15674 0c1.25242-.04058 2.55597-.12174 3.64482-.75074.79947-.5056 1.45714-1.20358 1.91187-2.02903 1.3649-2.30294 1.7125-5.07256 1.65116-7.73566-.06134-2.6631-.48563-5.32113-.5112-7.99437-.02555-1.45583.08691-2.99789.93038-4.18994.60833-.86234 1.53359-1.44061 2.32594-2.13555 2.97516-2.61237 3.99244-6.80739 4.08957-10.74877.09712-3.94139-.5572-7.88784-.21982-11.81401.13292-1.52177.71057-3.3834 2.23393-3.68268a8.65651 8.65651 0 001.4518-.18262c1.22175-.46667 1.10418-2.17613 1.45179-3.42905.39362-1.4051 1.60004-2.49063 1.94254-3.91095.79747-3.33268-3.47613-7.31464-6.27748-8.47626-2.89848-1.19206-7.24364-.908-10.24947-.54277z" fill="#472727" fill-rule="nonzero"/>
    </g>
    <path d="M48.25795 138.1731c2.86458-.34998 5.92195-.22644 8.58593.90427 5.66466 2.40464 7.27485 9.09677 7.19717 14.53615-.08374 5.85452-1.327 12.24914 3.12407 16.96627 2.04606 2.16867 4.5912 3.82833 6.6003 6.03681 2.14677 2.36006 3.8312 5.06045 5.07841 7.96023 2.29002 5.32635 3.414 11.59007 1.3199 17.17744-1.8438 4.91936-6.48264 9.3595-5.4803 14.95329 1.04553 5.83536 6.92878 10.29654 10.60701 14.64296 4.16273 4.9188 7.99546 11.20547 8.6251 17.65595.60375 6.18185-2.08713 12.43391-6.21677 17.10689-8.25103 9.33738-20.6536 13.91487-33.1592 13.88664-5.30954-.01243-11.32102-.25223-15.903-3.10549-1.41614-.88192-2.16324-1.87135-3.00509-3.2468-.7548-1.23339-1.7519-2.03565-2.90602-2.9084-2.5356-1.91692-4.36674-4.50047-5.53534-7.39248-4.5379-11.2328-.91095-25.12917 5.44108-35.10398 1.50515-2.36324 2.73745-4.63739 2.00624-7.45423-.76304-2.94044-2.63843-5.59256-4.29718-8.12012-1.63911-2.49801-3.51038-4.88109-4.7915-7.58199-1.34177-2.82939-1.7196-5.79223-1.48252-8.88876.44556-5.81664 2.9565-11.18427 6.51142-15.86212 3.42406-4.5058 7.44447-8.81715 7.45348-14.7211.00989-6.2574-4.1734-11.82372-2.39126-18.18555.73792-2.63432 2.22007-5.33714 4.60867-6.91646 2.2907-1.51467 5.3153-2.01028 8.0094-2.33943z" fill="#DDE3E9"/>
    <path d="M46.38616 148.17643c.05372-.84039 1.05059-1.34442 1.83535-1.12513 1.03296.2888 1.0131 1.25397.98582 2.11387-.0836 2.6431.29897 5.21178.93433 7.77635 1.32052 5.33202 3.76103 10.2446 5.69453 15.36644 1.93181 5.11754 2.83864 10.40125 1.70536 15.81634-1.06834 5.10567-2.74675 10.07902-3.8401 15.19114-.9637 4.50567-1.98912 9.25716-.52153 13.75137 1.41218 4.326 4.53432 7.84905 6.78254 11.75848 4.65406 8.09279 6.7188 17.07076 6.99498 26.3099.12798 4.2903.01273 8.62004-.98257 12.82789-.57286 2.42289-1.3427 5.69731-3.41895 7.37008-.95741.7714-2.5949 1.03814-3.4007-.10421-.75654-1.07145-.09285-2.73014.14733-3.87213 1.04013-4.94349 1.24938-9.99553 1.00035-15.01512-.241-4.86214-.81547-9.71615-2.34572-14.35969-1.42027-4.30927-3.57793-8.17984-6.11737-11.94953-2.58767-3.84159-5.27777-7.69137-6.34699-12.24325-1.08635-4.6231-.2038-9.32725.9763-13.86205 1.24798-4.79655 2.88263-9.4555 4.57258-14.12208 1.6469-4.54724 2.23066-8.84973 1.3215-13.60895-1.79601-9.40262-6.6034-18.22803-5.97704-28.01972z" fill="#C5CFD6"/>
    <path d="M123.89233 149.58227c3.54485 1.07633 7.06555 2.81295 9.59248 5.53601 5.3731 5.79068 3.72448 14.54263.75833 20.93497-3.1927 6.88014-8.03087 13.79582-5.3035 21.68996 1.25356 3.62913 3.36153 6.91593 4.55069 10.57292 1.2705 3.90786 1.81886 7.9777 1.749 12.05588-.12935 7.4904-2.12179 15.48275-7.53123 21.00113-4.7628 4.85857-12.55058 7.69638-14.3316 14.83317-1.85804 7.44496 2.68442 15.78146 4.70127 22.83516 2.28258 7.98264 3.45511 17.4113.78413 25.36735-2.55935 7.6249-9.02009 13.6189-16.3337 16.99695-14.61304 6.75026-31.57953 5.71163-46.23238-.8276-6.22107-2.7767-13.14519-6.1876-17.0113-11.94558-1.19482-1.77968-1.54812-3.33847-1.80851-5.40307-.2334-1.8513-.97885-3.31879-1.87122-4.95131-1.9608-3.58608-2.74299-7.59406-2.58502-11.62216.61472-15.64493 12.21385-30.1923 24.93648-38.68432 3.01451-2.01181 5.6619-4.0602 6.29313-7.77187.65924-3.8744-.1386-7.98647-.74818-11.83855-.60216-3.80692-1.53737-7.59868-1.6124-11.45931-.07826-4.04413 1.04463-7.74462 2.9594-11.28333 3.59706-6.6471 9.37926-11.68877 16.02138-15.37157 6.39767-3.5474 13.39203-6.55461 16.5232-13.5321 3.31902-7.395 1.35458-16.15413 6.80748-22.75068 2.25791-2.73153 5.42494-5.15691 9.0613-5.78205 3.48737-.59962 7.29688.38773 10.63077 1.4z" fill="#DDE3E9"/>
    <path d="M116.65125 161.81088c.50295-.96706 1.93258-1.04147 2.73535-.37046 1.0566.88341.52788 2.016.04565 3.02002-1.48202 3.08625-2.37997 6.32867-2.98017 9.69874-1.24841 7.0065-.96755 14.1033-1.38913 21.18215-.4213 7.0729-2.12815 13.80534-6.28933 19.6241-3.9232 5.48637-8.49044 10.49627-12.44626 15.97717-3.4866 4.83068-7.1741 9.9201-7.81177 16.0115-.61436 5.86317 1.19127 11.6717 1.77265 17.47975 1.20363 12.0231-1.08404 23.73733-5.59988 34.82338-2.09728 5.1478-4.49965 10.21483-7.86722 14.67625-1.93879 2.56902-4.55386 6.04322-7.85771 6.93595-1.52352.4117-3.57794-.13066-3.9219-1.90583-.32348-1.66536 1.32128-3.2818 2.20021-4.5083 3.80527-5.30908 6.69583-11.18222 9.03354-17.25711 2.2646-5.88424 4.13505-11.93362 4.77766-18.23471.59614-5.8476.10028-11.56216-.89481-17.35736-1.01385-5.90561-2.14318-11.87462-1.00949-17.82553 1.15096-6.04422 4.64662-11.15247 8.4015-15.90422 3.97136-5.02614 8.32279-9.68666 12.74286-14.32724 4.30726-4.5218 7.24317-9.31102 8.6726-15.42357 2.8243-12.07625 1.82509-25.04731 7.68565-36.31468z" fill="#C5CFD6"/>
    <g>
      <path d="M14.30598 194c5.89429 0 11.07635 3.12436 14.6471 7.55793 4.17992 5.19013 5.02413 11.5283 6.72146 17.71401.84458 3.07837 2.2972 6.13428 4.84282 8.22576 2.31538 1.90207 5.25473 2.2827 8.02614 3.212 5.53873 1.85717 10.01117 6.33094 11.77746 11.78979 2.15483 6.65869-.12754 13.37387.26546 20.12201.36075 6.1973 6.47119 10.06373 11.38742 13.03453 4.84764 2.92952 9.21479 5.6718 10.67483 11.37873 1.54827 6.0528 2.0677 12.8089-.07675 18.78818-3.57039 9.9558-14.01942 14.33976-24.11587 15.01953-9.16288.61676-20.68414-.35165-27.56539-7.00274-4.11762-3.98014-5.6088-9.54656-5.4238-15.08472.11494-3.44379.79713-6.8557 1.67916-10.1836.6251-2.35875 1.46968-4.70736 1.7103-7.1447.63956-6.4845-5.35372-7.72997-10.45534-9.51035-6.48268-2.26278-11.0211-6.53664-14.17699-12.49093C1.285 253.88148.05187 247.65811 1.8137 241.55425c.89983-3.11676 2.5319-5.94451 4.74532-8.34962.97434-1.0586 2.34763-1.94154 3.22706-3.05374.82086-1.03868.64215-2.38447.35927-3.60096-1.30803-5.6193-5.3834-10.27233-6.84084-15.88148-1.31581-5.063-.53796-11.36424 4.09093-14.63057 1.99986-1.41134 4.46614-2.0223 6.91054-2.03788z" fill="#C5CFD6"/>
      <path d="M22.3377 208.64138c6.2473 6.65464 7.9454 15.6836 8.44376 24.43477.27916 4.90724-.0114 10.0832 1.43034 14.84303 1.23358 4.07391 4.12553 7.1881 7.10648 10.13136 6.00053 5.9249 12.6925 11.9483 14.4476 20.52311 1.02983 5.03218.3347 10.22987 1.75769 15.20664 1.29389 4.5237 3.572 8.9681 6.34294 12.78814 2.23102 3.07617 5.13769 5.43128 7.57651 8.29885.74405.87533 1.8099 2.16389 1.5028 3.39957-.35933 1.44718-2.2027 1.90531-3.51057 1.67788-3.04937-.52984-5.61619-3.44159-7.60999-5.5584-2.91548-3.09536-5.39293-6.42468-7.4066-10.15924-2.23543-4.14743-4.0354-8.54837-4.80446-13.20137-.79811-4.8272-.4009-9.85793-2.2233-14.49065-3.06665-7.79509-10.50488-12.39521-15.88274-18.47077-6.70043-7.57054-5.70114-16.9928-5.01484-26.30532.37699-5.11765.75177-10.89696-1.83418-15.56951-.98715-1.78363-3.18802-3.44666-3.61245-5.47402-.38876-1.8575 1.73303-3.73457 3.291-2.07407z" fill="#AFB9C5"/>
    </g>
    <path d="M29 318c0 38.05849 6.21123 58 39.0001 58C100.78895 376 107 356.05849 107 318H29z" fill="#89C5CC"/>
  </g>
</svg>
