<svg xmlns="http://www.w3.org/2000/svg" viewBox="0 0 109 117">
  <g fill-rule="nonzero" fill="none">
    <path d="M107.30549 112.33752C104.69275 115.65122 99.26923 116 99.26923 116s-1.18745-5.0238 1.42528-8.33751c2.61274-3.31371 8.03626-3.66249 8.03626-3.66249s1.18745 5.0238-1.42528 8.33752z" fill="#E6E6E6"/>
    <path d="M94.18616 113.55834C96.01507 115.76748 99.81154 116 99.81154 116s.83122-3.3492-.9977-5.55834C96.98493 108.23252 93.18846 108 93.18846 108s-.83122 3.3492.9977 5.55834z" fill="#E6E6E6"/>
    <path fill="#3F3D56" d="M104.93192 116.16384H59v-.32768h46z"/>
    <path fill="#E6E6E6" d="M0 3h104v57H0z"/>
    <path fill="#FFF" d="M5 55h93V9H5z"/>
    <path fill="#629261" d="M1 0h103v5H1z"/>
    <path fill="#E6E6E6" d="M11 25h19v13H11zM41 25h52v2H41zM41 31h52v2H41zM41 37h52v2H41z"/>
    <path d="M76.41444 61.5057l-.4974 2.9078s-2.36262 6.70058-1.74088 13.02188c.62175 6.3213 1.11914 10.74622 1.11914 10.74622s-1.86523 15.92968-1.11914 21.61886c0 0 1.98958 2.78137 4.60091-.12643l1.98958-20.98673 2.11394-14.91827 1.86523 16.68824 1.24349 18.96392s1.74089 1.8964 4.35221.25285l-.2487-21.49243s2.23829-18.20536 1.86524-19.72247C91.58501 66.94202 89.09803 61 89.09803 61l-12.68359.5057z" fill="#2F2E41"/>
    <path d="M74.5592 110.36636l.11688 2.56449s-1.78153 2.90297.4393 2.90297c.02222 0-.02192.00008 0 0 1.6061-.0053 3.05771.74987 2.86785-.91637l-.26811-2.35296L77.24757 110l-2.68838.36636zM89.4408 110.36636l-.11688 2.56449s1.78153 2.90297-.4393 2.90297c-.02222 0 .02192.00008 0 0-1.6061-.0053-3.05771.74987-2.86785-.91637l.26811-2.35296L86.75243 110l2.68838.36636z" fill="#2F2E41"/>
    <circle fill="#9F616A" cx="82" cy="36" r="4"/>
    <path d="M79.29586 38.39579s.54325 6.0687-1.0865 6.99219C76.5796 46.31148 85 45.91569 85 45.91569S83.09862 38.79157 83.23443 38l-3.93857.39579z" fill="#FFB8B8"/>
    <path d="M87.69953 42s-5.07765-2.25-12.18636 0c0 0-3.11006.8125-3.49089 1.8125-.38082 1 4.25254 12.4375 3.74477 14.4375-.3054 1.22596-.39132 2.49497-.25388 3.75 0 0 11.17083-1.5 13.8366-.375 0 0-1.01554-3.25-.76165-5.5C88.842 53.875 91 43.375 91 43.375S89.85753 42.25 87.69953 42z" fill="#629261"/>
    <path d="M91.71267 72s-1.67557 5.86978.1117 5.99739c1.78727.1276 1.00534-4.46614 1.00534-4.46614L92.60631 72h-.89364z" fill="#9F616A"/>
    <path d="M88.48 44.74678L91 44s1.44 1.12017 1.44 2.61373c0 1.49357-.24 11.07726-.24 11.07726l1.8 14.3133L91.24 73 88 57.56652l.48-12.81974z" fill="#629261"/>
    <path d="M71.28733 72s1.67557 5.86978-.1117 5.99739c-1.78727.1276-1.00534-4.46614-1.00534-4.46614L70.39369 72h.89364z" fill="#9F616A"/>
    <path d="M75.52 44.74678L73 44s-1.44 1.12017-1.44 2.61373c0 1.49357.24 11.07726.24 11.07726L70 72.00429 72.76 73 76 57.56652l-.48-12.81974z" fill="#629261"/>
    <path d="M83.57377 30.02878s-3.48355-.63574-4.23002 4.06872c-.74648 4.70445-.37324 6.48452-1.61736 6.9931-1.24413.5086-1.61737 1.14433-1.36854 2.16151.24882 1.01718 1.11971 1.39862-.12441 3.30583-1.24413 1.90722 2.73707 1.39863 5.9718 2.9244 3.23472 1.52576 10.69947-.63574 9.70417-2.4158-.9953-1.78007-2.61266-1.01718-1.86619-3.05154.74647-2.03436.9953-2.4158 0-3.68728-.9953-1.27147.49765-9.15461-6.46945-10.29894z" fill="#2F2E41"/>
  </g>
</svg>
