<svg xmlns="http://www.w3.org/2000/svg" viewBox="0 0 158 100">
  <g fill="none" fill-rule="evenodd">
    <path d="M139.0995 82.41588a37.08904 37.08904 0 01-1.4358 1.19212c-.08224.06615-.16708.12972-.25062.19717a50.4401 50.4401 0 01-5.48216 3.68013l-.35634.20625a5.64519 5.64519 0 01-.26106.14788c-1.99185 1.14283-4.0581 2.19485-6.14916 3.1911l-.0222.01167-.15793.07394c-1.68642.80339-3.39807 1.5722-5.13496 2.3064l-.04177.01557a133.95633 133.95633 0 01-2.3495.95733c-.3198.12971-.6409.25035-.962.37359-.60433.2296-1.20998.45531-1.82085.67194l-.0757.02854-.13054.0454-.16316.05967c-1.5933.56558-3.20793 1.08791-4.84388 1.567l-.02872.0078a82.34886 82.34886 0 01-3.44463.9171l-.15793.03892c-1.69687.40732-3.42114.75756-5.15585 1.03775l-.39942.06357c-1.26873.19803-2.54616.35975-3.8323.48514-7.22992.694-14.546.12972-21.73156-.83798-14.50946-1.95616-28.82705-5.62332-41.88505-11.37117-2.50613-1.10262-4.96354-2.28306-7.37221-3.54133-.01958-.01038-.03655-.02076-.05613-.02984a106.71953 106.71953 0 01-4.26695-2.3544c-.41116-.23609-.81971-.47737-1.22565-.71994a124.4271 124.4271 0 01-1.49194-.90804c-.65264-.40472-1.30527-.81982-1.95791-1.244l-.30544-.20236-.11747-.07913c-.16577-.11026-.32893-.22052-.4934-.33208C9.40451 73.92058 3.9341 68.89007 1.34964 62.5948-1.63684 55.33054.27409 46.12048 7.6711 41.82678c2.54268-1.4788 5.49783-2.28176 8.4843-2.94462l.30544-.06745c.50514-.11027 1.01028-.21663 1.51281-.323 1.76082-.371 3.53078-.7394 5.28377-1.15061.9137-.21404 1.81825-.43845 2.71759-.68103l.36808-.10118a44.18278 44.18278 0 006.34496-2.22079h.01305a19.98604 19.98604 0 00.65264-.30224c.13836-.06486.27672-.12972.41508-.20107 2.21897-1.09742 4.56847-2.61903 6.37628-4.4325.14489-.14528.28586-.29316.42291-.44104.10573-.11545.21015-.2322.31066-.34895 1.26742-1.46842 2.14457-3.09899 2.31164-4.82944a6.18855 6.18855 0 00-.07831-1.74213c-.20493-1.08834-.40333-2.15333-.54953-3.19238-.2728-1.95227-.36547-3.81893.01306-5.61814.38505-1.83422 1.25828-3.5997 2.92512-5.312.25149-.25943.52255-.51887.8132-.7783 1.348-1.17532 2.87329-2.13306 4.52017-2.83826.20362-.08648.40855-.17296.61478-.25944 4.57892-1.842 10.08066-2.22598 15.22085-1.97173A83.52032 83.52032 0 0180.9311 4.04221c.372.08302.744.16993 1.1134.25944a99.311 99.311 0 0111.7475 3.61008c9.96971 3.72683 19.37946 8.90132 28.1705 14.61156.08615.05578.1723.11156.26106.16863.36722.23782.73226.4765 1.09513.71605a178.26324 178.26324 0 012.08844 1.39708l.46598.31521c.22973.15567.45816.31176.68527.46829l.69963.48126a.76746.76746 0 01.09398.06615l.59521.40992c.3446.23868.68658.47866 1.02986.71994l.73618.51887c.15272.10897.30674.21663.45946.3269l.78316.56817.17491.12971c.03655.02595.0731.0519.10834.08043l.02219.01427c2.12238 1.54755 4.19386 3.15217 6.1348 4.85279l.25062.22052.0261.02335c.21146.1868.42291.37619.63045.56687 2.53485 2.29344 4.80604 4.7581 6.66214 7.4822 8.52607 12.58275 5.99514 30.00532-5.86592 40.36598z" fill="#F2F2F2" fill-rule="nonzero"/>
    <path d="M.87595 71.22109c-.42925 3.90413 2.61959 8.3873 5.88528 10.39179 2.63301 1.61591 6.16925 1.48267 9.05588.64217 1.93256-.56284 4.70458-1.84174 4.81114-4.13219.13334-2.8656-3.4539-3.12929-5.5519-3.25806-2.78922-.17117-5.2091-.60408-7.03628-2.84044-.42564-.52121-.79636-1.08761-1.2157-1.61372-.65632-.8238-1.32605-1.73224-2.45446-1.87481-1.5568-.1968-1.86822.66296-1.62443 2.0008.04147.22805.99901 2.54415.19103 2.17795-.24683-.11179-.43213-.49514-.56423-.97543-.09259-1.23413-.19862-2.70574-.08997-3.12412 1.17057-4.5135 7.62037-6.06148 11.69538-6.3901.40088-.03232.80267-.05653 1.2049-.07603l.02951-.8389c-1.02591.02153-2.05052.06311-3.06908.19661-4.04356.53003-10.02132 2.42007-10.83438 6.9948-.03024.16877-.05611.79254-.03758 1.54987-.21541.3511-.35213.74805-.3951 1.16981zM101.58412 14.54087c2.48043-2.91305 8.4858-3.37119 12.1619-3.15131 4.54881.27202 9.22659 1.40325 13.56142 2.76256 7.14082 2.23893 14.09169 6.28543 20.3933 10.19925.7594.4716 10.11427 6.10578 9.29578 7.07864-.81082.96387-10.0018-5.71629-12.04796-6.87063-4.36637-2.46396-8.37504-5.37042-13.18109-7.01-4.97631-1.69797-10.2319-2.39154-15.45306-2.37986-.6701.0016-2.859-.47726-2.89974.50853-.0399.96412 3.57363.48435 4.21157.49425 2.63431.04112 5.28639.30489 7.88618.77574 4.87095.88211 9.45619 2.62539 13.64042 5.2808-1.14516 2.68144-3.92445 3.90327-6.8528 3.21145-2.53087-.59826-5.00375-2.04875-7.481-2.47962-1.70611-.29663-3.41147-.13776-5.06098.32912-4.35103 1.23188-6.84838 3.79704-11.65297 1.97038-3.76652-1.43197-10.08323-6.52996-6.52097-10.7193" fill="#C1C1C1"/>
    <path d="M106.17805 37.14264l-5.32918-5.30072c-.5277-.53371-1.2491-.83679-2.0038-.84192-.75472-.005-1.4802.28835-2.01519.81492l-33.46465 32.82L49.2156 50.5301c-1.09406-1.09764-2.88054-1.1103-3.99039-.02829l-5.38637 5.27116c-1.10773 1.09427-1.1199 2.86617-.0273 3.97522l21.4883 21.42146c1.10596 1.09603 2.89737 1.10864 4.01899.02829l40.82932-40.08135c.53953-.52157.84616-1.23463.85185-1.98081.00553-.74618-.29033-1.46368-.82195-1.99313z" fill="#629261" fill-rule="nonzero"/>
  </g>
</svg>
