<svg width="32" height="32" viewBox="0 0 32 32" fill="none" xmlns="http://www.w3.org/2000/svg">
<path d="M17.719 5.70862C10.4571 5.70862 4.56836 10.5055 4.56836 16.4238C4.56836 20.0437 6.77062 23.2379 10.1425 25.181C9.73534 25.8065 9.08392 26.6726 8.06606 27.709C7.62561 28.1569 7.96243 28.923 8.59165 28.886C11.0752 28.738 13.3552 27.7756 14.906 26.8947C15.8128 27.0539 16.753 27.1427 17.719 27.1427C24.9809 27.1427 30.8696 22.3459 30.8696 16.4275C30.8696 10.5092 24.9809 5.70862 17.719 5.70862Z" fill="#BFE5D1"/>
<path d="M15.4988 3.85803C8.23687 3.85803 2.34814 8.65489 2.34814 14.5732C2.34814 18.1931 4.5504 21.3873 7.92226 23.3304C7.51142 23.9597 6.8526 24.8369 5.82364 25.8806C5.39059 26.3211 5.72001 27.0687 6.33812 27.0354C8.83278 26.8948 11.1313 25.9287 12.6858 25.0404C13.5926 25.1996 14.5327 25.2884 15.4988 25.2884C22.7607 25.2884 28.6494 20.4916 28.6494 14.5732C28.6494 8.65489 22.7607 3.85803 15.4988 3.85803Z" stroke="#26985D" stroke-width="1.69271" stroke-miterlimit="10"/>
<path d="M10.5686 16.1165C11.3699 16.1165 12.0195 15.4669 12.0195 14.6656C12.0195 13.8643 11.3699 13.2147 10.5686 13.2147C9.76727 13.2147 9.11768 13.8643 9.11768 14.6656C9.11768 15.4669 9.76727 16.1165 10.5686 16.1165Z" fill="#26985D"/>
<path d="M15.4988 16.1165C16.3001 16.1165 16.9497 15.4669 16.9497 14.6656C16.9497 13.8643 16.3001 13.2147 15.4988 13.2147C14.6974 13.2147 14.0479 13.8643 14.0479 14.6656C14.0479 15.4669 14.6974 16.1165 15.4988 16.1165Z" fill="#26985D"/>
<path d="M20.4284 16.1165C21.2297 16.1165 21.8793 15.4669 21.8793 14.6656C21.8793 13.8643 21.2297 13.2147 20.4284 13.2147C19.6271 13.2147 18.9775 13.8643 18.9775 14.6656C18.9775 15.4669 19.6271 16.1165 20.4284 16.1165Z" fill="#26985D"/>
</svg>
