<svg width="48" height="48" viewBox="0 0 48 48" fill="none" xmlns="http://www.w3.org/2000/svg">
<ellipse cx="24.02" cy="23.9402" rx="19.98" ry="19.98" fill="#EAF6F0"/>
<ellipse cx="24.02" cy="23.9402" rx="19.98" ry="19.98" fill="#EAF6F0"/>
<path d="M24.2327 14.3201C24.3298 14.3201 24.4228 14.3322 24.5159 14.3403C24.5361 14.3605 24.5523 14.3808 24.5725 14.401C24.8355 14.664 25.0945 14.9229 25.3575 15.1859C25.4303 15.2588 25.4263 15.2426 25.3939 15.3397C25.2604 15.7443 25.1228 16.1489 24.9893 16.5535C24.9569 16.6506 24.965 16.6385 24.8719 16.6628C23.7026 16.9541 22.5292 17.2495 21.3599 17.5408C21.3356 17.5448 21.3113 17.5529 21.2871 17.557C21.2749 17.557 21.2668 17.5529 21.2668 17.5408C21.2628 17.5125 21.2628 17.4882 21.2628 17.4599C21.2628 16.9541 21.2628 16.4483 21.2628 15.9466C21.2628 15.8859 21.2628 15.8293 21.2628 15.7686C21.2628 15.7322 21.2507 15.7119 21.2183 15.7038C21.1333 15.6755 21.0443 15.6472 20.9593 15.6189C20.6316 15.5096 20.3039 15.4004 19.9761 15.2911C19.9519 15.283 19.9235 15.2709 19.8993 15.2628C19.9114 15.2466 19.9316 15.2426 19.9519 15.2345C20.6073 14.931 21.2871 14.7045 21.9911 14.5507C22.3107 14.4819 22.6304 14.4293 22.9541 14.3929C23.1442 14.3727 23.3385 14.3565 23.5286 14.3443C23.5448 14.3443 23.565 14.3524 23.5731 14.3282C23.7876 14.3201 24.0101 14.3201 24.2327 14.3201ZM30.1157 16.5819C30.0267 16.6385 30.051 16.6385 29.9458 16.6021C29.0799 16.3148 28.21 16.0235 27.3441 15.7362C27.2672 15.7119 27.2713 15.6998 27.2187 15.7767C26.9395 16.1934 26.6603 16.6142 26.3811 17.031C26.3528 17.0755 26.3407 17.1159 26.3407 17.1685C26.3407 17.4154 26.3407 17.6622 26.3407 17.909C26.3407 17.9292 26.3407 17.9494 26.3407 17.9697C26.3366 18.0142 26.3326 18.0223 26.2921 18.0344C26.2759 18.0385 26.2598 18.0425 26.2436 18.0465C25.8632 18.1396 25.4829 18.2367 25.1026 18.3298C24.9245 18.3743 24.7506 18.4188 24.5725 18.4633C24.4916 18.4835 24.4916 18.4835 24.4916 18.5685C24.4916 18.8194 24.4916 19.0702 24.4916 19.3211C24.4916 19.4222 24.4997 19.406 24.5766 19.3939C24.8841 19.3454 25.1956 19.2928 25.5031 19.2402C25.7823 19.1916 26.0615 19.1471 26.3407 19.0985C26.6239 19.05 26.9112 19.0055 27.1944 18.9569C27.2389 18.9488 27.2834 18.9488 27.3198 18.9812C27.3279 18.9893 27.3401 18.9933 27.3522 19.0014C28.0684 19.4303 28.7805 19.8592 29.4967 20.2881C29.5493 20.3205 29.5978 20.3326 29.6585 20.3326C30.055 20.3326 30.4515 20.3326 30.8481 20.3326C30.8723 20.3326 30.8966 20.3326 30.9209 20.3326C30.9452 20.3367 30.9573 20.3447 30.9573 20.369C30.9573 20.3893 30.9573 20.4135 30.9573 20.4338C30.9573 20.6684 30.9573 20.9072 30.9573 21.1418C30.9573 21.2632 30.9654 21.2551 30.844 21.2349C30.6822 21.2066 30.5203 21.1823 30.3544 21.154C30.1036 21.1135 29.8487 21.069 29.5978 21.0285C29.347 20.9881 29.0961 20.9436 28.8452 20.9031C28.651 20.8707 28.4568 20.8384 28.2626 20.806C28.21 20.7979 28.1736 20.7777 28.1372 20.7413C27.8701 20.4742 27.6031 20.2072 27.336 19.9401C27.3239 19.928 27.3077 19.9118 27.2956 19.8997C27.2753 19.8754 27.2511 19.8714 27.2227 19.8794C27.1256 19.8997 27.0285 19.9199 26.9314 19.9361C26.4014 20.0413 25.8713 20.1465 25.3453 20.2517C25.228 20.276 25.1147 20.3002 24.9974 20.3205C24.965 20.3245 24.9407 20.3407 24.9245 20.365C24.9164 20.3771 24.9084 20.3893 24.8962 20.4014C24.4673 20.9719 24.0384 21.5464 23.6095 22.117C23.5772 22.1615 23.561 22.206 23.561 22.2586C23.561 23.1285 23.561 23.9984 23.561 24.8683C23.561 24.9573 23.5569 24.9533 23.6379 24.9897C24.2003 25.2729 24.7667 25.5521 25.3292 25.8353C25.4182 25.8798 25.406 25.8758 25.495 25.8475C25.8916 25.714 26.2881 25.5845 26.6886 25.451C26.7129 25.4429 26.7372 25.4348 26.7574 25.4307C26.7817 25.4267 26.7979 25.4307 26.806 25.455C26.8141 25.4752 26.8222 25.4955 26.8303 25.5157C26.9638 25.9122 27.0933 26.3087 27.2268 26.7093C27.247 26.77 27.2551 26.8307 27.2551 26.8995C27.2551 27.6116 27.2551 28.3237 27.2551 29.0358C27.2551 29.0884 27.2672 29.137 27.2915 29.1855C27.5748 29.752 27.858 30.3184 28.1412 30.8849C28.1817 30.9699 28.1736 30.9618 28.2707 30.9618C28.6753 30.9618 29.0799 30.9618 29.4845 30.9618C29.5857 30.9618 29.5654 30.9699 29.6383 30.897C30.055 30.4803 30.4718 30.0635 30.8885 29.6468C30.9735 29.5618 30.9573 29.5901 30.9856 29.4769C31.277 28.3075 31.5723 27.1382 31.8636 25.9689C31.8798 25.9082 31.9041 25.8556 31.9365 25.803C32.2076 25.3943 32.4827 24.9857 32.7538 24.581C32.8185 24.4839 32.8145 24.5042 32.7659 24.403C32.6365 24.1441 32.507 23.8811 32.3735 23.6221C32.3573 23.5857 32.3492 23.5574 32.3694 23.5169C32.507 23.2418 32.6445 22.9666 32.7821 22.6915C32.7943 22.6672 32.8104 22.6429 32.8266 22.6268C32.9601 22.4932 33.0937 22.3597 33.2312 22.2262C33.2636 22.1938 33.2717 22.1938 33.296 22.2343C33.3041 22.2464 33.3081 22.2545 33.3162 22.2667C33.4093 22.4204 33.5023 22.5742 33.5954 22.7279C33.6116 22.7522 33.6237 22.7805 33.648 22.8007C33.6561 22.7643 33.648 22.732 33.6439 22.6996C33.6318 22.6187 33.6197 22.5377 33.6075 22.4568C33.5306 21.9672 33.4133 21.4858 33.2555 21.0164C32.6688 19.2523 31.6613 17.7755 30.2411 16.5778C30.225 16.5616 30.2047 16.5535 30.1885 16.5373C30.1683 16.5495 30.144 16.5657 30.1157 16.5819ZM17.7467 31.4271C18.1068 31.7346 18.4872 32.0138 18.8877 32.2646C18.9039 32.2768 18.9201 32.2849 18.9403 32.293C18.9565 32.2606 18.9484 32.2282 18.9484 32.1999C18.9484 31.8479 18.9484 31.4959 18.9484 31.1439C18.9484 31.1034 18.9525 31.0629 18.9484 31.0265C18.9444 30.982 18.9646 30.9496 19.0051 30.9335C19.0132 30.9294 19.0172 30.9254 19.0253 30.9213C19.7455 30.4884 20.4617 30.0595 21.1819 29.6266C21.279 29.5699 21.2628 29.578 21.2871 29.4849C21.3963 29.0439 21.5056 28.6069 21.6189 28.1659C21.6512 28.0364 21.6836 27.907 21.716 27.7775C21.7241 27.7411 21.72 27.7168 21.6917 27.6925C21.6553 27.6642 21.6189 27.6318 21.5865 27.5994C21.3639 27.4052 21.1374 27.2151 20.9148 27.0209C20.6923 26.8266 20.4657 26.6365 20.2391 26.4423C19.9802 26.2197 19.7212 25.9972 19.4663 25.7787C19.1548 25.5116 18.8473 25.2446 18.5357 24.9816C18.5074 24.9573 18.4872 24.9331 18.4669 24.9047C17.8641 24.0186 17.2733 23.1325 16.6826 22.2424C16.6745 22.2262 16.6624 22.2141 16.6543 22.1979C16.6462 22.1817 16.6502 22.1695 16.6583 22.1574C16.6624 22.1534 16.6664 22.1453 16.6704 22.1412C16.7473 22.0522 16.8242 21.9672 16.9011 21.8782C17.0184 21.7447 17.1398 21.6071 17.2571 21.4736C17.3826 21.332 17.508 21.1863 17.6334 21.0447C17.7508 20.9112 17.8681 20.7777 17.9854 20.6442C18.1392 20.4661 18.297 20.2881 18.4507 20.1101C18.5681 19.9766 18.6895 19.839 18.8068 19.7055C18.9606 19.5274 19.1183 19.3494 19.2721 19.1714C19.4259 18.9933 19.5796 18.8194 19.7334 18.6454C19.7657 18.609 19.7981 18.5725 19.8305 18.5361C19.8547 18.5078 19.875 18.4754 19.8709 18.435C19.8709 18.4269 19.8709 18.4147 19.8709 18.4067C19.8709 17.9939 19.8709 17.5853 19.8709 17.1726C19.8709 17.12 19.8588 17.0714 19.8345 17.0229C19.705 16.768 19.5796 16.5131 19.4501 16.2541C19.442 16.2379 19.4339 16.2217 19.4259 16.2096C19.4137 16.1853 19.4137 16.1651 19.4259 16.1408C19.4339 16.1246 19.442 16.1044 19.4542 16.0882C19.5756 15.8455 19.6969 15.6027 19.8183 15.3599C19.8345 15.3316 19.8467 15.3033 19.8588 15.2709C19.8224 15.2871 19.786 15.2992 19.7495 15.3195C18.7178 15.8252 17.8074 16.4969 17.0103 17.3263C16.1525 18.2246 15.489 19.2523 15.0237 20.4054C14.7971 20.9638 14.6272 21.5384 14.5098 22.1291C14.4653 22.3557 14.4289 22.5863 14.4006 22.8129C14.3844 22.9505 14.3642 23.088 14.3601 23.2256C14.4329 23.4845 14.5098 23.7475 14.5826 24.0065C14.793 24.7469 15.0075 25.4874 15.2179 26.2319C15.2381 26.3047 15.2705 26.3694 15.315 26.4261C15.7398 26.9925 16.1647 27.5549 16.5895 28.1214C16.6178 28.1619 16.6421 28.2023 16.6624 28.2509C16.9537 28.9751 17.2409 29.6994 17.5323 30.4277C17.5525 30.4803 17.5646 30.5288 17.5768 30.5855C17.6051 30.7514 17.6334 30.9173 17.6577 31.0791C17.6739 31.1803 17.6901 31.2814 17.7063 31.3866C17.7184 31.4028 17.7305 31.4149 17.7467 31.4271Z" fill="#2AA967"/>
<path d="M33.6521 22.7927C33.6604 22.7969 33.6604 22.8052 33.6604 22.8136C33.6604 22.8052 33.6563 22.8011 33.6521 22.7927Z" fill="#2AA967"/>
<path d="M24.0185 33.6695C29.3413 33.6695 33.6564 29.3545 33.6564 24.0317C33.6564 18.7088 29.3413 14.3938 24.0185 14.3938C18.6956 14.3938 14.3806 18.7088 14.3806 24.0317C14.3806 29.3545 18.6956 33.6695 24.0185 33.6695Z" stroke="#505050" stroke-width="1.5" stroke-miterlimit="10" stroke-linecap="round" stroke-linejoin="round"/>
</svg>
