<svg width="34" height="32" viewBox="0 0 34 32" fill="none" xmlns="http://www.w3.org/2000/svg">
<path d="M21.7673 19.2248C24.079 17.0719 27.6648 17.8474 29.1678 18.5084C35.0875 20.6613 33.6805 24.0699 32.2366 25.5064C24.4741 27.5412 8.04825 30.2813 4.44031 24.9672C-0.0723764 18.3274 12.0218 7.73999 12.7419 7.02357C13.4657 6.30715 14.9096 4.1542 18.6985 8.10188C21.7303 11.2593 15.9916 13.006 12.7419 13.4861C13.7537 14.2025 13.7648 17.6147 13.6429 19.2285C17.5426 17.6443 20.6853 18.5638 21.7673 19.2248Z" fill="#BFE5D1"/>
<path d="M27.7093 16.9574C26.221 15.8384 22.2586 14.5422 18.3257 18.3311" stroke="#26985D" stroke-width="1.69271" stroke-linecap="round" stroke-linejoin="round"/>
<path d="M19.7692 19.4131C18.5579 18.1022 15.1272 16.2188 11.1094 19.1989" stroke="#26985D" stroke-width="1.69271" stroke-linecap="round" stroke-linejoin="round"/>
<path d="M8.22168 22.6628C9.42186 22.0018 11.5453 19.8526 10.4374 16.5438C9.32954 13.2349 9.97579 11.5473 10.4374 11.1152" stroke="#26985D" stroke-width="1.69271" stroke-linecap="round" stroke-linejoin="round"/>
<path d="M28.429 26.3114C21.5676 28.3056 6.72969 30.9866 2.27608 25.7464C0.496119 23.3387 -0.796386 16.3111 8.28439 7.48146C10.1197 5.47624 14.3222 2.33729 16.4346 5.81598C19.0786 10.1625 12.0954 10.8124 12.8746 9.14695" stroke="#26985D" stroke-width="1.69271" stroke-linecap="round" stroke-linejoin="round"/>
<path d="M16.8816 8.22742C17.3912 9.10632 17.7531 11.2223 15.1386 12.6736C12.524 14.1249 10.6406 13.6301 10.0239 13.198" stroke="#26985D" stroke-width="1.69271" stroke-linecap="round" stroke-linejoin="round"/>
</svg>
