<svg width="24" height="24" viewBox="0 0 24 24" fill="none" xmlns="http://www.w3.org/2000/svg">
<circle cx="12.01" cy="11.97" r="9.99" fill="#EAF6F0"/>
<path d="M9.72203 13.3022L10.2315 15.0881C10.3261 15.4225 10.0981 15.7811 9.71961 15.8902L9.50855 15.9507C9.1301 16.0598 8.74438 15.8756 8.64976 15.5412L7.96565 13.1471C7.94866 13.0841 7.94139 13.0211 7.94624 12.9581" stroke="#505050" stroke-miterlimit="10"/>
<path d="M6.9079 9.53902L13.2032 8.02696C13.7709 7.88642 14.3192 8.3129 14.3192 8.89688V13.4597C14.3192 14.0413 13.7709 14.4702 13.2057 14.3296L6.9079 12.8176C6.50762 12.7182 6.22864 12.3596 6.22864 11.9477V10.4065C6.22864 9.997 6.50762 9.63837 6.9079 9.53902Z" fill="#EAF6F0" stroke="#505050" stroke-miterlimit="10"/>
<path d="M16.6699 11.1383H18.5816" stroke="#2AA967" stroke-miterlimit="10" stroke-linecap="round" stroke-linejoin="round"/>
<path d="M15.9738 9.36451L17.0752 8.26196" stroke="#2AA967" stroke-miterlimit="10" stroke-linecap="round" stroke-linejoin="round"/>
<path d="M17.0751 14.0923L15.8912 12.9122" stroke="#2AA967" stroke-miterlimit="10" stroke-linecap="round" stroke-linejoin="round"/>
<path d="M12.5264 8.26196V10.1108" stroke="#505050" stroke-miterlimit="10" stroke-linecap="round" stroke-linejoin="round"/>
</svg>
