<svg width="34" height="32" viewBox="0 0 34 32" fill="none" xmlns="http://www.w3.org/2000/svg">
<path d="M22.9609 22.2575C23.4422 21.885 23.156 20.7091 22.3216 19.6311C21.4871 18.5531 20.4206 17.9812 19.9393 18.3537C19.458 18.7262 19.7443 19.9021 20.5787 20.9801C21.4131 22.0581 22.4797 22.63 22.9609 22.2575Z" fill="#BFE5D1" stroke="#26985D" stroke-width="1.33333" stroke-miterlimit="10" stroke-linecap="round" stroke-linejoin="round"/>
<path d="M25.4949 20.9456C26.3293 19.8676 26.6156 18.6917 26.1343 18.3192C25.653 17.9466 24.5864 18.5186 23.752 19.5966C22.9176 20.6746 22.6314 21.8504 23.1126 22.223C23.5939 22.5955 24.6605 22.0236 25.4949 20.9456Z" fill="#BFE5D1" stroke="#26985D" stroke-width="1.33333" stroke-miterlimit="10" stroke-linecap="round" stroke-linejoin="round"/>
<path d="M8.94727 22.2576C9.42855 21.8851 9.14228 20.7092 8.30788 19.6312C7.47347 18.5532 6.40691 17.9813 5.92563 18.3538C5.44435 18.7263 5.73062 19.9022 6.56502 20.9802C7.39943 22.0582 8.466 22.6301 8.94727 22.2576Z" fill="#BFE5D1" stroke="#26985D" stroke-width="1.33333" stroke-miterlimit="10" stroke-linecap="round" stroke-linejoin="round"/>
<path d="M11.4817 20.9461C12.3161 19.8681 12.6024 18.6922 12.1211 18.3197C11.6398 17.9471 10.5733 18.519 9.73885 19.5971C8.90445 20.6751 8.61818 21.8509 9.09946 22.2235C9.58073 22.596 10.6473 22.0241 11.4817 20.9461Z" fill="#BFE5D1" stroke="#26985D" stroke-width="1.33333" stroke-miterlimit="10" stroke-linecap="round" stroke-linejoin="round"/>
<path d="M26.2209 14.5558H5.83789V29.8431H26.2209V14.5558Z" stroke="#26985D" stroke-width="1.33333" stroke-linecap="round" stroke-linejoin="round"/>
<path d="M23.6729 17.1037C27.8944 17.1037 31.3166 13.6815 31.3166 9.46005C31.3166 5.23858 27.8944 1.81641 23.6729 1.81641C19.4515 1.81641 16.0293 5.23858 16.0293 9.46005C16.0293 13.6815 19.4515 17.1037 23.6729 17.1037Z" fill="#BFE5D1"/>
<path d="M26.2209 14.5559L16.0294 4.36438L5.83789 14.5559" stroke="#26985D" stroke-width="1.33333" stroke-linecap="round" stroke-linejoin="round"/>
<path d="M26.2208 24.7476H19.8511V29.8433H26.2208V24.7476Z" stroke="#26985D" stroke-width="1.33333" stroke-linecap="round" stroke-linejoin="round"/>
<path d="M26.2208 14.5558H19.8511V24.7473H26.2208V14.5558Z" stroke="#26985D" stroke-width="1.33333" stroke-linecap="round" stroke-linejoin="round"/>
<path d="M19.8512 8.18616H12.2075V14.5559H19.8512V8.18616Z" stroke="#26985D" stroke-width="1.33333" stroke-linecap="round" stroke-linejoin="round"/>
<path d="M12.2076 24.7474H5.83789V29.8432H12.2076V24.7474Z" stroke="#26985D" stroke-width="1.33333" stroke-linecap="round" stroke-linejoin="round"/>
<path d="M12.2076 14.5558H5.83789V24.7473H12.2076V14.5558Z" stroke="#26985D" stroke-width="1.33333" stroke-linecap="round" stroke-linejoin="round"/>
<path d="M16.1773 29.6713C16.5898 29.0353 15.7197 27.7383 14.2338 26.7744C12.7479 25.8105 11.2089 25.5446 10.7963 26.1806C10.3838 26.8166 11.2539 28.1136 12.7398 29.0775C14.2257 30.0414 15.7647 30.3072 16.1773 29.6713Z" fill="#BFE5D1" stroke="#26985D" stroke-width="1.33333" stroke-miterlimit="10" stroke-linecap="round" stroke-linejoin="round"/>
<path d="M19.3095 29.042C20.7954 28.0781 21.6655 26.7811 21.253 26.1451C20.8404 25.5092 19.3014 25.775 17.8155 26.7389C16.3296 27.7028 15.4594 28.9998 15.872 29.6358C16.2846 30.2718 17.8236 30.0059 19.3095 29.042Z" fill="#BFE5D1" stroke="#26985D" stroke-width="1.33333" stroke-miterlimit="10" stroke-linecap="round" stroke-linejoin="round"/>
<path d="M23.1221 24.6445C23.5632 24.0762 22.888 22.8137 21.6139 21.8247C20.3398 20.8356 18.9494 20.4945 18.5082 21.0627C18.0671 21.631 18.7423 22.8935 20.0164 23.8825C21.2905 24.8716 22.6809 25.2127 23.1221 24.6445Z" fill="#BFE5D1" stroke="#26985D" stroke-width="1.33333" stroke-miterlimit="10" stroke-linecap="round" stroke-linejoin="round"/>
<path d="M26.0548 23.8482C27.3289 22.8591 28.0041 21.5967 27.563 21.0284C27.1218 20.4601 25.7314 20.8013 24.4573 21.7903C23.1832 22.7794 22.508 24.0418 22.9491 24.6101C23.3903 25.1784 24.7807 24.8372 26.0548 23.8482Z" fill="#BFE5D1" stroke="#26985D" stroke-width="1.33333" stroke-miterlimit="10" stroke-linecap="round" stroke-linejoin="round"/>
<path d="M9.10838 24.6438C9.54952 24.0756 8.8743 22.8131 7.60023 21.8241C6.32615 20.835 4.9357 20.4939 4.49456 21.0621C4.05342 21.6304 4.72864 22.8929 6.00271 23.8819C7.27678 24.871 8.66724 25.2121 9.10838 24.6438Z" fill="#BFE5D1" stroke="#26985D" stroke-width="1.33333" stroke-miterlimit="10" stroke-linecap="round" stroke-linejoin="round"/>
<path d="M12.0416 23.8484C13.3157 22.8594 13.9909 21.5969 13.5498 21.0286C13.1086 20.4604 11.7182 20.8015 10.4441 21.7906C9.17005 22.7796 8.49482 24.0421 8.93596 24.6103C9.3771 25.1786 10.7676 24.8375 12.0416 23.8484Z" fill="#BFE5D1" stroke="#26985D" stroke-width="1.33333" stroke-miterlimit="10" stroke-linecap="round" stroke-linejoin="round"/>
<path d="M30.0428 29.843H2.01611" stroke="#26985D" stroke-width="1.33333" stroke-miterlimit="10" stroke-linecap="round" stroke-linejoin="round"/>
</svg>
