<svg viewBox="0 0 165 32" xmlns="http://www.w3.org/2000/svg">
  <path d="M4.823.613H0V24.69h4.823V.613ZM17.5 24.689h4.822V8.323H17.5v16.366Zm12.337 0h5.553l5.553-16.366h-4.827s-2.579 8.874-3.364 11.698h-.056c-.786-2.824-3.424-11.698-3.424-11.698h-5.104l5.67 16.366ZM57.763 8.323h-4.659v2.247c-.786-1.728-2.635-2.703-4.823-2.703-3.925 0-7.066 3.285-7.066 8.65 0 5.366 3.028 8.65 6.848 8.65 2.693 0 4.262-1.324 5.104-2.823v2.363h4.654l-.058-16.384Zm-4.76 8.587c0 2.997-1.802 4.437-3.59 4.437-1.962 0-3.244-2.074-3.244-4.84 0-2.767 1.346-4.841 3.424-4.841 1.682 0 3.425 1.441 3.425 4.437v.807h-.015Zm-46.939-.807c7.74 0 9.534-6.627 9.534-7.78h-.672c-7.739 0-9.534 6.626-9.534 7.78h.672Zm-.672.576c0 1.21 1.346 7.952 9.646 7.952h.66c0-1.21-1.347-7.951-9.646-7.951h-.66Zm17.44-12.851c0-1.555-1.177-2.884-2.692-2.884h-.168a2.786 2.786 0 0 0-2.86 2.704v.18c0 1.555 1.177 2.883 2.693 2.883h.167a2.787 2.787 0 0 0 2.86-2.703v-.18Z" class="tw-fill-current" />
  <path d="M61.616 24.707h8.966c7.353 0 11.785-4.363 11.785-12.026 0-7.663-4.432-12.025-11.785-12.025h-8.966v24.05ZM77.04 12.68c0 4.673-2.026 7.765-6.596 7.765h-3.642V4.916h3.642c4.57 0 6.596 3.093 6.596 7.765ZM95.552 19.406c-.48.997-1.408 1.958-3.125 1.958-2.51 0-3.335-1.855-3.403-3.745h11.408v-1.203c0-4.741-2.611-8.726-8.11-8.726-4.812 0-8.315 3.264-8.315 8.624 0 5.428 3.4 8.692 8.486 8.692 3.504 0 6.013-1.478 7.317-3.882l-4.258-1.718Zm-3.228-8.212c1.786 0 3.09 1.167 3.16 3.436h-6.426c.139-2.061 1.238-3.436 3.266-3.436ZM107.535 12.747c0-.928.996-1.478 2.234-1.478 1.339 0 2.267.653 2.439 1.855l4.741-.963c-.515-2.782-3.505-4.363-7.18-4.363-3.674 0-7.209 1.58-7.209 5.36 0 3.71 3.298 4.673 6.597 5.154 2.303.345 3.024.687 3.024 1.718 0 1.202-1.1 1.622-2.405 1.622-1.477 0-2.784-.54-2.921-1.983l-4.776.721c.447 3.093 3.574 4.742 7.627 4.742 4.365 0 7.456-1.993 7.456-5.463 0-3.604-3.298-4.673-6.668-5.154-1.442-.223-2.959-.488-2.959-1.768ZM119.253 2.921c0 1.58 1.099 2.851 2.955 2.851s2.954-1.272 2.954-2.85c0-1.754-1.202-2.922-2.954-2.922-1.752 0-2.955 1.168-2.955 2.921Zm.481 21.61h4.947V8.178h-4.947v16.355ZM139.61 21.899v1.58c0 2.199-.652 4.81-3.952 4.81-1.854 0-2.611-.757-3.161-2.062l-4.534 1.65c.996 2.342 3.229 4.123 7.455 4.123 6.218 0 9.139-2.884 9.139-8.52V8.291h-4.775v2.235c-.86-1.72-2.817-2.714-5.121-2.714-4.155 0-7.419 3.263-7.419 8.484 0 5.018 3.159 8.11 7.18 8.11 2.577 0 4.294-1.204 5.188-2.508Zm.035-5.602c0 3.064-2.096 4.326-3.848 4.326-2.163 0-3.505-1.89-3.505-4.326 0-2.644 1.409-4.671 3.676-4.671 1.683 0 3.677 1.236 3.677 4.325v.346ZM148.387 24.634h4.949v-8.418c0-3.024 1.581-4.363 3.195-4.363 1.408 0 2.578.755 2.578 2.988v9.793h4.947V13.365c0-3.71-2.578-5.567-5.767-5.567-2.68 0-4.295 1.375-5.121 2.99V8.28h-4.775l-.006 16.355Z" class="tw-fill-current tw-text-brand" />
</svg>
