<svg width="161" height="160" viewBox="0 0 161 160" fill="none" xmlns="http://www.w3.org/2000/svg">
  <g clip-path="url(#clip0_4639_17979)">
    <path d="M40.4427 84.9195C40.4427 84.9195 40.4842 85.0165 40.4981 85.0719L42.1612 85.8897L43.6304 84.6977L44.6421 69.2027C44.6421 69.2027 44.6421 69.1057 44.6421 69.0641L44.157 50.2704C44.157 50.1734 44.3788 48.9122 44.3788 48.1361L44.6005 46.4452C44.656 45.9601 44.85 45.5166 45.1688 45.1424L45.8756 44.3108C47.1091 43.2852 48.4119 43.2436 49.6039 44.3247L50.574 46.6254C51.5581 47.5262 52.2095 59.7227 52.2233 61.0532L52.7223 73.4021L53.346 54.7055L53.6647 46.6947C53.6647 46.265 53.8726 43.8673 53.7895 43.0357L54.4963 41.5805C55.0091 40.6519 56.0486 40.1529 57.0881 40.3331L57.6009 40.4162C58.5433 40.5826 59.3056 41.2617 59.5689 42.1903L60.1926 44.9899C60.2758 47.3876 60.5807 50.7694 60.5807 50.9911L60.7886 60.5681L61.4816 71.2262L62.1607 63.1183L62.7982 51.2683L63.1863 44.7404L64.6831 41.4834L68.0094 40.5687L69.7003 43.1743L69.7696 55.2876L70.0468 70.0481L72.3059 51.3515L72.4307 47.5678L74.3849 45.0869L77.2538 45.475L78.5566 49.7853L78.8338 52.5711L80.7603 84.4205C80.8989 89.7149 80.885 89.9089 80.8573 90.1168L79.208 98.793C79.1803 98.9454 79.1387 99.0979 79.0694 99.2503L70.8368 119.79C70.7814 119.943 70.7259 120.109 70.6982 120.262L69.631 126.11L68.2035 134.149C68.2035 134.149 68.1896 134.232 68.1758 134.274L67.2887 138.057C67.0393 139.124 66.1107 139.887 65.0296 139.97C53.54 140.857 45.0579 136.505 41.6069 134.329C40.5951 133.691 40.1932 132.416 40.6506 131.308L42.9512 125.625C43.0067 125.487 43.0483 125.348 43.076 125.196L43.9491 121.024C44.0739 120.442 43.9769 119.832 43.6858 119.319L40.2763 113.179C40.1793 112.999 40.0546 112.833 39.9021 112.68L36.7144 109.326C36.5342 109.132 36.3818 108.91 36.2709 108.675L32.3071 100.29C32.1685 99.9987 32.0992 99.6938 32.0714 99.3751L31.919 96.7417L31.5032 88.0379L31.3092 85.0026L27.5255 75.0514L25.8346 71.6974L24.8506 69.4521C24.8506 69.4521 26.3197 68.08 27.5948 68.1771C28.8699 68.2741 31.0181 68.9532 31.0181 68.9532L34.6771 73.7763L40.4565 84.9056L40.4427 84.9195Z" fill="#D8A15B" />
    <path d="M121.134 71.5309C121.134 71.5309 121.092 71.4339 121.078 71.3785L119.415 70.5607L117.946 71.7527L116.934 87.2477C116.934 87.2477 116.934 87.3447 116.934 87.3863L117.42 106.18C117.42 106.277 117.198 107.538 117.198 108.314L116.976 110.005C116.921 110.49 116.727 110.934 116.408 111.308L115.701 112.14C114.467 113.165 113.165 113.207 111.973 112.126L111.003 109.825C110.018 108.924 109.367 96.7277 109.353 95.3972L108.854 83.0483L108.231 101.745L107.912 109.756C107.912 110.185 107.704 112.583 107.787 113.415L107.08 114.87C106.567 115.799 105.528 116.298 104.489 116.117L103.976 116.034C103.033 115.868 102.271 115.189 102.008 114.26L101.384 111.46C101.301 109.063 100.996 105.681 100.996 105.459L100.788 95.8823L100.095 85.2242L99.4159 93.3321L98.7783 105.182L98.3903 111.71L96.8934 114.967L93.5671 115.882L91.8762 113.276L91.8069 101.163L91.5298 86.4023L89.2706 105.099L89.1459 108.883L87.1917 111.363L84.3228 110.975L83.02 106.665L82.7428 103.879L80.8163 72.0299C80.6777 66.7355 80.6915 66.5415 80.7193 66.3336L82.3685 57.6574C82.3963 57.505 82.4378 57.3525 82.5071 57.2001L90.7398 36.6601C90.7952 36.5077 90.8506 36.3413 90.8784 36.1889L91.9455 30.3401L93.3731 22.3016C93.3731 22.3016 93.3869 22.2184 93.4008 22.1768L94.2878 18.3931C94.5373 17.3259 95.4659 16.5637 96.5469 16.4805C108.037 15.5935 116.519 19.9454 119.97 22.1214C120.981 22.7589 121.383 24.034 120.926 25.1428L118.625 30.8252C118.57 30.9638 118.528 31.1024 118.501 31.2549L117.627 35.4266C117.503 36.0087 117.6 36.6185 117.891 37.1313L121.3 43.2712C121.397 43.4513 121.522 43.6176 121.674 43.7701L124.862 47.1241C125.042 47.3182 125.195 47.5399 125.306 47.7755L129.27 56.1606C129.408 56.4517 129.477 56.7566 129.505 57.0753L129.658 59.7087L130.073 68.4125L130.267 71.4478L134.051 81.399L135.742 84.753L136.726 86.9983C136.726 86.9983 135.257 88.3704 133.982 88.2733C132.707 88.1763 130.558 87.4972 130.558 87.4972L126.9 82.6741L121.12 71.5448L121.134 71.5309Z" fill="#AF752A" />
    <path d="M46.541 95.2446C46.541 95.2446 54.8845 99.153 55.9378 107.774" stroke="#223829" stroke-width="5" stroke-linecap="square" stroke-linejoin="round" />
    <path d="M112.11 60.582C112.11 60.582 102.713 58.4892 101.674 47.0134" stroke="#223829" stroke-width="5" stroke-linecap="square" stroke-linejoin="round" />
    <path d="M76.1726 75.2587L83.5875 71.7384L91.238 67.234L98.6806 73.6926L96.6432 86.1524L92.1389 90.6568L77.0042 101.148L59.9014 89.451L57.4482 73.9836L61.9526 66.3331L73.2205 68.5784L76.1726 75.2587Z" fill="#F4B536" />
    <path d="M77.1562 74.6631L82.5338 70.1726L91.9999 67.47L98.4862 73.6929L95.6034 84.5866L91.099 89.091L75.9505 99.5827L58.8615 87.8852L56.3945 72.4178L60.9128 64.7673L72.1668 67.0126L77.1562 74.6631Z" stroke="#223829" stroke-width="5" stroke-linecap="square" />
  </g>
  <defs>
    <clipPath id="clip0_4639_17979">
      <rect width="112.45" height="129.25" fill="white" transform="translate(24.2754 15.375)" />
    </clipPath>
  </defs>
</svg>
