<svg width="54" height="54" viewBox="0 0 54 54" fill="none" xmlns="http://www.w3.org/2000/svg">
<path d="M20.5153 28.9946L32.5699 8.91185L32.57 24.9436L38.952 25.2019L27.0963 43.5716L25.9941 36.1715L26.2944 29.1494L20.5153 28.9946Z" fill="#EFB138"/>
<path d="M16.0361 29.8354L27.3412 13.0177L26.9787 24.1089H36.4854L25.1556 40.3989L25.1467 29.8354H16.0361Z" stroke="#223829" stroke-width="2.58729"/>
<path d="M42.0725 42.0726L46.0918 46.0919M7.90803 7.90815L11.9274 11.9275" stroke="#223829" stroke-width="2.58729"/>
<path d="M48.3158 27L54 27M2.14577e-06 27L5.68421 27" stroke="#223829" stroke-width="2.58729"/>
<path d="M42.0725 11.9275L46.0918 7.9082M7.90803 46.092L11.9274 42.0726" stroke="#223829" stroke-width="2.58729"/>
<path d="M27 5.68421V0M27 54V48.3158" stroke="#223829" stroke-width="2.58729"/>
</svg>
