<svg xmlns="http://www.w3.org/2000/svg" style="display:none;" xmlns:xlink="http://www.w3.org/1999/xlink"><symbol viewBox="0 0 24 24" id="icon-cart"><![CDATA[
  ]]><path d="M17 18a2 2 0 00-2 2 2 2 0 002 2 2 2 0 002-2 2 2 0 00-2-2M1 2v2h2l3.6 7.59-1.36 2.45c-.15.28-.24.61-.24.96a2 2 0 002 2h12v-2H7.42a.25.25 0 01-.25-.25c0-.05.01-.09.03-.12L8.1 13h7.45c.75 0 1.41-.42 1.75-1.03l3.58-6.47c.07-.16.12-.33.12-.5a1 1 0 00-1-1H5.21l-.94-2M7 18a2 2 0 00-2 2 2 2 0 002 2 2 2 0 002-2 2 2 0 00-2-2z"></path><![CDATA[
]]></symbol><symbol viewBox="0 0 20.1 10.3" id="icon-fat-chevron"><![CDATA[
  ]]><path d="M10.05 10.3l-10-8L2.4 0l7.65 6.14L17.72 0l2.38 2.28z"></path><![CDATA[
]]></symbol><symbol viewBox="0 0 67 29" id="icon-large-chevron-mobile"><![CDATA[
  ]]><path d="M33.5 27.6L.7 1.4l.6-.8 32.2 25.8L65.7.6l.6.8z"></path><![CDATA[
]]></symbol><symbol viewBox="0 0 102 43" id="icon-large-chevron"><![CDATA[
  ]]><path d="M51 41.6l-.3-.2-50-40 .6-.7L51 40.4 100.7.6l.6.8z"></path><![CDATA[
]]></symbol><symbol viewBox="0 0 22 22" id="icon-magnify-glass"><![CDATA[
  ]]><path d="M8 16.31a8.853 8.853 0 004.953 1.5c2.382 0 4.62-.928 6.305-2.612a8.858 8.858 0 002.61-6.305c0-2.381-.927-4.62-2.61-6.304a8.858 8.858 0 00-6.305-2.611c-2.381 0-4.62.927-6.304 2.611a8.857 8.857 0 00-2.612 6.305c0 1.81.537 3.537 1.533 5L.18 19.288c-.253.253-.198.719.123 1.04l1.26 1.26c.321.321.787.376 1.04.123L8 16.311zM6.454 8.893c0-3.584 2.916-6.5 6.5-6.5s6.5 2.916 6.5 6.5c0 3.585-2.916 6.5-6.5 6.5a6.508 6.508 0 01-6.5-6.5z"></path><![CDATA[
]]></symbol><symbol viewBox="0 0 52 23" id="icon-medium-chevron"><![CDATA[
  ]]><path d="M26 21.6L.7 1.4l.6-.8L26 20.4 50.7.6l.6.8z"></path><![CDATA[
]]></symbol><symbol viewBox="0 0 50 22" id="icon-small-chevron-mobile"><![CDATA[
  ]]><path d="M25 21.6L-.3 1.4.3.6 25 20.4 49.7.6l.6.8z"></path><![CDATA[
]]></symbol><symbol viewBox="0 0 32 15" id="icon-small-chevron"><![CDATA[
  ]]><path d="M16 13.6L.7 1.4l.6-.8L16 12.4 30.7.6l.6.8z"></path><![CDATA[
]]></symbol><symbol viewBox="0 0 29 29" id="icon-small-x"><![CDATA[
	]]><path d="M25.5 22.7l-8.2-8.2 8.2-8.2-2.8-2.8-8.2 8.2-8.2-8.2-2.8 2.8 8.2 8.2-8.2 8.2 2.8 2.8 8.2-8.2 8.2 8.2 2.8-2.8z"></path><![CDATA[
]]></symbol><symbol viewBox="0 0 24 24" id="icon-star"><![CDATA[
    ]]><path d="M0 0h24v24H0z"></path><![CDATA[
    ]]><path fill="currentColor" d="M12 0l2.832 9.168H24l-7.416 5.665L19.416 24 12 18.335 4.583 24l2.833-9.167L0 9.168h9.167L12 0z"></path><![CDATA[
]]></symbol><symbol viewBox="0 0 12 7" id="icon-triangle"><![CDATA[
    ]]><path d="M6 0l6 6.857H0z" fill-rule="evenodd"></path><![CDATA[
]]></symbol><symbol viewBox="0 0 29 29" id="icon-x"><![CDATA[
  ]]><path d="M27.3 28.8L14.5 16 1.7 28.8.3 27.3l12.8-12.8L.3 1.7 1.7.3l12.8 12.8L27.3.3l1.4 1.5-12.8 12.8 12.8 12.8z"></path><![CDATA[
]]></symbol></svg>