<svg xmlns="http://www.w3.org/2000/svg" viewBox="0 0 315.82 223.39">
  <g data-name="Flourish D">
    <path d="M305 26.37V98c-43.41.26-86.83 24.32-130.24 33.25V81.08h-2.45a147.23 147.23 0 00-26.58 2.77v-21c53.04-.26 106.13-36.16 159.27-36.48z" fill="#000f9f"/>
    <path d="M199.76 88.66c0-17 11.44-34.34 25.55-39.23s25.56 5.34 25.56 22.38-11.44 34.35-25.56 39.19-25.55-5.29-25.55-22.34z" stroke="#fff" stroke-width="1.92" fill="none" stroke-miterlimit="10"/>
    <path d="M14 121c26.4-.37 53.13-9.49 79-18.32 25.71-8.77 52.29-17.83 78.36-18.21v69.73c-26.39.38-53.12 9.49-79 18.32C66.62 181.32 40 190.38 14 190.76z" fill="#fff"/>
    <path d="M170.35 85.48v67.81c-26.23.57-52.71 9.61-78.33 18.35-25.32 8.63-51.48 17.56-77.09 18.14V122c26.23-.57 52.7-9.6 78.33-18.35 25.32-8.63 51.48-17.56 77.09-18.14m1.92-2c-53.09.35-106.18 36.24-159.27 36.57v71.65c53.09-.33 106.18-36.22 159.27-36.55V83.53z" fill="#fc4501"/>
    <path d="M155.85 121.63v1.6a2 2 0 01-2 2.35 4.86 4.86 0 01-2.58-.54 6.32 6.32 0 001.9-4.14 6.94 6.94 0 00-.23-1.51c1.32-.2 2.64-.35 4-.43v-3a49.49 49.49 0 00-5 .6 6.85 6.85 0 01-1.34-3.7 2.48 2.48 0 012.13-2.79c1.44-.21 2.16.71 2.16 2.18v.91c1.28-.14 2.56-.23 3.84-.25v-1.55a4.93 4.93 0 00-6-5.09 7.6 7.6 0 00-6.55 7.4 7.26 7.26 0 001.15 3.78c-1.52.33-3 .69-4.56 1l-1.24.28c-.16-3-2.08-4.45-5.58-3.77a55.15 55.15 0 01-7.07.91v5c-.68 0-1.36.06-2 .06v3c.69 0 1.37 0 2-.06v1.31h-2v3c.69 0 1.37 0 2-.05v10.68a46.64 46.64 0 004.69-.5v-5.91c.79-.12 1.58-.26 2.38-.41a6.43 6.43 0 005.58-6l1-.22v-3l-.94.21v-1.3l1.22-.28h0c2-.47 4-.94 6-1.35a3.21 3.21 0 01.62 1.88 3.86 3.86 0 01-.65 2.09 5 5 0 00-2.53-.08c-2.58.59-4 2.4-4 4.33 0 1.64 1.25 2.75 3.38 2.26a6.17 6.17 0 003.76-2.61 7.69 7.69 0 005.15 1c3.37-.38 4.85-2.32 4.84-5.45v-2.06c-1.13.05-2.33.11-3.53.22zm-22.21-2.54l1.82-.31c1-.19 1.5.18 1.63 1-1.15.23-2.3.44-3.45.62zm1.82 9.56l-1.82.31v-1.31c1.15-.17 2.3-.38 3.45-.62a1.8 1.8 0 01-1.63 1.62zm1.67-4.6c-1.16.23-2.33.44-3.49.62v-1.3c1.16-.18 2.33-.39 3.49-.62zm8.93 4c-.73.16-1.05-.19-1.05-.55a1.16 1.16 0 011-1.08 2 2 0 011.61.36 2.61 2.61 0 01-1.56 1.22z" stroke="#ff8672" stroke-width="1.5" fill="none" stroke-miterlimit="10"/>
  </g>
</svg>
