<svg xmlns="http://www.w3.org/2000/svg" viewBox="0 0 82.72 82.99">
  <path d="M73 39.24v4c0 3.21-1.23 5.4-4.92 5.87a12 12 0 01-6.46-1.37c2.7-3.09 4.75-6.32 4.75-10.33a17 17 0 00-.58-3.77c3.31-.5 6.6-.87 9.91-1.09v-7.44a124.49 124.49 0 00-12.37 1.48c-1.88-3-3.35-5.8-3.35-9.24 0-3.84 1.72-6.4 5.32-7s5.4 1.75 5.4 5.42v2.3c3.2-.36 6.39-.59 9.58-.64v-3.82c0-6.47-4.5-14.25-14.9-12.73A19 19 0 0049 19.37a18.26 18.26 0 002.87 9.45c-3.8.82-7.6 1.71-11.4 2.6l-3.09.71c-.42-7.5-5.2-11.13-14-9.43A138.36 138.36 0 015.81 25v12.39c-1.7.1-3.41.15-5.12.15V45c1.71 0 3.42-.05 5.12-.15v3.25c-1.7.09-3.41.14-5.12.14v7.45c1.71 0 3.42 0 5.12-.14v26.71c3.9-.26 7.81-.66 11.71-1.26V66.22q3-.45 5.94-1c8.6-1.66 13.38-7.56 13.95-14.91l2.41-.56v-7.47c-.79.19-1.57.37-2.36.54v-3.25l3-.7h0c5-1.16 10-2.34 15-3.36a7.94 7.94 0 011.55 4.68 9.59 9.59 0 01-1.63 5.24 12.33 12.33 0 00-6.31-.2c-6.46 1.47-9.9 6-9.91 10.81 0 4.1 3.12 6.88 8.44 5.66a15.54 15.54 0 009.41-6.53c3.12 2.16 7.87 3 12.86 2.42C78.35 56.63 82 51.8 82 44v-5.19c-3 0-6 .19-9 .43zm-55.48-6.35c1.51-.24 3-.5 4.56-.77 2.52-.46 3.74.44 4.07 2.48-2.88.57-5.76 1.1-8.63 1.54zm4.56 23.89c-1.53.28-3 .53-4.56.77v-3.26c2.87-.44 5.75-1 8.63-1.54a4.48 4.48 0 01-4.07 4.03zm4.17-11.5c-2.91.58-5.82 1.11-8.73 1.56v-3.25c2.91-.45 5.82-1 8.73-1.56zm22.3 9.9c-1.8.41-2.62-.46-2.62-1.36a2.9 2.9 0 012.54-2.72 5 5 0 014 .92 6.43 6.43 0 01-3.92 3.16z" fill="none" stroke="#a0e2ba" stroke-miterlimit="10" stroke-width="1.38" data-name="Layer 2"/>
</svg>
