<svg version="1.1" id="Layer_1" xmlns="http://www.w3.org/2000/svg" x="0" y="0" viewBox="0 0 385 29" xml:space="preserve">
  <title>#business as usual</title>
  <path d="M20.2 10.1L19 16.6h5.7v3.7h-6.4L17 26.7h-4.1l1.2-6.4H9.2L8 26.7H3.8L5 20.3H0v-3.7h5.8L7 10.1H1.2V6.4h6.5L8.9 0H13l-1.2 6.4h4.9L18 0h4.1l-1.2 6.4h5v3.7h-5.7zm-9.1 0l-1.2 6.5h4.9l1.2-6.5h-4.9zM42.4 26.7H28.6V0h13.7c5.7 0 8 2.8 8 6.7v.9c0 2.5-1.3 4.9-4.8 5.6 3.6.8 4.9 2.8 4.9 5.5V20c0 3.8-2.3 6.7-8 6.7zm-1.2-19c0-1-.6-1.4-1.6-1.4h-1.4v4.9h1.4c1.1 0 1.6-.4 1.6-1.4V7.7zm0 9.3c0-1-.6-1.4-1.6-1.4h-1.4v4.9h1.4c1.1 0 1.6-.4 1.6-1.4V17zM65.2 27.4c-7.8 0-11.5-3.8-11.5-9.1V0h9.6v18.1c0 1.5.6 2.3 2 2.3 1.5 0 2.1-.8 2.1-2.3V0h9v18.3c0 5.3-3.4 9.1-11.2 9.1zM90 28.2c-7.4 0-10.9-3.7-10.9-8.3v-1.2h8.3v.3c0 1.5.8 2.6 2.4 2.6 1.5 0 2.2-.6 2.2-1.7 0-3.1-12.6-2.6-12.6-11.2C79.3 4 82.5 0 90.3 0c7 0 10.5 3.7 10.5 8.3v1.2h-8.3V9c0-1.2-.7-2.5-2.2-2.5-1.2 0-2 .6-2 1.7 0 3.4 12.6 2.5 12.6 11.1 0 4.7-3.2 8.9-10.9 8.9zM104.1 26.7V0h9.5v26.7h-9.5zM132.4 26.7l-5.1-8.9-1.5-2.8v11.6h-8.5V0h8l5.4 9.1 1.2 2.2V0h8.5v26.7h-8zM143.4 26.7V0h19.8v6.8H153v3.7h6.5v5.2H153v3.8h10.2v7.2h-19.8zM175.6 28.2c-7.4 0-10.9-3.7-10.9-8.3v-1.2h8.3v.3c0 1.5.8 2.6 2.4 2.6 1.5 0 2.2-.6 2.2-1.7 0-3.1-12.6-2.6-12.6-11.2C165 4 168.1 0 175.9 0c7 0 10.5 3.7 10.5 8.3v1.2h-8.3V9c0-1.2-.7-2.5-2.2-2.5-1.2 0-2 .6-2 1.7 0 3.4 12.6 2.5 12.6 11.1.1 4.7-3.2 8.9-10.9 8.9zM199.8 28.2c-7.4 0-10.9-3.7-10.9-8.3v-1.2h8.3v.3c0 1.5.8 2.6 2.4 2.6 1.5 0 2.2-.6 2.2-1.7 0-3.1-12.6-2.6-12.6-11.2 0-4.6 3.1-8.7 10.9-8.7 7 0 10.5 3.7 10.5 8.3v1.2h-8.3V9c0-1.2-.7-2.5-2.2-2.5-1.2 0-2 .6-2 1.7 0 3.4 12.6 2.5 12.6 11.1.1 4.7-3.2 8.9-10.9 8.9zM233.3 26.7l-1.7-6.9h-6.9l-1.6 6.9h-4.2L226 0h4.5l7.1 26.7h-4.3zm-5.2-20.9l-2.5 10.5h5.1l-2.6-10.5zM246.4 28c-5 0-8.4-3.2-8.4-7.5v-1.3h4.2v.4c0 3.2 1.5 4.7 4.3 4.7 2.7 0 4.1-1.6 4.1-3.8 0-2.2-1.1-3.4-5.1-5.2-3.6-1.6-7.2-3.8-7.2-8 0-4 2.9-7.3 8-7.3 5 0 8.3 3.2 8.3 7.5v1h-4.1v-.4c0-2.4-1.2-4.5-4.3-4.5-2.4 0-3.6 1.4-3.6 3.3 0 2.1 1.1 3.1 5.7 5.3 4.7 2.2 6.6 4.2 6.6 7.9 0 4.5-3.4 7.9-8.5 7.9zM276.3 27.4c-7.8 0-11.5-3.8-11.5-9.1V0h9.6v18.1c0 1.5.6 2.3 2 2.3 1.5 0 2.1-.8 2.1-2.3V0h9v18.3c0 5.3-3.4 9.1-11.2 9.1zM301.1 28.2c-7.4 0-10.9-3.7-10.9-8.3v-1.2h8.3v.3c0 1.5.8 2.6 2.4 2.6 1.5 0 2.2-.6 2.2-1.7 0-3.1-12.6-2.6-12.6-11.2 0-4.6 3.1-8.7 10.9-8.7 7 0 10.5 3.7 10.5 8.3v1.2h-8.3V9c0-1.2-.7-2.5-2.2-2.5-1.2 0-2 .6-2 1.7 0 3.4 12.6 2.5 12.6 11.1.1 4.7-3.2 8.9-10.9 8.9zM326.6 27.4c-7.8 0-11.5-3.8-11.5-9.1V0h9.6v18.1c0 1.5.6 2.3 2 2.3 1.5 0 2.1-.8 2.1-2.3V0h9v18.3c0 5.3-3.3 9.1-11.2 9.1zM354.6 26.7l-.8-4h-4.7l-.9 4h-8.5l7-26.7h10.5l7 26.7h-9.6zm-2.9-16.4l-1.4 7.3h2.6l-1.2-7.3zM365.6 26.7V0h9.5v19.5h9.9v7.2h-19.4z"/>
</svg>
