<svg xmlns="http://www.w3.org/2000/svg" viewBox="0 0 300 165">
  <title>International Women\'s Day</title>
  <path d="M284.9 164.1c-.1 0-.1 0 0 0-.7-.1-1.1-.6-1-1.1l14-162c0-.6.6-1 1.1-.9.6 0 1 .6.9 1.1l-14.1 162c.1.4-.4.9-.9.9zM0 96.7V71.8l9.2-.3v24.9l-9.2.3zM27.7 94.6l-5-7.7-1.4-2.4v10.8l-8.2.9V71.4l7.7-.9 5.2 7.8 1.2 1.9V69.8l8.2-.9v24.9l-7.7.8zM53.4 72v18.2l-9 1.8V73.8l-6 1.2v-6.7l21.2-4.2v6.7L53.4 72zM62.3 88.3V63.4l18.6-4.8v6.3l-9.6 2.5v3.4l6.1-1.6v4.9l-6.1 1.6v3.6l9.6-2.5v6.7l-18.6 4.8zM97.9 78.4c-1.2.3-1.9-1.4-1.9-3.3v-3.2c0-1.4-.3-2.1-2-1.6l-.9.3v9.3l-8.8 2.7v-25l12.5-3.8c4.7-1.4 7.8-.1 7.8 4.1v1.5c0 2.5-1.2 4.6-3.9 6 2.8-.4 3.8 1.1 3.8 3.5v3.3c0 1.6.4 2.7 1 3.7v.2l-7.6 2.3zm-2-17.1c0-1-.4-1.2-1.5-.9l-1.3.4v5.1l1.3-.4c1-.3 1.5-.9 1.5-1.9v-2.3zM122.1 70.6l-4.7-6.7-1.4-2.1v10.8l-7.8 2.6V50.3l7.4-2.5 5 6.8 1.1 1.7V45.8l7.8-2.6v24.9l-7.4 2.5zM145.6 62.6l-.7-3.4-4.3 1.5-.8 4-7.8 2.7 6.4-27.1 9.7-3.3 6.4 22.7-8.9 2.9zM143 48.2l-1.3 7.2 2.4-.8-1.1-6.4zM168.6 36.6v18.2l-8.8 2.9V39.6l-5.8 1.9v-6.7l20.5-6.8v6.7l-5.9 1.9zM177.2 52V27.1l8.8-2.8v24.9l-8.8 2.8zM200.3 45.7c-6.8 1.9-10.9-.6-10.9-6.7v-6.6c0-6.2 4.2-11 10.9-13 6.7-1.9 10.9.5 10.9 6.7v6.6c0 6.1-4.2 11-10.9 13zm1.8-18c0-1.3-.5-2.2-1.8-1.8-1.3.4-1.8 1.6-1.8 2.8v8.7c0 1.3.5 2.1 1.8 1.8 1.3-.4 1.8-1.5 1.8-2.8v-8.7zM228.8 37.6l-4.9-7.1-1.4-2.3V39l-8 1.9V16l7.6-1.8 5.1 7.3 1.1 1.8V12.8l8-1.8v24.9l-7.5 1.7zM253.3 33.1l-.8-3.6-4.5.7-.9 3.8-8.2 1.3 6.7-25.9 10.1-1.5 6.7 23.9-9.1 1.3zm-2.8-14.9l-1.4 7 2.5-.4-1.1-6.6zM265 31.5V6.6l9.2-.6v18.2l9.6-.6v6.7L265 31.5z"/>
  <g>
    <path d="M226.7 109.2l-10.8 2.5V86.3l10.8-2.5c7.4-1.7 10.9 1.9 10.9 7.6V97c0 5.7-3.5 10.4-10.9 12.2zm1.8-16.6c0-1.7-.6-2.7-2.5-2.3l-1.2.3V103l1.2-.3c1.9-.4 2.5-1.7 2.5-3.4v-6.7zM252.7 104.3l-.8-3.7-4.5.7-.9 3.9-8.2 1.2L245 80l10.1-1.5 6.7 24.4-9.1 1.4zM250 89l-1.4 7.1 2.5-.4L250 89zM274.8 93.1v9.3l-9.2.5v-9.6l-7.7-15.5 9.9-.5 3 7.9 2.8-8.2 9.3-.5-8.1 16.6z"/>
  </g>
  <g>
    <path d="M116.1 108.9l-10.8 3.3-3.1-11.4-3.1 13.3-10 3.1-7-24.2 11-3.4 2.8 13 2.8-14.7L108 85l2.9 13 2.9-14.8 9-2.8-6.7 28.5zM136.9 102.7c-8.3 2.8-13.3-.5-13.3-7.1v-5c0-6.6 5-13.2 13.3-15.9 8.2-2.8 13.2.5 13.2 7.1v5c0 6.6-4.9 13.2-13.2 15.9zm2.5-18.3c0-1.9-.8-2.7-2.5-2.1-1.7.6-2.5 1.9-2.5 3.8V93c0 1.9.8 2.6 2.5 2 1.7-.6 2.5-1.9 2.5-3.7v-6.9zM178.3 88.2V74l-1 4.1-2.9 11.4-8.3 2.7-2.8-9.5-1-3.5v14.2l-8.9 2.9V69.9l14.4-4.7 2.7 8.9.7 2.6.7-3 2.7-10.7 13.9-4.5v26.4l-10.2 3.3zM192.2 83.7V57.4l22.6-6.5v7.3l-12 3.4v3.2l7.5-2.2v4.8l-7.5 2.2v3.2l12-3.4v7.8l-22.6 6.5zM235.6 72.4l-6.4-7.4-1.3-1.8v10.9l-9.7 2.2V49.9l9-2 6.8 7.5 1.1 1.4V46.1l9.7-2.2v26.4l-9.2 2.1zM248.4 55.7v-1.9c1.7-.3 2.8-1.8 2.8-3.7l-2.8.4v-7.2l7.2-1.1v6.3c0 3.7-2.6 6.5-7.2 7.2zM270.4 68.1c-5.8.4-11.1-1.3-14.2-3.8l4.7-6.2c2.9 2 6.8 3.3 9.3 3.1 1.8-.1 2.6-.5 2.6-1.5 0-2.7-14.8-1.4-14.8-10.2 0-4.7 4-9 12.1-9.5 6.5-.5 10.6 1.5 13.2 3.7l-4.8 5.5c-2.8-1.6-6-2.5-8.1-2.3-1.3.1-2.2.6-2.2 1.4 0 2.7 15.1 1.1 15.1 9.8 0 5.2-4.3 9.4-12.9 10z"/>
  </g>
</svg>
