<svg version="1.1" id="Layer_1" xmlns="http://www.w3.org/2000/svg" x="0" y="0" viewBox="0 0 500 39" xml:space="preserve">
  <title>Celebrating her every day</title>
  <path d="M7.4 38.8c-4.2 0-7.5-3.1-7.5-7.8V7.7C-.1 3.1 3.2 0 7.4 0c4.3 0 6.7 3.1 6.7 7.6V14h-5V7.4c0-1-.5-1.8-1.7-1.8s-1.6.7-1.6 1.8v24c0 1 .5 1.8 1.6 1.8 1.2 0 1.7-.7 1.7-1.8v-6.6h5v6.5c.1 4.5-2.4 7.5-6.7 7.5zM18.4 38.3V.5h12.2V6h-6.4v10.3h4.3v5.2h-4.3v11.2h6.4v5.6H18.4zM34.7 38.3V.5h5.8v32.3h6.1v5.4H34.7zM50.1 38.3V.5h12.2V6H56v10.3h4.3v5.2H56v11.2h6.4v5.6H50.1zM74.5 38.3h-8V.5h8c2.8 0 6 1.6 6 6.5v7.4c0 2-.9 3.7-2.8 4.6 1.9 1 2.8 2.5 2.8 4.6v8.1c0 5-3.1 6.6-6 6.6zm.4-30.9c0-1.1-.3-1.6-1.1-1.6h-1.5v11h1.5c.7 0 1.1-.5 1.1-1.6V7.4zm0 15.9c0-1.1-.3-1.6-1.1-1.6h-1.5V33h1.5c.7 0 1.1-.5 1.1-1.6v-8.1zM94.6 38.3c-.9 0-1.4-3.7-1.4-5.8v-8.2c0-.9-.5-1.7-1.2-1.7h-1.4v15.8h-5.8V.5h7.9c2.9 0 6.1 1.7 6.1 6.6v8.6c0 1.8-1 3.2-2.5 4.3 1.5 1 2.7 2.4 2.7 4.3V32c0 2.4.3 4.3.7 6.1v.2h-5.1zM93 7.4c0-1.1-.3-1.6-1-1.6h-1.5v11.7H92c.7 0 1-.4 1-1.6V7.4zM110.9 38.3l-.3-6.5h-3.5l-.6 6.5h-5.3L105.7.5h6.6l4.5 37.8h-5.9zm-1.8-27.5l-1.4 15.6h2.4l-1-15.6zM128 6.2v32h-5.8v-32h-4.3V.5h14.3v5.7H128zM135.5 38.3V.5h5.8v37.8h-5.8zM156.8 38.3l-4.3-17.1-1.3-5.2v22.2h-5V.5h5.6l3.7 16.9 1.1 5.3V.5h4.9v37.8h-4.7zM177.3 38.3l-.6-2a4.5 4.5 0 01-4.1 2.6c-4 0-6.5-2.9-6.5-7.4v-24c0-4.1 3.1-7.4 7.3-7.4 4.2 0 7.1 3.3 7.1 7.4v7H175V7.2c0-.9-.5-1.5-1.5-1.5s-1.6.6-1.6 1.5V32c0 1 .6 1.6 1.6 1.6s1.6-.7 1.6-1.6v-7.7h-1.5v-4.5h7.1v18.6h-3.4zM201.7 38.3V22.7h-3.3v15.6h-5.8V.5h5.8v16.4h3.3V.5h5.8v37.8h-5.8zM211.7 38.3V.5h12.2V6h-6.4v10.3h4.3v5.2h-4.3v11.2h6.4v5.6h-12.2zM237.9 38.3c-.9 0-1.4-3.7-1.4-5.8v-8.2c0-.9-.5-1.7-1.2-1.7h-1.4v15.8H228V.5h7.9c2.9 0 6.1 1.7 6.1 6.6v8.6c0 1.8-1 3.2-2.5 4.3 1.5 1 2.7 2.4 2.7 4.3V32c0 2.4.3 4.3.7 6.1v.2h-5zm-1.6-30.9c0-1.1-.3-1.6-1-1.6h-1.5v11.7h1.5c.7 0 1-.4 1-1.6V7.4zM256.7 38.3V.5h27.9v9.6h-14.5v5.2h9.2v7.4h-9.2v5.4h14.5v10.1h-27.9zM312.6 38.3h-13.2L288.4.5h14.1l4.5 21.3L311.4.5h12.8l-11.6 37.8zM328.8 38.3V.5h27.9v9.6h-14.5v5.2h9.2v7.4h-9.2v5.4h14.5v10.1h-27.9zM383.8 38.3c-1.8 0-2.9-2.9-2.9-5.8v-4.8c0-2.2-.5-3.4-3-3.4h-1.4v14.1H363V.5h19c7.1 0 11.9 3.5 11.9 9.9v2.3c0 3.8-1.8 6.4-5.9 7.4 4.2.6 5.8 3.5 5.8 7V32c0 2.4.6 4.3 1.5 6v.3h-11.5zm-3.1-26.8c0-1.5-.7-2.1-2.3-2.1h-2v7.8h2c1.6 0 2.3-.7 2.3-2.2v-3.5zM421.3 24.4v13.8h-13.4V24L396.7.5h14.4l4.4 12 4-12H433l-11.7 23.9zM453.5 38.3h-7.7V.5h7.7c3.6 0 6.9 2.1 6.9 7.4v23.2c0 5.3-3.3 7.2-6.9 7.2zm1-30.4c0-1.3-.5-1.9-1.5-1.9h-1.4v26.9h1.4c1 0 1.5-.6 1.5-2v-23zM472.1 38.3l-.3-6.5h-3.5l-.6 6.5h-5.3L466.9.5h6.6l4.5 37.8h-5.9zm-1.8-27.5l-1.4 15.6h2.4l-1-15.6zM489.6 23.2v15.1h-5.8V23.2l-5-22.7h5.8l2.6 14.9L489.5.5h5.7l-5.6 22.7zM495.4 38.3v-6.6h4.5v6.6h-4.5z"/>
</svg>
