<svg xmlns="http://www.w3.org/2000/svg" viewBox="0 0 167.19 52.13">
	<title>100%</title>
    <path d="M10.44 51.7V10.51L0 19.59V9.5L10.44.43h9.36V51.7zM51.27 52.13c-8.36 0-15.63-5.47-15.63-15.26v-21.6C35.64 5.47 42.91 0 51.27 0s15.55 5.47 15.55 15.27v21.6c0 9.79-7.2 15.26-15.55 15.26zm6.19-36.72c0-4.32-2.52-7-6.19-7s-6.27 2.68-6.27 7V36.8c0 4.32 2.59 6.91 6.27 6.91s6.19-2.59 6.19-6.91zM90.36 52.13c-8.35 0-15.62-5.47-15.62-15.26v-21.6C74.74 5.47 82 0 90.36 0s15.56 5.47 15.56 15.27v21.6c0 9.79-7.21 15.26-15.56 15.26zm6.19-36.72c0-4.32-2.52-7-6.19-7s-6.26 2.67-6.26 7V36.8c0 4.32 2.59 6.91 6.26 6.91s6.19-2.59 6.19-6.91zM124.06 26.86c-5.69 0-10.44-3.39-10.44-9.87V9.87c0-6.49 4.75-9.87 10.44-9.87s10.44 3.38 10.44 9.87V17c0 6.47-4.83 9.86-10.44 9.86zm3.67-16.71c0-2.73-1.37-4.1-3.67-4.1s-3.68 1.37-3.68 4.1v6.56c0 2.73 1.37 4.1 3.68 4.1s3.67-1.37 3.67-4.1zM132 51.7h-7.35L148.9.43h7.34zm24.77.43c-5.69 0-10.44-3.38-10.44-9.86v-7.13c0-6.48 4.75-9.87 10.44-9.87s10.44 3.39 10.44 9.87v7.13c-.02 6.48-4.85 9.86-10.46 9.86zm3.67-16.7c0-2.74-1.37-4.11-3.67-4.11s-3.67 1.37-3.67 4.11V42c0 2.74 1.29 4.1 3.67 4.1s3.67-1.36 3.67-4.1z"/>
</svg>
