<svg xmlns="http://www.w3.org/2000/svg" viewBox="0 0 131.84 52.13">
	<title>97%</title>
    <path d="M27.72 29.52L16.85 51.7H6.7l10.65-21.17a10 10 0 01-3.81.65C6.62 31.18 0 25.49 0 16 0 5.91 6.91 0 16 0s16 5.69 16 15.84c0 4.68-2 9-4.28 13.68zM16 8.42c-3.82 0-6.63 2.74-6.63 7.49C9.36 20.45 12 23.4 16 23.4c3.81 0 6.62-2.73 6.62-7.49S19.8 8.42 16 8.42zM55 51.7H44.86L61.49 8.86H48v8.06h-9V.43h32.64v8.43zM88.7 26.86c-5.7 0-10.44-3.39-10.44-9.86V9.87C78.26 3.38 83 0 88.7 0s10.45 3.38 10.45 9.87V17c0 6.47-4.83 9.86-10.45 9.86zm3.68-16.71c0-2.73-1.37-4.1-3.68-4.1S85 7.42 85 10.15v6.56c0 2.73 1.37 4.1 3.67 4.1s3.68-1.37 3.68-4.1zm4.25 41.55h-7.35L113.55.43h7.34zm24.77.43c-5.69 0-10.44-3.38-10.44-9.86v-7.13c0-6.48 4.75-9.87 10.44-9.87s10.44 3.39 10.44 9.87v7.13c0 6.48-4.84 9.86-10.44 9.86zm3.67-16.7c0-2.74-1.37-4.11-3.67-4.11s-3.68 1.37-3.68 4.11V42c0 2.74 1.3 4.1 3.68 4.1s3.67-1.36 3.67-4.1z"/>
</svg>
