<svg xmlns="http://www.w3.org/2000/svg" viewBox="0 0 71.43 52.13">
	<title>98</title>
	<path d="M27.72 29.52L16.85 51.7H6.7l10.65-21.17a10 10 0 01-3.81.65C6.62 31.18 0 25.49 0 16 0 5.91 6.91 0 16 0s16 5.69 16 15.84c0 4.68-2 9-4.28 13.68zM16 8.42c-3.82 0-6.63 2.74-6.63 7.49C9.36 20.45 12 23.4 16 23.4c3.81 0 6.62-2.73 6.62-7.49S19.8 8.42 16 8.42zM55 52.13c-9.07 0-16.42-5.4-16.42-15.33A13.28 13.28 0 0145 25.27a12.73 12.73 0 01-5.76-10.65C39.24 5.54 46.44 0 55 0s15.7 5.54 15.7 14.62A12.73 12.73 0 0165 25.27c2.8 1.88 6.48 5.26 6.48 11.53-.05 9.93-7.4 15.33-16.48 15.33zm0-22.61a7.1 7.1 0 107.06 7.13A7 7 0 0055 29.52zm0-21.1a6.31 6.31 0 00-6.41 6.49 6.38 6.38 0 1012.75 0A6.25 6.25 0 0055 8.42z"/>
</svg>
