<svg xmlns="http://www.w3.org/2000/svg" viewBox="0 0 185.04 66.25">
	<title>$1.4 Billion</title>
    <path d="M24.27 58.18v8.07H17v-7.78c-6.91-.22-12.31-2-17-6.77l6.48-6.48c3 3 7.13 4.18 11.45 4.32v-13l-2.3-.29c-4.32-.58-7.78-2.16-9.94-4.32C3.24 29.45 2 26.21 2 21.89c0-8.28 5.63-14.4 15-15.41V0h7.28v6.41c5.83.36 10.29 2.16 14.18 5.9l-6.34 6.27c-2.37-2.31-5.9-3.24-8.85-3.46v12.53l2.73.43c4.68.72 7.64 2 9.8 4 2.73 2.6 4 6.27 4 10.81-.05 8.81-6.53 14.21-15.53 15.29zm-6.34-43c-4.18.58-6.26 3.17-6.26 6.34a4.94 4.94 0 001.51 3.67 8.48 8.48 0 004.75 2zm10.44 23.7c-1.44-1.37-3.24-1.58-5.11-1.87V49.4c4.32-.51 6.69-2.67 6.69-6.2a5.71 5.71 0 00-1.58-4.32zM61.06 58V16.85l-10.44 9.07V15.84l10.44-9.07h9.36V58zM87.19 58V47.38h10.73V58zM135 50.76V58h-9v-7.24h-21v-8.85l17.62-35.14h10.22l-17.57 35.14H126v-9.58h9v9.58h4.68v8.85zM169.35 58h-21.46V6.77h20.59c10 0 15.84 5.61 15.84 14.4A11.84 11.84 0 01178 31.75c3.09 1.44 7 4.68 7 11.53 0 9.57-6.51 14.72-15.65 14.72zm-1.66-42.3h-9.79v11.81h9.79c4.25 0 6.62-2.38 6.62-5.91s-2.37-5.9-6.62-5.9zm.65 20.81H157.9v12.6h10.44c4.53 0 6.69-2.88 6.69-6.34s-2.16-6.26-6.69-6.26z"/>
</svg>
