<svg width="432" height="469" viewBox="0 0 432 469" fill="none" xmlns="http://www.w3.org/2000/svg">
<path d="M178.125 -78.5111L150.623 -73.4883L249.706 546.965L277.208 541.942L178.125 -78.5111Z" fill="url(#paint0_linear_595_12301)" fill-opacity="0.25"/>
<path d="M374.23 -29.737L358.502 -40.29L45.6911 492.892L61.4193 503.445L374.23 -29.737Z" fill="url(#paint1_linear_595_12301)" fill-opacity="0.25"/>
<path d="M491.634 127.193L476.338 91.0059L-59.9954 350.266L-44.6998 386.453L491.634 127.193Z" fill="url(#paint2_linear_595_12301)" fill-opacity="0.25"/>
<path d="M478.676 371.721L486.523 353.726L-46.9031 87.6955L-54.7507 105.691L478.676 371.721Z" fill="url(#paint3_linear_595_12301)" fill-opacity="0.25"/>
<path d="M388.467 488.824L416.598 462.899L32.3745 -13.9193L4.24342 12.005L388.467 488.824Z" fill="url(#paint4_linear_595_12301)" fill-opacity="0.25"/>
<path d="M64.2215 109.481L48.3262 132.479L360.516 358.69L376.411 335.691L64.2215 109.481Z" fill="url(#paint5_linear_595_12301)" fill-opacity="0.25"/>
<path d="M192.517 139.224L173.934 142.884L222.882 330.794L241.466 327.135L192.517 139.224Z" fill="url(#paint6_linear_595_12301)" fill-opacity="0.25"/>
<path d="M341.558 -62.3727L305.154 -77.1455L92.2387 534.224L128.643 548.997L341.558 -62.3727Z" fill="url(#paint7_linear_595_12301)" fill-opacity="0.25"/>
<path d="M514.77 138.089L507.594 119.815L-93.6281 320.908L-86.4523 339.182L514.77 138.089Z" fill="url(#paint8_linear_595_12301)" fill-opacity="0.25"/>
<path d="M579.506 297.536L581.066 259.313L-155.149 180.142L-156.709 218.365L579.506 297.536Z" fill="url(#paint9_linear_595_12301)" fill-opacity="0.25"/>
<defs>
<linearGradient id="paint0_linear_595_12301" x1="164.374" y1="-75.9997" x2="277.23" y2="541.938" gradientUnits="userSpaceOnUse">
<stop stop-color="#F1B343" stop-opacity="0.1"/>
<stop offset="0.5" stop-color="#F1B343"/>
<stop offset="1" stop-color="#F1B343" stop-opacity="0.1"/>
</linearGradient>
<linearGradient id="paint1_linear_595_12301" x1="366.366" y1="-35.0135" x2="22.5701" y2="477.379" gradientUnits="userSpaceOnUse">
<stop stop-color="#F1B343" stop-opacity="0.1"/>
<stop offset="0.5" stop-color="#F1B343"/>
<stop offset="1" stop-color="#F1B343" stop-opacity="0.1"/>
</linearGradient>
<linearGradient id="paint2_linear_595_12301" x1="483.986" y1="109.1" x2="-64.0254" y2="340.731" gradientUnits="userSpaceOnUse">
<stop stop-color="#F1B343" stop-opacity="0.1"/>
<stop offset="0.5" stop-color="#F1B343"/>
<stop offset="1" stop-color="#F1B343" stop-opacity="0.1"/>
</linearGradient>
<linearGradient id="paint3_linear_595_12301" x1="482.6" y1="362.723" x2="-63.07" y2="124.769" gradientUnits="userSpaceOnUse">
<stop stop-color="#F1B343" stop-opacity="0.1"/>
<stop offset="0.5" stop-color="#F1B343"/>
<stop offset="1" stop-color="#F1B343" stop-opacity="0.1"/>
</linearGradient>
<linearGradient id="paint4_linear_595_12301" x1="402.532" y1="475.862" x2="-11.5367" y2="26.5473" gradientUnits="userSpaceOnUse">
<stop stop-color="#F1B343" stop-opacity="0.1"/>
<stop offset="0.5" stop-color="#F1B343"/>
<stop offset="1" stop-color="#F1B343" stop-opacity="0.1"/>
</linearGradient>
<linearGradient id="paint5_linear_595_12301" x1="56.2738" y1="120.98" x2="373.348" y2="340.123" gradientUnits="userSpaceOnUse">
<stop stop-color="#F1B343" stop-opacity="0.1"/>
<stop offset="0.5" stop-color="#F1B343"/>
<stop offset="1" stop-color="#F1B343" stop-opacity="0.1"/>
</linearGradient>
<linearGradient id="paint6_linear_595_12301" x1="183.225" y1="141.054" x2="220.674" y2="331.229" gradientUnits="userSpaceOnUse">
<stop stop-color="#F1B343" stop-opacity="0.1"/>
<stop offset="0.5" stop-color="#F1B343"/>
<stop offset="1" stop-color="#F1B343" stop-opacity="0.1"/>
</linearGradient>
<linearGradient id="paint7_linear_595_12301" x1="323.356" y1="-69.7591" x2="80.2362" y2="529.354" gradientUnits="userSpaceOnUse">
<stop stop-color="#F1B343" stop-opacity="0.1"/>
<stop offset="0.5" stop-color="#F1B343"/>
<stop offset="1" stop-color="#F1B343" stop-opacity="0.1"/>
</linearGradient>
<linearGradient id="paint8_linear_595_12301" x1="511.182" y1="128.952" x2="-78.1336" y2="360.366" gradientUnits="userSpaceOnUse">
<stop stop-color="#F1B343" stop-opacity="0.1"/>
<stop offset="0.5" stop-color="#F1B343"/>
<stop offset="1" stop-color="#F1B343" stop-opacity="0.1"/>
</linearGradient>
<linearGradient id="paint9_linear_595_12301" x1="580.286" y1="278.425" x2="-157.931" y2="248.289" gradientUnits="userSpaceOnUse">
<stop stop-color="#F1B343" stop-opacity="0.1"/>
<stop offset="0.5" stop-color="#F1B343"/>
<stop offset="1" stop-color="#F1B343" stop-opacity="0.1"/>
</linearGradient>
</defs>
</svg>
