<svg width="432" height="469" viewBox="0 0 432 469" fill="none" xmlns="http://www.w3.org/2000/svg">
<path d="M188.502 -13.6937L161 -8.6709L239.489 482.824L266.991 477.801L188.502 -13.6937Z" fill="url(#paint0_linear_595_12301)" fill-opacity="0.25"/>
<path d="M423.783 -113.725L408.055 -124.278L-3.70259 577.557L12.0256 588.11L423.783 -113.725Z" fill="url(#paint1_linear_595_12301)" fill-opacity="0.25"/>
<path d="M412.057 166.037L396.762 129.85L19.7413 312.099L35.0369 348.286L412.057 166.037Z" fill="url(#paint2_linear_595_12301)" fill-opacity="0.25"/>
<path d="M478.756 372.059L486.604 354.063L-46.823 88.0334L-54.6706 106.029L478.756 372.059Z" fill="url(#paint3_linear_595_12301)" fill-opacity="0.25"/>
<path d="M476.138 597.867L504.27 571.942L-55.1434 -122.286L-83.2745 -96.3615L476.138 597.867Z" fill="url(#paint4_linear_595_12301)" fill-opacity="0.25"/>
<path d="M-79.3762 4.94865L-95.2715 27.9473L503.707 461.963L519.603 438.965L-79.3762 4.94865Z" fill="url(#paint5_linear_595_12301)" fill-opacity="0.25"/>
<path d="M143.763 -47.7844L125.18 -44.125L271.228 516.545L289.811 512.885L143.763 -47.7844Z" fill="url(#paint6_linear_595_12301)" fill-opacity="0.25"/>
<path d="M338.349 -54.3668L301.945 -69.1396L95.0437 524.961L131.448 539.734L338.349 -54.3668Z" fill="url(#paint7_linear_595_12301)" fill-opacity="0.25"/>
<path d="M574.537 117.397L567.361 99.123L-153.815 340.337L-146.639 358.611L574.537 117.397Z" fill="url(#paint8_linear_595_12301)" fill-opacity="0.25"/>
<path d="M710.903 311.059L712.463 272.836L-286.955 165.36L-288.516 203.582L710.903 311.059Z" fill="url(#paint9_linear_595_12301)" fill-opacity="0.25"/>
<defs>
<linearGradient id="paint0_linear_595_12301" x1="174.751" y1="-11.1823" x2="264.151" y2="478.32" gradientUnits="userSpaceOnUse">
<stop stop-color="#F1B343" stop-opacity="0.1"/>
<stop offset="0.5" stop-color="#F1B343"/>
<stop offset="1" stop-color="#F1B343" stop-opacity="0.1"/>
</linearGradient>
<linearGradient id="paint1_linear_595_12301" x1="415.919" y1="-119.002" x2="-36.6246" y2="555.467" gradientUnits="userSpaceOnUse">
<stop stop-color="#F1B343" stop-opacity="0.1"/>
<stop offset="0.5" stop-color="#F1B343"/>
<stop offset="1" stop-color="#F1B343" stop-opacity="0.1"/>
</linearGradient>
<linearGradient id="paint2_linear_595_12301" x1="404.41" y1="147.943" x2="19.1801" y2="310.771" gradientUnits="userSpaceOnUse">
<stop stop-color="#F1B343" stop-opacity="0.1"/>
<stop offset="0.5" stop-color="#F1B343"/>
<stop offset="1" stop-color="#F1B343" stop-opacity="0.1"/>
</linearGradient>
<linearGradient id="paint3_linear_595_12301" x1="482.68" y1="363.061" x2="-62.9899" y2="125.107" gradientUnits="userSpaceOnUse">
<stop stop-color="#F1B343" stop-opacity="0.1"/>
<stop offset="0.5" stop-color="#F1B343"/>
<stop offset="1" stop-color="#F1B343" stop-opacity="0.1"/>
</linearGradient>
<linearGradient id="paint4_linear_595_12301" x1="490.204" y1="584.905" x2="-112.663" y2="-69.2784" gradientUnits="userSpaceOnUse">
<stop stop-color="#F1B343" stop-opacity="0.1"/>
<stop offset="0.5" stop-color="#F1B343"/>
<stop offset="1" stop-color="#F1B343" stop-opacity="0.1"/>
</linearGradient>
<linearGradient id="paint5_linear_595_12301" x1="-87.3238" y1="16.448" x2="521.027" y2="436.904" gradientUnits="userSpaceOnUse">
<stop stop-color="#F1B343" stop-opacity="0.1"/>
<stop offset="0.5" stop-color="#F1B343"/>
<stop offset="1" stop-color="#F1B343" stop-opacity="0.1"/>
</linearGradient>
<linearGradient id="paint6_linear_595_12301" x1="134.471" y1="-45.9547" x2="246.206" y2="521.472" gradientUnits="userSpaceOnUse">
<stop stop-color="#F1B343" stop-opacity="0.1"/>
<stop offset="0.5" stop-color="#F1B343"/>
<stop offset="1" stop-color="#F1B343" stop-opacity="0.1"/>
</linearGradient>
<linearGradient id="paint7_linear_595_12301" x1="320.147" y1="-61.7532" x2="83.8944" y2="520.437" gradientUnits="userSpaceOnUse">
<stop stop-color="#F1B343" stop-opacity="0.1"/>
<stop offset="0.5" stop-color="#F1B343"/>
<stop offset="1" stop-color="#F1B343" stop-opacity="0.1"/>
</linearGradient>
<linearGradient id="paint8_linear_595_12301" x1="570.949" y1="108.26" x2="-135.945" y2="385.845" gradientUnits="userSpaceOnUse">
<stop stop-color="#F1B343" stop-opacity="0.1"/>
<stop offset="0.5" stop-color="#F1B343"/>
<stop offset="1" stop-color="#F1B343" stop-opacity="0.1"/>
</linearGradient>
<linearGradient id="paint9_linear_595_12301" x1="711.683" y1="291.947" x2="-290.453" y2="251.038" gradientUnits="userSpaceOnUse">
<stop stop-color="#F1B343" stop-opacity="0.1"/>
<stop offset="0.5" stop-color="#F1B343"/>
<stop offset="1" stop-color="#F1B343" stop-opacity="0.1"/>
</linearGradient>
</defs>
</svg>
