<svg width="432" height="469" viewBox="0 0 432 469" fill="none" xmlns="http://www.w3.org/2000/svg">
<path d="M178.354 -78.2943L150.852 -73.2715L249.934 547.182L277.436 542.159L178.354 -78.2943Z" fill="url(#paint0_linear_595_12301)" fill-opacity="0.25"/>
<path d="M305.488 88.0384L289.76 77.4854L114.889 375.551L130.617 386.104L305.488 88.0384Z" fill="url(#paint1_linear_595_12301)" fill-opacity="0.25"/>
<path d="M642.028 54.8204L626.732 18.6328L-209.937 423.073L-194.641 459.261L642.028 54.8204Z" fill="url(#paint2_linear_595_12301)" fill-opacity="0.25"/>
<path d="M552.447 408.615L560.295 390.619L-120.217 51.2345L-128.065 69.2303L552.447 408.615Z" fill="url(#paint3_linear_595_12301)" fill-opacity="0.25"/>
<path d="M388.695 489.041L416.826 463.116L32.603 -13.7025L4.47198 12.2219L388.695 489.041Z" fill="url(#paint4_linear_595_12301)" fill-opacity="0.25"/>
<path d="M-32.2571 40.101L-48.1523 63.0996L460.636 431.764L476.532 408.766L-32.2571 40.101Z" fill="url(#paint5_linear_595_12301)" fill-opacity="0.25"/>
<path d="M175.254 67.8181L156.67 71.4775L243.781 405.894L262.365 402.235L175.254 67.8181Z" fill="url(#paint6_linear_595_12301)" fill-opacity="0.25"/>
<path d="M389.736 -193.639L353.332 -208.412L47.7002 669.185L84.1043 683.958L389.736 -193.639Z" fill="url(#paint7_linear_595_12301)" fill-opacity="0.25"/>
<path d="M576.563 119.874L569.387 101.6L-151.789 342.813L-144.613 361.087L576.563 119.874Z" fill="url(#paint8_linear_595_12301)" fill-opacity="0.25"/>
<path d="M517.641 292.534L519.201 254.312L-89.6473 188.837L-91.2077 227.06L517.641 292.534Z" fill="url(#paint9_linear_595_12301)" fill-opacity="0.25"/>
<defs>
<linearGradient id="paint0_linear_595_12301" x1="164.603" y1="-75.7829" x2="277.459" y2="542.155" gradientUnits="userSpaceOnUse">
<stop stop-color="#F1B343" stop-opacity="0.1"/>
<stop offset="0.5" stop-color="#F1B343"/>
<stop offset="1" stop-color="#F1B343" stop-opacity="0.1"/>
</linearGradient>
<linearGradient id="paint1_linear_595_12301" x1="297.624" y1="82.7619" x2="105.431" y2="369.205" gradientUnits="userSpaceOnUse">
<stop stop-color="#F1B343" stop-opacity="0.1"/>
<stop offset="0.5" stop-color="#F1B343"/>
<stop offset="1" stop-color="#F1B343" stop-opacity="0.1"/>
</linearGradient>
<linearGradient id="paint2_linear_595_12301" x1="634.38" y1="36.7266" x2="-220.506" y2="398.068" gradientUnits="userSpaceOnUse">
<stop stop-color="#F1B343" stop-opacity="0.1"/>
<stop offset="0.5" stop-color="#F1B343"/>
<stop offset="1" stop-color="#F1B343" stop-opacity="0.1"/>
</linearGradient>
<linearGradient id="paint3_linear_595_12301" x1="556.371" y1="399.617" x2="-139.76" y2="96.0495" gradientUnits="userSpaceOnUse">
<stop stop-color="#F1B343" stop-opacity="0.1"/>
<stop offset="0.5" stop-color="#F1B343"/>
<stop offset="1" stop-color="#F1B343" stop-opacity="0.1"/>
</linearGradient>
<linearGradient id="paint4_linear_595_12301" x1="402.761" y1="476.078" x2="-11.3081" y2="26.7641" gradientUnits="userSpaceOnUse">
<stop stop-color="#F1B343" stop-opacity="0.1"/>
<stop offset="0.5" stop-color="#F1B343"/>
<stop offset="1" stop-color="#F1B343" stop-opacity="0.1"/>
</linearGradient>
<linearGradient id="paint5_linear_595_12301" x1="-40.2047" y1="51.6003" x2="476.545" y2="408.747" gradientUnits="userSpaceOnUse">
<stop stop-color="#F1B343" stop-opacity="0.1"/>
<stop offset="0.5" stop-color="#F1B343"/>
<stop offset="1" stop-color="#F1B343" stop-opacity="0.1"/>
</linearGradient>
<linearGradient id="paint6_linear_595_12301" x1="165.962" y1="69.6478" x2="232.607" y2="408.094" gradientUnits="userSpaceOnUse">
<stop stop-color="#F1B343" stop-opacity="0.1"/>
<stop offset="0.5" stop-color="#F1B343"/>
<stop offset="1" stop-color="#F1B343" stop-opacity="0.1"/>
</linearGradient>
<linearGradient id="paint7_linear_595_12301" x1="371.534" y1="-201.026" x2="22.5449" y2="658.977" gradientUnits="userSpaceOnUse">
<stop stop-color="#F1B343" stop-opacity="0.1"/>
<stop offset="0.5" stop-color="#F1B343"/>
<stop offset="1" stop-color="#F1B343" stop-opacity="0.1"/>
</linearGradient>
<linearGradient id="paint8_linear_595_12301" x1="572.975" y1="110.737" x2="-133.919" y2="388.321" gradientUnits="userSpaceOnUse">
<stop stop-color="#F1B343" stop-opacity="0.1"/>
<stop offset="0.5" stop-color="#F1B343"/>
<stop offset="1" stop-color="#F1B343" stop-opacity="0.1"/>
</linearGradient>
<linearGradient id="paint9_linear_595_12301" x1="518.421" y1="273.423" x2="-92.083" y2="248.501" gradientUnits="userSpaceOnUse">
<stop stop-color="#F1B343" stop-opacity="0.1"/>
<stop offset="0.5" stop-color="#F1B343"/>
<stop offset="1" stop-color="#F1B343" stop-opacity="0.1"/>
</linearGradient>
</defs>
</svg>
