<svg width="6" height="10" viewBox="0 0 6 10" fill="none" xmlns="http://www.w3.org/2000/svg">
<path d="M4.56289 9.54995L0.35039 5.34995C0.30039 5.29995 0.265057 5.24578 0.24439 5.18745C0.22339 5.12912 0.212891 5.06662 0.212891 4.99995C0.212891 4.93328 0.22339 4.87078 0.24439 4.81245C0.265057 4.75412 0.30039 4.69995 0.35039 4.64995L4.56289 0.437451C4.67956 0.320784 4.82539 0.262451 5.00039 0.262451C5.17539 0.262451 5.32539 0.324951 5.45039 0.449951C5.57539 0.574951 5.63789 0.720784 5.63789 0.887451C5.63789 1.05412 5.57539 1.19995 5.45039 1.32495L1.77539 4.99995L5.45039 8.67495C5.56706 8.79162 5.62539 8.93528 5.62539 9.10595C5.62539 9.27695 5.56289 9.42495 5.43789 9.54995C5.31289 9.67495 5.16706 9.73745 5.00039 9.73745C4.83372 9.73745 4.68789 9.67495 4.56289 9.54995Z" fill="#2B7C5F"/>
</svg>
