<svg width="12" height="15" viewBox="0 0 12 15" fill="none" xmlns="http://www.w3.org/2000/svg">
<path d="M6.00016 14.6665C4.44461 14.6665 3.10305 14.1554 1.9755 13.1332C0.847495 12.111 0.200162 10.8443 0.0334954 9.33319C0.0112732 9.15542 0.0641622 8.99986 0.192162 8.86653C0.319718 8.73319 0.47794 8.66653 0.666829 8.66653C0.844607 8.66653 1.00305 8.7303 1.14216 8.85786C1.28083 8.98586 1.36127 9.1443 1.3835 9.33319C1.53905 10.4776 2.05016 11.4305 2.91683 12.1919C3.7835 12.9527 4.81127 13.3332 6.00016 13.3332C7.30016 13.3332 8.40283 12.8803 9.30816 11.9745C10.2139 11.0692 10.6668 9.96653 10.6668 8.66653C10.6668 7.36653 10.2139 6.26364 9.30816 5.35786C8.40283 4.45253 7.30016 3.99986 6.00016 3.99986H5.90016L6.4835 4.58319C6.60572 4.70542 6.66683 4.86097 6.66683 5.04986C6.66683 5.23875 6.60572 5.3943 6.4835 5.51653C6.35016 5.64986 6.18905 5.71653 6.00016 5.71653C5.81127 5.71653 5.65572 5.64986 5.5335 5.51653L3.80016 3.79986C3.73349 3.73319 3.68638 3.66097 3.65883 3.58319C3.63083 3.50542 3.61683 3.42208 3.61683 3.33319C3.61683 3.2443 3.63083 3.16097 3.65883 3.08319C3.68638 3.00542 3.73349 2.93319 3.80016 2.86653L5.5335 1.13319C5.65572 1.01097 5.81127 0.94986 6.00016 0.94986C6.18905 0.94986 6.35016 1.01097 6.4835 1.13319C6.60572 1.26653 6.66683 1.42764 6.66683 1.61653C6.66683 1.80542 6.60572 1.96097 6.4835 2.08319L5.90016 2.66653H6.00016C6.8335 2.66653 7.61416 2.82497 8.34216 3.14186C9.06972 3.4583 9.70305 3.88586 10.2422 4.42453C10.7808 4.96364 11.2086 5.59697 11.5255 6.32453C11.8419 7.05253 12.0002 7.83319 12.0002 8.66653C12.0002 9.49986 11.8419 10.2803 11.5255 11.0079C11.2086 11.7359 10.7808 12.3692 10.2422 12.9079C9.70305 13.447 9.06972 13.875 8.34216 14.1919C7.61416 14.5083 6.8335 14.6665 6.00016 14.6665Z" fill="#2B7C5F"/>
</svg>
