<svg xmlns="http://www.w3.org/2000/svg" width="115" height="125"><path d="M113.42 37.62H77.744V2.85h35.678v34.77zM113.422 74.866H77.744v-34.77h35.678v34.77zM75.176 74.866H39.498V40.097h35.678v34.769zM113.422 111.876H77.744V77.305h35.678v34.57zM75.176 111.828H39.498V77.306h35.678v34.522zM37.177 111.876H1.499V77.353h35.678v34.523z" fill="#2c3792"/><path d="M26.93 106.65c-1.1.568-3.41 1.136-6.322 1.136-6.747 0-11.791-4.255-11.791-12.13 0-7.519 5.079-12.555 12.502-12.555 2.948 0 4.865.639 5.683 1.064l-.781 2.518c-1.138-.567-2.808-.992-4.795-.992-5.613 0-9.34 3.581-9.34 9.86 0 5.886 3.373 9.61 9.162 9.61 1.918 0 3.835-.39 5.079-.993l.604 2.483zM47.98 83.901a39.755 39.755 0 016.57-.532c4.44 0 7.6 1.065 9.696 2.98 2.166 1.951 3.408 4.717 3.408 8.582 0 3.902-1.242 7.094-3.445 9.293-2.272 2.235-5.966 3.441-10.618 3.441-2.238 0-4.05-.107-5.612-.284v-23.48zm3.09 21.14c.78.105 1.917.14 3.124.14 6.642 0 10.193-3.688 10.193-10.143.035-5.64-3.16-9.222-9.695-9.222-1.599 0-2.806.143-3.623.32v18.904zM89.353 83.547h12.89v2.588h-9.765v7.945h9.02v2.554h-9.02v10.818h-3.125V83.547zM51.554 46.198v14.186c0 5.322 2.38 7.59 5.576 7.59 3.515 0 5.824-2.34 5.824-7.59V46.198h3.126v13.974c0 7.341-3.873 10.321-9.056 10.321-4.902 0-8.595-2.766-8.595-10.215v-14.08h3.125zM85.647 70.103V46.198h3.408l7.637 12.095c1.74 2.8 3.161 5.32 4.262 7.767l.107-.036c-.286-3.191-.356-6.1-.356-9.824V46.198h2.913v23.905h-3.126l-7.6-12.13c-1.669-2.66-3.266-5.392-4.44-7.98l-.106.035c.178 3.016.213 5.887.213 9.86v10.215h-2.912zM109.485 12.76c.496.703.862 1.736.862 2.89 0 1.642-.846 2.558-.974 4.03-.07-.058-.058-.142-.073-.21-.27-1.092-.89-1.792-1.48-2.586-.613-.826-1.148-1.678-1.38-2.917.003-.028.015-.011.015 0 .62 1.069 1.91 1.535 2.457 2.69.181.381.238.805.365 1.319.085-.048.026-.138.023-.218-.07-.874-.118-1.885-.04-2.801.023-.329.09-.651.113-.964.042-.742-.132-1.382-.425-1.875.017-.059.107.053.149.1.139.139.25.356.388.541M105.189 28.7c1.52-1.324 4.04-1.684 4.905-3.707-.106.836-.466 1.509-.885 2.064a7 7 0 01-1.515 1.474c-.588.417-1.26.73-2.05.91-.768.186-1.62.3-2.43.54-.09.047.064-.085.09-.117.354-.333.666-.777.9-1.238.561-1.113.762-2.5 1.409-3.528.323-.519.683-.974 1.032-1.43.023.016.011.016 0 .016-.429.932-.424 2.155-.689 3.178-.253 1.044-.85 1.726-1.503 2.32.29-.075.513-.291.736-.483" fill="#fff"/><path d="M108.833 24.103c.826-.975 2.055-1.731 2.27-3.326.23 1.97-.592 3.23-1.508 4.216-.942 1.027-2.302 1.62-3.374 2.457.223-.445.447-.932.573-1.526.116-.576.17-1.212.217-1.859.1-1.297.2-2.595.667-3.52-.058 1.074.276 1.938.366 2.907.1 1.068-.244 1.885-.663 2.568.15-.032.197-.202.277-.297.38-.519.75-1.118 1.175-1.62" fill="#fff"/><path d="M109.462 20.761a8.14 8.14 0 01.52-1.44c.418-.9.853-1.86.694-3.146.02 0 .02.005.02.026.535 1.139.499 2.834.134 4.046-.218.732-.525 1.213-.923 1.717-.455.576-.958 1.165-1.345 1.8.005-.652.085-1.197-.042-1.743-.1-.481-.318-.947-.455-1.43a17.24 17.24 0 01-.388-1.509c-.137-.66-.258-1.356-.222-2.14.229.784.652 1.388 1.049 2.03.408.667.71 1.34.705 2.33-.012.375-.154.672-.17 1.01.127-.073.122-.232.148-.348.095-.382.18-.8.275-1.203M107.196 10.334c.963.561 1.68 1.631 1.637 3.166-.016.779-.132 1.69.02 2.415-.487-.947-1.376-1.494-2.176-2.14-.794-.645-1.44-1.392-1.62-2.679.55 1.144 1.875 1.515 2.652 2.425.134.16.272.303.372.472.1.18.17.37.296.53-.011-.192-.133-.35-.201-.545-.207-.563-.339-1.224-.498-1.86-.111-.418-.206-.848-.386-1.208-.185-.344-.44-.592-.72-.841.169-.026.487.18.624.265M107.678 20.544c-.021-.079.054-.01 0 0M107.732 28.975c-.012.096-.18.355-.26.466-.334.492-.815.89-1.272 1.202-.667.46-1.461.827-2.413.89-1.817.105-3.105-.626-4.667-.768.657-.154 1.187-.323 1.679-.588.493-.255.853-.641 1.239-1.022.757-.768 1.52-1.5 2.39-2.145 0 .09-.065.165-.106.227-.622.959-.895 2.251-1.897 2.876-.382.228-.81.36-1.308.53.566.017 1.166-.18 1.78-.255.645-.088 1.29-.105 1.922-.163 1.244-.15 2.281-.514 2.913-1.25" fill="#fff"/><path d="M107.048 11.652c.116.334.185.73.344 1.033-.868-.625-1.678-1.362-2.351-2.235-.222-.302-.408-.62-.625-.91-.26-.35-.64-.594-.905-.928.005-.026.016-.01.016 0 .98.371 1.859.651 2.472 1.271.488.493.8 1.06 1.05 1.77M97.013 27.053c-.095 0-.143-.095-.233-.144-.059-.031-.139-.02-.202-.064-.138-.095-.285-.391-.254-.56.005-.122.116-.17.1-.286-.068-.201-.408-.059-.598-.111-.122-.038-.111-.14-.211-.143.116.133.069.323.079.588.01.328.037.672 0 .916.365-.139.911-.101 1.319-.196m8.653-12.632c.588 1.314.915 2.872.915 4.645a10.25 10.25 0 01-1.042 4.497c-1.203 2.483-3.088 4.39-5.609 5.518-1.302.582-2.806.938-4.627.938-1.77 0-3.29-.409-4.567-.986-1.292-.572-2.356-1.355-3.282-2.283a10.575 10.575 0 01-2.245-3.299 11.088 11.088 0 01-.98-4.586c.01-3.549 1.424-6.026 3.225-7.885 1.831-1.906 4.284-3.146 7.801-3.336h.476c.005.01.015.021.037.021 1.758.02 3.193.508 4.443 1.096 2.505 1.185 4.305 3.098 5.455 5.66m.313 5.44c.021-.255.01-.61.111-.763-.494.09-1.139.02-1.695.042-.01-.042-.049-.042-.074-.057.095.286.015.646-.038 1.01a8.572 8.572 0 01-2.319 4.824c.471.34.826.807 1.25 1.193.334-.471.715-.885 1.032-1.372a10.427 10.427 0 001.733-4.877m.095-1.387c-.101-.196-.085-.52-.118-.769-.28-2.764-1.487-4.591-2.906-6.249-.334.435-.736.822-1.122 1.192-.07-.017-.08.03-.154.02.026.048.159.16.19.266.329.137.455.497.679.726.073.084.163.131.222.211.053.058.079.15.126.217.144.202.345.397.445.603.059.133.048.26.09.404.016.041.069.11.09.159.424.964.746 2.086.741 3.335a.386.386 0 01.187-.058c.46-.037 1.091.032 1.53-.057m-2.252.031c-.078-.286-.095-.656-.148-.959a7.063 7.063 0 00-.624-2.043c-.113.026-.175.1-.334.073a8.475 8.475 0 00-.662-.788c-.372-.005-.434-.318-.757-.367-.063-.09-.074-.248-.153-.333-.075-.027-.112.016-.213 0-.122-.095-.27-.16-.312-.375-.017-.07.006-.15 0-.213a.993.993 0 00-.17-.445c-.2-.254-.382-.026-.624.048-.101-.17-.118-.397-.224-.54.24-.264-.152-.392-.201-.588-.01-.047.027-.106.016-.18-.016-.106-.344-.434-.429-.481-.063-.044-.19-.085-.312-.133-.645-.27-1.674-.598-2.446-.646-.102 0-.218.01-.313 0-.095-.011-.185-.059-.276-.059.044.043.047.074.054.133.068.44-.038 1.08-.038 1.51a.771.771 0 01.35-.011 6.496 6.496 0 013.263 1.212c-.069-.121-.197-.206-.218-.37.005-.047.085-.016.07-.085-.016-.159-.265-.254-.165-.419.149.022.238.144.313.24.09.105.163.217.243.338.185-.043.36.079.418.239.022.04 0 .105.022.168.02.08.08.202.11.282.092.258.398.355.35.667.032.041.08.041.15.041.088.144.21.27.312.403-.054.144.031.26.131.271.122 0 .334-.265.404-.022.041.132-.112.11-.092.312.097-.01.207-.074.26.011.01.154-.18.207-.148.313.027.106.206.059.276.116.057.048.01.111.036.175.005.033.064.069.075.085.116.211-.085.45-.059.72.012.069.048.116.06.18.024.223-.09.334-.176.44-.011.301-.212.424-.324.624-.106.016-.232.011-.275.085-.09.069.012.201.038.286.036.074-.09.111 0 .111h.55c-.149-.196-.068-.635.037-.842.122-.259.174-.635.44-.651.01.233 0 .46-.09.587.143.224.18.546.16.933a24.4 24.4 0 011.645-.053m-.148 1.631c.053-.318.07-.767.165-1.017-.525.032-1.139.059-1.663-.021 0 .127.016.233 0 .37-.011.218-.106.467-.07.626.039.154.234.169.208.349-.022.165-.192.176-.334.117-.175.551-.35 1.101-.614 1.573-.127.227-.286.435-.435.635-.159.227-.281.466-.519.598.138.095.27.244.387.35.042.027.1.084.148.064-.005-.127.005-.186.074-.217.229-.095.34.312.424.402-.026.233.159.339.095.53.641-.625 1.124-1.351 1.51-2.199a8.25 8.25 0 00.624-2.16m-1.679-8.5c.186-.19.392-.407.631-.513-.81-.827-1.731-1.442-2.827-1.934a11.216 11.216 0 00-1.765-.624c-.709-.191-1.594-.286-2.378-.371-.01 0-.021 0-.016.011.075.418.064.984.016 1.429.031.096.043-.116.149-.063.106.027.111.233.074.35.377-.075.795.047 1.176.11a8.23 8.23 0 012.494.927c.1-.1.302-.195.471-.18.075 0 .159.07.245.09.067.006.115-.02.164 0 .132.042.201.19.28.255.181.058.345.19.46.312a.831.831 0 01.197.456c.095.095.174.18.264.264.08-.19.222-.36.365-.519m.795 14.834a17.125 17.125 0 01-1.18-1.117c-.016-.038-.006-.097-.033-.112-.143.297-.466.467-.746.7-.134.105-.239.212-.382.297-.143.083-.307.152-.439.247-.128.113-.239.281-.313.393-.158.26-.297.497-.556.62-.052.216-.265.216-.439.348-.075.048-.106.107-.17.144-.466.285-.725-.36-1.107-.397-.079-.012-.218.026-.329.047-.455.09-.946.206-1.402.111.026.55.032 1.187 0 1.732.365-.074.942-.1 1.361-.17 2.467-.387 4.242-1.455 5.735-2.843m-1.16-7.33c-.323.048-.763 0-.995-.042.196.1.227.312.275.508.027.112.222.164.297.255.11.137.1.29.222.402.106-.344.095-.784.201-1.123m-.185-1.831c-.09-.271-.17-.568-.301-.795-.144-.026-.245-.201-.36-.265-.107-.069-.265-.074-.277-.18-.026-.154.18-.286.165-.434-.01-.132-.228-.334-.35-.499-.168-.21-.275-.396-.423-.492-.1.18-.259.307-.408.451-.402.423-.821.82-1.181 1.25.057.048.085.121.17.143.036-.143.084-.287.126-.42.144-.132.308 0 .483.017.068.005.142-.016.211-.016.206 0 .402.085.599.064.106.1.19.222.255.38.275.096-.028.287.111.456.152 0 .206-.169.354-.19.095-.006.165.069.291.074.037.185.239.185.297.355-.022.085-.09.12-.165.142.06.17-.168.275-.095.471.328.06.355-.322.498-.512m-.424 7.715c.028-.031.123-.106.059-.106-.07-.015-.08.026-.149.01-.122-.063-.195-.19-.19-.392-.234-.28-.54-.492-.731-.81-.049.218-.334.27-.223.578.19.1.625.227.61.519-.017.17-.377.333-.35.572.005.074.095.121.107.233-.007.08-.16.12-.092.222 0-.057.05-.085.074-.126.288-.218.648-.456.885-.7m-.222-3.119c.211-.366.392-.794.476-1.25-.313.021-.698.201-.974.038-.042.116-.111.265-.254.238-.1-.022-.08-.122-.148-.207.006.175-.105.207-.17.312-.074.128-.084.207-.164.265-.106.074-.237.038-.355.133-.021.227-.286.227-.499.285.07.196.329.032.451 0 .074-.195.165-.391.478-.365.136.106.174.317.159.572-.15.233-.102.678-.324.842-.005.058.006.122-.021.148-.244.117-.439.017-.661-.052a5.204 5.204 0 00-.76-.164c-.1-.016-.284-.096-.327.048.143.142.35.116.573.19.185.057.337.237.497.26.08.005.207-.043.345-.054.238-.016.392.059.48-.09-.031-.18.075-.286.149-.398.044-.052.064-.163.149-.163.101.085.106.255.149.407a4.82 4.82 0 00.75-.995m-1.47-7.494c.072-.068.195-.068.237-.17-.165-.047-.281-.163-.402-.263-.938-.695-2.04-1.172-3.507-1.31.09.472-.005 1.145.059 1.648.031-.037.1-.037.164-.037.826.121 1.579.397 2.14.794.154.096.307.155.349.323.1-.068.143-.168.217-.26.079-.085.175-.147.26-.232.159-.164.301-.371.483-.493m-1.16 6.8c.03-.29-.177-.355-.32-.47-.01-.048.027-.048.017-.086-.08-.047-.137.038-.185.085.038.085.033.206.095.254.064-.005.085.021.133.032.036.095.117.302.26.185m-.335-5.105c-.09.032-.195-.016-.243-.073.064-.16.223-.203.318-.324-.63-.381-1.357-.758-2.252-.805.118.28.017.779.075 1.129.132.036.26.095.408.12.064-.117.27-.18.386-.28.064-.043.074-.143.164-.143.239-.006.139.435.075.556-.116.212-.46.302-.625.445-.005 0-.1.074-.036.095.115.06.185-.095.29-.095.243.042.343.402.647.202.056-.488.673-.42.793-.827m-.48 6.7c.206-.133.46-.35.353-.673-.238-.022-.306.248-.482.248-.128 0-.1-.142-.275-.126.011.079.1.069.075.19-.118.201-.313-.021-.466-.037-.048.016.02.143-.054.143-.064-.037-.089-.096-.169-.127-.064-.043-.16-.043-.232-.08-.054-.02-.06-.089-.134-.089-.116.031-.159.126-.313.126v.102c-.142.03-.147.2-.253.265-.064-.012-.09.02-.132.02-.07.096-.212.096-.276.19.048.102.201.102.349.107.111-.234.487-.101.759-.149.047.053.025.18.072.228.249-.048.393.175.605.054-.005-.07.036-.102.043-.165.137-.133.365-.117.53-.228m-.313-.937c.148-.122.433-.117.46-.344-.25 0-.476.127-.46.344m-.572-1.8c.09-.15.168-.313.206-.52-.101-.09-.211-.25-.149-.45-.085-.064-.062-.207-.132-.292-.058-.068-.137-.047-.18-.132.043-.111.09-.238.18-.313a.51.51 0 01-.07-.396.539.539 0 01-.173-.027c-.07-.148-.202-.233-.287-.365-.08-.015-.16-.053-.248-.074-.031.021-.064.047-.122.047-.074-.068-.45-.322-.408-.47.036-.133.238-.048.37-.07-.095-.106-.322-.12-.481-.063.085.132.069.35.132.482-.153.228-.423.329-.721.413-.042.058-.051.18-.11.232-.159.016-.202.17-.292.255.006.228-.068.445-.08.689.08-.043.133-.09.245-.09.026.026.016.11.016.159.052.015.1.015.095.105-.005.11-.133.158-.186.27-.052.106-.004.355-.202.323-.088.037-.02-.1-.1-.095-.006.143.08.202.133.264.19-.062.169-.365.43-.365.084-.116-.011-.201.015-.301.069-.201.831-.186.906-.011-.011.1-.032.18.036.238-.063.112-.095.27-.206.35.005.048.031.058.021.122-.091.095-.063.168-.147.243-.16.133-.435.032-.61.175.301.218.767.375 1.307.302.182-.16.075-.567.335-.635.143-.038.297.057.477 0M95.01 22.19c.101-.01.245.1.261-.08-.032-.08-.097-.063-.128-.147-.027-.069.01-.16-.037-.229a.233.233 0 00.09-.074c-.08-.078-.031-.265 0-.36-.541.112-.932-.217-1.292-.418-.026-.037-.033-.122-.09-.143-.255.471-.704.72-1.011 1.128.56.418 1.165.778 2 .9.045-.264-.025-.513.207-.577m-.09 4.983c.064.016.17.132.186.075-.122-.435-.032-1.091-.058-1.621-.2.08-.45.037-.714 0-1.199-.17-2.304-.763-3.009-1.287.01.122.196.18.169.34-.036.21-.338.163-.571.174-.297.015-.59.291-.885.244-.18-.038-.254-.255-.45-.229 1.233 1.108 2.786 2.039 4.893 2.278.133.01.308 0 .439.026m-1.345-12.53c.403-.18.944-.376 1.494-.328-.069-.503-.026-1.186-.021-1.668-.138.095-.465.095-.663.132-1.334.239-2.255.805-3.134 1.51.46.313.768.761 1.203 1.106.036-.08.1-.12.162-.18.265-.212.605-.407.959-.572m1.541 1.484c-.095-.334-.062-.78-.068-1.208-1.043.126-1.822.514-2.38 1.128h.135c.11.132.396.106.438.307.005.074-.1.043-.09.133.054.026.08.09.165.09.037-.064.048-.16.132-.175.07.063.1.142.18.185.07-.01.117-.043.186-.048.057.021.121.038.149.095.052-.057.18-.047.253-.074.197-.158.138-.625.408-.646.022.085-.048.154 0 .213.206.026.36-.133.492 0m-.068 12.508c0-.36-.038-.683.058-.863-.36.073-.752-.012-1.123-.085a8.662 8.662 0 01-4.718-2.314c-.36.445-.811.779-1.166 1.224 1.531 1.307 3.274 2.34 5.641 2.716.434.069.995.085 1.376.19-.106-.201-.068-.514-.068-.868m-2.522-15.92c.695-.317 1.584-.608 2.522-.597-.005-.525-.08-1.113 0-1.6-1.817.09-3.2.662-4.338 1.42-.36.232-.656.56-1.042.767.083.1.21.17.312.265.211.17.396.377.571.567.09.095.239.175.254.333a7.223 7.223 0 011.721-1.155m2.469-4.362c0-.028.074-.133 0-.123-3.099.19-5.185 1.388-6.937 2.93.275.12.466.36.672.55.201.207.408.418.604.635.116-.217.334-.355.519-.503 1.323-1.065 2.96-1.85 5.195-1.97-.117-.408-.027-1.023-.053-1.52m-.661 14.992c-.525.01-.769-.19-1.15-.386-.376-.211-.663-.408-.864-.663-.329.408-.715.764-1.085 1.144.259.106.45.334.683.493.46.323 1.01.572 1.605.778.29.097.593.207.92.233-.09-.015-.153-.074-.243-.089-.17-.25-.435-.407-.476-.779a.69.69 0 00.222-.44c.09-.132.228-.216.388-.29m-.52-4.026c.09-.01.137-.164.09-.254-.234.303-.275-.232-.403-.328-.042.032-.026.106-.111.09-.232-.217-.461.063-.44.36-.069.042-.179.042-.184.158.328-.036.657-.068.937-.158.062.01.053.11.11.132m-.327 1.039c-.063-.026-.128-.064-.186-.096-.031.175-.159.26-.221.392.147-.085.221-.254.407-.296m-.631.514c.011-.074-.052-.144-.074-.218-.026-.121.017-.312-.112-.36-.1.085.07.191 0 .286-.084.038-.12-.122-.238-.117-.041-.063-.106-.105-.127-.185.005-.069.049-.048.016-.105-.084-.085-.142-.059-.275-.038.016-.116-.054-.142-.09-.2-.137 0-.312-.065-.391-.048.206.407.332.836.571 1.186.085.121.19.227.223.37.063-.031.085-.09.105-.143.075-.122.366-.286.392-.428m-1.271-4.587c.201-.106.245-.43.499-.46-.462-.33-.807-.775-1.235-1.135-.603.717-1.097 1.558-1.365 2.554-.107.408-.175.948-.254 1.366.167-.08.439-.053.661-.042-.005-.123-.101-.329-.08-.52.021-.111.085-.111.116-.18.023-.079.017-.164.038-.206.032-.07.137-.143.185-.238.064-.127.054-.201.127-.239.133-.068.287.027.387-.085.037-.073-.022-.105-.017-.19.09-.132.27-.106.383-.18.079-.053.111-.153.169-.217a.693.693 0 01.222-.201c.049-.017.111 0 .164-.027m-.555 2.902c.02-.058-.079-.032-.054-.105.074-.213.011-.552-.079-.722-.16-.083-.467-.057-.546.097-.031.28.288.48.09.698-.074.043-.164-.016-.275 0-.08.095-.01.344-.127.393-.164.036-.318.01-.35.132-.052.137.16.302.068.493.087.169.272.269.355.46.017.047.017.09.038.142.016.05.042.097.054.155.016.132-.017.243.016.35.02.063.09.094.11.163.011.027.016.08.021.095.043.366-.021.605.111.842.027.064.112.112.149.207.043.132.016.286.053.407-.064.118-.254.101-.265.276.085-.026.08.053.117.074.444-.514.9-1.011 1.414-1.44a4.797 4.797 0 01-1.044-2.135c-.064-.041-.127-.062-.185-.089.01.095-.037.19-.054.28-.025.107.007.24-.095.287-.131-.074-.355-.154-.275-.36.08-.027.105.026.164.03.123-.2-.047-.428.038-.608.143 0 .143.19.275.201.143.005.26-.116.276-.323m-1.325 0c-.174.042-.386-.01-.498-.032a.293.293 0 01.07.117c.037.35.105.662.115 1.048.017-.147.107-.227.187-.323-.134-.127-.102-.17-.06-.392.043-.222.055-.36.186-.418m.736-4.947c-.45-.333-.794-.75-1.175-1.138-.052.19-.26.408-.407.605a5.95 5.95 0 00-.408.55c-.79 1.176-1.261 2.552-1.382 4.33.518-.02 1.196-.035 1.636-.02-.038-.063-.033-.148-.033-.222.005-.418.128-.847.223-1.228.286-1.182.89-2.13 1.546-2.877m-1.662 10.752c.068.01.095-.017.132-.05-.217-.12-.361-.338-.514-.54-.28-.062-.492-.21-.52-.54-.088.043-.12.102-.216.09-.074-.01-.275-.18-.35-.3-.067-.09-.064-.223-.131-.275-.255.062-.201-.192-.424-.18-.112-.07-.165-.23-.26-.318-.084.413-.407-.065-.502-.18-.06 0-.06.068-.14.048-.067-.092-.142-.144-.184-.265-.026-.06-.016-.15-.036-.208-.023-.057-.075-.095-.097-.164-.047-.185.01-.376.022-.587.075-.064.122-.17.165-.281.088-.032.136-.064.222-.064.074.016.09.091.163.101.058.011.075-.037.15-.037.04-.048-.028-.095.02-.132.086-.048.2-.096.328-.117.095.08.138.307.238.307-.12-.217-.17-.56-.218-.873-.051-.334-.083-.72-.147-.97.027-.084.032-.185.037-.302 0-.016-.005-.016-.021-.016-.021.026-.084.048-.111.048-.414.058-1.101-.032-1.563 0 .123 2.246.8 4.178 1.822 5.635.245.345.498.667.752 1.017.085.1.255.323.28.323.011 0 .101-.117.129-.143.152-.17.312-.312.429-.435.195-.19.355-.391.545-.592m-.122-5.212c.015.022.074.107.084.037-.111-.137-.047-.487-.069-.678-.015.038-.063.038-.09.048-.513 0-1.09.042-1.556-.032 0 .074.074.07.059.154.064.768.231 1.43.349 2.134.042-.105.047-.249.17-.28.02-.339.047-.854.332-1.049.265 0 .35-.419.589-.397.057 0 .084.037.132.063m.254-7.038c-.397-.344-.757-.73-1.122-1.107-.022-.042-.007-.116-.054-.116-.218.239-.424.466-.614.71-1.261 1.651-2.165 3.574-2.319 6.359a19.012 19.012 0 011.73 0c-.067-.651.075-1.308.224-1.921a8.66 8.66 0 011.106-2.607c.292-.48.663-.968 1.049-1.318M105.147 31.639c.022.074-.07.095-.106.137a4.01 4.01 0 01-1.122.895c-.642.365-1.342.6-2.368.552-.959-.06-1.8-.43-2.43-.838-.319-.18-.641-.429-.954-.651-.318-.228-.695-.493-1.09-.535-.33-.043-.7.005-.938.049 1.318.666 2.505 1.47 3.5 2.456-.158.232-.403.376-.61.577-.904-.916-1.8-1.865-2.985-2.547-.16-.09-.382-.249-.52-.265-.148-.005-.408.122-.588.227-.497.272-.995.663-1.397 1.002a8.127 8.127 0 00-1.568 1.63c-.222-.18-.43-.37-.661-.528a11.145 11.145 0 013.52-2.521c-.254-.133-.655-.154-.995-.075-.72.186-1.214.716-1.844 1.112-.581.382-1.211.753-2.026.907-1.898.375-3.316-.494-4.221-1.463.316.196.667.34 1.063.455.44.106.9.17 1.388.144.942-.038 1.652-.419 2.336-.72.751-.324 1.45-.625 2.288-.779a6.082 6.082 0 012.1.016c.197.048.4.175.59.175.153-.01.265-.116.37-.16.36-.1.885-.142 1.308-.142.91 0 1.732.206 2.414.482.351.143.664.313.996.444.637.265 1.39.578 2.3.589.858.01 1.614-.191 2.25-.625" fill="#fff"/><path d="M100.963 10.99c-.243.084-.296-.122-.444-.254-.059-.058-.117-.058-.159-.127.009-.042-.027-.122.015-.132.112-.048.218.057.35 0 .207.074.233.306.238.514M97.796 9.428c-.122.17-.45.339-.7.206-.365.112-1.096.265-1.217-.168.042-.08.185-.06.271-.038.259-.106.566-.27.799-.334.371.012.699.085.847.334M91.806 30.812c-.535.08-1.08.192-1.589.334-.9.228-1.97.529-3.15.481a4.722 4.722 0 01-2.383-.836 5.224 5.224 0 01-1.542-1.662c.34.328.725.625 1.23.83.492.202 1.074.325 1.7.382.635.074 1.307.074 1.948.133.635.073 1.229.265 1.79.265-.201-.164-.455-.144-.656-.208-1.087-.354-1.605-1.244-2.087-2.229-.19-.392-.402-.816-.667-1.143.249.11.444.29.651.47a22.48 22.48 0 011.785 1.61c.768.768 1.631 1.356 2.97 1.573M87.052 8.76c.068.022-.05.085-.075.117-.275.275-.557.588-.81.911-.297.377-.557.773-.837 1.154-.556.779-1.32 1.309-2.002 1.923.186-.472.286-1.007.456-1.457.524-1.45 1.794-2.123 3.268-2.647" fill="#fff"/><path d="M86.674 28.726a4.4 4.4 0 001.033 1.345c-.82-.244-1.694-.317-2.483-.487-.806-.154-1.456-.477-2.045-.884-1.148-.816-2.065-1.886-2.435-3.475.757 1.711 2.722 2.15 4.242 3.092.508.32.905.764 1.435.997-.01-.095-.133-.16-.218-.233-.576-.53-1.054-1.16-1.291-2.071-.265-1.011-.276-2.235-.72-3.135.211.19.36.429.534.661.175.234.356.466.52.721.625 1.007.888 2.362 1.428 3.47M85.594 11.218c.016.64-.242 1.154-.519 1.584a5.355 5.355 0 01-.995 1.137c-.382.34-.81.615-1.175.965-.37.35-.716.71-.948 1.202-.037-.34.03-.652.026-.97-.006-.312-.059-.624-.074-.925-.037-.663-.016-1.298.148-1.854.143-.514.402-.901.736-1.271a2.83 2.83 0 011.256-.817c-.255.255-.494.514-.667.87-.334.688-.404 1.625-.647 2.457-.122.408-.345.757-.366 1.143.07-.083.101-.185.149-.275.324-.65.815-1.122 1.397-1.562.637-.46 1.384-.869 1.68-1.684" fill="#fff"/><path d="M84.08 26.067c.112.604.36 1.07.567 1.537-2.093-1.473-4.688-2.437-4.93-5.757v-.508c.042-.08.005-.228.016-.344.185 1.254 1 2.001 1.731 2.732.381.387.736.768 1.054 1.192.312.418.546.9.954 1.26-.15-.34-.36-.614-.483-.97a4.374 4.374 0 01-.196-1.254c-.033-1.129.509-2.088.366-3.253.699 1.404.588 3.64.921 5.365M84.228 14.163c0 .307-.084.597-.17.873-.555 1.875-2.15 2.813-2.557 4.862-.143-1.404-1-2.352-1.07-3.865-.074-1.67.545-2.818 1.33-3.767-.233.398-.403.98-.41 1.584 0 .704.16 1.414.225 2.134.052.594-.012 1.117-.054 1.679-.021.175-.058.355 0 .518.074-.057.064-.195.09-.332.134-.843.514-1.42.996-1.944.524-.604 1.233-1.012 1.62-1.742" fill="#fff"/><path d="M83.329 17.065c.088.625-.038 1.26-.133 1.837-.149.96-.376 1.733-.625 2.58-.121.413-.286.842-.312 1.287-.027.386.01.788.073 1.196-.111-.058-.147-.185-.206-.281-.445-.714-1.069-1.26-1.526-1.95-.539-.787-.793-1.873-.884-3.123V18.3a7.495 7.495 0 01.381-1.897c.038.075-.01.197-.016.292-.057.783.15 1.33.371 1.896.329.864.753 1.562.975 2.557.107.473.149.89.292 1.26.005 0 .078.133.095.133.08-.01-.037-.216-.037-.228-.335-1.212.1-2.377.555-3.213.355-.642.869-1.203.997-2.034" fill="#fff"/><path d="M5.401 118.439a26.428 26.428 0 01-.061-1.934h-.017a26.922 26.922 0 01-.373 1.795l-.514 2.09H3.64l-.488-2.055a22.94 22.94 0 01-.365-1.83H2.77c-.017.632-.061 1.37-.087 1.951l-.104 2.029h-.973l.417-5.844H3.23l.47 2.115c.156.738.303 1.388.408 2.048h.025c.087-.652.217-1.31.365-2.048l.468-2.115h1.199l.356 5.844H5.505l-.104-2.046zM8.473 115.126a.578.578 0 01-.6.617c-.312 0-.573-.252-.563-.617-.01-.38.269-.623.581-.623.33 0 .582.242.582.623m-1.137 1.12h1.137v4.24H7.336v-4.24zM11.712 120.416c-.112.052-.4.12-.72.12-1.078 0-1.781-.745-1.781-2.123 0-1.31.773-2.22 1.945-2.22.27 0 .513.06.625.113l-.147.893a1.18 1.18 0 00-.425-.078c-.548 0-.87.52-.87 1.257 0 .763.322 1.231.852 1.231a.948.948 0 00.426-.086l.095.893zM12.25 117.52c0-.417-.018-.875-.034-1.275h.98l.062.616h.034c.181-.451.53-.694.834-.694.12 0 .182.009.242.026v1.118c-.069-.008-.147-.008-.242-.008-.243 0-.565.164-.687.598a1.373 1.373 0 00-.052.425v2.159h-1.138v-2.965zM17.954 118.352c0 1.769-.98 2.203-1.624 2.203-1.015 0-1.624-.798-1.624-2.177 0-1.526.8-2.21 1.642-2.21 1.007 0 1.606.84 1.606 2.184m-2.118 0c0 .729.113 1.335.522 1.335.372 0 .468-.71.468-1.335 0-.581-.096-1.319-.487-1.319-.416 0-.503.738-.503 1.32M18.883 120.485v-3.434h-.574v-.806h.574v-.225c0-.546.346-1.605 1.885-1.605.407 0 .772.07.998.174l-.156.894a2.318 2.318 0 00-.8-.14c-.616 0-.79.356-.79.755v.147h2.11v4.24h-1.136v-3.434h-.974v3.434h-1.137zM23.015 117.52c0-.46-.018-.867-.034-1.275h.981l.062.486h.016c.217-.33.581-.555 1.025-.555.807 0 1.129.641 1.129 1.586v2.723h-1.138v-2.653c0-.356-.086-.702-.416-.702-.191 0-.348.13-.426.38a1.133 1.133 0 00-.062.39v2.585h-1.137v-2.965zM29.943 119.514c0 .338.018.685.062.971h-1.017l-.06-.416h-.026a1.12 1.12 0 01-.939.485c-.642 0-1.118-.537-1.118-1.282 0-1.12.98-1.57 1.943-1.58v-.094c0-.339-.19-.581-.598-.581-.339 0-.609.095-.869.25l-.209-.77c.244-.13.73-.322 1.33-.322 1.294 0 1.501.903 1.501 1.77v1.57zm-1.12-1.092c-.372.008-.902.138-.902.727 0 .416.234.573.407.573a.485.485 0 00.47-.364.652.652 0 00.025-.2v-.736zM30.829 117.52c0-.46-.018-.867-.034-1.275h.98l.061.486h.016c.218-.33.583-.555 1.027-.555.807 0 1.128.641 1.128 1.586v2.723H32.87v-2.653c0-.356-.086-.702-.418-.702-.191 0-.347.13-.425.38a1.104 1.104 0 00-.061.39v2.585h-1.137v-2.965zM37.245 120.416c-.113.052-.4.12-.72.12-1.078 0-1.78-.745-1.78-2.123 0-1.31.772-2.22 1.945-2.22.268 0 .512.06.625.113l-.15.893a1.179 1.179 0 00-.423-.078c-.547 0-.87.52-.87 1.257 0 .763.323 1.231.851 1.231a.94.94 0 00.427-.086l.095.893zM38.738 118.768c.008.66.4.903.895.903.32 0 .598-.07.807-.14l.148.815c-.287.114-.73.191-1.154.191-1.165 0-1.799-.762-1.799-2.09 0-1.43.748-2.28 1.701-2.28.913 0 1.443.72 1.443 2.011 0 .304-.018.47-.035.59h-2.006zm1.008-.797c0-.546-.14-.971-.478-.971-.364 0-.522.546-.53.97h1.008zM43.681 117.943c0-.344.123-.64.368-.885.243-.245.538-.369.883-.369.347 0 .645.123.89.367.245.245.37.54.37.887 0 .348-.125.643-.37.888a1.215 1.215 0 01-.886.366 1.21 1.21 0 01-.887-.366 1.208 1.208 0 01-.368-.888M52.157 120.399c-.167.078-.488.138-.878.138-1.502 0-2.215-1.222-2.215-2.887 0-2.203 1.225-3.06 2.363-3.06.398 0 .677.076.79.155l-.19.954a1.162 1.162 0 00-.53-.113c-.643 0-1.225.555-1.225 2.003 0 1.396.53 1.942 1.225 1.942.19 0 .407-.044.546-.086l.114.954zM55.664 119.514c0 .338.017.685.06.971h-1.017l-.06-.416h-.026a1.118 1.118 0 01-.937.485c-.644 0-1.12-.537-1.12-1.282 0-1.12.98-1.57 1.945-1.58v-.094c0-.339-.192-.581-.6-.581-.34 0-.608.095-.87.25l-.207-.77c.244-.13.73-.322 1.33-.322 1.293 0 1.502.903 1.502 1.77v1.57zm-1.12-1.092c-.374.008-.904.138-.904.727 0 .416.234.573.409.573.19 0 .39-.113.468-.364a.693.693 0 00.027-.2v-.736zM56.54 117.59c0-.512-.019-.937-.035-1.345h.99l.061.485h.017a.98.98 0 01.895-.563c.928 0 1.31 1.015 1.31 2.193 0 1.51-.66 2.194-1.38 2.194a.824.824 0 01-.703-.415h-.019v2.01H56.54v-4.56zm1.136 1.352c0 .138.02.268.062.355.086.26.235.33.365.33.398 0 .547-.59.547-1.258 0-.806-.2-1.24-.539-1.24-.173 0-.338.165-.382.365a.708.708 0 00-.053.303v1.145zM61.654 115.126a.578.578 0 01-.6.617c-.312 0-.573-.252-.564-.617-.009-.38.269-.623.581-.623.331 0 .583.242.583.623m-1.138 1.12h1.138v4.24h-1.138v-4.24zM63.875 115.144v1.101h.834v.807h-.834v1.933c0 .494.21.615.427.615.113 0 .2-.007.303-.026l.01.885a2.717 2.717 0 01-.696.078c-.329 0-.616-.078-.825-.268-.226-.226-.355-.547-.355-1.215v-2.002h-.505v-.807h.505v-.746l1.136-.355zM68.19 119.514c0 .338.02.685.062.971h-1.016l-.062-.416h-.025a1.12 1.12 0 01-.938.485c-.643 0-1.12-.537-1.12-1.282 0-1.12.982-1.57 1.945-1.58v-.094c0-.339-.19-.581-.6-.581-.338 0-.608.095-.868.25l-.209-.77c.244-.13.73-.322 1.33-.322 1.294 0 1.502.903 1.502 1.77v1.57zm-1.12-1.092c-.372.008-.902.138-.902.727 0 .416.234.573.408.573.19 0 .39-.113.468-.364a.693.693 0 00.027-.2v-.736zM69.076 120.486h1.137v-6.001h-1.137v6zM72.688 114.728c.286-.07.703-.113 1.155-.113.738 0 1.25.173 1.623.52.504.45.764 1.223.764 2.36 0 1.178-.304 2.02-.815 2.47-.401.373-.974.564-1.781.564-.364 0-.72-.035-.946-.07v-5.731zm1.137 4.856c.061.016.14.016.199.016.549 0 1.026-.537 1.026-2.15 0-1.196-.312-1.925-.999-1.925-.078 0-.156 0-.226.027v4.032zM77.888 118.768c.009.66.4.903.895.903.321 0 .599-.07.807-.14l.149.815c-.287.114-.73.191-1.156.191-1.164 0-1.798-.762-1.798-2.09 0-1.43.748-2.28 1.703-2.28.911 0 1.441.72 1.441 2.011 0 .304-.017.47-.035.59h-2.006zm1.007-.797c0-.546-.138-.971-.477-.971-.365 0-.521.546-.53.97h1.007zM81.447 116.245l.322 1.899c.06.372.12.755.182 1.179h.018c.052-.433.103-.79.165-1.18l.33-1.898h1.12l-1.138 4.24h-1.041l-1.165-4.24h1.207zM84.946 118.768c.01.66.4.903.895.903.321 0 .599-.07.808-.14l.147.815c-.286.114-.73.191-1.154.191-1.165 0-1.798-.762-1.798-2.09 0-1.43.747-2.28 1.7-2.28.913 0 1.443.72 1.443 2.011 0 .304-.017.47-.035.59h-2.006zm1.009-.797c0-.546-.14-.971-.479-.971-.364 0-.52.546-.53.97h1.009zM87.716 120.486h1.137v-6.001h-1.137v6zM92.856 118.352c0 1.769-.981 2.203-1.624 2.203-1.016 0-1.625-.798-1.625-2.177 0-1.526.8-2.21 1.643-2.21 1.007 0 1.606.84 1.606 2.184m-2.119 0c0 .729.114 1.335.522 1.335.373 0 .468-.71.468-1.335 0-.581-.095-1.319-.486-1.319-.417 0-.504.738-.504 1.32M93.576 117.59c0-.512-.018-.937-.035-1.345h.99l.062.485h.016a.98.98 0 01.895-.563c.929 0 1.311 1.015 1.311 2.193 0 1.51-.66 2.194-1.381 2.194a.824.824 0 01-.703-.415h-.018v2.01h-1.137v-4.56zm1.137 1.352c0 .138.018.268.06.355.087.26.236.33.366.33.399 0 .547-.59.547-1.258 0-.806-.2-1.24-.538-1.24-.174 0-.34.165-.383.365a.708.708 0 00-.052.303v1.145zM97.544 117.52c0-.46-.02-.867-.035-1.275h.99l.06.486h.017c.218-.313.574-.564 1.008-.564.478 0 .782.216.928.581h.019c.104-.165.268-.32.434-.425.174-.105.372-.156.59-.156.764 0 1.104.606 1.104 1.621v2.697h-1.138v-2.505c0-.478-.052-.868-.391-.868-.2 0-.356.139-.426.381-.025.07-.035.183-.035.304v2.688h-1.137v-2.662c0-.312-.027-.71-.382-.71-.174 0-.348.12-.426.38-.025.078-.044.2-.044.322v2.67h-1.136v-2.965zM104.498 118.768c.009.66.399.903.894.903.322 0 .599-.07.807-.14l.148.815c-.286.114-.729.191-1.154.191-1.164 0-1.799-.762-1.799-2.09 0-1.43.748-2.28 1.703-2.28.912 0 1.441.72 1.441 2.011 0 .304-.017.47-.035.59h-2.005zm1.008-.797c0-.546-.14-.971-.478-.971-.365 0-.521.546-.53.97h1.008zM107.267 117.52c0-.46-.018-.867-.034-1.275h.981l.06.486h.018c.217-.33.58-.555 1.025-.555.807 0 1.128.641 1.128 1.586v2.723h-1.137v-2.653c0-.356-.088-.702-.418-.702-.19 0-.347.13-.425.38a1.104 1.104 0 00-.06.39v2.585h-1.138v-2.965zM112.667 115.144v1.101h.834v.807h-.834v1.933c0 .494.209.615.426.615.113 0 .199-.007.304-.026l.009.885c-.157.044-.4.078-.695.078-.33 0-.617-.078-.825-.268-.227-.226-.357-.547-.357-1.215v-2.002h-.503v-.807h.503v-.746l1.138-.355z" fill="#2c3792"/></svg>