<svg id="Layer_1" data-name="Layer 1" xmlns="http://www.w3.org/2000/svg" viewBox="0 0 63.68 131.65"><defs><style>.cls-1{fill:#010101;}</style></defs><title>1</title><path class="cls-1" d="M180.83,120.2c-1.72-1.6-5.18-4.41-5.75-4.87a5.78,5.78,0,0,0-8.6,1.23l-.09.13A56.43,56.43,0,0,1,148,132.31l-.57.29L147,133a6.28,6.28,0,0,0-.79,1h-3.91l4.25,6.12q5.61,8.07,10.31,7.77a8.1,8.1,0,0,0,3.7-1.4c-6.37,23.33-19,67.56-22.94,81.08-3.66.53-7.52.73-10,.85l-1.7.1-.4,0a5.76,5.76,0,0,0-4.62,4l-.13.47c-.42,2.1.3,3.61,2,7.25l.17.34a7.77,7.77,0,0,0,7.19,5,7.12,7.12,0,0,0,.83-.05c6.76-.53,32.76-2.8,38.83-4.09a5.52,5.52,0,0,0,3.91-2.69,5.4,5.4,0,0,0-.1-4.68c-1.39-3.53-4.87-6.81-6-7.78-2.12-1.81-3.29-2-5.86-2l-.93.08c-1,.11-2.32.26-4.27.45,4.59-16.64,12.95-45.81,19.15-67.46,5.71-19.92,8-27.95,8.35-29.39a6.92,6.92,0,0,0-3.23-7.8" transform="translate(-120.62 -113.94)"/></svg>