<svg xmlns="http://www.w3.org/2000/svg" viewBox="0 0 63.7 131.7">
  <title>
    1
  </title>
  <path d="M60.2 6.3c-1.7-1.6-5.2-4.4-5.7-5a5.8 5.8 0 00-8.6 1.3l-.1.2a56.4 56.4 0 01-18.4 15.6l-.6.3-.4.4a6.3 6.3 0 00-.8 1h-4l4.3 6q5.6 8.2 10.3 7.9a8.1 8.1 0 003.7-1.4c-6.3 23.3-19 67.5-22.9 81-3.7.6-7.5.8-10 .9H4.9a5.8 5.8 0 00-4.6 4l-.2.6c-.4 2 .3 3.6 2 7.2l.2.3a7.8 7.8 0 007.2 5 7.1 7.1 0 00.8 0c6.8-.5 32.8-2.8 38.9-4.1a5.5 5.5 0 003.9-2.7 5.4 5.4 0 00-.1-4.7 23.3 23.3 0 00-6-7.7c-2.1-1.9-3.3-2-5.9-2h-1l-4.2.5C40.5 94.2 49 65 55.1 43.4L63.4 14a7 7 0 00-3.2-7.8" fill="#010101"/>
</svg>
