<svg xmlns="http://www.w3.org/2000/svg" viewBox="0 0 120 135.3">
  <title>
    10
  </title>
  <path d="M48.3 115.5c-2.2-1.9-3.4-2-6-2h-1l-4.4.5c4.7-17 13.3-47 19.6-69.2 5.9-20.5 8.3-28.7 8.6-30.2a7.1 7.1 0 00-3.3-8l-6-5A6 6 0 0047 2.9V3a57.9 57.9 0 01-19 16l-.5.3-.5.5a5.6 5.6 0 00-.8 1h-4l4.4 6.2c3.8 5.6 7.3 8.2 10.6 8a8.2 8.2 0 003.8-1.4 6719 6719 0 01-23.6 83.2c-3.8.6-7.7.8-10.3 1H5A6 6 0 00.2 122v.5c-.5 2.1.2 3.7 2 7.4l.1.3a8 8 0 007.4 5.1 7.3 7.3 0 00.9 0c7-.5 33.6-2.8 39.9-4.2a5.7 5.7 0 004-2.7 5.6 5.6 0 00-.1-4.8c-1.5-3.6-5-7-6.2-8"/>
  <path d="M107.8 3.1l-.3-.3-.4-.2a6 6 0 00-7.1 1.1C95.5.4 91.9-.7 89.2.4 83.8 2.6 73.7 23 67.3 40.6 60.3 60 53 89 57 117.8v.8l.5.7c.6 1 6.1 10.1 14.6 12.2a11.7 11.7 0 003 .4c12.7 0 25.2-21.7 39-67.7 8-26.6 9.8-46.2-6.3-61m-13 57.3c-7 23.7-14.3 41.5-20.1 49.5.8-35 9.3-64.8 24.2-85.3 2.6 8 1.3 18-4.1 35.8"/>
</svg>
