<svg id="Layer_1" data-name="Layer 1" xmlns="http://www.w3.org/2000/svg" viewBox="0 0 120.03 135.3"><title>10</title><path d="M206.48,235.55c-2.18-1.86-3.38-2-6-2l-1,.08c-1,.11-2.38.27-4.39.47,4.71-17.09,13.3-47,19.67-69.27,5.86-20.45,8.22-28.69,8.57-30.17a7.11,7.11,0,0,0-3.32-8c-1.77-1.65-5.32-4.53-5.9-5a6,6,0,0,0-8.84,1.26l-.09.14a57.9,57.9,0,0,1-18.91,16l-.58.29-.46.46a5.63,5.63,0,0,0-.8,1h-4l4.36,6.28c3.84,5.52,7.36,8.2,10.59,8a8.2,8.2,0,0,0,3.8-1.44c-6.55,24-19.48,69.37-23.55,83.25-3.76.54-7.73.74-10.28.88l-1.74.09-.41.05a5.94,5.94,0,0,0-4.75,4.12l-.12.48c-.43,2.15.3,3.7,2.07,7.43l.17.35a8,8,0,0,0,7.38,5.1,7.34,7.34,0,0,0,.85,0c6.95-.54,33.64-2.88,39.88-4.2a5.66,5.66,0,0,0,4-2.76,5.58,5.58,0,0,0-.1-4.81c-1.43-3.62-5-7-6.12-8" transform="translate(-158.22 -120.06)"/><path d="M266,123.19l-.33-.31-.4-.23a6.08,6.08,0,0,0-7.08,1.11c-4.48-3.27-8.1-4.38-10.78-3.31-5.39,2.23-15.53,22.59-21.84,40.17-7,19.42-14.41,48.58-10.37,77.27l.11.78.39.68c.6,1,6.12,10.12,14.63,12.25a11.74,11.74,0,0,0,3,.4c12.68,0,25.16-21.73,39-67.69,8-26.69,9.77-46.23-6.32-61.12m-13,57.4c-7,23.65-14.29,41.45-20.12,49.42.8-34.88,9.3-64.74,24.19-85.21,2.62,7.95,1.33,17.93-4.07,35.79" transform="translate(-158.22 -120.06)"/></svg>