<svg id="Layer_1" data-name="Layer 1" xmlns="http://www.w3.org/2000/svg" viewBox="0 0 112.2 135.17"><title>11</title><path d="M318.09,139.66c-1.77-1.65-5.32-4.53-5.91-5a5.94,5.94,0,0,0-8.83,1.27l-.1.13a57.82,57.82,0,0,1-18.9,16l-.58.29-.46.46a5.78,5.78,0,0,0-.81,1h-4l4.36,6.28c3.84,5.52,7.36,8.2,10.59,8a8.17,8.17,0,0,0,3.79-1.44c-6.54,23.95-19.47,69.37-23.55,83.25-3.76.54-7.72.74-10.27.87l-1.74.1-.41,0a5.21,5.21,0,0,0-1,.25,31.57,31.57,0,0,0-2.57-2.57c-2.18-1.87-3.38-2-6-2l-1,.08c-1,.11-2.38.27-4.39.47,4.71-17.09,13.3-47,19.67-69.27,5.86-20.45,8.22-28.69,8.57-30.17a7.12,7.12,0,0,0-3.31-8c-1.77-1.65-5.32-4.53-5.91-5a5.95,5.95,0,0,0-8.84,1.27l-.09.13a57.89,57.89,0,0,1-18.91,16l-.58.29-.46.46a5.72,5.72,0,0,0-.8,1h-4l4.37,6.28c3.83,5.52,7.36,8.2,10.58,8a8.16,8.16,0,0,0,3.8-1.44C243.88,190.6,231,236,226.87,249.9c-3.76.54-7.72.74-10.27.87l-1.74.1-.41,0A5.92,5.92,0,0,0,209.7,255l-.13.49c-.43,2.15.3,3.7,2.07,7.43l.17.35a8,8,0,0,0,7.38,5.1,7.52,7.52,0,0,0,.86,0c6.68-.52,31.68-2.71,39.09-4.05a7.87,7.87,0,0,0,6.87,4.1,7.48,7.48,0,0,0,.85,0c6.94-.54,33.64-2.88,39.87-4.2a5.64,5.64,0,0,0,4-2.76,5.54,5.54,0,0,0-.1-4.81c-1.42-3.62-5-7-6.12-8-2.17-1.87-3.37-2-6-2l-1,.08c-1,.11-2.38.27-4.38.47,4.7-17.09,13.29-47,19.66-69.27,5.87-20.45,8.22-28.69,8.58-30.17a7.12,7.12,0,0,0-3.32-8" transform="translate(-209.45 -133.23)"/></svg>