<svg xmlns="http://www.w3.org/2000/svg" viewBox="0 0 112.2 135.2">
  <title>
    11
  </title>
  <path d="M108.6 6.4c-1.7-1.6-5.3-4.5-5.9-5A6 6 0 0094 2.7l-.1.1a57.8 57.8 0 01-18.9 16l-.6.3-.4.5a5.8 5.8 0 00-.8 1h-4l4.3 6.3c3.9 5.5 7.4 8.2 10.6 8a8.2 8.2 0 003.8-1.5c-6.5 24-19.5 69.4-23.6 83.3-3.7.5-7.7.7-10.2.8l-1.8.1h-.4a5.2 5.2 0 00-1 .3 31.6 31.6 0 00-2.5-2.6c-2.2-1.8-3.4-2-6-2l-1 .1-4.4.5c4.7-17.1 13.3-47 19.6-69.3 5.9-20.4 8.3-28.7 8.6-30.2a7.1 7.1 0 00-3.3-8l-6-5A6 6 0 0047 2.7v.1a57.9 57.9 0 01-19 16l-.5.3-.5.5a5.7 5.7 0 00-.8 1h-4l4.4 6.3c3.8 5.5 7.3 8.2 10.6 8a8.2 8.2 0 003.8-1.5 5708 5708 0 01-23.6 83.3c-3.7.5-7.7.7-10.3.8l-1.7.1H5a6 6 0 00-4.8 4.2v.5c-.5 2.1.2 3.7 2 7.4l.2.3a8 8 0 007.3 5.1 7.5 7.5 0 00.9 0c6.7-.5 31.7-2.7 39-4a7.9 7.9 0 007 4 7.5 7.5 0 00.8 0c7-.5 33.6-2.8 39.9-4.1a5.6 5.6 0 004-2.8 5.5 5.5 0 00-.1-4.8c-1.4-3.6-5-7-6.1-8-2.2-1.9-3.4-2-6-2l-1 .1-4.4.5c4.7-17.1 13.3-47 19.6-69.3 6-20.5 8.3-28.7 8.6-30.2a7.1 7.1 0 00-3.3-8"/>
</svg>
