<svg id="Layer_1" data-name="Layer 1" xmlns="http://www.w3.org/2000/svg" viewBox="0 0 131.17 135.17"><title>12</title><path d="M320,182.91c15.19-25,6.41-38.09,2-42.53-7.86-8.11-20.27-8.56-32.38-1.18-10,6.07-19.32,16.19-22.94,22.63l-.09.17c-2.65,5.31-.74,7.69,2.05,10.25l3.45,3.77a6.11,6.11,0,0,0,4.7,2.44h.09a5.9,5.9,0,0,0,4.9-3l.07-.11c1.75-2.92,15.72-20,23.11-23.59,3.84-1.92,5.09-1.45,5.1-1.45l0,.05c1.17,2.37.22,9.29-6.27,21.11-12.09,20.85-26.54,42.44-45.49,68-2.74,3.71-7.38,10.48-7.59,14.17a13.54,13.54,0,0,0,0,1.45,28.39,28.39,0,0,0-5.06-5.87c-2.17-1.86-3.37-2-6-2l-1,.08c-1,.12-2.37.27-4.38.47,4.71-17.08,13.29-47,19.67-69.27,5.86-20.45,8.22-28.69,8.57-30.17a7.12,7.12,0,0,0-3.32-8c-1.77-1.65-5.32-4.53-5.9-5a6,6,0,0,0-8.84,1.26l-.09.14a57.78,57.78,0,0,1-18.91,16l-.58.29-.46.46a6,6,0,0,0-.8,1h-4l4.36,6.28c3.84,5.53,7.38,8.21,10.59,8a8.13,8.13,0,0,0,3.79-1.44c-6.54,24-19.47,69.37-23.54,83.25-3.76.54-7.73.75-10.28.88l-1.74.09-.41.05a5.94,5.94,0,0,0-4.75,4.12l-.12.48c-.43,2.15.3,3.7,2.07,7.44l.17.35a8,8,0,0,0,7.38,5.09,7.34,7.34,0,0,0,.85-.05c6.95-.54,33.64-2.88,39.87-4.2a5.67,5.67,0,0,0,4-2.76l.08-.2c.86,2.33,2.28,4.43,4.54,5.3v0c3.43,1.15,17.19,1.8,28.69,1.8a120.44,120.44,0,0,0,15.11-.66c4.16-.56,6.75-2.2,7.71-4.87,1.45-4.07-1.9-7.77-3.14-9.09a26.17,26.17,0,0,0-4.23-4.17c-1.25-.92-5-3.65-9.39-.48-.82.46-2.49,1.23-6.69,1.52h-.16a53.25,53.25,0,0,1-9.85,0c4-6.37,13.3-20.07,21.08-31.55,10.07-14.85,20.49-30.21,24.37-36.7" transform="translate(-197.4 -133.81)"/></svg>