<svg xmlns="http://www.w3.org/2000/svg" viewBox="0 0 131.2 135.2">
  <title>
    12
  </title>
  <path d="M122.6 49.1c15.2-25 6.4-38 2-42.5-7.9-8.1-20.3-8.6-32.4-1.2-10 6-19.3 16.2-23 22.6v.2c-2.7 5.3-.8 7.7 2 10.2l3.5 3.8a6.1 6.1 0 004.7 2.4 5.9 5.9 0 005-3c1.8-3 15.8-20 23.2-23.7 3.8-1.9 5-1.4 5-1.4 1.2 2.4.3 9.3-6.2 21.2a720.7 720.7 0 01-45.5 68c-2.7 3.7-7.4 10.4-7.6 14.1a13.5 13.5 0 000 1.5 28.4 28.4 0 00-5-5.9c-2.2-1.9-3.4-2-6-2h-1l-4.4.6c4.7-17.1 13.3-47 19.6-69.3 5.9-20.5 8.3-28.7 8.6-30.2a7.1 7.1 0 00-3.3-8l-6-5a6 6 0 00-8.7 1.3l-.1.1a57.8 57.8 0 01-19 16l-.5.3-.5.5a6 6 0 00-.8 1h-4l4.4 6.2c3.8 5.6 7.3 8.3 10.6 8a8.1 8.1 0 003.7-1.4c-6.5 24-19.4 69.4-23.5 83.3-3.8.5-7.7.7-10.3.8l-1.7.1H5A6 6 0 00.2 122v.5c-.5 2.1.2 3.7 2 7.4l.1.4a8 8 0 007.4 5 7.3 7.3 0 00.9 0c7-.5 33.6-2.9 39.8-4.2a5.7 5.7 0 004-2.8l.1-.1c.9 2.3 2.3 4.4 4.6 5.3 3.4 1.1 17.2 1.8 28.7 1.8a120.4 120.4 0 0015-.7c4.2-.6 6.8-2.2 7.8-4.9 1.4-4-2-7.7-3.2-9a26.2 26.2 0 00-4.2-4.2c-1.2-1-5-3.7-9.4-.5-.8.4-2.5 1.2-6.7 1.5H87a53.3 53.3 0 01-9.9 0c4-6.4 13.3-20 21.1-31.5 10-14.9 20.5-30.3 24.4-36.7"/>
</svg>
