<svg xmlns="http://www.w3.org/2000/svg" viewBox="0 0 77.9 134.9">
  <title>
    2
  </title>
  <path d="M69.3 49c15.2-25 6.4-38.2 2-42.6C63.5-1.6 51-2 39 5.2A73 73 0 0016 28v.2c-2.7 5.3-.8 7.6 2 10.2l3.4 3.8a5.7 5.7 0 009.7-.6c1.8-3 15.8-20.1 23.2-23.7 3.8-1.9 5-1.4 5-1.4 1.3 2.4.3 9.3-6.2 21.1a721.6 721.6 0 01-45.5 68C4.8 109.2.1 116 0 119.7c-.1 2.8.6 11.4 5.8 13.5a161 161 0 0028.7 1.7 122.7 122.7 0 0015.1-.6c4.2-.6 6.8-2.2 7.7-4.9 1.5-4-1.9-7.7-3.1-9a25.8 25.8 0 00-4.2-4.2c-1.3-1-5-3.7-9.4-.5-.9.4-2.5 1.2-6.7 1.5h-.2a54.1 54.1 0 01-9.8 0c4-6.4 13.3-20 21-31.6C55 70.8 65.3 55.4 69.2 49"/>
</svg>
