<svg xmlns="http://www.w3.org/2000/svg" viewBox="0 0 70.48 134.52">
    <path d="M46.54 63.89c5.35-6.92 13.82-18.28 19-27.11 4.63-7.87 6.1-16 4.14-22.79A20.17 20.17 0 0 0 59.45 1.6c-11.71-6-31.21 5.85-42.59 20.24-.93 1.13-5 6.43-2.92 11.39 1.38 3.34 3.78 8 8.65 9.6a5.57 5.57 0 0 0 5.35-.5c2.23-1.59 2.23-4.21 2.22-5.36.09-.29.15-.56.2-.8.25-1.17 1-4.73 9.91-12.14 6.53-5.37 11.77-7 13.81-7a23 23 0 0 1-1.42 5c-5 12.51-23.95 34.18-34.33 42.69l-.37.35c-.78.82-4.54 5.13-2.77 9.45.34.84 3.58 8.68 7.75 9.73h.11c2 .44 3.62-.15 5.91-1 1.66-.59 3.93-1.4 7.46-2.31 11.91-3.15 13.45 1.32 14 3 1.74 5-.22 10.37-2.18 13.94-4.31 7.86-12.86 15-19.86 16.73-8.21 1.87-10.58-2.31-12.15-5.08a13.34 13.34 0 0 0-.73-1.21l-.3-.31c-3.15-3.54-6.59-2-8.93-.15l-.42.33c-3.42 2.51-6.66 6.83-5.64 11.52a14.77 14.77 0 0 0 2.21 5l.12.17c4.78 6.45 11.38 9.69 19.69 9.69a44.14 44.14 0 0 0 12.86-2.15 48.25 48.25 0 0 0 28.47-25.13c5.67-12.5 5.53-25.05-.37-33.56-3.7-5.34-9.46-8.7-16.63-9.8"/>
</svg>
