<svg xmlns="http://www.w3.org/2000/svg" viewBox="0 0 70.5 134.5">
  <title>
    3
  </title>
  <path d="M46.5 63.9c5.4-7 13.9-18.3 19-27.1 4.7-7.9 6.1-16 4.2-22.8A20.2 20.2 0 0059.4 1.6C47.8-4.4 28.3 7.4 17 21.8c-1 1.2-5 6.5-3 11.4 1.4 3.4 3.8 8 8.7 9.6a5.6 5.6 0 005.3-.5c2.3-1.6 2.3-4.2 2.3-5.3l.2-.8c.2-1.2 1-4.8 9.9-12.2 6.5-5.3 11.7-7 13.8-7a23 23 0 01-1.4 5c-5 12.5-24 34.2-34.4 42.7l-.3.4c-.8.8-4.6 5.1-2.8 9.4.3.9 3.6 8.7 7.7 9.7h.1c2 .5 3.7-.1 6-1 1.6-.5 3.9-1.4 7.4-2.3 12-3.1 13.5 1.4 14 3 1.8 5-.2 10.4-2.2 14a36.1 36.1 0 01-19.8 16.7c-8.2 1.9-10.6-2.3-12.2-5a13.3 13.3 0 00-.7-1.3l-.3-.3c-3.2-3.5-6.6-2-9-.1l-.4.3c-3.4 2.5-6.6 6.8-5.6 11.5a14.8 14.8 0 002.2 5l.1.2a23.2 23.2 0 0019.7 9.7 44.1 44.1 0 0012.9-2.2 48.3 48.3 0 0028.5-25.1c5.6-12.5 5.5-25-.4-33.6A24 24 0 0046.6 64"/>
</svg>
