<svg data-name="Layer 1" xmlns="http://www.w3.org/2000/svg" viewBox="0 0 75.28 138.05">
    <path d="M74.25 6.82l-.06-.15c-.94-2.2-2.7-6.3-6.53-6.65-2.35-.22-4.44 1-6.17 3.62l-.46.65a48.87 48.87 0 0 1-4.22 5.56l-.08.08c-10.05 11.6-27.15 34.28-40.89 52.5-5.52 7.34-10.28 13.64-13.73 18.09-4.16 5.12-1.29 9.08.81 12l.3.41c3.75 5.25 6.87 4.8 10.55 3.66l1.19-.36a175.56 175.56 0 0 1 21.32-4.16l-.6 2.3c-2.56 9.77-5.2 19.87-6.76 27.54l-.07.47a2.62 2.62 0 0 1-.18.75 6.32 6.32 0 0 0 .67 5.84l.72 1.44.41.43c1.81 1.92 6.84 7.24 11.37 7.24a5.11 5.11 0 0 0 2-.39c1-.41 3.28-1.78 3.24-5.57.1-1 .87-5.23 1.43-8.35.76-4.23 1.25-7 1.39-8.18a764.74 764.74 0 0 1 19.77-80.65c.94-3 1.54-6.45-1-9.52a4 4 0 0 0-.62-.69c.93-1.07 1.78-2 2.15-2.43 4.85-4.29 6.25-9.63 4-15.45m-26.61 42.6c-2.05 7.82-4.42 16.85-6.76 25.59a95.89 95.89 0 0 0-15.57 2.49c6.17-7.48 14.21-17.51 22.33-28.08"/>
</svg>
