<svg xmlns="http://www.w3.org/2000/svg" viewBox="0 0 75.3 138.1">
  <title>
    4
  </title>
  <path d="M74.3 6.8l-.1-.1c-1-2.2-2.7-6.3-6.5-6.7-2.4-.2-4.5 1-6.2 3.6l-.5.7a48.9 48.9 0 01-4.2 5.5v.1c-10.1 11.6-27.2 34.3-41 52.5-5.5 7.4-10.2 13.7-13.7 18.1-4.2 5.1-1.3 9.1.8 12l.3.4c3.8 5.3 6.9 4.8 10.6 3.7l1.2-.4a175.6 175.6 0 0121.3-4.1l-.6 2.3c-2.6 9.7-5.2 19.8-6.8 27.5v.5a2.6 2.6 0 01-.2.7 6.3 6.3 0 00.6 5.9l.8 1.4.4.4c1.8 2 6.8 7.3 11.3 7.3a5.1 5.1 0 002-.4c1-.4 3.3-1.8 3.3-5.6 0-1 .8-5.2 1.4-8.3.8-4.3 1.3-7 1.4-8.2a764.7 764.7 0 0119.8-80.7c1-3 1.5-6.4-1-9.5a4 4 0 00-.7-.7l2.2-2.4c4.8-4.3 6.3-9.6 4-15.4M47.6 49.5L40.8 75a95.9 95.9 0 00-15.5 2.5c6.1-7.4 14.2-17.5 22.3-28"/>
</svg>
