<svg xmlns="http://www.w3.org/2000/svg" viewBox="0 0 78.2 133.2">
  <title>
    5
  </title>
  <path d="M75.8 6.7l-.2-.2C72.1 2.3 68.8 0 65.8 0a19.8 19.8 0 00-3.6.4c-5.8.8-21.4 3-34.7.7A6.2 6.2 0 0020.8 5a6.6 6.6 0 00.4 6c-5 16-14.9 48.4-13.6 54.9.9 4.3 2.7 7.3 5.3 9a10.6 10.6 0 008.5 1c8.5-2 14.6-3 17.1 1 3 4.4 1.8 19.2-4 29.5-1.7 3.1-5.4 8.3-10.3 8.1a7.7 7.7 0 01-5.2-2.2 6.7 6.7 0 01-1.4-5.2c1.1-10.4 1.2-14.2-2.1-15.9-1.9-1-4-.6-6 1.1v.1a34.9 34.9 0 00-6.3 9.1 24.3 24.3 0 00-3.2 11 22.5 22.5 0 0022.7 20.8h1.1c11.1-.3 21.7-8 28.4-20.6 6.7-12.9 9.6-32.2.5-46.4-3-4.6-10.1-11.5-25.7-9.2l3-8.9c2.7-8.5 6.2-19.1 7.4-24a12 12 0 00.3-1.2c2.9-.2 8-.6 18-1.9 17.7-2.1 19.1-2.6 20-3.3a5.5 5.5 0 002.3-3.5c.6-2.7-.9-5.6-2.2-7.5"/>
</svg>
