<svg id="Layer_1" data-name="Layer 1" xmlns="http://www.w3.org/2000/svg" viewBox="0 0 78.2 133.22"><title>5</title><path d="M217.15,127.09l-.18-.23c-3.48-4.17-6.78-6.34-9.81-6.46a19.75,19.75,0,0,0-3.57.35c-5.87.81-21.44,3-34.76.78a6.15,6.15,0,0,0-6.63,3.77,6.63,6.63,0,0,0,.4,6.08c-5,15.87-14.9,48.27-13.61,54.78.85,4.28,2.64,7.31,5.29,9a10.64,10.64,0,0,0,8.51,1.1c8.44-2,14.61-3.08,17.12.85,3,4.51,1.77,19.32-4,29.53-1.77,3.15-5.44,8.36-10.3,8.18a7.72,7.72,0,0,1-5.22-2.27A6.71,6.71,0,0,1,159,227.4c1.06-10.38,1.13-14.17-2.14-15.91-1.89-1-3.91-.62-6,1.13l-.09.07c-2.81,2.48-5.49,7.6-6.24,9.11-1.6,3.19-3.43,7.68-3.17,11a22.46,22.46,0,0,0,22.75,20.78c.36,0,.72,0,1.09,0,11.08-.34,21.66-8.05,28.32-20.62,6.79-12.84,9.61-32.14.56-46.36-3-4.59-10.16-11.49-25.67-9.18.64-2.07,1.74-5.42,2.88-8.92,2.79-8.53,6.25-19.13,7.51-24a12,12,0,0,0,.28-1.23c2.84-.16,8.06-.63,17.9-1.84,17.76-2.18,19.18-2.69,20.05-3.31a5.51,5.51,0,0,0,2.37-3.51c.58-2.75-.92-5.6-2.28-7.5" transform="translate(-141.36 -120.39)"/></svg>