<svg id="Layer_1" data-name="Layer 1" xmlns="http://www.w3.org/2000/svg" viewBox="0 0 62.35 133.74"><title>6</title><path d="M249.31,127.33c-2.16-3.09-4.36-5.1-6.72-6.15a7.53,7.53,0,0,0-8.08.56C211.59,138.63,198,167.07,193,188.08a180,180,0,0,0-4.27,27.63c-.95,14.57.95,25.14,5.65,31.42A16.73,16.73,0,0,0,207.26,254q.56,0,1.11,0c18.58,0,30.33-24.88,34-38.34,3.12-11.82,2.07-20.92-3.12-27-4.84-5.71-13-8.33-24.36-7.82,5.09-13.88,13.4-29.39,32.59-43.29l.15-.12c2.5-2,4.83-5.35,1.68-10.08m-25.7,70.73c2.64,2.88.18,11.71-.62,14.62l0,.08c-2,7.77-7.49,19.62-13,23.5-1.65-2.69-4.72-11.82,1.46-39.2l.15,0c6.14-1.12,10.41-.75,12,1" transform="translate(-188.48 -120.26)"/></svg>