<svg id="Layer_1" data-name="Layer 1" xmlns="http://www.w3.org/2000/svg" viewBox="0 0 64.79 134.76"><title>7</title><path d="M217.91,129l-.06-.08c-3.18-3.77-8-8.78-13.47-8.78h-.22c-3.76.21-24.35,3.73-35.67,6.38h0c-1.12.26-4.09,1-5.45,3.58s-.26,5.27.14,6.28l.09.21c1.9,4.07,4.64,8.82,9,9.44l2.72,0,.36-.07c2.2-.4,5.26-1.12,8.81-2,4.71-1.11,11.16-2.63,15.48-3.27-4.83,12.41-24.25,58.2-35.17,79.4-.88,1.63-8.34,15.71-8.55,24.87a4.5,4.5,0,0,0-.11,2.22c.57,2.9,3.29,4.68,10,6.48a7.7,7.7,0,0,0,3.94,1.16,6,6,0,0,0,2.38-.48c2.61-1.11,4.14-3.78,4.54-7.94.69-7.24,2.26-12,7.32-22.11,5.12-10.4,33-73.06,35.92-83.8a12.52,12.52,0,0,0-2-11.58" transform="translate(-155.7 -120.1)"/></svg>