<svg id="Layer_1" data-name="Layer 1" xmlns="http://www.w3.org/2000/svg" viewBox="0 0 72.39 138.35"><title>8</title><path d="M234.84,126.91a19.44,19.44,0,0,0-16-8.14c-17.34-.71-30.69,10.89-34.71,30.36-2.08,11.32.11,19.9,5.9,34.05l-1.47,2.18c-4.64,6.88-13.27,19.68-17.74,32.63-1.19,3.5-6.78,21.52-.07,31.95a15.59,15.59,0,0,0,12.07,7h0c.86.07,1.71.11,2.55.11a23.85,23.85,0,0,0,18.82-9c11.54-13.82,12.7-40.11,9.17-55.2,1.54-2,3.37-4.25,5.28-6.56,7.1-8.55,15.93-19.2,19.85-32.93,2.31-7.51,2.08-18.6-3.65-26.45M202.9,150.24c1.19-6.29,5.62-13.45,14.23-13.45l.81,0c3.35.21,3.85,1.51,4.06,2.07.47,1.21,1.45,6.16-5.46,18.78a109.09,109.09,0,0,1-10.72,15.94c-2.15-5.73-4.67-15.12-2.92-23.36m-12.41,85.41c-1.81,2.45-3.45,3.2-4.57,3.42-.53-1.64-.93-5.57.29-11.44,1.44-6.73,4.93-14.43,10.41-23,.92,10.45-1.13,24.19-6.13,31" transform="translate(-167.48 -118.74)"/></svg>