<svg xmlns="http://www.w3.org/2000/svg" viewBox="0 0 72.4 138.3">
  <title>
    8
  </title>
  <path d="M67.4 8.2a19.4 19.4 0 00-16-8.2C34-.7 20.7 11 16.7 30.4c-2.1 11.3 0 19.9 5.9 34L21 66.6A149.7 149.7 0 003.3 99.3c-1.1 3.5-6.7 21.5 0 31.9a15.6 15.6 0 0012 7l2.6.1a23.9 23.9 0 0018.8-9c11.6-13.8 12.7-40.1 9.2-55.2 1.5-2 3.4-4.2 5.3-6.5a92 92 0 0019.8-33c2.3-7.5 2-18.6-3.6-26.4m-32 23.3C36.6 25.2 41 18 49.7 18h.8c3.3.3 3.8 1.6 4 2.1.5 1.2 1.5 6.2-5.4 18.8a109 109 0 01-10.8 16 44.8 44.8 0 01-2.9-23.4M23 116.9c-1.8 2.4-3.4 3.2-4.6 3.4-.5-1.6-.9-5.6.3-11.4 1.5-6.8 5-14.5 10.4-23 1 10.4-1 24.2-6 31"/>
</svg>
