<svg xmlns="http://www.w3.org/2000/svg" viewBox="0 0 68.31 134.85"><title>9</title><path d="M253.75,139.7a8.05,8.05,0,0,0-2.81-5.9,4.88,4.88,0,0,0,.48-2.26c-.09-3.1-3.38-7.81-6.16-9.8l-.1-.07a7.59,7.59,0,0,0-7-1.21,29.78,29.78,0,0,0-6.3,2.94c-21.07,12.66-40.8,45.41-40.61,67.43,0,14.28,7.84,18,12.53,19,6.57,1.33,13.5-3.2,19.29-9.06-1.74,5.3-3.71,10.57-5.76,15.3-6.48,15-11.5,19.67-13.56,20.12-.19-.11-1.07-.77-2.28-3.78-.07-.18-.14-.49-.22-.79a5.74,5.74,0,0,0-3.06-4.37,5.51,5.51,0,0,0-5.08.47c-4.93,2.77-9.21,8.31-6.94,14a20.76,20.76,0,0,0,19.3,13.22c5,0,9.87-2.59,14.56-7.69,20.06-21.8,35.12-89.55,33.74-107.52m-45.31,51.07c2.46-20.7,14.52-38.43,26.38-47.11a66.7,66.7,0,0,1-2.16,12.44c-3.94,12-14,28-24.22,34.67" transform="translate(-185.53 -120.07)"/></svg>
