<svg xmlns="http://www.w3.org/2000/svg" viewBox="0 0 68.3 134.8">
  <title>
    9
  </title>
  <path d="M68.2 19.6a8 8 0 00-2.8-5.9 4.9 4.9 0 00.5-2.2c-.1-3.1-3.4-7.8-6.2-9.8v-.1a7.6 7.6 0 00-7-1.2 29.8 29.8 0 00-6.4 3C25.3 16 5.5 48.6 5.7 70.7c0 14.2 7.9 18 12.6 19 6.5 1.3 13.5-3.2 19.2-9.1-1.7 5.3-3.7 10.6-5.7 15.3-6.5 15-11.5 19.7-13.6 20.1-.2 0-1-.7-2.3-3.8l-.2-.7a5.7 5.7 0 00-3-4.4 5.5 5.5 0 00-5.1.4c-5 2.8-9.2 8.4-7 14A20.8 20.8 0 0020 135c5 0 10-2.6 14.6-7.7 20-21.8 35.1-89.6 33.7-107.5M23 70.7a71.3 71.3 0 0126.4-47A66.7 66.7 0 0147.2 36c-4 12-14 28-24.3 34.6"/>
</svg>
