<svg xmlns="http://www.w3.org/2000/svg" viewBox="0 0 329.9 23.3"><path d="M329.6 17.3l.3-5.6-.6.2a23.7 23.7 0 01-3.7 1 158.2 158.2 0 00-6.2 1.1c1 0 1.8-.3 2.6-.5 1.2-.3 2-.6 2.5-.6-2.2.4-2.9.6-.8 0l-4.5 1c-1.3.3-2.4.4-2.8.4-.4.3-2 .4-4.6.8.6.1-.4.3 0 .4-3.5.6-7.9 1-8.3 1.2s4.3-.5 2.8-.2c-8 1-12.6 1.5-22.3.7.8.2-2.4-.2-2.8-.1l5.4.4h4c2.2.1-1.6.3 1.8.3l2-.2a13 13 0 002.1 0l3.4-.2c-1 .2 1.5 0 1.9 0l-4.7.4 4.7-.2-3.7.4-2 .1h-1.8c1 0 1-.2 1.9-.2-3.3 0-3.2 0-1.9-.1h-2.8l-2.8-.1a61 61 0 00-1.9.1l-3.6-.3-4.8-.4c-2-.3.8 0-.9-.3-4.3-.5-5.3-.7-8.4-1.2l-2.8-.3c2.5.2-1.7-.4-3.6-1a88.7 88.7 0 00.8 0c-12.4-2.3-26.7-5.6-38.9-8.1-2.5-.4 5.8 1.2 1 .5 4.3.9 8.8 1.7 9.2 2L216.1 5l7.5 1.2c-4.7-.8-3.6-1-8.4-1.6 2.5.5-2.9-.3-4.8-.6-2.5-.2-3.3-.1-6.7-.5 0-.1.6-.3-2.8-.4-.8 0 3.2.3 1 .3a121.2 121.2 0 00-19.2.2 397 397 0 00-19 2l6.6-.8c2-.4.7-.5-2-.2l-3.8.9c-3.6.4 1-.3-1 0a21.5 21.5 0 00-3.7.8c-7 1-12.6 2-18.7 2.8-.7 0 3.2-.6 4.6-.9l1-.3-5 .6a135.5 135.5 0 00-6.3.9c-1 .5 5.6-.7 6.6-.7a35.7 35.7 0 01-4.6.9 16.9 16.9 0 00-3.5.2l-2.8.2-2.2.1h1l-3.8.4 1.9-.3a162.2 162.2 0 01-31.6-.8c-2.8-.4-10.2-1.9-12-2l-4.5-1c-1.1 0-12.4-2.7-16.7-3.6 1.8.5 4.3 1 4.6 1.2l3.7.8c-2.9-.5 3 .7 2.8.8-2.4-.5-3.8-1-5.6-1.2 1.1.3.6.2 0 0 2.7.8 5.7 1.3 9.2 2a139.5 139.5 0 002.8.6c-.3 0 1.4.4 0 .1-.3-.2-4.3-1-5.5-1.3 8 1.5 12.6 2.7 19.4 3.9l-2.8-.4a133.6 133.6 0 0014.8 1.8l-5.5-.7c-3.5-.5-1.5 0-4.7-.4L91 8.9l4.6.7a10.3 10.3 0 001.8.3l4 .6 4.5.5a17.3 17.3 0 012.7.4h4.6l1 .1h-5.6 11.9l2.4-.1 4.3-.3h-2.8c3.6-.2 7.8-.7 5.6-.3 9.1-.8 19.6-2.6 25.3-3.3l-12.8 2a250 250 0 01-11.4 1.4c-1.1 0-2.8.2-4.3.4a30.5 30.5 0 01-3.3 0c-2.6.3-4.8.3-6.6.4s-3 0-3.6.1h9.3c-2.4.1-.6 0-.9.2 3.9-.2 2.9-.4 3.7-.5 1.3 0 2.5-.2 3.8-.3-.5.2.8.1 2.8 0 2.3-.5-2 .1-1.9-.1 5.5-.5 11.2-1.3 15-1.7-3.1.5-7.4 1-9.3 1.4l6.6-.8a13.5 13.5 0 01-2.8.6l3.7-.5c.1-.1.5-.4-1.9 0 2.2-.4 7.3-1 8.4-1.1l-5.6.8 4.7-.6c-3 .5 3-.4 1 .1l-4.7.7s1.2-.2 1-.3a113 113 0 01-13.1 2c3.8-.6 9.2-1 8.4-1.1l-5.6.6-4.1.5a59 59 0 01-3.5.3c.9-.1 4.2-.5 2-.3-.6-.1-1.5.2-3 .3 1-.3-1.4-.2-2.7 0 2.2-.1 2.2 0 0 .2l-4.4.3H117l2.9-.2-4.4.1s-1.1.1.6.1h-4.7c-.1 0 .1-.1-1.9-.2h-1.9l5.7.4c-5.8.3-12.6-.6-19.8-1.4.7 0-.5-.3-1.9-.5L88 10c1.4.2.9 0 1 0-3.5-.6-2.6-.7-5.5-1.3V9l4.6 1c.2.1-.3.1-2-.2l-3.6-.9c.5.3-2-.2-4.7-.7 0-.2 1.6.2 0-.2C70 6.4 63.4 4.6 58.3 3.8c-1.9-.6-5.6-1.4-10.2-2.3.8.3-5.6-.8-2.9-.2 5.4.7 2.5.7 3.7 1 3.6.5 10.3 2 8.4 1.5a10 10 0 01-1.4-.3L53.6 3a6.8 6.8 0 011.9.2c.8.4 6 1.4 7.4 1.8-5.7-1.2-1.2 0-6.6-1.1 1.3.3 6.5 1.3 6.5 1.5l-3.7-.8c-2.2-.5-6.5-1.5-10.2-2a319.7 319.7 0 00-8.2-1.3 118 118 0 00-20-1.4h-3A28.5 28.5 0 0014 0c-.8 0 1.3-.2 1-.3l-3 .4-1.6.2-2.2.6A109.8 109.8 0 0123.7.1a105.8 105.8 0 0114.8 1.3L34.7 1c3.8.4 8.8 1.2 13 1.9a78.7 78.7 0 018.4 1.7c5.2 1 6.5 1.5 10.2 2.2-1.5-.2.1.1 0 .2a22.7 22.7 0 00-3.7-.7c-5.1-1-5.6-1.5-6.5-1.4a25.2 25.2 0 01-2.7-.7l1.8.3c-3-.7-4.5-1-5.8-1.1L45 2.7a219.3 219.3 0 00-18.8-2h-2a15.7 15.7 0 00-1.8 0 136.6 136.6 0 0116 1.2 2.9 2.9 0 001 .3c-3.3-.4-5.5-.8-11.3-1h.8l2.9.3 1.7.2 1.6.1 2.3.4-3.6-.4-1.2-.1s1.2 0 3 .4c3.9.4 10.3 1.5 14 2.2s7.5 1.5 8.2 1.8c.4.2-5.7-1.2-6.5-1.2 3.9.8 6.5 1.3 9.2 2-.5 0-1-.2-.9 0-3.1-.8-8.8-2-13.8-3s-9.2-1.3-9.3-1.5c-3-.4-4.4-.4-6.6-.6 0-.4-7.6-.3-8.4-.4a16.4 16.4 0 01-1.9 0 37.6 37.6 0 004.2.1 13.6 13.6 0 013.3.2 108.5 108.5 0 00-16.5.5A77.8 77.8 0 000 4v.4l5.4-1.2a78.6 78.6 0 0119.8-.9c3.7.2.3-.2 2.8 0 2.7.3 1.8 0 5.6.4-2-.1-1.7 0-.4.2l6 .7a5.3 5.3 0 00-1.8-.4l-2.8-.4c5 .4 8.6 1.3 15.7 2.6l.9.2a13.5 13.5 0 00-2.8-.4l9.2 1.9c-1.9-.5-4.4-1-2.7-.8l-6.5-1.4c9.7 1.7 21.2 4.6 32.5 7s22.6 3.9 31.3 3.9a2.7 2.7 0 001 0c.8-.2 3.7 0 9.6-.4a24.1 24.1 0 004.5-.1l6-.7h1l-6.7.8a30.7 30.7 0 01-3.8.2l-1.5.2-3.3.2c-2.6 0 2.5 0 2-.2l-4.9.1c.4.1-.4.2-1.6.2l-4.2-.1a8.6 8.6 0 00-1.6.1 9.4 9.4 0 002.6.2c2.3 0-1.9-.2 2-.1-1 .1-1.3.1 1 .2-3.5 0-.1.3 1 .4-.2 0 8-.2 3.8-.2a37.2 37.2 0 01-4.8 0c7.2-.2 9-.4 14.4-.7-1 .2-5.7.5-6.7.6h2l-3 .3-2.6.2c-1.5 0-2.8.2-4 .3l-4 .2h-5l3.9.2a27.5 27.5 0 003 0 121 121 0 0016.5-.3c-.2-.1.8 0 2.9-.3 1.2-.2-3.1.3-2 0l3.9-.3-1 .2c2.4-.2 6.3-.7 6.8-.6l10.4-1.6c-2.4.4-4.5.6-5.7.7l2.8-.5 2.8-.3c2-.6 4.7-.7 4.7-1l14-2c-3.9.2-11 1.5-13 1.8a149.5 149.5 0 0110.2-1.8l-.1-.4-5.6.8c2.8-.5-.4-.1-1 0l9.3-1.5h1l-3.8.6 3.8-.5a9.3 9.3 0 01-2.8.5c1.1.1 2.7-.1 0 .5a91.9 91.9 0 0111.2-1.1l3.7-.4a46.7 46.7 0 004.6-.4l-6.8.5c-1.6 0-2.8 0-4.3.2l3.7-.5a42.6 42.6 0 014.6-.4l-3.7.4c2 .1 8.3-.6 10.2-.3a17 17 0 00-2.7.1c6.4 0 3.3-.4 10-.4.3 0-2 0-1.8-.2h-6.4l2.9-.1L195 9h-3.7 6.5-1.8l4.2.3a37.4 37.4 0 014 .2c-3.4-.2 3.7.5 3.7.7 1.7 0 4.4.5 6.8.8a46.6 46.6 0 015.1 1c1.1 0 4.5.8 6.5 1-1.4-.3-4.8-.9-4.6-1a168 168 0 01-1.2-.4l-5.8-.9-4-.5a45 45 0 00-6.4-1 9.9 9.9 0 011.8 0c-4.3-.3-.7-.1-3.7-.4a10.3 10.3 0 012.8.1c-1.5 0 .1 0 0 .2l4.2.3c1.5.2 3 .3 4.1.6a30.3 30.3 0 01-4.6-.5c1 .2 2.6.5.9.4l4.6.5c-2-.5 7 1 8.3 1.1l-1.8-.4c8 1.5 12 2 18.5 3.3 1.4.4 3 .9.9.5 2.6.6 5 1.1 4.7.9-1.4-.4-2.3-.4-2.8-.7 1.5.3-1-.4 1.9.2 8.7 2 13.6 3 20.5 4.3l-8.5-1.4c1.7.5 5 .9 5.6 1.2l-4.7-.9 4.8 1a54.7 54.7 0 005.6 1c1 0-3.2-.5-3.8-.8.3 0 6.5 1 7.7 1l-2.9-.4c.2 0-.3-.3 1 0a25.1 25.1 0 013.8.6 8 8 0 01-2.2-.1l9.9 1-5.8-.6a11.5 11.5 0 00-1.9-.4c1.7 0 4.3.5 6.6.7l5 .6c2.3.1 4 .2 4.8.1l-3-.1h6.8c1.9 0 .1 0 0 .2h2.5l2.4-.1c-1-.1.6-.3-2-.1l2-.3h2.8c-3.2.2 0 0-1.9.3l3-.3 2.8-.3-2.7.5a24.3 24.3 0 01-3 .1c-1 .2-1 .2 0 .3l-3 .2H289.6c1.6 0-2-.2-5.8-.4V22l-3-.1c-1.4-.1-3.4-.1-5.7-.4 2 .3 3.3.3 6.7.6l2.9.4a2.9 2.9 0 011 .3 30.8 30.8 0 004.9 0h4.9c-3.4.2 2.4.1 1 .4h-4c2.6.4 11.6-.5 14.7-.8l1.3-.2 3.5-.6c1.2-.3-3.1.5-2 .2l4.9-.8c-.6.2.7 0 2.6-.4l6-1.2c.7-.3.7-.3-1 0 .4-.1 3.2-.7 5.5-1.4l1.7-.4c-1 .1-1.7.3-2.4.5l-3.1.5 4.7-1.1c-.2.2 0 0 .8-.2m-204-6.3c-1.4 0-2.7.1-3.2 0 3-.2 3 0 6.5-.4-2.6.3 1 0 1 .1l-4.2.3m-30.5 1l5.6.7a41.2 41.2 0 01-5.7-.5zm-2.8-.4c-.6 0-1.2-.1 0 0h-1l-1.8-.4-1-.3 3.8.7M81.3 9.3A63 63 0 0174 7.6l7.4 1.7m-6.4-1.6c-2-.2-2.8-.6-7.4-1.6l7.4 1.6m-7.5-1.3c-.1-.2-3.1-.8-3.7-1l4.7 1c-.7 0 .9.4.8.5l-5.5-1.2a22 22 0 013.7.7m-5.7-.7c-1-.5 7 1.2 5.6 1.2zm-2 .6A200 200 0 0043 3c1.7.1 4.4.6 0-.2 2.2.3 7 1.3 9.3 1.8a58.3 58.3 0 016.3 1.2L68.9 8c-1.8-.3-7.6-1.6-9.3-1.8M67 8.1c-.8 0-5.7-1.2-4.6-1 3 .5 2.8.6 4.6 1m-5.6-1c1.4 0 9.6 2 9.2 2.1L61.4 7M72 8c3.1.7 5.2 1.2 4.6 1.2-1.1-.3-6-1.3-4.6-1.2m2.6 1.3c3 .6 2 .6 5.5 1.3-.5 0-7.5-1.5-5.5-1.3m4-.1c-3-.7 1.6.2 2.7.5.5 0-3.3-.8-2.7-.8 3.8.9 6.5 1.3 10.2 2 .1.2-.8 0-2.9-.3 1.7.4 4.3.9 1.9.6l7.4 1.3a40.3 40.3 0 01-5.6-1c-2.8-.4 1 .4 0 .3-3.4-.6-2.9-.7-5.5-1.3l2.8.5c-3.3-.6-4-1-8.4-1.8m2.6 1.6l1.9.3c2.4.4 2.8.7 5.6 1.1-1.8-.1-4.5-.8-7.5-1.4m28.7 4l-2.6-.2c-1.7 0-3.4-.2-5.3-.4l-5.8-.7c-2-.2-4.2-.6-6.6-1l3 .4.8.1 4.5.6 2.7.3 2.8.3c3.8.4 7.4.5 9 .6zm182.7 3.7c1-.2 2.7-.1 4.4-.2l4-.4h1.8s-.2.2 1 0a10.8 10.8 0 00-1.8.4l3.6-.3c1.3-.1 2.8-.3 4.8-.7a19.1 19.1 0 01-4.2.7 69.2 69.2 0 01-8 .7 66.2 66.2 0 01-7.5.3c0-.2 0-.3-1.9-.6a26.2 26.2 0 003.7 0zm-3.8-.5h2l.4.1c0 .1-.3.2.4.2a9 9 0 01-1.7 0l-3-.1a14.3 14.3 0 012-.2m-6.8 1.3l-6.6-.7c1.7.2 2.7.2 2.5.1a36.4 36.4 0 00-4.3-.7c-.3-.1.4-.1 2.8.2a8.7 8.7 0 00-1 0 21 21 0 003.8.5c-1 0-1.5 0 2.8.4-1.5 0 .1 0 0 .2m-4.8.2a95.4 95.4 0 010-.1c.2.1-1.6 0 0 .1m-8.1-3c2.6.5 5.7.8 8.4 1.1 1.2.3-2 0-3.8-.3a26.3 26.3 0 002.8.4c1.4.2 2.6.3 1.9.3-3-.3-6-.8-5.7-.6l-4.6-.7c.6 0-.6-.3-1.9-.6s.4.1 0 .2a38.3 38.3 0 01-6.4-1.6c5.7 1.2 8.2 1.4 9.3 1.8m-20.2-4.8c2.4.3 4 1 1.8.6l-14-3c-1.9-.4 1 0-1.8-.6 2.5.4 15 3.4 14 3m5.4 1.6l-3.7-.7c-.7-.4 4.5.7 3.7.7M241 12a260.6 260.6 0 017.4 1.7v-.2c-3.8-.8-3.3-.5-7.5-1.5m-25-4.7c-1 0-2.6 0-1 .2l-3.9-.4c-1.8-.4-.5-.3.1-.5 4.2.5 7.5 1.1 14 2.2l-3.7-.5c2.6.5.4.3 3.6.9-3.7-.5-1.7-.5-5.5-1h1c-.9-.3-1.8-.4-4.7-.9m-14-2h1.8l2.2.3 4.8.6a55.2 55.2 0 017.1 1.2l-4.2-.7a30 30 0 00-3.3-.3l-6.9-.9-4-.2-2.3-.1H194c2.5-.3 9 .4 7.6 0m-10.4-.3c2.9 0 6.2 0 5.7.1l-5.7-.1m26.4 2.3l3.8.6v.1c-3-.4-2.3-.4-3.8-.7m11 3c-1 0 3 .7 4.7 1-2-.2-5.5-1.1-10.3-2l5.6 1m-1.7-1s2.6.3 1.9.3l1 .1 3.7.8a26.7 26.7 0 00-2.8-.7l1.9.3c3 .6 2 .6 5.5 1.2a14.5 14.5 0 01-1.9-.3l7.4 1.7a10 10 0 01-1.8-.4c-1.1-.2-.8 0-1 0l-5.5-1.2c-3-1-4.1-.8-8.4-1.8m15 2.2a64 64 0 01-6.5-1.3c.6.1 1.2.2 0 0a73.9 73.9 0 018.4 1.8l-1.9-.5m-17.6-3.9c2.1.4 1.4 0 3 .2l5.5 1.2c3.3.7.1 0 1 0 1.4.1 4.7 1 7.4 1.5a32.2 32.2 0 01-4.6-1c-.8 0 2.7 1 4.5 1.6-1.7-.5-4.1-.9-3.7-1-2.3-.6-4.8-.9-4.6-1-2.8-.6.9.2 0 .1l-4.4-.8-5.9-1c0-.1-2.5-.5-1.8-.5l-3.8-.5a59 59 0 017.5 1.3m1.8.5c2.8.5-.9 0 0 .1l-3.8-.7-3.5-.6c-2.3-.4-4.6-.8-7.6-1.1-2.2-.3-3.1-.2-4.8-.3l-2.7-.3-3.2-.3-3.5-.2h-3.9c-1.1-.1 0-.2 2.9-.2.7-.2-2-.1-2.9-.2a25.7 25.7 0 013.1 0l4.6.2c.3.1-.2.2-1 .2 1.2 0 2.7 0 3.7.2s1.6.2 1 .2a156 156 0 0121.7 3m-16.4-3.6l4.2.5c-.8 0-1.2 0-1 .1-3.5-.5-7-.8-7.5-1zM183.5 4l2.9-.3-2.9.4c-.8 0-3.5.1-2.8.2-2 .2-3 .2-2.9 0a49.3 49.3 0 015.7-.4m9.6.2c.6.1-3.4 0-1 .2 1.7 0 2.2-.1 2-.2 3.6 0 4.6.2 8.5.3-2.7 0-1.6.1 1.1.3l5.1.5 6.1.8a43.4 43.4 0 01-4.6-.5 38.9 38.9 0 00-4.8-.4l-6.2-.6-3.8-.2h-5.3c-2.3-.2-9.1.3-16.2 1.1a145.8 145.8 0 0119-1.3M178 6c-2.1.2 1.2 0 0 .2l-2.8.3c-2.8.2-.5-.2 2.7-.6l2.6-.2 2.6-.2a24.2 24.2 0 013.4 0 47.2 47.2 0 00-5.7.5c-1.7.1-.1 0 0-.2l-2.8.2m1-.3a53.4 53.4 0 015.6-.3l-3.7.2a10 10 0 01-2 .1m5.7-1c3-.3 3.3-.2 6.6-.4-1 .2-6.4.4-6.6.3m-31.3 2.9c5.2-.7 15.3-2.3 18.8-2.5-4.8.5-16.5 2.4-18.8 2.5m9.5-.8l3.7-.5a14.3 14.3 0 01-2.8.6l1-.3-2 .2m-1.8 0c-1.3.2-.8 0-1 0l5.6-.8-4.7.8m-9.3 2c4-.6 7.4-1 9.4-1.5a57 57 0 015.7-.6 31.8 31.8 0 003.7-1c5.2-.5 1.8.3 9.5-.6l-2 .3c.2.1 3.3-.3 5.8-.4l-2.2.2-5.4.6 3-.2a30.5 30.5 0 003.7-.4c5-.3-2.5.4-1 .3-7 .6-12.8 1.2-22.6 2.6l-2.8.2 4.7-.7c-1 0-2.8.4-5.7.8 1-.3-5.7 1-3.7.4m7.6 0l4.7-.8c-.8.2-1.4.4-3.7.7h-1m-39.5 4l2.8-.1c-1.8.2.3 0 1 0 1.4 0-.4 0 0 0l6.6-.4c-1.7.3-4.3.4-8.5.7-.8 0-2.6 0-1.9-.2m0 .6c3.5-.3-2.8-.1 0-.3l4.7-.1a37.8 37.8 0 01-6.5.6 23.4 23.4 0 00-3.8-.2h5.6m-5.6 1.6l7.3-.3 4.1-.2 3.8-.3a148.2 148.2 0 01-15.2.8m17-1.7c-3 .3-4.2.1 1.9-.5-1.8.4-4 .6-1.9.5m-3.8-.1c-1.1.2 3-.3 2 0a19.8 19.8 0 01-4.8 0c1.7 0 3.2-.2 4.7-.3l3.8-.4a14.1 14.1 0 002.8-.5l3.7-.5c-.6.3-4.3.7-1.8.6-3.9.5-6.4.8-10.4 1m15.2-1a37.2 37.2 0 01-6.7.6l6.7-.7m-11 4.7c.4-.2 6.5-.7 8.5-1-3.2.6-5.7.6-8.5 1m10-3.9c-.1 0 1.7-.3 0-.1l2.9-.5c-.3.2.2.1 1.9-.1a38.7 38.7 0 01-4.7.7m23.3-4a7.4 7.4 0 01-1.8.2 6.1 6.1 0 00-1.9.4l-3.7.5 2.8-.5c-1.1 0-6 1-6.6.8 1.6-.3 4.6-.8 3.7-.5 3.4-.7-2.6.1-2-.2-4 .7-3.5.7-7.4 1.2a61.3 61.3 0 006.6-.9 64.5 64.5 0 01-8.3 1.5l-5.3.6a10.3 10.3 0 01-2.4.1c3-.4 3.3-.3 6.6-.9 1.5-.3-3.5.4-1 0l6.6-.9c1.3-.2 0 0-1 0l5.6-.8a77 77 0 007.6-.9c2-.3-1.2.1.9-.3 3.4-.4.6.1 1 .2 2.3-.3 2.2-.4 3.7-.7a22.8 22.8 0 00-3.6.4c-.7 0 3-.5 1.8-.6l4.7-.6c-2.3.4-2.9.6-1.8.6l1.7-.3c.3 0 1-.1 0 0h1.1c1.2-.1 8.2-.9 5.6-.5l6.6-.7-1.9.1a22.8 22.8 0 013.8-.3l-1.9.3c2.4-.2 2.1-.3 5.7-.4 1.1 0 1 .1 1 .2a13.8 13.8 0 002.8-.2h3.8c3 .3-1.2.1-1.9.2l2.8.2a28.7 28.7 0 014.8.1c-1.8 0 1.3.2-2 .1l4.8.4-3.4-.2-5.1-.2c.7-.1-1.6-.2-1-.3h-3.7c-.5.2 4.7 0 3.8.3h-2c-1.6.1-2.5-.3-6.5 0 1.8-.2 4.5-.4 1.9-.5l-12.3 1c1-.2-2.3.1-1.9 0-1.4 0-4.8.6-4.7.5-4.1.6-7.1 1.2-9.3 1.6-.2.1 5.6-.7 2.8-.2m45-1.3a5.2 5.2 0 00-1.8-.2l-3.7-.3a13.5 13.5 0 01-2-.3 66.5 66.5 0 017.6.8M194 7a16.3 16.3 0 01-2.8-.1l-3.8.2h-1.9l4.5-.3h4c-1.6 0 0 0 0 .2m-17 .2a9.7 9.7 0 012.6-.5l6-.4c-.8.2-5.5.6-8.5.9m2.9.4c-.7.2 0 .3 7.5-.2l1.8-.1h-2.7l-3.8.3a23.9 23.9 0 013.6-.4L194 7c-3.2.3 4 .2 4.7.5-7-.2-10.4 0-14 .2-1.8.2-4.7.3-6.6.6-3.5.3-5.4.5-5.6.3l7.5-1m-11.4.3c-1.6.2-.6 0 1-.2 1-.1.7-.2.8-.2 2.5-.3 3.1-.3 2.9-.2a42.1 42.1 0 00-4.7.6m4 1.3a7 7 0 01.9-.3c.2-.2 4.2-.4 3.7-.4 2.8-.3-.9.1 0 .1l-4.6.6m3 .8a34.1 34.1 0 014.6-.3 41.7 41.7 0 01-4.7.3m4.6-.6c-1.1 0-2.4 0-4.6.2a15.3 15.3 0 012.7-.4c.2.1-1 .2-.9.3l3.1-.4C181.6 9 183 9 184 9c1 .1-3 .3-3.7.5m2.8-1.1l3.2-.3 3.3-.1c2 0-4 .3-1 .3l-6.5.3c.9-.1 3.3-.1 4.7-.3-.3-.1-4.4.3-3.7 0m7.4.8c-3 .2-.7-.1-3.7 0-.2-.1 2-.4 4.7-.3-2.7.2-3.4.2-1 .3m3.7-1.3l-5.7.1c-2.2 0-4.4.2-6.4.3l2.5-.2 1.7-.1 2.3-.1c1.1 0 .4 0 0 0l4.7-.1 6.5.1c-.2.2 3.5.4 3.7.6-3.4-.3-6.8-.6-9.3-.6M210 9c-4.4-.5-6.6-1-4.6-1l4.1.6c1 .2 1.2.4.5.4m4.7 0c-.4.2-3.6-.4-2.8-.4-1 0-1.9-.2-2.8-.3 1 0 4 .5 5.6.7-.6 0-1.2 0 0 0M219 11a16.7 16.7 0 01-3.6-1l2.8.5c-.7 0 1.5.4.8.5m27.2 3.7c1.7.4-.6 0 0 .2-1.4-.4-5-1-4.7-.9l-1.9-.5c-2-.4-.4 0-1 0l5.6 1.2c.6 0-2.6-.7 1 0-2.3-.2 0 .5-3.9-.2 2.5.7 2.2.3 4.7.9-.4 0 .6.3.9.3 1.4.3-.8-.1.9.3-.8 0-6-1.3-5.6-1-4.8-1.1 3.5.5-3.7-1 1.8.3-1-.4 1 0-.8-.2-7.2-1.5-6.4-1.6 4.2 1-1-.3-1-.4-.4 0-1.7 0 1 .7-1.4-.2-6.5-1.5-6.5-1.2-2.7-.6-3-.5-6.5-1 .1-.3 2.5.2 5.6.7l-6.4-1.7c5 .8 4.5 1 7.4 1.6a21.4 21.4 0 00-2.8-.8c.7 0 1.7.3 2.8.5-1.4-.4-4-.8-7.4-1.4a25.6 25.6 0 012.8.4c-.7-.3-2.8-.4-4.6-.8 1.2.4-1.3.2-5.7-.4.7 0 3.6.4 3.8.3a46.7 46.7 0 00-6.6-.6 43.3 43.3 0 01-5.5-.7c2 .3 4.1.4 5.6.5l-3.5-.5a31.3 31.3 0 00-4-.4h2.6a20.5 20.5 0 00-2.6-.2 51.3 51.3 0 016.6.5c-.2.1.2.2 1.8.5a119 119 0 0113 1.9c1.6.3 4.6.7 2.9.3 2.2.3 2.6.8 4.5 1.2 1.7.3 5.4 1.2 5.6 1.1 1.5.4.5.2-1-.1l1 .3c3.4.7 2.3.2 7.4 1.5.8-.1-5.6-1.3-5.5-1.5 5.7 1.4 8.3 1.9 13.9 3l-5.6-1m2.6 1.4c-3.1-.7-4.8-1.2-2.7-.9a10.6 10.6 0 012.7.9m10.4 1.3c-.8 0-3-.5-4.7-.8.7 0-2.5-.6-1.8-.6l4.7.9-1-.3c-1.6-.2-2-.3-1.8-.4l1.8.4c3 .6 3 .5 4.7 1l-4.7-.8 2.8.6m1-.3c-1.4-.3-3.6-.7-2.8-.7l3.8.7h-1m-2.7-1.4c1.9.2 3.7.7 5.6 1a55.3 55.3 0 01-5.6-1m3 0l-2.9-.5c1 .4 3.7.9 3.7 1a41.9 41.9 0 01-4.7-1l2 .4-5.6-1.3 3.7.7a6.4 6.4 0 00-1.8-.5c-2.3-.2-5-1-7.5-1.3l-1-.3c3.4.6-.6-.3-1.7-.7 3.2.6 5.2 1 7.4 1.6 1.2 0-3-.7-1.8-.7l-3.7-.8c2.5.3-1.4-.5-1.8-.7 3.4.7 7 1.6 10.2 2.1 0 .4 4.5 1.3 4.5 1.6l-3.6-1-2.9-.4 7.4 1.7 2.8.5c0-.2-3-.5-2.7-.6l3.7.5a21 21 0 012.8.7l4.5.7 3 .3 2.7.4 3.9.3h-1l-5.4-.5c-1.6-.2-3.3-.3-5.9-.8 1.7 0-.3 0-2.8-.6-.5.1 1.7.5.9.5l4.7.7c.7.2-.8.2 2.8.7a62.3 62.3 0 01-6.6-.8 11.8 11.8 0 00-3-.8l-4.4-1.1m21.6 5c-1.8 0-3.2-.2-2.1-.2l-2.9-.2a6 6 0 002 .3 72.7 72.7 0 01-7.7-1l-4.7-.7c-3-.5.9 0 2.8.4-.2-.2-.3-.2 2.9.2-1.7-.4-2.7-.7 1-.4a3.6 3.6 0 001 .3l1.6.3 3 .3c-2.2-.2 2 .4-1 .2 1.4 0 2.5.2 3.7.3l1.9.2 2.1.2a17.7 17.7 0 01-3.6-.1m3.6-.1c-.8-.1-1-.2-1-.3 2.6 0 1.9.3 3 .2 2.3.1 0 .2-2 0m-2.8-.8c2.4.1 3.5.1 6.6.4-1.2 0-7.3-.3-6.6-.4m14.6-.2l-1.4.1h-1.8c2.7 0 2.5-.2 4.7-.3l-1.5.2m-3.2-.3c2.2 0 1.1.1-1 .2h-3.4l-3.2-.2h2a28 28 0 00-2.8-.2h-2.1l-1.8-.2 1-.1 4.8.3a44.9 44.9 0 006.6 0 17 17 0 002.2.1l2.9-.2 3-.2 2.3-.2-3 .4-2.6.1a40 40 0 01-4.7.1m5.7.5l2.3-.2 3-.4 3.2-.4 2.8-.4c-3.5.6 1.2 0 3.8-.4l-1.9.4c-1.3.2.1 0 0 0l-4.3.6-3.1.3-5.8.5m6 2.3l-3.1.3-2.7.2 2-.2c1.8-.1 4.1-.5 5.7-.7l-2 .4m1.3-2.5l-5.3.6 4-.5 2.6-.3 2.9-.5a33.6 33.6 0 01-4.2.7m4.5 1.7h-1l3.7-.6 4-.7a55.8 55.8 0 01-6.7 1.3m7.7-5.7l5.6-1.4c.9 0-3.6 1-5.6 1.4m-1-.2c4.2-1 5-1 7.5-1.5-1.6.3-7.5 1.8-7.5 1.5"/></svg>
