<svg xmlns="http://www.w3.org/2000/svg" viewBox="0 0 27.6 29.9">
  <defs>
    <clipPath id="star_little" transform="translate(-166.4 -165.5)">
      <path d="M174.3 167.7l4.2 12.1c-2.9-.6-5.7-1.2-8.7-1.6-1-.1-3.4 2.3-2 2.4a90.8 90.8 0 019.9 2 93.7 93.7 0 00-8.5 4c-.7.3-1.5 1-1.3 2s1.3.6 1.8.3c3-1.4 5.9-2.8 8.9-4a126 126 0 00-4.2 9.8c-.3.7.7.4 1 .3a3.5 3.5 0 001.8-1.6c1-2.7 2-5.3 3.2-7.9l2.9 8.2c.6 1.7 3.6 0 3.1-1.5l-2.7-7.9 5.9 2.1c1 .5 3.5-1.9 2.5-2.3-2.1-.9-4.2-1.6-6.3-2.3l6.4-2.3c.7-.3 1.6-1 1.7-1.8s-.8-1.1-1.5-.9c-3.2 1.1-6.4 2.3-9.5 3.6a120 120 0 016.1-10.7c.4-.6.1-1-.5-.7a3.9 3.9 0 00-2 1.4l-4.8 8.1-4.2-12.3a1 1 0 00-1-.7c-1.1 0-2.5 1.1-2.1 2.2" fill="none"/>
    </clipPath>
  </defs>
  <g clip-path="url(#star_little)">
    <path d="M0 0h27.6v29.9H0z"/>
  </g>
</svg>
