<svg xmlns="http://www.w3.org/2000/svg" version="1.1" viewBox="0 0 500 162.82">
  <defs>
    <linearGradient id="b" spreadMethod="pad" gradientTransform="scale(89.728 -89.728) rotate(-20.22 .97 -.46)" gradientUnits="userSpaceOnUse" y2="0" x2="1" y1="0" x1="0">
      <stop offset="0" stop-opacity="1" stop-color="#222357"/>
      <stop offset="1" stop-opacity="1" stop-color="#254aa5"/>
    </linearGradient>
    <clipPath id="a" clipPathUnits="userSpaceOnUse">
      <path d="M413.74 90.44c-.05-4.5 4-7 7.07-8.5 3.14-1.53 4.2-2.5 4.19-3.88-.03-2.1-2.51-3.01-4.84-3.05-4.05-.06-6.41 1.1-8.29 1.97l-1.46-6.84c1.88-.86 5.37-1.62 8.98-1.65 8.48 0 14.02 4.18 14.05 10.67.04 8.24-11.39 8.7-11.31 12.37.03 1.12 1.1 2.31 3.43 2.61 1.15.16 4.34.27 7.95-1.4l1.42 6.62c-1.94.71-4.44 1.39-7.55 1.39-7.98 0-13.6-4.24-13.64-10.32m34.83 9.75c-1.55 0-2.85-.9-3.44-2.29l-12.1-28.92h8.47l1.68 4.66h10.35l.98-4.66h7.47l-6.52 31.2h-6.9m1.2-8.42l2.44-11.72h-6.7l4.25 11.72m-46.28 8.43l-6.68-31.2h8.07l6.68 31.2h-8.07m-11.94 0l-8.4-21.24-3.4 18.06a3.76 3.76 0 01-3.73 3.18h-13.74l-.19-.9c2.82-.62 6.03-1.6 7.97-2.66 1.19-.65 1.52-1.21 1.91-2.74l6.44-24.9h8.53l13.08 31.2h-8.47"/>
    </clipPath>
  </defs>
  <g clip-path="url(#a)" transform="matrix(4.98469 0 0 -4.98469 -1803.82 503.2)">
    <path d="M0 0l98.44 36.25 22.4-60.8-98.45-36.26" fill="url(#b)" fill-opacity="1" fill-rule="nonzero" transform="translate(351.61 96.9)"/>
  </g>
</svg>
