<svg fill="none" xmlns="http://www.w3.org/2000/svg" viewBox="0 0 48 48"><circle cx="24.02" cy="23.94" fill="#EAF6F0" r="19.98"/><path d="M31.889 31.676H16.172a1.571 1.571 0 0 1-1.572-1.571V19.118c0-.868.703-1.571 1.572-1.571h15.717c.868 0 1.572.703 1.572 1.571v10.99a1.57 1.57 0 0 1-1.572 1.568Z" fill="#EAF6F0" stroke="#505050" stroke-width="1.5" stroke-miterlimit="10" stroke-linecap="round" stroke-linejoin="round"/><path d="M33.46 22.254H14.6M28.745 19.896V16.36M19.315 19.896V16.36" stroke="#505050" stroke-width="1.5" stroke-miterlimit="10" stroke-linecap="round" stroke-linejoin="round"/><path d="M24.03 28.737a1.768 1.768 0 1 0 0-3.536 1.768 1.768 0 0 0 0 3.536Z" fill="#2AA967"/></svg>