<svg fill="none" xmlns="http://www.w3.org/2000/svg" viewBox="0 0 16 25"><path d="M4.342 11.99c0-.34-.006-.68.115-1-.16 0-.457.18-.562.3-.08.092-.216.163-.311.245a2.373 2.373 0 0 0-.23.228c-.124.14-.261.308-.404.425-.148.12-.237.276-.357.42-.151.18-.311.354-.457.539-.423.532-.796 1.23-.909 1.91-.054.326-.143.638-.183.967-.017.148-.07.342-.03.492.06.22.156.44.248.65.136.31.235.676.437.95.118.162.186.36.3.527.097.146.178.3.257.456.142.287.35.54.46.844.057.159.124.324.149.493.019.125.087.238.096.363.01.15.036.307.059.455.022.151.028.295.07.445.067.244.274.475.412.682.076.114.183.268.306.328.092.045.193.085.28.139.112.068.284-.063.364-.145.145-.148.216-.398.28-.59.06-.172.155-.344.275-.482a4 4 0 0 1 .61-.54c.114-.085.19-.259.276-.373.126-.17.233-.375.3-.575.09-.27-.027-.304-.197-.468-.181-.174-.346-.318-.494-.526-.136-.191-.301-.363-.425-.562-.101-.16-.188-.31-.322-.445-.186-.186-.423-.312-.64-.456-.357-.237-.65-.68-.899-1.034-.186-.263-.337-.574-.248-.902.057-.209.196-.35.316-.525.181-.266.38-.508.54-.787.297-.513.654-1.074.654-1.686.002-.275-.136-.5-.136-.763ZM8.542 10.318c-.129-.16-.4-.315-.6-.363-.341 0-.662-.07-1-.07-.205 0-.457.014-.655.07-.225.064-.465.06-.69.14-.172.063-.311.227-.38.394-.034.08-.072.242.011.298.112.073.197.186.277.294.129.174.11.416.212.602.065.117.101.23.22.31.076.05.18.14.271.14.496 0 .952-.16 1.43-.274.405-.1 1.205-.173 1.176-.76a2.44 2.44 0 0 0-.079-.474c-.036-.141-.106-.199-.193-.307Z" fill="#26985D"/><path fill-rule="evenodd" clip-rule="evenodd" d="M7.242 20.444a.478.478 0 1 0 .002.956.478.478 0 0 0-.002-.956Zm-.938 1.126a.476.476 0 1 0 0 .953.476.476 0 0 0 0-.953Zm1.312.375a.478.478 0 1 0 .002.955.478.478 0 0 0-.002-.955Z" fill="#26985D"/><path d="M8.133 24c3.76 0 6.985-3.288 6.985-7.12 0-3.833-3.225-6.941-6.985-6.941-3.759 0-6.808 3.107-6.808 6.94S4.372 24 8.133 24Z" stroke="#26985D" stroke-width="1.028" stroke-miterlimit="10" stroke-linecap="round" stroke-linejoin="round"/><path d="M13.083 18.067c.127-.237.233-.475.385-.698.186-.273.342-.59.591-.815.103-.092.195-.228.286-.337.075-.09.14-.153.19-.253.015-.034.08-.1.11-.129.03-.03.053-.113.081-.128.085-.05.132-.167.16-.26a.86.86 0 0 0 .028-.21 7.021 7.021 0 0 0-2.63-3.91 1.366 1.366 0 0 1-.21-.078c-.035-.015-.1-.034-.115-.064-.206-.13-.502.117-.745.117-.105 0-.166.045-.25.11-.187.144-.358.307-.594.361a1.299 1.299 0 0 0-.493.282c-.217.21-.498.472-.606.768a.52.52 0 0 0-.027.193c0 .235.248.3.435.374.235.094.506.172.76.186.18.01.36-.015.538.002.303.03.553.199.856.258.248.048.486.137.737.18.147.027.167.16.217.283.045.111.082.256-.033.337-.129.093-.292.11-.438.164-.105.038-.208.078-.319.1-.759.156-1.424-.27-2.165-.27-.413 0-.693.074-.984.379-.17.18-.257.402-.396.602-.133.188-.21.433-.275.654-.134.446-.01.848.23 1.23.12.192.328.342.525.447.106.055.191.137.294.2.152.092.317.142.482.198.126.044.141.146.204.25.132.218.231.488.32.726.1.262.218.523.3.789.048.158.086.324.16.473.16.326.43.623.741.797.136.075.442.039.59.02.181-.025.392-.303.494-.443a2.35 2.35 0 0 0 .265-.54c.078-.208.14-.465.14-.69 0-.369-.062-.757-.017-1.124.02-.17.098-.383.178-.531Z" fill="#26985D"/><path d="M13.297 6.769c-2.394-1.43-4.085-.301-4.753.572a.288.288 0 0 0 .074.418c1.113.733 3.32 1.305 4.767-.53a.312.312 0 0 0-.088-.46Z" stroke="#26985D" stroke-width="1.028" stroke-linecap="round"/><path d="M5.96 3.338c2.631.923 2.848 2.944 2.605 4.016a.288.288 0 0 1-.368.211c-1.276-.384-3.129-1.713-2.647-4a.312.312 0 0 1 .41-.227ZM8.197 11.073c-.209-.57-.501-1.976 0-3.045" stroke="#26985D" stroke-width="1.028" stroke-linecap="round"/><path d="m10.516 1.658.34-.695M8.743 1.547l-.25-.734M11.69 2.992l.732-.252" stroke="#26985D" stroke-width="1.028" stroke-miterlimit="10" stroke-linecap="round" stroke-linejoin="round"/></svg>