<svg width="18" height="21" viewBox="0 0 18 21" fill="none" xmlns="http://www.w3.org/2000/svg">
<path d="M9.0001 19L5.6251 20.125C5.50843 20.1583 5.4001 20.1833 5.3001 20.2C5.2001 20.2167 5.1001 20.225 5.0001 20.225C4.46676 20.225 4.0001 20.0375 3.6001 19.6625C3.2001 19.2875 3.0001 18.8083 3.0001 18.225V12.775L0.400098 8.55C0.300098 8.38333 0.225098 8.2125 0.175098 8.0375C0.125098 7.8625 0.100098 7.68333 0.100098 7.5C0.100098 7.31667 0.125098 7.1375 0.175098 6.9625C0.225098 6.7875 0.300098 6.61667 0.400098 6.45L3.8001 0.95C3.98343 0.65 4.2251 0.416667 4.5251 0.25C4.8251 0.0833333 5.1501 0 5.5001 0H12.5001C12.8501 0 13.1751 0.0833333 13.4751 0.25C13.7751 0.416667 14.0168 0.65 14.2001 0.95L17.6001 6.45C17.7001 6.61667 17.7751 6.7875 17.8251 6.9625C17.8751 7.1375 17.9001 7.31667 17.9001 7.5C17.9001 7.68333 17.8751 7.8625 17.8251 8.0375C17.7751 8.2125 17.7001 8.38333 17.6001 8.55L15.0001 12.775V18.225C15.0001 18.8083 14.8001 19.2875 14.4001 19.6625C14.0001 20.0375 13.5334 20.225 13.0001 20.225C12.9001 20.225 12.8001 20.2167 12.7001 20.2C12.6001 20.1833 12.4918 20.1583 12.3751 20.125L9.0001 19ZM5.5001 13H12.5001L15.9001 7.5L12.5001 2H5.5001L2.1001 7.5L5.5001 13ZM7.9501 8.75L11.4751 5.2C11.6584 5 11.8876 4.90417 12.1626 4.9125C12.4376 4.92083 12.6751 5.01667 12.8751 5.2C13.0751 5.4 13.1793 5.6375 13.1876 5.9125C13.1959 6.1875 13.1001 6.425 12.9001 6.625L8.6501 10.875C8.4501 11.075 8.21677 11.175 7.9501 11.175C7.68343 11.175 7.4501 11.075 7.2501 10.875L5.1251 8.75C4.9251 8.55 4.8251 8.3125 4.8251 8.0375C4.8251 7.7625 4.9251 7.525 5.1251 7.325C5.3251 7.125 5.5626 7.025 5.8376 7.025C6.1126 7.025 6.3501 7.125 6.5501 7.325L7.9501 8.75Z" fill="#757575"/>
</svg>
