<svg viewBox="0 0 38 38" fill="none" xmlns="http://www.w3.org/2000/svg">
  <circle cx="19.497" cy="18.5" r="17" fill="#fff" stroke="url(#paint0_linear_537_10143)" stroke-width="3"/>
  <mask id="path-2-inside-1_537_10143" fill="#fff">
    <path fill-rule="evenodd" clip-rule="evenodd" d="M1.005 18.969C1.23 28.983 9.42 37.032 19.488 37.032 29.7 37.032 38 28.71 38 18.5c0-.31-.008-.618-.023-.924-.98.338-5.158 1.734-7.991 1.949-3.545.268-9.047-1.005-9.047-1.005s-6.394-1.677-10.554-1.508c-3.422.139-8.404 1.651-9.38 1.957Z"/>
  </mask>
  <path fill-rule="evenodd" clip-rule="evenodd" d="M1.005 18.969C1.23 28.983 9.42 37.032 19.488 37.032 29.7 37.032 38 28.71 38 18.5c0-.31-.008-.618-.023-.924-.98.338-5.158 1.734-7.991 1.949-3.545.268-9.047-1.005-9.047-1.005s-6.394-1.677-10.554-1.508c-3.422.139-8.404 1.651-9.38 1.957Z" fill="#FFD600"/>
  <path d="m1.005 18.969-.9-2.878-2.166.678.051 2.268 3.015-.068Zm36.972-1.393 3.012-.148-.198-4.013-3.798 1.31.984 2.851Zm-7.991 1.949.227 3.007-.228-3.007Zm-9.047-1.005-.765 2.917.042.01.043.01.68-2.937Zm-10.554-1.508-.123-3.013.123 3.013Zm9.103 17.004c-8.425 0-15.28-6.736-15.468-15.115l-6.03.136c.263 11.649 9.787 21.01 21.498 21.01v-6.03ZM34.986 18.5c0 8.55-6.955 15.516-15.497 15.516v6.031c11.881 0 21.528-9.675 21.528-21.547h-6.031Zm-.02-.775c.013.256.02.515.02.775h6.03c0-.36-.008-.717-.026-1.072l-6.023.297Zm2.028-3c-1.042.36-4.855 1.613-7.235 1.793l.455 6.014c3.286-.249 7.831-1.789 8.748-2.105l-1.968-5.701Zm-7.235 1.793c-1.406.106-3.38-.096-5.158-.374a50.808 50.808 0 0 1-2.936-.552l-.038-.008-.007-.002h-.001l-.679 2.938-.68 2.938h.003l.005.002.017.003.056.013.2.044a56.785 56.785 0 0 0 3.126.582c1.859.291 4.409.592 6.547.43l-.455-6.014ZM20.94 18.52l.764-2.917-.002-.001c-.002 0-.004 0-.006-.002-.005 0-.01-.002-.018-.004l-.064-.017a56.69 56.69 0 0 0-1.055-.256 67.28 67.28 0 0 0-2.78-.584c-2.157-.405-5.076-.84-7.516-.74l.245 6.026c1.72-.07 4.078.25 6.158.641a60.973 60.973 0 0 1 3.5.768l.009.002h.001l.764-2.916Zm-10.677-4.521c-3.884.158-9.243 1.806-10.158 2.092l1.802 5.755c1.036-.324 5.642-1.7 8.601-1.821l-.245-6.026Z" fill="url(#paint1_linear_537_10143)" mask="url(#path-2-inside-1_537_10143)"/>
  <defs>
    <linearGradient id="paint0_linear_537_10143" x1="11.4" y1="6.209" x2="37.9" y2="29.209" gradientUnits="userSpaceOnUse">
      <stop stop-color="#DDD"/>
      <stop offset="1" stop-color="#A7A7A7"/>
    </linearGradient>
    <linearGradient id="paint1_linear_537_10143" x1="11.302" y1="4.155" x2="37.941" y2="27.289" gradientUnits="userSpaceOnUse">
      <stop stop-color="#FBC400"/>
      <stop offset="1" stop-color="#D1A300"/>
    </linearGradient>
  </defs>
</svg>
