<?xml version="1.0" encoding="utf-8"?>
<!-- Generator: Adobe Illustrator 24.2.1, SVG Export Plug-In . SVG Version: 6.00 Build 0)  -->
<svg version="1.1" id="Layer_1" xmlns="http://www.w3.org/2000/svg" xmlns:xlink="http://www.w3.org/1999/xlink" x="0px" y="0px"
	 viewBox="0 0 1200 1200" style="enable-background:new 0 0 1200 1200;" xml:space="preserve">
<style type="text/css">
	.st0{fill:#F2F2F2;}
	.st1{fill:#4FAF4E;}
	.st2{fill:#BC9066;}
	.st3{fill:#A87E5D;}
	.st4{fill:#F3DECD;}
	.st5{fill:#E8CBAA;}
	.st6{fill:#5F5F5F;}
	.st7{fill:#E0B88E;}
	.st8{fill:#FBF7F2;}
	.st9{fill:#E4E4E3;}
	.st10{fill:#D1D1D1;}
	.st11{fill:#E9AA99;}
	.st12{fill:#BA7C6E;}
	.st13{fill:#5FBC92;}
	.st14{fill:#F0F0F0;}
	.st15{fill:#39363D;}
	.st16{fill:#4D4753;}
	.st17{fill:#5FA483;}
	.st18{fill:#FDFDFB;}
	.st19{fill:#A8A9A8;}
	.st20{fill:#D2E0E8;}
	.st21{fill:#C5CFD6;}
	.st22{fill:#E67354;}
	.st23{fill:#55A3E4;}
	.st24{fill:#56D78A;}
	.st25{fill:#AAD5EE;}
	.st26{fill:#B2D9EA;}
	.st27{fill:#C9E3E5;}
	.st28{fill:#DDEDE0;}
	.st29{fill:#EFF3DA;}
	.st30{fill:#F8F8D8;}
	.st31{fill:#FAF9D7;}
	.st32{fill:#E5CB47;}
	.st33{fill:#43150D;}
	.st34{fill:#D0C647;}
	.st35{fill:#C74529;}
	.st36{fill:#682617;}
	.st37{fill:#F3F3F3;}
	.st38{fill:#D7DEDB;}
	.st39{fill:#D7D7D7;}
	.st40{fill:#DCDBDA;}
	.st41{fill:#F3EAE7;}
	.st42{fill:#FCEEEB;}
	.st43{fill:#F6E4E4;}
	.st44{fill:#ECDCE0;}
	.st45{fill:#E2D3D8;}
	.st46{fill:#070405;}
	.st47{fill:#86593A;}
	.st48{fill:#EDB853;}
	.st49{fill:none;stroke:#714341;stroke-width:0;stroke-linecap:round;stroke-linejoin:round;}
	.st50{fill:#714341;}
	.st51{fill:#E4E1DC;}
	.st52{fill:#ECEFFF;}
	.st53{fill:#E6ECFF;}
	.st54{fill:#E3EEFF;}
	.st55{fill:#DDECFF;}
	.st56{fill:#DBEFFF;}
	.st57{fill:#DAEFFF;}
	.st58{fill:#1D2B45;}
	.st59{fill:#A5A0B1;}
	.st60{fill:#7383A7;}
	.st61{fill:#77A9B0;}
	.st62{fill:#537E87;}
	.st63{fill:#AED5DE;}
	.st64{fill:#91BFC9;}
	.st65{fill:#B2D5DF;}
	.st66{fill:#79AFB8;}
	.st67{fill:#96CCD9;}
	.st68{fill:#C18C40;}
	.st69{fill:#DDDAD9;}
	.st70{fill:#8E8E8E;}
	.st71{fill:#DEAD94;}
	.st72{fill:#D9A48C;}
	.st73{fill:#D89B87;}
	.st74{fill:#D49380;}
	.st75{fill:#D18C7D;}
	.st76{fill:#D08779;}
	.st77{fill:#354A73;}
	.st78{fill:#637492;}
	.st79{fill:#26365B;}
	.st80{fill:#192547;}
	.st81{fill:#0C1430;}
	.st82{fill:#FFFFFF;}
	.st83{fill:#737378;}
	.st84{fill:#A7A8AD;}
	.st85{fill:#8A8B8F;}
	.st86{fill:#FBDCC0;}
	.st87{fill:#CDCED4;}
	.st88{fill:#4D93C6;}
</style>
<g>
	<g>
		<rect y="0" class="st0" width="1200" height="1200"/>
	</g>
	<path class="st22" d="M900,527.5c-6.2,0-11.2,5-11.2,11.2v43.3h-71.3c-4.1-50.8-25.7-96.7-58.6-131.7l53.3-53.3l30.6,30.6
		c2.2,2.2,5.1,3.3,8,3.3s5.8-1.1,8-3.3c4.4-4.4,4.4-11.5,0-15.9l-38.6-38.6c0,0,0,0,0,0c0,0,0,0,0,0l-38.6-38.6
		c-4.4-4.4-11.5-4.4-15.9,0c-4.4,4.4-4.4,11.5,0,15.9l30.6,30.6l-53.6,53.6c-35.6-30.8-81.2-50.2-131.3-52.7v-77.5h43.3
		c6.2,0,11.2-5,11.2-11.2c0-6.2-5-11.2-11.2-11.2H545.5c-6.2,0-11.2,5-11.2,11.2c0,6.2,5,11.2,11.2,11.2h43.3v77.5
		c-50.1,2.5-95.7,22-131.3,52.7l-53.6-53.6l30.6-30.6c4.4-4.4,4.4-11.5,0-15.9c-4.4-4.4-11.5-4.4-15.9,0l-38.6,38.6c0,0,0,0,0,0
		c0,0,0,0,0,0l-38.6,38.6c-4.4,4.4-4.4,11.5,0,15.9c2.2,2.2,5.1,3.3,8,3.3c2.9,0,5.8-1.1,8-3.3l30.6-30.6l53.3,53.3
		c-33,35-54.5,80.9-58.6,131.7h-71.3v-43.3c0-6.2-5-11.2-11.2-11.2s-11.2,5-11.2,11.2v109.1c0,6.2,5,11.2,11.2,11.2
		s11.2-5,11.2-11.2v-43.3h70.6c1.1,52.7,20.9,100.8,53,138l-47,47l-30.6-30.6c-4.4-4.4-11.5-4.4-15.9,0c-4.4,4.4-4.4,11.5,0,15.9
		l77.1,77.1c2.2,2.2,5.1,3.3,8,3.3s5.8-1.1,8-3.3c4.4-4.4,4.4-11.5,0-15.9l-30.6-30.6l46.6-46.6c36.5,34.4,84.9,56.4,138.3,59.1
		v64.2h-43.3c-6.2,0-11.2,5-11.2,11.2s5,11.2,11.2,11.2h109.1c6.2,0,11.2-5,11.2-11.2s-5-11.2-11.2-11.2h-43.3v-64.2
		c53.4-2.7,101.8-24.7,138.3-59.1l46.6,46.6l-30.6,30.6c-4.4,4.4-4.4,11.5,0,15.9c2.2,2.2,5.1,3.3,8,3.3s5.8-1.1,8-3.3l77.1-77.1
		c4.4-4.4,4.4-11.5,0-15.9c-4.4-4.4-11.5-4.4-15.9,0l-30.6,30.6l-47-47c32.1-37.2,51.9-85.3,53-138h70.6v43.3
		c0,6.2,5,11.2,11.2,11.2c6.2,0,11.2-5,11.2-11.2V538.8C911.2,532.6,906.2,527.5,900,527.5z"/>
</g>
</svg>
