<?xml version="1.0" encoding="utf-8"?>
<!-- Generator: Adobe Illustrator 24.2.1, SVG Export Plug-In . SVG Version: 6.00 Build 0)  -->
<svg version="1.1" id="Layer_1" xmlns="http://www.w3.org/2000/svg" xmlns:xlink="http://www.w3.org/1999/xlink" x="0px" y="0px"
	 viewBox="0 0 1200 1200" style="enable-background:new 0 0 1200 1200;" xml:space="preserve">
<style type="text/css">
	.st0{fill:#F2F2F2;}
	.st1{fill:#4FAF4E;}
	.st2{fill:#BC9066;}
	.st3{fill:#A87E5D;}
	.st4{fill:#F3DECD;}
	.st5{fill:#E8CBAA;}
	.st6{fill:#5F5F5F;}
	.st7{fill:#E0B88E;}
	.st8{fill:#FBF7F2;}
	.st9{fill:#E4E4E3;}
	.st10{fill:#D1D1D1;}
	.st11{fill:#E9AA99;}
	.st12{fill:#BA7C6E;}
	.st13{fill:#5FBC92;}
	.st14{fill:#F0F0F0;}
	.st15{fill:#39363D;}
	.st16{fill:#4D4753;}
	.st17{fill:#5FA483;}
	.st18{fill:#FDFDFB;}
	.st19{fill:#A8A9A8;}
	.st20{fill:#D2E0E8;}
	.st21{fill:#C5CFD6;}
	.st22{fill:#E67354;}
	.st23{fill:#55A3E4;}
	.st24{fill:#56D78A;}
	.st25{fill:#AAD5EE;}
	.st26{fill:#B2D9EA;}
	.st27{fill:#C9E3E5;}
	.st28{fill:#DDEDE0;}
	.st29{fill:#EFF3DA;}
	.st30{fill:#F8F8D8;}
	.st31{fill:#FAF9D7;}
	.st32{fill:#E5CB47;}
	.st33{fill:#43150D;}
	.st34{fill:#D0C647;}
	.st35{fill:#C74529;}
	.st36{fill:#682617;}
	.st37{fill:#F3F3F3;}
	.st38{fill:#D7DEDB;}
	.st39{fill:#D7D7D7;}
	.st40{fill:#DCDBDA;}
	.st41{fill:#F3EAE7;}
	.st42{fill:#FCEEEB;}
	.st43{fill:#F6E4E4;}
	.st44{fill:#ECDCE0;}
	.st45{fill:#E2D3D8;}
	.st46{fill:#070405;}
	.st47{fill:#86593A;}
	.st48{fill:#EDB853;}
	.st49{fill:none;stroke:#714341;stroke-width:0;stroke-linecap:round;stroke-linejoin:round;}
	.st50{fill:#714341;}
	.st51{fill:#E4E1DC;}
	.st52{fill:#ECEFFF;}
	.st53{fill:#E6ECFF;}
	.st54{fill:#E3EEFF;}
	.st55{fill:#DDECFF;}
	.st56{fill:#DBEFFF;}
	.st57{fill:#DAEFFF;}
	.st58{fill:#1D2B45;}
	.st59{fill:#A5A0B1;}
	.st60{fill:#7383A7;}
	.st61{fill:#77A9B0;}
	.st62{fill:#537E87;}
	.st63{fill:#AED5DE;}
	.st64{fill:#91BFC9;}
	.st65{fill:#B2D5DF;}
	.st66{fill:#79AFB8;}
	.st67{fill:#96CCD9;}
	.st68{fill:#C18C40;}
	.st69{fill:#DDDAD9;}
	.st70{fill:#8E8E8E;}
	.st71{fill:#DEAD94;}
	.st72{fill:#D9A48C;}
	.st73{fill:#D89B87;}
	.st74{fill:#D49380;}
	.st75{fill:#D18C7D;}
	.st76{fill:#D08779;}
	.st77{fill:#354A73;}
	.st78{fill:#637492;}
	.st79{fill:#26365B;}
	.st80{fill:#192547;}
	.st81{fill:#0C1430;}
	.st82{fill:#FFFFFF;}
	.st83{fill:#737378;}
	.st84{fill:#A7A8AD;}
	.st85{fill:#8A8B8F;}
	.st86{fill:#FBDCC0;}
	.st87{fill:#CDCED4;}
	.st88{fill:#4D93C6;}
</style>
<rect x="0" y="0" class="st0" width="1200" height="1200"/>
<g>
	<path class="st1" d="M599.4,477.6c5.3-4.8,10.7-9.5,15.8-14.5c17.6-17.5,38.2-29.3,63-32.6c38.3-5.1,69.1,8.2,91.8,39.6
		c11.5,15.9,18.6,33.6,20.3,53.3c1.5,16.4-0.9,32.4-5.9,48c-7.3,22.5-19.1,42.6-33,61.5c-19.1,25.9-41.6,48.7-65.5,70.2
		c-26.7,24-55.2,45.8-84.3,66.8c-1,0.7-1.7,1.1-2.9,0.2c-38.9-28.4-77-57.8-110.9-92.2c-20.5-20.8-39.4-42.8-54.3-68.1
		c-10-16.9-17.7-34.8-21.8-54.1c-10.7-51.4,17-92.9,43.8-110.8c19-12.7,39.9-17.5,62.5-15.1c26.5,2.9,48.7,14.7,67.3,33.5
		c4.4,4.4,8.7,9,13,13.5c0.6,0.6,0.9,1.3,1.4,2C599.5,478.4,599.5,478,599.4,477.6z"/>
</g>
<g>
	<path class="st2" d="M958,678.5l-5.7,2.2l-15.1-12.6h-10.4l-12.1,10.4l-3.5-5.1h-10.4l-10.4,10.4l-41.5,62.3l0.8-35.8l-4.4-10.2
		l-5.3,3l-5.1,5l-17.5,77.3l-12.7,27.1l-13.7,20.5l0,0l21.3-8.5l41.7-41.7L885,762h31.3v20.9c0,0-20.9,31.3-31.3,41.7
		c-10.4,10.4-52.1,41.7-52.1,41.7L780.7,908l-61.4,41.7l-56,90.4l-21.5,34.8l-5,125.1h131.8l-20.8-187.7l20.9-41.7l114.7-93.9
		l73-146l12.1-41.7L958,678.5z"/>
	<path class="st3" d="M719.3,949.7l61.4-41.7l52.1-41.7c0,0,41.7-31.3,52.1-41.7c10.4-10.4,31.3-41.7,31.3-41.7V762H885l-31.3,20.9
		L812,824.6l-21.3,8.5l0,0l0,0l-30.8,12.3l-93.9,73l-20.9,73l-3.3,83.4l0,0l21.5-34.8L719.3,949.7z"/>
	<path class="st2" d="M480.7,949.7L419.3,908l-52.1-41.7c0,0-41.7-31.3-52.1-41.7c-10.4-10.4-31.3-41.7-31.3-41.7V762H315l31.3,20.9
		l41.7,41.7l21.3,8.5l-13.7-20.5l-12.7-27.1l-17.5-77.3l-5.1-5l-5.3-3l-4.4,10.2l0.8,35.8l-41.5-62.3l-10.4-10.4h-10.4l-3.5,5.1
		l-12.1-10.4h-10.4l-15.1,12.6l-5.7-2.2L231.5,689l12.1,41.7l73,146l114.7,93.9l20.9,41.7L431.4,1200h131.8l-5-125.1L480.7,949.7z"
		/>
	<path class="st3" d="M388,824.6l-41.7-41.7L315,762h-31.3v20.9c0,0,20.9,31.3,31.3,41.7c10.4,10.4,52.1,41.7,52.1,41.7l52.1,41.7
		l61.4,41.7l77.5,125.1l0,0l-3.3-83.4l-20.9-73l-93.9-73l-30.8-12.3L388,824.6z"/>
</g>
</svg>
